<?xml version="1.0" encoding="utf-8"?>
<!-- Generator: Adobe Illustrator 27.0.1, SVG Export Plug-In . SVG Version: 6.00 Build 0)  -->
<svg version="1.1" id="Capa_1" xmlns="http://www.w3.org/2000/svg" xmlns:xlink="http://www.w3.org/1999/xlink" x="0px" y="0px"
	 viewBox="0 0 140 60" style="enable-background:new 0 0 140 60;" xml:space="preserve">
<style type="text/css">
	.st0{fill:#C0C0C0;}
</style>
<path class="st0" d="M116.8,32.7c0-0.1,0-0.2,0-0.4c0,0-0.1-0.1-0.2-0.1C116.6,32.4,116.8,32.6,116.8,32.7z M42,48.6
	c0,0-0.1,0-0.1,0C41.9,48.6,42,48.6,42,48.6l0.1,0C42.1,48.6,42,48.6,42,48.6z M31,50.9c0.1,0.2-0.7,0.3,0.3,0.2
	C31.1,51.1,31,51,31,50.9z M112.5,36.8l0.1-0.1c0-0.1,0-0.1,0-0.2L112.5,36.8z M106.5,41.8C106.5,41.8,106.6,41.8,106.5,41.8
	C106.6,41.8,106.5,41.8,106.5,41.8L106.5,41.8z M94.2,45.7c-0.2,0.1-0.4,0.1-0.6,0.2c0.2,0,0.3-0.1,0.5-0.1L94.2,45.7z M97.2,47.1
	l0.1-0.3l-0.6,0.2L97.2,47.1z M100.4,44.6l0-0.3C100,44.5,100.4,44.4,100.4,44.6z M70.8,37.4c0,0,0-0.1,0-0.2
	C70.8,37.2,70.8,37.3,70.8,37.4z M70.6,15.2c0.2,0,0.6-0.2,0.7-0.5C71,14.9,70.7,15,70.6,15.2z M66.7,29.3c0.1,0.2,0.5,0.2,0.3-0.2
	L66.7,29.3z M66.5,28.2c0,0,0,0.1,0,0.1c0,0,0,0.1,0,0.2L66.5,28.2z M106.3,41.9c-0.2,0.1-0.3,0.1-0.5,0.2
	C105.9,42.1,106.1,42,106.3,41.9z M81.6,15.7c-0.1-0.6,0.8,0.5,0.5-0.3C82,15.6,81.3,15.1,81.6,15.7z M67.9,32.8
	C67.9,32.8,67.9,32.9,67.9,32.8c0,0.1,0.1,0.2,0.1,0.3C68,33,68,33,67.9,32.8z M89.3,46.6c-0.1,0-0.2,0-0.2,0.1
	C89.2,46.6,89.2,46.6,89.3,46.6z M114,37.1c0,0,0.1,0,0.1,0C114.1,37.1,114.1,37.1,114,37.1z M116.7,34.4c0.1-0.1,0.3-0.2,0.4-0.3
	C116.9,34.2,116.8,34.3,116.7,34.4z M76.9,45.4c0,0-0.1,0-0.1,0C76.5,45.3,76.7,45.4,76.9,45.4z M89.6,47.8c0.3,0.1,0.5,0,0.7,0
	C90.1,47.8,89.8,47.8,89.6,47.8z M123.1,26c0.2-0.2,0.6-0.5,0.7-0.9l-0.1-0.1C123.8,25.3,123.1,25.7,123.1,26z M124.3,23.8
	c0,0.1,0.1,0.1,0,0.2c0-0.1,0.1-0.1,0.1-0.2C124.3,23.8,124.3,23.8,124.3,23.8z M124.4,23.9c0-0.1,0.1-0.2,0.1-0.3L124.4,23.9
	L124.4,23.9z M90.7,47.7c-0.1,0.1-0.3,0.1-0.4,0.2C90.5,47.9,90.7,47.8,90.7,47.7z M64.7,30.4c0.1-0.2,0.1-0.4,0.1-0.5
	c0,0-0.1-0.1-0.1-0.1L64.7,30.4z M80.8,44.5C80.8,44.5,80.8,44.5,80.8,44.5C80.9,44.5,80.9,44.5,80.8,44.5z M65.9,33.8L65.6,33
	C65.7,33.2,65.8,33.5,65.9,33.8z M86.2,46.1c-0.1,0-0.1-0.1-0.2,0C86.1,46.1,86.1,46.1,86.2,46.1z M15,51.6
	C15,51.5,14.9,51.5,15,51.6C14.9,51.5,14.9,51.6,15,51.6z M65.9,33.9L65.9,33.9L65.9,33.9L65.9,33.9z M67.8,46.1L67.8,46.1l-0.1,0
	L67.8,46.1z M7.7,50.2l0.1,0c0-0.1,0-0.1,0-0.2L7.7,50.2z M118.7,32.3c0-0.1,0-0.1-0.1-0.1l0,0L118.7,32.3z M125.8,21.3
	c0,0.1-0.1,0.1,0,0.2L125.8,21.3z M125.7,21.5C125.7,21.5,125.7,21.5,125.7,21.5l-0.1,0.1L125.7,21.5z M125.8,20
	c-0.1,0.1-0.1-0.1-0.2-0.1c0,0.4,0,0.9,0.4,0.8c-0.1-0.5,0-0.5-0.1-1c0.1-0.3,0.3-0.4,0.4-0.3c0-0.1,0.3-0.4,0.2-0.6
	C126.1,19,125.9,19.4,125.8,20z M125.8,21l-0.1,0.3C125.8,21.2,125.9,21.1,125.8,21z M125.2,21.2c0.1-0.2,0.3,0,0.2,0.2
	c-0.1,0.6-0.4,0.6-0.5,0.6l0.1-0.4c-0.7,0.1-0.6,1.4-1.1,2.1l-0.2-0.5l-0.1,0.9c-0.2,0.1-0.4,0.1-0.3-0.3c-0.5,0.4-0.1,0.5-0.6,0.8
	c-0.1,0-0.1,0-0.1-0.1l-0.2,0.5c0-0.1-0.3-0.1-0.1-0.3c-0.7,0.7-0.5,1.5-1,1.7l0-0.1c-0.6,1.2,0.2,0.3-0.1,1.3l-1,0.2l0.2,0.3
	c-0.1,0.1-0.3,0.3-0.3,0.2c-0.1,0.5,0.2,0,0.2,0.4c-0.6,0.4-1,1.6-1.5,1.4c0,0.3,0.5-0.4,0.2,0.3c-0.5-0.1-0.4,0.7-1,1.1
	c-0.1-0.3,0.4-0.7-0.2-0.3c0.1,0.6-0.8,0.9-1.1,1.3c0.3,0.2-0.6,1-1.1,1.7c-0.1-0.1-1.2,1.1-1.9,1.5l0-0.1c0.2,0.4-0.5,0.9-0.9,1.4
	c-0.1-0.2-0.1-0.3,0.1-0.6l-0.4,0.4c0,0.2-0.1,0.3-0.3,0.6l-0.1-0.3c-0.5,0.5-0.9,1.2-1.8,1.7c0.1,0.2,1.1,0.1,0.4,0.8
	c-0.1-0.1-0.3-0.2-0.1-0.5c-0.1,0.1-0.2,0.3-0.4,0.3l0.2-0.4c-0.4,0.2-0.1,0.3-0.4,0.5c-0.1-0.2-0.3,0.1-0.3-0.1
	c0.1-0.1,0.3-0.1,0.4-0.3c-0.3,0.2-0.8,0.4-1,0.4c0.1,0.1,0.2,0.2-0.1,0.4c-0.6,0.4-0.4,0-0.8,0.1c-0.1,0.2-0.5,0.4-0.4,0.6
	c-0.2,0.1-0.3,0-0.4,0c-0.3,0.3-1.5,1-1,1l0.1,0l0,0c-0.9,0.9-2.4,1.2-3.5,1.8l0-0.1c-0.6,0.4-1.5,0.7-1.9,1.2
	c-0.2,0.1-0.6,0-0.5-0.1c-0.5,0.3-0.5,0.4-1.4,0.5c0.5-0.4-0.2-0.1,0.5-0.3c-0.7,0.2-0.9,0.1-1.6,0.6c0.2-0.3-0.6-0.1-0.9,0
	c0.2,0,0.4,0,0.6,0c-0.4,0.2-0.7,0.2-1.1,0.3l0.1-0.4c-0.8,0-1.4,0.3-2,0.6c-0.6,0.3-1.2,0.5-1.8,0.2c-0.4,0.3,0.8,0.1,0.5,0.4
	c-0.7,0-1.5-0.3-1.7-0.3c-1-0.1-0.9,0.6-1.9,0.5c0.1,0.1,0.3,0.4-0.5,0.5c-0.7,0-0.9-0.5-0.4-0.6c0.2,0,0.2,0,0.2,0.1
	c0.2,0,0.5-0.1,0.2-0.2l-0.1,0.1c-0.3-0.1-1.3-0.1-1.1-0.3c-0.5,0.1-0.2,0.2,0.2,0.3c-0.9-0.2-1.4-0.1-2.3-0.3
	c0.1,0.1,0.3,0.2,0.1,0.2c-1.3-0.3-0.6,0.1-1.5,0.1C84.3,46.2,85,46,84.1,46c-0.5-0.2-0.1-0.3,0.2-0.4c-0.9,0.1-1.5-0.5-1.9-0.7
	l0.4,0c-0.3,0-0.5-0.1-0.7-0.1l0.2,0.3c-0.2-0.1-0.4-0.2-0.4-0.3c-0.3,0.1,0.1,0.4-0.5,0.5c-0.3-0.2-1-0.2-1-0.6
	c1,0.5,0-0.3,0.9-0.1c-0.2,0-0.4-0.1-0.6-0.2c0,0,0.1,0,0.1,0c-0.8-0.6-0.6,0.2-1.5-0.2c0.2-0.1-0.1-0.4-0.3-0.4
	c0.4,0.2,0.1,0.4-0.4,0.3c-0.6-0.4-0.7-0.2-1-0.4c0.1,0.1,0.2,0.2,0.3,0.3c-0.2,0.1-0.5-0.1-0.9-0.3c0-0.1,0.4,0.1,0.3,0
	c-0.6,0-0.9-0.9-1.6-1.1c-0.2-0.3,0.2-0.3,0-0.5c0,0,0,0,0,0c0.9-0.7,1.7-1.5,2.6-2.4c-0.5,0.3-0.6,0-0.3-0.4l0.4,0.1
	c0.1-0.4-0.4,0.3-0.2-0.4c0.4-0.4,0.5,0,0.4,0.3l0.4-0.6c0.1,0,0,0.2,0.1,0.3c0-0.3,1.1-0.7,1.1-1.3l0.1,0c0.5-0.6,0.8-1.1,1.1-1.6
	c0.3-0.5,0.5-0.9,0.8-1.5c-0.2-0.2,0.1-0.6,0.1-1c0.3-0.4,0.5-0.8,0.8-1.2c0.3-0.4,0.5-0.9,0.7-1.5c0.2-0.8-0.1-0.3-0.2-0.7
	c0.3,0,0.6-1,0.6-0.4c0.4-1.3,0.6-1.6,0.8-3.3c-0.1,0.2-0.2,0.3-0.3,0.2c0-0.3,0.3-0.7,0.4-0.6l0,0.1c0-1,0.4-2,0.7-3.1
	c0.3-1.1,0.4-2.2,0-3l0,0.1c-0.2-0.6-0.3-1.1-0.6-1.6c-0.1-0.8,0.3,0.4,0.3-0.2c-0.9-1.6-0.9-2.8-2-3.9c0-0.7-0.8-1.6-1.7-2.2
	c-0.9-0.7-2.1-1.1-2.8-1.6l0,0.2c-0.5,0-0.5-0.3-0.8-0.3c0,0.1,0.4,0.2,0.1,0.3c-3.6-0.6-7.5,0.8-10,3.3c-0.9,0.9,0.2,1.1-1.1,2.1
	l0-0.6c-0.6,1.2-1.3,2.3-1.8,3.5c-0.5,1.2-0.8,2.5-0.8,3.7c-0.1-0.2-0.2-0.2-0.1-0.4c-0.3,0.5-0.2,1.9,0,1.9c0,0.4-0.2,0.1-0.3,0.3
	c-0.1,0.5,0.3,1.3,0.1,1.6c0,0-0.1-0.1-0.1-0.2c0.1,0.3,0.1,1.6,0.3,1.2c0,0.5,0,0.9,0.1,1.3c0.1,0.4,0.2,0.8,0.2,1.2
	c0.4,0.4,0.3,1.6,0.7,1.6c-0.2,0-0.2,0.4-0.1,0.9c0.2,0.5,0.4,0.9,0.7,1.2c-0.2-0.1,0.1,0.5-0.2,0.4c0.2,0.6,0.6,1.1,0.8,0.9
	c0,1.4,1.6,1.9,1.3,2.8c1.2,1.4,2.4,2.6,3.6,3.6c-0.1,0-0.1,0.1-0.2,0.1c-0.4-0.3-1-1.1-1.2-0.8c0.4,0.4,0.8,0.6,1.1,0.9
	c-0.1,0-0.1,0.1-0.2,0.1l0.2,0.5c-0.5,0-0.9,0.2-1.3,0.4c-0.5,0.2-0.9,0.4-1.3,0.7c-0.9,0.5-1.7,0.9-2.2,0.7
	c-0.3,0.3-0.8,0.4-1.1,0.7l-0.1-0.3c-1.1,0.3-1.6,0.4-2.9,0.8l0.2-0.3c-0.7,0.2-0.7,1-1.4,1.2L61,45.7c-1.3,0.3-2.7,0.2-3.9,0.9
	c0-0.1,0-0.2,0.2-0.3c-0.6,0.1-2.5,0.1-2.1,0.7c-0.1-0.4-1.4,0.2-2.1,0.5l0.1-0.3c-0.6,0.4-0.6,0.5-1.4,0.8c-0.2,0-0.2-0.2,0.1-0.2
	c-0.7,0-0.5,0.3-1.3,0.3l0.3-0.2c-0.7,0.1-0.6,0.1-1,0.4c-0.4,0.2-1.3,0.1-1.5-0.2c-0.1,0.2-0.4,0.4-0.9,0.4
	c-0.1-0.1,0.1-0.2,0.2-0.2c-1.2-0.1-1.7,0.5-2.5,0.3c0-0.1-0.1-0.1-0.2-0.2c0.9-0.1,1.7-0.1,1.6-0.1c0-0.3-0.8-0.2-0.2-0.6
	c-0.6,0.3-1.6,0.8-2.3,0.7c0,0-0.1,0-0.1-0.1l0.1,0c-0.2,0-0.3,0-0.5,0.1c-0.2,0-0.4,0-0.6,0c-0.1-0.2-0.9-0.1-1.2,0
	c0.1,0.3-0.4,0.3,0,0.5c-0.1,0,0.1,0,0.3-0.1c0.1,0,0.1,0,0.2,0l0,0c0.2,0,0.6-0.1,0.9-0.1c-0.3,0.2-0.6,0.3-1,0.2
	c-0.2,0.2-0.4,0.4-0.5,0.5c-0.5-0.4-1.5-0.5-1.7-0.7c-1.1,0.2-2.7,0.3-3.4,0.8c-0.3,0.1-0.4-0.1-0.5-0.2c0.2-0.1,0.4-0.1,0.5-0.1
	c-0.6,0.2-1.9,0.1-2.1,0.5c-0.8-0.1,0.4-0.4-0.7-0.3l0.1-0.1c-2.2-0.5-3.6,1.1-6.1,0.4c0.2,0,0.3,0.1,0.3,0.1
	c-2.8-0.3-5.8,0.4-8.6-0.1c-0.8-0.1-0.9,0.1-1.4,0.3l-0.2-0.3L17,49.8c-1.2,0.3-2-0.7-3.5-0.2l0.2,0.2c-0.5,0-1.7,0.1-1.6-0.1
	c-0.1,0-0.2,0.2-0.4,0.1l0-0.2l-1.3,0.3c-1-0.1,0.2-0.6-1.3-0.7c-0.6,0.1-1.6,0.5-1.4,0.6c0.2,0,0.6,0.1,0.6,0.3l-0.5,0.1
	c-0.1,0.5-0.5,0.9,0.8,1.3l0.9-0.3l0.3,0.2l-0.7,0c0.4,0.2,0.7,0,1-0.1c0.1,0.1,0.2,0.2,0.4,0.2l0.8-0.4c0.1,0.2-0.4,0.4,0.2,0.5
	c0.4-0.2-0.4-0.4,0.3-0.5c0.4,0.2,0.3,0.4,0.8,0.2c0.1,0.1,0,0.2-0.2,0.2c0.4-0.1,1.1-0.1,1.4-0.3c0.4,0.3,1.5-0.1,1.4,0.4
	c0.1-0.1,0.8-0.4,1.2-0.4c-0.7,0.5,1.5,0,1.3,0.6c0.5-0.5,1.9-0.2,2.9-0.5c-0.1,0-0.2,0.1-0.2,0.1c0.5,0,0.7,0.2,1,0.3
	c0.1-0.4,0.9-0.5,1.3-0.7c0.7,0.4-0.4,0.5-0.2,0.8c0-0.3,1.1-0.3,0.9-0.6c0.5,0.2,0.4,0.1,0.7,0.4c0.1-0.5,0.5-0.1,0.9-0.4
	c0.7,0.2,0.2,0.5,1,0.3c0.4,0.1-0.3,0.3-0.3,0.3c0.8,0,0.4-0.4,0.5-0.6c1-0.1,0.5,0.3,0.8,0.4c0.6-0.1,1.1-0.5,1.5-0.5
	c0,0.1,0.1,0.1,0,0.2c0.6-0.3,1.9-0.1,2.6-0.5c0.1,0,0.1,0.1,0.1,0.1c-0.1-0.2-0.2-0.4-0.1-0.5c0.4,0,0.7-0.3,0.8,0
	c-0.2,0-0.2,0.1-0.3,0.2l0.4-0.1c0.4,0.3-0.5,0.1-0.5,0.4c0.7-0.1,1.6-0.5,2.2-0.4c0.1,0.3-1.3,0.2-0.6,0.4l-0.9-0.1
	c0.7,0.5-0.5,0,0.1,0.5c1.2,0.1,1.3-0.2,2.5-0.2c0.3-0.2-0.1-0.3,0.2-0.5c1.6-0.4,1.3,0.8,2.5,0.3c0.3-0.2,0.4-0.7,1.3-0.5l-0.3,0.4
	c1.1,0,0.6-0.6,1.8-0.4c-0.2,0.2-0.9,0.2-0.7,0.2c0.8,0.3,0.5-0.3,1.1-0.3l0.1,0.3c1.2-0.1,2.5-0.5,3.8-0.6c-0.1,0.1-0.3,0.2,0,0.3
	c1.7-0.3,3.6-0.3,5.2-0.3l0.6-0.4c0.1,0,0.3,0.1,0.1,0.2c0.6,0,0-0.2,0.3-0.3c0.4-0.1,0.5,0.1,0.3,0.2c1.1-0.4,3.1-0.9,4.3-0.8
	l-0.2,0.1c0.9,0,0.9-0.8,1.8-0.6l-0.2,0.1c2-0.2,4.1-0.9,5.7-0.9c0.2-0.5,2-0.3,1.9-0.9c1.2-0.1,0.9,0.2,2.5-0.2
	c0.4-0.1,0.5-0.6,1-0.8l0.1,0.3l0.6-0.6l0.5,0.2l0.4-0.3c-0.2,0.1-0.4,0-0.5-0.1c0.7-0.4,1.8-0.6,1.9-0.5c0.5-0.3,1-0.7,1.5-1.1
	c0,0.1-0.2,0.3-0.4,0.5c0.7-0.8,0.3,0.2,1-0.5c-0.1,0,0-0.2,0-0.3c0.2,0,0.4-0.1,0.7-0.3c0.6,0.4,1.2,0.8,1.8,1.2
	c0.7,0.4,1.3,0.8,2,1c0,0-0.2,0-0.3,0c0.3,0.1,0.6,0.4,0.6,0.2l-0.3-0.1c-0.3-0.5,1.3-0.1,1.4-0.2c-0.3,0.2,0,0.4,0.2,0.5
	c0.3,0.2,0.5,0.3,0,0.6c0.2,0,0.5,0,0.5-0.1c0.2,0.1,0.3,0.2,0,0.3c1,0.3,0.7-0.1,1.6,0.2c0,0.1-0.2,0.1-0.4,0.2
	c0.5,0,1-0.1,1.7,0.2c-0.1,0,0,0.1-0.2,0.1c1.3,0.3,2.3,0,3.7,0.4c-0.5,0.4,0.5,0.2,0.5,0.6l0.8-0.1L86.9,48c0.7,0,1.3-0.2,1.9,0
	l-0.5,0.2l1.3-0.1l-0.7-0.1c0.7-0.2-0.1-0.5,0.8-0.4c-0.2,0,0.7,0,1,0.2l0,0c0.3-0.1,0.7-0.3,1.2-0.2c0.1,0.1-0.1,0.4,0,0.5
	c0.3-0.3,1.6-0.3,2-0.7c-0.1,0.1-0.1,0.3-0.1,0.3l0.2-0.3c0.3,0,0.4,0.1,0.4,0.2c0.9-0.1-0.4-0.4,0.8-0.4c-0.1,0,0,0.1-0.2,0.1
	c1.1-0.1,2.1-0.6,3.1-0.8c0.4,0.3-0.9,0.3-0.4,0.5c1.5-0.5,2.9-1.3,4.2-1.8l-0.3,0.1c0-0.6,1.1-0.2,1.7-0.7
	c-0.1,0.1-0.1,0.4-0.1,0.3c0.9-0.4,1.8-1,3-1.9l-0.1,0.2c0.6-0.2,1.4-0.8,1.9-1c0.1-0.2,0.4-0.4,0.1-0.4c2.1-0.5,2.7-2.5,4.4-3.2
	c-0.2,0.1-0.3,0.4-0.2,0.3c0.4-0.3,0.7-0.7,1-1.1c-0.2-0.1-0.2,0-0.6,0.1c0-0.2,0.3-0.6,0.5-0.8c-0.4,0.6,0.3,0.3,0.6,0.2
	c-0.1,0-0.1-0.1-0.1-0.2c0.8-0.2-0.2-0.4,0.7-1l0,0.1c0.2-0.3,0.4-0.7,0.7-1c0.3,0.1-0.2,0.4-0.1,0.6c0.4-0.4,0.4-1.2,1-1.4
	c-0.1,0.2-0.4,0.5-0.5,0.7c0.6-0.2,0.6-0.3,0.9-0.6l0,0c0.3-0.2,0.5-0.4,0.8-0.7l-0.2,0.1c0-1,0.9-1.2,1.1-2.3
	c-0.3,1,0.1,0.3,0.3,0.5c0.2-0.1,0.5-0.4,0.5-0.3c0.1-0.5,0.6-0.5,0.8-1.3c0.1,0,0.3-0.4,0.4-0.2c0.3-0.5-0.2,0-0.3-0.1
	c0.3-1,1.6-1.6,2-3c0.5-1.1,0.3-1.5,0.7-2.5c0.3-0.2,0.1,0.4,0.1,0.4c0.4-0.4,0.6-0.8,0.8-1.4c0,0.1,0.1,0.1,0.3,0
	c0.2-0.4-0.2-0.4,0.3-0.9c0,0.1,0.1,0.3,0.1,0.6c0.2-0.5,0.3-1.1,0.5-1.6c0.2,0,0.1,0.4,0.1,0.6c0.2-0.6,0.6-1.5,0.5-1.8L125.2,21.2
	z M42.3,48.3C42.3,48.3,42.3,48.3,42.3,48.3c0,0,0-0.1,0.1-0.1c0.2-0.1,0.3,0,0.4,0C42.6,48.2,42.5,48.3,42.3,48.3z M43.9,50
	c0.1,0,0.2,0,0.4-0.1l0,0C44.1,50,44,50,43.9,50z M45.2,49.9c-0.1-0.1,0-0.2,0.1-0.2c-0.1,0.1,0.3,0.1,0.5,0.2
	C45.7,49.8,45.5,49.9,45.2,49.9z M73.5,43.2c0.1,0,0.1-0.1,0.2-0.1c0,0,0,0,0,0C73.9,43.3,73.7,43.3,73.5,43.2z M73.6,40.4
	c-0.6-0.8-1.5-0.9-2.2-2l0.2,0.4c-0.3,0-0.6-0.6-0.9-0.9c0.2-0.1,0.1-0.4,0.1-0.6c-0.1,0.1-0.6-0.8-1-0.7c-0.1-0.2-0.1-0.4-0.1-0.6
	c-0.5-1-1.1-0.8-1.6-1.7c0.3,0.2,0.2-0.3,0.7,0.2c-0.2-0.3-0.3-0.6-0.4-0.5c0-0.2-0.7-0.7-0.6-1.1c-0.1-0.1-0.3-0.1-0.5-0.4
	c0-0.1,0.1,0,0.1,0c-0.1,0-0.4-0.5-0.4-0.1c0.1-0.6-0.1-1.3-0.4-2c-0.2-0.7-0.4-1.4-0.2-1.9c-0.1-0.7-0.4-1.6-0.3-2.3
	c0.1,0,0.1,0,0.1,0.1c0.2-0.9-0.6-0.6-0.3-1.7c0.4-0.5,0.1,0.6,0.3,0.2c0.7-0.1,0-1.3,0.5-2l0,0.2c0.2-0.2,0.2-0.6,0.2-1
	c0-0.4,0-0.8,0.2-1.2c0,0,0,0.1,0.1,0c-0.2-0.7,0.2-1.8,0.6-2.6c0.1,0.4-0.1,0.4,0.2,0.4c0.2-0.4-0.4-0.1-0.1-0.8
	c0.3-0.1,0.7-0.6,0.9-0.4c-0.1,0.2-0.3,0.4-0.4,0.6c0.5-0.1,0.5-0.8,0.8-1l0.1,0.1c0.6-0.9,0.4-1.2,1.3-2l-0.2,0
	c0.2-0.8,0.6-0.2,0.9-0.8l0.4,0.2c0.2-0.2,0.4-0.4,0.7-0.7c0.3-0.3,0.7-0.6,1.1-0.8c-0.3,0.4-1,1-1.4,1.4c0.3-0.3,1.2-0.7,1.3-1
	c-0.1,0.1-0.3,0.3-0.5,0.3c0.3-0.5,0.9-1,1.7-1.2c0,0.4,0.6,0.3,1.2,0.3c0.3,0,0.6,0,0.9,0c0.3,0,0.5,0.2,0.6,0.3c0.3,0,0.7,0,1,0.1
	c0.3,0.1,0.6,0.2,0.9,0.4c0.6,0.4,1.1,0.9,1.7,1.5c0-0.8,0.3,0.3,0.7-0.1c0.3,0.3,0.4,0.4,0.4,0.5l0-0.1c0,0,0,0.1,0,0.1l0,0
	c0.1,0.4,0.3,0.8,0.3,1.2c0,0.3-0.3-0.3-0.4-0.2c0.4,0.7-0.1,0.4,0,1c0.1-0.2,0.4,0.1,0.5,0.6c0-0.2,0-0.5,0-0.7
	c0.8,1-0.1,1.1,0.5,2.1l-0.3-0.3c0.1,0.3,0.2,0.8,0.3,1.4c0.1,0.6,0.2,1.1,0.4,1.4c-0.1,0.1-0.2,0.3-0.3,0c-0.1,1.5,0.1,3.4-0.5,4.5
	l-0.1-0.2c0,0.3,0.1,0.6-0.1,0.9c-0.1,0-0.1-0.2-0.2,0c0,0.2,0,0.8-0.2,1.2l0-0.4c-0.7,1.4-0.5,2.4-0.9,3.6c-0.4-0.2-1,0.8-1.4,1.3
	l0,0c-0.9,1.5-1.3,2.7-2.2,4.1c-1,0.5-2.5,2.3-4,3.1C73.9,39.9,73.8,40.2,73.6,40.4z M126.8,18.4l0.2,0.3l0.1-0.5
	C127.1,18.2,126.8,18.1,126.8,18.4z M70.3,42.1l0.2-0.1l0.2-0.2L70.3,42.1z M120,28.6c-0.2,0.1-0.4,0.2-0.2-0.2
	c-1,0.8,0.3-0.1-0.4,1C119.6,29.1,119.8,28.9,120,28.6z M117.2,31.5c-0.1,0.3-0.2,0.4,0.2,0.2C117.7,31.2,117.3,31.6,117.2,31.5z
	 M132.2,12.7C132.2,12.7,132.3,12.7,132.2,12.7C132.2,12.6,132.2,12.6,132.2,12.7C132.2,12.7,132.2,12.7,132.2,12.7z M130.1,15.9
	C130.1,15.9,130.1,15.9,130.1,15.9C130.1,15.8,130.1,15.8,130.1,15.9z M132.3,11.5C132.2,11.5,132.2,11.5,132.3,11.5L132.3,11.5
	L132.3,11.5z M127.8,9.4c0.2,0.2-0.1,0.4,0.2,0.6C127.9,9.9,128,9.5,127.8,9.4z M130,11.8c0.1,0,0.2-0.1,0.2-0.1c0,0,0,0-0.1,0
	L130,11.8z M130,12.6L130,12.6L130,12.6L130,12.6z M132.5,16.7L132.5,16.7C132.5,16.8,132.5,16.7,132.5,16.7z M108.9,19L108.9,19
	l0-0.2L108.9,19z M132.5,11.8l-0.3,0C132.2,11.9,132.6,11.9,132.5,11.8z M121.1,12.1l-0.1,0.1l0.1,0L121.1,12.1z M130.3,20.1
	l-0.2,0.1l0.2,0.1L130.3,20.1z M131.5,8.2c0.1-0.2,0-0.3-0.2,0C131.5,8.1,131.5,8.3,131.5,8.2z M115.4,15.3
	C115.4,15.3,115.4,15.3,115.4,15.3C115.4,15.3,115.4,15.3,115.4,15.3L115.4,15.3L115.4,15.3z M132.3,17.1c0-0.1,0-0.1,0.1-0.1
	c-0.2-0.1-0.4,0-0.6-0.1c0.1-0.1-0.1-0.2,0.2-0.2c-0.1,0.2,0.3,0,0.4,0.2c0,0,0-0.1,0-0.1c0,0,0.1,0,0.1,0c0.3-0.2-0.3-0.1-0.3-0.4
	c0.2,0,0.3,0,0.3-0.1c0,0.1-0.3,0-0.4-0.1c0.1-0.1-0.1-0.2-0.1-0.3l-0.1,0.1c-0.2,0-0.1-0.1-0.2-0.2c0.1,0,0.1,0.1,0.2,0.1
	c-0.3-0.1,0.3-0.2,0.1-0.4c0.1-0.1,0.3,0,0.4,0c-0.2-0.2,0.3-0.2,0.1-0.4c-0.2,0-0.2,0.1-0.4-0.1l0.1,0.3l-0.3-0.2
	c0,0.1,0.1,0.2,0.1,0.3c-0.2-0.1-0.1-0.1-0.3-0.1c0.4-0.1-0.2-0.3,0.1-0.4l0.6,0c0.3-0.2-0.3-0.4-0.1-0.7l-0.1,0.1
	c-0.2-0.1,0-0.2-0.1-0.3c0.2,0,0.3,0,0.4-0.1c-0.1,0,0-0.2-0.4-0.3l0.3-0.1c0.1-0.2-0.5-0.3-0.5-0.5c0.2,0.1,0.4,0,0.5,0.2
	c0-0.1,0-0.1-0.1-0.2c0.1,0-0.3-0.2-0.1-0.3c-0.1,0-0.3-0.1-0.3-0.1c0,0,0.1,0,0.1,0c-0.1,0-0.1-0.1-0.3-0.1c0.6-0.2,0-0.6,0.5-0.9
	c-0.1-0.2-0.1-0.5-0.1-0.7c0.1,0,0.1,0,0.1,0c0.2-0.4-0.6,0-0.3-0.3c0.3-0.3,0.2,0.1,0.3-0.1c0.3-0.2,0.3-0.3,0.3-0.4
	c0-0.1-0.1-0.2,0.1-0.5l0,0c0.2-0.4-0.2-0.3-0.2-0.6c0,0,0.1,0,0.1-0.1c-0.3,0.1-0.4,0-0.5-0.1c0.3-0.3,0.1-0.1,0.4-0.5
	c0-0.1-0.5,0.6-0.5,0.5c0.1-0.2,0.2-0.4,0.4-0.7c0-0.1,0.1-0.2,0.2-0.3l0.1,0l0,0.2c0.2-0.3,0.2-0.4,0.2-0.4
	c-0.1,0.1-0.3,0.3-0.3,0.3l0.2-0.2c-0.4,0.2-0.8,0.8-1.1,0.9l-0.1,0.2c-0.4,0.6,0-0.2-0.4,0.2l0.2-0.5c-0.2,0.2-0.6,0.7-0.8,0.9
	c0.2-0.4,0.5-0.7,0.8-1c-0.1,0.1-0.5,0.3-0.6,0.5c0.1-0.1,0.2-0.2,0.2-0.2c-0.3,0.5-0.5,0.7-0.7,0.8c0.1-0.4-0.1-0.4-0.3-0.4
	c-0.2,0.1-0.4,0.2-0.6-0.1c-0.1,0.1-0.2,0.2-0.3,0.3c-0.1,0-0.2,0.1-0.3,0.1c-0.2,0-0.4,0-0.6,0.1c0.4,0.5-0.1,0.1,0.2,0.6
	C128,10,128,10,128,10c0,0,0,0,0,0l0,0l-0.4-0.2c-0.1-0.1,0-0.2,0-0.3c-0.2,0-0.2-0.2-0.4-0.3c0.1,0.2,0.1,0.3-0.1,0.3l0.3,0.2
	c-0.1,0.4-0.4-0.4-0.6,0l0-0.2c-0.1,0.2-0.5,0.2-0.4,0.7c-0.1-0.1-0.2-0.2-0.1-0.3c-0.3,0.1-0.5,0.8-0.9,0.6l0-0.1
	c0,0.1,0,0.3-0.1,0.2c0-0.1,0-0.1-0.1-0.1c0,0.1-0.1,0.3-0.2,0.3l0-0.2c-0.4,0-0.3,0.6-0.5,0.8c-0.2-0.4-0.5-0.4-0.6-0.4l0-0.1
	c-0.4,0.1-0.5,0.6-0.7,0.9c-0.4-0.3-0.8,0.1-1.2,0c0.1,0,0.1,0.3,0.1,0.4c-0.1,0-0.1,0.4-0.2,0l0,0c-0.2-0.3-0.3-0.2-0.5-0.1
	l0.2,0.5c-0.6-0.6-0.8,0.6-1.2,0.1c0,0.2-0.1,0.2-0.2,0.4l-0.1-0.3c-0.3,0-0.4,0-0.6,0.2l0-0.2c-0.2,0.1,0.1,0.8,0,0.9l-0.2-0.4
	c-0.3,0.1-0.7-0.1-0.8,0.4c0-0.1-0.1-0.2,0-0.2c-0.1,0-0.6,0-0.3,0.5c-0.2-0.3-0.3,0.1-0.4,0.3l-0.1-0.3c0,0.4,0.1,0.5-0.1,0.6
	c0,0-0.1-0.1-0.1-0.1c-0.1,0,0,0.3-0.2,0.2l0-0.2c-0.1,0-0.1,0.1-0.1,0.3c0,0.1-0.3,0.1-0.4-0.2c0,0.1,0.1,0.4-0.1,0.3
	c0-0.1,0-0.1,0-0.2c-0.3-0.1-0.2,0.5-0.5,0.3c0-0.1-0.1-0.1-0.1-0.1c0.2-0.1,0.3-0.1,0.3-0.1c-0.1-0.2-0.3-0.2-0.3-0.6
	c0,0.2-0.1,0.7-0.3,0.7c0,0,0,0-0.1-0.1l0,0c0,0-0.1,0-0.1,0.1c-0.1,0-0.1,0-0.2,0c-0.1-0.2-0.2,0-0.3,0c0.1,0.3,0,0.3,0.2,0.4
	c0,0,0,0,0-0.1c0,0,0,0,0,0l0,0c0,0,0.1-0.1,0.2-0.1c0,0.2,0,0.3-0.2,0.2c0,0.2,0.1,0.4,0.1,0.5c-0.3-0.3-0.5-0.4-0.7-0.6
	c-0.2,0.2-0.5,0.3-0.4,0.9c0,0.1-0.1-0.1-0.2-0.2c0-0.1,0.1-0.1,0.1-0.2c-0.1,0.2-0.4,0.2-0.2,0.6c-0.2-0.1,0-0.4-0.2-0.2l0-0.1
	c-0.7-0.3-0.3,1.2-1.1,0.7c0.1,0,0.1,0,0.1,0.1c-0.7-0.1-1,0.8-1.8,0.6c-0.2,0-0.1,0.2-0.1,0.4l-0.2-0.3l0,0.4
	c-0.1,0.3-0.7-0.5-0.8,0.1l0.1,0.2c-0.1,0-0.3,0.3-0.4,0c0,0,0.1,0.2,0,0.1l-0.1-0.1l-0.1,0.4c-0.2,0-0.2-0.6-0.5-0.5
	c-0.1,0.1-0.1,0.6,0,0.6c0,0,0.2,0,0.2,0.2L109,19c0.2,0.4,0.3,0.9,0.7,1.1l0.1-0.3l0.1,0.2l-0.1,0.1c0.2,0.2,0.1,0,0.1-0.2
	c0.1,0.1,0.1,0.2,0.2,0.2l0-0.5c0.1,0.2,0.1,0.4,0.2,0.4c0-0.2-0.2-0.3-0.2-0.5c0.2,0.2,0.2,0.3,0.2,0.1c0.1,0.1,0.1,0.2,0.1,0.2
	c0-0.2,0.2-0.2,0.1-0.4c0.2,0.2,0.3-0.2,0.4,0.2c0-0.1,0-0.4,0.1-0.4c0.1,0.5,0.3-0.1,0.5,0.4c-0.1-0.5,0.3-0.4,0.4-0.7
	c0,0,0,0.1,0,0.1c0.1,0,0.2,0.1,0.3,0.2c-0.1-0.4,0-0.5,0-0.8c0.3,0.3,0.1,0.5,0.3,0.8c-0.1-0.3,0.1-0.4-0.1-0.6
	c0.2,0.2,0.1,0.1,0.3,0.3c-0.2-0.5,0.1-0.1,0-0.4c0.2,0.2,0.2,0.4,0.3,0.2c0.1,0.1,0.1,0.3,0.1,0.3c0.2-0.1-0.1-0.4-0.1-0.6
	c0.1-0.2,0.2,0.2,0.3,0.4c0.1-0.1,0-0.5,0.1-0.5c0,0.1,0.1,0.1,0.1,0.1c0-0.3,0.4-0.2,0.4-0.6c0,0,0,0.1,0.1,0.1
	c-0.1-0.2-0.2-0.3-0.2-0.5c0.1,0,0-0.3,0.2-0.1c0,0,0,0.1,0,0.2l0-0.1c0.2,0.3-0.1,0.2,0.1,0.4c0.1-0.2,0.2-0.5,0.3-0.5
	c0.2,0.3-0.2,0.2,0.1,0.4l-0.2,0c0.4,0.4-0.1,0,0.2,0.5c0.3,0,0.2-0.3,0.5-0.3c0-0.2-0.1-0.2-0.2-0.4c0.2-0.5,0.6,0.7,0.7,0.1
	c0-0.2-0.2-0.6,0.1-0.5l0.1,0.4c0.2-0.1-0.1-0.6,0.2-0.4c0,0.2-0.1,0.2-0.1,0.2c0.3,0.2,0-0.2,0.1-0.3l0.2,0.3
	c0.2-0.2,0.4-0.5,0.6-0.7c0,0.1,0,0.2,0.1,0.3c0.3-0.3,0.7-0.3,1.1-0.2l0-0.3c0,0,0.1,0.1,0.1,0.2c0.2,0-0.1-0.2-0.1-0.3
	c0.1,0,0.2,0.1,0.2,0.2c0.1-0.3,0.4-0.8,0.8-0.6l0,0.1c0.2,0,0-0.6,0.2-0.5l0,0.1c0.4-0.1,0.8-0.5,1.2-0.2c-0.1-0.4,0.5,0,0.2-0.5
	c0.3,0.2,0.3,0.3,0.7,0.3c0.1,0,0-0.4,0.1-0.5l0.1,0.3l0-0.4l0.2,0.3l0.1-0.1c0,0-0.1-0.1-0.2-0.2c0.1-0.2,0.5,0,0.5,0.2l0.3-0.4
	c0,0.1,0,0.2,0,0.3c0.1-0.4,0.2,0.3,0.2-0.1c-0.1-0.1-0.1-0.2-0.1-0.2c0.2,0.1,0.4,0,0.5-0.1l0.1,0.2c0.3-0.1,0.5-0.3,0.8-0.5
	c-0.1,0-0.3-0.4-0.2-0.5l0.2,0.3c0-0.2-0.1-0.1-0.1-0.3c0.1,0,0.2,0.3,0.2,0.4l0.1-0.2c0,0.1,0,0.1,0.1,0.3c0-0.2,0.4,0.2,0.3-0.2
	l0,0.1c0.3-0.1,0.4-0.3,0.6-0.4c-0.1-0.3,0-0.2,0-0.5c0.2,0,0.5,0.1,0.7,0c0.1-0.2-0.1-0.2-0.1-0.4c0.1,0.2,0.3,0.1,0.3,0.3
	c0.2-0.2,0.3-0.2,0.5-0.5c-0.1-0.1-0.1-0.1-0.2-0.2c0-0.1,0.2,0,0.2,0.2l0,0c0.2-0.5,1.1,0.3,1.2-0.3l0,0l0.2-0.4
	c0.2,0,0,0.2,0.2,0.3c0.2-0.5,0.5-0.2,0.7-0.6c0.5,0.6,0.7-0.4,1.2,0l-0.1-0.2c-0.1-0.2,0.1,0.1,0.1,0.1c0-0.1-0.1-0.1-0.1-0.2
	c0-0.1,0.2-0.1,0.2,0c0,0.1,0,0.3-0.1,0.4c-0.1,0.1,0.9-1.4,0.5-0.8l-0.4,0.5l0.1-0.1c0.2-0.2,0.1-0.1,0.1,0c0,0.1,0,0.1,0.1,0.1
	c-0.1,0-0.2,0.1-0.2,0.1c-0.3,0.2,0,0.1,0.2,0c0,0-0.2,0.1-0.3,0.1c-0.1,0.1,0.3-0.1,0.1,0c0,0-0.1,0-0.1,0c0.1,0,0,0,0.2,0
	c-0.1,0,0,0,0,0.1c0,0,0,0.1,0,0.2c0.3,0.1-0.2,0.3,0.3,0.4c-0.5,0-0.4,0.3-0.2,0.4c-0.1,0-0.1,0.1-0.3,0c0,0.1,0.1,0.3,0.3,0.3
	c-0.6,0.2,0.4,0.5-0.3,0.6c0.2,0.4,0.4,0.8,0.4,1.2c-0.4,0,0-0.4-0.5-0.4c0.2,0.4,0.5,0.6,0.4,0.9c-0.1,0.1-0.2-0.1-0.3-0.1
	c0.2,0.4-0.1,0.7,0.1,1c0,0-0.1,0-0.1-0.1c0,0.1-0.1,0.1,0.1,0.1l-0.1-0.1c0.3-0.1,0.6,0.3,0.8,0.3c-0.6-0.1-0.2,0.3-0.9,0.1
	c0,0,0.1,0.1,0.3,0.1c0,0.1-0.1,0.1-0.3,0c0.1,0.2,0.3,0.2,0.3,0.4c-0.1,0-0.1,0-0.3-0.1c0.2,0.1,0.4,0.2,0.3,0.4
	c-0.1,0-0.1,0-0.1,0c0,0.3,0.5,0.5,0.3,0.8c-0.4-0.1-0.1,0.1-0.5,0.1l0.1,0.2l0.2-0.1c0,0.1,0.2,0.3,0.1,0.4l-0.1-0.1l0.1,0.3
	l0.2-0.1c0.2,0.2,0.5,0,0.4,0.2c0,0,0,0.1-0.2,0.2l0,0c0.1,0.1,0.2,0.2,0.1,0.3c-0.1,0-0.4,0-0.5,0c0.3,0.1,0.1,0.3,0.4,0.5
	c-0.1,0-0.3,0-0.3,0l0.2,0.1c-0.1,0.1-0.1,0.1-0.3,0c-0.1,0.2,0.5,0,0.3,0.2c0,0-0.1,0-0.1-0.1c-0.1,0.2,0.1,0.5,0,0.7
	c-0.4,0-0.1-0.2-0.4-0.1c0,0.3,0.4,0.7,0.3,1l0-0.1c0.5,0.1-0.3,0.2,0,0.4c0,0-0.3-0.1-0.2-0.1c-0.1,0.2,0.1,0.4,0.3,0.8l-0.1,0
	c-0.1,0.1-0.1,0.3-0.2,0.5c0.1,0,0.1,0.1,0.3,0.1c-0.8,0.4,0.4,0.8-0.3,1.1c0,0-0.1-0.1-0.1-0.1l0.1,0.3c0.2,0,0.1,0,0.3-0.1
	c0.1,0,0.2,0.1,0.2,0.2c-0.1-0.2-0.4,0-0.5,0c0.1,0,0.1,0,0.2,0c-0.4,0.1,0.5,0.1,0.2,0.3l-0.1,0c0.1,0.1,0.2,0.2,0.2,0.3
	c-0.3,0-0.1-0.1-0.3-0.1c0,0.1,0.5,0.3,0.2,0.4c-0.1-0.1-0.1-0.1-0.1-0.2c-0.3,0.1-0.2,0.1-0.3,0.2l0,0l-0.2,0.2l0.1,0
	c0.7,0.2,0.1,0.3,0.5,0.6c-0.4-0.2-0.2,0-0.5-0.1c-0.1,0-0.2,0.1-0.3,0.1c0.2,0.1-0.2,0.2,0.1,0.3c-0.1,0,0,0.1-0.3,0.1
	c0.1,0.1,0.2,0,0.3,0c0.3,0.2-0.4,0.5,0,0.8c0.2,0.3,0.5,0.3,0.6,0.6c-0.2,0.1-0.4-0.1-0.4-0.1c-0.2,0.1-0.1,0.2,0,0.3
	c-0.1,0-0.2,0-0.3,0c0,0.1,0.4,0.1,0.2,0.2c-0.1,0-0.3-0.1-0.4-0.1c0.1,0.1,0.3,0.2,0.3,0.4c-0.2,0-0.3-0.1-0.4-0.1
	c0.1,0.1,0.1,0.4,0.4,0.4l0.1-0.1c0,0-0.2,0-0.3,0c-0.2-0.1,0.1-0.2,0.2-0.2l0.1,0.1c0.6-0.1-0.1-0.3,0-0.5l0.4,0.1l-0.3-0.2
	c0.1,0,0.3,0,0.4,0c0.2-0.1-0.1-0.1,0.1-0.2c0,0,0.1,0,0.1,0l-0.1-0.1c0.1,0,0.3,0,0.2,0.1c0.3-0.2-0.3-0.4,0-0.4l0,0
	c-0.1-0.3-0.3,0-0.6-0.3l0.8-0.1l-0.3,0c0,0,0-0.1,0.2-0.1c-0.2-0.1-0.1,0-0.3-0.1c0.3-0.1-0.1-0.4,0.4-0.4c-0.2-0.1-0.2,0.1-0.3,0
	c0.5,0-0.1-0.2,0.2-0.3c0.3,0.1,0.1,0.2,0.4,0.1c-0.5-0.1,0.1-0.3,0-0.4c-0.1,0-0.2,0-0.2-0.1c0.1,0,0.2,0,0.2,0.1
	c0.1,0,0.1,0,0.2,0c0,0-0.3-0.1-0.4-0.1c-0.1-0.1,0-0.2-0.1-0.4c0.1,0,0.2-0.3,0.4-0.5l0.1,0c-0.4-0.1-0.3-0.2-0.4-0.4
	c0.2,0,0.3,0,0.4,0.1l0-0.1c-0.1,0-0.2-0.1-0.2-0.2l0.3,0c0-0.2-0.3-0.4-0.1-0.6c-0.3,0-0.7,0.1-0.9-0.1c0.1,0,0.4,0,0.4,0.1
	c0,0-0.1-0.1,0-0.1l0.2,0.1c0.1-0.1-0.2-0.1-0.2-0.1c0.2,0,0.1,0,0.3,0c0,0-0.1,0.1,0,0.1c0-0.1,0.2-0.2,0.3-0.2
	c-0.1,0-0.3,0-0.3-0.1c0-0.2,0.2,0,0.3-0.1c-0.1,0,0-0.1-0.3-0.2c0,0,0.1,0,0.2-0.1c-0.1-0.1,0-0.4-0.3-0.3l0,0l0,0
	c-0.3-0.3,0.2-0.6,0.1-0.9l0.1,0c-0.1-0.2,0-0.4-0.2-0.5c0,0,0.2-0.1,0.3-0.1c-0.1-0.1-0.2-0.2,0-0.3c0.2,0.1,0.2,0,0.1,0.1
	c0.1-0.2,0.3-0.2,0-0.4c0.2,0.1,0.3-0.1,0.3-0.2l-0.2,0.1c0-0.1,0-0.2,0-0.2l0.3,0.1c0.4-0.3-0.7-0.6,0-0.9
	c-0.2-0.1-0.2,0.2-0.4,0.1c0.1-0.2,0.5-0.3,0.5-0.3c0.2-0.2-0.5-0.2-0.3-0.4c-0.1,0-0.4,0-0.5-0.1c0.1-0.2,0.5-0.2,0.6-0.1
	c0,0,0,0.1-0.1,0c0,0.1,0.1,0.1,0.2,0.1l-0.1,0c0.1-0.1,0.1-0.3,0.3-0.2c-0.1-0.1-0.2-0.1-0.3,0c0.2-0.2,0-0.3,0.2-0.5
	c-0.1,0-0.2,0-0.2,0c0.2-0.3-0.2-0.1-0.3-0.4c0.2-0.1,0.4,0.1,0.3-0.1c0.1-0.1,0.3,0,0.4,0c-0.2-0.2,0.2-0.3,0.2-0.4l0.1,0.1
	c-0.1-0.1,0-0.1,0-0.2L132.3,17.1z M115.4,15L115.4,15c0,0,0-0.1,0-0.1C115.4,14.8,115.4,14.9,115.4,15
	C115.4,14.9,115.4,15,115.4,15z M116.4,16.6C116.4,16.6,116.4,16.6,116.4,16.6L116.4,16.6C116.4,16.6,116.4,16.6,116.4,16.6z
	 M116.6,16.4c-0.1-0.1-0.1-0.2,0-0.2c0,0.1,0.1,0.1,0.2,0.1C116.7,16.4,116.7,16.4,116.6,16.4z M131.3,22.5l0.1-0.1
	C131.3,22.4,131.3,22.5,131.3,22.5z M131.5,21.1l0.3,0C131.7,21.1,131.7,21.1,131.5,21.1z M121.3,15L121.3,15L121.3,15L121.3,15z
	 M130.5,18.6c-0.1,0,0,0.1,0,0.1C130.5,18.7,130.5,18.7,130.5,18.6z M129.7,28.7L129.7,28.7C129.6,28.6,129.6,28.7,129.7,28.7z
	 M130.3,28.9c-0.2-0.1-0.4-0.2-0.7-0.2c0.3,0.1,0.2,0.1,0.6,0.2c0,0.1-0.1,0.1-0.2,0.1c0.1,0-0.1,0.1,0.1,0.1
	c0.3-0.1,0.3-0.2,0.1-0.3C130.2,28.9,130.3,28.9,130.3,28.9z M131,26.5l-0.1,0.2c0.1,0,0.3-0.1,0.3,0C131.6,26.5,131,26.8,131,26.5z
	 M113.9,17.9c0.1,0.2,0,0.3,0.2,0.2C114,18,114,17.9,113.9,17.9z M129.7,27.5c0,0.1-0.2,0.1-0.2,0.2l0.1,0
	C129.5,27.7,129.9,27.5,129.7,27.5z M131.2,25.8c0,0.1,0.2,0,0.2,0C131.4,25.8,131.3,25.8,131.2,25.8z M129.5,28.6
	C129.5,28.6,129.6,28.6,129.5,28.6L129.5,28.6L129.5,28.6z M129.7,29.3c0.1,0,0.3,0,0.2,0l-0.3-0.1L129.7,29.3z M129.8,25.8
	c0,0,0.1,0,0.1,0l0,0L129.8,25.8z M129.6,28C129.6,28,129.6,28,129.6,28C129.7,28,129.7,28,129.6,28L129.6,28z M129.6,27.9
	C129.6,28,129.7,28,129.6,27.9c0.1,0,0.1,0,0.1,0C129.7,28,129.7,28,129.6,27.9z M130.6,18.9c0,0-0.1-0.1-0.1-0.1
	C130.4,18.8,130.4,18.9,130.6,18.9z M131.2,22.6C131.2,22.6,131.2,22.6,131.2,22.6C131.2,22.6,131.2,22.6,131.2,22.6L131.2,22.6z
	 M132.1,17.9C132.1,17.9,132.1,18,132.1,17.9C132.1,18,132.1,17.9,132.1,17.9z M132.1,19.7L132.1,19.7l0-0.1L132.1,19.7z
	 M131.4,24.3L131.4,24.3c0,0,0.1,0.1,0.1,0.1L131.4,24.3z"/>
</svg>
