<?xml version="1.0" encoding="utf-8"?>
<!-- Generator: Adobe Illustrator 27.0.1, SVG Export Plug-In . SVG Version: 6.00 Build 0)  -->
<svg version="1.1" id="Capa_1" xmlns="http://www.w3.org/2000/svg" xmlns:xlink="http://www.w3.org/1999/xlink" x="0px" y="0px"
	 viewBox="0 0 130 70" style="enable-background:new 0 0 130 70;" xml:space="preserve">
<style type="text/css">
	.st0{fill:#C0C0C0;}
</style>
<path class="st0" d="M77.1,58.6C77.1,58.6,77.1,58.6,77.1,58.6C77.2,58.5,77.2,58.5,77.1,58.6z M82.5,57.5c0.1,0,0.1,0,0.2,0
	C82.6,57.5,82.6,57.5,82.5,57.5z M104.6,39.7l0.1-0.1c0-0.1,0-0.1-0.1-0.2L104.6,39.7z M85.5,56.7c0.1-0.1,0.2-0.1,0.2-0.1
	C85.6,56.6,85.5,56.7,85.5,56.7z M60,31.4c-0.6-0.1,0.7-0.6-0.1-0.6C60,30.9,59.3,31.5,60,31.4z M69.1,49.5
	c-0.1,0.1-0.3,0.3-0.4,0.4l0.2-0.1C69,49.7,69.1,49.6,69.1,49.5z M55.9,53.7c0,0,0,0.1,0,0.1c0,0,0.1,0.1,0.1,0.1L55.9,53.7z
	 M41.4,57.9c0,0-0.1,0-0.1,0C41.4,57.9,41.4,57.9,41.4,57.9l0.1,0C41.5,57.9,41.5,57.9,41.4,57.9z M64.7,58.5c0,0,0-0.1-0.1-0.2
	C64.6,58.4,64.6,58.5,64.7,58.5z M51.7,40.8c0.2-0.1,0.4-0.5,0.3-0.8C51.9,40.4,51.7,40.7,51.7,40.8z M107.7,34.6
	c-0.1-0.1-0.1-0.2-0.1-0.4c0,0-0.1,0-0.2,0C107.3,34.4,107.6,34.5,107.7,34.6z M112,23.9c0-0.1,0-0.2-0.1-0.3L112,23.9
	C111.9,23.9,111.9,23.9,112,23.9z M111.5,26.3c0.1-0.3,0.4-0.7,0.4-1.1l-0.1,0C111.9,25.4,111.4,26,111.5,26.3z M93.2,54.1l0-0.3
	c-0.1,0.1-0.3,0.3-0.4,0.4C92.9,54.2,93.1,54.2,93.2,54.1z M111.8,23.9c0.1,0,0.1,0.1,0.1,0.2c0-0.1,0-0.1,0-0.2
	C111.9,23.8,111.8,23.8,111.8,23.9z M95.2,50.4c-0.3,0.3,0.1,0.1,0.1,0.2L95.2,50.4z M109.3,33.6C109.2,33.6,109.2,33.6,109.3,33.6
	L109.3,33.6L109.3,33.6z M30.6,59.4c-0.1-0.1-0.2-0.2-0.2-0.3C30.4,59.4,29.6,59.3,30.6,59.4z M89.9,53.9l-0.5,0.4l0.4-0.3
	L89.9,53.9z M8.4,51.9L8.4,51.9c0.1,0,0.2-0.1,0.2-0.1L8.4,51.9z M58.7,58.7L58.7,58.7L58.7,58.7L58.7,58.7z M58.6,58.6
	c-0.3-0.2-0.5-0.3-0.7-0.5C58.1,58.3,58.4,58.5,58.6,58.6z M14.5,55.9C14.6,55.9,14.6,55.9,14.5,55.9C14.5,55.9,14.5,55.9,14.5,55.9
	z M66.9,54.2L66.9,54.2l-0.1,0.1L66.9,54.2z M87.5,57c-0.1,0.1-0.2,0.2-0.3,0.3C87.3,57.2,87.5,57.1,87.5,57z M108,36.3l0.3-0.4
	C108.2,36,108.1,36.2,108,36.3z M74.3,61.4c0,0-0.1,0-0.1,0C73.9,61.5,74.1,61.5,74.3,61.4z M87.1,57.3c-0.2,0.1-0.4,0.2-0.6,0.3
	C86.8,57.6,87,57.4,87.1,57.3z M100.3,46.1C100.3,46.1,100.3,46.1,100.3,46.1C100.3,46.1,100.3,46.1,100.3,46.1L100.3,46.1z
	 M112.3,21.3c0,0,0-0.1,0-0.1c0,0,0,0,0,0C112.3,21.2,112.3,21.2,112.3,21.3z M112.3,21.1l0-0.2C112.2,21,112.2,21.1,112.3,21.1z
	 M112.2,17.6c-0.1-0.1-0.3,0-0.2,0.3l0.3,0.2L112.2,17.6z M56.7,54.2l-0.1,0.3C56.8,54.6,57.1,54.4,56.7,54.2z M112.2,20.9
	c0-0.1,0-0.3-0.1-0.3L112.2,20.9z M111.5,19.7c0.2,0.4,0.4,0.8,0.7,0.6c-0.3-0.4-0.2-0.5-0.5-0.8c0-0.3,0.1-0.5,0.2-0.5
	c-0.1-0.1,0.1-0.5-0.1-0.6c-0.3,0.4-0.3,0.9-0.1,1.4C111.6,19.8,111.6,19.7,111.5,19.7z M100.1,46.3l-0.4,0.3
	C99.8,46.6,99.9,46.4,100.1,46.3z M107.9,33.4c0.1-0.5-0.1-0.1-0.2-0.1C107.6,33.7,107.6,33.8,107.9,33.4z M111.7,21.1
	c0-0.2,0.2-0.1,0.3,0.1c0.2,0.5-0.2,0.8-0.3,0.8l0-0.4c-0.6,0.3-0.1,1.6-0.2,2.3l-0.4-0.4l0.3,0.8c-0.1,0.2-0.4,0.2-0.4-0.2
	c-0.3,0.5,0.1,0.5-0.2,0.9c0,0-0.1,0-0.1,0l0,0.6c-0.1-0.1-0.3,0-0.2-0.3c-0.4,0.9,0,1.6-0.4,1.9l0-0.1c-0.1,1.3,0.3,0.2,0.4,1.3
	l-0.9,0.5l0.3,0.2c0,0.1-0.1,0.4-0.3,0.3c0.1,0.6,0.2,0,0.3,0.3c-0.5,0.6-0.4,1.8-0.9,1.8c0.1,0.3,0.4-0.5,0.3,0.2
	c-0.6,0-0.2,0.8-0.7,1.3c-0.2-0.3,0.2-0.8-0.3-0.3c0.3,0.5-0.5,1.1-0.6,1.6c0.4,0.2-0.3,1.1-0.6,1.9c-0.1-0.1-0.8,1.4-1.4,2l0,0
	c0.2,0.3-0.2,1-0.5,1.5c-0.2-0.1-0.2-0.3-0.1-0.6l-0.3,0.5c0,0.2,0,0.4-0.2,0.7l-0.2-0.3c-0.3,0.7-0.6,1.4-1.3,2.1
	c0.2,0.2,1-0.2,0.6,0.7c-0.1,0-0.3-0.2-0.2-0.4c0,0.1-0.1,0.3-0.2,0.4l0-0.5c-0.3,0.3,0,0.3-0.2,0.6c-0.2-0.1-0.3,0.1-0.4,0
	c0-0.1,0.2-0.2,0.3-0.4c-0.3,0.3-0.6,0.6-0.8,0.7c0.1,0,0.2,0.2,0.1,0.4c-0.5,0.6-0.4,0.1-0.7,0.3c0,0.2-0.4,0.5-0.2,0.7
	c-0.1,0.2-0.3,0.1-0.4,0.1c-0.1,0.4-1.1,1.4-0.6,1.3l0.1-0.1c0,0,0,0,0,0.1c-0.6,1.1-1.9,1.8-2.7,2.8l-0.1-0.1
	c-0.5,0.6-1.2,1.2-1.5,1.7c-0.2,0.1-0.5,0.2-0.5,0.1c-0.4,0.4-0.4,0.6-1.1,0.9c0.4-0.5-0.3,0,0.4-0.5c-0.7,0.4-0.9,0.4-1.4,1.1
	c0.1-0.4-0.6,0.1-0.9,0.4l0.5-0.2c-0.3,0.3-0.6,0.5-0.9,0.7l0-0.4c-1.5,0.5-1.9,2.1-3.3,2.1c-0.2,0.4,0.8-0.3,0.6,0.2
	c-0.6,0.3-1.5,0.2-1.7,0.3c-0.9,0.3-0.6,0.8-1.5,1.2c0.2,0,0.4,0.3-0.2,0.7c-0.7,0.2-1-0.1-0.6-0.4c0.2-0.1,0.2-0.1,0.3,0
	c0.2-0.1,0.4-0.3,0.1-0.3l0,0.1c-0.4,0-1.3,0.4-1.1,0.1c-0.4,0.3-0.1,0.3,0.3,0.2c-0.9,0.2-1.3,0.5-2.2,0.7c0.2,0,0.3,0.1,0.2,0.2
	c-1.3,0.3-0.5,0.4-1.4,0.7c-0.6,0,0.1-0.5-0.8-0.1c-0.6,0-0.2-0.3,0-0.4c-0.4,0.2-0.8,0.3-1.1,0.3c-0.4,0-0.7,0-0.9,0l0.4-0.2
	c-0.2,0.1-0.4,0.2-0.7,0.2l0.3,0.2c-0.3,0-0.5,0.1-0.5,0c-0.2,0.2,0.3,0.3-0.2,0.7c-0.4,0-1,0.3-1.2,0c1.1-0.1-0.2-0.3,0.7-0.5
	c-0.2,0.1-0.4,0.1-0.6,0.1c0,0,0-0.1,0.1-0.1c-1.1-0.1-0.4,0.4-1.5,0.6c0.1-0.2-0.3-0.3-0.5-0.2c0.4,0,0.2,0.3-0.1,0.5
	c-0.7-0.1-0.7,0.2-1.1,0.2l0.4,0c-0.1,0.2-0.5,0.2-1,0.3c-0.1-0.1,0.4-0.1,0.3-0.2c-0.5,0.3-1.2-0.2-2,0c-0.3-0.1,0-0.3-0.3-0.4
	c-0.8,0.2-0.9-0.2-1.7-0.1c0.2,0.3,0.3,0.2-0.3,0.4c0.5,0,1,0,1.4-0.1c-0.3,0.1-0.6,0.2-0.9,0.3c0.4,0,0.9-0.1,1.2-0.1
	c-0.4,0.2-0.4,0.1-0.2,0.3c-0.6-0.4-1.2,0.2-1.9-0.1l0.1-0.6c-1-0.3-1.8,0.1-3.1-0.3c0.1,0.1,0.3,0.1,0.4,0.2C66,59.3,65.4,59,65,59
	c0.1-0.2-0.2-0.3-0.3-0.5c0,0.2-0.9-0.3-1.2,0c-0.2-0.1-0.3-0.3-0.5-0.4c-0.9-0.5-1.3,0.1-2.3-0.5c0.4-0.1,0-0.4,0.7-0.2
	c-0.3-0.1-0.6-0.3-0.6-0.2C60.7,57,60,57,59.7,56.7c0,0,0.1,0,0.1,0c0,0,0.1,0,0.1,0.1c0,0-0.1-0.1-0.1-0.1c0.6-0.1,1.1-0.3,1.7-0.3
	c0.1-0.5,1.9-0.5,1.8-1.1c1.2-0.2,0.9,0.1,2.5-0.5c0.4-0.2,0.4-0.6,0.9-0.9l0.2,0.3l0.5-0.6l0.5,0.1c0.1-0.1,0.3-0.2,0.4-0.3
	c-0.2,0.1-0.4,0.1-0.5,0c0.6-0.5,1.7-0.9,1.8-0.8c0.4-0.5,0.9-0.9,1.3-1.4c0,0.1-0.1,0.2-0.2,0.4c0.4-0.5,0.3,0.2,0.7-0.5
	c-0.1,0-0.1-0.2-0.1-0.2c0.2-0.1,0.6-0.3,0.9-0.6c0.3-0.3,0.6-0.6,0.8-1l0.1,0.3c1-1.1,1.8-2.5,2.4-4.1c-0.3,0.5-0.6,0.2-0.5-0.2
	l0.4-0.1c-0.1-0.4-0.3,0.4-0.3-0.3c0.2-0.5,0.5-0.3,0.5,0.1l0.1-0.7c0.1,0,0.1,0.2,0.2,0.2c-0.1-0.3,0.6-1.2,0.4-1.7l0.1,0
	c0.1-0.8,0.2-1.5,0.1-2.1c0-0.3-0.1-0.6-0.1-0.9c0-0.3-0.1-0.6-0.2-0.9c-0.3,0-0.3-0.5-0.6-0.8c-0.2-1-0.4-2.1-1.1-3.1
	c-0.6-0.6-0.3-0.1-0.7-0.3c0.2-0.2-0.6-1.1,0-0.7c-0.2-0.3-0.4-0.5-0.6-0.7c-0.2-0.2-0.4-0.3-0.6-0.5c-0.4-0.3-0.8-0.7-1.6-1.1
	c0.1,0.2,0.2,0.4,0.1,0.4c-0.3-0.2-0.5-0.5-0.4-0.6l0.1,0c-0.9-0.4-1.8-1.1-2.7-1.7c-0.5-0.3-1-0.6-1.4-0.7
	c-0.5-0.2-0.9-0.3-1.4-0.2l0.1,0c-0.6,0-1.1,0-1.7,0.1c-0.8-0.1,0.5-0.2-0.1-0.4c-0.9,0.1-1.6,0.2-2.3,0.3c-0.7,0.1-1.3,0.1-2,0.5
	c-0.7-0.2-1.7,0.2-2.6,0.8c-0.9,0.6-1.7,1.3-2.5,1.7l0.2,0.1c-0.2,0.4-0.4,0.3-0.7,0.4c0.1,0.1,0.4-0.2,0.3,0.1
	c-1.1,1.3-2.2,2.6-3,4.1c-0.9,1.5-1.6,3.2-1.9,4.9c-0.1,0.6,0.1,0.8,0.3,1.1c0.2,0.2,0.2,0.5,0.1,1.3l-0.3-0.5
	c0.2,1.3,0.3,2.6,0.6,3.9c0.3,1.3,0.7,2.5,1.4,3.5c-0.1-0.1-0.2-0.1-0.3-0.3c0,0.6,0.9,1.7,1.1,1.6c0.2,0.3-0.1,0.2-0.1,0.4
	c0.2,0.5,1,0.9,1,1.3c0,0.1-0.1-0.1-0.2-0.1c0.3,0.2,1,1.2,1,0.8c0.4,0.6,0.9,0.9,1.3,1.3c-0.5,0.1-0.8,0.3-0.6,0.5
	c-0.1-0.4-1.4,0.3-2,0.6l0.1-0.3c-0.5,0.5-0.5,0.5-1.4,0.8c-0.2,0-0.2-0.2,0.1-0.2c-0.7,0-0.5,0.3-1.3,0.3l0.3-0.2
	c-0.7,0.1-0.6,0.2-1,0.4c-0.4,0.2-1.3,0.1-1.5-0.1c-0.1,0.2-0.4,0.4-0.8,0.4c-0.1-0.1,0.1-0.2,0.1-0.2c-1.2,0-1.7,0.5-2.5,0.3
	c0-0.1-0.1-0.1-0.1-0.2c0.9-0.1,1.7-0.1,1.6-0.1c0-0.3-0.8-0.2-0.2-0.6c-0.6,0.2-1.6,0.7-2.3,0.7c0,0-0.1,0-0.1-0.1l0.1,0
	c-0.2,0-0.3,0-0.5,0.1c-0.2,0-0.4-0.1-0.6-0.1c-0.1-0.2-0.9-0.1-1.2-0.1c0,0.3-0.4,0.2,0,0.5c-0.1,0,0.1,0,0.3-0.1
	c0.1,0,0.1,0,0.2,0l0,0c0.2,0,0.6,0,0.9,0c-0.3,0.2-0.6,0.3-1,0.1c-0.2,0.2-0.4,0.4-0.5,0.5c-0.5-0.4-1.5-0.6-1.6-0.8
	c-1.1,0.1-2.7,0.1-3.4,0.6c-0.3,0-0.4-0.2-0.5-0.3c0.2,0,0.4,0,0.5-0.1c-0.7,0.1-1.9-0.1-2.1,0.3c-0.8-0.2,0.5-0.3-0.6-0.3l0.2-0.1
	c-1.1-0.4-2-0.3-2.9-0.1c-0.9,0.1-1.9,0.1-3.1-0.4c0.2,0.1,0.2,0.1,0.3,0.2c-2.7-0.8-5.7-0.8-8.2-2c-0.7-0.3-0.9-0.1-1.4-0.1
	L18,54.9c-0.3,0-0.6,0.1-0.9,0.1c-1.2-0.1-1.7-1.3-3.2-1.4l0.1,0.3c-0.5-0.2-1.6-0.5-1.4-0.7c-0.1,0-0.2,0.1-0.4,0l0-0.2
	c-0.4-0.1-0.9-0.1-1.3-0.2c-0.9-0.5,0.4-0.5-0.9-1.1c-0.5-0.2-1.6-0.2-1.5,0C8.7,51.7,9,51.9,8.9,52l-0.5-0.1
	c-0.3,0.4-0.8,0.7,0.2,1.5l0.9,0.1l0.2,0.3L9,53.5c0.3,0.4,0.6,0.3,0.9,0.3c0,0.1,0.1,0.3,0.2,0.4c0.3,0,0.6,0,1-0.1
	c0,0.2-0.5,0.2,0,0.5c0.5,0-0.2-0.5,0.5-0.4c0.3,0.3,0.1,0.5,0.7,0.5c0,0.1-0.1,0.2-0.3,0.1c0.5,0,1.1,0.4,1.4,0.2
	c0.3,0.4,1.4,0.4,1.2,0.8c0.2-0.1,0.8-0.1,1.2,0c-0.9,0.3,1.4,0.5,1.1,1c0.7-0.3,1.9,0.3,2.9,0.4c-0.1,0-0.2,0.1-0.3,0
	c0.5,0.2,0.6,0.4,0.9,0.5c0.2-0.4,1-0.3,1.5-0.4c0.6,0.5-0.5,0.4-0.4,0.8c0-0.3,1.2,0,1-0.4c0.4,0.3,0.4,0.2,0.6,0.6
	c0.2-0.5,0.5,0,1-0.2c0.7,0.4,0.1,0.5,0.9,0.5c0.3,0.2-0.4,0.3-0.4,0.3c0.8,0.2,0.4-0.3,0.7-0.5c1,0.1,0.4,0.4,0.7,0.6
	c0.6,0,1.1-0.2,1.6-0.2c0,0.1,0.1,0.1,0,0.2c0.7-0.2,1.9,0.3,2.7,0c0.1,0,0.1,0.1,0.1,0.1c-0.1-0.2-0.1-0.4-0.1-0.5
	c0.4,0,0.7-0.2,0.8,0.1c-0.2,0-0.2,0.1-0.4,0.1l0.4-0.1c0.3,0.4-0.5,0.1-0.6,0.3c0.8,0,1.6-0.2,2.2-0.1c0.1,0.4-1.3,0-0.6,0.4
	l-0.9-0.2c0.6,0.6-0.5-0.1,0,0.5c1.2,0.2,1.3,0,2.5,0.2c0.3-0.2-0.1-0.3,0.2-0.5c1.7-0.2,1.3,0.9,2.5,0.5c0.3-0.2,0.5-0.6,1.3-0.4
	l-0.3,0.4c1.1,0.1,0.7-0.5,1.8-0.3c-0.2,0.1-0.9,0.1-0.7,0.2c0.8,0.3,0.5-0.2,1.1-0.2l0.1,0.3c1.2-0.1,2.5-0.4,3.8-0.5
	c-0.1,0.1-0.3,0.2,0,0.3c0.8-0.1,1.7-0.2,2.6-0.2c0.9,0,1.8,0,2.6,0l0.6-0.4c0.1,0,0.3,0.1,0.1,0.2c0.6,0,0-0.2,0.3-0.3
	c0.4-0.1,0.5,0.1,0.3,0.2c1.1-0.4,3-1,4.2-1l-0.2,0.1c0.9-0.1,0.9-0.8,1.8-0.7l-0.1,0.1c0.4-0.1,0.8-0.2,1.2-0.3
	c0.4,0.4,1.1,0.8,1.5,0.8c-0.2,0,0.4,0.4,0.1,0.4c0.6,0.3,1.2,0.5,1.2,0.3c0.8,1.1,2.4,0.6,2.8,1.5c1.9,0.4,3.7,0.6,5.4,0.7
	c-0.1,0.5-1.9-0.2-1.9,0.2c1.7,0.1,2.6-0.2,4.2,0c0.4,0.1-0.2,0.2-0.4,0.3c1.6-0.1,3.2,0.1,4.6-0.3c0,0-0.2,0.1-0.3,0.1
	c0.3,0,0.7,0,0.6-0.2l-0.3,0.1c-0.5-0.2,1-0.7,1.1-0.9c-0.4,0.7,1.4-0.1,0.8,0.8c0.2-0.1,0.4-0.2,0.3-0.3c0.3,0,0.4,0.1,0.1,0.3
	c1-0.3,0.6-0.4,1.5-0.6c0,0.1-0.2,0.2-0.2,0.3c0.4-0.3,0.8-0.6,1.6-0.7c0,0.1,0.1,0.1-0.1,0.2c1.3-0.4,2-1.1,3.5-1.4
	c-0.3,0.5,0.5,0,0.7,0.3l0.7-0.4l-0.4-0.1c0.6-0.3,1.1-0.7,1.7-0.8l-0.4,0.3l1.2-0.6l-0.7,0.1c0.6-0.4-0.3-0.4,0.6-0.7
	c-0.1,0.1,0.6-0.3,1-0.3l0,0c0.2-0.3,0.5-0.5,1-0.7c0.2,0,0.1,0.4,0.2,0.4c0.1-0.4,1.4-0.8,1.6-1.3c-0.1,0.1,0,0.3,0.1,0.3l0.1-0.4
	c0.3-0.1,0.4-0.1,0.4,0.1c0.8-0.5-0.5-0.2,0.6-0.7c-0.1,0.1,0,0.1-0.1,0.2c1-0.5,1.8-1.3,2.6-1.8c0.5,0.1-0.7,0.6-0.2,0.7
	c1.2-1,2.2-2.2,3.3-3.1l-0.2,0.1c-0.2-0.5,1-0.5,1.4-1.2c-0.1,0.1,0,0.4,0,0.3c0.8-0.6,1.3-1.5,2.3-2.7l0,0.2
	c0.5-0.3,1.1-1.1,1.5-1.5c0-0.2,0.3-0.5,0-0.5c1.9-1,1.9-3.2,3.4-4.2c-0.1,0.2-0.2,0.5-0.1,0.3c0.3-0.4,0.4-0.9,0.7-1.3
	c-0.3,0-0.2,0.1-0.5,0.3c0-0.2,0.1-0.6,0.3-1c-0.2,0.6,0.3,0.2,0.6,0c-0.1,0-0.1-0.1-0.2-0.1c0.7-0.5-0.3-0.3,0.4-1.1l0.1,0.1
	c0.2-0.4,0.2-0.8,0.4-1.1c0.3,0-0.1,0.4,0.1,0.6c0.2-0.5,0.1-1.3,0.5-1.6c0,0.3-0.2,0.6-0.2,0.8c0.5-0.4,0.5-0.5,0.7-0.9l0,0
	l0.6-0.8l-0.2,0.2c-0.3-0.9,0.5-1.4,0.4-2.5c0.1,1.1,0.2,0.2,0.4,0.4c0.2-0.2,0.4-0.5,0.4-0.4c-0.1-0.5,0.5-0.7,0.4-1.4
	c0.1,0,0.2-0.5,0.4-0.3c0.1-0.6-0.2,0.1-0.3,0c-0.1-1,1.1-2,0.9-3.5c0.1-1.2-0.2-1.5-0.2-2.6c0.2-0.3,0.3,0.4,0.3,0.4
	c0.3-0.6,0.3-1,0.3-1.6c0.1,0.1,0.2,0,0.3-0.1c0-0.5-0.3-0.3-0.1-0.9c0.1,0.1,0.3,0.3,0.3,0.5c0-0.5-0.2-1.1-0.2-1.6
	c0.2-0.1,0.2,0.4,0.3,0.6c0-0.6,0-1.6-0.3-1.8L111.7,21.1z M41.8,57.6C41.8,57.6,41.8,57.6,41.8,57.6c0,0,0-0.1,0.1-0.1
	c0.2,0,0.3,0,0.4,0.1C42.1,57.6,42,57.6,41.8,57.6z M43.3,59.4c0.1,0,0.2,0,0.4-0.1l0,0C43.6,59.4,43.4,59.4,43.3,59.4z M44.6,59.3
	c-0.1-0.1,0-0.2,0.2-0.2c-0.1,0.1,0.3,0.1,0.5,0.2C45.1,59.2,44.9,59.3,44.6,59.3z M57.2,55.2c-0.6-0.4-1.1-0.9-1.2-1.4
	c-0.6-0.5-1.2-1.1-1.6-1.7c0.1,0,0.1-0.1,0.1,0.1c-0.4-0.9-0.8-0.1-1.2-1.2c0-0.6,0.5,0.4,0.4,0c0.5-0.5-0.8-1-0.7-1.9l0.1,0.1
	c0-0.6-0.8-1.1-1-2c0,0,0.1,0,0.1,0c-0.5-0.5-0.9-1.6-1-2.5c0.3,0.2,0.2,0.4,0.4,0.2c-0.1-0.4-0.4,0.2-0.6-0.6
	c0.1-0.3,0.3-0.8,0.5-0.9l0,0.7c0.4-0.4,0-0.9,0.1-1.3l0.2,0.1c0-0.5-0.1-0.8-0.1-1.1c0-0.3-0.1-0.6,0-1.2l-0.1,0.1
	c-0.2-0.7,0.3-0.5,0.2-1.2l0.4-0.1c0-0.4,0.1-1.6,0.4-2.3c0,0.3,0,0.6-0.1,1c0,0.4-0.1,0.7-0.1,1c0.1-0.2,0.2-0.5,0.3-0.9
	c0.1-0.3,0.2-0.6,0.1-0.8c0,0.2,0,0.4-0.2,0.5c-0.1-0.6,0.1-1.3,0.6-2.1c0.3,0.3,0.6-0.2,1-0.7c0.4-0.5,0.9-1,1.3-1.1
	c0.8-1.3,2.2-1.8,3.7-2.5c-0.8-0.3,0.4-0.2,0.1-0.7c0.4-0.2,0.5-0.2,0.6-0.2l-0.1,0c0,0,0.1,0,0.1,0l0,0l0.6,0l0.6,0.1
	c0.3,0.1-0.3,0.2-0.3,0.3c0.8-0.1,0.4,0.2,0.9,0.2c-0.1-0.2,0.2-0.3,0.7-0.3l-0.7-0.2c0.6-0.2,0.8-0.1,1.1,0
	c0.3,0.1,0.5,0.3,1.1,0.1l-0.4,0.2c0.6-0.2,2.1,0.3,2.9,0.1c0.1,0.1,0.2,0.3-0.1,0.3c0.3,0.1,0.7,0.3,1.1,0.4
	c0.4,0.1,0.7,0.3,1.1,0.4c0.7,0.3,1.4,0.7,1.7,1.2l-0.2,0c0.2,0.1,0.6,0.1,0.7,0.4c-0.1,0-0.2,0-0.1,0.1c0.1,0.1,0.7,0.3,0.9,0.7
	c-0.1,0-0.2-0.1-0.3-0.1c0.2,0.3,0.4,0.5,0.6,0.7c0.2,0.2,0.4,0.4,0.6,0.6c0.2,0.2,0.4,0.4,0.6,0.5c0.2,0.2,0.3,0.4,0.5,0.7
	c-0.4,0.2-0.1,1.2-0.1,1.8l-0.1,0c0,0.4,0.1,0.7,0.2,1.1c0,0.3,0.1,0.7,0.2,1c0.1,0.7,0.2,1.4,0.1,2.1c-0.2,0.2-0.3,0.5-0.5,0.8
	c-0.2,0.3-0.3,0.7-0.5,1.1c-0.2,0.4-0.4,0.8-0.7,1.1c-0.3,0.4-0.5,0.7-0.8,1c0.2-0.1,0.2,0.2,0.1,0.5c-0.3,0.2-0.5,1-0.7,0.7
	l0.1-0.1c-0.5-0.1-0.9,0.5-1.4,0.9l0.3,0.5c-0.4,0.1-0.8,0.3-1.2,0.6c-0.4,0.3-0.8,0.6-1.2,0.9c-0.7,0.6-1.5,1.1-2,1
	c-0.3,0.3-0.7,0.5-1,0.8l-0.1-0.3c-1,0.4-1.5,0.6-2.7,1.1l0.2-0.3c-0.7,0.3-0.6,1.1-1.3,1.3l-0.3-0.3C59.2,54.8,58.1,54.9,57.2,55.2
	z M109,30.7l0.4-0.9c-0.2,0.1-0.4,0.3-0.3-0.1C108.5,30.7,109.4,29.5,109,30.7z M120.2,27.1L120.2,27.1c0.1,0,0.1,0,0.1,0
	L120.2,27.1z M121.7,31.9c0.1-0.1,0.1-0.1,0.2-0.1c-0.2,0-0.5,0.1-0.7,0.2C121.5,32,121.4,32.1,121.7,31.9c0.1,0.1,0,0.2-0.1,0.2
	c0.1,0,0,0.1,0.2,0.1C122,32,122,31.9,121.7,31.9z M121.5,32.5l0.1,0.1c0.1,0,0.3-0.1,0.2-0.2L121.5,32.5z M121.1,32
	C121.1,32,121.1,32,121.1,32L121.1,32z M116.9,23.9l-0.1,0.2l0.2-0.1L116.9,23.9z M100.1,20.7C100.1,20.8,100.1,20.8,100.1,20.7
	C100.2,20.8,100.2,20.8,100.1,20.7L100.1,20.7L100.1,20.7z M121,31.6c0.1,0.1,0.3,0.2,0.6,0.2l0-0.1c0,0-0.2,0.1-0.3,0.1
	c-0.2,0,0-0.2,0.1-0.2l0.1,0c0.5-0.4-0.3-0.3-0.3-0.4l0.4-0.1l-0.4,0c0.1-0.1,0.3-0.2,0.4-0.2c0.1-0.2-0.2,0,0-0.2c0,0,0,0,0.1,0
	l-0.2-0.1c0.1,0,0.2-0.2,0.2-0.1c0.1-0.3-0.4-0.2-0.2-0.4l0,0c-0.3-0.2-0.3,0.1-0.7,0.1l0.6-0.5l-0.3,0.1c0,0,0-0.1,0.1-0.1
	c-0.2,0-0.1,0.1-0.3,0.1c0.2-0.3-0.3-0.3,0.1-0.6c-0.2,0.1-0.1,0.2-0.3,0.1c0.4-0.3-0.2-0.1,0-0.4c0.3-0.1,0.2,0.1,0.3-0.1
	c-0.4,0.1,0-0.3-0.2-0.4c-0.1,0.1-0.2,0-0.2,0c0.1,0,0.2,0,0.2,0c0,0,0.1-0.1,0.2-0.1c0,0-0.3,0.1-0.4,0.1c-0.1,0-0.1-0.2-0.3-0.3
	c0.1,0,0-0.4,0-0.7l0.1,0c-0.3,0.1-0.4-0.1-0.5-0.1c0.2-0.1,0.3-0.1,0.4-0.1l-0.1-0.1c-0.1,0-0.2,0-0.3,0l0.3-0.1
	c-0.1-0.1-0.5-0.2-0.4-0.4c-0.2,0.1-0.5,0.5-0.8,0.4c0.1-0.1,0.3-0.2,0.4-0.2c0,0-0.1,0-0.1-0.1l0.3,0c0-0.1-0.2,0-0.2,0
	c0.2-0.1,0.1-0.1,0.2-0.2c0,0,0,0.1,0,0.1c0-0.1,0-0.3,0.2-0.4c-0.1,0.1-0.2,0.1-0.3,0.1c-0.1-0.1,0.2-0.2,0.2-0.3
	c-0.1,0-0.1-0.1-0.3,0c0,0,0.1-0.1,0.2-0.2c-0.2,0-0.2-0.4-0.5-0.1l0,0c0,0,0,0,0,0c-0.4-0.1-0.1-0.6-0.4-0.8l0.1,0
	c-0.2-0.1-0.2-0.3-0.5-0.3c0,0,0.1-0.2,0.2-0.2c-0.1-0.1-0.2,0-0.2-0.3c0.2,0,0.1-0.1,0.2,0.1c0-0.2,0.1-0.3-0.2-0.3
	c0.3-0.1,0.2-0.3,0.1-0.3l-0.1,0.2c-0.1-0.1-0.1-0.1-0.1-0.2l0.3-0.1c0.2-0.5-0.9-0.2-0.4-0.8c-0.3,0-0.1,0.2-0.3,0.3
	c0-0.2,0.3-0.5,0.3-0.6c0.1-0.3-0.5,0-0.5-0.2c-0.1,0.1-0.4,0.3-0.5,0.2c0-0.2,0.3-0.4,0.5-0.4c0,0,0,0.1,0,0.1
	c0.1,0,0.1,0.1,0.2-0.1l-0.1,0c0.1-0.1-0.1-0.3,0.1-0.4c-0.2-0.1-0.2,0-0.2,0.2c0.1-0.3-0.2-0.3-0.2-0.5c0,0.1-0.1,0.2-0.2,0.1
	c0-0.4-0.3,0-0.4-0.2c0.1-0.2,0.4-0.2,0.2-0.3c0-0.2,0.3-0.2,0.4-0.2c-0.3-0.1,0-0.4-0.1-0.5l0.1,0c-0.1,0-0.1-0.1-0.1-0.1L117,20
	c0-0.1,0-0.1,0.1-0.2c-0.2,0-0.3,0.2-0.6,0.2c0.1-0.1-0.2-0.2,0-0.3c0,0.3,0.3-0.2,0.4,0c-0.1,0-0.1-0.1-0.1-0.1c0,0,0.1,0,0.1,0
	c0.1-0.4-0.4,0.1-0.5-0.2c0.2-0.1,0.3-0.2,0.2-0.2c0,0.1-0.2,0.2-0.4,0.2c0-0.2-0.2-0.1-0.2-0.2l0,0.1c-0.2,0.1-0.2,0-0.3-0.1
	c0.1-0.1,0.1,0,0.2,0c-0.3,0,0.1-0.4-0.1-0.5c0.1-0.1,0.3-0.2,0.3-0.3c-0.3-0.1,0.1-0.3-0.2-0.4c-0.2,0.2-0.1,0.1-0.4,0.1l0.3,0.2
	l-0.4,0c0,0.1,0.2,0.1,0.2,0.2c-0.2,0-0.2,0-0.3,0.1c0.2-0.3-0.3-0.1-0.2-0.4l0.5-0.3c0.1-0.3-0.5-0.2-0.5-0.6l0,0.1
	c-0.2,0.1-0.1-0.2-0.3-0.2c0.2-0.1,0.2-0.2,0.3-0.3c-0.1,0.1-0.1-0.2-0.5-0.1l0.2-0.2c0-0.3-0.6,0-0.7-0.2c0.2,0,0.3-0.2,0.5-0.1
	c0-0.1,0-0.2-0.2-0.1c0.1-0.1-0.3-0.1-0.2-0.2c-0.1,0-0.3,0.1-0.3,0c0,0,0.1,0,0.1,0c-0.1,0-0.2-0.1-0.3,0.1c0.4-0.5-0.4-0.6,0-1.1
	c-0.1-0.1-0.3-0.3-0.4-0.4c0.1,0,0.1,0,0.1,0c0.1-0.3-0.6,0.1-0.5-0.2c0.2-0.3,0.2,0,0.3-0.1c0.6-0.3-0.2-0.2,0-0.6l0.1,0
	c0.1-0.2-0.4-0.2-0.4-0.4c0,0,0.1,0,0.1,0c-0.4,0-0.6-0.2-0.8-0.3c0.3-0.1,0.2,0,0.4-0.1c-0.1-0.1-0.4,0.2-0.5,0.1
	c0.1-0.1,0.1-0.3,0.4-0.4l0.1,0.1c0.3-0.2-0.1-0.2-0.1-0.3l0.1-0.1c-0.2-0.2-0.5,0-0.6-0.3l-0.1,0.1c-0.4,0,0.1-0.2-0.2-0.2l0.3-0.2
	c-0.1,0-0.2-0.1-0.3-0.1c-0.1-0.1-0.3-0.1-0.4-0.2c0.3-0.1,0.6,0.2,0.8,0.2c0-0.1-0.2-0.4-0.4-0.3c0.1,0,0.2,0,0.2,0.1
	c-0.4,0-0.6-0.1-0.7-0.3c0.3-0.3,0.2-0.5,0.1-0.7c-0.1-0.2-0.2-0.5-0.1-0.9c-0.2-0.1-0.3-0.4-0.5-0.7c-0.1-0.4-0.3-0.8-0.4-1.1l0,0
	c0,0.6,0,0.6,0,0.5c0,0.1-0.1,0.1-0.1,0.7C110,8.9,110,8.9,110,8.9c0,0,0,0,0,0l0,0c-0.1-0.1-0.2-0.2-0.3-0.2
	c-0.1-0.2,0.1-0.3,0.1-0.5c-0.2,0.2-0.1-0.3-0.3-0.3c0.1,0.3-0.1,0.6-0.2,0.6c0.1,0,0.2,0.1,0.2,0.2c-0.2,0.8-0.4-0.3-0.7,0.5
	l0.1-0.4c-0.1,0.4-0.7,0.9-0.6,1.5c-0.1,0-0.2-0.1-0.2-0.3c-0.2,0.2-0.4,0.7-0.5,0.9c0,0.2-0.1,0.4-0.3,0.4l-0.1-0.1
	c0,0.1,0.1,0.3,0,0.2c0,0-0.1-0.1-0.1-0.1c0,0.1,0.1,0.3,0,0.3l-0.1-0.2c-0.4,0.2,0,0.7-0.1,1c-0.3-0.3-0.6-0.1-0.8-0.1l0,0
	c-0.3,0.3-0.2,0.8-0.3,1.2c-0.5-0.1-0.7,0.5-1.1,0.7c0.1,0,0.3,0.2,0.3,0.3c-0.1,0,0.1,0.4-0.2,0.1l0,0c-0.4-0.2-0.4,0-0.5,0.1
	l0.4,0.3c-0.8-0.2-0.4,1-1.1,0.7c0,0.2,0,0.2,0,0.4l-0.2-0.2c-0.2,0.2-0.3,0.2-0.5,0.5l-0.1-0.2c-0.1,0.1,0.5,0.7,0.4,0.8l-0.4-0.2
	c-0.2,0.3-0.7,0.3-0.6,0.8c0,0-0.1-0.1-0.1-0.2c-0.1,0.1-0.6,0.3-0.1,0.6c-0.3-0.2-0.2,0.2-0.2,0.5l-0.2-0.2
	c0.2,0.3,0.3,0.4,0.2,0.6c0,0-0.1-0.1-0.1-0.1c-0.1,0.1,0.1,0.2-0.1,0.3l-0.1-0.2c-0.1,0.1,0,0.2,0.1,0.4c0,0.1-0.2,0.2-0.5,0.1
	c0.1,0.1,0.2,0.3,0.1,0.3c-0.1,0-0.1-0.1-0.1-0.1c-0.3,0.1,0,0.5-0.3,0.5c-0.1-0.1-0.1-0.1-0.1-0.1c0.1-0.2,0.3-0.3,0.3-0.3
	c-0.2-0.2-0.3-0.1-0.5-0.4c0.1,0.2,0.2,0.7,0,0.7c0,0,0,0-0.1,0l0,0c0,0,0,0.1,0,0.1c-0.1,0-0.1,0-0.1,0.1c-0.2-0.1-0.2,0.1-0.3,0.1
	c0.2,0.2,0.1,0.2,0.4,0.3c0,0,0,0,0-0.1c0,0,0,0,0,0l0,0c0,0,0.1-0.1,0.1-0.2c0.1,0.1,0.1,0.3-0.1,0.3c0.1,0.2,0.2,0.3,0.3,0.4
	c-0.4-0.2-0.7-0.1-0.9-0.2c0,0.3-0.3,0.6,0,1c0,0.1-0.2,0-0.3-0.1c0-0.1,0-0.1,0-0.2c0,0.2-0.2,0.4,0,0.6c-0.2,0-0.2-0.3-0.3-0.1
	l-0.1-0.1c-0.8,0,0.2,1.2-0.7,1.2c0.1,0,0.1,0,0.1,0c-0.7,0.3-0.6,1.2-1.4,1.4c-0.2,0.1,0,0.2,0,0.4l-0.3-0.2l0.2,0.4
	c0,0.4-0.9-0.1-0.7,0.5l0.2,0.1c-0.1,0.1-0.1,0.4-0.3,0.2c0,0,0.1,0.2,0,0.1l-0.1-0.1l0,0.4c-0.2,0.1-0.5-0.4-0.7-0.2
	c0,0.1,0.1,0.6,0.2,0.6c0,0,0.2,0,0.3,0.1l0,0.1c0.4,0.3,0.7,0.7,1.1,0.7l-0.1-0.3l0.2,0.1l-0.1,0.1c0.2,0.1,0.1-0.1,0.1-0.2
	c0.1,0.1,0.2,0.1,0.2,0.1L97,27.3c0.2,0.1,0.2,0.3,0.4,0.3c-0.1-0.2-0.4-0.2-0.4-0.4c0.2,0.1,0.3,0.2,0.3,0c0.1,0.1,0.1,0.1,0.2,0.2
	c-0.1-0.2,0.1-0.2,0-0.4c0.3,0.1,0.2-0.3,0.5,0c-0.1-0.1-0.2-0.4-0.1-0.4c0.3,0.5,0.2-0.2,0.7,0.1c-0.3-0.4,0.1-0.5,0-0.8
	c0,0,0.1,0.1,0,0.1c0.1-0.1,0.2,0,0.4,0c-0.3-0.3-0.2-0.5-0.4-0.7c0.4,0.1,0.3,0.4,0.6,0.5c-0.3-0.2-0.1-0.4-0.3-0.5
	c0.3,0.1,0.2,0,0.4,0.1c-0.4-0.3,0-0.1-0.2-0.4c0.3,0,0.4,0.3,0.4,0c0.2,0,0.2,0.3,0.2,0.3c0.1-0.1-0.2-0.3-0.4-0.5
	c0.1-0.2,0.3,0.1,0.5,0.1c0-0.2-0.2-0.5-0.1-0.5c0.1,0,0.1,0,0.1,0.1c-0.1-0.3,0.3-0.3,0.1-0.7c0,0,0.1,0,0.1,0
	c-0.2-0.1-0.3-0.2-0.4-0.3c0-0.1-0.1-0.3,0.1-0.1c0,0,0,0.1,0.1,0.2l0-0.1c0.3,0.2,0,0.2,0.2,0.3c0-0.2-0.1-0.5,0.1-0.6
	c0.3,0.2-0.1,0.3,0.2,0.4l-0.2,0.1c0.5,0.2-0.1,0.1,0.4,0.3c0.2-0.1,0.1-0.3,0.3-0.5c-0.1-0.2-0.2-0.2-0.3-0.3
	c0-0.5,0.9,0.3,0.7-0.2c-0.1-0.2-0.4-0.5-0.1-0.5l0.3,0.3c0.2-0.2-0.3-0.5,0-0.5c0.1,0.1,0,0.2,0,0.2c0.3,0.1-0.1-0.2,0-0.3l0.3,0.2
	c0.1-0.2,0.1-0.6,0.3-0.9c0.1,0.1,0.1,0.2,0.2,0.2c0.1-0.4,0.5-0.6,0.9-0.8l-0.1-0.3c0,0,0.1,0,0.2,0.1c0.2,0-0.1-0.1-0.2-0.2
	c0-0.1,0.2,0,0.2,0.1c0-0.4,0-0.9,0.4-0.9l0,0.1c0.2-0.1-0.3-0.6,0-0.5l0,0.1c0.4-0.3,0.5-0.8,1-0.8c-0.3-0.3,0.4-0.2,0-0.6
	c0.4,0,0.4,0.1,0.8-0.1c0.1-0.1-0.2-0.3-0.2-0.5l0.2,0.2l-0.2-0.3l0.3,0.2l0-0.1c0,0-0.2,0-0.2-0.1c0-0.2,0.4-0.2,0.6-0.1l0.1-0.5
	c0.1,0.1,0.1,0.2,0.1,0.3c-0.1-0.4,0.3,0.2,0.2-0.2c-0.1,0-0.1-0.1-0.2-0.2c0.2,0,0.4-0.1,0.4-0.3l0.1,0.2c0.2-0.2,0.3-0.6,0.5-0.8
	c-0.2,0-0.4-0.2-0.4-0.3l0.3,0.2c-0.1-0.2-0.2,0-0.3-0.3c0.1-0.1,0.3,0.2,0.4,0.3l0-0.2c0.1,0.1,0.1,0.1,0.2,0.2
	c-0.1-0.2,0.4,0,0.2-0.3l0.1,0.1c0.2-0.3,0.2-0.5,0.4-0.7c-0.2-0.2-0.1-0.2-0.2-0.4c0.2-0.1,0.5-0.1,0.7-0.4c0-0.2-0.2-0.2-0.2-0.4
	c0.2,0.1,0.3-0.1,0.4,0.2c0.2-0.3,0.2-0.3,0.3-0.8c-0.1,0-0.2,0-0.2-0.1c0-0.1,0.2-0.1,0.3,0l0,0c0-0.1,0.1-0.2,0.2-0.3
	c0.1-0.1,0.2,0,0.3,0c0.2,0.1,0.2,0.2,0.1-0.1l0,0c0-0.1,0-0.3,0-0.4c0.1,0,0,0.3,0.1,0.4c0-0.3,0-0.3,0-0.3c0,0,0,0.1,0.1-0.2
	c0,0.3,0,0.4,0,0.5c0,0.1,0,0,0,0c0,0,0,0,0,0.3l0.1-0.2c0.1-0.2,0,0.1-0.1,0.2c0.1-0.2,0.1-0.2,0.1-0.3c0.3,0-0.1,0.3,0.2,1.2
	c0.1,0.3,0.9-0.3,0.7,0.2l-0.3,0.1c0.6,0.3,0.5,1,1.1,1.3c-0.1,0-0.2,0.1-0.2,0c-0.2,0.2,0.2,0.4,0.4,0.3c0,0.1-0.1,0.1-0.2,0.2
	c-0.1,0.2,0.4,0.1,0.2,0.3c0,0-0.1,0-0.1,0c0.1,0,0.1,0.3,0.3,0.1c0,0.2,0.3,0.3,0.2,0.5c0.3-0.1,0,0.4,0.4,0.2
	c-0.4,0.2-0.2,0.5,0.1,0.5c-0.1,0-0.1,0.2-0.3,0.2c0.1,0.1,0.2,0.2,0.4,0.1c-0.4,0.5,0.6,0.3,0.1,0.7c0.4,0.3,0.7,0.5,1,0.8
	c-0.4,0.2-0.2-0.4-0.6-0.1c0.3,0.2,0.8,0.2,0.9,0.6c0,0.1-0.2,0-0.3,0.1c0.3,0.2,0.3,0.6,0.7,0.8c0,0-0.1,0-0.1,0c0,0,0,0.2,0.2,0.1
	l-0.1,0c0.2-0.2,0.7-0.1,0.8-0.1c-0.6,0.2,0,0.4-0.7,0.6c0.1,0,0.2,0,0.3-0.1c0,0.1-0.1,0.1-0.2,0.1c0.2,0.1,0.4,0,0.5,0.2
	c-0.1,0-0.1,0-0.3,0.1c0.2,0,0.4,0,0.4,0.2c-0.1,0-0.1,0.1-0.1,0c0.2,0.3,0.7,0.2,0.7,0.6c-0.4,0.1-0.1,0.2-0.4,0.4l0.2,0.1l0.1-0.1
	c0.1,0.1,0.4,0.1,0.3,0.3l-0.2,0l0.2,0.2l0-0.2c0.2,0,0.4-0.2,0.4,0c-0.1,0,0.1,0.1-0.1,0.3h0c0.1,0,0.3,0,0.3,0.2
	c-0.1,0.1-0.4,0.2-0.4,0.2c0.3-0.1,0.2,0.3,0.6,0.2c-0.1,0-0.3,0.1-0.3,0.1l0.3-0.1c0,0.1-0.1,0.1-0.2,0.2c0.1,0.2,0.4-0.3,0.3,0
	c0,0-0.1,0-0.1,0c0,0.3,0.4,0.4,0.4,0.6c-0.3,0.2-0.2-0.1-0.4,0.1c0.2,0.3,0.7,0.4,0.8,0.7l0-0.1c0.5-0.2-0.1,0.3,0.2,0.4
	c-0.1,0-0.3,0.1-0.2,0.1c0,0.2,0.3,0.3,0.6,0.6l-0.1,0c0,0.2,0.1,0.3,0.1,0.5c0.1,0,0.2,0.1,0.3-0.1c-0.5,0.8,0.8,0.6,0.4,1.2
	c0,0-0.2,0-0.1,0l0.3,0.2c0.2-0.1,0.1-0.1,0.2-0.3c0.1,0,0.3,0,0.3,0.1c-0.2-0.1-0.3,0.2-0.4,0.3c0.1,0,0.1-0.1,0.2-0.1
	c-0.3,0.3,0.4-0.2,0.3,0.1l-0.1,0c0.1,0,0.3,0,0.3,0.1c-0.2,0.2-0.2,0-0.4,0.1c0.1,0.1,0.6,0,0.4,0.2c-0.1,0-0.1-0.1-0.2-0.1
	c-0.2,0.3-0.1,0.2-0.1,0.4l0,0l0,0.3l0-0.1c0.7-0.2,0.3,0.2,0.8,0.2c-0.5,0-0.2,0.1-0.5,0.2c0,0.1-0.1,0.2-0.2,0.2
	c0.3,0-0.1,0.3,0.3,0.2c-0.1,0.1,0,0.1-0.2,0.2c0.1,0.1,0.1-0.1,0.2-0.2c0.4,0-0.1,0.6,0.4,0.7c0.3,0.1,0.6,0,0.9,0.2
	c-0.1,0.1-0.3,0.1-0.3,0.1c-0.1,0.2,0,0.3,0.2,0.3c-0.1,0-0.1,0.1-0.2,0.2c0.1,0.1,0.3-0.1,0.3,0.1c-0.1,0-0.3,0.1-0.4,0.1
	c0.1,0.1,0.4,0.1,0.5,0.2C121.2,31.7,121.1,31.6,121,31.6z M100,20.5c0,0-0.1-0.1-0.1-0.1c0-0.1,0.1-0.1,0.1,0
	C100,20.4,100,20.5,100,20.5L100,20.5z M101.6,21.4C101.6,21.4,101.7,21.4,101.6,21.4L101.6,21.4C101.7,21.4,101.7,21.4,101.6,21.4z
	 M101.8,21.2c-0.1-0.1-0.2-0.1-0.1-0.1c0,0.1,0.1,0,0.2,0C101.9,21.1,101.8,21.1,101.8,21.2z M104.1,15l0,0.2l0.1,0L104.1,15z
	 M119.2,25.4c-0.1,0,0,0.1,0,0.1L119.2,25.4z M119.1,25.6C119.1,25.6,119.1,25.6,119.1,25.6C119.1,25.6,119.1,25.6,119.1,25.6
	L119.1,25.6z M121.2,29.5c0.1-0.1,0.2-0.2,0.3-0.1c0.2-0.4-0.2,0.2-0.3-0.1L121.2,29.5z M118.6,24.1l0.2-0.1
	C118.7,23.9,118.7,24,118.6,24.1z M121.1,28.5c-0.1,0-0.2,0-0.2,0.1C121.1,28.7,121.1,28.5,121.1,28.5z M112.1,11.7
	c0,0.1,0,0.2,0,0.2C112.3,11.9,112.3,11.7,112.1,11.7z M114.2,15.1l-0.3,0.2C114,15.3,114.3,15.1,114.2,15.1z M118.3,22.5l-0.2-0.1
	L118.3,22.5L118.3,22.5z M121,32C121,31.9,121.1,31.9,121,32L121,32L121,32z M116.9,19.6L116.9,19.6C117,19.6,117,19.6,116.9,19.6z
	 M119.8,29.3c0,0,0.1,0,0.1,0l0,0L119.8,29.3z M114.4,20.1C114.4,20.1,114.4,20,114.4,20.1C114.3,20,114.4,20,114.4,20.1z
	 M116.3,22.5c0,0,0-0.1-0.1-0.1C116.3,22.5,116.3,22.5,116.3,22.5z M120.8,31.3L120.8,31.3c0.1,0,0.1,0,0.1,0
	C120.8,31.3,120.8,31.3,120.8,31.3z M120.8,31.4c0,0,0.1,0,0.1,0C120.8,31.4,120.8,31.4,120.8,31.4L120.8,31.4z M100.1,24
	c-0.1,0-0.2-0.1-0.2-0.1C100.1,24,100,24.1,100.1,24z M120.6,30.9c0,0.1-0.1,0.2,0,0.3l0.1,0C120.5,31.1,120.7,30.8,120.6,30.9z
	 M116.5,22.5c-0.1,0-0.1,0-0.2,0C116.4,22.6,116.4,22.6,116.5,22.5z M113.8,15L113.8,15L113.8,15L113.8,15z M114.4,16.1
	C114.4,16,114.5,16,114.4,16.1C114.4,16,114.4,16,114.4,16.1C114.4,16,114.5,16,114.4,16.1z M112.5,17.1L112.5,17.1L112.5,17.1
	L112.5,17.1z M110,7.9c0.1,0.3-0.2,0.8-0.1,1C109.9,8.7,110.2,7.9,110,7.9z M112.1,16.4c0.1-0.1,0.1-0.1,0.1-0.2c0,0,0,0-0.1,0
	L112.1,16.4z M105.5,17.4L105.5,17.4L105.5,17.4L105.5,17.4z M95.8,27.4L95.8,27.4l-0.1-0.1L95.8,27.4z"/>
</svg>
