<?xml version="1.0" encoding="utf-8"?>
<!-- Generator: Adobe Illustrator 27.0.1, SVG Export Plug-In . SVG Version: 6.00 Build 0)  -->
<svg version="1.1" id="Capa_1" xmlns="http://www.w3.org/2000/svg" xmlns:xlink="http://www.w3.org/1999/xlink" x="0px" y="0px"
	 viewBox="0 0 50 120" style="enable-background:new 0 0 50 120;" xml:space="preserve">
<style type="text/css">
	.st0{fill:#C0C0C0;}
</style>
<path class="st0" d="M18.6,102.5c0,0,0,0.1,0,0.2C18.6,102.6,18.7,102.6,18.6,102.5L18.6,102.5z M19.6,101.6
	c-0.1,0.1-0.4,0.1-0.5,0.3l0,0.1C19.1,101.8,19.6,101.8,19.6,101.6z M38.4,34.4l-0.2-0.3l0,0.2L38.4,34.4z M23.6,98.7
	c0.1,0.1,0.1,0.2,0,0.2c0,0,0.1,0.1,0.2,0.1C23.9,99,23.7,98.8,23.6,98.7z M22.2,98.6c0,0,0.1,0.1,0.1,0.1L22.2,98.6L22.2,98.6z
	 M32,19.4C32,19.4,32,19.4,32,19.4C31.9,19.4,31.9,19.5,32,19.4L32,19.4L32,19.4z M18.1,103.9c-0.1,0.1-0.2-0.1-0.2-0.2
	c0-0.3,0.3-0.2,0.4-0.2l-0.1,0.2c0.6,0.3,0.5-0.6,0.8-0.9l0.2,0.4l0.1-0.5c0.1,0,0.3,0.1,0.3,0.3c0.3-0.1,0.1-0.3,0.4-0.3
	c0,0,0.1,0,0,0.1l0.1-0.3c0,0.1,0.2,0.2,0.1,0.3c0.5-0.2,0.3-0.8,0.7-0.8l0,0c0.4-0.6-0.2-0.3-0.1-0.9l0.8,0.2l-0.2-0.3
	c0.1,0,0.2-0.1,0.2,0c0-0.3-0.1-0.1-0.2-0.3c0.5-0.1,0.6-0.8,1-0.6c-0.1-0.3-0.4,0.1-0.2-0.3c0.5,0.3,0.2-0.4,0.6-0.5
	c0.1,0.3-0.2,0.4,0.2,0.3c-0.2-0.4,0.5-0.4,0.6-0.7c-0.3-0.2,0.3-0.6,0.5-1c0.1,0.1,0.7-0.6,1.1-0.8l0,0c-0.2-0.3,0.1-0.6,0.2-0.9
	c0.2,0.1,0.2,0.2,0.2,0.4l0.2-0.2c-0.1-0.1,0-0.2,0-0.4l0.2,0.2c0.2-0.3,0.2-0.8,0.7-1.2c-0.2-0.2-0.8-0.1-0.6-0.6
	c0.1,0.1,0.3,0.2,0.3,0.3c0,0,0-0.2,0.1-0.3l0.1,0.3c0.2-0.1-0.1-0.2,0-0.4c0.2,0.1,0.2,0,0.3,0.1c0,0.1-0.2,0.1-0.1,0.2
	c0.1-0.2,0.4-0.3,0.6-0.3c-0.1,0-0.2-0.2-0.2-0.3c0.2-0.3,0.3,0,0.5-0.1c-0.1-0.2,0.2-0.3,0-0.5c0.1-0.1,0.2,0,0.3,0
	c0-0.2,0.5-0.8,0.1-0.8l0,0c0,0,0,0,0,0c0.2-0.7,0.9-1.1,1.2-1.8l0.1,0.1c0.1-0.4,0.4-0.8,0.4-1.2c0.1-0.1,0.3-0.2,0.4,0
	c0.1-0.3,0-0.4,0.4-0.7c0,0.4,0.2,0-0.1,0.3c0.3-0.3,0.5-0.3,0.4-0.8c0.1,0.3,0.4-0.1,0.5-0.3l-0.3,0.2c0.1-0.2,0.2-0.4,0.3-0.5
	l0.2,0.3c0.8-0.5,0.1-1.6,1-1.9c-0.1-0.3-0.4,0.3-0.5,0c0.2-0.3,0.8-0.5,0.9-0.6c0.4-0.4-0.2-0.7,0.1-1.1c-0.1,0-0.5-0.1-0.4-0.5
	c0.2-0.3,0.7-0.2,0.6,0c0,0.1-0.1,0.1-0.1,0.1c0,0.1,0,0.3,0.1,0.2l-0.1-0.1c0.2-0.1,0.4-0.6,0.5-0.4c0-0.3-0.1-0.2-0.3,0
	c0.4-0.4,0.4-0.7,0.7-1.1c-0.1,0-0.2,0.1-0.2,0c0.4-0.6-0.1-0.4,0.1-0.9c0.3-0.2,0.4,0.3,0.4-0.3c0.2-0.2,0.3,0.1,0.4,0.2
	c0-0.5,0.5-0.7,0.6-1l0,0.3c0-0.2,0.1-0.3,0.1-0.4l-0.3,0c0.1-0.1,0.1-0.2,0.2-0.2c-0.1-0.2-0.4,0-0.5-0.4c0.2-0.1,0.1-0.6,0.4-0.5
	c-0.3,0.5,0.3,0.1,0.2,0.5c0-0.1,0.1-0.2,0.1-0.3c0,0,0.1,0,0.1,0.1c0.5-0.4-0.2-0.4,0-0.9c0.1,0.1,0.4,0,0.4-0.1
	c-0.1,0.2-0.3,0-0.4-0.3c0.3-0.3,0-0.4,0.1-0.6l-0.1,0.2c-0.1-0.1-0.1-0.3,0-0.6c0.1,0,0,0.3,0.1,0.2c-0.2-0.4,0.5-0.5,0.5-1
	c0.2-0.1,0.3,0.1,0.5,0c-0.1-0.5,0.4-0.4,0.4-0.9c-0.3,0.1-0.2,0.1-0.3-0.3l-0.1,0.8L36.5,76c-0.1,0.2,0,0.5-0.1,0.7
	c-0.1-0.3-0.1-0.3-0.3-0.2c0.4-0.2,0-0.7,0.3-1l0.6,0.2c0.4-0.5,0-1.1,0.4-1.7l-0.2,0.2c-0.2-0.2,0.1-0.4,0.1-0.7
	c0.2,0.1,0.3,0,0.4-0.1c-0.1,0,0.2-0.5-0.2-0.7l0.3-0.3c0.3-0.6-0.4-0.8-0.2-1.3c0.2,0.2,0.4,0,0.4,0.4c0.1-0.2,0.1-0.3,0-0.4
	c0.1-0.1-0.1-0.6,0.1-0.7c-0.1-0.1-0.3-0.2-0.2-0.4c0,0,0.1,0,0.1,0c-0.1,0-0.1-0.4-0.3-0.2c0.7-0.4,0.3-1.6,0.9-2
	c0-0.4,0.1-0.9,0.1-1.3c0.1,0,0.1,0,0.1,0.1c0.3-0.5-0.5-0.4-0.2-1c0.4-0.2,0.1,0.3,0.3,0.2c0.7,0,0-0.7,0.5-1.1l0,0.1
	c0.3-0.3-0.1-0.8,0-1.3c0,0,0.1,0,0.1,0c-0.3-0.4-0.3-1-0.3-1.5c0.2,0.2,0.1,0.2,0.4,0.2c0-0.2-0.4,0-0.4-0.4
	c0.2-0.1,0.3-0.4,0.6-0.4l0,0.4c0.4-0.2,0-0.5,0.1-0.7l0.2,0c0-0.6-0.4-0.7-0.3-1.3l-0.1,0.1c-0.3-0.4,0.2-0.3,0-0.7l0.4-0.1
	c-0.1-0.3-0.3-0.9-0.4-1.3c0.3,0.3,0.4,0.8,0.5,1.1c0-0.2,0-0.8-0.2-1c0,0.1,0.1,0.2,0.1,0.3c-0.3-0.3-0.4-0.7-0.4-1.2
	c0.8,0.1,0.3-1.2,0.9-1.6c-0.3-0.9,0.1-1.7,0.1-2.7c-0.6,0.4,0-0.3-0.6-0.2c0-0.2,0-0.3,0-0.3c0,0,0,0,0,0h0l0.3-0.7
	c0.2-0.2,0.1,0.2,0.3,0.2c0-0.5,0.3-0.2,0.4-0.6c-0.2,0.1-0.3-0.2-0.2-0.5L40.6,51c-0.4-0.7,0.5-0.6,0.1-1.3l0.2,0.2
	c-0.1-0.4-0.1-1.4-0.6-1.7c0.1-0.1,0.2-0.2,0.3,0c0-0.9-0.7-1.9-0.4-2.6l0.2,0.1c-0.1-0.2-0.3-0.3-0.2-0.5c0.1,0,0.2,0,0.2,0
	c-0.1-0.1-0.3-0.4-0.3-0.6l0.2,0.2c0.1-0.9-0.6-1.2-0.8-1.9c0.4-0.1,0.5-0.8,0.5-1.1l0.1,0c-0.1-1-0.7-1.6-1-2.5
	c0.4-0.7-0.2-1.9-0.2-2.9c0,0.2-0.3,0.1-0.4-0.1c0-0.2-0.4-0.5,0-0.6l0,0.1c0.3-0.3,0.2-0.7,0.1-1L38,34.8c0.5-1.1-0.9-2.2-0.4-2.9
	c-0.2-0.2-0.3-0.4-0.5-0.6l0.3-0.1c-0.1-0.6-0.2-0.9-0.5-1.6l0.2,0.1c-0.1-0.4-0.9-0.2-1.1-0.6l0.4-0.3c-0.2-0.7-0.2-1.5-0.8-2.1
	c0.1,0,0.2,0,0.2,0.1c-0.1-0.3-0.2-1.4-0.7-1c0.3-0.1-0.2-0.7-0.6-1l0.3-0.1c-0.5-0.2-0.6-0.1-0.8-0.5c0-0.1,0.2-0.2,0.2,0
	c0-0.4-0.4-0.2-0.4-0.6l0.2,0.1c-0.1-0.4-0.2-0.3-0.5-0.4c-0.2-0.2-0.2-0.7,0-0.8c-0.2,0-0.4-0.1-0.5-0.3c0.1-0.1,0.2,0,0.2,0
	c-0.1-0.7-0.7-0.7-0.7-1.2c0.1,0,0.1-0.1,0.1-0.1c0.2,0.5,0.4,0.8,0.4,0.8c0.2-0.1,0.1-0.5,0.6-0.4c-0.3-0.2-1-0.5-1-0.9
	c0,0,0-0.1,0.1-0.1l0,0c0-0.1-0.1-0.2-0.2-0.2c0-0.1,0-0.2-0.1-0.3c0.2-0.1-0.1-0.5-0.2-0.7c-0.2,0.1-0.3-0.1-0.4,0.2
	c0,0,0,0,0.1,0.1c0,0,0,0.1,0.1,0.1l0,0c0.1,0.1,0.1,0.3,0.2,0.4c-0.2-0.1-0.4-0.2-0.3-0.4c-0.2,0-0.4,0-0.5,0
	c0.2-0.4,0.2-1,0.3-1.2c-0.4-0.5-0.8-1.2-1.5-1.3c-0.1-0.1,0-0.3,0.1-0.4c0.1,0.1,0.1,0.2,0.2,0.2c-0.3-0.2-0.6-0.9-0.9-0.8
	c-0.1-0.5,0.4,0,0.1-0.5l0.1,0c-0.1-1.3-1.8-1.1-1.9-2.7c0,0.1,0,0.2,0,0.2c-0.6-1.4-2-2.4-2.5-3.9C25.2,8.8,25,9,24.7,8.9l0.2-0.3
	l-0.5-0.1c-0.6-0.3-0.1-1.3-1-1.6L23.3,7c-0.2-0.2-0.7-0.6-0.5-0.7c0,0-0.2,0.1-0.2-0.1l0.1-0.1l-0.7-0.4c-0.3-0.5,0.5-0.3,0-1
	c-0.2-0.2-0.9-0.3-0.9-0.2c0.1,0.1,0.1,0.3,0,0.4L21,4.9c-0.4,0.3-0.9,0.4-0.7,1.2l0.5,0.2l-0.1,0.3l-0.3-0.3c0,0.3,0.2,0.3,0.4,0.3
	c-0.1,0.1-0.1,0.2-0.1,0.3l0.6,0C21.3,7,21,6.9,21.1,7.2c0.3,0,0.2-0.4,0.5-0.2c0,0.3-0.2,0.4,0.1,0.4c-0.1,0.1-0.2,0.1-0.3,0.1
	c0.3,0.1,0.4,0.4,0.7,0.3c0,0.3,0.5,0.5,0.2,0.8c0.1,0,0.5,0.1,0.7,0.2c-0.6,0,0.5,0.6-0.1,0.9c0.5-0.1,0.8,0.7,1.3,0.9
	c0,0-0.1,0-0.1,0c0.1,0.2,0.1,0.4,0.1,0.6c0.3-0.2,0.7,0.1,1,0.1c-0.1,0.5-0.5,0.1-0.7,0.4c0.2-0.2,0.6,0.3,0.7,0
	c0,0.3,0,0.3-0.1,0.5c0.4-0.2,0.2,0.2,0.6,0.2c0,0.4-0.3,0.3,0,0.6c0,0.2-0.4,0-0.4,0c0.2,0.3,0.4,0,0.6-0.1
	c0.4,0.4-0.1,0.3-0.1,0.6c0.3,0.2,0.7,0.2,0.8,0.4c0,0,0,0.1-0.1,0.1c0.4,0.1,0.5,0.8,1.1,1c0,0,0,0.1,0,0.1
	c0.1-0.2,0.3-0.3,0.4-0.3c0.1,0.2,0.4,0.2,0.2,0.4c-0.1-0.1-0.1-0.1-0.2-0.1l0.2,0.1c-0.2,0.3-0.2-0.2-0.5,0
	c0.3,0.3,0.8,0.5,0.9,0.8c-0.3,0.2-0.5-0.5-0.5,0l-0.1-0.5c-0.3,0.6-0.1-0.3-0.4,0.3c0.2,0.6,0.5,0.5,0.7,1c0.2,0,0.2-0.2,0.4-0.2
	c0.7,0.6-0.4,1,0.3,1.3c0.3,0,0.7-0.1,0.7,0.4l-0.4,0.1c0.3,0.5,0.6,0,0.7,0.7c-0.2,0-0.3-0.3-0.3-0.2c-0.1,0.5,0.3,0.1,0.5,0.4
	l-0.3,0.2c0.3,0.5,0.9,1,1.2,1.6c-0.1,0-0.3,0-0.3,0.1c0.6,0.7,0.8,1.7,0.9,2.5l0.4,0.2c0,0.1-0.1,0.2-0.1,0.1c0,0.3,0.2-0.1,0.3,0
	c0.1,0.2-0.1,0.3-0.2,0.2c0.5,0.4,1.2,1.3,1.1,2l-0.1-0.1c0.1,0.5,0.8,0.3,0.7,0.8l-0.1-0.1c0.3,1,0.9,2,0.8,2.9
	c0.4,0,0.1,1,0.7,0.9c-0.1,0.6-0.2,0.5-0.2,1.4c0,0.2,0.4,0.2,0.6,0.5l-0.3,0.1l0.4,0.3l-0.3,0.3l0.1,0.2c0-0.1,0.1-0.2,0.2-0.3
	c0.2,0.3,0.1,1-0.1,1l0.5,0.8c-0.1,0-0.2-0.1-0.3-0.2c0.4,0.4-0.3,0.2,0.1,0.5c0.1-0.1,0.2,0,0.2,0c-0.1,0.3,0,0.8,0.2,1.1l-0.2,0
	c0.1,0.7,0.4,1.4,0.6,2.2c0-0.3,0.4-0.3,0.5-0.1l-0.3,0.2c0.2,0.1,0.1-0.3,0.4,0c0,0.3-0.3,0.3-0.5,0.1l0.2,0.3c-0.1,0-0.2,0-0.3,0
	c0.2,0.1-0.2,0.7,0.2,0.8l-0.1,0c0.1,0.8,0.3,1.1,0.4,1.7c0.3,0,0.3,0.2,0.5,0.4c0,0.5-0.2,1-0.1,1.6c0.2,0.4,0.3,0.1,0.4,0.2
	c-0.2,0.1-0.1,0.6-0.4,0.4c0.1,0.7,0.2,0.9,0.5,1.7c0.1-0.1,0.1-0.2,0.2-0.2c0.1,0.2-0.1,0.4-0.2,0.4l0,0c0.5,0.9-0.5,2.3,0,3l0,0
	l0.3,0.8c0,0.4-0.2-0.2-0.3,0.1c0.5,0.8,0,1.4,0.3,2.1c-0.7,0.6,0,1.9-0.4,2.7l0.2,0c0.2,0.2-0.1,0.2-0.1,0.4c0.1,0,0.2-0.2,0.3-0.1
	c0.1,0.8,0,1.6-0.2,2.5c-0.2,0.8-0.4,1.7-0.5,2.5c-0.1,0.6,0.9,0.4,0.4,1.2l-0.3-0.3c0.1,0.6,0.1,1.3,0,1.9
	c-0.1,0.6-0.2,1.2-0.2,1.8c-0.1-0.1-0.2-0.1-0.1-0.2c-0.3,0.2-0.2,0.9,0,1c-0.1,0.2-0.2,0-0.3,0.1c-0.2,0.2,0.2,0.7-0.1,0.8
	c0,0-0.1-0.1-0.1-0.1c0.1,0.2-0.2,0.7,0.1,0.6c-0.2,0.4-0.1,0.9-0.3,1.2c0.3,0.3-0.3,0.7,0.1,0.9c-0.4-0.1-0.5,0.7-0.4,1
	c-0.1-0.1-0.2,0.2-0.4,0.1c-0.1,0.3-0.1,0.6,0.2,0.6c-0.7,0.4,0.1,1.3-0.6,1.4c0,1-0.2,1.9-0.3,2.8c-0.4-0.2,0.3-0.9-0.2-1
	c-0.1,0.8,0.1,1.4-0.2,2.2c-0.1,0.2-0.1-0.2-0.2-0.3c-0.1,0.8-0.6,1.5-0.6,2.3c0,0-0.1-0.1-0.1-0.2c0,0.1-0.2,0.3,0,0.3l0-0.2
	c0.4-0.1,0.4,0.8,0.5,0.8c-0.5-0.4-0.4,0.6-0.9,0c0,0.1,0.1,0.3,0.2,0.3c-0.1,0.1-0.2,0.1-0.3-0.1c-0.1,0.5,0.2,0.4,0,0.9
	c-0.1,0-0.1-0.1-0.2-0.2c0.1,0.3,0.2,0.6-0.1,0.9c0,0-0.1,0-0.1-0.1c-0.2,0.6,0,1.3-0.5,1.9c-0.3-0.4-0.2,0.2-0.6,0.1
	c0,0.1,0,0.3-0.1,0.4l0.2-0.1c-0.2,0.3-0.1,0.7-0.3,0.9l0-0.3l-0.2,0.6l0.3-0.3c0,0.4,0.4,0.2,0.1,0.6c0-0.1-0.2,0.3-0.4,0.4l0,0
	c0,0.2,0.1,0.4-0.1,0.6c-0.1,0-0.3-0.2-0.4-0.2c0.2,0.3-0.3,0.8-0.1,1.1c0-0.1-0.2-0.2-0.3-0.2l0.2,0.2c-0.2,0.1-0.2,0.1-0.3,0
	c-0.3,0.4,0.5,0.1,0,0.5c0-0.1,0,0,0-0.2c-0.4,0.5-0.4,1.1-0.8,1.5c-0.4,0,0.1-0.5-0.2-0.5c-0.3,0.7-0.4,1.6-0.9,2.2l0.1-0.1
	c0.4,0.4-0.5,0.3-0.5,0.8c0-0.1-0.2-0.3-0.1-0.2c-0.3,0.4-0.4,1-0.7,1.7l-0.1-0.2c-0.3,0.2-0.5,0.6-0.7,0.9c0.1,0.2-0.1,0.3,0.2,0.3
	c-1.2,0.4-0.7,1.9-1.8,2.2c0.1-0.1,0.1-0.3,0-0.2l-0.4,0.7c0.2,0.1,0.2,0,0.4,0c0.1,0.2,0,0.4-0.1,0.6c0.1-0.4-0.3-0.2-0.5-0.2
	c0.1,0,0.1,0.1,0.2,0.1c-0.6,0.1,0.3,0.3-0.2,0.6l-0.1-0.1c-0.1,0.2-0.1,0.5-0.2,0.6c-0.3-0.1,0-0.3-0.1-0.4c-0.2,0.3,0,0.8-0.4,0.9
	c0-0.1,0.1-0.3,0.2-0.5c-0.4,0.1-0.4,0.1-0.6,0.3l0,0l-0.4,0.3l0.2,0c0.3,0.7-0.4,0.7-0.4,1.4c0-0.7-0.1-0.2-0.3-0.4
	c-0.2,0-0.4,0.1-0.4,0c0,0.3-0.4,0.2-0.4,0.7c-0.1-0.1-0.2,0.2-0.3,0c-0.1,0.3,0.2,0.1,0.3,0.2c-0.1,0.6-1.1,0.6-1.2,1.4
	c-0.3,0.6-0.1,0.9-0.4,1.4c-0.2,0-0.2-0.4-0.2-0.4c-0.3,0.1-0.5,0.3-0.6,0.6c0-0.1-0.1-0.1-0.3-0.1c-0.1,0.2,0.1,0.4-0.2,0.5
	c0-0.1-0.1-0.3-0.1-0.4c-0.1,0.3-0.2,0.6-0.3,0.8c-0.2-0.1-0.1-0.3-0.1-0.5c-0.2,0.3-0.5,0.7-0.4,1L18.1,103.9z M31.1,21.2
	c0-0.1-0.1-0.1-0.1-0.2C31,21.1,31.1,21.1,31.1,21.2L31.1,21.2z M31.5,21.9c0-0.1-0.1-0.2-0.2-0.3c0.1-0.1,0.2-0.1,0.2,0
	C31.5,21.6,31.5,21.8,31.5,21.9z M32.3,19.5L32.3,19.5c0,0,0.1,0,0.1,0c0.1,0.1,0.1,0.2,0,0.2C32.4,19.6,32.4,19.6,32.3,19.5z
	 M18.7,102.5L18.7,102.5c0,0.1,0,0.1,0,0.1C18.7,102.5,18.7,102.5,18.7,102.5z M39.4,105.1c-0.1,0.1-0.1,0.2,0,0.2
	C39.5,105.2,39.4,105.2,39.4,105.1z M34.7,106.7l-0.2-0.1C34.5,106.8,34.6,106.7,34.7,106.7z M39,68.3l-0.3,0
	C38.7,68.4,39,68.5,39,68.3z M27.5,15.2c-0.1,0.1-0.4-0.2-0.1,0.2C27.4,15.4,27.5,15.3,27.5,15.2z M32.6,107.1l0-0.3
	C32.4,106.9,32.5,106.9,32.6,107.1z M40.2,59.3c0,0.2-0.2,0.4-0.1,0.5C40.2,59.7,40.3,59.4,40.2,59.3z M30.1,87.2l-0.2,0.1l0.2,0.2
	L30.1,87.2z M40.4,105.2l0.3,0c-0.1-0.1-0.2-0.2-0.1-0.3C40.2,104.8,40.8,105.2,40.4,105.2z M34,77.6C34,77.6,34,77.6,34,77.6
	C34,77.4,34,77.5,34,77.6z M36.1,69.8l0.2-0.4C36.2,69.5,36.2,69.7,36.1,69.8z M23.3,97.6L23,97.7C23.2,97.7,23.2,97.6,23.3,97.6z
	 M36.5,68.1c0.1-0.1,0.2-0.1,0.2-0.2c0,0,0,0-0.1-0.1L36.5,68.1z M35.2,32.8L35.2,32.8L35.2,32.8L35.2,32.8z M20.9,4.9L20.9,4.9
	c0.1,0,0.1,0,0.2-0.1L20.9,4.9z M31.8,84.3c0.1-0.1,0.1-0.2,0.2-0.3C31.8,84,31.8,84.1,31.8,84.3z M25.9,96.4L25.9,96.4
	c0,0.1,0,0.2,0,0.2L25.9,96.4z M32.4,86.6l-0.1,0.3l0,0.1L32.4,86.6z M31.8,84.5c0-0.1,0-0.2,0-0.3C31.7,84.4,31.6,84.4,31.8,84.5z
	 M33.1,84.2c0,0.1,0,0.1,0,0.1C33.1,84.3,33.2,84.2,33.1,84.2z M28,92.8C28,92.8,28,92.8,28,92.8C28,92.8,28,92.8,28,92.8L28,92.8z
	 M34.2,82.8C34.1,82.9,34.1,82.9,34.2,82.8C34.1,82.9,34.2,82.9,34.2,82.8z M40.7,52.2c-0.2,0.3-0.3-0.5-0.6,0
	C40.2,52.1,40.6,52.6,40.7,52.2z M35.7,80.1L35.7,80.1C35.7,80.2,35.7,80.2,35.7,80.1z M38.9,67.7C38.8,67.7,38.8,67.7,38.9,67.7
	c-0.1,0.1-0.1,0.1-0.1,0.1L38.9,67.7z M38.2,70.5c0-0.1,0.1-0.1,0.1-0.2c0,0,0,0,0,0C38.3,70.4,38.3,70.4,38.2,70.5z M36.1,69.9
	L36.1,69.9L36.1,69.9L36.1,69.9z M34.7,106.7C34.8,106.7,34.8,106.7,34.7,106.7C34.8,106.8,34.8,106.7,34.7,106.7L34.7,106.7z
	 M27.8,107.9C27.8,107.9,27.9,107.9,27.8,107.9C27.8,107.9,27.8,107.8,27.8,107.9z M25.9,108L25.9,108C26,107.9,26,107.9,25.9,108z
	 M28.9,107.9C28.9,107.9,28.9,108,28.9,107.9C28.9,108,28.9,107.9,28.9,107.9z M20.3,110c0,0-0.1,0-0.1,0
	C20.2,110,20.2,110,20.3,110C20.3,110,20.3,109.9,20.3,110z M18.7,110.4L18.7,110.4L18.7,110.4L18.7,110.4z M30.4,107l-0.2,0.1
	L30.4,107L30.4,107z M7.6,102.4L7.6,102.4L7.6,102.4L7.6,102.4z M9.8,112c0.1,0.3-0.3,0.3-0.1,0.6C9.7,112.4,10,112.1,9.8,112z
	 M9.8,104.4l0-0.2l0,0.1L9.8,104.4z M44.1,105.1c-0.1-0.1,0-0.2,0-0.2c-0.1,0.2-0.1,0.5,0,0.8C44.1,105.3,44.2,105.4,44.1,105.1
	c0.2-0.1,0.3,0,0.3,0.1c0-0.1,0.2,0,0.2-0.2C44.4,104.8,44.2,104.8,44.1,105.1z M37.1,105.8L37.1,105.8c0.1-0.1,0.1-0.1,0.1-0.2
	L37.1,105.8z M44.7,105.1l0,0.3l0.1-0.1C44.9,105.2,44.8,105,44.7,105.1z M43.8,105.8L43.8,105.8C43.8,105.8,43.8,105.8,43.8,105.8
	L43.8,105.8z M44,105.6L44,105.6C43.9,105.7,44,105.7,44,105.6z M19.8,112.4c-0.1-0.1-0.1-0.1-0.2-0.2c0,0,0,0,0,0.1L19.8,112.4z
	 M43.7,105.2c0.1,0,0.1,0.2,0.1,0.3c-0.1,0.2-0.3,0-0.3-0.1l0.1-0.1c-0.3-0.5-0.5,0.2-0.7,0.2l0-0.4l-0.2,0.4
	c-0.1-0.1-0.2-0.3-0.1-0.4c-0.2-0.2-0.1,0.2-0.3,0c0,0,0-0.1,0-0.1l-0.1,0.2c0-0.1-0.1-0.3,0-0.2c-0.4-0.2-0.4,0.4-0.6,0.1l0,0
	c-0.4,0.2,0,0.3-0.2,0.7l-0.4-0.7l0,0.3c0,0-0.1,0-0.2-0.1c-0.1,0.2,0.1,0.1,0,0.3c-0.3-0.2-0.5,0.3-0.7-0.2c0,0.2,0.2,0.1,0.1,0.3
	c-0.2-0.5-0.2,0.2-0.5,0c0-0.3,0.2-0.2,0-0.4c0,0.5-0.4,0-0.5,0.1c0,0.1,0,0.2,0,0.2c0-0.1,0-0.2,0-0.2c0-0.1,0-0.1-0.1-0.2
	c0,0,0,0.3,0,0.4c-0.1,0.1-0.3,0.1-0.5,0.2c0-0.1-0.6-0.1-0.8-0.1l0-0.1c0,0.4-0.2,0.4-0.4,0.5c0-0.2,0-0.3,0-0.4l-0.2,0
	c0,0.1-0.1,0.2-0.2,0.3l0-0.3c-0.2,0.1-0.4,0.4-0.8,0.3c0,0.3,0.4,0.6,0.1,0.9c0-0.1-0.1-0.4,0-0.4c0,0-0.1,0.1-0.1,0.1l0.1-0.3
	c-0.2-0.1,0,0.2-0.1,0.2c0-0.2-0.1-0.1-0.1-0.3c0,0,0.1,0.1,0.1,0c-0.1,0-0.3-0.1-0.4-0.2c0,0.1,0.1,0.3,0,0.3
	c-0.2,0.1-0.1-0.2-0.3-0.3c0,0.1-0.2,0-0.1,0.3c-0.1,0-0.1-0.1-0.2-0.2c-0.1,0.2-0.6,0.2-0.4,0.5l0,0l0,0c-0.3,0.4-0.9,0-1.2,0.3
	l0-0.1c-0.2,0.2-0.5,0.2-0.6,0.4c-0.1,0-0.2-0.1-0.2-0.3c-0.2,0.1-0.2,0.2-0.5,0.1c0.1-0.2-0.1-0.1,0.2-0.2c-0.3,0-0.4-0.2-0.5,0.2
	c0-0.3-0.3-0.3-0.4-0.2l0.2,0.1c-0.1,0.1-0.2,0.1-0.4,0.1l0-0.3c-0.6-0.3-0.7,0.9-1.2,0.3c-0.1,0.3,0.3,0.1,0.3,0.4
	c-0.2,0-0.6-0.4-0.7-0.4c-0.4-0.1-0.2,0.5-0.5,0.5c0.1,0.1,0.2,0.4,0,0.6c-0.2,0-0.4-0.4-0.3-0.5c0.1,0,0.1,0,0.1,0
	c0.1-0.1,0.1-0.1,0-0.2v0.1c-0.1-0.1-0.4,0-0.4-0.2c-0.1,0.2,0,0.2,0.1,0.2c-0.3-0.1-0.4,0.1-0.8,0.1c0.1,0.1,0.1,0.2,0.1,0.2
	c-0.5,0-0.1,0.3-0.4,0.4c-0.2-0.1,0-0.4-0.3-0.2c-0.2-0.1-0.1-0.3-0.1-0.4c-0.2,0.3-0.5,0-0.7,0l0.1-0.1c-0.1,0.1-0.1,0.1-0.2,0.1
	l0.1,0.2c-0.1,0-0.2,0-0.2-0.1c0,0.2,0.2,0.4,0,0.6c-0.1-0.1-0.3,0.2-0.4-0.1c0.4,0-0.1-0.3,0.2-0.4c0,0.1-0.1,0.1-0.2,0
	c0,0,0-0.1,0-0.1c-0.4-0.2-0.1,0.4-0.4,0.5c0-0.2-0.2-0.3-0.2-0.3c0.1,0,0.1,0.3,0,0.4c-0.3-0.1-0.2,0.2-0.3,0.2l0.1,0
	c0,0.2-0.1,0.2-0.3,0.3c0-0.1,0.1-0.1,0-0.2c-0.1,0.3-0.5-0.2-0.7,0c-0.1-0.1-0.1-0.3-0.2-0.4c-0.2,0.3-0.4-0.2-0.6,0.1
	c0.1,0.2,0.1,0.2,0,0.4l0.4-0.3l-0.2,0.4c0.1,0,0.3-0.2,0.4-0.2c-0.1,0.2-0.1,0.2,0,0.3c-0.3-0.3-0.3,0.3-0.6,0.1l-0.1-0.6
	c-0.4-0.2-0.5,0.4-1,0.4l0.2,0.1c0,0.2-0.3,0.1-0.4,0.2c0-0.2-0.1-0.2-0.2-0.3c0,0.1-0.3,0.1-0.3,0.5l-0.3-0.2
	c-0.4,0-0.3,0.6-0.6,0.7c0-0.2-0.1-0.3,0-0.5c-0.1,0-0.2,0-0.2,0.1c-0.1-0.1-0.2,0.3-0.4,0.2c0,0.1,0,0.3-0.1,0.3c0,0,0-0.1,0-0.1
	c0,0.1-0.2,0.2,0,0.4c-0.5-0.5-1,0.3-1.4-0.2c-0.2,0.1-0.5,0.3-0.7,0.3c0-0.1,0-0.1,0-0.1c-0.4-0.1,0,0.6-0.4,0.5
	c-0.3-0.3,0.1-0.2,0-0.3c-0.2-0.6-0.4,0.2-0.7-0.1l0-0.1c-0.2-0.2-0.4,0.3-0.7,0.4c0,0,0-0.1,0-0.1c-0.1,0.4-0.5,0.6-0.7,0.7
	c0-0.3,0.1-0.2,0-0.4c-0.1,0.1,0.1,0.4-0.1,0.5c-0.1-0.1-0.3-0.2-0.4-0.4l0.2-0.1c-0.2-0.3-0.3,0.1-0.4,0.1l0-0.2
	c-0.4,0.1-0.3,0.5-0.7,0.6l0.1,0.1c-0.1,0.4-0.2-0.2-0.4,0.2l-0.2-0.4c-0.1,0.1-0.4,0.5-0.6,0.6c0.1-0.3,0.3-0.5,0.5-0.8
	c-0.1,0-0.5,0.1-0.5,0.4c0-0.1,0.1-0.2,0.2-0.1c-0.1,0.3-0.3,0.5-0.6,0.6c-0.1-0.7-0.8,0-1.1-0.6c-0.4,0.4-0.9,0-1.4,0.1
	c0.2,0.6-0.1,0-0.1,0.6c-0.1,0-0.2,0-0.2,0c0,0,0,0,0,0l0,0c-0.1-0.1-0.2-0.3-0.3-0.4c0-0.2,0.1-0.1,0.1-0.3c-0.2-0.1,0-0.3-0.1-0.5
	c0,0.2-0.1,0.3-0.2,0.2c0,0.1,0,0.2,0.1,0.3c-0.4,0.2-0.1-0.5-0.4-0.3c0.1,0,0.1-0.1,0.1-0.1c-0.2,0.1-0.2-0.1-0.7,0.1
	c0-0.1,0.2-0.2,0.2-0.2c0-0.1-0.2-0.1-0.4-0.3c-0.1-0.1-0.3-0.3-0.1-0.5l0.2,0c0-0.1-0.3-0.1-0.1-0.2c0.1,0,0.1,0,0.2,0
	c-0.1,0-0.3-0.2-0.2-0.3l0.2,0.1c0.2-0.4-0.3-0.7-0.4-1.1c0.4,0.1,0.7-0.2,0.8-0.4l0.1,0c0.2-0.6-0.1-1.1-0.2-1.6
	c0.5-0.2,0.5-1.1,0.9-1.5c-0.1,0.1-0.3-0.1-0.3-0.2c0.1-0.1-0.2-0.4,0.2-0.3l0,0c0.4,0,0.4-0.3,0.4-0.5l-0.5-0.2
	c0.9-0.3,0.1-1.4,0.8-1.6c-0.1-0.2-0.1-0.3-0.2-0.5l0.3,0.1c0.2-0.3,0.2-0.5,0.3-0.9l0.2,0.1c0.1-0.2-0.7-0.5-0.7-0.7l0.4,0
	c0.1-0.4,0.6-0.8,0.3-1.3c0.1,0,0.2,0.1,0.2,0.1c0.1-0.2,0.5-0.7-0.1-0.8c0.4,0.1,0.1-0.4,0-0.7l0.3,0.1c-0.3-0.3-0.4-0.3-0.4-0.6
	c0.1-0.1,0.2,0,0.1,0.1c0.2-0.2-0.2-0.2,0-0.5l0.1,0.1c0.1-0.2,0-0.2-0.2-0.4c-0.1-0.2,0.2-0.4,0.4-0.4c-0.1-0.1-0.3-0.2-0.2-0.3
	c0.1,0,0.1,0.1,0.2,0.1c0.3-0.3-0.2-0.6,0.1-0.8c0.1,0,0.1,0,0.2,0c-0.1,0.3-0.2,0.5-0.2,0.5c0.2,0.1,0.4-0.2,0.6,0.1
	c-0.1-0.2-0.5-0.7-0.3-0.9c0,0,0.1,0,0.1,0l0,0c0,0,0-0.1,0-0.2c0.1-0.1,0.1-0.1,0.1-0.2c0.2,0,0.2-0.2,0.2-0.4
	c-0.3-0.1-0.2-0.2-0.5-0.1c0,0,0,0,0,0.1c0,0,0,0,0,0.1l0,0c0,0.1,0,0.2-0.1,0.3c-0.1-0.1-0.2-0.3,0-0.3c-0.2-0.1-0.3-0.2-0.4-0.3
	c0.4-0.1,0.7-0.3,0.9-0.3c-0.1-0.4,0.1-0.9-0.4-1.2c0-0.1,0.2-0.1,0.3-0.1c0,0.1,0,0.1,0.1,0.2c-0.1-0.2,0.1-0.6-0.2-0.8
	c0.2-0.2,0.3,0.2,0.3-0.1l0.1,0.1c0.7-0.6-0.6-1.4,0.3-2c-0.1,0-0.1,0.1-0.1,0.1c0.5-0.8,0.1-1.9,0.9-2.6c0.2-0.2-0.1-0.3-0.2-0.5
	l0.3,0L13.1,87c-0.2-0.4,0.9-0.5,0.5-1l-0.2,0c0.1-0.2,0-0.6,0.2-0.5c0,0-0.2-0.1-0.1-0.1l0.2,0l-0.2-0.5c0.2-0.3,0.6,0.2,0.7-0.3
	c0-0.2-0.3-0.6-0.4-0.6c0,0.1-0.1,0.2-0.3,0.1l0-0.2c-0.4-0.1-0.9-0.4-1.3-0.1l0.2,0.3l-0.2,0l0-0.2c-0.2,0.1-0.1,0.2,0,0.3
	c-0.1,0-0.2,0-0.3,0.1l0.4,0.4c-0.2,0-0.3-0.2-0.5-0.1c0.2,0.2,0.4,0,0.5,0.2c-0.2,0.1-0.4,0-0.3,0.2c-0.1,0-0.2-0.1-0.2-0.1
	c0.1,0.2,0,0.4,0.2,0.5c-0.3,0.1,0,0.5-0.5,0.4c0.1,0.1,0.3,0.3,0.3,0.4c-0.5-0.4-0.1,0.5-0.7,0.3c0.4,0.3,0.1,0.7,0.2,1
	c0,0-0.1-0.1-0.1-0.1c-0.1,0.2-0.2,0.2-0.3,0.3c0.4,0.1,0.4,0.4,0.6,0.6c-0.4,0.1-0.4-0.2-0.8-0.3c0.3,0.1,0.2,0.4,0.5,0.4
	c-0.3,0.1-0.1,0.1-0.5,0.1c0.5,0.1,0,0.2,0.3,0.4c-0.3,0.2-0.5-0.1-0.4,0.2c-0.2,0.1-0.3-0.2-0.3-0.2c-0.1,0.3,0.3,0.2,0.5,0.3
	c0,0.3-0.3,0.1-0.5,0.1c0,0.2,0.3,0.4,0.3,0.6c-0.1,0-0.1,0-0.2,0c0.2,0.3-0.1,0.6,0.2,0.9c0,0-0.1,0-0.1,0c0.2,0,0.4,0,0.5,0.1
	c0,0.1,0.2,0.3-0.1,0.3c0-0.1-0.1-0.1-0.1-0.1l0.1,0.1c-0.4,0-0.1-0.2-0.3-0.3c0.1,0.3,0.3,0.6,0.1,0.7c-0.3,0,0-0.4-0.4-0.3
	l0.2-0.2c-0.6,0.1,0.1-0.2-0.5-0.1c-0.2,0.3,0.1,0.4-0.1,0.8c0.2,0.1,0.3,0,0.4,0.2c0.2,0.6-0.9,0.2-0.6,0.7
	c0.2,0.2,0.6,0.3,0.3,0.5l-0.4-0.2c-0.1,0.3,0.5,0.3,0.1,0.6c-0.1-0.1-0.1-0.3-0.1-0.3c-0.4,0.2,0.2,0.2,0.1,0.4l-0.3,0
	c0,0.4,0.1,0.9,0.1,1.3c-0.1,0-0.2-0.1-0.3-0.1c0,0.6-0.3,1.1-0.6,1.6l0.2,0.3c0,0-0.1,0.1-0.2,0c-0.2,0.2,0.2,0.1,0.3,0.2
	c0,0.1-0.2,0.1-0.3,0c0.2,0.4,0.3,1.1-0.1,1.4l-0.1-0.1c-0.2,0.3,0.5,0.5,0.2,0.7l0-0.1c-0.3,0.6-0.2,1.3-0.7,1.7
	c0.4,0.2-0.3,0.6,0.2,0.7c-0.4,0.3-0.4,0.2-0.8,0.6c-0.1,0.1,0.3,0.3,0.3,0.5l-0.3-0.1l0.3,0.3l-0.4,0l0,0.2c0-0.1,0.2-0.1,0.3-0.1
	c0.1,0.3-0.4,0.5-0.5,0.5l0.1,0.6c-0.1,0-0.1-0.1-0.2-0.2c0.2,0.4-0.3,0-0.1,0.3c0.1,0,0.2,0.1,0.2,0.1c-0.2,0.1-0.3,0.4-0.3,0.7
	l-0.2-0.1c-0.2,0.4-0.1,0.9-0.2,1.4c0.1-0.1,0.5,0,0.5,0.1l-0.3,0c0.2,0.1,0.2-0.1,0.3,0.1c-0.1,0.2-0.4,0-0.5-0.1l0.1,0.2
	c-0.1,0-0.1-0.1-0.3-0.1c0.2,0.1-0.4,0.3-0.1,0.5l-0.1,0c-0.1,0.5-0.1,0.7-0.1,1.1c0.3,0.1,0.2,0.2,0.4,0.4c-0.2,0.3-0.5,0.6-0.5,1
	c0.1,0.3,0.2,0.1,0.4,0.3c-0.3,0-0.3,0.4-0.4,0.2c0,0.5,0,0.7,0.3,1.3c0.1-0.1,0.1-0.2,0.2-0.1c0.1,0.1-0.1,0.3-0.2,0.3l0,0
	c0.2,0.3,0.2,0.8,0.3,1.3c0.1,0.5,0.4,1,0.8,1l0,0c0.3,0.1,0.5,0.1,0.7,0.1c0.3,0.2-0.3,0.1-0.1,0.3c0.4,0,0.7,0.1,0.9,0.2
	c0.2,0.1,0.5,0.2,0.8,0.1c0.2,0.4,0.6,0.4,0.9,0.3c0.4-0.1,0.7-0.2,1,0l-0.1-0.2c0.1-0.2,0.2,0.1,0.3,0.1c0-0.1-0.2-0.1-0.1-0.2
	c1.1-0.4,2.1-0.2,3.2-0.3c0.4,0,0-0.9,0.5-0.6l0,0.4c0.6-0.6,1.5-0.4,2.1-0.9c0,0.1,0,0.2-0.1,0.2c0.2,0.2,0.6-0.1,0.5-0.3
	c0.1,0,0.1,0.2,0.2,0.2c0.2,0.1,0.3-0.4,0.4-0.2c0,0,0,0.1,0,0.1c0.1-0.1,0.5-0.1,0.3-0.3c0.3,0.1,0.5-0.2,0.7-0.1
	c0.1-0.3,0.5,0,0.4-0.4c0.1,0.4,0.6,0.2,0.7,0c0,0.1,0.2,0.1,0.2,0.3c0.2-0.1,0.4-0.2,0.3-0.4c0.5,0.4,0.6-0.6,1,0
	c0.5-0.4,1-0.7,1.5-0.9c0.1,0.4-0.6,0.2-0.4,0.6c0.4-0.3,0.6-0.8,1.2-0.8c0.1,0,0,0.2,0,0.3c0.4-0.3,1-0.2,1.3-0.5
	c0,0,0,0.1-0.1,0.1c0.1,0,0.2,0,0.2-0.2l-0.1,0.1c-0.2-0.3,0.2-0.7,0.2-0.8c0,0.6,0.5,0,0.4,0.8c0-0.1,0.1-0.2,0-0.3
	c0.1,0,0.1,0.1,0.1,0.3c0.3-0.2,0.1-0.4,0.4-0.4c0,0.1,0,0.1,0,0.3c0.1-0.2,0.2-0.4,0.4-0.4c0,0.1,0,0.1,0,0.1
	c0.4-0.1,0.6-0.7,1.1-0.6c0,0.5,0.2,0.1,0.3,0.5l0.2-0.2l-0.1-0.2c0.2,0,0.3-0.4,0.5-0.3l-0.1,0.2l0.4-0.2l-0.3-0.1
	c0.2-0.2-0.1-0.5,0.2-0.4c0,0.1,0.2,0,0.4,0.1l0,0c0.1-0.1,0.2-0.3,0.3-0.2c0.1,0.1,0.1,0.4,0.1,0.5c0-0.3,0.5-0.2,0.5-0.6
	c0,0.1,0,0.3,0,0.3l0-0.3c0.1,0.1,0.1,0.1,0.2,0.2c0.3,0-0.2-0.4,0.2-0.3c0,0,0,0.1,0,0.1c0.4,0,0.6-0.3,1-0.3
	c0.2,0.3-0.3,0.2-0.1,0.4c0.4-0.2,0.8-0.7,1.3-0.7l-0.1,0c-0.1-0.5,0.4,0.2,0.6-0.1c0,0.1,0,0.3,0,0.2c0.3,0,0.6-0.3,1-0.6l0,0.1
	c0.2,0.1,0.5-0.1,0.7,0c0-0.1,0.1-0.2,0-0.3c0.8,0.6,1-0.7,1.7-0.2c-0.1,0-0.1,0.2-0.1,0.1l0.4-0.2c-0.1-0.2-0.1-0.1-0.2-0.3
	c0-0.1,0.1-0.3,0.2-0.3c-0.2,0.2,0.1,0.4,0.2,0.5c0-0.1,0-0.1,0-0.2c0.3,0.3-0.1-0.5,0.3-0.3l0,0.1c0.1-0.1,0.2-0.3,0.3-0.3
	c0.1,0.2-0.1,0.2-0.1,0.4c0.2-0.1,0.2-0.6,0.5-0.4c-0.1,0.1-0.2,0.1-0.2,0.2c0.3,0.3,0.3,0.2,0.4,0.2l0,0l0.3,0.1l-0.1-0.1
	c0.1-0.7,0.4-0.2,0.6-0.8c-0.2,0.5,0,0.3,0.1,0.6c0.1,0.1,0.2,0.1,0.2,0.2c0.1-0.3,0.3,0.1,0.4-0.3c0,0.1,0.2,0,0.2,0.2
	c0.2-0.1-0.1-0.2-0.1-0.3c0.2-0.4,0.8,0.2,1.1-0.3c0.3-0.3,0.3-0.6,0.6-0.9c0.2,0.1,0,0.4,0,0.4c0.2,0.1,0.4,0,0.5-0.1
	c0,0.1,0,0.2,0.1,0.2c0.1-0.1,0-0.4,0.2-0.3c0,0.1,0,0.3,0,0.4c0.1-0.1,0.3-0.3,0.4-0.5c0.1,0.2,0,0.3-0.1,0.4
	c0.2-0.1,0.5-0.3,0.4-0.5L43.7,105.2z M11.9,95.1C11.9,95.2,11.9,95.2,11.9,95.1C11.8,95.2,11.8,95.1,11.9,95.1L11.8,95
	C11.8,95.1,11.9,95.1,11.9,95.1z M9.9,95.1c0,0,0,0.1,0,0.1l0,0C9.9,95.1,9.9,95.1,9.9,95.1z M9.8,95.5c0.1,0,0.2,0,0.2,0.1
	c-0.1,0-0.1,0.1-0.2,0.1C9.8,95.6,9.8,95.6,9.8,95.5z M11.6,94.9C11.6,94.9,11.6,94.9,11.6,94.9C11.5,94.9,11.5,94.9,11.6,94.9
	L11.6,94.9L11.6,94.9z M13.7,111.6c0.1,0,0.3,0.1,0.3,0C13.9,111.5,13.8,111.4,13.7,111.6z M13.5,84L13.5,84l0.2,0.1L13.5,84z
	 M17.7,103.4L17.7,103.4C17.6,103.5,17.6,103.5,17.7,103.4L17.7,103.4z M18.9,110.1l0.1,0.3C19.1,110.3,19,109.9,18.9,110.1z
	 M17.5,103.8l0.1-0.2C17.5,103.6,17.5,103.7,17.5,103.8z M17.5,104.4c0.1,0,0.1,0.1,0.1,0.2c0-0.2,0-0.6-0.3-0.7
	c0.1,0.4,0,0.3,0.1,0.7c-0.1,0.1-0.3,0.1-0.3,0c0,0.1-0.2,0.1-0.1,0.3C17.3,104.9,17.5,104.7,17.5,104.4z M30.2,89.8l0.2,0.2
	C30.4,89.7,30.3,89.9,30.2,89.8z M22.2,100.5c-0.1,0.1-0.3,0.2-0.4,0.3c0.1,0,0.3,0,0.2,0.2C22.7,100.8,21.8,101,22.2,100.5z
	 M16.7,105l-0.1-0.3l-0.1,0.2C16.5,105,16.6,105.1,16.7,105z M28.1,92.7l0.2-0.2C28.3,92.5,28.2,92.6,28.1,92.7z M23.4,99.4
	c-0.1,0.2,0.1,0.1,0.2,0.1C23.6,99.3,23.6,99.3,23.4,99.4z M29.6,109c-0.1,0-0.1,0-0.2,0C29.4,109.1,29.5,109.1,29.6,109z
	 M39.8,106.7c0-0.1,0-0.1,0-0.1l0,0L39.8,106.7z M20.8,112.1L20.8,112.1L20.8,112.1L20.8,112.1z M29.7,108.9c0,0.1-0.1,0.1-0.1,0.2
	C29.6,109.1,29.7,109,29.7,108.9z M25.5,110.6C25.5,110.6,25.5,110.6,25.5,110.6C25.4,110.7,25.5,110.7,25.5,110.6z M31.7,108.8
	l0-0.2l-0.2,0.1L31.7,108.8z M42.9,105.9L42.9,105.9c0-0.1,0-0.1,0-0.1C43,105.9,42.9,105.9,42.9,105.9z M42.2,106.1
	c0.1,0,0.3,0.2,0.4,0.1l0-0.1C42.6,106.2,42.3,105.9,42.2,106.1z M10.5,91c0.1,0,0.2,0,0.3,0C10.5,91,10.5,90.7,10.5,91z M43,106
	c0,0,0-0.1,0.1-0.1C43,105.9,43,105.9,43,106L43,106z"/>
</svg>
