<?xml version="1.0" encoding="utf-8"?>
<!-- Generator: Adobe Illustrator 27.0.1, SVG Export Plug-In . SVG Version: 6.00 Build 0)  -->
<svg version="1.1" id="Capa_1" xmlns="http://www.w3.org/2000/svg" xmlns:xlink="http://www.w3.org/1999/xlink" x="0px" y="0px"
	 viewBox="0 0 305 110" style="enable-background:new 0 0 305 110;" xml:space="preserve">
<style type="text/css">
	.st0{fill:#B7B7B7;}
</style>
<path class="st0" d="M233.6,29.1c0.8,0,1-0.6,1-1.2c0-0.4,0-0.8,0-1.3c0-0.2,0-0.4,0.1-0.7c0.1-0.1,0-0.2,0.2-0.2
	c2.5-0.8,4.2-2.5,4.2-5.2c0-1.4-0.3-3.1-1.5-3.9c-0.3-0.2-1.2-0.6-1.6-0.6c-0.3,0-0.5,0-0.8,0c-0.3,0-0.6-0.1-0.6-0.4
	c0-0.2,0.1-0.4,0.1-0.5c0-0.4-0.6-0.6-0.9-0.6c-0.3,0-0.6,0.1-0.6,0.4c-0.1,0.6-0.1,1.3-0.2,1.9c-0.1,2.2,0.2,4.4,0.1,6.6
	c0,0.2,0,0.3,0,0.5c0,0.2-0.1,0.4-0.1,0.6l0,0.5c0,0.8-0.2,1.6-0.2,2.4c0,0.5,0,1,0.1,1.5C233.1,29,233.3,29.1,233.6,29.1z
	 M234.7,17.5c0.2-0.1,0.4-0.1,0.6-0.1c0.8,0,1.8,0.8,2,1.5c0.2,0.5,0.3,1.1,0.2,1.6c0,0.3-0.3,1.5-0.4,1.7c-0.1,0.3-0.5,0.8-0.7,1
	c-0.1,0.1-0.2,0.2-0.3,0.2c-0.3,0.3-0.6,0.7-1.1,0.7c-0.3,0-0.4-0.1-0.4-0.5c0-0.2,0.1-0.4,0.1-0.7c0.1-1.6-0.1-3.3-0.1-4.9
	L234.7,17.5z M63.9,20.8c0-0.1,0.1-0.2,0.2-0.2c0.1,0,0.2,0.2,0.4,0.2c0.1,0,0.7-0.4,0.7-0.5c0.2-0.8,0.3-1.7,0.4-2.5
	c0.2-2,0.4-4,0.4-5.9c0-1.2,0.1-2.3,0-3.5c0-0.5,0-1.1,0-1.7c0-0.4-0.3-0.5-0.7-0.5c-0.4,0-0.9,0.1-1,0.5C64.1,7.5,64,8.6,64,9.4
	c0,0.6,0,1.2,0,1.8c0,0.3,0,0.6-0.1,1c-0.2,2.1-0.5,4.3-0.5,6.4c0,0.5-0.1,1,0,1.5C63.4,20.2,63.8,20.6,63.9,20.8z M118.4,18.9
	c0.8,0,1.7-0.1,2.3-0.6c0.9-0.7,1.3-1.7,1.3-2.8c0-1.1-0.3-2.3-0.8-3.3c-0.4-0.8-1.6-1-2.5-1c-0.9,0-2,0.1-2.8,0.5
	c-0.7,0.3-1.2,0.9-1.4,1.7c-0.2,0.6-0.3,1.2-0.3,1.7c0,0.9,0.2,1.7,0.9,2.4C116.1,18.3,117.2,18.9,118.4,18.9z M116.8,13
	c0.2-0.4,0.6-0.4,1-0.4c0.3,0,0.6,0.1,0.9,0.1c0.8,0,1.1,0.6,1.3,1.3c0.1,0.6,0.3,1.2,0.2,1.8c0,0.9-0.4,1.7-1.4,1.7
	c-1.4,0-2.5-1.2-2.5-2.7C116.3,14.2,116.5,13.6,116.8,13z M128,34.6c0,0.5,0,0.9,0,1.4c0,0.3,0,0.5-0.1,0.8c-0.1,0.2,0,0.2-0.2,0.3
	c-2.8,0.9-4.7,2.8-4.8,5.8c0,1.5,0.3,3.5,1.7,4.3c0.3,0.2,1.4,0.7,1.8,0.7c0.3,0,0.6-0.1,0.8,0c0.3,0,0.7,0.1,0.7,0.5
	c0,0.2-0.1,0.4-0.1,0.6c0,0.5,0.6,0.6,1,0.6c0.3,0,0.6-0.1,0.7-0.4c0.1-0.7,0.2-1.4,0.2-2.1c0.1-2.5-0.2-4.9-0.2-7.3
	c0-0.2,0-0.4,0-0.5c0-0.2,0.1-0.4,0.1-0.7c0-0.2,0-0.3,0-0.5c0-0.9,0.2-1.8,0.2-2.7c0-0.5,0-1.1-0.1-1.6c-0.1-0.3-0.4-0.4-0.7-0.5
	C128.2,33.2,128,33.9,128,34.6z M127.9,46.2c-0.2,0.1-0.4,0.1-0.6,0.1c-0.9,0-1.9-0.9-2.3-1.7c-0.2-0.5-0.3-1.2-0.3-1.8
	c0-0.3,0.4-1.7,0.5-1.9c0.1-0.3,0.5-0.9,0.7-1.1c0.1-0.1,0.2-0.2,0.3-0.3c0.3-0.3,0.7-0.8,1.2-0.8c0.4,0,0.4,0.2,0.4,0.5
	c0,0.3-0.1,0.5-0.1,0.8c-0.1,1.8,0.2,3.7,0.1,5.5C127.9,45.7,127.9,46,127.9,46.2z M226,24.2c0.7,0.3,1.5,0.8,2.3,0.8
	c0.2,0,0.4,0,0.6-0.1c1.2-0.2,2.2-1,2.7-2.1c0.2-0.4,0.3-0.9,0.3-1.4c0-0.1,0-0.2,0-0.3c0-0.1,0.2-0.1,0.2-0.2c0-0.2,0-0.3,0-0.5
	c0-0.6,0.1-1.3,0.1-1.9c0-0.5,0-0.9-0.1-1.3c-0.1-0.9-0.1-2.8-1.3-2.8c-0.4,0-1,0.2-1,0.7c0,0.1,0,0.2,0,0.3
	c0.5,1.3,0.7,2.6,0.7,3.9c0,1-0.4,4-1.6,4.3c-0.1,0-0.3,0.1-0.4,0.1c-0.5,0-1.2-0.3-1.4-0.9c-0.4-1.1-0.4-2.3-0.4-3.4
	c0-1,0.2-2,0.2-3.1c0-0.3,0.1-0.7,0.1-1c0-0.4-0.3-0.8-0.8-0.8c-1.1,0-1,1.4-1.1,2.1c0,0.6,0,1.3,0,1.9c0,0.8-0.1,1.5-0.1,2.3
	c0,0.9,0,1.9,0.2,2.8C225.3,24,225.6,24,226,24.2z M71,17.4c0.8,0,1.7-0.1,2.3-0.6c0.9-0.7,1.3-1.7,1.3-2.8c0-1.1-0.3-2.3-0.8-3.3
	c-0.4-0.8-1.6-1-2.5-1c-0.9,0-2,0.1-2.8,0.5c-0.7,0.3-1.2,0.9-1.4,1.7c-0.2,0.6-0.3,1.2-0.3,1.7c0,0.9,0.2,1.7,0.9,2.4
	C68.6,16.8,69.8,17.4,71,17.4z M69.3,11.5c0.2-0.4,0.6-0.4,1-0.4c0.3,0,0.6,0.1,0.9,0.1c0.8,0,1.1,0.6,1.3,1.3
	c0.1,0.6,0.3,1.2,0.2,1.8c0,0.9-0.4,1.7-1.4,1.7c-1.4,0-2.5-1.2-2.5-2.7C68.8,12.7,69,12,69.3,11.5z M281.7,24.1
	c0.8,0,1.7-0.1,2.3-0.6c0.9-0.7,1.3-1.7,1.3-2.8c0-1.1-0.3-2.3-0.8-3.3c-0.4-0.8-1.6-1-2.5-1c-0.9,0-2,0.1-2.8,0.5
	c-0.7,0.3-1.2,0.9-1.4,1.7c-0.2,0.6-0.3,1.2-0.3,1.7c0,0.9,0.2,1.7,0.9,2.4C279.4,23.5,280.5,24.1,281.7,24.1z M280,18.2
	c0.2-0.4,0.6-0.4,1-0.4c0.3,0,0.6,0.1,0.9,0.1c0.8,0,1.1,0.6,1.3,1.3c0.1,0.6,0.3,1.2,0.2,1.8c0,0.9-0.4,1.7-1.4,1.7
	c-1.4,0-2.5-1.2-2.5-2.7C279.6,19.4,279.7,18.8,280,18.2z M218.4,73.8c0,0.3,0.1,0.5,0.1,0.8c0.1,0.5,0.4,0.7,0.8,0.8
	c0.2,0.1,0.2,0.1,0.2,0.3c0,1.1-1.7,0.7-1.8,1.8c0,0.5,0.6,0.7,1.1,0.7c1,0,1.7-0.9,2.4-1.5c0.3-0.3,0.3-1.2,0.4-1.6
	c0.1-0.5,0.6-0.8,0.6-1.3c0-0.8-0.9-1.8-1.6-2.1c-0.1,0-0.2-0.1-0.2-0.1c-0.5,0-0.9,0.4-1.2,0.8c-0.1,0.2-0.2,0.5-0.4,0.7
	C218.5,73.3,218.4,73.5,218.4,73.8z M124.4,22.1c0.3,0.2,1.4,0.7,1.8,0.7c0.3,0,0.6-0.1,0.8,0c0.3,0,0.7,0.1,0.7,0.5
	c0,0.2-0.1,0.4-0.1,0.6c0,0.5,0.6,0.6,1,0.6c0.3,0,0.6-0.1,0.7-0.4c0.1-0.7,0.2-1.4,0.2-2.1c0.1-2.5-0.2-4.9-0.2-7.3
	c0-0.2,0-0.4,0-0.5c0-0.2,0.1-0.4,0.1-0.7c0-0.2,0-0.3,0-0.5c0-0.9,0.2-1.8,0.2-2.7c0-0.5,0-1.1-0.1-1.6c-0.1-0.3-0.4-0.4-0.7-0.5
	c-0.9,0-1.1,0.6-1.1,1.4c0,0.5,0,0.9,0,1.4c0,0.3,0,0.5-0.1,0.7c-0.1,0.2,0,0.2-0.2,0.3c-2.8,0.9-4.7,2.8-4.8,5.8
	C122.6,19.3,123,21.2,124.4,22.1z M124.9,15.9c0.1-0.3,0.5-0.9,0.7-1.1c0.1-0.1,0.2-0.2,0.3-0.3c0.3-0.3,0.7-0.8,1.2-0.8
	c0.4,0,0.4,0.2,0.4,0.5c0,0.3-0.1,0.5-0.1,0.8c-0.1,1.8,0.2,3.7,0.1,5.5c0,0.2,0,0.5,0,0.7c-0.2,0.1-0.4,0.1-0.6,0.1
	c-0.9,0-1.9-0.9-2.2-1.7c-0.2-0.5-0.3-1.2-0.3-1.8C124.5,17.5,124.8,16.1,124.9,15.9z M47.2,35.9c0,0.6,0,1.3,0,1.9
	c0,0.8-0.1,1.5-0.1,2.3c0,0.9,0,1.9,0.2,2.8c0.1,0.4,0.3,0.5,0.7,0.7c0.7,0.3,1.5,0.8,2.3,0.8c0.2,0,0.4,0,0.6-0.1
	c1.2-0.2,2.2-1,2.7-2.1c0.2-0.4,0.3-0.9,0.3-1.4c0-0.1,0-0.2,0-0.3c0-0.1,0.2-0.1,0.2-0.2c0-0.2,0-0.3,0-0.5c0-0.6,0.1-1.3,0.1-1.9
	c0-0.5,0-0.9-0.1-1.3c-0.1-0.9-0.1-2.8-1.3-2.8c-0.4,0-1,0.2-1,0.7c0,0.1,0,0.2,0,0.3c0.5,1.3,0.7,2.6,0.7,3.9c0,1-0.4,4-1.6,4.3
	c-0.1,0-0.3,0.1-0.4,0.1c-0.5,0-1.2-0.3-1.4-0.9c-0.4-1.1-0.4-2.3-0.4-3.4c0-1,0.2-2,0.2-3.1c0-0.3,0.1-0.7,0.1-1
	c0-0.4-0.3-0.8-0.8-0.8C47.2,33.7,47.2,35.2,47.2,35.9z M99.6,42.6c-0.1,0.3-0.3,0.7-0.3,1.1c0,0.3,0.1,0.5,0.1,0.8
	c0,0.2,0,0.4,0.1,0.6c0.1,0.3,0.3,0.6,0.4,0.9c0.4,0.7,1.3,1.3,2.1,1.3c0.1,0,0.3,0,0.4,0c1.6-0.2,3-1.1,3-2.8c0-1.1-0.5-2.3-1.3-3
	c-0.2-0.1-0.3-0.3-0.5-0.4l-0.1,0c-0.2,0-0.4,0.1-0.6,0.1c-0.2,0-0.5-0.1-0.5-0.4c0-0.2,0.2-0.3,0.4-0.4c0.7-0.2,1.5-0.6,1.9-1.3
	c0.1-0.3,0.4-0.7,0.4-1.1l0-0.2l-0.1-0.5c-0.3-0.6-0.9-0.9-0.9-1.6c0-0.9,1-1.8,1-2.3c0-0.3-0.2-0.5-0.4-0.5c-0.4,0-0.9,0-1.2,0.3
	c-0.5,0.6-0.4,1.7-1.2,2.2c-0.4,0.2-1,0-1.4,0.4c0,0.1-0.1,0.2-0.1,0.3c-0.5,0.5-1.8,1.2-1.8,1.9c0,0.4,0.2,0.8,0.4,1.1
	c0.1,0.2,0.1,0.4,0.3,0.5c0.1,0.1,0.2,0.2,0.4,0.3c0.5,0.4,0.7,1,0.9,1.7C100.5,41.7,99.9,42.1,99.6,42.6z M102.4,42.4
	c0.1,0,0.2,0,0.3,0.1c0.7,0.3,1,1.2,1,1.9c0,0.3-0.2,0.8-0.4,1.1c-0.2,0.2-0.7,0.5-1,0.5c-0.1,0-0.1,0-0.2-0.1
	c-0.7-0.3-0.9-1.1-0.9-1.8c0-0.2,0-0.4,0.1-0.5C101.4,42.9,101.9,42.3,102.4,42.4z M100.8,38c0-0.8,1-0.9,1.6-0.8
	c0.1,0,0.2-0.2,0.4-0.1c0.2,0,0.5,0.4,0.5,0.5c0,0.1,0,0.1,0,0.2c0,0.6-0.5,1.5-1.1,1.4C101.6,39.2,100.8,38.6,100.8,38z
	 M260.2,23.4c0.8,0,1.7-0.1,2.3-0.6c0.9-0.7,1.3-1.7,1.3-2.8c0-1.1-0.3-2.3-0.8-3.3c-0.4-0.8-1.6-1-2.5-1c-0.9,0-2,0.1-2.8,0.5
	c-0.7,0.3-1.2,0.9-1.4,1.7c-0.2,0.6-0.3,1.2-0.3,1.7c0,0.9,0.2,1.7,0.9,2.4C257.9,22.8,259,23.4,260.2,23.4z M258.5,17.6
	c0.2-0.4,0.6-0.4,1-0.4c0.3,0,0.6,0.1,0.9,0.1c0.8,0,1.1,0.6,1.3,1.3c0.1,0.6,0.3,1.2,0.2,1.8c0,0.9-0.4,1.7-1.4,1.7
	c-1.4,0-2.5-1.2-2.5-2.7C258.1,18.7,258.2,18.1,258.5,17.6z M99.3,14.4c0.1,0.1,0.2,0.2,0.4,0.3c0.5,0.4,0.7,1,0.9,1.7
	c-0.5,0.3-1,0.7-1.3,1.3c-0.1,0.3-0.3,0.7-0.3,1.1c0,0.3,0.1,0.5,0.1,0.8c0,0.2,0,0.4,0.1,0.6c0.1,0.3,0.3,0.6,0.4,0.9
	c0.4,0.7,1.3,1.3,2.1,1.3c0.1,0,0.3,0,0.4,0c1.6-0.2,3-1.1,3-2.8c0-1.1-0.5-2.3-1.3-3c-0.2-0.1-0.3-0.3-0.5-0.4l-0.1,0
	c-0.2,0-0.4,0.1-0.6,0.1c-0.2,0-0.5-0.1-0.5-0.4c0-0.2,0.2-0.3,0.4-0.4c0.7-0.2,1.5-0.6,1.9-1.3c0.1-0.3,0.4-0.7,0.4-1.1l0-0.2
	l-0.1-0.5c-0.3-0.6-0.9-0.9-0.9-1.6c0-0.9,1-1.8,1-2.3c0-0.3-0.2-0.5-0.4-0.5c-0.4,0-0.9,0-1.2,0.3c-0.5,0.6-0.4,1.7-1.2,2.2
	c-0.4,0.2-1,0-1.4,0.4c0,0.1-0.1,0.2-0.1,0.3c-0.5,0.5-1.8,1.2-1.8,1.9c0,0.4,0.2,0.8,0.4,1.1C99.1,14,99.2,14.3,99.3,14.4z
	 M102.2,17.3c0.1,0,0.2,0,0.3,0.1c0.7,0.3,1,1.2,1,1.9c0,0.3-0.2,0.8-0.4,1.1c-0.2,0.2-0.7,0.5-1,0.5c-0.1,0-0.1,0-0.2-0.1
	c-0.7-0.3-0.9-1.1-0.9-1.8c0-0.2,0-0.4,0.1-0.5C101.1,17.9,101.6,17.3,102.2,17.3z M102.1,12.1c0.1,0,0.2-0.2,0.4-0.1
	c0.2,0,0.5,0.4,0.5,0.5c0,0.1,0,0.1,0,0.2c0,0.6-0.5,1.5-1.1,1.4c-0.5,0-1.3-0.6-1.3-1.2C100.6,12.2,101.6,12.1,102.1,12.1z
	 M84.6,17.5l0.7-0.1c0,0.8-0.3,1.6-0.3,2.5c0,0.4,0,0.8,0.2,1.1c0.1,0.3,0.6,0.5,0.9,0.5c0,0,0.1,0,0.1,0c0.7-0.6,0.8-1.7,0.8-2.6
	s0-1.9,0.5-2.7c0.2-0.4,0.6-0.6,0.9-0.8c1,1.2,1.4,2.8,2.2,4.1c0.1,0.2,0.3,0.4,0.4,0.6c0.1,0.1,0.3,0,0.4,0.2
	c0.2-0.3,0.7,0,0.8-0.3c0-0.2,0.1-0.3,0.1-0.5c0,0,0-0.1,0-0.1c-0.2-0.3-0.4-0.7-0.6-1c-0.3-0.6-0.7-1.2-1-1.9
	c-0.2-0.5-0.9-1.5-0.9-2c0-0.7,1.6-0.7,1.6-1.6c0-0.5-0.5-0.7-0.9-0.7c-0.8,0-3.1,2-3.2,2c-0.1,0-0.1-0.2-0.2-0.2c0-0.4,0-0.9,0-1.3
	c0-1.3,0.3-2.6,0.3-4c0-0.6,0.2-1.5-0.7-1.5c-0.4,0-0.9,0.2-1,0.6c-0.3,1-0.3,3.3-0.3,4.5c0,0.8,0.2,1.6,0.2,2.5
	c0,0.3-0.1,0.7-0.2,1c-0.3,0.5-1.5,0.6-1.5,1.3C83.7,17.3,84.1,17.5,84.6,17.5z M110,18.6c0.8,0,1.7-0.1,2.3-0.6
	c0.9-0.7,1.3-1.7,1.3-2.8c0-1.1-0.3-2.3-0.8-3.3c-0.4-0.8-1.6-1-2.5-1c-0.9,0-2,0.1-2.8,0.5c-0.7,0.3-1.2,0.9-1.4,1.7
	c-0.2,0.6-0.3,1.2-0.3,1.7c0,0.9,0.2,1.7,0.9,2.4C107.6,18,108.8,18.6,110,18.6z M108.3,12.8c0.2-0.4,0.6-0.4,1-0.4
	c0.3,0,0.6,0.1,0.9,0.1c0.8,0,1.1,0.6,1.3,1.3c0.1,0.6,0.3,1.2,0.2,1.8c0,0.9-0.4,1.7-1.4,1.7c-1.4,0-2.5-1.2-2.5-2.7
	C107.8,13.9,108,13.3,108.3,12.8z M246.8,20.7c0.8,0,1.5-0.4,2.3-0.3c0.1,0,0.2,0,0.3,0c0.1,0,0.3,0.2,0.3,0.3l-0.2,5.1
	c0,0.7,0.3,0.9,1,0.9c1.1,0,1.2-0.6,1.2-1.6c0-1-0.1-2,0-2.9c0-0.5,0.1-1.1,0.3-1.5c0.1,0,0.2,0,0.3,0c0.8,0,1.6,0.4,2.5,0.4
	c0.5,0,1.2-0.2,1.4-0.7c0,0,0-0.1,0-0.2c0-0.2-0.2-0.5-0.4-0.6c-0.8-0.4-1.8-0.4-2.7-0.5c-0.3,0-0.7,0-1-0.2
	c-0.1-0.1-0.3-0.2-0.3-0.4c0-0.8-0.1-1.6,0-2.4c0-0.4,0-0.8,0.1-1.3c0-0.6-0.2-1-0.8-1.1c-0.3,0-0.7,0.1-0.9,0.4
	c-0.2,0.2-0.2,0.4-0.2,0.6c0,0.1,0,0.3,0,0.4c0,0.4-0.1,0.9-0.1,1.3c0,0.6,0.3,1.2,0.3,1.5c0,0.1,0,0.4-0.1,0.4
	c-1.1,0.7-2.5,0-3.5,0.6c-0.3,0.2-0.5,0.5-0.5,0.9C245.7,20.4,246.3,20.7,246.8,20.7z M235.1,50.8c2.5-0.8,4.2-2.5,4.2-5.2
	c0-1.4-0.3-3.1-1.5-3.9c-0.3-0.2-1.2-0.6-1.6-0.6c-0.3,0-0.5,0-0.8,0c-0.3,0-0.6-0.1-0.6-0.4c0-0.2,0.1-0.4,0.1-0.5
	c0-0.4-0.6-0.6-0.9-0.6c-0.3,0-0.6,0.1-0.6,0.4c-0.1,0.6-0.1,1.3-0.2,1.9c-0.1,2.2,0.2,4.4,0.1,6.6c0,0.2,0,0.3,0,0.5
	c0,0.2-0.1,0.4-0.1,0.6l0,0.5c0,0.8-0.2,1.6-0.2,2.4c0,0.5,0,1,0.1,1.5c0.1,0.3,0.3,0.4,0.6,0.4c0.8,0,1-0.6,1-1.2
	c0-0.4,0-0.8,0-1.3c0-0.2,0-0.4,0.1-0.7C235,50.9,234.9,50.8,235.1,50.8z M234.9,43.2l0-0.6c0.2-0.1,0.4-0.1,0.6-0.1
	c0.8,0,1.8,0.8,2,1.5c0.2,0.5,0.3,1.1,0.2,1.6c0,0.3-0.3,1.5-0.4,1.7c-0.1,0.3-0.5,0.8-0.7,1c-0.1,0.1-0.2,0.2-0.3,0.2
	c-0.3,0.3-0.6,0.7-1.1,0.7c-0.3,0-0.4-0.1-0.4-0.5c0-0.2,0.1-0.4,0.1-0.7C235.1,46.5,234.9,44.8,234.9,43.2z M119.1,36.3
	c-0.9,0-2,0.1-2.8,0.5c-0.7,0.3-1.2,0.9-1.4,1.7c-0.2,0.6-0.3,1.2-0.3,1.7c0,0.9,0.2,1.7,0.9,2.4c0.9,0.8,2,1.4,3.2,1.5
	c0.8,0,1.7-0.1,2.3-0.6c0.9-0.7,1.3-1.7,1.3-2.8c0-1.1-0.3-2.3-0.8-3.3C121.2,36.4,120,36.3,119.1,36.3z M119,42.5
	c-1.4,0-2.5-1.2-2.5-2.7c0-0.6,0.2-1.2,0.5-1.8c0.2-0.4,0.6-0.4,1-0.4c0.3,0,0.6,0.1,0.9,0.1c0.8,0,1.1,0.6,1.3,1.3
	c0.1,0.6,0.3,1.2,0.2,1.8C120.4,41.7,120,42.5,119,42.5z M91.3,32.1c-0.4,0-0.8,0.1-1,0.5c-0.3,0.8-0.4,1.8-0.4,2.7
	c0,0.6,0,1.2,0,1.8c0,0.3,0,0.6-0.1,1c-0.2,2.1-0.5,4.3-0.5,6.4c0,0.5-0.1,1,0,1.5c0,0.2,0.5,0.6,0.6,0.8c0-0.1,0.1-0.2,0.2-0.2
	c0.1,0,0.2,0.2,0.4,0.2c0.1,0,0.7-0.4,0.7-0.5c0.2-0.8,0.3-1.7,0.4-2.5c0.2-2,0.4-4,0.4-5.9c0-1.2,0.1-2.3,0-3.5c0-0.5,0-1.1,0-1.7
	C91.9,32.2,91.6,32.1,91.3,32.1z M195,16.9c0-0.4-0.4-0.7-0.8-0.7c-0.3,0-0.2,0.1-0.4,0.1c-1,0.3-0.9,1.4-0.9,2.2c0,0.3,0,0.7-0.1,1
	c0,1.5,0.1,3,0.1,4.5c0,0.3,0,0.5,0.3,0.7c0.2,0.1,0.5,0.2,0.7,0.2c0.4,0,0.7-0.2,0.8-0.7c0-0.2,0-0.4,0-0.6c0.1-1.7-0.2-3.3-0.1-5
	c0-0.4,0-0.8,0.1-1.1C194.8,17.3,194.9,17.1,195,16.9z M181.1,24.1c0.2,0.1,0.2,0.1,0.2,0.3c0,1.1-1.7,0.7-1.8,1.8
	c0,0.5,0.6,0.7,1,0.7c1,0,1.7-0.9,2.4-1.5c0.3-0.3,0.3-1.2,0.4-1.6c0.1-0.5,0.6-0.8,0.6-1.3c0-0.8-0.9-1.8-1.6-2.1
	c-0.1,0-0.2-0.1-0.2-0.1c-0.5,0-0.9,0.4-1.2,0.8c-0.1,0.2-0.2,0.5-0.4,0.7c-0.3,0.2-0.4,0.4-0.4,0.8c0,0.3,0.1,0.5,0.1,0.8
	C180.4,23.8,180.6,24,181.1,24.1z M193.6,15c0.8,0,1.6-0.6,1.6-1.4c0-0.1,0-0.3,0-0.4c0,0,0-0.1,0-0.1c0-0.2,0.1-0.4,0.2-0.6
	c0-1.2-1.1-2.2-2.3-2.3c-1.1,0-1.7,0-1.8,1.4c0,1.1,0.6,2.1,1.3,2.9C192.8,14.8,193.1,15,193.6,15z M166,23.7
	c0.6,0.2,1.4,0.4,2.1,0.4c0.9,0,1.8-0.1,2.6-0.6c0.5-0.3,0.7-0.3,0.8-0.9c0-0.5-0.4-0.5-0.5-0.7c-0.2-0.3-0.3-0.6-0.2-0.9
	c0.2-1.4,0.5-1.8,0.7-3.4c0.1-0.6,0.2-1.3,0.3-2c0-0.8-0.4-2-0.7-2.6c-0.2-0.3-1-0.7-1.4-0.9c-0.2-0.1-0.3-0.1-0.5-0.1
	c-0.4,0-0.8,0.2-1.2,0.3c-0.3,0.1-0.8,0.4-1,0.7c-0.7,1-0.7,1.3-0.9,2.5c0,0,0,0.1,0,0.1c0,0.4,0.3,0.6,0.7,0.6c0.3,0,0.9-0.2,1-0.5
	c0.3-1-0.1-1.1,0.9-1.8c0.1-0.1,0.2-0.1,0.3-0.1c0.1,0,0.2,0.1,0.3,0.1c0.4,0.4,0.6,0.5,0.7,1c0.1,0.5,0.2,1,0.2,1.6
	c0,1-0.7,1.3-1.5,1.3c-0.5,0-1-0.1-1.5-0.1c-0.2,0-0.5,0.1-0.7,0.2c-0.5,0.2-0.9,0.8-1.2,1.2c-0.4,0.6-0.5,1.2-0.5,1.9
	C164.5,22.1,164.9,23.3,166,23.7z M168,19.1l0.5,0c0.5,0,0.7,0.2,0.7,0.7c0,0.6-0.3,1.1-0.3,1.6c0,0.2,0.1,0.3,0.1,0.5
	c-0.3,0.5-1,0.6-1.5,0.6c-0.8,0-1-0.4-1.2-1.1c0-0.2-0.1-0.4-0.1-0.5C166.3,20,166.9,19.1,168,19.1z M195.2,41.9
	c0-0.4-0.4-0.7-0.8-0.7c-0.3,0-0.2,0.1-0.4,0.1c-1,0.3-0.9,1.4-0.9,2.2c0,0.3,0,0.7-0.1,1c0,1.5,0.1,3,0.1,4.5c0,0.3,0,0.5,0.3,0.7
	c0.2,0.1,0.5,0.2,0.7,0.2c0.4,0,0.7-0.2,0.8-0.7c0-0.2,0-0.4,0-0.6c0.1-1.7-0.2-3.3-0.1-5c0-0.4,0-0.8,0.1-1.1
	C195.1,42.3,195.2,42.1,195.2,41.9z M158.2,42.6c-0.2,1.7-0.2,3.3-0.5,5c0,0.1,0,0.2,0,0.3c0,0.3,0,0.9,0.5,0.9c0.4,0,0.8,0,1.2-0.1
	c2-0.4,3.7-1.6,4.7-3.4c0.3-0.5,0.4-1.1,0.4-1.7c0-1.3-0.4-2.4-1.2-3.5c-0.3-0.4-0.7-0.7-1.1-1.1c-0.1-0.1-0.2-0.1-0.4-0.2l-0.5-0.2
	c-0.3-0.1-0.8-0.3-0.9-0.6c-0.1-0.4-0.2-0.8-0.2-1.2c0-0.8,0.3-1.6,0.5-2.4c-0.3-0.1-0.6-0.2-0.9-0.2c-1,0-1.2,0.7-1.3,1.7
	c0,0.4,0,0.8,0,1.2c0,0.3,0,0.5-0.2,0.9c-0.1,0.2-0.3,0.3-0.4,0.3l-0.5,0.1c-0.3,0.1-0.6,0.3-0.6,0.7c0,0.2,0.1,0.7,0.1,0.8
	c0,0.1,0.1,0.1,0.3,0.1c0.2,0,0.3,0,0.5,0c0.2,0,0.5,0.1,0.6,0.3c0.1,0.2,0.1,0.8,0.1,1C158.4,41.8,158.3,42.2,158.2,42.6z
	 M160,42.9c0-0.4,0-0.9,0-1.3c0-0.5,0.1-0.9,0.2-1.5c1.3,0.2,1.6,0.9,1.9,2l0.3,0.8c0,0.1,0,0.2-0.1,0.3c0,0.1,0,0.1-0.1,0.2
	c0,0.1,0,0.1,0,0.2c0,0.1,0,0.2,0,0.3c0,0.2-0.1,0.4-0.1,0.7c-0.1,1-1.1,1.9-2.3,2.1c-0.2-0.6-0.2-1-0.2-1.4
	C159.8,44.5,160,43.7,160,42.9z M193.2,35.3c-1.1,0-1.7,0-1.8,1.4c0,1.1,0.6,2.1,1.3,2.9c0.3,0.3,0.6,0.5,1,0.5
	c0.8,0,1.6-0.6,1.6-1.4c0-0.1,0-0.3,0-0.4c0,0,0-0.1,0-0.1c0-0.2,0.1-0.4,0.2-0.6C195.6,36.4,194.4,35.3,193.2,35.3z M174.6,23.7
	c0.3,0.2,1.4,0.7,1.8,0.7c0.3,0,0.6-0.1,0.8,0c0.3,0,0.7,0.1,0.7,0.5c0,0.2-0.1,0.4-0.1,0.6c0,0.5,0.6,0.6,1,0.6
	c0.3,0,0.6-0.1,0.7-0.4c0.1-0.7,0.2-1.4,0.2-2.1c0.1-2.5-0.2-4.9-0.2-7.3c0-0.2,0-0.4,0-0.5c0-0.2,0.1-0.4,0.1-0.7
	c0-0.2,0-0.3,0-0.5c0-0.9,0.2-1.8,0.2-2.7c0-0.5,0-1.1-0.1-1.6c-0.1-0.3-0.4-0.4-0.7-0.5c-0.9,0-1.1,0.6-1.1,1.4c0,0.5,0,0.9,0,1.4
	c0,0.3,0,0.5-0.1,0.7c-0.1,0.2,0,0.2-0.2,0.3c-2.8,0.9-4.7,2.8-4.8,5.8C172.8,20.9,173.2,22.8,174.6,23.7z M175.1,17.5
	c0.1-0.3,0.5-0.9,0.7-1.1c0.1-0.1,0.2-0.2,0.3-0.3c0.3-0.3,0.7-0.8,1.2-0.8c0.4,0,0.4,0.2,0.4,0.5c0,0.3-0.1,0.5-0.1,0.8
	c-0.1,1.8,0.2,3.7,0.1,5.5c0,0.2,0,0.5,0,0.7c-0.2,0.1-0.4,0.1-0.6,0.1c-0.9,0-1.9-0.9-2.2-1.7c-0.2-0.5-0.3-1.2-0.3-1.8
	C174.7,19.1,175,17.7,175.1,17.5z M189,64.9c0.8,0,1.6-0.6,1.6-1.4c0-0.1,0-0.3,0-0.4c0,0,0-0.1,0-0.1c0-0.2,0.1-0.4,0.2-0.6
	c0-1.2-1.1-2.2-2.3-2.3c-1.1,0-1.7,0-1.8,1.4c0,1.1,0.6,2.1,1.3,2.9C188.2,64.7,188.6,64.9,189,64.9z M179.8,51.2
	c0,0.5,0.6,0.7,1,0.7c1,0,1.7-0.9,2.4-1.5c0.3-0.3,0.3-1.2,0.4-1.6c0.1-0.5,0.6-0.8,0.6-1.3c0-0.8-0.9-1.8-1.6-2.1
	c-0.1,0-0.2-0.1-0.2-0.1c-0.5,0-0.9,0.4-1.2,0.8c-0.1,0.2-0.2,0.5-0.4,0.7c-0.3,0.2-0.4,0.4-0.4,0.8c0,0.3,0.1,0.5,0.1,0.8
	c0.1,0.5,0.4,0.7,0.8,0.8c0.2,0.1,0.2,0.1,0.2,0.3C181.5,50.5,179.8,50.2,179.8,51.2z M157,15.1c0.2,0,0.3,0,0.5,0
	c0.2,0,0.5,0.1,0.6,0.3c0.1,0.2,0.1,0.8,0.1,1c0,0.4-0.1,0.8-0.1,1.2c-0.2,1.7-0.2,3.3-0.5,5c0,0.1,0,0.2,0,0.3c0,0.3,0,0.9,0.5,0.9
	c0.4,0,0.8,0,1.2-0.1c2-0.4,3.7-1.6,4.7-3.4c0.3-0.5,0.4-1.1,0.4-1.7c0-1.3-0.4-2.4-1.2-3.5c-0.3-0.4-0.7-0.7-1.1-1.1
	c-0.1-0.1-0.2-0.1-0.4-0.2l-0.5-0.2c-0.3-0.1-0.8-0.3-0.9-0.6c-0.1-0.4-0.2-0.8-0.2-1.2c0-0.8,0.3-1.6,0.5-2.4
	c-0.3-0.1-0.6-0.2-0.9-0.2c-1,0-1.2,0.7-1.3,1.7c0,0.4,0,0.8,0,1.2c0,0.3,0,0.5-0.2,0.9c-0.1,0.2-0.3,0.3-0.4,0.3l-0.5,0.1
	c-0.3,0.1-0.6,0.3-0.6,0.7c0,0.2,0.1,0.7,0.1,0.8C156.7,15,156.8,15.1,157,15.1z M159.8,17.9c0-0.4,0-0.9,0-1.3
	c0-0.5,0.1-0.9,0.2-1.5c1.3,0.2,1.6,0.9,1.9,2l0.3,0.8c0,0.1,0,0.2-0.1,0.3c0,0.1,0,0.1-0.1,0.2c0,0.1,0,0.1,0,0.2
	c0,0.1,0,0.2,0,0.3c0,0.2-0.1,0.4-0.1,0.7c-0.1,1-1.1,1.9-2.3,2.1c-0.2-0.6-0.2-1-0.2-1.4C159.5,19.4,159.8,18.7,159.8,17.9z
	 M171.7,42.6c0.1-0.6,0.2-1.3,0.3-2c0-0.8-0.4-2-0.7-2.6c-0.2-0.3-1-0.7-1.4-0.9c-0.2-0.1-0.3-0.1-0.5-0.1c-0.4,0-0.8,0.2-1.2,0.3
	c-0.3,0.1-0.8,0.4-1,0.7c-0.7,1-0.7,1.3-0.9,2.5c0,0,0,0.1,0,0.1c0,0.4,0.3,0.6,0.7,0.6c0.3,0,0.9-0.2,1-0.5c0.3-1-0.1-1.1,0.9-1.8
	c0.1-0.1,0.2-0.1,0.3-0.1c0.1,0,0.2,0.1,0.3,0.1c0.4,0.4,0.6,0.5,0.7,1c0.1,0.5,0.2,1,0.2,1.6c0,1-0.7,1.3-1.5,1.3
	c-0.5,0-1-0.1-1.5-0.1c-0.2,0-0.5,0.1-0.7,0.2c-0.5,0.2-0.9,0.8-1.2,1.2c-0.4,0.6-0.5,1.2-0.5,1.9c0,1.1,0.4,2.3,1.5,2.7
	c0.6,0.2,1.4,0.4,2.1,0.4c0.9,0,1.8-0.1,2.6-0.6c0.5-0.3,0.7-0.3,0.8-0.9c0-0.5-0.3-0.5-0.5-0.7c-0.2-0.3-0.3-0.6-0.2-0.9
	C171.2,44.6,171.5,44.2,171.7,42.6z M169.2,47c-0.3,0.5-1,0.6-1.5,0.6c-0.8,0-1-0.4-1.2-1.1c0-0.2-0.1-0.4-0.1-0.5
	c0-1,0.7-1.8,1.7-1.8l0.5,0c0.5,0,0.7,0.2,0.7,0.7c0,0.6-0.3,1.1-0.3,1.6C169.1,46.7,169.2,46.8,169.2,47z M190.4,66.7
	c0-0.4-0.4-0.7-0.8-0.7c-0.3,0-0.2,0.1-0.4,0.1c-1,0.3-0.9,1.4-0.9,2.2c0,0.3,0,0.7-0.1,1c0,1.5,0.1,3,0.1,4.5c0,0.3,0,0.5,0.3,0.7
	c0.2,0.1,0.5,0.2,0.7,0.2c0.4,0,0.7-0.2,0.8-0.7c0-0.2,0-0.4,0-0.6c0.1-1.7-0.2-3.3-0.1-5c0-0.4,0-0.8,0.1-1.1
	C190.3,67.2,190.4,67,190.4,66.7z M140.8,36.9c-0.9,0-2,0.1-2.8,0.5c-0.7,0.3-1.2,0.9-1.4,1.7c-0.2,0.6-0.3,1.2-0.3,1.7
	c0,0.9,0.2,1.7,0.9,2.4c0.9,0.8,2,1.4,3.2,1.5c0.8,0,1.7-0.1,2.3-0.6c0.9-0.7,1.3-1.7,1.3-2.8c0-1.1-0.3-2.3-0.8-3.3
	C142.9,37.1,141.6,37,140.8,36.9z M140.7,43.2c-1.4,0-2.5-1.2-2.5-2.7c0-0.6,0.2-1.2,0.5-1.8c0.2-0.4,0.6-0.4,1-0.4
	c0.3,0,0.6,0.1,0.9,0.1c0.8,0,1.1,0.6,1.3,1.3c0.1,0.6,0.3,1.2,0.2,1.8C142.1,42.4,141.7,43.2,140.7,43.2z M209.9,15
	c0.4,0,0.8-0.5,0.9-0.8c0.2-0.5,0.3-0.9,0.3-1.4c0-0.6-0.1-1.2-0.2-1.7c0-0.1-0.1-0.2-0.2-0.2c-0.3,0-0.6,0.2-0.8,0.4
	c-0.2,0.3-0.3,0.6-0.3,1c0,0.3,0,0.5,0,0.8c0,0.4-0.2,0.8-0.2,1.2C209.3,14.5,209.5,15,209.9,15z M215.3,39.1c-0.2,0-0.3,0-0.5,0.1
	c-0.5,0.1-1.3,0.3-1.6,0.7c-0.5,0.6-0.8,1.5-0.8,2.2c0,1.6,0.6,2.1,1.9,2.8c0.9,0.4,1.6,1.7,1.6,2.7c0,1-1.1,2.2-2.5,1.2l-0.2-0.3
	c-0.4-0.5-0.6-1-0.6-1.6c-0.1-0.7-0.9-0.6-1.3-0.7c-0.2,0-0.7,0.6-0.7,0.9c0,0.4,0.3,0.6,0.3,1c0.1,0.9,0.5,1.6,1.4,2
	c0.7,0.3,1.5,0.5,2.2,0.6c1.7,0.1,3.2-0.9,3.2-2.7c0-1-0.4-2.3-1-3.1c-0.6-1-1.9-1.2-2.3-2.2c-0.1-0.1-0.1-0.3-0.1-0.4
	c0-0.5,0.4-1.2,1-1.2c0.7,0,1.2,1,1.8,1c0.5,0,1-0.4,1-0.9c0-0.5-0.8-0.9-1.2-1.2C216.5,39.4,216,39.1,215.3,39.1z M199.7,67
	c0-0.4-0.4-0.7-0.8-0.7c-0.3,0-0.2,0.1-0.4,0.1c-1,0.3-0.9,1.4-0.9,2.2c0,0.3,0,0.7-0.1,1c0,1.5,0.1,3,0.1,4.5c0,0.3,0,0.5,0.3,0.7
	c0.2,0.1,0.5,0.2,0.7,0.2c0.4,0,0.7-0.2,0.8-0.7c0-0.2,0-0.4,0-0.6c0.1-1.7-0.2-3.3-0.1-5c0-0.4,0-0.8,0.1-1.1
	C199.6,67.5,199.7,67.3,199.7,67z M214.1,19.9c0.9,0.4,1.6,1.7,1.6,2.7c0,1-1.1,2.2-2.5,1.2l-0.2-0.3c-0.4-0.5-0.6-1-0.6-1.6
	c-0.1-0.7-0.9-0.6-1.3-0.7c-0.2,0-0.7,0.6-0.7,0.9c0,0.4,0.3,0.6,0.3,1c0.1,0.9,0.5,1.6,1.4,2c0.7,0.3,1.5,0.5,2.2,0.6
	c1.7,0.1,3.2-0.9,3.2-2.7c0-1-0.4-2.3-1-3.1c-0.6-1-1.9-1.2-2.3-2.2c-0.1-0.1-0.1-0.3-0.1-0.4c0-0.5,0.4-1.2,1-1.2
	c0.7,0,1.2,1,1.8,1c0.5,0,1-0.4,1-0.9c0-0.5-0.8-0.9-1.2-1.2c-0.5-0.4-1.1-0.7-1.7-0.7c-0.2,0-0.3,0-0.5,0.1
	c-0.5,0.1-1.3,0.3-1.6,0.7c-0.5,0.6-0.8,1.5-0.8,2.2C212.1,18.6,212.8,19.2,214.1,19.9z M211.4,37.8c0-0.6-0.1-1.2-0.2-1.7
	c0-0.1-0.1-0.2-0.2-0.2c-0.3,0-0.6,0.2-0.8,0.4c-0.2,0.3-0.3,0.6-0.3,1c0,0.3,0,0.5,0,0.8c0,0.4-0.2,0.8-0.2,1.2
	c0,0.4,0.2,0.8,0.6,0.8c0.4,0,0.8-0.5,0.9-0.8C211.3,38.7,211.4,38.3,211.4,37.8z M126.6,65.8c-0.1,0.7-0.3,1.4-0.3,2
	c0,1.5,0.5,3.3,2,4.2c0.6,0.3,1.3,0.7,2.1,0.8c0.8,0.1,1.5-0.4,2.2-0.8c0.7-0.5,1-1.3,1.1-2.1c0-0.7,0-1.3-0.9-1.3
	c-0.1,0-0.2,0-0.3,0c-0.2,0.1-0.7,0.3-0.7,0.5c0,0.2,0,0.4,0,0.6c0,0.1,0,0.2-0.1,0.3c-0.1,0.6-0.7,1-1.3,0.9
	c-0.6,0-1.2-0.5-1.6-0.9c-0.5-0.4-0.6-0.9-0.7-1.5c0-0.5-0.2-1-0.1-1.5c0-0.3,0.1-0.7,0.3-0.9c0.2,0,0.3,0,0.5,0c1,0,2,0.3,3,0.3
	c0.4,0,1.2,0.1,1.6-0.1c0.3-0.1,0.6-0.5,0.6-0.9c0-0.1,0-0.2,0-0.2c-0.1-0.3-0.7-0.3-0.8-0.5c-0.1-0.2,0-0.9-0.1-1.2
	c-0.3-1.1-0.6-1.4-1.1-2.1c-0.2-0.2-0.6-0.3-0.8-0.4c-0.3-0.1-0.7-0.2-1-0.2C128,61.1,126.9,64,126.6,65.8z M130.1,62.8
	c0.1,0,0.6,0,0.7,0.1c0.4,0.4,0.5,0,0.7,1.8c0,0.1-0.3,0.2-0.4,0.2c-0.6,0-1.2-0.3-1.9-0.3c-0.1,0-0.2-0.2-0.2-0.3
	C129.1,64,129.7,62.8,130.1,62.8z M140.1,19.6c0.8,0,1.7-0.1,2.3-0.6c0.9-0.7,1.3-1.7,1.3-2.8c0-1.1-0.3-2.3-0.8-3.3
	c-0.4-0.8-1.6-1-2.5-1c-0.9,0-2,0.1-2.8,0.5c-0.7,0.3-1.2,0.9-1.4,1.7c-0.2,0.6-0.3,1.2-0.3,1.7c0,0.9,0.2,1.7,0.9,2.4
	C137.8,19,138.9,19.6,140.1,19.6z M138.4,13.7c0.2-0.4,0.6-0.4,1-0.4c0.3,0,0.6,0.1,0.9,0.1c0.8,0,1.1,0.6,1.3,1.3
	c0.1,0.6,0.3,1.2,0.2,1.8c0,0.9-0.4,1.7-1.4,1.7c-1.4,0-2.5-1.2-2.5-2.7C138,14.9,138.1,14.2,138.4,13.7z M198.3,65.2
	c0.8,0,1.6-0.6,1.6-1.4c0-0.1,0-0.3,0-0.4c0,0,0-0.1,0-0.1c0-0.2,0.1-0.4,0.2-0.6c0-1.2-1.1-2.2-2.3-2.3c-1.1,0-1.7,0-1.8,1.4
	c0,1.1,0.6,2.1,1.3,2.9C197.5,65,197.9,65.2,198.3,65.2z M150.5,37.6c-1.1,0.2-2.3,1.6-3.2,2.3c-0.2-0.3-0.2-0.6-0.2-1
	c0-0.5,0.1-1,0.2-1.5c0-0.3-0.4-0.2-0.6-0.4c-0.2,0.2-0.8,0.1-0.9,0.4c0,0.1-0.3,0.5-0.3,0.6c0,0.2,0,0.4,0,0.5
	c0,0.9,0.2,1.9,0.2,2.8c0,1.2-1.4,1.7-1.4,2.5c0,0.3,0.3,0.8,0.5,0.8c0.2,0,0.4-0.2,0.6-0.2c0.2,0,0.2,0.8,0.2,0.9
	c0,0.6-0.2,1.2-0.2,1.8c0,0.3,0,0.6,0.1,1c0.2,0.3,0.1,0.3,0.5,0.4c1.1,0,1.2-0.8,1.2-1.7c0-0.8,0-1.6,0-2.5c0-0.6,0.1-1.2,0.3-1.8
	c0.6-1.7,2.1-2.8,3.5-3.8c0.2-0.2,0.4-0.4,0.4-0.6c0-0.3-0.2-0.5-0.5-0.5C150.7,37.6,150.6,37.6,150.5,37.6z M144.4,19.6
	c0.2,0,0.4-0.2,0.6-0.2c0.2,0,0.2,0.8,0.2,0.9c0,0.6-0.2,1.2-0.2,1.8c0,0.3,0,0.6,0.1,1c0.2,0.3,0.1,0.3,0.5,0.4
	c1.1,0,1.2-0.8,1.2-1.7c0-0.8,0-1.6,0-2.5c0-0.6,0.1-1.2,0.3-1.8c0.6-1.7,2.1-2.8,3.5-3.8c0.2-0.2,0.4-0.4,0.4-0.6
	c0-0.3-0.2-0.5-0.5-0.5c-0.1,0-0.3,0-0.3,0c-1.1,0.2-2.3,1.6-3.2,2.3c-0.2-0.3-0.2-0.6-0.2-1c0-0.5,0.1-1,0.2-1.5
	c0-0.3-0.4-0.2-0.6-0.4c-0.2,0.2-0.8,0.1-0.9,0.4c0,0.1-0.3,0.5-0.3,0.6c0,0.2,0,0.4,0,0.5c0,0.9,0.2,1.9,0.2,2.8
	c0,1.2-1.4,1.7-1.4,2.5C143.9,19,144.1,19.5,144.4,19.6z M197.3,19.1c0.8,0,1.5-0.4,2.3-0.3c0.1,0,0.2,0,0.3,0
	c0.1,0,0.3,0.2,0.3,0.3l-0.2,5.1c0,0.7,0.3,0.9,1,0.9c1.1,0,1.2-0.6,1.2-1.6c0-1-0.1-2,0-2.9c0-0.5,0.1-1.1,0.3-1.5
	c0.1,0,0.2,0,0.3,0c0.8,0,1.6,0.4,2.5,0.4c0.5,0,1.2-0.2,1.4-0.7c0,0,0-0.1,0-0.2c0-0.2-0.2-0.5-0.4-0.6c-0.8-0.4-1.8-0.4-2.7-0.5
	c-0.3,0-0.7,0-1-0.2c-0.1-0.1-0.3-0.2-0.3-0.4c0-0.8-0.1-1.6,0-2.4c0-0.4,0-0.8,0.1-1.3c0-0.6-0.2-1-0.8-1.1c-0.3,0-0.7,0.1-0.9,0.4
	c-0.2,0.2-0.2,0.4-0.2,0.6c0,0.1,0,0.3,0,0.4c0,0.4-0.1,0.9-0.1,1.3c0,0.6,0.3,1.2,0.3,1.5c0,0.1,0,0.4-0.1,0.4
	c-1.1,0.7-2.5,0-3.5,0.6c-0.3,0.2-0.5,0.5-0.5,0.9C196.3,18.8,196.9,19.1,197.3,19.1z M203.8,42.5c-0.3,0-0.7,0-1-0.2
	c-0.1-0.1-0.3-0.2-0.3-0.4c0-0.8-0.1-1.6,0-2.4c0-0.4,0-0.8,0.1-1.3c0-0.6-0.2-1-0.8-1.1c-0.3,0-0.7,0.1-0.9,0.4
	c-0.2,0.2-0.2,0.4-0.2,0.6c0,0.1,0,0.3,0,0.4c0,0.4-0.1,0.9-0.1,1.3c0,0.6,0.3,1.2,0.3,1.5c0,0.1,0,0.4-0.1,0.4
	c-1.1,0.7-2.5,0-3.5,0.6c-0.3,0.2-0.5,0.5-0.5,0.9c0,0.5,0.6,0.8,1.1,0.9c0.8,0,1.5-0.4,2.3-0.3c0.1,0,0.2,0,0.3,0
	c0.1,0,0.3,0.2,0.3,0.3l-0.2,5.1c0,0.7,0.3,0.9,1,0.9c1.1,0,1.2-0.6,1.2-1.6c0-1-0.1-2,0-2.9c0-0.5,0.1-1.1,0.3-1.5
	c0.1,0,0.2,0,0.3,0c0.8,0,1.6,0.4,2.5,0.4c0.5,0,1.2-0.2,1.4-0.7c0,0,0-0.1,0-0.2c0-0.2-0.2-0.5-0.4-0.6
	C205.6,42.7,204.6,42.7,203.8,42.5z M121.2,89.6c-0.1-0.2,0-0.9-0.1-1.2c-0.3-1.1-0.6-1.4-1.1-2.1c-0.2-0.2-0.6-0.3-0.8-0.4
	c-0.3-0.1-0.7-0.2-1-0.2c-2.3-0.1-3.3,2.8-3.6,4.7c-0.1,0.7-0.3,1.4-0.3,2c0,1.5,0.5,3.3,2,4.2c0.6,0.3,1.3,0.7,2.1,0.8
	c0.8,0.1,1.5-0.4,2.2-0.8c0.7-0.5,1-1.3,1.1-2.1c0-0.7,0-1.3-0.9-1.3c-0.1,0-0.2,0-0.3,0c-0.2,0.1-0.6,0.3-0.7,0.5
	c0,0.2,0,0.4,0,0.6c0,0.1,0,0.2-0.1,0.3c-0.1,0.6-0.7,1-1.3,0.9c-0.6,0-1.2-0.5-1.6-0.9c-0.5-0.4-0.6-0.9-0.7-1.5
	c0-0.5-0.2-1-0.1-1.5c0-0.3,0.1-0.7,0.3-0.9c0.2,0,0.3,0,0.5,0c1,0,2,0.3,3,0.3c0.4,0,1.2,0.1,1.6-0.1c0.3-0.1,0.6-0.5,0.6-0.9
	c0-0.1,0-0.2,0-0.2C121.9,89.9,121.3,89.8,121.2,89.6z M119.1,89.6c-0.6,0-1.2-0.3-1.9-0.3c-0.1,0-0.2-0.2-0.2-0.3
	c0-0.4,0.6-1.6,1.1-1.6c0.1,0,0.6,0,0.7,0.1c0.4,0.4,0.5,0,0.7,1.8C119.5,89.4,119.1,89.6,119.1,89.6z M150,88.7
	c-0.1-0.1-0.2-0.1-0.4-0.2l-0.5-0.2c-0.3-0.1-0.8-0.3-0.9-0.6c-0.1-0.4-0.2-0.8-0.2-1.2c0-0.8,0.3-1.6,0.5-2.4
	c-0.3-0.1-0.6-0.2-0.9-0.2c-1,0-1.2,0.7-1.3,1.7c0,0.4,0,0.8,0,1.2c0,0.3,0,0.5-0.2,0.9c-0.1,0.2-0.3,0.3-0.4,0.3l-0.5,0.1
	c-0.3,0.1-0.6,0.3-0.6,0.7c0,0.2,0.1,0.7,0.1,0.8c0,0.1,0.1,0.1,0.3,0.1c0.2,0,0.3,0,0.5,0c0.2,0,0.5,0.1,0.6,0.3
	c0.1,0.2,0.1,0.8,0.1,1c0,0.4-0.1,0.8-0.1,1.2c-0.2,1.7-0.2,3.3-0.5,5c0,0.1,0,0.2,0,0.3c0,0.3,0,0.9,0.5,0.9c0.4,0,0.8,0,1.2-0.1
	c2-0.4,3.7-1.6,4.7-3.4c0.3-0.5,0.4-1.1,0.4-1.7c0-1.3-0.4-2.4-1.2-3.5C150.8,89.3,150.4,89,150,88.7z M150.2,93.2
	c0,0.1,0,0.2,0,0.3c0,0.2-0.1,0.4-0.1,0.7c-0.1,1-1.1,1.9-2.3,2.1c-0.2-0.6-0.2-1-0.2-1.4c0-0.8,0.2-1.5,0.3-2.3c0-0.4,0-0.9,0-1.3
	c0-0.5,0.1-0.9,0.2-1.5c1.3,0.2,1.6,0.9,1.9,2l0.3,0.8c0,0.1,0,0.2-0.1,0.3c0,0.1,0,0.1-0.1,0.2C150.1,93.1,150.2,93.1,150.2,93.2z
	 M184.8,65.8c-0.3-0.4-0.7-0.7-1.1-1.1c-0.1-0.1-0.2-0.1-0.4-0.2l-0.5-0.2c-0.3-0.1-0.8-0.3-0.9-0.6c-0.1-0.4-0.2-0.8-0.2-1.2
	c0-0.8,0.3-1.6,0.5-2.4c-0.3-0.1-0.6-0.2-0.9-0.2c-1,0-1.2,0.7-1.3,1.7c0,0.4,0,0.8,0,1.2c0,0.3,0,0.5-0.2,0.9
	c-0.1,0.2-0.3,0.3-0.4,0.3l-0.5,0.1c-0.3,0.1-0.6,0.3-0.6,0.7c0,0.2,0.1,0.7,0.1,0.8c0,0.1,0.1,0.1,0.3,0.1c0.2,0,0.3,0,0.5,0
	c0.2,0,0.5,0.1,0.6,0.3c0.1,0.2,0.1,0.8,0.1,1c0,0.4-0.1,0.8-0.1,1.2c-0.2,1.7-0.2,3.3-0.5,5c0,0.1,0,0.2,0,0.3c0,0.3,0,0.9,0.5,0.9
	c0.4,0,0.8,0,1.2-0.1c2-0.4,3.7-1.6,4.7-3.4c0.3-0.5,0.4-1.1,0.4-1.7C186,67.9,185.6,66.9,184.8,65.8z M183.9,69.2
	c0,0.1,0,0.2,0,0.3c0,0.2-0.1,0.4-0.1,0.7c-0.1,1-1.1,1.9-2.3,2.1c-0.2-0.6-0.2-1-0.2-1.4c0-0.8,0.2-1.5,0.3-2.3c0-0.4,0-0.9,0-1.3
	c0-0.5,0.1-0.9,0.2-1.5c1.3,0.2,1.6,0.9,1.9,2l0.3,0.8c0,0.1,0,0.2-0.1,0.3c0,0.1,0,0.1-0.1,0.2C183.8,69.1,183.9,69.2,183.9,69.2z
	 M192,89.1c-0.5-0.4-1-0.7-1.7-0.7c-0.2,0-0.3,0-0.5,0.1c-0.5,0.1-1.3,0.3-1.6,0.7c-0.5,0.6-0.8,1.5-0.8,2.2c0,1.6,0.6,2.1,1.9,2.8
	c0.9,0.4,1.6,1.7,1.6,2.7c0,1-1.1,2.2-2.5,1.2l-0.2-0.3c-0.4-0.5-0.6-1-0.6-1.6c-0.1-0.7-0.9-0.6-1.3-0.7c-0.2,0-0.7,0.6-0.7,0.9
	c0,0.4,0.3,0.6,0.3,1c0.1,0.9,0.5,1.6,1.4,2c0.7,0.3,1.5,0.5,2.2,0.6c1.7,0.1,3.2-0.9,3.2-2.7c0-1-0.4-2.2-1-3.1
	c-0.6-1-1.9-1.2-2.3-2.2c-0.1-0.1-0.1-0.3-0.1-0.4c0-0.5,0.4-1.2,1-1.2c0.7,0,1.2,1,1.8,1c0.5,0,1-0.4,1-0.9
	C193.1,89.7,192.3,89.3,192,89.1z M178.2,49.9c0,0.2-0.1,0.4-0.1,0.6c0,0.5,0.6,0.6,1,0.6c0.3,0,0.6-0.1,0.7-0.4
	c0.1-0.7,0.2-1.4,0.2-2.1c0.1-2.5-0.2-4.9-0.2-7.3c0-0.2,0-0.4,0-0.5c0-0.2,0.1-0.4,0.1-0.7c0-0.2,0-0.3,0-0.5
	c0-0.9,0.2-1.8,0.2-2.7c0-0.5,0-1.1-0.1-1.6c-0.1-0.3-0.4-0.4-0.7-0.5c-0.9,0-1.1,0.6-1.1,1.4c0,0.5,0,0.9,0,1.4
	c0,0.3,0,0.5-0.1,0.8c-0.1,0.2,0,0.2-0.2,0.3c-2.8,0.9-4.7,2.8-4.8,5.8c0,1.5,0.3,3.5,1.7,4.3c0.3,0.2,1.4,0.7,1.8,0.7
	c0.3,0,0.6-0.1,0.8,0C177.8,49.4,178.2,49.5,178.2,49.9z M177.5,47.9c-0.9,0-1.9-0.9-2.3-1.7c-0.2-0.5-0.3-1.2-0.3-1.8
	c0-0.3,0.4-1.7,0.5-1.9c0.1-0.3,0.5-0.9,0.7-1.1c0.1-0.1,0.2-0.2,0.3-0.3c0.3-0.3,0.7-0.8,1.2-0.8c0.4,0,0.4,0.2,0.4,0.5
	c0,0.3-0.1,0.5-0.1,0.8c-0.1,1.8,0.2,3.7,0.1,5.5c0,0.2,0,0.5,0,0.7C177.9,47.9,177.7,47.9,177.5,47.9z M184.9,90.7
	c-0.1-0.9-0.1-2.8-1.3-2.8c-0.4,0-1,0.2-1,0.7c0,0.1,0,0.2,0,0.3c0.5,1.3,0.7,2.6,0.7,3.9c0,1-0.4,4-1.6,4.3c-0.1,0-0.3,0.1-0.4,0.1
	c-0.5,0-1.2-0.3-1.4-0.9c-0.4-1.1-0.4-2.3-0.4-3.4c0-1,0.2-2,0.2-3.1c0-0.3,0.1-0.7,0.1-1c0-0.4-0.3-0.8-0.8-0.8
	c-1.1,0-1,1.4-1.1,2.1c0,0.6,0,1.3,0,1.9c0,0.8-0.1,1.5-0.1,2.3c0,0.9,0,1.9,0.2,2.8c0.1,0.4,0.3,0.5,0.7,0.7
	c0.7,0.3,1.5,0.8,2.3,0.8c0.2,0,0.4,0,0.6-0.1c1.2-0.2,2.2-1,2.7-2.1c0.2-0.4,0.3-0.9,0.3-1.4c0-0.1,0-0.2,0-0.3
	c0-0.1,0.2-0.1,0.2-0.2c0-0.2,0-0.3,0-0.5c0-0.6,0.1-1.3,0.1-1.9C185,91.6,185,91.1,184.9,90.7z M194.9,62.5c0-0.5,0-1.1,0-1.7
	c0-0.4-0.3-0.5-0.7-0.5c-0.4,0-0.9,0.1-1,0.5c-0.3,0.8-0.4,1.8-0.4,2.7c0,0.6,0,1.2,0,1.8c0,0.3,0,0.6-0.1,1
	c-0.2,2.1-0.5,4.3-0.5,6.4c0,0.5-0.1,1,0,1.5c0,0.2,0.5,0.6,0.6,0.7c0-0.1,0.1-0.2,0.2-0.2c0.1,0,0.2,0.2,0.4,0.2
	c0.1,0,0.7-0.4,0.7-0.5c0.2-0.8,0.3-1.7,0.4-2.5c0.2-2,0.4-4,0.4-5.9C194.9,64.9,194.9,63.7,194.9,62.5z M44,16.5
	c0.8,0,1.7-0.1,2.3-0.6c0.9-0.7,1.3-1.7,1.3-2.8c0-1.1-0.3-2.3-0.8-3.3c-0.4-0.8-1.6-1-2.5-1c-0.9,0-2,0.1-2.8,0.5
	c-0.7,0.3-1.2,0.9-1.4,1.7c-0.2,0.6-0.3,1.2-0.3,1.7c0,0.9,0.2,1.7,0.9,2.4C41.7,15.9,42.8,16.5,44,16.5z M42.3,10.7
	c0.2-0.4,0.6-0.4,1-0.4c0.3,0,0.6,0.1,0.9,0.1c0.8,0,1.1,0.6,1.3,1.3c0.1,0.6,0.3,1.2,0.2,1.8c0,0.9-0.4,1.7-1.4,1.7
	c-1.4,0-2.5-1.2-2.5-2.7C41.9,11.8,42.1,11.2,42.3,10.7z M201.5,92.2c-0.1-0.2,0-0.9-0.1-1.2c-0.3-1.1-0.6-1.4-1.1-2.1
	c-0.2-0.2-0.6-0.3-0.8-0.4c-0.3-0.1-0.7-0.2-1-0.2c-2.3-0.1-3.3,2.8-3.6,4.7c-0.1,0.7-0.3,1.4-0.3,2c0,1.5,0.5,3.3,2,4.2
	c0.6,0.3,1.3,0.7,2.1,0.8c0.8,0.1,1.5-0.4,2.2-0.8c0.7-0.5,1-1.3,1.1-2.1c0-0.7,0-1.3-0.9-1.3c-0.1,0-0.2,0-0.3,0
	c-0.2,0.1-0.6,0.3-0.7,0.5c0,0.2,0,0.4,0,0.6c0,0.1,0,0.2-0.1,0.3c-0.1,0.6-0.7,1-1.3,0.9c-0.6,0-1.2-0.5-1.6-0.9
	c-0.5-0.4-0.6-0.9-0.7-1.5c0-0.5-0.2-1-0.1-1.5c0-0.3,0.1-0.7,0.3-0.9c0.2,0,0.3,0,0.5,0c1,0,2,0.3,3,0.3c0.4,0,1.2,0.1,1.6-0.1
	c0.3-0.1,0.6-0.5,0.6-0.9c0-0.1,0-0.2,0-0.2C202.2,92.4,201.6,92.4,201.5,92.2z M199.4,92.1c-0.6,0-1.2-0.3-1.9-0.3
	c-0.1,0-0.2-0.2-0.2-0.3c0-0.4,0.6-1.6,1.1-1.6c0.1,0,0.6,0,0.7,0.1c0.4,0.4,0.5,0,0.7,1.8C199.8,92,199.5,92.1,199.4,92.1z
	 M168,95.2c-0.1,0-0.2,0-0.3,0.1c-0.5,0.2-1.7,0.6-2.2,0.6c-0.2,0-0.4-0.1-0.6-0.2c-0.9-0.6-1.2-1.7-1.2-2.8c0-0.5,0.1-1,0.2-1.6
	c0.1-0.5,0.1-1,0.7-1.1c0.1,0,0.2,0,0.3,0c1,0,1.6,0.9,2.3,0.9c0.5,0,0.9-0.2,1-0.7c0-0.3-0.2-0.6-0.5-0.8c-0.8-0.5-2-1.2-3-1.3
	c-0.5,0-0.9,0.2-1.4,0.5c-1.1,0.9-1.4,2-1.4,3.3c-0.1,2.5,0.7,5.5,3.7,5.6c0.9,0,1.7-0.2,2.5-0.6c0.4-0.2,0.7-0.6,0.7-1
	C168.7,95.6,168.3,95.2,168,95.2z M162.6,68.6c0,1-0.2,2.1-0.2,3.2c0,0.8-0.3,2.2,0.9,2.2c0.5,0,1-0.3,1-0.9c0-0.4-0.1-0.8-0.1-1.2
	c0-0.4,0-0.8,0-1.1c0-1,0.2-2,0.2-3c0.1-1.6-0.4-2.9-1.3-4.2c-0.3-0.4-0.7-0.6-1.2-0.6c-0.6,0-1.3,0.1-1.9,0.2
	c0-0.3,0.1-0.5,0.1-0.8c0-0.5-0.4-0.7-0.8-0.7c-0.6,0-1.1,0.2-1.1,0.9c0,0.2,0,0.5,0,0.7c0,0.3-0.1,0.7-0.1,0.9c-0.2,1,0,3.9,0,3.4
	c0.1,0.8,0.1,0.7,0,1.6c0,1.2-0.1,2.3-0.1,3.5c0,0.5,0.3,0.8,0.8,0.8c0.3,0,0.8-0.1,0.8-0.5c0.1-0.5,0.1-1.3,0.1-1.8
	c0-1.3-0.1-2.6,0-3.8c0-0.7,0.1-1.5,0.2-2.2c0.1-0.5,1.1-0.7,1.5-0.6c0.4,0,0.6,0.5,0.7,0.8C162.4,66.4,162.7,67.4,162.6,68.6z
	 M160.6,90.9c-0.1-0.2,0-0.9-0.1-1.2c-0.3-1.1-0.6-1.4-1.1-2.1c-0.2-0.2-0.6-0.3-0.8-0.4c-0.3-0.1-0.7-0.2-1-0.2
	c-2.3-0.1-3.3,2.8-3.6,4.7c-0.1,0.7-0.3,1.4-0.3,2c0,1.5,0.5,3.3,2,4.2c0.6,0.3,1.3,0.7,2.1,0.8c0.8,0.1,1.5-0.4,2.2-0.8
	c0.7-0.5,1-1.3,1.1-2.1c0-0.7,0-1.3-0.9-1.3c-0.1,0-0.2,0-0.3,0c-0.2,0.1-0.6,0.3-0.7,0.5c0,0.2,0,0.4,0,0.6c0,0.1,0,0.2-0.1,0.3
	c-0.1,0.6-0.7,1-1.3,0.9c-0.6,0-1.2-0.5-1.6-0.9c-0.5-0.4-0.6-0.9-0.7-1.5c0-0.5-0.2-1-0.1-1.5c0-0.3,0.1-0.7,0.3-0.9
	c0.2,0,0.3,0,0.5,0c1,0,2,0.3,3,0.3c0.4,0,1.2,0.1,1.6-0.1c0.3-0.1,0.6-0.5,0.6-0.9c0-0.1,0-0.2,0-0.2
	C161.3,91.1,160.7,91.1,160.6,90.9z M158.5,90.8c-0.6,0-1.2-0.3-1.9-0.3c-0.1,0-0.2-0.2-0.2-0.3c0-0.4,0.6-1.6,1.1-1.6
	c0.1,0,0.6,0,0.7,0.1c0.4,0.4,0.5,0,0.7,1.8C158.9,90.6,158.6,90.8,158.5,90.8z M176.9,66.3c0-0.4-0.4-0.7-0.8-0.7
	c-0.3,0-0.2,0.1-0.4,0.1c-1,0.3-0.9,1.4-0.9,2.2c0,0.3,0,0.7-0.1,1c0,1.5,0.1,3,0.1,4.5c0,0.3,0,0.5,0.3,0.7
	c0.2,0.1,0.5,0.2,0.7,0.2c0.4,0,0.7-0.2,0.8-0.7c0-0.2,0-0.4,0-0.6c0.1-1.7-0.2-3.3-0.1-5c0-0.4,0-0.8,0.1-1.1
	C176.8,66.8,176.9,66.5,176.9,66.3z M156.7,66.7c0-1.1-0.3-2.3-0.8-3.3c-0.4-0.8-1.6-1-2.5-1c-0.9,0-2,0.1-2.8,0.5
	c-0.7,0.3-1.2,0.9-1.4,1.7c-0.2,0.6-0.3,1.2-0.3,1.7c0,0.9,0.2,1.7,0.9,2.4c0.9,0.8,2,1.4,3.2,1.5c0.8,0,1.7-0.1,2.3-0.6
	C156.3,68.8,156.7,67.8,156.7,66.7z M153.4,68.6c-1.4,0-2.5-1.2-2.5-2.7c0-0.6,0.2-1.2,0.5-1.8c0.2-0.4,0.6-0.4,1-0.4
	c0.3,0,0.6,0.1,0.9,0.1c0.8,0,1.1,0.6,1.3,1.3c0.1,0.6,0.3,1.2,0.2,1.8C154.8,67.8,154.4,68.6,153.4,68.6z M175.8,92.8
	c0.1-0.6,0.2-1.3,0.3-2c0-0.8-0.4-2-0.7-2.6c-0.2-0.3-1-0.7-1.4-0.9c-0.2-0.1-0.3-0.1-0.5-0.1c-0.4,0-0.8,0.2-1.2,0.3
	c-0.3,0.1-0.8,0.4-1,0.7c-0.7,1-0.7,1.3-0.9,2.5c0,0,0,0.1,0,0.1c0,0.4,0.3,0.6,0.7,0.6s0.9-0.2,1-0.5c0.3-1-0.1-1.1,0.9-1.8
	c0.1-0.1,0.2-0.1,0.3-0.1c0.1,0,0.2,0.1,0.3,0.1c0.4,0.4,0.6,0.5,0.7,1c0.1,0.5,0.2,1,0.2,1.6c0,1-0.7,1.3-1.5,1.3
	c-0.5,0-1-0.1-1.5-0.1c-0.2,0-0.5,0.1-0.7,0.2c-0.5,0.2-0.9,0.8-1.2,1.2c-0.4,0.6-0.5,1.2-0.5,1.9c0,1.1,0.4,2.3,1.5,2.7
	c0.6,0.2,1.4,0.4,2.1,0.4c0.9,0,1.8-0.1,2.6-0.6c0.5-0.3,0.7-0.3,0.8-0.9c0-0.5-0.4-0.5-0.5-0.7c-0.2-0.3-0.3-0.6-0.2-0.9
	C175.3,94.8,175.5,94.3,175.8,92.8z M173.3,97.2c-0.3,0.5-1,0.6-1.5,0.6c-0.8,0-1-0.4-1.2-1.1c0-0.2-0.1-0.4-0.1-0.5
	c0-1,0.7-1.8,1.7-1.8l0.5,0c0.5,0,0.7,0.2,0.7,0.7c0,0.6-0.3,1.1-0.3,1.6C173.2,96.9,173.3,97,173.3,97.2z M172,71.4
	c0-1-0.4-2.2-1-3.1c-0.6-1-1.9-1.2-2.3-2.2c-0.1-0.1-0.1-0.3-0.1-0.4c0-0.5,0.4-1.2,1-1.2c0.7,0,1.2,1,1.8,1c0.5,0,1-0.4,1-0.9
	c0-0.5-0.8-0.9-1.2-1.2c-0.5-0.4-1.1-0.7-1.7-0.7c-0.2,0-0.3,0-0.5,0.1c-0.5,0.1-1.3,0.3-1.6,0.7c-0.5,0.6-0.8,1.5-0.8,2.2
	c0,1.6,0.6,2.1,1.9,2.8c0.9,0.4,1.6,1.7,1.6,2.7c0,1-1.1,2.2-2.5,1.2l-0.2-0.3c-0.4-0.5-0.6-1-0.6-1.6c-0.1-0.7-0.9-0.6-1.3-0.7
	c-0.2,0-0.7,0.6-0.7,0.9c0,0.4,0.3,0.6,0.3,1c0.1,0.9,0.5,1.6,1.4,2c0.7,0.3,1.5,0.5,2.2,0.6C170.5,74.2,172,73.2,172,71.4z
	 M213.3,89.3c-0.9,0-2,0.1-2.8,0.5c-0.7,0.3-1.2,0.9-1.4,1.7c-0.2,0.6-0.3,1.2-0.3,1.7c0,0.9,0.2,1.7,0.9,2.4c0.9,0.8,2,1.4,3.2,1.5
	c0.8,0,1.7-0.1,2.3-0.6c0.9-0.7,1.3-1.7,1.3-2.8c0-1.1-0.3-2.3-0.8-3.3C215.4,89.5,214.2,89.3,213.3,89.3z M213.2,95.5
	c-1.4,0-2.5-1.2-2.5-2.7c0-0.6,0.2-1.2,0.5-1.8c0.2-0.4,0.6-0.4,1-0.4c0.3,0,0.6,0.1,0.9,0.1c0.8,0,1.1,0.6,1.3,1.3
	c0.1,0.6,0.3,1.2,0.2,1.8C214.6,94.7,214.3,95.5,213.2,95.5z M174.9,59.7c-1.1,0-1.7,0-1.8,1.4c0,1.1,0.6,2.1,1.3,2.9
	c0.3,0.3,0.6,0.5,1,0.5c0.8,0,1.6-0.6,1.6-1.4c0-0.1,0-0.3,0-0.4c0,0,0-0.1,0-0.1c0-0.2,0.1-0.4,0.2-0.6
	C177.2,60.8,176.1,59.8,174.9,59.7z M218.8,72.3c0-0.4-0.1-0.7-0.5-0.7c-0.2,0-0.4,0-0.6,0c-0.4,0-0.6-0.4-0.6-0.8
	c0-0.5,0.2-0.9,0.2-1.3l0-0.6c0.1-1.8,0.3-3.7,0.6-5.5c-0.2-0.1-0.5-0.1-0.7-0.1c-0.4,0-0.8,0.1-0.9,0.5c-0.7,2.5-0.6,5.2-0.9,7.8
	c-0.2-0.1-0.7-0.2-0.8-0.3c-1-1.6-1.2-3.8-1.1-5.6c0-0.8,0.1-1.6,0.1-2.4c-0.3-0.2-0.6-0.3-1-0.3c-0.5,0-0.8,0.2-0.8,0.7
	c0,1.1,0,2.3,0,3.4c0.1,1.9,0.3,4,1.5,5.6c0.2,0.2,0.5,0.3,0.8,0.4c0.1,0,0.2,0.1,0.4,0.2c0.2,0.1,0.8,0.1,0.8,0.3
	c0.1,0.2,0.1,1.1,0.1,1.3c0,1.3-0.5,2.2-1.7,2.7l-0.1,0c-0.2,0-0.5-0.2-0.7-0.4c-0.3-0.3-0.5-1.2-0.9-1.2c-0.1,0-0.3,0.1-0.5,0.1
	c-0.4,0.1-0.5,0.4-0.5,0.8c0,1.2,1.2,2,2.3,2c0.5,0,1-0.1,1.4-0.3c2.1-1.1,2.2-2.8,2.5-4.9C217.3,73.1,218.7,73.5,218.8,72.3z
	 M277.8,48.5c-0.2,0-0.4,0-0.6,0c-0.4,0-0.6-0.4-0.6-0.8c0-0.5,0.2-0.9,0.2-1.3l0-0.6c0.1-1.8,0.3-3.7,0.6-5.5
	c-0.2-0.1-0.5-0.1-0.7-0.1c-0.4,0-0.8,0.1-0.9,0.5c-0.7,2.5-0.6,5.2-0.9,7.8c-0.2-0.1-0.7-0.2-0.8-0.3c-1-1.6-1.2-3.8-1.1-5.6
	c0-0.8,0.1-1.6,0.1-2.4c-0.3-0.2-0.6-0.3-1-0.3c-0.5,0-0.8,0.2-0.8,0.7c0,1.1,0,2.3,0,3.4c0.1,1.9,0.3,4,1.5,5.6
	c0.2,0.2,0.5,0.3,0.8,0.4c0.1,0,0.2,0.1,0.4,0.2c0.2,0.1,0.8,0.1,0.8,0.3c0.1,0.2,0.1,1.1,0.1,1.3c0,1.3-0.5,2.2-1.7,2.7l-0.1,0
	c-0.2,0-0.5-0.2-0.7-0.4c-0.3-0.3-0.5-1.2-0.9-1.2c-0.1,0-0.3,0.1-0.5,0.1c-0.4,0.1-0.5,0.4-0.5,0.8c0,1.2,1.2,2,2.3,2
	c0.5,0,1-0.1,1.4-0.3c2.1-1.1,2.2-2.8,2.5-4.9c0.1-0.6,1.5-0.3,1.6-1.4C278.4,48.8,278.3,48.5,277.8,48.5z M287.4,26.2
	c0.7,0.3,1.5,0.8,2.3,0.8c0.2,0,0.4,0,0.6-0.1c1.2-0.2,2.2-1,2.7-2.1c0.2-0.4,0.3-0.9,0.3-1.4c0-0.1,0-0.2,0-0.3
	c0-0.1,0.2-0.1,0.2-0.2c0-0.2,0-0.3,0-0.5c0-0.6,0.1-1.3,0.1-1.9c0-0.5,0-0.9-0.1-1.3c-0.1-0.9-0.1-2.8-1.3-2.8c-0.4,0-1,0.2-1,0.7
	c0,0.1,0,0.2,0,0.3c0.5,1.3,0.7,2.6,0.7,3.9c0,1-0.4,4-1.6,4.3c-0.1,0-0.3,0.1-0.4,0.1c-0.5,0-1.2-0.3-1.4-0.9
	c-0.4-1.1-0.4-2.3-0.4-3.4c0-1,0.2-2,0.2-3.1c0-0.3,0.1-0.7,0.1-1c0-0.4-0.3-0.8-0.8-0.8c-1.1,0-1,1.4-1.1,2.1c0,0.6,0,1.3,0,1.9
	c0,0.8-0.1,1.5-0.1,2.3c0,0.9,0,1.9,0.2,2.8C286.8,25.9,287.1,26,287.4,26.2z M272.6,30.8c0.5,0,1-0.1,1.4-0.3
	c2.1-1.1,2.2-2.8,2.5-4.9c0.1-0.6,1.5-0.3,1.6-1.4c0-0.4-0.1-0.7-0.5-0.7c-0.2,0-0.4,0-0.6,0c-0.4,0-0.6-0.4-0.6-0.8
	c0-0.5,0.2-0.9,0.2-1.3l0-0.6c0.1-1.8,0.3-3.7,0.6-5.5c-0.2-0.1-0.5-0.1-0.8-0.1c-0.4,0-0.8,0.1-0.9,0.5c-0.7,2.5-0.6,5.2-0.9,7.8
	c-0.2-0.1-0.7-0.2-0.8-0.3c-1-1.6-1.2-3.8-1.1-5.6c0-0.8,0.1-1.6,0.1-2.4c-0.3-0.2-0.6-0.3-0.9-0.3c-0.5,0-0.8,0.2-0.8,0.7
	c0,1.1,0,2.3,0,3.4c0.1,1.9,0.3,4,1.5,5.6c0.2,0.2,0.5,0.3,0.8,0.4c0.1,0,0.2,0.1,0.4,0.2c0.2,0.1,0.8,0.1,0.8,0.3
	c0.1,0.2,0.1,1.1,0.1,1.3c0,1.3-0.5,2.2-1.7,2.7l-0.1,0c-0.2,0-0.5-0.2-0.7-0.4c-0.3-0.3-0.5-1.2-0.9-1.2c-0.1,0-0.3,0.1-0.5,0.1
	c-0.4,0.1-0.5,0.4-0.5,0.8C270.3,30,271.6,30.7,272.6,30.8z M298.3,50.8c-0.1-0.6-0.8-1.4-1.5-1.4c-0.3,0-0.6,0.1-0.7,0.3
	c-0.2,0.2-0.3,0.4-0.5,0.5c-0.4,0.4-1,1-1.1,1.6c0,0.8,1.1,1.3,1.8,1.4c1.1,0,2-0.7,2-1.8C298.3,51.2,298.3,51,298.3,50.8z
	 M260.9,40.8c-0.9,0-2,0.1-2.8,0.5c-0.7,0.3-1.2,0.9-1.4,1.7c-0.2,0.6-0.3,1.2-0.3,1.7c0,0.9,0.2,1.7,0.9,2.4c0.9,0.8,2,1.4,3.2,1.5
	c0.8,0,1.7-0.1,2.3-0.6c0.9-0.7,1.3-1.7,1.3-2.8c0-1.1-0.3-2.3-0.8-3.3C263,40.9,261.7,40.8,260.9,40.8z M260.8,47
	c-1.4,0-2.5-1.2-2.5-2.7c0-0.6,0.2-1.2,0.5-1.8c0.2-0.4,0.6-0.4,1-0.4c0.3,0,0.6,0.1,0.9,0.1c0.8,0,1.1,0.6,1.3,1.3
	c0.1,0.6,0.3,1.2,0.2,1.8C262.2,46.2,261.8,47,260.8,47z M296,28.2c1.1,0,2-0.7,2-1.8c0-0.2,0-0.4,0-0.5c-0.1-0.6-0.8-1.4-1.5-1.4
	c-0.3,0-0.6,0.1-0.7,0.3c-0.2,0.2-0.3,0.4-0.5,0.5c-0.4,0.4-1,1-1.1,1.6C294.2,27.6,295.3,28.1,296,28.2z M293.9,44.1
	c-0.1-0.9-0.1-2.8-1.3-2.8c-0.4,0-1,0.2-1,0.7c0,0.1,0,0.2,0,0.3c0.5,1.3,0.7,2.6,0.7,3.9c0,1-0.4,4-1.6,4.3c-0.1,0-0.3,0.1-0.4,0.1
	c-0.5,0-1.2-0.3-1.4-0.9c-0.4-1.1-0.4-2.3-0.4-3.4c0-1,0.2-2,0.2-3.1c0-0.3,0.1-0.7,0.1-1c0-0.4-0.3-0.8-0.8-0.8
	c-1.1,0-1,1.4-1.1,2.1c0,0.6,0,1.3,0,1.9c0,0.8-0.1,1.5-0.1,2.3c0,0.9,0,1.9,0.2,2.8c0.1,0.4,0.3,0.5,0.7,0.7
	c0.7,0.3,1.5,0.8,2.3,0.8c0.2,0,0.4,0,0.6,0c1.2-0.2,2.2-1,2.7-2.2c0.2-0.4,0.3-0.9,0.3-1.4c0-0.1,0-0.2,0-0.3
	c0-0.1,0.2-0.1,0.2-0.2c0-0.2,0-0.3,0-0.5c0-0.6,0.1-1.3,0.1-1.9C294,45,294,44.6,293.9,44.1z M282.4,41.5c-0.9,0-2,0.1-2.8,0.5
	c-0.7,0.3-1.2,0.9-1.4,1.7c-0.2,0.6-0.3,1.2-0.3,1.7c0,0.9,0.2,1.7,0.9,2.4c0.9,0.8,2,1.4,3.2,1.5c0.8,0,1.7-0.1,2.3-0.6
	c0.9-0.7,1.3-1.7,1.3-2.8c0-1.1-0.3-2.3-0.8-3.3C284.5,41.6,283.2,41.5,282.4,41.5z M282.3,47.7c-1.4,0-2.5-1.2-2.5-2.7
	c0-0.6,0.2-1.2,0.5-1.8c0.2-0.4,0.6-0.4,1-0.4c0.3,0,0.6,0.1,0.9,0.1c0.8,0,1.1,0.6,1.3,1.3c0.1,0.6,0.3,1.2,0.2,1.8
	C283.7,46.9,283.3,47.7,282.3,47.7z M232.4,42.2c-0.1-0.9-0.1-2.8-1.3-2.8c-0.4,0-1,0.2-1,0.7c0,0.1,0,0.2,0,0.3
	c0.5,1.3,0.7,2.6,0.7,3.9c0,1-0.4,4-1.6,4.3c-0.1,0-0.3,0.1-0.4,0.1c-0.5,0-1.2-0.3-1.4-0.9c-0.4-1.1-0.4-2.3-0.4-3.4
	c0-1,0.2-2,0.2-3.1c0-0.3,0.1-0.7,0.1-1c0-0.4-0.3-0.8-0.8-0.8c-1.1,0-1,1.4-1.1,2.1c0,0.6,0,1.3,0,1.9c0,0.8-0.1,1.5-0.1,2.3
	c0,0.9,0,1.9,0.2,2.8c0.1,0.4,0.3,0.5,0.7,0.7c0.7,0.3,1.5,0.8,2.3,0.8c0.2,0,0.4,0,0.6-0.1c1.2-0.2,2.2-1,2.7-2.1
	c0.2-0.4,0.3-0.9,0.3-1.4c0-0.1,0-0.2,0-0.3c0-0.1,0.2-0.1,0.2-0.2c0-0.2,0-0.3,0-0.5c0-0.6,0.1-1.3,0.1-1.9
	C232.5,43.1,232.5,42.6,232.4,42.2z M239.9,97.3c-0.2,0-0.4,0-0.6,0c-0.4,0-0.6-0.4-0.6-0.8c0-0.5,0.2-0.9,0.2-1.3l0-0.6
	c0.1-1.8,0.3-3.7,0.6-5.5c-0.2-0.1-0.5-0.1-0.7-0.1c-0.4,0-0.8,0.1-0.9,0.5c-0.7,2.5-0.6,5.2-0.9,7.8c-0.2-0.1-0.7-0.2-0.8-0.3
	c-1-1.6-1.2-3.8-1.1-5.6c0-0.8,0.1-1.6,0.1-2.4c-0.3-0.2-0.6-0.3-1-0.3c-0.5,0-0.8,0.2-0.8,0.7c0,1.1,0,2.3,0,3.4
	c0.1,1.9,0.3,4,1.5,5.6c0.2,0.2,0.5,0.3,0.8,0.4c0.1,0,0.2,0.1,0.4,0.2c0.2,0.1,0.8,0.1,0.8,0.3c0.1,0.2,0.1,1.1,0.1,1.3
	c0,1.3-0.5,2.2-1.7,2.7l-0.1,0c-0.2,0-0.5-0.2-0.7-0.4c-0.3-0.3-0.5-1.2-0.9-1.2c-0.1,0-0.3,0.1-0.5,0.1c-0.4,0.1-0.5,0.4-0.5,0.8
	c0,1.2,1.2,2,2.3,2c0.5,0,1-0.1,1.4-0.3c2.1-1.1,2.2-2.8,2.5-4.9c0.1-0.6,1.5-0.3,1.6-1.4C240.5,97.6,240.4,97.4,239.9,97.3z
	 M225.9,92.6c-1.6-0.1-3.1,0.7-4.7,0.7c-0.2,0-0.4,0-0.6-0.1c-0.2-0.1-0.2-0.4-0.2-0.6c0-0.2,0-0.5,0-0.7c-0.1-0.4-0.2-0.8-0.2-1.2
	c0-1,0.3-2,1.3-2.6c0.1-0.1,0.5-0.2,0.6-0.2c0.3,0,0.3,0.1,0.4,0.2c0.1,0.2,0.3,0.4,0.4,0.6c0.1,0.6,0.1,1.4,0.6,1.8
	c0.2,0.1,0.4,0.2,0.6,0.2c0.6,0,0.7-0.6,0.7-1.1c0-1-0.5-2.1-1.2-2.9c-0.4-0.4-1.3-0.7-1.9-0.7c-0.7,0-1.2,0.3-1.7,0.7
	c-1,0.9-1.6,1.8-1.6,3.2c0,1,0.2,1.9,0.2,2.9c0,0.1,0,0.3,0,0.4c-0.1,0.5-0.9,0.4-1.3,0.7c-0.1,0.2-0.1,0.3-0.1,0.5
	c0,0.6,0.6,0.9,1.1,0.9c0.1,0,0.2,0,0.3,0c0.1,0.4,0.1,0.9,0.1,1.4c0,0.6-0.1,1.3-0.1,1.9c0,0.5,0,1,0.2,1.5
	c0.1,0.3,0.3,0.5,0.7,0.5s1.1-0.1,1.1-0.6c0-0.5,0-1,0-1.4c0-0.5,0.1-0.9,0.1-1.4c0-0.6,0.1-1.3,0-1.9c0,0,0,0,0,0
	c0-0.1,0.1-0.2,0.2-0.2c0.1,0,0.7-0.1,0.9-0.2c0.6-0.1,1.4-0.3,2-0.4c1-0.1,2-0.2,2.8-0.8c0,0,0.2-0.2,0.3-0.2
	c0.1-0.1,0.1-0.2,0.1-0.4C227,92.7,226.4,92.7,225.9,92.6z M244.5,90.3c-0.9,0-2,0.1-2.8,0.5c-0.7,0.3-1.2,0.9-1.4,1.7
	c-0.2,0.6-0.3,1.2-0.3,1.7c0,0.9,0.2,1.7,0.9,2.4c0.9,0.8,2,1.4,3.2,1.5c0.8,0,1.7-0.1,2.3-0.6c0.9-0.7,1.3-1.7,1.3-2.8
	c0-1.1-0.3-2.3-0.8-3.3C246.6,90.5,245.4,90.3,244.5,90.3z M244.4,96.5c-1.4,0-2.5-1.2-2.5-2.7c0-0.6,0.2-1.2,0.5-1.8
	c0.2-0.4,0.6-0.4,1-0.4c0.3,0,0.6,0.1,0.9,0.1c0.8,0,1.1,0.6,1.3,1.3c0.1,0.6,0.3,1.2,0.2,1.8C245.8,95.7,245.4,96.5,244.4,96.5z
	 M259,98.2c-0.3,0-0.6,0.1-0.7,0.3c-0.2,0.2-0.3,0.4-0.5,0.5c-0.4,0.4-1,1-1.1,1.6c0,0.8,1.1,1.3,1.8,1.4c1.1,0,2-0.7,2-1.8
	c0-0.2,0-0.4,0-0.5C260.3,99.1,259.6,98.2,259,98.2z M255.9,44.6c-0.8-0.4-1.8-0.4-2.7-0.5c-0.3,0-0.7,0-1-0.2
	c-0.1-0.1-0.3-0.2-0.3-0.4c0-0.8-0.1-1.6,0-2.4c0-0.4,0-0.8,0.1-1.3c0-0.6-0.2-1-0.8-1.1c-0.3,0-0.7,0.1-0.9,0.4
	c-0.2,0.2-0.2,0.4-0.2,0.6c0,0.1,0,0.3,0,0.4c0,0.4-0.1,0.9-0.1,1.3c0,0.6,0.3,1.2,0.3,1.5c0,0.1,0,0.4-0.1,0.4
	c-1.1,0.7-2.5,0-3.5,0.6c-0.3,0.2-0.5,0.5-0.5,0.9c0,0.5,0.6,0.8,1.1,0.9c0.8,0,1.5-0.4,2.3-0.3c0.1,0,0.2,0,0.3,0
	c0.1,0,0.3,0.2,0.3,0.3l-0.2,5.1c0,0.7,0.3,0.9,1,0.9c1.1,0,1.2-0.6,1.2-1.6c0-1-0.1-2,0-2.9c0-0.5,0.1-1.1,0.3-1.5
	c0.1,0,0.2,0,0.3,0c0.8,0,1.6,0.4,2.5,0.4c0.5,0,1.2-0.2,1.4-0.7c0,0,0-0.1,0-0.2C256.3,45,256.1,44.7,255.9,44.6z M256,92.9
	c-0.1-0.9-0.1-2.8-1.3-2.8c-0.4,0-1,0.2-1,0.7c0,0.1,0,0.2,0,0.3c0.5,1.3,0.7,2.6,0.7,3.9c0,1-0.4,4-1.6,4.3c-0.1,0-0.3,0.1-0.4,0.1
	c-0.5,0-1.2-0.3-1.4-0.9c-0.4-1.1-0.4-2.3-0.4-3.4c0-1,0.2-2,0.2-3.1c0-0.3,0.1-0.7,0.1-1c0-0.4-0.3-0.8-0.8-0.8
	c-1.1,0-1,1.4-1.1,2.1c0,0.6,0,1.3,0,1.9c0,0.8-0.1,1.5-0.1,2.3c0,0.9,0,1.9,0.2,2.8c0.1,0.4,0.3,0.5,0.7,0.7
	c0.7,0.3,1.5,0.8,2.3,0.8c0.2,0,0.4,0,0.6-0.1c1.2-0.2,2.2-1,2.7-2.1c0.2-0.4,0.3-0.9,0.3-1.4c0-0.1,0-0.2,0-0.3
	c0-0.1,0.2-0.1,0.2-0.2c0-0.2,0-0.3,0-0.5c0-0.6,0.1-1.3,0.1-1.9C256.1,93.8,256.1,93.4,256,92.9z M211.3,68.9c0,0,0-0.1,0-0.2
	c0-0.2-0.2-0.5-0.4-0.6c-0.8-0.4-1.8-0.4-2.7-0.5c-0.3,0-0.7,0-1-0.2c-0.1-0.1-0.3-0.2-0.3-0.4c0-0.8-0.1-1.6,0-2.4
	c0-0.4,0-0.8,0.1-1.3c0-0.6-0.2-1-0.8-1.1c-0.3,0-0.7,0.1-0.9,0.4c-0.2,0.2-0.2,0.4-0.2,0.6c0,0.1,0,0.3,0,0.4
	c0,0.4-0.1,0.9-0.1,1.3c0,0.6,0.3,1.2,0.3,1.5c0,0.1,0,0.4-0.1,0.4c-1.1,0.7-2.5,0-3.5,0.6c-0.3,0.2-0.5,0.5-0.5,0.9
	c0,0.5,0.6,0.8,1.1,0.9c0.8,0,1.5-0.4,2.3-0.3c0.1,0,0.2,0,0.3,0c0.1,0,0.3,0.2,0.3,0.3l-0.2,5.1c0,0.7,0.3,0.9,1,0.9
	c1.1,0,1.2-0.6,1.2-1.6c0-1-0.1-2,0-2.9c0-0.5,0.1-1.1,0.3-1.5c0.1,0,0.2,0,0.3,0c0.8,0,1.6,0.4,2.5,0.4
	C210.4,69.7,211,69.5,211.3,68.9z M63.7,86.8c-0.1-0.9-0.1-2.8-1.3-2.8c-0.4,0-1,0.2-1,0.7c0,0.1,0,0.2,0,0.3
	c0.5,1.3,0.7,2.6,0.6,3.9c0,1-0.4,4-1.6,4.3c-0.1,0-0.3,0.1-0.4,0.1c-0.5,0-1.2-0.3-1.4-0.9c-0.4-1.1-0.4-2.3-0.4-3.4
	c0-1,0.2-2,0.2-3.1c0-0.3,0.1-0.7,0.1-1c0-0.4-0.3-0.8-0.8-0.8c-1.1,0-1,1.4-1.1,2.1c0,0.6,0,1.3,0,1.9c0,0.8-0.1,1.5-0.1,2.3
	c0,0.9,0,1.9,0.2,2.8c0.1,0.4,0.3,0.5,0.7,0.7c0.7,0.3,1.5,0.8,2.3,0.8c0.2,0,0.4,0,0.6-0.1c1.2-0.2,2.2-1,2.7-2.1
	c0.2-0.4,0.3-0.9,0.3-1.4c0-0.1,0-0.2,0-0.3c0-0.1,0.2-0.1,0.2-0.2c0-0.2,0-0.3,0-0.5c0-0.6,0.1-1.3,0.1-1.9
	C63.8,87.7,63.8,87.3,63.7,86.8z M55.9,11.5c-0.1-0.9-0.1-2.8-1.3-2.8c-0.4,0-1,0.2-1,0.7c0,0.1,0,0.2,0,0.3
	c0.5,1.3,0.7,2.6,0.6,3.9c0,1-0.4,4-1.6,4.3c-0.1,0-0.3,0.1-0.4,0.1c-0.5,0-1.2-0.3-1.4-0.9c-0.4-1.1-0.4-2.3-0.4-3.4
	c0-1,0.2-2,0.2-3.1c0-0.3,0.1-0.7,0.1-1c0-0.4-0.3-0.8-0.8-0.8c-1.1,0-1,1.4-1.1,2.1c0,0.6,0,1.3,0,1.9c0,0.8-0.1,1.5-0.1,2.3
	c0,0.9,0,1.9,0.2,2.8c0.1,0.4,0.3,0.5,0.7,0.7c0.7,0.3,1.5,0.8,2.3,0.8c0.2,0,0.4,0,0.6,0c1.2-0.2,2.2-1,2.7-2.2
	c0.2-0.4,0.3-0.9,0.3-1.4c0-0.1,0-0.2,0-0.3c0-0.1,0.2-0.1,0.2-0.2c0-0.2,0-0.3,0-0.5c0-0.6,0.1-1.3,0.1-1.9
	C56,12.4,56,12,55.9,11.5z M70.4,38.9c0,0,0.2-0.2,0.3-0.2c0.1-0.1,0.1-0.2,0.1-0.4c0-0.6-0.6-0.7-1-0.7c-1.6-0.1-3.1,0.7-4.7,0.7
	c-0.2,0-0.4,0-0.6-0.1c-0.2-0.1-0.2-0.4-0.2-0.6c0-0.2,0-0.5,0-0.7C64,36.6,64,36.2,64,35.8c0-1,0.3-2,1.3-2.6
	c0.1-0.1,0.5-0.2,0.6-0.2c0.3,0,0.3,0.1,0.4,0.2c0.1,0.2,0.3,0.4,0.4,0.6c0.1,0.6,0.1,1.4,0.6,1.8c0.2,0.1,0.4,0.2,0.6,0.2
	c0.6,0,0.7-0.6,0.7-1.1c0-1-0.5-2.1-1.2-2.9c-0.4-0.4-1.3-0.7-1.9-0.7c-0.7,0-1.2,0.3-1.7,0.7c-1,0.9-1.6,1.8-1.6,3.2
	c0,1,0.2,1.9,0.2,2.9c0,0.1,0,0.3,0,0.4c-0.1,0.5-0.9,0.4-1.3,0.7C61,39.3,61,39.5,61,39.7c0,0.6,0.6,0.9,1.1,0.9c0.1,0,0.2,0,0.3,0
	c0.1,0.4,0.1,0.9,0.1,1.4c0,0.6-0.1,1.3-0.1,1.9c0,0.5,0,1,0.2,1.5c0.1,0.3,0.3,0.5,0.7,0.5c0.4,0,1.1-0.1,1.1-0.6c0-0.5,0-1,0-1.4
	c0-0.5,0.1-0.9,0.1-1.4c0-0.6,0.1-1.3,0-1.9c0,0,0,0,0,0c0-0.1,0.1-0.2,0.2-0.2c0.1,0,0.7-0.1,0.9-0.2c0.6-0.1,1.4-0.3,2-0.4
	C68.5,39.5,69.5,39.5,70.4,38.9z M148.4,67.7c0-1.4-0.3-3.1-1.5-3.9c-0.3-0.2-1.2-0.6-1.6-0.6c-0.3,0-0.5,0-0.8,0
	c-0.3,0-0.6-0.1-0.6-0.4c0-0.2,0.1-0.4,0.1-0.5c0-0.4-0.6-0.6-0.9-0.6c-0.3,0-0.6,0.1-0.6,0.4c-0.1,0.6-0.1,1.3-0.2,1.9
	c-0.1,2.2,0.2,4.4,0.1,6.6c0,0.2,0,0.3,0,0.5c0,0.2-0.1,0.4-0.1,0.6l0,0.5c0,0.8-0.2,1.6-0.2,2.4c0,0.5,0,1,0.1,1.5
	c0.1,0.3,0.3,0.4,0.6,0.4c0.8,0,1-0.6,1-1.2c0-0.4,0-0.8,0-1.3c0-0.2,0-0.4,0.1-0.7c0.1-0.1,0-0.2,0.2-0.2
	C146.6,72.1,148.3,70.4,148.4,67.7z M146.4,69.4c-0.1,0.3-0.5,0.8-0.7,1c-0.1,0.1-0.2,0.2-0.3,0.2c-0.3,0.3-0.6,0.7-1.1,0.7
	c-0.3,0-0.4-0.1-0.4-0.5c0-0.2,0.1-0.4,0.1-0.7c0.1-1.6-0.1-3.3-0.1-4.9l0-0.6c0.2-0.1,0.4-0.1,0.6-0.1c0.8,0,1.8,0.8,2,1.5
	c0.2,0.5,0.3,1.1,0.2,1.6C146.8,67.9,146.5,69.2,146.4,69.4z M74.9,81.6c-0.4,0-0.8,0.1-1,0.5c-0.3,0.8-0.4,1.8-0.4,2.7
	c0,0.6,0,1.2,0,1.8c0,0.3,0,0.6-0.1,1c-0.2,2.1-0.5,4.3-0.5,6.4c0,0.5-0.1,1,0,1.5c0,0.2,0.5,0.6,0.6,0.7c0-0.1,0.1-0.2,0.2-0.2
	c0.1,0,0.2,0.2,0.4,0.2c0.1,0,0.7-0.4,0.7-0.5c0.2-0.8,0.3-1.7,0.4-2.5c0.2-2,0.4-4,0.4-5.9c0-1.2,0.1-2.3,0-3.5c0-0.5,0-1.1,0-1.7
	C75.5,81.7,75.2,81.6,74.9,81.6z M68.8,81.5c0-0.1-0.1-0.2-0.2-0.2c-0.3,0-0.6,0.2-0.8,0.4c-0.2,0.3-0.3,0.6-0.3,1
	c0,0.3,0,0.5,0,0.8c0,0.4-0.2,0.8-0.2,1.2c0,0.4,0.2,0.8,0.6,0.8c0.4,0,0.8-0.5,0.9-0.8c0.2-0.5,0.3-0.9,0.3-1.4
	C69.1,82.7,69,82.1,68.8,81.5z M47.6,91.2c-0.2,0-0.4,0-0.6,0c-0.4,0-0.6-0.4-0.6-0.8c0-0.5,0.2-0.9,0.2-1.3l0-0.6
	c0.1-1.8,0.3-3.7,0.6-5.5c-0.2-0.1-0.5-0.1-0.7-0.1c-0.4,0-0.8,0.1-0.9,0.5c-0.7,2.5-0.6,5.2-0.9,7.8c-0.2-0.1-0.7-0.2-0.8-0.3
	c-1-1.6-1.2-3.8-1.1-5.6c0-0.8,0.1-1.6,0.1-2.4c-0.3-0.2-0.6-0.3-0.9-0.3c-0.5,0-0.8,0.2-0.8,0.7c0,1.1,0,2.3,0,3.4
	c0.1,1.9,0.3,4,1.5,5.6c0.2,0.2,0.5,0.3,0.8,0.4c0.1,0,0.2,0.1,0.4,0.2c0.2,0.1,0.8,0.1,0.8,0.3c0.1,0.2,0.1,1.1,0.1,1.3
	c0,1.3-0.5,2.2-1.7,2.7l-0.1,0c-0.2,0-0.5-0.2-0.7-0.4c-0.3-0.3-0.5-1.2-0.9-1.2c-0.1,0-0.3,0.1-0.5,0.1c-0.4,0.1-0.5,0.4-0.5,0.8
	c0,1.2,1.2,2,2.3,2c0.5,0,1-0.1,1.4-0.3c2.1-1.1,2.2-2.8,2.5-4.9c0.1-0.6,1.5-0.3,1.6-1.4C48.2,91.5,48.1,91.2,47.6,91.2z M71,81.4
	c-0.4,0-0.8,0.1-1,0.5c-0.3,0.8-0.4,1.8-0.4,2.7c0,0.6,0,1.2,0,1.8c0,0.3,0,0.6-0.1,1c-0.2,2.1-0.5,4.3-0.5,6.4c0,0.5-0.1,1,0,1.5
	c0,0.2,0.5,0.6,0.6,0.7c0-0.1,0.1-0.2,0.2-0.2c0.1,0,0.2,0.2,0.4,0.2c0.1,0,0.7-0.4,0.7-0.5c0.2-0.8,0.3-1.7,0.4-2.5
	c0.2-2,0.4-4,0.4-5.9c0-1.2,0.1-2.3,0-3.5c0-0.5,0-1.1,0-1.7C71.6,81.6,71.3,81.4,71,81.4z M52.2,84.1c-0.9,0-2,0.1-2.8,0.5
	c-0.7,0.3-1.2,0.9-1.4,1.7c-0.2,0.6-0.3,1.2-0.3,1.7c0,0.9,0.2,1.7,0.9,2.4c0.9,0.8,2,1.4,3.2,1.5c0.8,0,1.7-0.1,2.3-0.6
	c0.9-0.7,1.3-1.7,1.3-2.8c0-1.1-0.3-2.3-0.8-3.3C54.3,84.3,53,84.2,52.2,84.1z M52.1,90.4c-1.4,0-2.5-1.2-2.5-2.7
	c0-0.6,0.2-1.2,0.5-1.8c0.2-0.4,0.6-0.4,1-0.4c0.3,0,0.6,0.1,0.9,0.1c0.8,0,1.1,0.6,1.3,1.3c0.1,0.6,0.3,1.2,0.2,1.8
	C53.5,89.6,53.1,90.4,52.1,90.4z M8.8,17.9c0.2,0,0.5,0,0.7,0c0.3,0,1,0,1.3,0c0.3,0,0.6-0.1,0.5,0.2c0,0.6,0.5,0.6,1,0.6
	c0.4,0,0.8,0,0.9-0.4c0.1-0.4,0.4-0.4,0.8-0.5c0.9,0,2.8,0.3,2.8-0.8c0.2-1.3-2-0.7-2.9-0.8c-0.3-0.1-0.5-0.4-0.5-0.7l0-0.5
	c0.1-1.7-0.2-4.5-0.1-6.2c0-0.2,0-0.4,0-0.6c0-0.2,0.3-0.5,0.5-0.5c0.5,0,1.1,0.1,1.7,0.2c0.4,0,1.5-0.1,1.5-0.6c0-0.1,0-0.7,0-0.8
	c-0.3-0.4-0.8-0.5-1.2-0.5c-0.6,0-1.6,0.4-2-0.1c-0.5-0.7-0.6-0.8-1.1-0.7c-0.6,0-1,0.2-1.1,0.5S11.2,6.1,11,6.2c-0.2,0-0.3,0-0.5,0
	l-0.4,0.1C9.6,6.4,8.6,6.4,8.3,6.8c0,0,0,0.1,0,0.1c0,0.6,0,1.3,0.6,1.3c0.7,0,1.8-0.2,2.5-0.2c0.3,0,0.4,0.2,0.4,0.4
	c0,0.2,0,0.4,0,0.6c0,1.4,0,3.6,0,5c0,0.6-0.1,1.1-0.2,1.7c-0.3,0.1-0.7,0.2-1,0.3c-0.6,0-2.7-0.4-2.7,1C7.7,17.9,8.3,17.9,8.8,17.9
	z M35,23.2c0.5,0,1-0.1,1.4-0.3c2.1-1.1,2.2-2.8,2.5-4.9c0.1-0.6,1.5-0.3,1.6-1.4c0-0.4-0.1-0.7-0.5-0.7c-0.2,0-0.4,0-0.6,0
	c-0.4,0-0.6-0.4-0.6-0.8c0-0.5,0.2-0.9,0.2-1.3l0-0.6c0.1-1.8,0.3-3.7,0.6-5.5c-0.2-0.1-0.5-0.1-0.7-0.1c-0.4,0-0.8,0.1-0.9,0.5
	c-0.7,2.5-0.6,5.2-0.9,7.8c-0.2-0.1-0.7-0.2-0.8-0.3c-1-1.6-1.2-3.8-1.1-5.6c0-0.8,0.1-1.6,0.1-2.4c-0.3-0.2-0.6-0.3-0.9-0.3
	c-0.5,0-0.8,0.2-0.8,0.7c0,1.1,0,2.3,0,3.4c0.1,1.9,0.3,4,1.5,5.6c0.2,0.2,0.5,0.3,0.8,0.4c0.1,0,0.2,0.1,0.4,0.2
	c0.2,0.1,0.8,0.1,0.8,0.3c0.1,0.2,0.1,1.1,0.1,1.3c0,1.3-0.5,2.2-1.7,2.7l-0.1,0c-0.2,0-0.5-0.2-0.7-0.4c-0.3-0.3-0.5-1.2-0.9-1.2
	c-0.1,0-0.3,0.1-0.5,0.1c-0.4,0.1-0.5,0.4-0.5,0.8C32.6,22.4,33.9,23.2,35,23.2z M44.5,40.9c0.9-0.7,1.3-1.7,1.3-2.8
	c0-1.1-0.3-2.3-0.8-3.3c-0.4-0.8-1.6-1-2.5-1c-0.9,0-2,0.1-2.8,0.5c-0.7,0.3-1.2,0.9-1.4,1.7c-0.2,0.6-0.3,1.2-0.3,1.7
	c0,0.9,0.2,1.7,0.9,2.4c0.9,0.8,2,1.4,3.2,1.5C43,41.5,43.8,41.4,44.5,40.9z M40,37.4c0-0.6,0.2-1.2,0.5-1.8c0.2-0.4,0.6-0.4,1-0.4
	c0.3,0,0.6,0.1,0.9,0.1c0.8,0,1.1,0.6,1.3,1.3c0.1,0.6,0.3,1.2,0.2,1.8c0,0.9-0.4,1.7-1.4,1.7C41.1,40,40,38.8,40,37.4z M14,31
	c-0.6,0-1.6,0.4-2-0.1c-0.5-0.7-0.6-0.8-1.1-0.7c-0.6,0-1,0.2-1.1,0.5s-0.4,0.4-0.7,0.5c-0.2,0-0.3,0-0.5,0l-0.4,0.1
	c-0.5,0.1-1.4,0.2-1.8,0.6c0,0,0,0.1,0,0.1c0,0.6,0,1.3,0.6,1.3c0.7,0,1.8-0.2,2.5-0.2c0.3,0,0.4,0.2,0.4,0.4c0,0.2,0,0.4,0,0.6
	c0,1.4,0,3.6,0,5c0,0.6-0.1,1.1-0.2,1.7C9.3,41,9,41,8.6,41.1c-0.6,0-2.7-0.4-2.7,1c0,0.8,0.5,0.8,1,0.9c0.2,0,0.5,0,0.7,0
	c0.3,0,1,0,1.3,0c0.3,0,0.6-0.1,0.5,0.2c0,0.6,0.5,0.6,1,0.6c0.4,0,0.8,0,0.9-0.4c0.1-0.4,0.4-0.4,0.8-0.5c0.9,0,2.8,0.3,2.8-0.8
	c0.2-1.3-2-0.7-2.9-0.8c-0.3-0.1-0.5-0.4-0.5-0.7l0-0.5c0.1-1.7-0.2-4.5-0.1-6.2c0-0.2,0-0.4,0-0.6c0-0.2,0.3-0.5,0.5-0.5
	c0.5,0,1.1,0.1,1.7,0.2c0.4,0,1.5-0.1,1.5-0.6c0-0.1,0-0.7,0-0.8C14.9,31,14.5,31,14,31z M38,40.9c-0.2,0-0.4,0-0.6,0
	c-0.4,0-0.6-0.4-0.6-0.8c0-0.5,0.2-0.9,0.2-1.3l0-0.6c0.1-1.8,0.3-3.7,0.6-5.5c-0.2-0.1-0.5-0.1-0.7-0.1c-0.4,0-0.8,0.1-0.9,0.5
	c-0.7,2.5-0.6,5.2-0.9,7.8c-0.2-0.1-0.7-0.2-0.8-0.3c-1-1.6-1.2-3.8-1.1-5.6c0-0.8,0.1-1.6,0.1-2.4c-0.3-0.2-0.6-0.3-0.9-0.3
	c-0.5,0-0.8,0.2-0.8,0.7c0,1.1,0,2.3,0,3.4c0.1,1.9,0.3,4,1.5,5.6c0.2,0.2,0.5,0.3,0.8,0.4c0.1,0,0.2,0.1,0.4,0.2
	c0.2,0.1,0.8,0.1,0.8,0.3c0.1,0.2,0.1,1.1,0.1,1.3c0,1.3-0.5,2.2-1.7,2.7l-0.1,0c-0.2,0-0.5-0.2-0.7-0.4c-0.3-0.3-0.5-1.2-0.9-1.2
	c-0.1,0-0.3,0.1-0.5,0.1c-0.4,0.1-0.5,0.4-0.5,0.8c0,1.2,1.2,2,2.3,2c0.5,0,1-0.1,1.4-0.3c2.1-1.1,2.2-2.8,2.5-4.9
	c0.1-0.6,1.5-0.3,1.6-1.4C38.6,41.1,38.5,40.9,38,40.9z M24,36.2c-1.6-0.1-3.1,0.7-4.7,0.7c-0.2,0-0.4,0-0.6-0.1
	c-0.2-0.1-0.2-0.4-0.2-0.6c0-0.2,0-0.5,0-0.7c-0.1-0.4-0.2-0.8-0.2-1.2c0-1,0.3-2,1.3-2.6c0.1-0.1,0.5-0.2,0.6-0.2
	c0.3,0,0.3,0.1,0.4,0.2c0.1,0.2,0.3,0.4,0.4,0.6c0.1,0.6,0.1,1.4,0.6,1.8c0.2,0.1,0.4,0.2,0.6,0.2c0.6,0,0.7-0.6,0.7-1.1
	c0-1-0.5-2.1-1.2-2.9c-0.4-0.4-1.3-0.7-1.9-0.7c-0.7,0-1.2,0.3-1.7,0.7c-1,0.9-1.6,1.8-1.6,3.2c0,1,0.2,1.9,0.2,2.9
	c0,0.1,0,0.3,0,0.4c-0.1,0.5-0.9,0.4-1.3,0.7c-0.1,0.2-0.1,0.3-0.1,0.5c0,0.6,0.6,0.9,1.1,0.9c0.1,0,0.2,0,0.3,0
	c0.1,0.4,0.1,0.9,0.1,1.4c0,0.6-0.1,1.3-0.1,1.9c0,0.5,0,1,0.2,1.5c0.1,0.3,0.3,0.5,0.7,0.5s1.1-0.1,1.1-0.6c0-0.5,0-1,0-1.4
	c0-0.5,0.1-0.9,0.1-1.4c0-0.6,0.1-1.3,0-1.9c0,0,0,0,0,0c0-0.1,0.1-0.2,0.2-0.2c0.1,0,0.7-0.1,0.9-0.2c0.6-0.1,1.4-0.3,2-0.4
	c1-0.1,2-0.2,2.8-0.8c0,0,0.2-0.2,0.3-0.2c0.1-0.1,0.1-0.2,0.1-0.4C25,36.2,24.4,36.2,24,36.2z M25.8,11.2c-1.6-0.1-3.1,0.7-4.7,0.7
	c-0.2,0-0.4,0-0.6-0.1c-0.2-0.1-0.2-0.4-0.2-0.6c0-0.2,0-0.5,0-0.7c-0.1-0.4-0.2-0.8-0.2-1.2c0-1,0.3-2,1.3-2.6
	c0.1-0.1,0.5-0.2,0.6-0.2c0.3,0,0.3,0.1,0.4,0.2c0.1,0.2,0.3,0.4,0.4,0.6c0.1,0.6,0.1,1.4,0.6,1.8c0.2,0.1,0.4,0.2,0.6,0.2
	c0.6,0,0.7-0.6,0.7-1.1c0-1-0.5-2.1-1.2-2.9c-0.4-0.4-1.3-0.7-1.9-0.7c-0.7,0-1.2,0.3-1.7,0.7c-1,0.9-1.6,1.8-1.6,3.2
	c0,1,0.2,1.9,0.2,2.9c0,0.1,0,0.3,0,0.4c-0.1,0.5-0.9,0.4-1.3,0.7c-0.1,0.2-0.1,0.3-0.1,0.5c0,0.6,0.6,0.9,1.1,0.9
	c0.1,0,0.2,0,0.3,0c0.1,0.4,0.1,0.9,0.1,1.4c0,0.6-0.1,1.3-0.1,1.9c0,0.5,0,1,0.2,1.5c0.1,0.3,0.3,0.5,0.7,0.5
	c0.4,0,1.1-0.1,1.1-0.6c0-0.5,0-1,0-1.4c0-0.5,0.1-0.9,0.1-1.4c0-0.6,0.1-1.3,0-1.9c0,0,0,0,0,0c0-0.1,0.1-0.2,0.2-0.2
	c0.1,0,0.7-0.1,0.9-0.2c0.6-0.1,1.4-0.3,2-0.4c1-0.1,2-0.2,2.8-0.8c0,0,0.2-0.2,0.3-0.2c0.1-0.1,0.1-0.2,0.1-0.4
	C26.9,11.3,26.3,11.3,25.8,11.2z M78.6,38.3c-0.1-0.2,0-0.9-0.1-1.2C78.3,36,78,35.7,77.4,35c-0.2-0.2-0.6-0.3-0.8-0.4
	c-0.3-0.1-0.7-0.2-1-0.2c-2.3-0.1-3.3,2.8-3.6,4.7c-0.1,0.7-0.3,1.4-0.3,2c0,1.5,0.5,3.3,2,4.2c0.6,0.3,1.3,0.7,2.1,0.8
	c0.8,0.1,1.5-0.4,2.2-0.8c0.7-0.5,1-1.3,1.1-2.1c0-0.7,0-1.3-0.9-1.3c-0.1,0-0.2,0-0.3,0c-0.2,0.1-0.6,0.3-0.7,0.5
	c0,0.2,0,0.4,0,0.6c0,0.1,0,0.2-0.1,0.3c-0.1,0.6-0.7,1-1.3,0.9c-0.6,0-1.2-0.5-1.6-0.9c-0.5-0.4-0.6-0.9-0.7-1.5
	c0-0.5-0.2-1-0.1-1.5c0-0.3,0.1-0.7,0.3-0.9c0.2,0,0.3,0,0.5,0c1,0,2,0.3,3,0.3c0.4,0,1.2,0.1,1.6-0.1c0.3-0.1,0.6-0.5,0.6-0.9
	c0-0.1,0-0.2,0-0.2C79.3,38.5,78.8,38.4,78.6,38.3z M76.5,38.2c-0.6,0-1.2-0.3-1.9-0.3c-0.1,0-0.2-0.2-0.2-0.3
	c0-0.4,0.6-1.6,1.1-1.6c0.1,0,0.6,0,0.7,0.1c0.4,0.4,0.5,0,0.7,1.8C76.9,38,76.6,38.2,76.5,38.2z M112.2,93.4c-0.1,0-0.2,0-0.3,0.1
	c-0.5,0.2-1.7,0.6-2.2,0.6c-0.2,0-0.4-0.1-0.6-0.2c-0.9-0.6-1.2-1.7-1.2-2.8c0-0.5,0.1-1,0.2-1.6c0.1-0.5,0.1-1,0.7-1.1
	c0.1,0,0.2,0,0.3,0c1,0,1.6,0.9,2.3,0.9c0.5,0,0.9-0.2,1-0.7c0-0.3-0.2-0.6-0.5-0.8c-0.8-0.5-2-1.2-3-1.3c-0.5,0-0.9,0.2-1.4,0.5
	c-1.1,0.9-1.4,2-1.4,3.3c-0.1,2.5,0.7,5.5,3.7,5.6c0.9,0,1.7-0.2,2.5-0.6c0.4-0.2,0.7-0.6,0.7-1C113,93.8,112.6,93.4,112.2,93.4z
	 M112.2,64.3c-0.1-0.2,0-0.9-0.1-1.2c-0.3-1.1-0.6-1.4-1.1-2.1c-0.2-0.2-0.6-0.3-0.8-0.4c-0.3-0.1-0.7-0.2-1-0.2
	c-2.3-0.1-3.3,2.8-3.6,4.7c-0.1,0.7-0.3,1.4-0.3,2c0,1.5,0.5,3.3,2,4.2c0.6,0.3,1.3,0.7,2.1,0.8c0.8,0.1,1.5-0.4,2.2-0.8
	c0.7-0.5,1-1.3,1.1-2.1c0-0.7,0-1.3-0.9-1.3c-0.1,0-0.2,0-0.3,0c-0.2,0.1-0.6,0.3-0.7,0.5c0,0.2,0,0.4,0,0.6c0,0.1,0,0.2-0.1,0.3
	c-0.1,0.6-0.7,1-1.3,0.9c-0.6,0-1.2-0.5-1.6-0.9c-0.5-0.4-0.6-0.9-0.7-1.5c0-0.5-0.2-1-0.1-1.5c0-0.3,0.1-0.7,0.3-0.9
	c0.2,0,0.3,0,0.5,0c1,0,2,0.3,3,0.3c0.4,0,1.2,0.1,1.6-0.1c0.3-0.1,0.6-0.5,0.6-0.9c0-0.1,0-0.2,0-0.2
	C112.9,64.6,112.4,64.5,112.2,64.3z M110.1,64.3c-0.6,0-1.2-0.3-1.9-0.3c-0.1,0-0.2-0.2-0.2-0.3c0-0.4,0.6-1.6,1.1-1.6
	c0.1,0,0.6,0,0.7,0.1c0.4,0.4,0.5,0,0.7,1.8C110.5,64.1,110.2,64.3,110.1,64.3z M125.7,62.9c0.2-0.2,0.4-0.4,0.4-0.6
	c0-0.3-0.2-0.5-0.5-0.5c-0.1,0-0.2,0-0.3,0c-1.1,0.2-2.3,1.6-3.2,2.3c-0.2-0.3-0.2-0.6-0.2-1c0-0.5,0.1-1,0.2-1.5
	c0-0.3-0.4-0.2-0.6-0.4c-0.2,0.2-0.8,0.1-0.9,0.4c0,0.1-0.3,0.5-0.3,0.6c0,0.2,0,0.4,0,0.5c0,0.9,0.2,1.9,0.2,2.8
	c0,1.2-1.4,1.7-1.4,2.5c0,0.3,0.2,0.8,0.5,0.8c0.2,0,0.4-0.2,0.6-0.2c0.2,0,0.2,0.8,0.2,0.9c0,0.6-0.2,1.2-0.2,1.8
	c0,0.3,0,0.6,0.1,1c0.2,0.3,0.1,0.3,0.5,0.4c1.1,0,1.2-0.8,1.2-1.7c0-0.8,0-1.6,0-2.5c0-0.6,0.1-1.2,0.3-1.8
	C122.8,64.9,124.3,63.9,125.7,62.9z M110.6,36c-0.9,0-2,0.1-2.8,0.5c-0.7,0.3-1.2,0.9-1.4,1.7c-0.2,0.6-0.3,1.2-0.3,1.7
	c0,0.9,0.2,1.7,0.9,2.4c0.9,0.8,2,1.4,3.2,1.5c0.8,0,1.7-0.1,2.3-0.6c0.9-0.7,1.3-1.7,1.3-2.8c0-1.1-0.3-2.3-0.8-3.3
	C112.7,36.2,111.5,36,110.6,36z M110.5,42.2c-1.4,0-2.5-1.2-2.5-2.7c0-0.6,0.2-1.2,0.5-1.8c0.2-0.4,0.6-0.4,1-0.4
	c0.3,0,0.6,0.1,0.9,0.1c0.8,0,1.1,0.6,1.3,1.3c0.1,0.6,0.3,1.2,0.2,1.8C111.9,41.4,111.5,42.2,110.5,42.2z M83.1,14.3
	c0-1.1-0.3-2.3-0.8-3.3c-0.4-0.8-1.6-1-2.5-1c-0.9,0-2,0.1-2.8,0.5c-0.7,0.3-1.2,0.9-1.4,1.7c-0.2,0.6-0.3,1.2-0.3,1.7
	c0,0.9,0.2,1.7,0.9,2.4c0.9,0.8,2,1.4,3.2,1.5c0.8,0,1.7-0.1,2.3-0.6C82.7,16.4,83.1,15.4,83.1,14.3z M79.8,16.2
	c-1.4,0-2.5-1.2-2.5-2.7c0-0.6,0.2-1.2,0.5-1.8c0.2-0.4,0.6-0.4,1-0.4c0.3,0,0.6,0.1,0.9,0.1c0.8,0,1.1,0.6,1.3,1.3
	c0.1,0.6,0.3,1.2,0.2,1.8C81.2,15.4,80.8,16.3,79.8,16.2z M130.2,89.9c-0.1-0.2,0-0.9-0.1-1.2c-0.3-1.1-0.6-1.4-1.1-2.1
	c-0.2-0.2-0.6-0.3-0.8-0.4c-0.3-0.1-0.7-0.2-1-0.2c-2.3-0.1-3.3,2.8-3.6,4.7c-0.1,0.7-0.3,1.4-0.3,2c0,1.5,0.5,3.3,2,4.2
	c0.6,0.3,1.3,0.7,2.1,0.8c0.8,0.1,1.5-0.4,2.2-0.8c0.7-0.5,1-1.3,1.1-2.1c0-0.7,0-1.3-0.9-1.3c-0.1,0-0.2,0-0.3,0
	c-0.2,0.1-0.6,0.3-0.7,0.5c0,0.2,0,0.4,0,0.6c0,0.1,0,0.2-0.1,0.3c-0.1,0.6-0.7,1-1.3,0.9c-0.6,0-1.2-0.5-1.6-0.9
	c-0.5-0.4-0.6-0.9-0.7-1.5c0-0.5-0.2-1-0.1-1.5c0-0.3,0.1-0.7,0.3-0.9c0.2,0,0.3,0,0.5,0c1,0,2,0.3,3,0.3c0.4,0,1.2,0.1,1.6-0.1
	c0.3-0.1,0.6-0.5,0.6-0.9c0-0.1,0-0.2,0-0.2C130.9,90.2,130.3,90.1,130.2,89.9z M128.1,89.9c-0.6,0-1.2-0.3-1.9-0.3
	c-0.1,0-0.2-0.2-0.2-0.3c0-0.4,0.6-1.6,1.1-1.6c0.1,0,0.6,0,0.7,0.1c0.4,0.4,0.5,0,0.7,1.8C128.5,89.7,128.2,89.9,128.1,89.9z
	 M138.1,84c-0.1-0.3-0.4-0.4-0.7-0.5c-0.9,0-1.1,0.6-1.1,1.4c0,0.5,0,0.9,0,1.4c0,0.3,0,0.5-0.1,0.7c-0.1,0.2,0,0.2-0.2,0.3
	c-2.8,0.9-4.7,2.8-4.8,5.8c0,1.5,0.3,3.5,1.7,4.3c0.3,0.2,1.4,0.7,1.8,0.7c0.3,0,0.6-0.1,0.8,0c0.3,0,0.7,0.1,0.7,0.5
	c0,0.2-0.1,0.4-0.1,0.6c0,0.5,0.6,0.6,1,0.6c0.3,0,0.6-0.1,0.7-0.4c0.1-0.7,0.2-1.4,0.2-2.1c0.1-2.5-0.2-4.9-0.2-7.3
	c0-0.2,0-0.4,0-0.5c0-0.2,0.1-0.4,0.1-0.7c0-0.2,0-0.3,0-0.5c0-0.9,0.2-1.8,0.2-2.7C138.2,85.1,138.2,84.6,138.1,84z M136.2,96.5
	c-0.2,0.1-0.4,0.1-0.6,0.1c-0.9,0-1.9-0.9-2.2-1.7c-0.2-0.5-0.3-1.2-0.3-1.8c0-0.3,0.4-1.7,0.5-1.9c0.1-0.3,0.5-0.9,0.7-1.1
	c0.1-0.1,0.2-0.2,0.3-0.3c0.3-0.3,0.7-0.8,1.2-0.8c0.4,0,0.4,0.2,0.4,0.5c0,0.3-0.1,0.5-0.1,0.8c-0.1,1.8,0.2,3.7,0.1,5.5
	C136.2,96,136.2,96.2,136.2,96.5z M140.6,62.4c-0.5-0.4-1.1-0.7-1.7-0.7c-0.2,0-0.3,0-0.5,0.1c-0.5,0.1-1.3,0.3-1.6,0.7
	c-0.5,0.6-0.8,1.5-0.8,2.2c0,1.6,0.6,2.1,1.9,2.8c0.9,0.4,1.6,1.7,1.6,2.7c0,1-1.1,2.2-2.5,1.2l-0.2-0.3c-0.4-0.5-0.6-1-0.6-1.6
	c-0.1-0.7-0.9-0.6-1.3-0.7c-0.2,0-0.7,0.6-0.7,0.9c0,0.4,0.3,0.6,0.3,1c0.1,0.9,0.5,1.6,1.4,2c0.7,0.3,1.5,0.5,2.2,0.6
	c1.7,0.1,3.2-0.9,3.2-2.7c0-1-0.4-2.2-1-3.1c-0.6-1-1.9-1.2-2.3-2.2c-0.1-0.1-0.1-0.3-0.1-0.4c0-0.5,0.4-1.2,1-1.2
	c0.7,0,1.2,1,1.8,1c0.5,0,1-0.4,1-0.9C141.8,63.1,141,62.7,140.6,62.4z M83.5,71c0.2-0.6,0.3-1.4,0.3-2c0-0.7,0-1.4,0-2.1
	c0-0.3,0-0.5,0-0.8c0.1-0.9,0.2-3.1,0.2-4c0-0.4,0-0.9,0.1-1.3c0-0.1,0.2-0.2,0.3-0.2c0.7,0,1.4-0.1,2.1-0.1c0.3,0,0.9-0.2,0.9-0.6
	c0-0.5-0.5-0.7-1-0.8c-0.5,0-1,0.1-1.5,0.1c-0.4,0-0.3,0-0.5-0.3c0-0.1,0-0.3,0-0.5c0-0.7,0.3-0.2,0.3-0.9c0-0.6-0.1-0.9-0.7-1
	c-0.1,0-0.6,0-0.8,0.1c-0.1,0-0.3,0.3-0.4,0.4c-0.1,1-0.1,0.9-0.3,1.9c-0.1,0.4-0.9,0.3-1.2,0.4c-0.3,0.1-0.5,0.4-0.5,0.7
	c0,0.8,1,0.7,1.5,0.8c0.2,0,0.2,0.2,0.1,0.3l0,0.1c-0.1,1.9-0.6,5.2-0.6,7.1c0,0.7,0,1.5,0.1,2.3c0.1,0.4,0.5,0.5,0.9,0.6
	C83.1,71.4,83.4,71.3,83.5,71z M88.7,85.8c-0.5-0.4-1.1-0.7-1.7-0.7c-0.2,0-0.3,0-0.5,0.1c-0.5,0.1-1.3,0.3-1.6,0.7
	c-0.5,0.6-0.8,1.5-0.8,2.2c0,1.6,0.6,2.1,1.9,2.8c0.9,0.4,1.6,1.7,1.6,2.7c0,1-1.1,2.2-2.5,1.2L85,94.4c-0.4-0.5-0.6-1-0.6-1.6
	c-0.1-0.7-0.9-0.6-1.3-0.7c-0.2,0-0.7,0.6-0.7,0.9c0,0.4,0.3,0.6,0.3,1c0.1,0.9,0.5,1.6,1.4,2c0.7,0.3,1.5,0.5,2.2,0.6
	c1.7,0.1,3.2-0.9,3.2-2.7c0-1-0.4-2.2-1-3.1c-0.6-1-1.9-1.2-2.3-2.2c-0.1-0.1-0.1-0.3-0.1-0.4c0-0.5,0.4-1.2,1-1.2
	c0.7,0,1.2,1,1.8,1c0.5,0,1-0.4,1-0.9C89.9,86.4,89.1,86.1,88.7,85.8z M105,93.2c-0.1,0-0.2,0-0.3,0.1c-0.5,0.2-1.7,0.6-2.2,0.6
	c-0.2,0-0.4-0.1-0.6-0.2c-0.9-0.6-1.2-1.7-1.2-2.8c0-0.5,0.1-1,0.2-1.6c0.1-0.5,0.1-1,0.7-1.1c0.1,0,0.2,0,0.3,0
	c1,0,1.6,0.9,2.3,0.9c0.5,0,0.9-0.2,1-0.7c0-0.3-0.2-0.6-0.5-0.8c-0.8-0.5-2-1.2-3-1.3c-0.5,0-0.9,0.2-1.4,0.5
	c-1.1,0.9-1.4,2-1.4,3.3c-0.1,2.5,0.7,5.5,3.7,5.6c0.9,0,1.7-0.2,2.5-0.6c0.4-0.2,0.7-0.6,0.7-1C105.8,93.6,105.4,93.2,105,93.2z
	 M82.7,45.6c0.6,0.3,1.3,0.7,2.1,0.8c0.8,0.1,1.5-0.4,2.2-0.8c0.7-0.5,1-1.3,1.1-2.1c0-0.7,0-1.3-0.9-1.3c-0.1,0-0.2,0-0.3,0
	c-0.2,0.1-0.6,0.3-0.7,0.5c0,0.2,0,0.4,0,0.6c0,0.1,0,0.2-0.1,0.3c-0.1,0.6-0.7,1-1.3,0.9c-0.6,0-1.2-0.5-1.6-0.9
	c-0.5-0.4-0.6-0.9-0.7-1.5c0-0.5-0.2-1-0.1-1.5c0-0.3,0.1-0.7,0.3-0.9c0.2,0,0.3,0,0.5,0c1,0,2,0.3,3,0.3c0.4,0,1.2,0.1,1.6-0.1
	c0.3-0.1,0.6-0.5,0.6-0.9c0-0.1,0-0.2,0-0.2c-0.1-0.3-0.7-0.3-0.8-0.5c-0.1-0.2,0-0.9-0.1-1.2c-0.3-1.1-0.6-1.4-1.1-2.1
	c-0.2-0.2-0.6-0.3-0.8-0.4c-0.3-0.1-0.7-0.2-1-0.2c-2.3-0.1-3.3,2.8-3.6,4.7c-0.1,0.7-0.3,1.4-0.3,2C80.6,42.9,81.2,44.7,82.7,45.6z
	 M84.5,36.4c0.1,0,0.6,0,0.7,0.1c0.4,0.4,0.5,0,0.7,1.8c0,0.1-0.3,0.2-0.4,0.2c-0.6,0-1.2-0.3-1.9-0.3c-0.1,0-0.2-0.2-0.2-0.3
	C83.4,37.5,84.1,36.3,84.5,36.4z M100.2,65.6c1,1.2,1.4,2.8,2.2,4.1c0.1,0.2,0.3,0.4,0.4,0.6c0.1,0.1,0.3,0,0.4,0.2
	c0.2-0.3,0.7,0,0.8-0.3c0-0.2,0.1-0.3,0.1-0.5c0,0,0-0.1,0-0.1c-0.2-0.3-0.4-0.7-0.6-1c-0.3-0.6-0.7-1.2-1-1.9
	c-0.2-0.5-0.9-1.5-0.9-2c0-0.7,1.6-0.7,1.6-1.6c0-0.5-0.5-0.7-0.9-0.7c-0.8,0-3.1,2-3.2,2c-0.1,0-0.1-0.2-0.2-0.2c0-0.4,0-0.9,0-1.3
	c0-1.3,0.3-2.6,0.3-4c0-0.6,0.2-1.5-0.7-1.5c-0.4,0-0.9,0.2-1,0.6c-0.3,1-0.3,3.3-0.3,4.5c0,0.8,0.2,1.7,0.2,2.5
	c0,0.3-0.1,0.7-0.2,1c-0.3,0.5-1.5,0.6-1.5,1.3c0,0.6,0.4,0.9,0.8,0.8l0.7-0.1c0,0.8-0.3,1.6-0.3,2.5c0,0.4,0,0.8,0.2,1.1
	c0.1,0.3,0.6,0.5,0.9,0.5c0,0,0.1,0,0.1,0c0.7-0.6,0.8-1.7,0.8-2.6s0-1.9,0.5-2.7C99.5,66.1,99.9,65.9,100.2,65.6z M98,87.9
	c-0.1-0.9-0.1-2.8-1.3-2.8c-0.4,0-1,0.2-1,0.7c0,0.1,0,0.2,0,0.3c0.5,1.3,0.7,2.6,0.6,3.9c0,1-0.4,4-1.6,4.3c-0.1,0-0.3,0.1-0.4,0.1
	c-0.5,0-1.2-0.3-1.4-0.9c-0.4-1.1-0.4-2.3-0.4-3.4c0-1,0.2-2,0.2-3.1c0-0.3,0.1-0.7,0.1-1c0-0.4-0.3-0.8-0.8-0.8
	c-1.1,0-1,1.4-1.1,2.1c0,0.6,0,1.3,0,1.9c0,0.8-0.1,1.5-0.1,2.3c0,0.9,0,1.9,0.2,2.8c0.1,0.4,0.3,0.5,0.7,0.7
	c0.7,0.3,1.5,0.8,2.3,0.8c0.2,0,0.4,0,0.6-0.1c1.2-0.2,2.2-1,2.7-2.1c0.2-0.4,0.3-0.9,0.3-1.4c0-0.1,0-0.2,0-0.3
	c0-0.1,0.2-0.1,0.2-0.2c0-0.2,0-0.3,0-0.5c0-0.6,0.1-1.3,0.1-1.9C98,88.8,98,88.3,98,87.9z M94.2,70.1c0-0.5-0.4-0.5-0.5-0.7
	c-0.2-0.3-0.3-0.6-0.2-0.9c0.2-1.4,0.5-1.8,0.7-3.4c0.1-0.6,0.2-1.3,0.3-2c0-0.8-0.4-2-0.7-2.6c-0.2-0.3-1-0.7-1.4-0.9
	c-0.2-0.1-0.3-0.1-0.5-0.1c-0.4,0-0.8,0.2-1.2,0.3c-0.3,0.1-0.8,0.4-1,0.7c-0.7,1-0.7,1.3-0.9,2.5c0,0,0,0.1,0,0.1
	c0,0.4,0.3,0.6,0.7,0.6c0.3,0,0.9-0.2,1-0.5c0.3-1-0.1-1.1,0.9-1.8c0.1-0.1,0.2-0.1,0.3-0.1c0.1,0,0.2,0.1,0.3,0.1
	c0.4,0.4,0.6,0.5,0.7,1c0.1,0.5,0.2,1,0.2,1.6c0,1-0.7,1.3-1.5,1.3c-0.5,0-1-0.1-1.5-0.1c-0.2,0-0.5,0.1-0.7,0.2
	c-0.5,0.2-0.9,0.8-1.2,1.2c-0.4,0.6-0.5,1.2-0.5,1.9c0,1.1,0.4,2.3,1.5,2.7c0.6,0.2,1.4,0.4,2.1,0.4c0.9,0,1.8-0.1,2.6-0.6
	C93.9,70.8,94.1,70.7,94.2,70.1z M91.7,69.6c-0.3,0.5-1,0.6-1.5,0.6c-0.8,0-1-0.4-1.2-1.1c0-0.2-0.1-0.4-0.1-0.5
	c0-1,0.7-1.8,1.7-1.8l0.5,0c0.5,0,0.7,0.2,0.7,0.7c0,0.6-0.3,1.1-0.3,1.6C91.5,69.2,91.7,69.4,91.7,69.6z"/>
</svg>
