<?xml version="1.0" encoding="utf-8"?>
<!-- Generator: Adobe Illustrator 27.0.1, SVG Export Plug-In . SVG Version: 6.00 Build 0)  -->
<svg version="1.1" id="Capa_1" xmlns="http://www.w3.org/2000/svg" xmlns:xlink="http://www.w3.org/1999/xlink" x="0px" y="0px"
	 viewBox="0 0 160 130" style="enable-background:new 0 0 160 130;" xml:space="preserve">
<style type="text/css">
	.st0{fill:#B7B7B7;}
</style>
<path class="st0" d="M87.5,36.8c0.1,0.7,0.2,1.4,0.2,2.1c0.1,1.1,0.3,2.2,0.5,3.3c0.2,1.1,0.4,2.2,0.5,3.2l0.1,0.5
	c0.1,0.4,0.1,0.8,0.2,1.2c0.1,0.4,0.2,0.7,0.4,1c0.2,0.3,0.4,0.5,0.7,0.7c0.3,0.2,0.7,0.2,1.1,0.2c0.1,0,0.2-0.1,0.3-0.2
	c0.1-0.1,0.1-0.3,0.2-0.4c0-0.2,0-0.4,0-0.6c0-0.2,0-0.4,0-0.6l0-0.1c0,0,0-0.1,0-0.1c0,0,0,0,0-0.1l0-0.1c0-0.1,0-0.3,0-0.6
	c0-0.3,0.1-0.7,0.1-1.1c0-0.4,0.1-0.8,0.2-1.3c0.1-0.5,0.2-0.9,0.3-1.3c0.1-0.4,0.3-0.8,0.4-1.1c0.2-0.3,0.3-0.5,0.6-0.6
	c0.1,0,0.2,0.1,0.3,0.3c0.1,0.2,0.2,0.4,0.3,0.7c0.1,0.3,0.2,0.6,0.3,0.9c0.1,0.3,0.1,0.6,0.2,0.8c0,0.3,0.1,0.7,0.2,1.3
	c0.1,0.6,0.3,1.1,0.5,1.7c0.2,0.6,0.5,1,0.8,1.4s0.7,0.6,1.2,0.5c0.1,0,0.3-0.1,0.5-0.3c0.2-0.2,0.3-0.3,0.3-0.5
	c-0.1-0.5-0.3-1.1-0.6-1.7c-0.3-0.6-0.5-1.2-0.6-1.8c-0.1-0.3-0.2-0.6-0.2-1c-0.1-0.4-0.2-0.7-0.3-1c0-0.3-0.1-0.7-0.3-1.1
	c-0.1-0.4-0.3-0.9-0.6-1.3c-0.2-0.4-0.5-0.8-0.9-1c-0.4-0.3-0.8-0.4-1.3-0.4c-0.3,0-0.6,0.2-0.9,0.4c-0.3,0.3-0.6,0.6-0.8,1
	c-0.2,0.4-0.4,0.8-0.6,1.3c-0.2,0.5-0.4,1-0.5,1.5c-0.1-0.6-0.2-1.3-0.2-1.9c-0.1-0.6-0.1-1.2-0.2-1.9c-0.1-0.6-0.1-1.3-0.2-2
	c-0.1-0.7-0.1-1.4-0.2-2.2c0-0.4,0-0.8,0-1.1c0-0.4,0-0.8-0.1-1.2c0-0.4-0.2-0.7-0.4-0.9c-0.2-0.3-0.5-0.4-0.9-0.3
	c-0.2,0-0.5,0.1-0.8,0.2c-0.1,0.5-0.1,1-0.1,1.6c0,0.6,0,1.3,0.1,1.9S87.4,36.1,87.5,36.8z M77.9,17.2c0.2,0.3,0.4,0.6,0.6,0.9
	c0.2,0.3,0.4,0.5,0.6,0.8c0.2,0.3,0.4,0.5,0.6,0.8c0.2,0.3,0.4,0.6,0.7,1c0,0.3-0.1,0.7-0.3,1c-0.2,0.3-0.4,0.6-0.5,0.9
	c-0.2,0.6-0.5,1.1-0.8,1.6c-0.3,0.5-0.5,1-0.7,1.6c0,0,0,0.1,0,0.1c0,0,0,0,0,0.1c0.1,0.3,0.2,0.6,0.3,0.8c0.1,0.2,0.3,0.4,0.6,0.7
	c0.2,0.1,0.4,0.2,0.6,0.1c0.3,0,0.6-0.2,0.8-0.6s0.3-0.7,0.4-1.1c0.1-0.2,0.1-0.4,0.2-0.7c0.1-0.3,0.2-0.6,0.4-0.9s0.3-0.6,0.4-0.9
	c0.1-0.3,0.3-0.6,0.4-0.8c0.1,0,0.2,0.2,0.5,0.4c0.2,0.2,0.5,0.5,0.8,0.8c0.3,0.3,0.5,0.6,0.8,0.8c0.3,0.3,0.5,0.5,0.6,0.6
	c0.1,0.1,0.3,0.1,0.4,0.1c0.1,0,0.2,0,0.3,0c0.1,0,0.2,0,0.3-0.1c0.1,0,0.2,0,0.3-0.1c0.1-0.1,0.3-0.2,0.4-0.4
	c0.1-0.1,0.2-0.3,0.2-0.4c0-0.4-0.2-0.7-0.5-0.9c-0.3-0.3-0.5-0.5-0.8-0.8c-0.1-0.1-0.2-0.3-0.5-0.5c-0.2-0.2-0.5-0.5-0.7-0.7
	c-0.3-0.2-0.5-0.4-0.7-0.6c-0.2-0.2-0.3-0.3-0.3-0.4c0-0.1,0-0.2,0.2-0.4s0.3-0.4,0.4-0.7s0.3-0.5,0.5-0.7s0.3-0.5,0.4-0.6
	c0.3-0.3,0.6-0.7,1-1.1c0.3-0.4,0.7-0.9,1-1.4c0-0.1,0-0.2,0-0.3c0-0.3-0.2-0.6-0.5-0.7c-0.3-0.1-0.7-0.1-1-0.1
	c-0.4,0-0.7,0.2-1,0.5c-0.2,0.3-0.5,0.6-0.7,0.9c-0.1,0-0.2,0.2-0.3,0.4c-0.2,0.2-0.3,0.5-0.5,0.8c-0.2,0.3-0.4,0.6-0.6,0.9
	c-0.2,0.3-0.3,0.6-0.3,0.7c-0.2-0.2-0.4-0.4-0.6-0.6c-0.2-0.2-0.3-0.4-0.4-0.6c-0.1-0.2-0.3-0.4-0.5-0.7c-0.2-0.2-0.4-0.5-0.6-0.9
	c-0.3-0.4-0.6-0.6-1-0.8c-0.3-0.1-0.7-0.2-1-0.2c-0.2,0-0.3,0.1-0.3,0.2c-0.1,0.1-0.1,0.2-0.2,0.3L76.9,16c0,0.3,0.2,0.5,0.4,0.7
	C77.5,16.8,77.7,17,77.9,17.2z M88.6,9.6c0.2,0.1,0.4,0.2,0.6,0.2c0.2,0.1,0.4,0.1,0.7,0.1c0.3,0,0.6-0.1,0.7-0.2
	c0.2-0.1,0.2-0.4,0.2-0.7c0-0.2-0.1-0.3-0.2-0.5c-0.1-0.1-0.3-0.3-0.4-0.4c-0.2-0.1-0.4-0.2-0.6-0.2c-0.2-0.1-0.4-0.1-0.6-0.1
	c-0.2,0-0.4,0.1-0.5,0.2c-0.3,0.2-0.5,0.4-0.5,0.5c0,0.2,0,0.4,0,0.6c0,0.1,0.1,0.2,0.2,0.3C88.3,9.5,88.4,9.6,88.6,9.6z M69.2,23.7
	c0.1,0.4,0.3,0.8,0.5,1.1c0.2,0.4,0.5,0.7,0.8,1c0.3,0.3,0.7,0.6,1.2,0.9c0.3,0.1,0.7,0.2,1.2,0.3c0.5,0.1,0.8,0.1,1.1,0
	c0.7-0.1,1.2-0.2,1.6-0.4c0.4-0.2,0.8-0.5,1.3-1c0.1-0.2,0.2-0.3,0.3-0.5c0.1-0.2,0.1-0.4,0.1-0.7c0-0.1,0-0.2-0.1-0.3
	c0-0.1-0.1-0.2-0.1-0.3c-0.1-0.1-0.2-0.2-0.4-0.2c-0.1,0-0.2-0.1-0.3-0.1c-0.4,0.4-0.8,0.8-1.2,1.1c-0.3,0.3-0.8,0.5-1.4,0.6
	c-0.1,0-0.2,0-0.5,0c-0.2,0-0.5-0.1-0.8-0.3c-0.3-0.2-0.5-0.4-0.8-0.8c-0.3-0.4-0.5-0.9-0.6-1.6c0,0,0-0.1,0-0.2c0-0.1,0-0.1,0-0.2
	c0.3,0,0.5,0.1,0.7,0.1c0.2,0,0.4,0,0.7-0.1c0.6-0.1,1.1-0.3,1.5-0.6c0.4-0.3,0.7-0.6,1-0.9c0.3-0.4,0.4-0.8,0.5-1.2
	c0.1-0.4,0.1-0.9,0-1.3c-0.1-0.3-0.2-0.7-0.3-1c-0.2-0.3-0.4-0.5-0.7-0.8c-0.3-0.2-0.6-0.4-1-0.5c-0.4-0.1-0.8-0.1-1.3,0
	c-0.7,0.1-1.3,0.4-1.8,0.8c-0.5,0.4-0.9,1-1.1,1.6c-0.3,0.6-0.4,1.3-0.5,2c-0.1,0.7-0.1,1.5,0,2.2C68.9,22.8,69,23.3,69.2,23.7z
	 M71.1,19.4c0-0.3,0.1-0.5,0.1-0.7c0.1-0.2,0.1-0.3,0.2-0.4c0.1-0.1,0.2-0.2,0.2-0.3c0.1-0.2,0.2-0.3,0.4-0.3
	c0.2-0.1,0.4-0.1,0.5-0.1c0.3,0,0.5,0,0.7,0.2c0.2,0.2,0.3,0.4,0.3,0.7c0.1,0.5,0,0.9-0.3,1.2c-0.3,0.4-0.8,0.6-1.4,0.7
	c-0.1,0-0.2,0-0.4,0c-0.2,0-0.3,0-0.4,0C71.1,20.1,71.1,19.7,71.1,19.4z M90.7,15.1c0-0.2,0-0.4,0-0.6c-0.1-0.1-0.3-0.3-0.4-0.4
	c-0.1-0.1-0.4-0.2-0.6-0.3c-0.2,0.1-0.4,0.1-0.6,0.1c-0.2,0-0.3,0.1-0.5,0.2c-0.3,0.2-0.5,0.5-0.4,0.9c0.1,1,0.2,1.9,0.4,2.8
	c0.2,0.9,0.3,1.8,0.4,2.8c0,0.3,0.1,0.6,0.2,1c0.1,0.3,0.1,0.6,0.2,1c0,0.6,0.1,1,0.3,1.3c0.1,0.3,0.3,0.6,0.5,0.7
	c0.2,0.2,0.5,0.3,0.7,0.3c0.3,0,0.6,0,0.9,0c0.2-0.2,0.3-0.4,0.4-0.6c0.1-0.2,0.1-0.3,0.1-0.5l0-0.1c-0.1-0.3-0.2-0.8-0.3-1.4
	c-0.1-0.6-0.3-1.3-0.4-2c-0.1-0.7-0.3-1.5-0.4-2.3c-0.1-0.8-0.2-1.6-0.3-2.3C90.7,15.5,90.7,15.3,90.7,15.1z M83.8,40.3
	c0.2-0.1,0.4-0.2,0.6-0.3c0.2-0.1,0.4-0.2,0.6-0.3c0.2-0.1,0.4-0.2,0.5-0.2c0.2-0.1,0.4-0.2,0.5-0.2c0.2-0.1,0.3-0.2,0.4-0.4
	c0.1-0.2,0.1-0.3,0.1-0.6c0-0.2-0.1-0.4-0.2-0.6c-0.1-0.2-0.3-0.3-0.6-0.2c-0.5,0.1-0.9,0.2-1.2,0.4s-0.7,0.3-1.2,0.4
	c-0.1,0-0.2,0-0.3-0.1c0-0.1-0.1-0.2-0.1-0.3c0-0.2-0.1-0.5-0.1-0.7c0-0.2,0-0.4-0.1-0.6c0-0.3-0.1-0.6-0.1-0.9
	c0-0.3-0.1-0.6-0.1-0.9c0-0.3-0.1-0.5-0.1-0.8c-0.1-0.3-0.1-0.6-0.2-1c0-0.2-0.1-0.4-0.1-0.6c-0.1-0.2-0.2-0.4-0.3-0.5
	c-0.1-0.2-0.3-0.3-0.5-0.4c-0.2-0.1-0.5-0.1-0.8-0.1c-0.1,0-0.3,0.1-0.3,0.1c-0.1,0.1-0.2,0.1-0.3,0.2c0,0.3,0,0.5,0,0.7l0.4,2.8
	c0,0.3,0.1,0.5,0.1,0.8s0.1,0.6,0.1,0.8c0.1,0.4,0.1,0.7,0.1,1c0,0.2,0.1,0.5,0.1,0.8c0,0.2,0,0.4,0,0.6c0,0.2-0.2,0.4-0.5,0.4
	c-0.2,0.2-0.4,0.3-0.6,0.4c-0.2,0.1-0.4,0.2-0.6,0.2c-0.2,0.1-0.4,0.1-0.6,0.2c-0.2,0.1-0.4,0.2-0.6,0.3c0,0.3-0.1,0.6,0,0.8
	c0.1,0.1,0.4,0.3,0.6,0.5c0.3,0.2,0.6,0.3,1,0.2c0.3,0,0.5-0.1,0.7-0.3c0.2-0.1,0.5-0.3,0.8-0.4c0,0.1,0.1,0.1,0.1,0.2
	c0,0.1,0,0.1,0,0.2c0.1,0.9,0.3,1.8,0.4,2.6c0.1,0.9,0.3,1.8,0.5,2.6c0.1,0.4,0.2,0.8,0.3,1.2c0.1,0.4,0.2,0.8,0.4,1
	c0.2,0.2,0.4,0.4,0.6,0.6c0.2,0.1,0.5,0.2,0.7,0.2c0,0,0.1,0,0.3-0.1c0.2-0.1,0.4-0.2,0.5-0.4c0.1-0.2,0.2-0.4,0.2-0.7
	c0-0.2-0.1-0.4-0.2-0.7c-0.1-0.2-0.2-0.5-0.3-0.7c-0.3-0.8-0.5-1.6-0.7-2.5c-0.2-0.9-0.4-1.7-0.5-2.5c0-0.1,0-0.2,0-0.4
	c0-0.1,0-0.2,0-0.3c0-0.1,0-0.2-0.1-0.3c0-0.1,0-0.2-0.1-0.4c0-0.2,0-0.4,0.1-0.6C83.5,40.6,83.6,40.5,83.8,40.3z M136.1,19.7
	c0-0.3,0-0.6,0-0.8c0-0.3-0.1-0.5-0.2-0.8c-0.1-0.2-0.3-0.4-0.6-0.6c-0.4-0.1-0.8,0-1.2,0.2s-0.8,0.5-1.2,0.8
	c-0.4,0.3-0.7,0.7-1.1,1.1c-0.3,0.4-0.6,0.7-0.8,1l-0.1,0.2c-0.2,0.3-0.5,0.7-0.7,1.1c-0.3,0.4-0.5,0.7-0.9,0.9l0-0.1
	c0.1-0.4,0.2-0.9,0.3-1.4c0.1-0.5,0.3-1.1,0.4-1.8c0-0.2,0.1-0.4,0.1-0.6c0-0.2,0-0.4,0.1-0.6c0-0.1,0.1-0.3,0.1-0.6
	c0-0.2,0-0.5,0-0.7c0-0.2-0.1-0.4-0.2-0.6c-0.1-0.2-0.3-0.3-0.5-0.3c-0.1,0-0.2,0-0.3-0.1c-0.1,0-0.2,0-0.3-0.1
	c-0.2,0-0.4,0.2-0.5,0.4c-0.1,0.2-0.2,0.4-0.3,0.6c-0.1,0.3-0.1,0.6-0.2,1c-0.1,0.3-0.1,0.7-0.2,1c-0.3,1.1-0.5,2.2-0.7,3.2
	c-0.2,1-0.5,2.1-0.8,3.3c-0.1,0.3,0,0.5,0.2,0.8c0.2,0.2,0.4,0.4,0.6,0.4c0.2,0,0.3,0.1,0.5,0.1c0.2,0,0.4,0,0.6-0.1
	c0.2-0.1,0.5-0.3,0.8-0.5c0.3-0.2,0.7-0.6,1.1-1.1c0.3-0.3,0.6-0.7,0.8-1c0.2-0.3,0.5-0.7,0.7-1.1c0.3-0.4,0.5-0.7,0.8-1.1
	c0.3-0.4,0.7-0.8,1.1-1.2c0.1,0.3,0.2,0.6,0.2,1c0,0.4,0,0.8,0,1.2c0,0.4,0,0.8-0.1,1.3c0,0.4,0,0.8,0,1.1c0,0.3,0,0.6,0,1
	c0,0.4-0.1,0.8,0,1.2s0.1,0.7,0.2,1c0.1,0.3,0.4,0.5,0.7,0.6c0.2,0.1,0.5,0,0.8,0c0.3-0.1,0.5-0.3,0.6-0.5c-0.1-0.6-0.1-1.2-0.1-1.8
	c0-0.6,0.1-1.3,0.1-1.9c0.1-0.7,0.1-1.3,0.1-1.9s0-1.3-0.1-1.9C136.1,20.2,136.1,20,136.1,19.7z M117.7,24.3
	c0.3,0.2,0.5,0.4,0.7,0.6c0.2,0.2,0.5,0.3,0.8,0.4l0.2,0c0.1,0,0.2,0,0.3,0.1c0.1,0,0.2,0,0.3,0c0.3,0,0.7,0,1-0.2
	c0.4-0.2,0.7-0.4,1-0.6c0.3-0.2,0.6-0.5,0.9-0.8c0.3-0.3,0.5-0.6,0.7-0.8c0.4-0.4,0.7-0.9,1-1.4c0.3-0.5,0.5-1,0.6-1.6l0.1-0.5
	c0-0.2,0-0.4,0-0.6s0-0.4-0.1-0.6c-0.1-0.2-0.2-0.5-0.3-0.8c-0.1-0.3-0.2-0.5-0.4-0.7c-0.2-0.2-0.5-0.4-0.7-0.6
	c-0.3-0.2-0.5-0.3-0.8-0.5c-0.3-0.1-0.6-0.3-0.8-0.4c-0.3-0.1-0.5-0.3-0.8-0.5c-0.2-0.1-0.3-0.2-0.5-0.2c-0.4,0-0.8,0-1.3,0.3
	c-0.4,0.2-0.8,0.5-1.2,0.8c-0.4,0.3-0.7,0.6-0.9,1s-0.4,0.6-0.5,0.8c-0.2,0.5-0.4,1-0.6,1.6c-0.2,0.6-0.3,1.1-0.4,1.5
	c-0.1,0.9,0,1.6,0.3,2.2C116.7,23.4,117.1,23.9,117.7,24.3z M118.5,20.9c0-0.4,0.1-0.8,0.3-1.3c0.1-0.5,0.3-0.9,0.6-1.3
	c0.2-0.4,0.5-0.7,0.8-1c0.3-0.3,0.6-0.4,1-0.3c0.5,0.1,0.9,0.2,1.3,0.5c0.4,0.3,0.5,0.7,0.5,1.3l0,0.1c-0.1,0.4-0.2,0.8-0.3,1.2
	c-0.1,0.4-0.3,0.8-0.5,1.2c-0.2,0.4-0.4,0.7-0.7,1c-0.3,0.3-0.6,0.5-0.9,0.7c-0.2,0.1-0.4,0.1-0.6,0.2c-0.2,0-0.4,0.1-0.6,0
	c-0.2,0-0.4-0.1-0.5-0.4c-0.1-0.2-0.2-0.4-0.2-0.7c0-0.3-0.1-0.5-0.1-0.7C118.4,21.2,118.4,21,118.5,20.9z M99.6,15.7
	c0.3,0.3,0.6,0.4,1,0.4c0.3,0,0.6-0.1,0.8-0.2c0.2-0.1,0.5-0.2,0.9-0.3c0,0.1,0.1,0.1,0.1,0.2c0,0.1,0,0.1,0,0.2c0,0.9,0,1.9,0,2.8
	c0,0.9,0,1.9,0.1,2.8c0,0.4,0.1,0.8,0.1,1.3c0.1,0.5,0.1,0.8,0.2,1.1c0.2,0.3,0.3,0.5,0.6,0.7c0.2,0.2,0.5,0.3,0.7,0.3
	c0,0,0.2,0,0.3-0.1c0.2-0.1,0.4-0.2,0.6-0.3c0.2-0.2,0.3-0.4,0.3-0.7c0-0.2,0-0.5-0.1-0.7c-0.1-0.3-0.1-0.5-0.2-0.8
	c-0.1-0.9-0.3-1.8-0.4-2.7c-0.1-0.9-0.2-1.8-0.2-2.7c0-0.1,0-0.3,0-0.4s0-0.2,0-0.4c0-0.1,0-0.2,0-0.3c0-0.1,0-0.2,0-0.4
	c0-0.2,0.1-0.4,0.2-0.6c0.2-0.2,0.3-0.3,0.5-0.4s0.4-0.2,0.7-0.2c0.2-0.1,0.4-0.1,0.6-0.2c0.2-0.1,0.4-0.1,0.6-0.2s0.4-0.1,0.6-0.2
	c0.2-0.1,0.3-0.2,0.4-0.3c0.1-0.1,0.2-0.3,0.2-0.6c0-0.2,0-0.4-0.1-0.6c-0.1-0.2-0.3-0.3-0.5-0.3c-0.5,0-0.9,0.1-1.3,0.2
	c-0.4,0.2-0.8,0.2-1.3,0.2c-0.2,0-0.2,0-0.3-0.1c0-0.1,0-0.2,0-0.3c0-0.2,0-0.5,0-0.7c0-0.2,0-0.4,0-0.7c0-0.3,0-0.6,0-0.9
	c0-0.3,0-0.6,0-0.9c0-0.3,0-0.6,0-0.9c0-0.3,0-0.6,0-1c0-0.2,0-0.4-0.1-0.6c0-0.2-0.1-0.4-0.2-0.6c-0.1-0.2-0.3-0.3-0.5-0.4
	S103.5,5,103.1,5c-0.2,0-0.3,0-0.4,0.1c-0.1,0-0.2,0.1-0.4,0.2c-0.1,0.3-0.1,0.5-0.1,0.7l0,3c0,0.3,0,0.6,0,0.9c0,0.3,0,0.6,0,0.9
	c0,0.4,0,0.8,0,1c0,0.2,0,0.5,0,0.9c0,0.2,0,0.4-0.1,0.6c0,0.2-0.2,0.4-0.5,0.4c-0.2,0.1-0.5,0.2-0.7,0.3c-0.2,0.1-0.4,0.1-0.6,0.1
	c-0.2,0-0.4,0.1-0.6,0.1c-0.2,0-0.4,0.1-0.7,0.2C99,14.6,99,14.9,99,15.1C99.1,15.3,99.3,15.5,99.6,15.7z M61,42.9
	c-0.1,0.2-0.1,0.4,0,0.7c0,0.3,0.1,0.6,0.2,0.9c0.1,0.3,0.1,0.6,0.2,0.9c0.1,1.1,0.3,2.1,0.4,3.1s0.3,2,0.4,3.2
	c0,0.3,0.2,0.5,0.5,0.6c0.3,0.1,0.5,0.2,0.7,0.2c0.2,0,0.3-0.1,0.5-0.1c0.2-0.1,0.4-0.2,0.5-0.3c0.2-0.2,0.4-0.4,0.6-0.7
	c0.2-0.3,0.4-0.8,0.6-1.3c0.2-0.4,0.3-0.8,0.4-1.2c0.1-0.4,0.2-0.8,0.3-1.2c0.1-0.4,0.2-0.8,0.4-1.3c0.1-0.5,0.3-0.9,0.6-1.5
	c0.2,0.2,0.4,0.5,0.5,0.8c0.1,0.3,0.3,0.7,0.4,1.1c0.1,0.4,0.2,0.8,0.3,1.2c0.1,0.4,0.2,0.7,0.4,1c0.1,0.2,0.2,0.6,0.3,0.9
	s0.2,0.7,0.4,1.1c0.1,0.3,0.3,0.6,0.5,0.8c0.2,0.2,0.5,0.3,0.8,0.3c0.2,0,0.5-0.1,0.7-0.3c0.3-0.2,0.4-0.4,0.4-0.7
	c-0.3-0.5-0.5-1-0.7-1.6c-0.2-0.6-0.4-1.2-0.5-1.8c-0.2-0.6-0.3-1.2-0.5-1.8c-0.2-0.6-0.4-1.1-0.8-1.6c-0.1-0.2-0.3-0.5-0.4-0.7
	c-0.1-0.3-0.2-0.5-0.3-0.7c-0.1-0.2-0.3-0.4-0.4-0.6c-0.2-0.2-0.4-0.3-0.8-0.3c-0.4,0-0.7,0.2-1,0.5c-0.3,0.3-0.6,0.7-0.8,1.1
	s-0.4,0.9-0.6,1.3c-0.2,0.5-0.3,0.8-0.3,1.1l0,0.2c-0.1,0.4-0.2,0.8-0.3,1.2c-0.1,0.4-0.3,0.8-0.5,1.1l0-0.1
	c-0.1-0.4-0.1-0.9-0.2-1.4c0-0.5-0.1-1-0.2-1.7c0-0.2-0.1-0.4-0.1-0.6c-0.1-0.2-0.1-0.4-0.1-0.6c0-0.1-0.1-0.3-0.1-0.5
	c0-0.2-0.1-0.4-0.2-0.6c-0.1-0.2-0.2-0.3-0.4-0.5c-0.2-0.1-0.3-0.2-0.6-0.1c-0.1,0-0.2,0-0.3,0.1c-0.1,0-0.2,0-0.3,0.1
	C61.2,42.5,61.1,42.7,61,42.9z M139,30.4c0.3,0.1,0.5,0.1,0.8,0.1c0.3,0,0.5-0.2,0.6-0.5c0,0,0-0.1,0-0.1c0,0,0-0.1,0-0.1
	c0.1-0.7,0.2-1.5,0.4-2.4c0.2-0.9,0.4-1.7,0.6-2.4c0.1-0.3,0.2-0.5,0.3-0.8c0.1-0.3,0.2-0.6,0.3-0.9c0.2-0.4,0.3-0.9,0.4-1.3
	c0.1-0.4,0.3-0.9,0.5-1.3c0.2-0.5,0.4-1.1,0.6-1.6c0.2-0.5,0.4-1.2,0.7-1.8c0.2-0.5,0.4-0.9,0.7-1.4c0.3-0.4,0.5-0.9,0.7-1.4
	c0.1-0.2,0.1-0.4,0-0.6c-0.1-0.2-0.2-0.3-0.3-0.5c-0.2-0.1-0.3-0.3-0.5-0.3s-0.4-0.2-0.5-0.2c-0.2,0.1-0.4,0.2-0.6,0.3
	c-0.2,0.1-0.3,0.3-0.4,0.5c-0.4,1-0.8,2-1.2,2.9s-0.9,1.8-1.2,2.8c-0.3,0.8-0.5,1.5-0.8,2.2c-0.2,0.7-0.5,1.5-0.9,2.4
	c-0.1,0.3-0.3,0.8-0.5,1.5c-0.2,0.7-0.3,1.3-0.4,2.1c-0.1,0.7-0.1,1.4,0,1.9C138.2,29.8,138.5,30.2,139,30.4z M102.1,42.8
	c0.5-0.1,1-0.3,1.4-0.5c0.4-0.2,0.7-0.5,1-0.9c0.2-0.3,0.4-0.7,0.5-1.1c0.1-0.4,0.1-0.8,0.1-1.2c0-0.3-0.1-0.6-0.3-0.9
	c-0.2-0.3-0.4-0.5-0.6-0.7c-0.3-0.2-0.6-0.4-1-0.5c-0.4-0.1-0.8-0.1-1.3-0.1c-0.7,0.1-1.2,0.3-1.7,0.7c-0.5,0.4-0.8,0.9-1.1,1.5
	c-0.3,0.6-0.4,1.2-0.5,1.9c-0.1,0.7-0.1,1.4,0,2.1c0.1,0.4,0.2,0.8,0.3,1.2c0.1,0.4,0.2,0.7,0.4,1.1c0.2,0.3,0.4,0.7,0.7,1
	c0.3,0.3,0.7,0.6,1.1,0.8c0.3,0.1,0.7,0.2,1.1,0.3c0.4,0.1,0.8,0.1,1.1,0c0.7-0.1,1.2-0.2,1.6-0.4c0.4-0.2,0.8-0.5,1.2-0.9
	c0.1-0.1,0.2-0.3,0.3-0.5s0.1-0.4,0.1-0.7c0-0.1,0-0.2-0.1-0.3c0-0.1-0.1-0.1-0.1-0.3c-0.1-0.1-0.2-0.2-0.3-0.2
	c-0.1,0-0.2-0.1-0.3-0.1c-0.4,0.4-0.8,0.7-1.1,1c-0.3,0.3-0.8,0.5-1.3,0.6c-0.1,0-0.2,0-0.4,0c-0.2,0-0.5-0.1-0.7-0.3
	c-0.3-0.2-0.5-0.4-0.8-0.8c-0.3-0.4-0.4-0.9-0.5-1.5c0,0,0-0.1,0-0.1s0-0.1,0-0.2c0.2,0,0.5,0.1,0.6,0.1
	C101.7,42.9,101.9,42.9,102.1,42.8z M100.8,41.3c0-0.4,0-0.7,0-1c0-0.3,0.1-0.5,0.1-0.6s0.1-0.3,0.2-0.4c0.1-0.1,0.1-0.2,0.2-0.3
	c0.1-0.2,0.2-0.3,0.4-0.3c0.2-0.1,0.3-0.1,0.5-0.1c0.3,0,0.5,0,0.6,0.2c0.2,0.2,0.3,0.4,0.3,0.7c0.1,0.4-0.1,0.8-0.4,1.2
	c-0.3,0.4-0.7,0.6-1.4,0.7c-0.1,0-0.2,0-0.4,0C101,41.3,100.8,41.3,100.8,41.3z M154,25.4c-0.2-0.3-0.4-0.5-0.6-0.7
	c-0.3-0.2-0.6-0.2-0.9,0c-0.3,0.2-0.6,0.4-0.9,0.8c-0.3,0.3-0.6,0.7-0.9,1.2c-0.3,0.4-0.5,0.8-0.8,1.1c-0.3,0.2-0.6,0.5-0.9,0.9
	c-0.4,0.3-0.8,0.7-1.2,1c-0.4,0.3-0.8,0.6-1.3,0.8c-0.4,0.2-0.8,0.2-1.2,0.2c-0.1-0.2-0.1-0.5,0-0.8c0.1-0.3,0.2-0.7,0.3-1
	c0.2-0.4,0.3-0.7,0.5-1c0.2-0.3,0.4-0.6,0.5-0.8l0.3-0.4c0.1-0.2,0.3-0.5,0.5-0.8c0.2-0.3,0.4-0.6,0.6-0.8c0.1-0.2,0.2-0.5,0.4-0.8
	s0.3-0.5,0.4-0.8c0.1-0.2,0.1-0.5,0-0.7c-0.1-0.2-0.3-0.5-0.7-0.7c-0.2-0.1-0.4-0.1-0.6,0s-0.4,0.2-0.6,0.4
	c-0.2,0.2-0.4,0.4-0.6,0.6c-0.2,0.2-0.3,0.5-0.4,0.7c-0.2,0.3-0.3,0.5-0.5,0.8c-0.1,0.3-0.3,0.5-0.5,0.8c-0.1,0.1-0.1,0.2-0.2,0.3
	c-0.1,0.1-0.1,0.2-0.2,0.3c-0.3,0.4-0.5,1-0.9,1.6s-0.5,1.3-0.7,2c-0.2,0.7-0.2,1.3-0.1,1.9c0.1,0.6,0.5,1.1,1.1,1.5
	c0.2,0.1,0.4,0.2,0.7,0.2c0.3,0,0.6,0,0.9,0c0.3,0,0.6-0.1,1-0.2c0.3-0.1,0.6-0.2,0.8-0.4c0.1,0,0.1,0.1,0.1,0.1
	c-0.1,0.1-0.2,0.2-0.2,0.3c-0.1,0.1-0.1,0.2-0.2,0.4c-0.7,1.2-1.5,2.2-2.5,3c-0.9,0.8-2,1.5-3.4,2c-0.3,0.1-0.7,0.2-1.1,0.1
	c-0.4,0-0.8-0.1-1.2-0.1c-0.4-0.1-0.7-0.1-1-0.1c-0.3,0-0.4,0-0.5,0.1c-0.1,0.1-0.1,0.3-0.1,0.5s0,0.3,0.1,0.5
	c0.1,0.2,0.2,0.3,0.3,0.4c0.1,0.1,0.2,0.2,0.3,0.3c0.4,0.2,0.7,0.4,1.1,0.5c0.3,0.1,0.6,0.1,0.9,0.2c0.3,0,0.5,0,0.8,0
	c0.2,0,0.5-0.1,0.7-0.1c1.7-0.5,3.1-1.4,4.4-2.5s2.4-2.5,3.5-4.3c0.2-0.3,0.3-0.5,0.5-0.8c0.2-0.3,0.3-0.6,0.5-0.9
	c0.2-0.3,0.3-0.6,0.5-0.8c0.1-0.2,0.3-0.4,0.3-0.6c0.3-0.4,0.6-1,1.1-1.7c0.4-0.7,1-1.4,1.6-2.3C154.2,26,154.2,25.7,154,25.4z
	 M95,19.2c0.3,0.6,0.7,1.2,1,1.9c0.3,0.7,0.6,1.5,0.9,2.3c0,0,0,0.1,0,0.3c0,0.4-0.1,0.8-0.3,1.1c-0.2,0.3-0.5,0.4-0.8,0.5
	c-0.2,0-0.5-0.1-0.7-0.3c-0.2,0.1-0.4,0.1-0.4,0.2c-0.1,0.1-0.1,0.2-0.2,0.3c0.1,0.4,0.3,0.8,0.6,1.1c0.3,0.3,0.7,0.4,1.1,0.4
	c0.5,0,0.9-0.1,1.3-0.3c0.4-0.2,0.7-0.5,1-0.8s0.5-0.7,0.6-1.1c0.1-0.4,0.2-0.9,0.2-1.4c0-0.9-0.2-1.7-0.6-2.5
	c-0.4-0.7-0.7-1.4-1.1-2.2l-0.1-0.2c-0.1-0.1-0.2-0.3-0.3-0.5c-0.1-0.2-0.3-0.5-0.4-0.8c-0.1-0.3-0.3-0.5-0.4-0.8
	c-0.1-0.2-0.2-0.4-0.2-0.6l0-0.7c0-0.4,0-0.8,0.1-1.1c0.1-0.4,0.2-0.7,0.5-1c0.1-0.1,0.2-0.2,0.3-0.3c0.1-0.1,0.2-0.2,0.1-0.4
	c-0.1-0.2-0.2-0.3-0.3-0.5c-0.1-0.2-0.3-0.3-0.5-0.3c-0.1,0-0.1,0-0.2,0c0,0-0.1,0-0.2,0c-0.5,0-0.9,0.2-1.2,0.4
	c-0.3,0.3-0.5,0.6-0.7,1.1s-0.3,0.9-0.4,1.4c-0.1,0.5-0.1,1-0.1,1.4c0,0.6,0.2,1.1,0.4,1.6C94.4,18,94.7,18.6,95,19.2z M86.6,93.3
	c-0.1-0.9-0.2-1.9-0.3-3.2c-0.1-1.3-0.1-2.8-0.2-4.5c-0.1-1.7-0.1-3.2-0.2-4.5c-0.1-1.3-0.2-2.3-0.3-3.2c-0.1-0.4-0.1-0.8-0.2-1.1
	c-0.1-0.4-0.1-0.7-0.2-1.1l-0.1-0.1c0,0,0,0-0.1-0.1c0-0.1,0-0.3,0-0.4c0-0.2-0.1-0.4-0.2-0.4c0,0-0.1,0.1-0.2,0.1
	c-0.5-0.2-1-0.3-1.5-0.2c-0.6,0.1-1,0.4-1.2,0.9c0.1,0.3,0.1,0.6,0.2,0.9c0.1,0.3,0.1,0.6,0.1,0.9c0.1,0.8,0.2,1.9,0.2,3.1
	c0.1,1.2,0.1,2.7,0.1,4.4c0,1.7,0.1,3.2,0.1,4.5c0.1,1.2,0.2,2.3,0.3,3.1c0.1,0.5,0.1,1,0.2,1.4c0.1,0.5,0.2,0.9,0.3,1.3
	c0.2,0.9,0.9,1.2,1.9,1.1c0.7-0.1,1.2-0.5,1.3-1.2c-0.1-0.3-0.1-0.6-0.2-0.9C86.7,93.9,86.6,93.6,86.6,93.3z M127.1,83.2
	c0.1-1.1,0.1-2.3-0.1-3.5c-0.8-5.9-5.7-7.7-9.1-7.9c0.7-2.6,1.4-8.4-4.1-12.5c-6.4-4.8-13.7-0.9-15.3,0.1c-1.7-3.5-4.7-5.9-10.5-5.1
	c-2.8,0.4-5,1.6-6.4,3.6c-0.2,0.3-0.4,0.5-0.5,0.8c-1-0.6-2.9-1.2-6.3-0.7c-4.7,0.6-6.7,4.5-7.4,6.5c-2.7-1-10.1-2.9-14.4,4.6
	c-1.9,3.3-2,6.2-1.3,8.7c-1.6,1.5-4.5,5.1-3.7,11.1c0.8,6.2,4.8,9,6.6,10c-0.7,1.8-0.7,4,0,5.8c0.5,1.5,1.7,3.4,4.5,4.5
	c1.6,0.6,3.1,0.9,4.5,0.7c0.8-0.1,1.6-0.4,2.4-0.8c0.9-0.5,1.6-1.2,2.2-2c1.4,2.5,4.8,6.6,11.6,5.7c1.9-0.2,3.4-0.8,4.6-1.5
	c3,2.8,15.1,13.5,21.3,12.7c1.9-0.3,3.2-1.1,3.9-2.4c0.9-1.8,0.2-4.2-0.5-5.7c3.8-0.1,12.5-1.4,14.1-11.5c0,0,0,0,0.1,0
	c1.2-0.2,2.3-0.5,3.3-1.1c4-2.2,6.4-7.1,5.7-11.9C131.4,85,128.1,83.5,127.1,83.2z M107.5,113.9l-2-0.2l1,1.7
	c0.6,0.9,1.9,3.8,1.1,5.3c-0.3,0.7-1.1,1.2-2.4,1.3c-4.6,0.6-14.8-7.8-19.4-11.9c0.8-0.7,1.4-1.4,1.9-2.1c1,0.1,3.3,0.3,5.8,0
	c3.3-0.4,7-1.7,9.3-5.1c5.3,1.9,8.9-0.5,10.4-1.7c2.6,2,5.2,3.1,7.7,3.2C119.2,115,108,113.9,107.5,113.9z M125.5,101.5
	c-3.4,1.9-7.5,1-11.6-2.4l-0.7-0.6l-0.6,0.7c-0.1,0.2-3.3,3.7-8.6,1.9l-1.8-0.5c-2.9,5-10.3,5.7-13.3,5.5l-2-0.3
	c-1,1.9-3.1,4.4-7.5,5c-6.9,0.9-9.5-4.3-10.1-5.7l-1.9-0.6c-0.5,1-1.3,2.1-2.5,2.8c-1.4,0.8-3.2,0.8-5.2,0c-2-0.8-2.9-2.2-3.3-3.3
	c-0.6-1.7-0.5-3.6,0.3-5.1l-1.2-1.7c-1.5-0.8-4.9-3.3-5.6-8.6c-0.6-4.4,1.2-7.3,2.5-8.8l1.5-1.4C53,76,52.8,73.2,54.6,70
	c4.4-7.7,12.5-3.6,12.9-3.4l1.1,0.6l0.3-1.2c0-0.2,1.3-5.4,6.1-6.1c3.5-0.5,4.8,0.2,5.2,0.6c0,0,2.3,0.4,2.9-1.4
	c1.2-1.6,2.9-2.5,5.1-2.8c5.1-0.7,7.6,1.4,9,5.2l0.2,0.6l1.8-0.8c0.1,0,7.3-4.9,13.3-0.4c6,4.5,3.1,11.3,3,11.6l-0.6,1.5l1.6-0.1
	c0.3,0,7.5-0.4,8.4,6.2c0.2,1.6,0.2,3-0.1,4.3l1.8,1c0.8,0.3,2.9,1.5,3.6,6.4C130.8,95.5,128.8,99.7,125.5,101.5z M47.9,23.6
	c0.3,0.9,0.5,1.8,0.8,2.7c0.3,0.9,0.5,1.8,0.8,2.7c0.1,0.4,0.3,0.8,0.5,1.2c0.2,0.4,0.4,0.8,0.5,1c0.2,0.2,0.5,0.4,0.7,0.5
	c0.3,0.1,0.5,0.1,0.8,0.1c0,0,0.1-0.1,0.3-0.1c0.2-0.1,0.3-0.3,0.5-0.5c0.1-0.2,0.1-0.4,0.1-0.8c-0.1-0.2-0.2-0.5-0.3-0.7
	s-0.3-0.5-0.4-0.7c-0.4-0.8-0.7-1.6-1.1-2.5c-0.4-0.9-0.7-1.7-0.9-2.5c0-0.1-0.1-0.3-0.1-0.4c0-0.1-0.1-0.2-0.1-0.3
	c0-0.1-0.1-0.2-0.1-0.3c0-0.1-0.1-0.2-0.1-0.4c-0.1-0.2,0-0.4,0.1-0.6c0.1-0.2,0.2-0.4,0.4-0.5c0.2-0.1,0.4-0.3,0.6-0.4
	c0.2-0.1,0.4-0.3,0.5-0.4c0.2-0.1,0.3-0.2,0.5-0.3c0.2-0.1,0.3-0.2,0.5-0.3c0.1-0.1,0.3-0.3,0.3-0.4c0.1-0.2,0.1-0.4,0-0.6
	c-0.1-0.2-0.2-0.4-0.3-0.6c-0.1-0.2-0.3-0.2-0.6-0.2c-0.5,0.1-0.9,0.3-1.2,0.6c-0.3,0.3-0.7,0.4-1.2,0.6c-0.1,0-0.2,0-0.3-0.1
	c0-0.1-0.1-0.2-0.1-0.3c-0.1-0.2-0.1-0.5-0.2-0.7c-0.1-0.2-0.1-0.4-0.2-0.6c-0.1-0.3-0.2-0.6-0.2-0.9c-0.1-0.3-0.1-0.6-0.2-0.9
	c-0.1-0.3-0.2-0.6-0.3-0.8c-0.1-0.3-0.2-0.6-0.3-1c-0.1-0.2-0.1-0.4-0.2-0.6s-0.2-0.4-0.4-0.5c-0.1-0.1-0.3-0.2-0.6-0.3
	c-0.2-0.1-0.5,0-0.8,0c-0.1,0-0.3,0.1-0.3,0.2c-0.1,0.1-0.2,0.2-0.3,0.3c0,0.3,0.1,0.5,0.1,0.7l0.8,2.8c0.1,0.3,0.2,0.6,0.2,0.8
	c0.1,0.3,0.2,0.6,0.2,0.8c0.1,0.4,0.2,0.8,0.3,1c0.1,0.2,0.2,0.5,0.2,0.8c0,0.2,0.1,0.4,0.1,0.6s-0.1,0.4-0.4,0.5
	c-0.2,0.2-0.4,0.3-0.6,0.5c-0.2,0.1-0.4,0.2-0.6,0.3c-0.2,0.1-0.4,0.2-0.6,0.3c-0.2,0.1-0.4,0.2-0.6,0.4c0,0.3,0,0.6,0.1,0.8
	c0.2,0.1,0.4,0.3,0.7,0.4c0.3,0.2,0.7,0.2,1,0.1c0.3-0.1,0.5-0.2,0.7-0.4c0.2-0.2,0.4-0.3,0.8-0.5c0.1,0.1,0.1,0.1,0.1,0.2
	C47.9,23.5,47.9,23.5,47.9,23.6z M40.6,32c-0.3-0.3-0.6-0.6-0.8-1c-0.4-0.7-0.8-1.3-1.2-1.9c-0.4-0.6-0.7-1.2-1-1.9l-0.2-0.4
	c-0.2-0.5-0.4-0.9-0.6-1.1c-0.2-0.2-0.4-0.4-0.5-0.5c-0.2-0.1-0.4-0.1-0.6-0.1c-0.2,0-0.4,0-0.7,0c-0.5,0.2-0.8,0.5-1.1,0.9
	c-0.3,0.4-0.5,0.8-0.6,1.3c-0.1,0.5-0.2,0.9-0.3,1.4s-0.1,0.9-0.1,1.3c0,0.1,0,0.3,0,0.5c0,0.2,0,0.5,0,0.7c0,0.3,0,0.5,0,0.7
	c0,0.2,0,0.4,0,0.6c-0.3-0.5-0.7-1-1.1-1.6c-0.4-0.6-0.8-1.1-1.2-1.5c-0.2-0.3-0.4-0.5-0.6-0.8c-0.2-0.3-0.4-0.6-0.6-0.8
	c-0.2-0.2-0.5-0.4-0.8-0.5c-0.3-0.1-0.6-0.1-1,0.1c-0.4,0.1-0.6,0.4-0.8,0.8c-0.2,0.4-0.3,0.8-0.4,1.1c-0.1,0.3-0.1,0.6-0.2,0.9
	c0,0.3-0.1,0.7-0.1,1c0,0.4-0.1,0.7-0.1,1c0,0.3,0,0.6,0,0.9c-0.1-0.2-0.2-0.3-0.2-0.4c-0.1-0.2-0.2-0.4-0.2-0.7
	c-0.1-0.3-0.2-0.5-0.2-0.7c-0.1-0.2-0.2-0.5-0.3-0.7c-0.1-0.3-0.3-0.5-0.5-0.7c-0.2-0.2-0.4-0.4-0.6-0.4c-0.2-0.1-0.5-0.1-0.8,0.1
	c-0.2,0.1-0.4,0.3-0.6,0.6c-0.1,0.3-0.2,0.5-0.1,0.8c0.1,0.2,0.2,0.4,0.3,0.5c0.1,0.2,0.2,0.3,0.3,0.5c0.1,0.1,0.1,0.2,0.1,0.2
	c0,0,0.1,0.1,0.2,0.2s0.2,0.4,0.4,0.9c0.2,0.4,0.5,1.1,0.9,2.1c0,0.1,0.1,0.2,0.1,0.4c0.1,0.2,0.1,0.5,0.2,0.7
	c0.1,0.2,0.2,0.5,0.2,0.7c0.1,0.2,0.1,0.4,0.1,0.4c0.1,0.2,0.2,0.4,0.2,0.6c0.1,0.2,0.1,0.4,0.2,0.6c0.1,0.1,0.1,0.3,0.3,0.4
	c0.1,0.1,0.3,0.3,0.4,0.4c0.1,0.1,0.3,0.2,0.5,0.2c0.2,0,0.3,0,0.5,0c0.5-0.2,0.8-0.5,0.9-0.8c0.1-0.3,0.1-0.7,0.1-1
	c0-0.4-0.1-0.8-0.2-1.2s-0.1-0.9,0-1.4c0-0.2,0-0.6-0.1-1c0-0.4-0.1-0.8-0.1-1.3c0-0.4,0-0.9,0-1.3c0-0.4,0.1-0.8,0.3-1.1
	c0.2,0.2,0.5,0.4,0.7,0.7c0.3,0.3,0.5,0.6,0.8,0.9s0.5,0.7,0.7,1.1c0.2,0.4,0.4,0.7,0.6,1c0.2,0.3,0.4,0.6,0.6,1
	c0.2,0.4,0.4,0.7,0.7,1.1c0.3,0.3,0.5,0.6,0.8,0.8c0.3,0.2,0.6,0.2,0.9,0c0.2-0.1,0.5-0.3,0.6-0.4c0-0.4,0-0.7,0-1
	c0-0.3-0.1-0.6-0.1-0.9c0-0.3-0.1-0.6-0.1-0.9c0-0.3,0-0.6,0-1c0-0.3,0-0.7,0.1-1.1c0-0.4,0.1-0.8,0.1-1.3c0-0.4,0.1-0.9,0.1-1.3
	c0-0.4,0.1-0.8,0.1-1.2c0.2,0.3,0.4,0.5,0.5,0.8c0.1,0.3,0.3,0.5,0.4,0.8c0.1,0.3,0.3,0.5,0.5,0.8c0.2,0.3,0.3,0.5,0.6,0.8
	c0.1,0.2,0.3,0.4,0.5,0.9c0.2,0.4,0.5,0.8,0.8,1.2c0.3,0.4,0.6,0.7,0.9,1c0.3,0.3,0.7,0.3,1.1,0.2c0.3-0.1,0.6-0.4,0.7-0.7
	c0.2-0.3,0.1-0.7,0-1.1C41.2,32.6,40.9,32.3,40.6,32z M46.1,31.8c-0.1-0.3-0.3-0.7-0.6-1.3c-0.3-0.6-0.6-1.2-0.9-1.9
	c-0.3-0.7-0.6-1.4-1-2.2c-0.3-0.8-0.6-1.5-0.8-2.2c-0.1-0.2-0.1-0.4-0.2-0.6c0-0.2-0.1-0.4-0.1-0.6c-0.2-0.1-0.3-0.2-0.5-0.3
	c-0.2-0.1-0.4-0.1-0.7-0.1C41.2,22.9,41,23,40.9,23c-0.2,0.1-0.3,0.2-0.5,0.3c-0.2,0.3-0.3,0.6-0.2,1c0.3,0.9,0.6,1.8,1,2.6
	c0.4,0.8,0.7,1.7,1,2.6c0.1,0.3,0.2,0.6,0.4,0.9c0.2,0.3,0.3,0.6,0.4,0.9c0.2,0.5,0.4,0.9,0.6,1.2c0.2,0.3,0.4,0.5,0.7,0.6
	c0.2,0.1,0.5,0.1,0.8,0.1c0.3,0,0.6-0.1,0.9-0.2c0.1-0.3,0.2-0.5,0.2-0.6c0-0.2,0-0.3,0-0.5L46.1,31.8z M80.7,96
	c-1.2-3.4-2.3-7.7-3.2-12.9c0-0.1-0.1-0.3-0.1-0.5c0-0.2-0.1-0.4-0.1-0.6c0-0.2-0.1-0.4-0.1-0.6c0-0.2-0.1-0.5-0.1-0.7
	C77.1,80,77.1,79.4,77,79s-0.1-0.7-0.1-0.9c-0.2-1.3-0.4-2.3-0.7-3c-0.2-0.6-0.8-0.8-1.7-0.7c-0.6,0.1-1,0.3-1,0.7
	c-0.1,2-0.3,4.3-0.7,7c-0.4,2.7-1,5.8-1.7,9.3c-0.8-0.9-1.5-2.2-2-3.8c-0.2-0.7-0.5-1.3-0.7-1.9c-0.3-0.6-0.5-1.3-0.7-2.2
	c-0.1-0.4-0.1-0.9-0.3-1.5c-0.1-0.6-0.3-1.3-0.5-2c-0.2-0.8-0.3-1.5-0.4-2.1c-0.1-0.6-0.1-1.1-0.2-1.4c-0.4-0.3-1-0.4-1.9-0.2
	c-0.3,0-0.5,0.2-0.6,0.6c-0.1,0.5-0.2,0.8-0.3,0.8c0,2.3,0,4.2-0.1,5.8c-0.1,1.6-0.2,2.8-0.3,3.8c-0.4,2.7-0.8,4.8-1,6.2
	c-0.2,1.5-0.4,2.4-0.5,2.7c-0.3,1.5-0.5,2.3-0.5,2.5c0,0.3,0.1,0.6,0.3,0.8c0.2,0.2,0.4,0.4,0.8,0.5c0.5,0.2,0.8,0.2,1.1,0.2
	c0.2,0,0.4-0.1,0.4-0.3c0.2-0.7,0.4-1.5,0.6-2.5c0.2-1,0.3-2,0.5-3.2c0.2-1.1,0.3-2.4,0.4-3.7c0.1-1.3,0.2-2.6,0.3-3.9
	c0.2,0.4,0.4,1.1,0.7,1.9c0.3,0.8,0.6,1.7,0.9,2.5c0.3,0.7,0.6,1.4,0.9,1.9c0.3,0.5,0.5,0.9,0.8,1.3c0.4,0.5,0.8,0.9,1.1,1.2
	c0.4,0.3,0.8,0.5,1.4,0.5l0.1,0c0.5-0.1,0.9-0.5,1.2-1.2c0.1-0.2,0.3-0.9,0.5-2.2c0.1-0.6,0.2-1.2,0.4-1.9c0.1-0.7,0.3-1.4,0.4-2.1
	c0.1-0.7,0.2-1.3,0.3-1.9c0.1-0.6,0.2-1,0.2-1.3c0.1,0.2,0.1,0.5,0.2,0.9c0.1,0.4,0.1,0.9,0.2,1.4c0.1,0.5,0.2,1.1,0.2,1.6
	s0.1,1.1,0.2,1.5c0.2,1.6,0.5,2.8,0.9,3.6c0.4,0.9,0.8,1.5,1.4,1.9c0.6,0.4,1.2,0.6,1.6,0.5c0.8-0.1,1.2-0.4,1.1-0.8
	C80.8,96.1,80.7,96.1,80.7,96C80.7,96.1,80.7,96.1,80.7,96z M104.4,90.9c-0.1-0.4-0.1-0.9-0.2-1.3c-0.2-1.3-0.3-2.8-0.4-4.5
	c-0.1-1.6-0.2-3.5-0.3-5.5l-0.3-10.1c-0.1-0.2-0.3-0.4-0.5-0.5L102,69c-0.3,0-0.6,0-0.8,0c-0.7,0.1-1,0.4-1,0.9l0.6,16.3
	c-0.6-1-1.3-2.3-2-3.7c-0.7-1.4-1.5-2.9-2.3-4.4c-0.8-1.6-1.5-3-2.2-4.2c-0.7-1.1-1.2-2.1-1.7-2.8c-0.4-0.3-0.8-0.5-1.2-0.6
	c-0.4-0.1-0.6-0.1-0.8-0.1c-0.9,0.1-1.4,0.5-1.3,1l0.5,10c0.2,4,0.5,7.3,0.9,9.9c0.2,1.5,0.4,3,0.7,4.3l0.2,1.2
	c0.1,0.5,0.4,0.8,0.7,0.8l0.7,0.2c0.3,0.1,0.5,0.2,0.7,0.1s0.4-0.1,0.5-0.3c0.4-0.3,0.5-0.8,0.5-1.4l0-0.1c-0.2-1-0.3-1.9-0.5-2.9
	c-0.2-0.9-0.3-1.9-0.4-2.8c-0.1-1-0.3-2-0.4-3.1c-0.1-1.1-0.3-2.2-0.4-3.3c-0.1-1.1-0.2-2.1-0.3-3.2c-0.1-1-0.1-2-0.2-2.9
	c0-0.4,0.1-0.5,0.3-0.6c0.1,0,0.1,0.1,0.2,0.2c0.8,1.6,1.6,3.1,2.4,4.6c0.8,1.5,1.5,2.9,2.2,4.2c0.7,1.3,1.4,2.5,2,3.5
	c0.6,1.1,1.2,1.9,1.7,2.7c0.7,1,1.4,1.4,2.1,1.3c0.4,0,0.7-0.2,1-0.6c0.3-0.3,0.4-0.7,0.3-1C104.5,91.8,104.5,91.3,104.4,90.9z
	 M116.2,75c-0.4-0.5-1-0.9-1.6-1.4c-2.5-1.6-4.8-2.5-7-2.6l-0.9,0.2c-0.4,0.1-0.7,0.3-0.7,0.6c0,0.2,0,0.3,0,0.4
	c0,0.3,0.2,0.5,0.6,0.8l0.9,0.7c0.1,0.7,0.3,1.4,0.4,2.1s0.3,1.5,0.4,2.3c0.1,0.6,0.2,1.4,0.3,2.3c0.1,0.9,0.2,1.9,0.3,3.2
	c0.1,1.2,0.2,2.3,0.3,3.2c0.1,0.9,0.2,1.6,0.3,2.3c0.2,1.2,0.3,2.3,0.6,3.3c0.2,0.3,0.5,0.5,0.9,0.5c0.4,0.1,0.7,0.1,0.9,0.1
	c0.3,0,0.5-0.2,0.8-0.6c0.2-0.3,0.5-0.7,0.7-1c0.7-0.6,1.4-1.5,2.2-2.8c0.3-0.5,0.7-1,1-1.6c0.3-0.5,0.6-1,1-1.6
	c0.3-0.5,0.6-1.1,0.8-1.7c0.1-0.3,0.2-0.6,0.2-0.9c0.1-0.3,0.2-0.6,0.2-0.9c0.2-0.7,0.3-1.5,0.2-2.3C118.5,78.2,117.7,76.6,116.2,75
	z M112.4,88c-0.1-0.7-0.2-1.5-0.3-2.2s-0.2-1.4-0.3-2.1c-0.2-1.6-0.4-3.1-0.5-4.5c-0.2-1.4-0.3-2.9-0.4-4.3c2.6,0.9,4.1,2.1,4.5,3.6
	c0,0.2,0.1,0.3,0.1,0.5c0,0.2,0.1,0.3,0.1,0.5C115.8,82,114.8,84.8,112.4,88z M38.8,18.8c0.1,0.1,0.3,0.1,0.5,0.2S39.7,19,40,19
	s0.4,0,0.6-0.1c0.3-0.1,0.5-0.2,0.7-0.4c0.1-0.2,0.1-0.4,0-0.8c-0.1-0.2-0.2-0.3-0.3-0.4c-0.1-0.1-0.3-0.2-0.5-0.3
	c-0.2-0.1-0.4-0.1-0.6-0.1c-0.2,0-0.4,0-0.6,0.1c-0.2,0.1-0.4,0.2-0.4,0.3c-0.2,0.3-0.4,0.5-0.3,0.7c0,0.2,0,0.4,0.1,0.6
	C38.6,18.6,38.7,18.7,38.8,18.8z M56.7,39c0.3,0,0.5-0.1,0.7-0.3c0.2-0.1,0.2-0.4,0.2-0.7c0-0.2-0.1-0.3-0.2-0.4
	c-0.1-0.1-0.3-0.2-0.4-0.3s-0.4-0.2-0.6-0.2c-0.2,0-0.4,0-0.6,0c-0.2,0-0.4,0.1-0.5,0.2c-0.3,0.2-0.4,0.4-0.4,0.6c0,0.2,0,0.4,0,0.6
	c0,0.1,0.1,0.2,0.2,0.3c0.1,0.1,0.3,0.2,0.4,0.2c0.2,0.1,0.4,0.1,0.6,0.2C56.3,39,56.5,39,56.7,39z M55.9,46.7
	c0.2,0.8,0.4,1.7,0.5,2.6c0,0.3,0.1,0.6,0.2,0.9s0.2,0.6,0.2,0.9c0.1,0.5,0.2,0.9,0.3,1.2c0.2,0.3,0.3,0.5,0.5,0.6s0.5,0.2,0.7,0.2
	c0.3,0,0.6,0,0.9,0c0.2-0.2,0.3-0.4,0.3-0.6c0.1-0.2,0.1-0.3,0.1-0.4l0-0.1c-0.1-0.3-0.2-0.7-0.4-1.3c-0.2-0.6-0.3-1.2-0.5-1.9
	c-0.2-0.7-0.4-1.4-0.5-2.2c-0.2-0.8-0.3-1.5-0.4-2.2c0-0.2,0-0.4-0.1-0.6c0-0.2,0-0.4,0-0.5c-0.1-0.1-0.3-0.2-0.4-0.3
	c-0.1-0.1-0.3-0.2-0.6-0.2c-0.2,0.1-0.4,0.1-0.5,0.2c-0.2,0-0.3,0.1-0.5,0.2c-0.3,0.2-0.4,0.5-0.3,0.9C55.5,45,55.7,45.9,55.9,46.7z
	 M54.3,21.4c0.1,0.5,0.4,1.1,0.7,1.5c0.3,0.5,0.7,1,1.2,1.5c0.4,0.5,0.9,1.1,1.4,1.7c0.5,0.6,0.9,1.3,1.3,2.1c0,0,0.1,0.1,0.1,0.3
	c0.1,0.4,0.1,0.8-0.1,1.1c-0.2,0.3-0.4,0.5-0.7,0.6c-0.2,0.1-0.5,0-0.7-0.2c-0.2,0.1-0.3,0.2-0.4,0.3c-0.1,0.1-0.1,0.2-0.1,0.4
	c0.1,0.4,0.4,0.7,0.8,0.9c0.4,0.2,0.8,0.3,1.2,0.2c0.4-0.1,0.8-0.3,1.2-0.6c0.3-0.3,0.6-0.6,0.8-1c0.2-0.4,0.3-0.8,0.4-1.2
	c0.1-0.4,0-0.9-0.1-1.4c-0.2-0.9-0.5-1.7-1-2.3c-0.5-0.6-1-1.3-1.5-1.9l-0.2-0.2c-0.1-0.1-0.2-0.2-0.4-0.4c-0.2-0.2-0.4-0.4-0.5-0.7
	c-0.2-0.2-0.3-0.5-0.5-0.7c-0.1-0.2-0.2-0.4-0.3-0.5l-0.2-0.7c-0.1-0.4-0.1-0.8-0.1-1.1c0-0.4,0.1-0.8,0.3-1.1
	c0.1-0.1,0.1-0.2,0.2-0.3c0.1-0.1,0.1-0.2,0.1-0.4c-0.1-0.1-0.2-0.3-0.4-0.5c-0.2-0.2-0.4-0.2-0.5-0.2c-0.1,0-0.1,0-0.2,0
	c0,0-0.1,0-0.2,0c-0.5,0.1-0.9,0.3-1.1,0.7c-0.2,0.3-0.4,0.7-0.5,1.2c-0.1,0.5-0.1,0.9-0.1,1.4C54.1,20.5,54.2,21,54.3,21.4z
	 M15,29.2c0.1,0,0.3,0.1,0.5,0.1c0.2,0,0.4,0,0.6-0.1c0.2-0.1,0.4-0.1,0.6-0.2c0.3-0.2,0.5-0.3,0.6-0.5c0.1-0.2,0.1-0.5-0.1-0.8
	c-0.1-0.1-0.2-0.3-0.4-0.3c-0.2-0.1-0.4-0.1-0.6-0.2c-0.2,0-0.4,0-0.6,0c-0.2,0-0.4,0.1-0.6,0.2c-0.2,0.1-0.3,0.2-0.4,0.4
	c-0.2,0.3-0.2,0.5-0.2,0.7c0,0.2,0.1,0.4,0.2,0.6C14.8,29.1,14.9,29.2,15,29.2z M18.8,39.5c-0.3-0.1-0.6-0.1-0.9,0.1
	c-0.1,0.1-0.2,0.2-0.4,0.4c-0.2,0.2-0.3,0.3-0.4,0.3c-0.1,0.2-0.2,0.5-0.4,0.9c-0.1,0.4-0.3,0.8-0.5,1.4c-0.4,1-0.7,1.8-1,2.2
	l-0.5-0.6c-0.5-0.6-1-1.3-1.6-2.2c-0.6-0.8-1.3-1.8-2-2.9c-0.7-1-1.3-1.9-1.8-2.7c-0.5-0.8-1-1.5-1.5-2.1c-0.1-0.2-0.3-0.4-0.4-0.5
	c-0.1-0.2-0.3-0.3-0.4-0.5c-0.4-0.4-0.9-0.3-1.5,0.1c-0.3,0.2-0.5,0.5-0.5,0.9c0.3,0.3,0.6,0.7,0.9,1C6.4,35.6,6.7,36,7,36.4
	c0.9,1.1,2.1,3.1,3.8,5.8c0.7,1.1,1.3,2.1,1.9,3c0.6,0.9,1.1,1.6,1.6,2.3l0.4,0.5l0.9,0.2c0.4,0.1,0.7,0.1,0.9,0
	c0.1-0.1,0.2-0.2,0.2-0.3c0.3-0.5,0.5-1,0.8-1.6c0.2-0.6,0.5-1.3,0.7-2.1l1.3-3.9c0-0.2,0-0.3-0.2-0.5
	C19.2,39.7,19.1,39.6,18.8,39.5z M24.8,40.4c-0.2-0.3-0.5-0.6-0.9-1.1s-0.8-1-1.2-1.6c-0.5-0.6-0.9-1.2-1.4-1.9
	c-0.5-0.7-0.9-1.3-1.2-2c-0.1-0.2-0.2-0.4-0.3-0.5c-0.1-0.2-0.2-0.3-0.2-0.5c-0.2-0.1-0.3-0.1-0.5-0.2c-0.2-0.1-0.4-0.1-0.7,0
	c-0.2,0.1-0.3,0.3-0.4,0.4c-0.1,0.1-0.3,0.2-0.4,0.4c-0.2,0.3-0.2,0.7,0,1c0.5,0.8,1,1.6,1.5,2.3c0.5,0.7,1,1.5,1.5,2.3
	c0.2,0.3,0.3,0.5,0.6,0.8c0.2,0.2,0.4,0.5,0.6,0.8c0.3,0.5,0.5,0.8,0.8,1.1c0.3,0.2,0.5,0.4,0.8,0.4c0.3,0.1,0.5,0,0.8-0.1
	c0.3-0.1,0.5-0.2,0.8-0.4C25,41.4,25,41.2,25,41C25,40.8,24.9,40.7,24.8,40.4L24.8,40.4z"/>
</svg>
