<?xml version="1.0" encoding="utf-8"?>
<!-- Generator: Adobe Illustrator 27.1.1, SVG Export Plug-In . SVG Version: 6.00 Build 0)  -->
<svg version="1.1" id="Capa_1" xmlns="http://www.w3.org/2000/svg" xmlns:xlink="http://www.w3.org/1999/xlink" x="0px" y="0px"
	 viewBox="0 0 410 40" style="enable-background:new 0 0 410 40;" xml:space="preserve">
<style type="text/css">
	.st0{fill:#707070;}
	.st1{enable-background:new    ;}
	.st2{fill:#68E242;}
</style>
<path class="st0" d="M21.32,7.7c-0.25-0.11-0.57-0.17-0.94-0.17H20.1c-0.32,0.02-0.53,0.37-0.63,1.05c-0.2,1.7-0.41,3.21-0.62,4.54
	s-0.45,2.54-0.71,3.62h-0.12c-0.08,0-0.21,0.01-0.39,0.03c-0.18,0.02-0.4,0.03-0.66,0.03h-0.36c-0.54,0-0.95-0.04-1.23-0.13
	c-0.28-0.09-0.42-0.32-0.42-0.67c0-0.26,0.02-0.58,0.06-0.95s0.08-0.74,0.12-1.11c0.04-0.37,0.08-0.71,0.12-1.03
	c0.04-0.32,0.06-0.56,0.06-0.72c0-0.22-0.01-0.45-0.03-0.69c-0.02-0.24-0.06-0.46-0.12-0.67c-0.06-0.21-0.15-0.39-0.26-0.54
	c-0.11-0.15-0.25-0.26-0.43-0.32l-0.9-0.24c-0.1,0-0.26,0.02-0.48,0.06s-0.33,0.18-0.33,0.42v0.36c0,0.52-0.03,1.16-0.09,1.92
	c-0.06,0.76-0.13,1.57-0.21,2.43c-0.08,0.86-0.18,1.72-0.29,2.59s-0.21,1.68-0.28,2.42c-0.08,0.74-0.15,1.38-0.21,1.93
	c-0.06,0.55-0.09,0.94-0.09,1.16c0,0.1-0.01,0.28-0.04,0.53c-0.03,0.25-0.04,0.46-0.04,0.62c0,0.36,0.05,0.65,0.17,0.87
	c0.11,0.22,0.24,0.4,0.4,0.53s0.33,0.21,0.53,0.25c0.19,0.04,0.38,0.06,0.55,0.06c0.18,0,0.44-0.05,0.78-0.15
	c0.04-1.56,0.13-2.92,0.28-4.09c0.15-1.17,0.33-2.15,0.56-2.92c0.26-0.08,0.55-0.12,0.87-0.12c0.08,0,0.21,0.01,0.4,0.04
	c0.19,0.03,0.39,0.06,0.6,0.09s0.41,0.06,0.6,0.09c0.19,0.03,0.34,0.04,0.46,0.04H18c0,0.18-0.02,0.45-0.04,0.79
	c-0.03,0.35-0.07,0.72-0.1,1.09c-0.04,0.38-0.08,0.74-0.1,1.08c-0.03,0.34-0.04,0.59-0.04,0.75c0,0.12-0.01,0.28-0.02,0.48
	c-0.01,0.2-0.02,0.42-0.03,0.64c-0.01,0.23-0.02,0.45-0.03,0.65c-0.01,0.2-0.02,0.36-0.02,0.48c0,0.86,0.15,1.52,0.47,1.97
	c0.31,0.45,0.86,0.67,1.67,0.67c0.14,0,0.25-0.07,0.34-0.2s0.14-0.27,0.14-0.41c-0.02-0.28-0.04-0.57-0.05-0.85
	c-0.01-0.29-0.01-0.6-0.01-0.92c0-0.6,0.03-1.37,0.1-2.31c0.07-0.94,0.17-1.95,0.28-3.04c0.12-1.09,0.25-2.21,0.38-3.38
	c0.13-1.16,0.26-2.26,0.38-3.31c0.12-1.05,0.23-2,0.32-2.85c0.09-0.85,0.14-1.51,0.16-1.99C21.72,7.98,21.57,7.81,21.32,7.7z
	 M147.87,9.16c0.18,0.1,0.38,0.18,0.61,0.25s0.46,0.1,0.67,0.1c0.34,0,0.61-0.06,0.8-0.19c0.19-0.13,0.28-0.39,0.28-0.77
	c0-0.18-0.05-0.35-0.17-0.51c-0.11-0.16-0.25-0.3-0.43-0.44c-0.18-0.13-0.38-0.23-0.58-0.3c-0.21-0.07-0.42-0.1-0.62-0.1
	c-0.26,0-0.44,0.05-0.54,0.15c-0.32,0.18-0.5,0.36-0.55,0.54c-0.05,0.18-0.08,0.39-0.08,0.63c0,0.1,0.05,0.21,0.17,0.32
	C147.54,8.95,147.69,9.06,147.87,9.16z M133.6,13.63c-0.29-0.18-0.67-0.27-1.15-0.27c-0.24,0-0.44,0.04-0.6,0.12
	c-0.28,0.22-0.55,0.5-0.81,0.84c-0.26,0.34-0.51,0.69-0.75,1.05c-0.24,0.36-0.47,0.69-0.69,1c-0.22,0.31-0.43,0.54-0.63,0.71
	l-0.09-1.59c-0.02-0.22-0.04-0.45-0.08-0.69s-0.09-0.46-0.19-0.65c-0.1-0.19-0.25-0.35-0.45-0.48c-0.2-0.13-0.47-0.2-0.81-0.2
	c-0.36,0-0.61,0.07-0.75,0.21c-0.14,0.14-0.25,0.34-0.33,0.6c0,0.2,0.04,0.38,0.12,0.55s0.12,0.34,0.12,0.53v0.12
	c0.02,0.44,0.04,0.88,0.08,1.32c0.03,0.44,0.04,0.88,0.04,1.32v0.99c0,0.04,0,0.19,0.01,0.46c0.01,0.27,0.02,0.59,0.03,0.96
	s0.02,0.78,0.03,1.21c0.01,0.44,0.01,0.85,0.01,1.23c0,0.4,0,0.74-0.01,1.01c-0.01,0.27-0.04,0.46-0.08,0.55v0.12
	c0,0.34,0.12,0.62,0.34,0.85c0.23,0.23,0.54,0.35,0.92,0.35c0.32,0,0.58-0.07,0.78-0.2c0.2-0.13,0.36-0.3,0.48-0.51
	c0.12-0.21,0.2-0.44,0.24-0.69s0.06-0.5,0.06-0.74c0-0.16-0.01-0.38-0.02-0.67c-0.01-0.29-0.01-0.51-0.01-0.67
	c0-0.26,0.08-0.6,0.24-1.04c0.16-0.43,0.36-0.88,0.6-1.37c0.24-0.48,0.51-0.95,0.81-1.41c0.3-0.46,0.6-0.85,0.9-1.17
	c0.18-0.26,0.39-0.53,0.65-0.8c0.25-0.27,0.49-0.53,0.72-0.78c0.23-0.25,0.43-0.49,0.62-0.72c0.18-0.23,0.29-0.43,0.33-0.61
	C134.12,14.1,133.89,13.81,133.6,13.63z M123.55,15.7c-0.21-0.48-0.5-0.89-0.87-1.22s-0.85-0.5-1.45-0.5
	c-0.32,0-0.63,0.05-0.92,0.15c-0.29,0.1-0.55,0.22-0.78,0.36c-0.23,0.14-0.42,0.27-0.55,0.39c-0.14,0.12-0.23,0.2-0.27,0.24
	c-0.52,0.66-0.9,1.17-1.12,1.53c-0.23,0.36-0.43,0.72-0.62,1.08c0-0.06,0-0.19-0.01-0.39c-0.01-0.2-0.01-0.42-0.01-0.64
	c0-0.23,0-0.44,0-0.62s0-0.29,0-0.33l0.12-3.39c0.04-1.28,0.15-2.49,0.33-3.63c0.18-1.14,0.32-2.35,0.42-3.63
	c-0.04-0.2-0.14-0.34-0.3-0.42c-0.16-0.08-0.33-0.12-0.51-0.12c-0.24,0-0.54,0.04-0.88,0.11c-0.35,0.07-0.58,0.25-0.67,0.55
	c-0.12,0.4-0.2,0.78-0.24,1.14c-0.04,0.36-0.06,0.73-0.06,1.11c-0.24,1.96-0.39,3.78-0.45,5.45c-0.06,1.67-0.09,3.34-0.09,5.03
	c0,0.38,0.02,0.81,0.04,1.3c0.03,0.49,0.07,0.96,0.12,1.41c0.05,0.45,0.11,0.84,0.17,1.17c0.06,0.33,0.12,0.52,0.18,0.58
	c0.06,0.22,0.13,0.45,0.21,0.69c0.08,0.24,0.17,0.47,0.29,0.69c0.11,0.22,0.22,0.42,0.33,0.58c0.11,0.17,0.23,0.29,0.35,0.34
	c0.46,0.14,0.93,0.25,1.42,0.33s0.98,0.12,1.49,0.12c0.5,0,1.06-0.11,1.68-0.33c0.62-0.22,1.16-0.54,1.62-0.96
	c0.34-0.32,0.62-0.72,0.83-1.21s0.38-0.99,0.49-1.49c0.12-0.5,0.2-0.97,0.24-1.41c0.04-0.44,0.06-0.78,0.06-1.02
	c0-0.44-0.04-0.94-0.12-1.5C123.91,16.7,123.76,16.18,123.55,15.7z M121.38,20c-0.06,0.53-0.18,1.03-0.36,1.48
	c-0.18,0.46-0.42,0.85-0.73,1.17c-0.31,0.32-0.72,0.51-1.21,0.57c-0.32,0-0.58-0.02-0.78-0.06c-0.2-0.04-0.41-0.18-0.63-0.42
	c0.02-0.36,0.05-0.69,0.1-0.98c0.05-0.29,0.11-0.56,0.18-0.82c0.07-0.26,0.15-0.52,0.24-0.77c0.09-0.25,0.19-0.52,0.29-0.83
	l0.06-0.18c0.08-0.24,0.22-0.52,0.43-0.84c0.21-0.32,0.44-0.62,0.67-0.92c0.24-0.29,0.48-0.54,0.71-0.74c0.23-0.2,0.41-0.3,0.53-0.3
	s0.22,0.08,0.3,0.24s0.14,0.35,0.2,0.57c0.05,0.22,0.08,0.45,0.09,0.69c0.01,0.24,0.01,0.45,0.01,0.63
	C121.47,18.98,121.44,19.47,121.38,20z M104.96,13.63c-0.29-0.18-0.68-0.27-1.16-0.27c-0.24,0-0.44,0.04-0.6,0.12
	c-0.28,0.22-0.55,0.5-0.81,0.84c-0.26,0.34-0.51,0.69-0.75,1.05c-0.24,0.36-0.47,0.69-0.69,1c-0.22,0.31-0.43,0.54-0.63,0.71
	l-0.09-1.59c-0.02-0.22-0.04-0.45-0.08-0.69c-0.03-0.24-0.09-0.46-0.19-0.65c-0.1-0.19-0.25-0.35-0.45-0.48s-0.47-0.2-0.81-0.2
	c-0.36,0-0.61,0.07-0.75,0.21c-0.14,0.14-0.25,0.34-0.33,0.6c0,0.2,0.04,0.38,0.12,0.55s0.12,0.34,0.12,0.53v0.12
	c0.02,0.44,0.04,0.88,0.08,1.32c0.03,0.44,0.04,0.88,0.04,1.32v0.99c0,0.04,0,0.19,0.02,0.46c0.01,0.27,0.02,0.59,0.03,0.96
	c0.01,0.37,0.02,0.78,0.03,1.21c0.01,0.44,0.01,0.85,0.01,1.23c0,0.4,0,0.74-0.01,1.01c-0.01,0.27-0.04,0.46-0.08,0.55v0.12
	c0,0.34,0.11,0.62,0.35,0.85c0.23,0.23,0.53,0.35,0.91,0.35c0.32,0,0.58-0.07,0.78-0.2c0.2-0.13,0.36-0.3,0.48-0.51
	s0.2-0.44,0.24-0.69s0.06-0.5,0.06-0.74c0-0.16,0-0.38-0.01-0.67c-0.01-0.29-0.02-0.51-0.02-0.67c0-0.26,0.08-0.6,0.24-1.04
	c0.16-0.43,0.36-0.88,0.6-1.37c0.24-0.48,0.51-0.95,0.81-1.41c0.3-0.46,0.6-0.85,0.9-1.17c0.18-0.26,0.4-0.53,0.65-0.8
	c0.25-0.27,0.49-0.53,0.72-0.78c0.23-0.25,0.44-0.49,0.61-0.72c0.18-0.23,0.29-0.43,0.33-0.61
	C105.47,14.1,105.24,13.81,104.96,13.63z M83.46,17.14c-0.12-0.24-0.24-0.49-0.36-0.75s-0.29-0.48-0.51-0.66
	c-0.26-0.22-0.54-0.4-0.84-0.54c-0.3-0.14-0.6-0.27-0.92-0.39s-0.61-0.24-0.92-0.36c-0.3-0.12-0.59-0.27-0.87-0.45
	c-0.18-0.12-0.36-0.18-0.54-0.18c-0.44,0-0.87,0.14-1.29,0.42c-0.42,0.28-0.79,0.61-1.12,0.98s-0.6,0.75-0.83,1.14
	s-0.36,0.7-0.42,0.92c-0.12,0.52-0.25,1.08-0.4,1.7c-0.15,0.61-0.23,1.13-0.23,1.57c0,0.9,0.18,1.66,0.54,2.28
	c0.36,0.62,0.87,1.12,1.53,1.5c0.3,0.18,0.58,0.37,0.85,0.55c0.27,0.19,0.57,0.29,0.92,0.29h0.18c0.12,0,0.23,0,0.34,0.02
	c0.11,0.01,0.21,0.01,0.32,0.01c0.36,0,0.71-0.1,1.06-0.32c0.35-0.21,0.68-0.46,1-0.76c0.32-0.3,0.61-0.62,0.87-0.96
	c0.26-0.34,0.47-0.64,0.63-0.9c0.32-0.5,0.59-1.01,0.82-1.54c0.23-0.53,0.35-1.1,0.38-1.72V18.4c0-0.22-0.01-0.43-0.03-0.64
	C83.62,17.54,83.56,17.34,83.46,17.14z M81,18.13c-0.04,0.4-0.1,0.82-0.19,1.26c-0.09,0.44-0.21,0.86-0.36,1.26
	c-0.15,0.4-0.35,0.77-0.58,1.11c-0.24,0.34-0.52,0.61-0.84,0.81c-0.22,0.1-0.42,0.19-0.6,0.26c-0.18,0.07-0.38,0.1-0.6,0.1
	c-0.24,0-0.44-0.1-0.58-0.3c-0.15-0.2-0.27-0.43-0.35-0.69c-0.08-0.26-0.13-0.51-0.17-0.75c-0.03-0.24-0.04-0.4-0.04-0.48
	c0-0.38,0.04-0.83,0.13-1.33c0.09-0.51,0.23-0.99,0.44-1.44c0.2-0.45,0.44-0.83,0.72-1.14c0.28-0.31,0.62-0.46,1.02-0.46
	c0.5,0,0.96,0.13,1.38,0.39S81,17.4,81,17.98V18.13z M54.03,23.56c-0.36-0.26-0.8-0.56-1.32-0.92c-0.52-0.35-1.06-0.75-1.62-1.21
	s-1.04-1.01-1.44-1.65c0.26-0.3,0.59-0.69,0.99-1.18c0.4-0.49,0.79-1,1.17-1.51c0.38-0.52,0.71-1.01,0.99-1.47
	c0.28-0.46,0.42-0.8,0.42-1.02c0-0.16-0.04-0.29-0.12-0.38c-0.08-0.09-0.17-0.17-0.27-0.23c-0.1-0.06-0.22-0.11-0.35-0.15
	c-0.13-0.04-0.24-0.08-0.31-0.12c-0.32,0-0.61,0.08-0.88,0.22c-0.27,0.15-0.52,0.34-0.75,0.57c-0.23,0.23-0.43,0.49-0.58,0.78
	c-0.16,0.29-0.29,0.58-0.39,0.85c-0.3,0.42-0.65,0.82-1.04,1.2c-0.39,0.38-0.79,0.74-1.19,1.08c0.06-1.4,0.12-2.95,0.17-4.65
	c0.05-1.7,0.08-3.7,0.08-6c0-0.62-0.1-1.08-0.31-1.39c-0.21-0.31-0.58-0.5-1.1-0.58c-0.28,0.06-0.54,0.15-0.79,0.25
	c-0.25,0.11-0.48,0.28-0.67,0.5c-0.1,0.26-0.15,0.5-0.15,0.72c0,1.44,0.03,2.81,0.1,4.09c0.07,1.29,0.11,2.6,0.11,3.92
	c0,0.7-0.01,1.44-0.02,2.22c-0.01,0.78-0.02,1.58-0.02,2.38s0,1.62-0.02,2.42s-0.01,1.56-0.01,2.28c0,0.22,0.01,0.42,0.03,0.61
	c0.02,0.19,0.08,0.36,0.17,0.51c0.09,0.15,0.23,0.27,0.4,0.36c0.18,0.09,0.44,0.14,0.78,0.14c0.38,0,0.71-0.11,1-0.33
	c0.29-0.22,0.44-0.55,0.44-0.99c0-0.56-0.04-1.11-0.1-1.63c-0.07-0.53-0.1-1.07-0.1-1.61v-0.42c0.42,0.28,0.89,0.66,1.41,1.14
	c0.52,0.48,1.03,0.95,1.54,1.41c0.51,0.46,0.99,0.86,1.46,1.2c0.46,0.34,0.83,0.51,1.11,0.51c0.14,0,0.31-0.01,0.51-0.04
	c0.2-0.03,0.39-0.08,0.57-0.17c0.18-0.08,0.33-0.2,0.46-0.36c0.13-0.16,0.19-0.37,0.19-0.63C54.57,24.06,54.39,23.82,54.03,23.56z
	 M72,14.59c-0.06-0.34-0.24-0.6-0.54-0.78s-0.62-0.27-0.96-0.27c-0.34,0-0.59,0.16-0.75,0.48c-0.16,0.32-0.28,0.72-0.35,1.19
	c-0.07,0.47-0.12,0.97-0.13,1.5c-0.02,0.53-0.06,1-0.12,1.39c-0.1,0.34-0.22,0.76-0.36,1.28c-0.14,0.51-0.31,1.01-0.51,1.51
	c-0.2,0.5-0.44,0.96-0.72,1.37c-0.28,0.41-0.62,0.69-1.02,0.83c-0.2-0.14-0.36-0.38-0.46-0.71c-0.11-0.33-0.2-0.7-0.26-1.11
	c-0.06-0.41-0.1-0.81-0.1-1.21c-0.01-0.4-0.01-0.74-0.01-1.02v-0.51c0-0.26,0-0.6,0.01-1.04c0.01-0.43,0.02-0.78,0.04-1.06
	c-0.06-0.26-0.09-0.55-0.09-0.87c0-0.32-0.03-0.62-0.09-0.88c-0.06-0.27-0.19-0.5-0.39-0.68c-0.2-0.18-0.53-0.27-0.99-0.27
	c-0.22,0-0.4,0.09-0.53,0.29c-0.13,0.19-0.24,0.42-0.31,0.71c-0.08,0.28-0.13,0.58-0.15,0.88c-0.02,0.31-0.03,0.58-0.03,0.83
	c0,0.34,0.01,0.67,0.03,0.97c0.02,0.31,0.03,0.64,0.03,0.98c0,0.12,0,0.24-0.01,0.36c-0.01,0.12-0.02,0.24-0.02,0.36
	c0,0.52,0.03,1.15,0.1,1.89c0.07,0.74,0.22,1.45,0.45,2.13c0.23,0.68,0.56,1.26,1,1.74c0.44,0.48,1.03,0.72,1.77,0.72
	c0.24,0,0.5-0.06,0.78-0.19c0.28-0.13,0.56-0.31,0.83-0.53s0.51-0.46,0.73-0.72c0.22-0.26,0.39-0.53,0.51-0.81
	c0.08,0,0.13,0.01,0.15,0.03c-0.02,0.14-0.03,0.28-0.03,0.41s0,0.28,0,0.43c0,1.44-0.18,2.79-0.54,4.04
	c-0.36,1.25-0.99,2.48-1.89,3.67c-0.24,0.28-0.55,0.52-0.92,0.72c-0.37,0.2-0.73,0.38-1.1,0.54c-0.36,0.16-0.67,0.3-0.93,0.43
	c-0.26,0.13-0.39,0.25-0.39,0.38c0,0.18,0.05,0.34,0.15,0.5c0.1,0.15,0.23,0.27,0.38,0.38c0.15,0.1,0.31,0.17,0.48,0.22
	s0.31,0.08,0.44,0.08c0.46,0,0.86-0.05,1.21-0.15c0.35-0.1,0.66-0.22,0.92-0.36c0.26-0.14,0.49-0.29,0.69-0.45s0.39-0.31,0.57-0.45
	c1.2-1.4,2.05-2.94,2.56-4.62c0.51-1.68,0.77-3.58,0.77-5.7c0-0.32-0.01-0.67-0.02-1.04c-0.01-0.37-0.03-0.73-0.04-1.08
	c-0.02-0.35-0.04-0.67-0.04-0.98c-0.01-0.3-0.02-0.54-0.02-0.72c0-0.54,0.02-1.22,0.04-2.05S71.92,15.73,72,14.59z M41.55,23.41
	h-0.39c-0.38,0-0.74-0.17-1.08-0.51c-0.22-0.12-0.46-0.31-0.71-0.58c-0.25-0.27-0.48-0.59-0.67-0.96c-0.2-0.37-0.37-0.76-0.5-1.18
	c-0.13-0.42-0.2-0.84-0.2-1.26c0-0.22,0.02-0.47,0.06-0.75s0.14-0.53,0.3-0.75c0.06-0.14,0.16-0.28,0.3-0.42
	c0.12-0.12,0.28-0.26,0.48-0.42c0.2-0.16,0.47-0.32,0.81-0.48c0.2-0.1,0.41-0.16,0.62-0.18c0.21-0.02,0.42-0.08,0.65-0.18
	c0.2-0.06,0.35-0.18,0.45-0.36c0.1-0.18,0.16-0.32,0.18-0.42c-0.12-0.46-0.27-0.75-0.45-0.89c-0.18-0.13-0.5-0.21-0.96-0.25
	c-0.32,0-0.62,0.05-0.9,0.15c-0.28,0.1-0.56,0.19-0.84,0.27l-1.14,0.51c-0.36,0.24-0.67,0.54-0.93,0.89
	c-0.26,0.35-0.48,0.73-0.66,1.15c-0.18,0.42-0.32,0.85-0.41,1.29c-0.09,0.44-0.13,0.86-0.13,1.26c0,0.12,0.01,0.27,0.03,0.46
	c0.02,0.19,0.05,0.39,0.1,0.6c0.05,0.21,0.11,0.42,0.18,0.62c0.07,0.2,0.15,0.36,0.25,0.48c0.26,0.62,0.62,1.17,1.1,1.65
	c0.47,0.48,0.95,0.93,1.45,1.35c0.32,0.22,0.63,0.37,0.95,0.45c0.31,0.08,0.63,0.17,0.98,0.27c0.22-0.02,0.44-0.04,0.67-0.08
	c0.23-0.03,0.44-0.08,0.61-0.13c0.18-0.06,0.33-0.15,0.44-0.27s0.17-0.28,0.17-0.48c0-0.24-0.07-0.44-0.23-0.6
	C41.99,23.49,41.79,23.41,41.55,23.41z M144.99,24.43l-0.21-0.6l-0.18-1.11c-0.22-0.9-0.37-1.75-0.45-2.57
	c-0.08-0.81-0.19-1.71-0.33-2.71c-0.06-0.52-0.15-1.02-0.27-1.5c-0.12-0.48-0.35-0.86-0.69-1.14c-0.16-0.12-0.35-0.25-0.57-0.38
	c-0.22-0.13-0.45-0.24-0.69-0.33c-0.24-0.09-0.47-0.17-0.71-0.22c-0.23-0.06-0.43-0.09-0.61-0.09c-0.84,0-1.64,0.33-2.39,0.98
	c-0.75,0.65-1.41,1.44-1.98,2.35c-0.57,0.92-1.02,1.87-1.35,2.83c-0.33,0.97-0.5,1.79-0.5,2.45c0,0.3,0.03,0.62,0.09,0.97
	c0.06,0.35,0.17,0.67,0.33,0.95c0.16,0.28,0.39,0.52,0.71,0.71c0.31,0.19,0.71,0.29,1.18,0.29c0.6,0,1.2-0.21,1.8-0.63
	c0.6-0.42,1.15-0.92,1.65-1.52c0.5-0.59,0.92-1.2,1.25-1.84c0.33-0.64,0.52-1.17,0.58-1.59c0.1,0.6,0.21,1.28,0.31,2.03
	c0.11,0.75,0.25,1.46,0.41,2.13s0.37,1.23,0.63,1.68s0.59,0.67,0.99,0.67c0.12,0,0.25-0.01,0.39-0.04s0.28-0.08,0.41-0.13
	c0.13-0.06,0.24-0.14,0.33-0.24c0.09-0.1,0.13-0.23,0.13-0.39c0-0.16-0.03-0.33-0.09-0.5C145.11,24.75,145.05,24.59,144.99,24.43z
	 M140.95,16.51c-0.07,0.2-0.16,0.42-0.27,0.64c-0.11,0.23-0.22,0.46-0.33,0.68c-0.11,0.22-0.21,0.42-0.29,0.6
	c-0.14,0.4-0.36,0.86-0.65,1.37s-0.6,1-0.94,1.46c-0.34,0.46-0.68,0.85-1.02,1.18s-0.64,0.51-0.9,0.53c0-0.02,0-0.04-0.01-0.04
	s-0.01-0.03-0.01-0.04v-0.15c0-0.54,0.09-1.1,0.29-1.68c0.19-0.58,0.42-1.12,0.7-1.62c0.06-0.1,0.17-0.34,0.33-0.74
	c0.16-0.39,0.37-0.79,0.62-1.21s0.54-0.8,0.88-1.14s0.73-0.51,1.17-0.51c0.1,0,0.19,0.02,0.27,0.06s0.17,0.08,0.27,0.12
	C141.06,16.14,141.02,16.31,140.95,16.51z M34.05,24.43l-0.21-0.6l-0.18-1.11c-0.22-0.9-0.37-1.75-0.45-2.57
	c-0.08-0.81-0.19-1.71-0.33-2.71c-0.06-0.52-0.15-1.02-0.27-1.5c-0.12-0.48-0.35-0.86-0.69-1.14c-0.16-0.12-0.35-0.25-0.57-0.38
	c-0.22-0.13-0.45-0.24-0.69-0.33c-0.24-0.09-0.48-0.17-0.71-0.22c-0.23-0.06-0.44-0.09-0.62-0.09c-0.84,0-1.63,0.33-2.38,0.98
	c-0.75,0.65-1.41,1.44-1.98,2.35c-0.57,0.92-1.02,1.87-1.35,2.83c-0.33,0.97-0.5,1.79-0.5,2.45c0,0.3,0.03,0.62,0.09,0.97
	c0.06,0.35,0.17,0.67,0.33,0.95c0.16,0.28,0.39,0.52,0.7,0.71s0.71,0.29,1.19,0.29c0.6,0,1.2-0.21,1.8-0.63
	c0.6-0.42,1.15-0.92,1.65-1.52c0.5-0.59,0.92-1.2,1.25-1.84c0.33-0.64,0.52-1.17,0.58-1.59c0.1,0.6,0.2,1.28,0.31,2.03
	c0.11,0.75,0.24,1.46,0.4,2.13s0.37,1.23,0.63,1.68s0.59,0.67,0.99,0.67c0.12,0,0.25-0.01,0.39-0.04c0.14-0.03,0.27-0.08,0.4-0.13
	c0.13-0.06,0.24-0.14,0.33-0.24c0.09-0.1,0.13-0.23,0.13-0.39c0-0.16-0.03-0.33-0.09-0.5S34.11,24.59,34.05,24.43z M30.02,16.51
	c-0.07,0.2-0.16,0.42-0.27,0.64c-0.11,0.23-0.22,0.46-0.33,0.68c-0.11,0.22-0.21,0.42-0.29,0.6c-0.14,0.4-0.35,0.86-0.65,1.37
	s-0.6,1-0.94,1.46c-0.34,0.46-0.68,0.85-1.02,1.18c-0.34,0.33-0.64,0.51-0.9,0.53c0-0.02-0.01-0.04-0.02-0.04
	c-0.01-0.01-0.02-0.03-0.02-0.04v-0.15c0-0.54,0.09-1.1,0.29-1.68c0.19-0.58,0.42-1.12,0.71-1.62c0.06-0.1,0.17-0.34,0.33-0.74
	c0.16-0.39,0.36-0.79,0.61-1.21s0.54-0.8,0.89-1.14c0.34-0.34,0.73-0.51,1.17-0.51c0.1,0,0.19,0.02,0.27,0.06
	c0.08,0.04,0.17,0.08,0.27,0.12C30.12,16.14,30.09,16.31,30.02,16.51z M95.73,22.96c-0.3-0.42-0.52-0.98-0.65-1.67
	c-0.13-0.69-0.2-1.52-0.2-2.48c0-0.48,0.03-1.05,0.1-1.72c0.07-0.67,0.1-1.59,0.1-2.78c-0.1-0.16-0.26-0.32-0.48-0.48
	c-0.22-0.16-0.41-0.24-0.57-0.24c-0.02,0-0.04,0-0.06-0.01c-0.02-0.01-0.04-0.02-0.06-0.02c-0.5,0-0.85,0.07-1.06,0.21
	c-0.21,0.14-0.35,0.32-0.4,0.53c-0.06,0.21-0.09,0.45-0.08,0.71c0.01,0.26-0.03,0.52-0.1,0.78c-0.2,0.62-0.46,1.33-0.78,2.13
	s-0.67,1.56-1.05,2.28c-0.38,0.72-0.77,1.33-1.15,1.84c-0.39,0.51-0.75,0.79-1.06,0.83c-0.04-0.42-0.09-1.04-0.15-1.85
	c-0.06-0.81-0.09-1.69-0.09-2.65c0-0.28,0.02-0.58,0.08-0.9c0.05-0.32,0.07-0.77,0.07-1.35c0-0.34,0.03-0.63,0.09-0.89
	c0.06-0.25,0.09-0.53,0.09-0.85c0-0.38-0.16-0.67-0.48-0.87c-0.32-0.2-0.64-0.32-0.96-0.36c-0.1,0.02-0.19,0.04-0.26,0.06
	s-0.13,0.04-0.19,0.06c-0.12,0.04-0.23,0.09-0.31,0.13c-0.09,0.05-0.15,0.1-0.17,0.14c-0.16,0.48-0.26,0.97-0.3,1.47
	c-0.04,0.5-0.06,1.02-0.06,1.56v1.05c0,0.28,0,0.56,0,0.84s-0.02,0.56-0.06,0.84c0,1.2,0.03,2.21,0.1,3.03
	c0.07,0.82,0.2,1.49,0.39,2.01c0.19,0.52,0.46,0.89,0.81,1.12c0.35,0.23,0.81,0.34,1.4,0.34c0.54,0,1.04-0.2,1.51-0.58
	c0.47-0.39,0.89-0.85,1.25-1.38c0.36-0.53,0.67-1.08,0.94-1.63s0.48-1.01,0.65-1.35l0.12-0.24c0.06,0.48,0.13,0.94,0.21,1.39
	c0.08,0.45,0.21,0.86,0.38,1.23s0.39,0.68,0.66,0.94c0.27,0.26,0.62,0.44,1.06,0.54c0.14-0.04,0.28-0.07,0.42-0.09
	c0.14-0.02,0.27-0.05,0.39-0.1s0.23-0.13,0.31-0.24s0.15-0.26,0.19-0.46c-0.08-0.18-0.17-0.33-0.27-0.47
	C95.96,23.23,95.85,23.1,95.73,22.96z M324.19,17.14c-0.12-0.24-0.24-0.49-0.36-0.75s-0.29-0.48-0.51-0.66
	c-0.26-0.22-0.54-0.4-0.84-0.54c-0.3-0.14-0.61-0.27-0.92-0.39c-0.31-0.12-0.62-0.24-0.92-0.36s-0.59-0.27-0.87-0.45
	c-0.18-0.12-0.36-0.18-0.54-0.18c-0.44,0-0.87,0.14-1.29,0.42c-0.42,0.28-0.79,0.61-1.12,0.98s-0.6,0.75-0.83,1.14
	c-0.22,0.39-0.36,0.7-0.42,0.92c-0.12,0.52-0.25,1.08-0.4,1.7c-0.15,0.61-0.23,1.13-0.23,1.57c0,0.9,0.18,1.66,0.54,2.28
	c0.36,0.62,0.87,1.12,1.53,1.5c0.3,0.18,0.58,0.37,0.85,0.55c0.27,0.19,0.58,0.29,0.92,0.29h0.18c0.12,0,0.23,0,0.34,0.02
	c0.11,0.01,0.21,0.01,0.32,0.01c0.36,0,0.71-0.1,1.06-0.32c0.35-0.21,0.68-0.46,1-0.76s0.61-0.62,0.87-0.96
	c0.26-0.34,0.47-0.64,0.63-0.9c0.32-0.5,0.59-1.01,0.83-1.54c0.23-0.53,0.35-1.1,0.38-1.72V18.4c0-0.22-0.01-0.43-0.03-0.64
	S324.29,17.34,324.19,17.14z M321.73,18.13c-0.04,0.4-0.11,0.82-0.2,1.26c-0.09,0.44-0.21,0.86-0.36,1.26
	c-0.15,0.4-0.35,0.77-0.58,1.11c-0.24,0.34-0.52,0.61-0.84,0.81c-0.22,0.1-0.42,0.19-0.6,0.26s-0.38,0.1-0.6,0.1
	c-0.24,0-0.44-0.1-0.58-0.3c-0.15-0.2-0.27-0.43-0.35-0.69c-0.08-0.26-0.13-0.51-0.17-0.75c-0.03-0.24-0.04-0.4-0.04-0.48
	c0-0.38,0.04-0.83,0.13-1.33c0.09-0.51,0.24-0.99,0.44-1.44c0.2-0.45,0.44-0.83,0.72-1.14c0.28-0.31,0.62-0.46,1.02-0.46
	c0.5,0,0.96,0.13,1.38,0.39s0.63,0.68,0.63,1.26V18.13z M364.28,15.7c-0.21-0.48-0.5-0.89-0.87-1.22s-0.85-0.5-1.45-0.5
	c-0.32,0-0.63,0.05-0.92,0.15c-0.29,0.1-0.55,0.22-0.78,0.36c-0.23,0.14-0.42,0.27-0.55,0.39c-0.14,0.12-0.23,0.2-0.27,0.24
	c-0.52,0.66-0.9,1.17-1.12,1.53c-0.23,0.36-0.43,0.72-0.62,1.08c0-0.06,0-0.19-0.01-0.39c-0.01-0.2-0.01-0.42-0.01-0.64
	c0-0.23,0-0.44,0-0.62s0-0.29,0-0.33l0.12-3.39c0.04-1.28,0.15-2.49,0.33-3.63c0.18-1.14,0.32-2.35,0.42-3.63
	c-0.04-0.2-0.14-0.34-0.3-0.42c-0.16-0.08-0.33-0.12-0.51-0.12c-0.24,0-0.54,0.04-0.88,0.11c-0.35,0.07-0.58,0.25-0.67,0.55
	c-0.12,0.4-0.2,0.78-0.24,1.14c-0.04,0.36-0.06,0.73-0.06,1.11c-0.24,1.96-0.39,3.78-0.45,5.45c-0.06,1.67-0.09,3.34-0.09,5.03
	c0,0.38,0.02,0.81,0.04,1.3c0.03,0.49,0.07,0.96,0.12,1.41c0.05,0.45,0.11,0.84,0.17,1.17c0.06,0.33,0.12,0.52,0.18,0.58
	c0.06,0.22,0.13,0.45,0.21,0.69c0.08,0.24,0.17,0.47,0.29,0.69c0.11,0.22,0.22,0.42,0.33,0.58c0.11,0.17,0.23,0.29,0.35,0.34
	c0.46,0.14,0.93,0.25,1.42,0.33s0.98,0.12,1.49,0.12c0.5,0,1.06-0.11,1.68-0.33c0.62-0.22,1.16-0.54,1.62-0.96
	c0.34-0.32,0.62-0.72,0.83-1.21s0.38-0.99,0.49-1.49c0.12-0.5,0.2-0.97,0.24-1.41c0.04-0.44,0.06-0.78,0.06-1.02
	c0-0.44-0.04-0.94-0.12-1.5C364.64,16.7,364.49,16.18,364.28,15.7z M362.11,20c-0.06,0.53-0.18,1.03-0.36,1.48
	c-0.18,0.46-0.42,0.85-0.73,1.17c-0.31,0.32-0.72,0.51-1.21,0.57c-0.32,0-0.58-0.02-0.78-0.06c-0.2-0.04-0.41-0.18-0.63-0.42
	c0.02-0.36,0.05-0.69,0.1-0.98c0.05-0.29,0.11-0.56,0.18-0.82c0.07-0.26,0.15-0.52,0.24-0.77c0.09-0.25,0.19-0.52,0.29-0.83
	l0.06-0.18c0.08-0.24,0.22-0.52,0.43-0.84c0.21-0.32,0.44-0.62,0.67-0.92c0.24-0.29,0.48-0.54,0.71-0.74c0.23-0.2,0.41-0.3,0.53-0.3
	s0.22,0.08,0.3,0.24s0.14,0.35,0.2,0.57c0.05,0.22,0.08,0.45,0.09,0.69c0.01,0.24,0.01,0.45,0.01,0.63
	C362.2,18.98,362.17,19.47,362.11,20z M336.46,22.96c-0.3-0.42-0.52-0.98-0.65-1.67c-0.13-0.69-0.2-1.52-0.2-2.48
	c0-0.48,0.04-1.05,0.11-1.72c0.07-0.67,0.1-1.59,0.1-2.78c-0.1-0.16-0.26-0.32-0.48-0.48c-0.22-0.16-0.41-0.24-0.57-0.24
	c-0.02,0-0.04,0-0.06-0.01c-0.02-0.01-0.04-0.02-0.06-0.02c-0.5,0-0.85,0.07-1.06,0.21c-0.21,0.14-0.35,0.32-0.41,0.53
	s-0.08,0.45-0.08,0.71s-0.03,0.52-0.1,0.78c-0.2,0.62-0.46,1.33-0.78,2.13c-0.32,0.8-0.67,1.56-1.05,2.28
	c-0.38,0.72-0.77,1.33-1.16,1.84s-0.75,0.79-1.06,0.83c-0.04-0.42-0.09-1.04-0.15-1.85c-0.06-0.81-0.09-1.69-0.09-2.65
	c0-0.28,0.02-0.58,0.08-0.9c0.05-0.32,0.07-0.77,0.07-1.35c0-0.34,0.03-0.63,0.09-0.89c0.06-0.25,0.09-0.53,0.09-0.85
	c0-0.38-0.16-0.67-0.48-0.87s-0.64-0.32-0.96-0.36c-0.1,0.02-0.18,0.04-0.25,0.06s-0.13,0.04-0.2,0.06
	c-0.12,0.04-0.22,0.09-0.31,0.13c-0.09,0.05-0.15,0.1-0.17,0.14c-0.16,0.48-0.26,0.97-0.3,1.47c-0.04,0.5-0.06,1.02-0.06,1.56v1.05
	c0,0.28,0,0.56,0,0.84s-0.02,0.56-0.06,0.84c0,1.2,0.03,2.21,0.1,3.03s0.2,1.49,0.39,2.01c0.19,0.52,0.46,0.89,0.81,1.12
	c0.35,0.23,0.81,0.34,1.4,0.34c0.54,0,1.04-0.2,1.51-0.58c0.47-0.39,0.88-0.85,1.25-1.38c0.36-0.53,0.67-1.08,0.94-1.63
	c0.27-0.56,0.49-1.01,0.65-1.35l0.12-0.24c0.06,0.48,0.13,0.94,0.21,1.39c0.08,0.45,0.21,0.86,0.38,1.23s0.39,0.68,0.66,0.94
	c0.27,0.26,0.62,0.44,1.06,0.54c0.14-0.04,0.28-0.07,0.42-0.09c0.14-0.02,0.27-0.05,0.39-0.1s0.22-0.13,0.31-0.24
	s0.16-0.26,0.2-0.46c-0.08-0.18-0.17-0.33-0.27-0.47C336.69,23.23,336.58,23.1,336.46,22.96z M345.69,13.63
	c-0.29-0.18-0.68-0.27-1.15-0.27c-0.24,0-0.44,0.04-0.6,0.12c-0.28,0.22-0.55,0.5-0.81,0.84c-0.26,0.34-0.51,0.69-0.75,1.05
	c-0.24,0.36-0.47,0.69-0.69,1c-0.22,0.31-0.43,0.54-0.63,0.71l-0.09-1.59c-0.02-0.22-0.04-0.45-0.08-0.69
	c-0.03-0.24-0.09-0.46-0.19-0.65c-0.1-0.19-0.25-0.35-0.45-0.48c-0.2-0.13-0.47-0.2-0.81-0.2c-0.36,0-0.61,0.07-0.75,0.21
	c-0.14,0.14-0.25,0.34-0.33,0.6c0,0.2,0.04,0.38,0.12,0.55s0.12,0.34,0.12,0.53v0.12c0.02,0.44,0.04,0.88,0.08,1.32
	c0.03,0.44,0.04,0.88,0.04,1.32v0.99c0,0.04,0,0.19,0.02,0.46c0.01,0.27,0.02,0.59,0.03,0.96s0.02,0.78,0.03,1.21
	c0.01,0.44,0.01,0.85,0.01,1.23c0,0.4,0,0.74-0.01,1.01c-0.01,0.27-0.04,0.46-0.08,0.55v0.12c0,0.34,0.12,0.62,0.35,0.85
	c0.23,0.23,0.53,0.35,0.91,0.35c0.32,0,0.58-0.07,0.78-0.2c0.2-0.13,0.36-0.3,0.48-0.51s0.2-0.44,0.24-0.69s0.06-0.5,0.06-0.74
	c0-0.16,0-0.38-0.01-0.67c-0.01-0.29-0.02-0.51-0.02-0.67c0-0.26,0.08-0.6,0.24-1.04c0.16-0.43,0.36-0.88,0.6-1.37
	c0.24-0.48,0.51-0.95,0.81-1.41s0.6-0.85,0.9-1.17c0.18-0.26,0.39-0.53,0.64-0.8c0.25-0.27,0.49-0.53,0.72-0.78
	c0.23-0.25,0.43-0.49,0.62-0.72c0.18-0.23,0.29-0.43,0.33-0.61C346.2,14.1,345.97,13.81,345.69,13.63z M398.59,21.29
	c-0.02-0.35-0.04-0.67-0.04-0.98c-0.01-0.3-0.02-0.54-0.02-0.72c0-0.54,0.02-1.22,0.05-2.05c0.03-0.83,0.08-1.82,0.16-2.96
	c-0.06-0.34-0.24-0.6-0.54-0.78c-0.3-0.18-0.62-0.27-0.96-0.27s-0.59,0.16-0.75,0.48c-0.16,0.32-0.27,0.72-0.34,1.19
	s-0.12,0.97-0.13,1.5c-0.02,0.53-0.06,1-0.12,1.39c-0.1,0.34-0.22,0.76-0.36,1.28c-0.14,0.51-0.31,1.01-0.51,1.51
	s-0.44,0.96-0.72,1.37c-0.28,0.41-0.62,0.69-1.02,0.83c-0.2-0.14-0.35-0.38-0.46-0.71s-0.19-0.7-0.25-1.11
	c-0.06-0.41-0.09-0.81-0.1-1.21c-0.01-0.4-0.02-0.74-0.02-1.02v-0.51c0-0.26,0-0.6,0.02-1.04c0.01-0.43,0.02-0.78,0.04-1.06
	c-0.06-0.26-0.09-0.55-0.09-0.87c0-0.32-0.03-0.62-0.09-0.88c-0.06-0.27-0.19-0.5-0.39-0.68c-0.2-0.18-0.53-0.27-0.99-0.27
	c-0.22,0-0.39,0.09-0.52,0.29c-0.13,0.19-0.24,0.42-0.32,0.71s-0.13,0.58-0.15,0.88c-0.02,0.31-0.03,0.58-0.03,0.83
	c0,0.34,0.01,0.67,0.03,0.97c0.02,0.31,0.03,0.64,0.03,0.98c0,0.12,0,0.24-0.01,0.36c-0.01,0.12-0.01,0.24-0.01,0.36
	c0,0.52,0.03,1.15,0.1,1.89c0.07,0.74,0.22,1.45,0.45,2.13c0.23,0.68,0.56,1.26,1,1.74c0.44,0.48,1.03,0.72,1.77,0.72
	c0.24,0,0.5-0.06,0.78-0.19c0.28-0.13,0.55-0.31,0.83-0.53c0.27-0.22,0.51-0.46,0.74-0.72c0.22-0.26,0.39-0.53,0.51-0.81
	c0.08,0,0.13,0.01,0.15,0.03c-0.02,0.14-0.03,0.28-0.03,0.41s0,0.28,0,0.43c0,1.44-0.18,2.79-0.54,4.04
	c-0.36,1.25-0.99,2.48-1.89,3.67c-0.24,0.28-0.54,0.52-0.92,0.72c-0.37,0.2-0.73,0.38-1.09,0.54c-0.36,0.16-0.67,0.3-0.93,0.43
	c-0.26,0.13-0.39,0.25-0.39,0.38c0,0.18,0.05,0.34,0.15,0.5c0.1,0.15,0.22,0.27,0.38,0.38c0.15,0.1,0.31,0.17,0.48,0.22
	c0.17,0.05,0.31,0.08,0.43,0.08c0.46,0,0.87-0.05,1.21-0.15c0.35-0.1,0.66-0.22,0.92-0.36c0.26-0.14,0.49-0.29,0.69-0.45
	c0.2-0.16,0.39-0.31,0.57-0.45c1.2-1.4,2.06-2.94,2.57-4.62c0.51-1.68,0.76-3.58,0.76-5.7c0-0.32,0-0.67-0.01-1.04
	C398.62,22,398.61,21.64,398.59,21.29z M388,22.54c-0.06-0.12-0.14-0.34-0.24-0.66c-0.1-0.32-0.21-0.65-0.32-0.99
	c-0.11-0.34-0.2-0.66-0.27-0.96c-0.07-0.3-0.11-0.49-0.11-0.57v-0.12c-0.12-0.38-0.22-0.81-0.3-1.29c-0.08-0.48-0.15-0.98-0.21-1.49
	c-0.06-0.51-0.11-1.01-0.15-1.51s-0.08-0.96-0.12-1.38c-0.06-0.52-0.12-1.09-0.18-1.72c-0.06-0.63-0.09-1.17-0.09-1.63
	c0-0.74,0.02-1.42,0.08-2.03c0.05-0.61,0.08-1.25,0.08-1.93c0-0.32-0.1-0.62-0.3-0.89c-0.2-0.27-0.48-0.4-0.84-0.4
	c-0.24,0-0.49,0.04-0.73,0.13c-0.25,0.09-0.46,0.24-0.62,0.43c-0.14,0.14-0.2,0.31-0.18,0.5c0.02,0.19,0.01,0.37-0.03,0.53
	c0.02,0.22,0.03,0.43,0.03,0.64s0,0.42,0,0.62c0,0.6,0,1.12,0.02,1.58c0.01,0.45,0.01,0.71,0.01,0.76c0,0.64,0.03,1.3,0.09,1.98
	c0.06,0.68,0.09,1.37,0.09,2.07c-0.26-0.08-0.52-0.16-0.79-0.24c-0.27-0.08-0.54-0.12-0.82-0.12c-0.4,0-0.7,0.08-0.9,0.24
	c-0.2,0.16-0.34,0.26-0.42,0.3c-0.52,0.36-1,0.84-1.44,1.44c-0.44,0.6-0.81,1.24-1.12,1.92c-0.31,0.68-0.55,1.37-0.72,2.07
	c-0.17,0.7-0.25,1.34-0.25,1.92c0,1,0.23,1.83,0.69,2.5c0.46,0.67,1.19,1,2.19,1c0.44,0,0.89-0.12,1.35-0.36s0.9-0.59,1.32-1.05
	s0.79-1.02,1.11-1.67c0.32-0.65,0.56-1.38,0.72-2.21c0.08,0.16,0.17,0.42,0.25,0.79s0.18,0.76,0.27,1.18s0.18,0.82,0.29,1.19
	c0.1,0.37,0.2,0.62,0.3,0.76c0.2,0.46,0.39,0.74,0.57,0.84c0.18,0.1,0.37,0.19,0.57,0.27c0.04,0.02,0.17,0.03,0.38,0.03
	s0.33,0,0.38,0c0.2,0,0.4-0.08,0.6-0.24c0.2-0.16,0.3-0.44,0.3-0.84c-0.1-0.24-0.18-0.48-0.24-0.72
	C388.21,22.99,388.12,22.76,388,22.54z M383.11,18.01c-0.1,0.3-0.19,0.6-0.27,0.9c-0.16,0.34-0.32,0.74-0.48,1.2
	c-0.16,0.46-0.35,0.9-0.57,1.32c-0.22,0.42-0.48,0.78-0.78,1.08c-0.3,0.3-0.66,0.45-1.08,0.45c-0.04-0.16-0.1-0.33-0.18-0.51
	c-0.08-0.18-0.12-0.35-0.12-0.51c0-0.3,0.01-0.57,0.04-0.83c0.03-0.25,0.07-0.49,0.12-0.73c0.05-0.24,0.12-0.5,0.21-0.77
	c0.09-0.27,0.19-0.58,0.31-0.94c0.18-0.54,0.45-1,0.79-1.4c0.35-0.39,0.67-0.79,0.95-1.21c0.08,0,0.14,0,0.2,0.02
	c0.05,0.01,0.1,0.01,0.17,0.01c0,0.1-0.01,0.2-0.02,0.3c-0.01,0.1-0.01,0.2-0.01,0.3c0.04,0.1,0.11,0.16,0.21,0.18
	c0.1,0.02,0.2,0.04,0.3,0.04c0.1,0.01,0.18,0.02,0.25,0.03c0.07,0.01,0.11,0.04,0.11,0.11C383.26,17.39,383.21,17.71,383.11,18.01z
	 M150.06,20.53c-0.1-0.78-0.19-1.6-0.27-2.46c-0.08-0.86-0.12-1.67-0.12-2.43c0-0.22,0-0.43,0.01-0.63s0.03-0.4,0.04-0.6
	c-0.12-0.14-0.25-0.29-0.39-0.44c-0.14-0.15-0.35-0.26-0.63-0.34c-0.22,0.04-0.42,0.08-0.6,0.1c-0.18,0.03-0.37,0.08-0.57,0.14
	c-0.34,0.22-0.51,0.54-0.51,0.96c0,1.02,0.06,1.99,0.18,2.91c0.12,0.92,0.18,1.89,0.18,2.91c0,0.34,0.04,0.68,0.11,1.02
	c0.07,0.34,0.1,0.68,0.1,1.02c0,0.58,0.06,1.04,0.18,1.38c0.12,0.34,0.29,0.6,0.5,0.78s0.46,0.3,0.75,0.36
	c0.29,0.06,0.6,0.09,0.95,0.09c0.22-0.22,0.37-0.41,0.45-0.57c0.08-0.16,0.12-0.32,0.12-0.48v-0.12c-0.04-0.34-0.11-0.83-0.2-1.47
	C150.25,22.02,150.16,21.31,150.06,20.53z M375.91,17.14c-0.12-0.24-0.24-0.49-0.36-0.75c-0.12-0.26-0.29-0.48-0.51-0.66
	c-0.26-0.22-0.54-0.4-0.84-0.54c-0.3-0.14-0.61-0.27-0.92-0.39c-0.31-0.12-0.62-0.24-0.92-0.36s-0.59-0.27-0.87-0.45
	c-0.18-0.12-0.36-0.18-0.54-0.18c-0.44,0-0.87,0.14-1.29,0.42c-0.42,0.28-0.79,0.61-1.12,0.98c-0.33,0.37-0.6,0.75-0.82,1.14
	c-0.22,0.39-0.36,0.7-0.42,0.92c-0.12,0.52-0.26,1.08-0.41,1.7c-0.15,0.61-0.23,1.13-0.23,1.57c0,0.9,0.18,1.66,0.54,2.28
	c0.36,0.62,0.87,1.12,1.53,1.5c0.3,0.18,0.58,0.37,0.86,0.55c0.27,0.19,0.57,0.29,0.92,0.29h0.18c0.12,0,0.23,0,0.34,0.02
	c0.11,0.01,0.21,0.01,0.32,0.01c0.36,0,0.71-0.1,1.06-0.32c0.35-0.21,0.69-0.46,1-0.76c0.32-0.3,0.61-0.62,0.87-0.96
	c0.26-0.34,0.47-0.64,0.63-0.9c0.32-0.5,0.6-1.01,0.83-1.54c0.23-0.53,0.36-1.1,0.38-1.72V18.4c0-0.22-0.01-0.43-0.03-0.64
	C376.07,17.54,376.01,17.34,375.91,17.14z M373.45,18.13c-0.04,0.4-0.1,0.82-0.2,1.26c-0.09,0.44-0.21,0.86-0.36,1.26
	c-0.15,0.4-0.34,0.77-0.58,1.11s-0.52,0.61-0.84,0.81c-0.22,0.1-0.42,0.19-0.6,0.26c-0.18,0.07-0.38,0.1-0.6,0.1
	c-0.24,0-0.44-0.1-0.58-0.3c-0.15-0.2-0.27-0.43-0.34-0.69c-0.08-0.26-0.14-0.51-0.17-0.75c-0.03-0.24-0.05-0.4-0.05-0.48
	c0-0.38,0.05-0.83,0.14-1.33c0.09-0.51,0.23-0.99,0.43-1.44s0.44-0.83,0.72-1.14c0.28-0.31,0.62-0.46,1.02-0.46
	c0.5,0,0.96,0.13,1.38,0.39s0.63,0.68,0.63,1.26V18.13z M261.16,20.71c-0.04-0.34-0.07-0.71-0.1-1.12c-0.03-0.41-0.08-0.78-0.17-1.1
	c0-0.32-0.04-0.73-0.12-1.23c-0.08-0.5-0.22-0.99-0.42-1.47c-0.2-0.48-0.48-0.9-0.83-1.25c-0.35-0.35-0.79-0.54-1.33-0.58
	c-0.34,0-0.69,0.12-1.04,0.34c-0.35,0.23-0.68,0.54-0.99,0.93c-0.31,0.39-0.61,0.84-0.89,1.33c-0.28,0.5-0.53,1.02-0.75,1.56
	c0-0.7,0-1.38,0.02-2.05c0.01-0.67,0.02-1.36,0.03-2.06c0.01-0.7,0.03-1.42,0.06-2.17c0.03-0.75,0.06-1.56,0.1-2.45
	c0.02-0.44,0.07-0.85,0.15-1.25c0.08-0.39,0.12-0.83,0.12-1.33c0-0.4-0.1-0.75-0.3-1.06c-0.2-0.31-0.51-0.46-0.93-0.46
	c-0.24,0-0.53,0.05-0.87,0.15c-0.14,0.48-0.25,1.06-0.34,1.73s-0.16,1.38-0.2,2.11c-0.04,0.74-0.07,1.51-0.09,2.3
	c-0.02,0.79-0.03,1.54-0.03,2.26c0,1.2,0.02,2.41,0.07,3.63s0.08,2.4,0.08,3.54v0.54c0,0.44,0.01,0.88,0.03,1.3
	c0.02,0.43,0.1,0.82,0.24,1.17c0.14,0.35,0.35,0.64,0.65,0.86c0.29,0.22,0.69,0.33,1.21,0.33c0.14,0,0.26-0.06,0.36-0.18
	c0.1-0.12,0.18-0.27,0.24-0.46c0.06-0.19,0.1-0.39,0.13-0.61c0.03-0.22,0.06-0.44,0.08-0.66v-0.12c0-0.04,0-0.06,0.02-0.08
	c0.01-0.01,0.01-0.04,0.01-0.08v-0.15c0.02-0.12,0.06-0.35,0.14-0.69c0.07-0.34,0.16-0.73,0.27-1.17c0.11-0.44,0.24-0.9,0.4-1.38
	c0.16-0.48,0.33-0.93,0.53-1.37c0.19-0.43,0.39-0.79,0.61-1.09c0.22-0.3,0.45-0.49,0.69-0.57c0.08,0,0.16,0.12,0.24,0.34
	c0.08,0.23,0.15,0.51,0.23,0.84c0.07,0.33,0.13,0.67,0.18,1.03c0.05,0.36,0.08,0.66,0.08,0.9c0,0.3,0.02,0.77,0.07,1.41
	c0.05,0.64,0.15,1.27,0.31,1.91c0.16,0.63,0.39,1.18,0.69,1.67c0.3,0.48,0.7,0.72,1.2,0.72c0.16,0,0.34-0.08,0.54-0.24
	c0.2-0.16,0.33-0.34,0.39-0.54c-0.04-0.58-0.16-1.21-0.36-1.91C261.38,22.04,261.24,21.37,261.16,20.71z M312.73,14.59
	c-0.06-0.34-0.24-0.6-0.54-0.78s-0.62-0.27-0.96-0.27s-0.59,0.16-0.75,0.48c-0.16,0.32-0.28,0.72-0.34,1.19
	c-0.07,0.47-0.12,0.97-0.13,1.5c-0.02,0.53-0.06,1-0.12,1.39c-0.1,0.34-0.22,0.76-0.36,1.28c-0.14,0.51-0.31,1.01-0.51,1.51
	c-0.2,0.5-0.44,0.96-0.72,1.37c-0.28,0.41-0.62,0.69-1.02,0.83c-0.2-0.14-0.36-0.38-0.46-0.71c-0.11-0.33-0.2-0.7-0.25-1.11
	c-0.06-0.41-0.1-0.81-0.11-1.21s-0.01-0.74-0.01-1.02v-0.51c0-0.26,0-0.6,0.01-1.04c0.01-0.43,0.03-0.78,0.04-1.06
	c-0.06-0.26-0.09-0.55-0.09-0.87c0-0.32-0.03-0.62-0.09-0.88c-0.06-0.27-0.19-0.5-0.39-0.68c-0.2-0.18-0.53-0.27-0.99-0.27
	c-0.22,0-0.4,0.09-0.53,0.29s-0.24,0.42-0.31,0.71c-0.08,0.28-0.13,0.58-0.15,0.88c-0.02,0.31-0.03,0.58-0.03,0.83
	c0,0.34,0.01,0.67,0.03,0.97c0.02,0.31,0.03,0.64,0.03,0.98c0,0.12,0,0.24-0.01,0.36c-0.01,0.12-0.02,0.24-0.02,0.36
	c0,0.52,0.04,1.15,0.11,1.89c0.07,0.74,0.22,1.45,0.45,2.13c0.23,0.68,0.56,1.26,1,1.74c0.44,0.48,1.03,0.72,1.77,0.72
	c0.24,0,0.5-0.06,0.78-0.19c0.28-0.13,0.55-0.31,0.83-0.53c0.27-0.22,0.51-0.46,0.73-0.72s0.39-0.53,0.51-0.81
	c0.08,0,0.13,0.01,0.15,0.03c-0.02,0.14-0.03,0.28-0.03,0.41s0,0.28,0,0.43c0,1.44-0.18,2.79-0.54,4.04
	c-0.36,1.25-0.99,2.48-1.89,3.67c-0.24,0.28-0.54,0.52-0.92,0.72c-0.37,0.2-0.73,0.38-1.09,0.54c-0.36,0.16-0.67,0.3-0.93,0.43
	c-0.26,0.13-0.39,0.25-0.39,0.38c0,0.18,0.05,0.34,0.15,0.5c0.1,0.15,0.22,0.27,0.38,0.38c0.15,0.1,0.31,0.17,0.48,0.22
	s0.32,0.08,0.44,0.08c0.46,0,0.86-0.05,1.21-0.15c0.35-0.1,0.66-0.22,0.92-0.36c0.26-0.14,0.49-0.29,0.69-0.45
	c0.2-0.16,0.39-0.31,0.57-0.45c1.2-1.4,2.05-2.94,2.57-4.62c0.51-1.68,0.76-3.58,0.76-5.7c0-0.32,0-0.67-0.01-1.04
	c-0.01-0.37-0.03-0.73-0.04-1.08c-0.02-0.35-0.04-0.67-0.04-0.98c-0.01-0.3-0.02-0.54-0.02-0.72c0-0.54,0.02-1.22,0.04-2.05
	C312.6,16.71,312.65,15.73,312.73,14.59z M163.06,20.86c-0.09-0.68-0.2-1.35-0.33-2.01c-0.13-0.66-0.33-1.28-0.58-1.86
	c-0.12-0.26-0.22-0.53-0.29-0.82c-0.07-0.29-0.15-0.57-0.24-0.84c-0.09-0.27-0.22-0.52-0.39-0.74s-0.43-0.38-0.77-0.48
	c-0.4,0-0.79,0.15-1.17,0.45s-0.73,0.67-1.05,1.09c-0.32,0.43-0.6,0.88-0.84,1.35s-0.42,0.87-0.54,1.18l-0.06,0.18
	c-0.16,0.4-0.33,0.82-0.5,1.26c-0.17,0.44-0.4,0.8-0.68,1.08v-0.15c0-0.48,0.01-0.98,0.03-1.5c0.02-0.52,0.03-1.15,0.03-1.89
	c0-0.22-0.03-0.43-0.08-0.63s-0.08-0.41-0.08-0.63c0-0.16-0.01-0.36-0.03-0.6c-0.02-0.24-0.07-0.47-0.14-0.69
	c-0.07-0.22-0.18-0.41-0.33-0.56c-0.15-0.15-0.35-0.22-0.61-0.22c-0.1,0-0.21,0-0.33,0.01c-0.12,0.01-0.24,0.02-0.36,0.02
	c-0.22,0.1-0.38,0.26-0.46,0.49c-0.09,0.23-0.13,0.47-0.13,0.71c0,0.34,0.01,0.69,0.03,1.04c0.02,0.35,0.03,0.7,0.03,1.04
	c0,1.2,0,2.34-0.01,3.42c-0.01,1.08-0.02,2.25-0.02,3.51c0,0.28,0.15,0.52,0.44,0.72c0.29,0.2,0.54,0.3,0.74,0.3
	c0.18,0,0.37-0.01,0.57-0.04s0.41-0.12,0.63-0.27c0.22-0.15,0.46-0.38,0.72-0.71c0.26-0.32,0.55-0.77,0.87-1.35
	c0.24-0.42,0.44-0.83,0.6-1.25c0.16-0.41,0.33-0.83,0.5-1.26c0.17-0.43,0.36-0.88,0.57-1.35c0.21-0.47,0.49-0.97,0.83-1.51
	c0.2,0.24,0.36,0.55,0.46,0.93c0.11,0.38,0.21,0.79,0.29,1.23c0.08,0.44,0.15,0.88,0.21,1.3c0.06,0.43,0.14,0.82,0.24,1.16
	c0.08,0.28,0.14,0.63,0.2,1.05c0.05,0.42,0.13,0.83,0.24,1.21c0.11,0.39,0.27,0.72,0.47,0.99c0.2,0.27,0.48,0.41,0.84,0.41
	c0.24,0,0.51-0.08,0.83-0.23c0.31-0.15,0.48-0.38,0.52-0.7c-0.24-0.56-0.42-1.17-0.54-1.83C163.26,22.21,163.15,21.54,163.06,20.86z
	 M246.91,14.86c-0.38-0.78-0.59-1.22-0.63-1.32c-0.18-0.5-0.27-1.04-0.27-1.62c0-1.56,0.54-2.88,1.62-3.96
	c0.12-0.12,0.24-0.18,0.36-0.18c0.08,0,0.23,0.04,0.45,0.12c0.04,0.02,0.12,0.03,0.24,0.03c0.1,0,0.19-0.02,0.27-0.06
	c0.58-0.3,0.87-0.65,0.87-1.05c0-0.24-0.1-0.46-0.3-0.66c-0.42-0.46-1.05-0.69-1.89-0.69c-0.4,0-0.85,0.11-1.35,0.33
	c-1,0.48-1.77,1.27-2.31,2.37c-0.48,0.96-0.72,2.05-0.72,3.27c0,1.48,0.64,3.46,1.92,5.94c1.3,2.5,1.95,4.38,1.95,5.64
	c0,0.94-0.21,1.84-0.63,2.7c-0.1,0.22-0.3,0.34-0.6,0.36c-0.3,0.04-0.49,0.1-0.57,0.18c-0.3,0.34-0.45,0.63-0.45,0.87
	c0,0.4,0.3,0.73,0.9,0.99c0.14,0.06,0.31,0.09,0.51,0.09c0.46,0,0.98-0.21,1.56-0.63c0.72-0.54,1.17-0.98,1.35-1.32
	c0.54-1.02,0.81-2.08,0.81-3.18c0-1.34-0.48-2.97-1.44-4.89C247.84,16.75,247.29,15.64,246.91,14.86z M273.91,24.43l-0.21-0.6
	l-0.18-1.11c-0.22-0.9-0.37-1.75-0.45-2.57c-0.08-0.81-0.19-1.71-0.33-2.71c-0.06-0.52-0.15-1.02-0.27-1.5
	c-0.12-0.48-0.35-0.86-0.69-1.14c-0.16-0.12-0.35-0.25-0.57-0.38s-0.45-0.24-0.69-0.33c-0.24-0.09-0.48-0.17-0.71-0.22
	c-0.23-0.06-0.44-0.09-0.62-0.09c-0.84,0-1.63,0.33-2.38,0.98c-0.75,0.65-1.41,1.44-1.98,2.35c-0.57,0.92-1.02,1.87-1.35,2.83
	c-0.33,0.97-0.5,1.79-0.5,2.45c0,0.3,0.03,0.62,0.09,0.97c0.06,0.35,0.17,0.67,0.33,0.95c0.16,0.28,0.39,0.52,0.7,0.71
	s0.71,0.29,1.19,0.29c0.6,0,1.2-0.21,1.8-0.63c0.6-0.42,1.15-0.92,1.65-1.52c0.5-0.59,0.91-1.2,1.24-1.84
	c0.33-0.64,0.53-1.17,0.58-1.59c0.1,0.6,0.21,1.28,0.32,2.03c0.11,0.75,0.24,1.46,0.4,2.13s0.37,1.23,0.63,1.68s0.59,0.67,0.99,0.67
	c0.12,0,0.25-0.01,0.39-0.04c0.14-0.03,0.27-0.08,0.4-0.13c0.13-0.06,0.24-0.14,0.33-0.24c0.09-0.1,0.13-0.23,0.13-0.39
	c0-0.16-0.03-0.33-0.09-0.5C274.03,24.75,273.97,24.59,273.91,24.43z M269.88,16.51c-0.07,0.2-0.16,0.42-0.27,0.64
	c-0.11,0.23-0.22,0.46-0.33,0.68c-0.11,0.22-0.21,0.42-0.29,0.6c-0.14,0.4-0.35,0.86-0.65,1.37s-0.6,1-0.94,1.46
	c-0.34,0.46-0.68,0.85-1.02,1.18c-0.34,0.33-0.64,0.51-0.9,0.53c0-0.02-0.01-0.04-0.02-0.04c-0.01-0.01-0.02-0.03-0.02-0.04v-0.15
	c0-0.54,0.09-1.1,0.29-1.68c0.19-0.58,0.42-1.12,0.71-1.62c0.06-0.1,0.17-0.34,0.33-0.74c0.16-0.39,0.36-0.79,0.61-1.21
	s0.54-0.8,0.89-1.14c0.34-0.34,0.73-0.51,1.17-0.51c0.1,0,0.19,0.02,0.27,0.06s0.17,0.08,0.27,0.12
	C269.98,16.14,269.95,16.31,269.88,16.51z M294.85,22.63c-0.1-0.14-0.21-0.24-0.33-0.29s-0.23-0.09-0.33-0.13
	c-0.5,0.34-0.96,0.65-1.36,0.93c-0.41,0.28-0.93,0.42-1.55,0.42c-0.08,0-0.24-0.03-0.48-0.09s-0.49-0.2-0.75-0.41
	s-0.5-0.52-0.72-0.94c-0.22-0.42-0.34-1-0.36-1.74c0-0.04,0-0.09,0-0.17s0.01-0.16,0.03-0.25c0.26,0.08,0.49,0.14,0.69,0.18
	s0.43,0.05,0.69,0.03c0.6-0.02,1.13-0.13,1.6-0.34c0.47-0.21,0.87-0.49,1.19-0.83c0.32-0.34,0.56-0.72,0.73-1.16
	c0.17-0.43,0.26-0.88,0.26-1.33c0-0.36-0.07-0.71-0.2-1.04c-0.13-0.33-0.33-0.62-0.58-0.88c-0.26-0.26-0.58-0.47-0.98-0.63
	c-0.39-0.16-0.84-0.24-1.36-0.24c-0.74,0-1.39,0.19-1.95,0.55c-0.56,0.37-1.03,0.86-1.41,1.46c-0.38,0.6-0.67,1.28-0.85,2.03
	c-0.19,0.75-0.29,1.5-0.29,2.23c0.02,0.48,0.05,0.94,0.1,1.37c0.05,0.43,0.15,0.85,0.3,1.25c0.15,0.4,0.36,0.78,0.63,1.14
	c0.27,0.36,0.64,0.72,1.12,1.08c0.32,0.16,0.71,0.31,1.18,0.45s0.87,0.21,1.18,0.21c0.72,0,1.31-0.06,1.76-0.19
	c0.45-0.13,0.93-0.42,1.45-0.86c0.16-0.14,0.3-0.3,0.44-0.5c0.13-0.19,0.21-0.42,0.22-0.71c0-0.14-0.01-0.24-0.03-0.31
	C294.89,22.84,294.87,22.75,294.85,22.63z M289.33,17.3c0.08-0.27,0.17-0.5,0.25-0.67s0.18-0.32,0.29-0.42
	c0.1-0.1,0.19-0.2,0.27-0.3c0.1-0.16,0.25-0.26,0.44-0.3c0.19-0.04,0.38-0.06,0.58-0.06c0.28,0,0.5,0.12,0.66,0.36
	c0.16,0.24,0.24,0.5,0.24,0.78c0,0.48-0.18,0.89-0.55,1.23s-0.9,0.51-1.58,0.51c-0.1,0-0.24,0-0.41-0.01s-0.29-0.03-0.38-0.04
	C289.19,17.93,289.25,17.57,289.33,17.3z M284.08,16.75c-0.24-0.44-0.53-0.84-0.85-1.2c-0.33-0.36-0.69-0.64-1.07-0.84
	c-0.02,0-0.04,0-0.04-0.02c-0.01-0.01-0.03-0.01-0.04-0.01l-0.09-0.06c-0.28-0.16-0.56-0.29-0.84-0.38
	c-0.28-0.09-0.69-0.14-1.23-0.14h-0.21c-0.16,0-0.36,0.04-0.58,0.12c-0.23,0.08-0.42,0.15-0.58,0.21c-0.12-0.38-0.28-0.7-0.46-0.96
	c-0.19-0.26-0.57-0.39-1.12-0.39c-0.52,0-0.86,0.09-1,0.27c-0.15,0.18-0.23,0.45-0.23,0.81c0,0.84,0.04,1.66,0.11,2.44
	c0.07,0.79,0.1,1.61,0.1,2.45c0,1.02,0.01,1.96,0.03,2.8c0.02,0.85,0.03,1.7,0.03,2.54c0,1.14-0.01,2.24-0.03,3.29
	c-0.02,1.05-0.03,2.09-0.03,3.13c0,0.34,0,0.68,0,1.02c0,0.34,0.01,0.68,0.03,1.02c-0.02,0.14-0.04,0.28-0.04,0.41
	c-0.01,0.13-0.02,0.25-0.02,0.34c0,0.32,0.15,0.61,0.44,0.86s0.58,0.38,0.88,0.38c0.32,0,0.58-0.08,0.78-0.24
	c0.2-0.16,0.36-0.36,0.48-0.6c0.12-0.24,0.21-0.49,0.26-0.75c0.05-0.26,0.07-0.48,0.07-0.66c0-0.42-0.04-0.88-0.1-1.37
	c-0.07-0.49-0.11-1.03-0.11-1.6v-3.57c0-0.52,0-0.86,0-1c0-0.15,0.02-0.26,0.06-0.34c0.1,0.04,0.2,0.06,0.3,0.06
	c0.1,0,0.19,0,0.27,0c0.96,0,1.79-0.17,2.51-0.51c0.71-0.34,1.29-0.77,1.75-1.29c0.46-0.52,0.8-1.09,1.03-1.71
	c0.23-0.62,0.35-1.2,0.35-1.74c0-0.44-0.07-0.9-0.21-1.38C284.51,17.65,284.32,17.19,284.08,16.75z M281.14,21.91l-0.6,0.39
	c-0.32,0.16-0.61,0.27-0.85,0.31c-0.25,0.05-0.53,0.08-0.83,0.08c-0.16,0-0.26-0.18-0.3-0.54c-0.04-0.36-0.06-0.76-0.06-1.2v-1.02
	c0-0.2-0.01-0.55-0.04-1.07c-0.03-0.51-0.04-0.95-0.04-1.33c0-0.34,0.02-0.53,0.06-0.57c0.04-0.02,0.07-0.04,0.08-0.06
	c0.01-0.02,0.03-0.04,0.04-0.06c0.04-0.04,0.15-0.12,0.32-0.23c0.17-0.11,0.31-0.18,0.43-0.22l0.39-0.15c0.38,0.06,0.71,0.19,1,0.39
	c0.29,0.2,0.54,0.45,0.75,0.75s0.37,0.62,0.48,0.97c0.11,0.35,0.17,0.71,0.17,1.07C282.13,20.4,281.8,21.23,281.14,21.91z"/>
<g class="st1">
	<path class="st2" d="M195.17,19.42c-0.4-0.63-0.6-1.22-0.6-1.75c0-0.5,0.17-0.92,0.5-1.25c0.3-0.33,0.63-0.5,1-0.5
		c3.13,0.1,5.55,0.15,7.25,0.15h1.45v-3.05c-0.07-1.17-0.13-2.18-0.2-3.05c-0.07-0.87-0.13-1.58-0.2-2.15
		c0-0.33,0.21-0.55,0.62-0.65c0.42-0.1,0.81-0.22,1.17-0.35c0.3-0.1,0.57-0.15,0.8-0.15c0.53,0,0.92,0.22,1.15,0.67
		c0.23,0.45,0.38,1.04,0.45,1.78c0,0.33,0.01,0.83,0.03,1.5c0.02,0.67,0.02,1.2,0.02,1.6l0.3,3.7c1.53-0.1,2.81-0.18,3.83-0.25
		c1.02-0.07,1.86-0.12,2.52-0.17c0.67-0.05,1.2-0.1,1.6-0.15s0.75-0.09,1.05-0.12c0.33,0,0.56,0.2,0.68,0.6
		c0.12,0.4,0.24,0.78,0.38,1.15c0.13,0.23,0.2,0.52,0.2,0.85c0,0.5-0.23,0.88-0.7,1.15c-0.47,0.27-1.05,0.43-1.75,0.5l-3.05,0.15
		l-4.7,0.5v1.05c0,0.1-0.01,0.19-0.03,0.27c-0.02,0.08-0.02,0.18-0.02,0.28c-0.1,1.17-0.18,2.34-0.25,3.53
		c-0.07,1.18-0.13,2.36-0.2,3.52c0,0.07-0.01,0.13-0.03,0.2c-0.02,0.07-0.02,0.13-0.02,0.2v0.9l-0.1,0.45l-0.45,0.15
		c-0.63,0.37-1.2,0.55-1.7,0.55s-0.93-0.18-1.3-0.55c-0.33-0.3-0.5-0.63-0.5-1c0.13-2,0.23-3.68,0.3-5.05
		c0.07-1.37,0.1-2.47,0.1-3.3c0-0.23-0.01-0.43-0.02-0.6c-0.02-0.17-0.02-0.33-0.02-0.5c-2-0.07-3.68-0.12-5.03-0.15
		c-1.35-0.03-2.64-0.07-3.88-0.1l-0.45-0.1L195.17,19.42z"/>
</g>
</svg>
