<?xml version="1.0" encoding="utf-8"?>
<!-- Generator: Adobe Illustrator 27.0.1, SVG Export Plug-In . SVG Version: 6.00 Build 0)  -->
<svg version="1.1" id="Capa_1" xmlns="http://www.w3.org/2000/svg" xmlns:xlink="http://www.w3.org/1999/xlink" x="0px" y="0px"
	 viewBox="0 0 155 140" style="enable-background:new 0 0 155 140;" xml:space="preserve">
<style type="text/css">
	.st0{fill:#B7B7B7;}
</style>
<path class="st0" d="M78.8,40.3c-0.2,0.5-0.3,1.1-0.3,1.6c-0.1,0.5,0,1,0,1.5c0.1,0.8,0.4,1.4,0.8,1.8s1,0.6,1.8,0.5
	c0.3,0,0.7-0.2,1-0.4c0.3-0.2,0.6-0.5,0.9-0.9c0.3-0.4,0.5-0.8,0.7-1.4s0.3-1.1,0.3-1.7c0.1,0.1,0.2,0.3,0.3,0.6
	c0.1,0.3,0.2,0.6,0.3,0.9s0.2,0.6,0.3,0.9c0.1,0.3,0.2,0.4,0.3,0.5c0.2,0.3,0.4,0.5,0.5,0.6c0.1,0.1,0.3,0.1,0.5,0.1
	c0,0,0.1,0,0.3,0s0.3,0,0.3,0c0.1,0,0.3-0.1,0.4-0.2c0.1-0.1,0.2-0.4,0.1-0.7c-0.1-0.2-0.2-0.3-0.3-0.5c-0.1-0.2-0.2-0.3-0.3-0.5
	c-0.1-0.1-0.1-0.2-0.3-0.5c-0.1-0.2-0.2-0.5-0.3-0.7c-0.1-0.2-0.2-0.5-0.3-0.7c-0.1-0.2-0.1-0.4-0.1-0.4l0-0.1
	c-0.1-0.3-0.3-0.6-0.4-0.9s-0.2-0.7-0.3-1.1c-0.1-0.4-0.2-0.8-0.3-1.1c-0.1-0.4-0.2-0.7-0.2-1c-0.1-0.4-0.2-0.8-0.3-1.3
	c-0.1-0.5-0.2-0.9-0.2-1.2c-0.1-0.6-0.1-1.1-0.2-1.5c0-0.5-0.1-1-0.1-1.5c0-0.2-0.1-0.5-0.3-0.6c-0.2-0.2-0.4-0.3-0.7-0.2
	c-0.2,0-0.4,0.1-0.5,0.2c-0.2,0.1-0.3,0.2-0.4,0.4c-0.1,0.1-0.1,0.3-0.1,0.4c0,0.1,0,0.3,0,0.4c0,0.2,0.1,0.3,0.1,0.5
	c0,0.2,0,0.3,0.1,0.5c0.1,0.5,0.1,0.8,0.2,1.2S82,34,82,34c0.1,0.5,0.2,1,0.3,1.5s0.2,1,0.3,1.5c-0.2,0-0.4-0.1-0.6-0.1
	c-0.2,0-0.4,0-0.6,0c-0.3,0-0.5,0.1-0.7,0.3c-0.1,0.1-0.2,0.2-0.3,0.3c-0.4,0.3-0.7,0.7-0.9,1.2C79.2,39.2,79,39.7,78.8,40.3z
	 M80.3,42.1c0-0.2,0-0.4,0.1-0.6c0-0.2,0.1-0.5,0.1-0.7c0.1-0.4,0.2-0.8,0.4-1.1c0.2-0.3,0.4-0.7,0.6-1c0.1,0,0.1,0,0.1,0
	c0,0,0.1,0,0.1,0c0,0.1,0,0.2,0,0.2c0,0.1,0,0.2,0,0.2c0,0.1,0.1,0.1,0.2,0.1s0.2,0,0.2,0c0.1,0,0.1,0,0.2,0c0.1,0,0.1,0,0.1,0.1
	c0,0.3,0,0.5,0,0.7c0,0.2-0.1,0.5-0.1,0.7c-0.1,0.3-0.2,0.6-0.2,1s-0.2,0.7-0.3,1.1c-0.1,0.3-0.3,0.6-0.5,0.9
	C81.2,43.8,81,44,80.6,44c0-0.1-0.1-0.2-0.2-0.4c-0.1-0.1-0.1-0.2-0.1-0.4c0-0.2-0.1-0.4-0.1-0.6C80.3,42.5,80.3,42.3,80.3,42.1z
	 M72.4,45.8c0.2,0.3,0.4,0.5,0.7,0.7c0.3,0.2,0.6,0.4,1,0.6c0.3,0.1,0.6,0.1,1,0.1c0.4,0,0.7,0,0.9-0.1c0.5-0.1,0.9-0.3,1.2-0.5
	c0.3-0.2,0.6-0.5,0.9-0.9c0.1-0.1,0.2-0.3,0.2-0.5c0.1-0.2,0.1-0.4,0-0.6c0-0.1-0.1-0.2-0.1-0.2c0,0-0.1-0.1-0.1-0.2
	c-0.1-0.1-0.2-0.1-0.3-0.1s-0.2,0-0.3,0c-0.3,0.4-0.6,0.7-0.8,1c-0.2,0.3-0.6,0.5-1,0.6c-0.1,0-0.2,0-0.4,0c-0.2,0-0.4,0-0.6-0.1
	c-0.2-0.1-0.5-0.3-0.7-0.5c-0.2-0.3-0.5-0.7-0.6-1.2c0,0,0-0.1,0-0.1c0-0.1,0-0.1,0-0.2c0.2,0,0.4,0,0.5,0c0.2,0,0.3-0.1,0.5-0.1
	c0.4-0.1,0.8-0.3,1.1-0.6c0.3-0.2,0.5-0.5,0.7-0.8c0.2-0.3,0.3-0.6,0.3-1s0-0.7-0.1-1c-0.1-0.3-0.2-0.5-0.4-0.7s-0.4-0.4-0.6-0.5
	c-0.2-0.1-0.5-0.2-0.8-0.3c-0.3,0-0.7,0-1,0.1c-0.5,0.2-1,0.4-1.3,0.8s-0.6,0.8-0.7,1.4c-0.2,0.5-0.2,1.1-0.2,1.7
	c0,0.6,0.1,1.2,0.2,1.7c0.1,0.3,0.2,0.7,0.4,1C72,45.2,72.2,45.5,72.4,45.8z M73.1,40.9c0-0.2,0.1-0.3,0.1-0.4
	c0.1-0.1,0.1-0.2,0.1-0.3c0-0.1,0.1-0.2,0.3-0.3c0.1-0.1,0.3-0.1,0.4-0.2c0.2-0.1,0.4,0,0.6,0.1c0.2,0.1,0.3,0.3,0.3,0.5
	c0.1,0.4,0,0.7-0.2,1c-0.2,0.3-0.6,0.6-1,0.7c-0.1,0-0.2,0-0.3,0.1c-0.1,0-0.2,0-0.3,0c-0.1-0.3-0.1-0.6-0.1-0.8
	C73,41.2,73.1,41,73.1,40.9z M73.8,6.4c0.1,0.1,0.3,0.2,0.5,0.3c0.2,0.1,0.5,0.1,0.7,0.2c0.3,0,0.5,0,0.8,0c0.4-0.1,0.6-0.2,0.8-0.4
	c0.2-0.2,0.2-0.5,0.2-0.9c0-0.2-0.1-0.4-0.3-0.5c-0.1-0.2-0.3-0.3-0.6-0.4c-0.2-0.1-0.4-0.2-0.7-0.2c-0.2,0-0.5,0-0.7,0
	c-0.3,0-0.5,0.1-0.6,0.3c-0.3,0.3-0.5,0.5-0.5,0.7c0,0.2,0,0.4,0,0.7C73.6,6.2,73.7,6.3,73.8,6.4z M60.2,10.3
	c0.2,0.8,0.4,1.6,0.6,2.5c0.2,0.8,0.4,1.6,0.6,2.4c0.4,1.3,0.7,2.6,1.2,3.8c0.4,1.3,0.8,2.5,1.1,3.7l0.2,0.6
	c0.1,0.5,0.3,0.9,0.4,1.4c0.1,0.5,0.3,0.8,0.6,1.2c0.3,0.3,0.6,0.6,0.9,0.7c0.4,0.1,0.8,0.1,1.4,0c0.1,0,0.3-0.1,0.3-0.3
	c0.1-0.2,0.1-0.3,0.1-0.6c0-0.2,0-0.5,0-0.7c0-0.2-0.1-0.5-0.1-0.7l0-0.1c0,0,0-0.1,0-0.1c0,0,0,0,0-0.1l0-0.2c0-0.1,0-0.4-0.1-0.8
	c0-0.4,0-0.8-0.1-1.3c0-0.5,0-1,0-1.6s0.1-1.1,0.2-1.6c0.1-0.5,0.2-1,0.3-1.3c0.1-0.4,0.3-0.7,0.6-0.8c0.1,0,0.2,0.1,0.4,0.3
	c0.2,0.2,0.3,0.5,0.5,0.8c0.2,0.3,0.3,0.7,0.5,1c0.2,0.4,0.3,0.7,0.3,0.9c0.1,0.3,0.3,0.8,0.5,1.5c0.2,0.7,0.5,1.3,0.9,1.9
	c0.4,0.6,0.8,1.1,1.2,1.6c0.5,0.4,1,0.6,1.5,0.4c0.2,0,0.3-0.2,0.5-0.4c0.2-0.2,0.2-0.5,0.3-0.7c-0.2-0.6-0.5-1.2-0.9-1.9
	s-0.8-1.3-1-2c-0.1-0.3-0.3-0.7-0.4-1.2c-0.2-0.4-0.3-0.8-0.5-1.1c-0.1-0.3-0.3-0.8-0.5-1.3c-0.2-0.5-0.5-1-0.9-1.4
	c-0.4-0.5-0.8-0.8-1.2-1.1c-0.5-0.3-1-0.3-1.6-0.2c-0.4,0.1-0.7,0.3-1,0.7c-0.3,0.3-0.6,0.8-0.8,1.3c-0.2,0.5-0.4,1.1-0.5,1.7
	s-0.3,1.2-0.3,1.9c-0.2-0.7-0.4-1.5-0.6-2.2c-0.2-0.7-0.4-1.4-0.6-2.2c-0.2-0.7-0.4-1.5-0.6-2.3c-0.2-0.8-0.4-1.7-0.6-2.6
	c-0.1-0.5-0.2-0.9-0.2-1.4s-0.1-0.9-0.3-1.5c-0.1-0.4-0.3-0.8-0.6-1c-0.3-0.3-0.7-0.3-1.1-0.2C60.3,5.7,60,5.8,59.6,6
	c0,0.6,0,1.2,0.1,1.9C59.9,8.7,60,9.5,60.2,10.3z M66.5,49c0.3,0.2,0.7,0.3,1.1,0.4c0.3,0,0.6,0,1,0s0.7-0.1,0.9-0.2
	c0.5-0.2,0.9-0.4,1.2-0.6s0.5-0.6,0.8-1c0.1-0.1,0.1-0.3,0.2-0.5c0-0.2,0-0.4,0-0.6c0-0.1-0.1-0.2-0.1-0.2c0,0-0.1-0.1-0.1-0.2
	C71.2,46.1,71.1,46,71,46s-0.2,0-0.3,0c-0.3,0.4-0.5,0.7-0.7,1c-0.2,0.3-0.5,0.6-1,0.7c-0.1,0-0.2,0-0.4,0.1c-0.2,0-0.4,0-0.6-0.1
	c-0.2-0.1-0.5-0.2-0.8-0.5c-0.3-0.2-0.5-0.6-0.8-1.1c0,0,0-0.1,0-0.1c0,0,0-0.1-0.1-0.2c0.2,0,0.4,0,0.5-0.1c0.2,0,0.3-0.1,0.5-0.2
	c0.4-0.2,0.8-0.4,1-0.7c0.3-0.3,0.5-0.6,0.6-0.9c0.1-0.3,0.2-0.7,0.2-1c0-0.3-0.1-0.7-0.2-1c-0.1-0.3-0.2-0.5-0.4-0.7
	c-0.2-0.2-0.4-0.3-0.7-0.5c-0.3-0.1-0.5-0.2-0.9-0.2c-0.3,0-0.7,0.1-1,0.2c-0.5,0.2-0.9,0.5-1.2,0.9c-0.3,0.4-0.5,0.9-0.6,1.4
	c-0.1,0.5-0.1,1.1,0,1.7c0.1,0.6,0.2,1.1,0.4,1.7c0.2,0.3,0.3,0.6,0.5,0.9c0.2,0.3,0.3,0.6,0.6,0.8S66.2,48.8,66.5,49z M66,43
	c0-0.1,0.1-0.2,0.1-0.3c0-0.1,0.1-0.3,0.2-0.3c0.1-0.1,0.3-0.2,0.4-0.2c0.2-0.1,0.4-0.1,0.6,0.1s0.3,0.3,0.4,0.5
	c0.1,0.3,0.1,0.7,0,1c-0.2,0.3-0.5,0.6-1,0.8c-0.1,0-0.2,0.1-0.3,0.1c-0.1,0-0.2,0.1-0.3,0.1c-0.1-0.3-0.2-0.6-0.2-0.8
	c0-0.2,0-0.4,0-0.5C65.9,43.3,65.9,43.1,66,43z M76,11.4c-0.2,0.1-0.4,0.2-0.6,0.2c-0.2,0.1-0.4,0.1-0.6,0.2
	c-0.3,0.3-0.5,0.7-0.4,1.1c0.2,1.1,0.4,2.2,0.7,3.1c0.3,1,0.5,2,0.7,3.1c0.1,0.4,0.2,0.7,0.3,1.1c0.1,0.4,0.2,0.7,0.3,1.1
	c0.1,0.6,0.2,1.1,0.4,1.5c0.2,0.3,0.4,0.6,0.7,0.8s0.6,0.2,0.9,0.3c0.3,0,0.7,0,1-0.1c0.2-0.3,0.3-0.5,0.4-0.7
	c0.1-0.2,0.1-0.4,0-0.5l0-0.1c-0.1-0.4-0.3-0.9-0.5-1.6c-0.2-0.7-0.4-1.4-0.7-2.3C78.5,17.8,78.2,17,78,16c-0.2-0.9-0.4-1.8-0.6-2.6
	c0-0.2-0.1-0.5-0.1-0.7c0-0.2,0-0.4-0.1-0.7c-0.2-0.1-0.3-0.3-0.5-0.4C76.6,11.5,76.4,11.4,76,11.4z M60.5,47.4
	c0.2,0.2,0.4,0.4,0.7,0.7c0.2,0.3,0.4,0.5,0.6,0.8c0.2,0.3,0.4,0.5,0.6,0.7c0.2,0.2,0.3,0.4,0.5,0.6c0.2,0.3,0.4,0.5,0.6,0.7
	c0.2,0.2,0.4,0.4,0.7,0.5c0.2,0.1,0.5,0.1,0.7-0.1c0.2-0.1,0.3-0.2,0.5-0.5c0.1-0.2,0.2-0.4,0.1-0.7c-0.4-0.3-0.7-0.6-1-1
	c-0.3-0.4-0.7-0.8-1-1.2c-0.3-0.4-0.6-0.8-1-1.2c-0.3-0.4-0.7-0.7-1.1-1c-0.2-0.1-0.3-0.3-0.5-0.4c-0.2-0.2-0.3-0.3-0.5-0.5
	c-0.2-0.1-0.3-0.3-0.5-0.3c-0.2-0.1-0.4-0.1-0.7,0c-0.3,0.2-0.5,0.4-0.6,0.7c-0.1,0.3-0.2,0.7-0.3,1.1c0,0.4-0.1,0.8,0,1.2
	c0,0.4,0.1,0.7,0.1,1l0,0.1c0,0.3,0.1,0.7,0.2,1c0.1,0.4,0,0.7,0,1l-0.1-0.1c-0.2-0.3-0.4-0.6-0.5-1c-0.2-0.3-0.4-0.8-0.7-1.3
	c-0.1-0.1-0.2-0.3-0.3-0.4c-0.1-0.1-0.2-0.2-0.3-0.4c-0.1-0.1-0.1-0.2-0.2-0.4c-0.1-0.2-0.2-0.3-0.4-0.4c-0.1-0.1-0.3-0.2-0.4-0.2
	s-0.3,0-0.5,0.1c-0.1,0-0.1,0.1-0.2,0.1c-0.1,0.1-0.2,0.1-0.2,0.1c-0.1,0.1-0.1,0.3-0.1,0.5c0,0.2,0.1,0.4,0.2,0.5
	c0.1,0.2,0.3,0.4,0.4,0.7c0.1,0.2,0.3,0.4,0.4,0.7c0.5,0.8,0.9,1.5,1.3,2.3c0.4,0.7,0.8,1.5,1.3,2.3c0.1,0.2,0.3,0.3,0.6,0.3
	c0.3,0,0.5,0,0.6-0.1c0.1-0.1,0.2-0.2,0.4-0.2c0.1-0.1,0.2-0.2,0.3-0.4c0.1-0.2,0.2-0.4,0.2-0.7c0-0.3,0.1-0.7,0.1-1.2
	c0-0.4,0-0.7-0.1-1c0-0.3-0.1-0.7-0.2-1c-0.1-0.3-0.1-0.7-0.1-1.1c0-0.4,0-0.8,0-1.3C60,47,60.3,47.2,60.5,47.4z M94,132.1
	C94,132.1,94,132.1,94,132.1C94,132.1,94,132.1,94,132.1C94,132.1,94,132.1,94,132.1z M40.3,40.3c-0.1-0.2-0.3-0.5-0.5-0.7
	c-0.1-0.1-0.3-0.3-0.5-0.6c-0.2-0.2-0.4-0.4-0.5-0.6c-0.2-0.2-0.4-0.6-0.5-1c-0.2-0.5-0.3-1-0.4-1.6c-0.1-0.6-0.2-1.2-0.3-1.8
	c-0.1-0.6-0.1-1.1-0.1-1.6c0-0.3,0-0.7,0-1.1s0-0.8,0.1-1.2c0-0.4,0-0.7,0-1c0-0.3-0.1-0.6-0.1-0.8c-0.4-0.2-0.8-0.3-1.2-0.3
	c-0.4,0-0.8,0.2-1.2,0.6c-0.2,0.2-0.3,0.3-0.4,0.5c-0.1,0.4-0.1,0.8-0.1,1.3c0,0.5,0,0.9,0.1,1.4s0.1,0.9,0.1,1.3c0,0.4,0,0.8,0,1
	L33.6,33c-0.2-0.2-0.4-0.4-0.5-0.5c-0.2-0.2-0.4-0.3-0.6-0.4C32.2,32,32,31.9,31.7,32c-0.3,0-0.5,0.2-0.8,0.4
	c-0.3,0.3-0.5,0.5-0.5,0.7c0,0.2,0,0.5,0.1,0.7c0.1,0.2,0.3,0.3,0.5,0.4c0.2,0.1,0.3,0.2,0.5,0.4l0.1,0.1c0.3,0.4,0.7,0.7,1,1.1
	c0.3,0.4,0.7,0.7,1,1.1l0.7,0.8c0,0,0.1,0.2,0.3,0.4c0.2,0.2,0.4,0.5,0.7,0.8c0.3,0.3,0.6,0.6,0.9,1c0.3,0.4,0.6,0.7,0.9,1
	c0.3,0.3,0.5,0.6,0.7,0.9c0.2,0.2,0.3,0.4,0.3,0.5l0.1,0.1c0.2,0.3,0.5,0.5,0.9,0.5c0.4,0,0.7-0.1,1-0.3c0.3-0.2,0.4-0.5,0.5-0.7
	c0.1-0.2,0.1-0.5,0.1-0.8C40.5,40.8,40.5,40.5,40.3,40.3z M44.9,34.8c0.6,0.5,1.3,0.9,1.9,1.1c0.7,0.2,1.4,0.1,2.1-0.3
	c0.2-0.1,0.4-0.3,0.6-0.6c0.2-0.3,0.3-0.6,0.5-1c0.1-0.4,0.2-0.7,0.3-1.1c0.1-0.4,0.1-0.7,0-1.1c0.1,0,0.1-0.1,0.2-0.1
	c0.1,0.1,0.1,0.3,0.2,0.4s0.2,0.3,0.3,0.4c0.8,1.4,1.4,2.7,1.8,4.1c0.4,1.4,0.5,2.9,0.3,4.5c-0.1,0.4-0.2,0.8-0.4,1.2
	s-0.5,0.8-0.7,1.1c-0.2,0.4-0.5,0.7-0.6,0.9c-0.2,0.3-0.2,0.5-0.1,0.6c0.1,0.2,0.2,0.3,0.4,0.4c0.2,0.1,0.4,0.1,0.6,0.1
	c0.2,0,0.4,0,0.6-0.1c0.2-0.1,0.3-0.1,0.5-0.2c0.4-0.3,0.8-0.5,1.1-0.8c0.3-0.3,0.5-0.6,0.7-0.9c0.2-0.3,0.3-0.6,0.4-0.8
	c0.1-0.3,0.2-0.5,0.3-0.8c0.3-2,0.2-3.9-0.3-5.8c-0.5-1.9-1.3-3.8-2.6-5.8c-0.2-0.3-0.4-0.6-0.6-1c-0.2-0.3-0.4-0.7-0.7-1
	c-0.2-0.3-0.4-0.6-0.6-0.9c-0.2-0.3-0.3-0.5-0.4-0.7c-0.3-0.5-0.7-1.2-1.1-2c-0.5-0.8-1-1.8-1.5-2.9c-0.3-0.3-0.6-0.4-1-0.4
	c-0.4,0-0.7,0.1-1.1,0.3c-0.3,0.2-0.5,0.5-0.4,0.9c0,0.4,0.2,0.8,0.4,1.3c0.2,0.5,0.5,1,0.7,1.5c0.3,0.5,0.5,1,0.7,1.4
	c0.1,0.4,0.2,0.8,0.4,1.4c0.2,0.6,0.3,1.1,0.4,1.7c0.1,0.6,0.1,1.1,0.1,1.7c0,0.5-0.2,1-0.5,1.4c-0.3,0-0.5-0.1-0.8-0.4
	c-0.3-0.2-0.6-0.5-0.9-0.9c-0.3-0.4-0.6-0.7-0.8-1.1s-0.4-0.7-0.6-0.9L44,29.4c-0.1-0.2-0.3-0.6-0.6-1c-0.2-0.4-0.4-0.8-0.6-1
	c-0.2-0.2-0.4-0.5-0.6-0.8c-0.2-0.3-0.4-0.6-0.6-0.8c-0.2-0.2-0.5-0.4-0.8-0.4c-0.3-0.1-0.7,0.1-1.1,0.3c-0.2,0.1-0.3,0.3-0.3,0.6
	c0,0.3,0,0.5,0.1,0.8c0.1,0.3,0.2,0.6,0.4,0.9c0.2,0.3,0.3,0.6,0.4,0.8c0.2,0.3,0.4,0.6,0.6,0.9c0.2,0.3,0.4,0.6,0.6,0.9
	c0.1,0.1,0.1,0.2,0.2,0.3c0.1,0.1,0.1,0.2,0.2,0.3c0.3,0.5,0.7,1.1,1.2,1.7C43.7,33.7,44.3,34.3,44.9,34.8z M45,103.1
	c-0.1,0.2,0,0.3,0.2,0.3C45.2,102.8,45.2,103.6,45,103.1z M26.6,52.5c-0.3-0.5-0.6-1-1-1.5c-0.4-0.5-0.6-1-0.8-1.5
	c0-0.1-0.1-0.2-0.2-0.4c-0.1-0.1-0.1-0.2-0.2-0.3c-0.2-0.5-0.5-1-0.7-1.4c-0.2-0.4-0.4-0.9-0.6-1.3c-0.2-0.4-0.3-0.9-0.5-1.3
	c-0.1-0.5-0.3-1-0.4-1.5c-0.2-0.1-0.4-0.2-0.6-0.3c-0.2-0.1-0.3-0.1-0.5,0c-0.2,0-0.4,0.2-0.6,0.3c-0.2,0.2-0.4,0.5-0.7,0.8
	c-0.3,0.5-0.3,1.1-0.1,1.8c0.2,0.7,0.6,1.4,1,2.1c0.4,0.7,0.9,1.5,1.3,2.2c0.5,0.7,0.8,1.4,0.9,2c-0.3-0.1-0.6-0.3-1.1-0.5
	c-0.5-0.2-1-0.4-1.5-0.7c-0.5-0.2-1-0.5-1.6-0.8c-0.5-0.3-0.9-0.5-1.3-0.8c-0.2-0.1-0.3-0.1-0.5,0c-0.2,0-0.3,0.1-0.5,0.2
	s-0.3,0.2-0.4,0.3s-0.2,0.2-0.3,0.3c-0.2,0.2-0.3,0.5-0.5,0.8c-0.1,0.3-0.1,0.6,0.2,0.8c0.6,0.4,1.3,0.8,2,1
	c0.8,0.2,1.5,0.5,2.1,0.9c0.3,0.2,0.7,0.5,1.2,0.7c0.5,0.2,1,0.5,1.5,0.7c0.5,0.2,1.1,0.4,1.6,0.6c0.5,0.2,1.1,0.2,1.5,0.3l1.3-0.3
	c0.3-0.5,0.4-1,0.2-1.5S26.9,53.1,26.6,52.5z M24.3,58.7c0,0-0.1,0-0.1,0c0,0-0.1,0-0.1,0c-0.9-0.3-1.5-0.2-1.7,0.2c0,0,0,0.1,0,0.1
	c0,0,0,0.1,0,0.1c-0.1,0.1-0.1,0.3,0,0.6s0,0.5,0,0.6c-0.1,0.2-0.2,0.3-0.2,0.4c-0.1,0.1-0.1,0.3-0.2,0.4c-1,1.8-2,3-3,3.5
	c-0.5,0-0.9-0.2-1.5-0.5c-0.9-0.5-1.9-1.3-3.1-2.4c0.1-0.6,0.4-1.4,0.8-2.4c0.5-1.1,0.9-1.9,1-2.3c0.1-0.3,0.2-0.5,0.1-0.7
	c-0.1-0.2-0.1-0.3-0.1-0.4c0-0.1,0-0.2,0-0.2c0-0.2-0.1-0.3-0.2-0.4c-0.1-0.1-0.4-0.1-1,0c-0.4,0.3-0.8,0.7-1.1,1.2
	c-0.1,0.2-0.2,0.4-0.3,0.6c-0.1,0.2-0.2,0.5-0.3,0.9c-0.1,0.3-0.2,0.6-0.3,0.9c-0.1,0.2-0.2,0.4-0.3,0.6c-0.2,0.4-0.5,0.7-0.8,1
	c-0.9-0.5-1.6-1-2.1-1.3c-0.5-0.4-0.9-0.7-1.1-0.9c0-0.5,0.1-1,0.2-1.6c0.1-0.6,0.3-1.3,0.4-2.1c0.2-0.8,0.3-1.5,0.4-2.1
	c0.1-0.6,0.2-1.1,0.2-1.6c0-0.2-0.1-0.3-0.3-0.4c-0.1-0.1-0.3-0.1-0.5-0.1c-0.3,0-0.4-0.1-0.5-0.1c-0.8,0.5-1.3,1-1.6,1.5
	c-0.1,0.2-0.2,0.3-0.2,0.4c-0.1,0.5-0.3,1.1-0.4,1.6c-0.1,0.5-0.3,1.1-0.4,1.6c-0.1,0.6-0.2,1.2-0.3,1.7c-0.1,0.5-0.1,1-0.1,1.5
	l-0.2,2.3c0,0.8,0.2,1.4,0.8,1.7c0.6,0.3,1.3,0,2.1-0.9c0.8,0.5,1.5,0.9,1.9,1.2c0.4,0.3,0.7,0.4,0.7,0.5c0.1,0.1,0.2,0.4,0.2,0.7
	c0,0.3,0.1,0.6,0.2,0.7l0.1,0.1c0.3,0.2,0.7,0.1,1.4-0.2c0.3,0.2,0.6,0.4,1,0.7c0.3,0.2,0.7,0.4,1.1,0.6c0.4,0.2,0.8,0.4,1.2,0.6
	c0.4,0.2,0.8,0.4,1.3,0.6c0.6,0.3,1.3,0.3,2,0.1c0.7-0.2,1.3-0.5,1.7-1c1.2-1.3,2.3-2.9,3.3-4.8c0.1-0.2,0.2-0.4,0.3-0.5
	c0.1-0.2,0.2-0.4,0.3-0.5c0.1-0.3,0.1-0.6,0-0.8C24.8,59.1,24.6,58.9,24.3,58.7z M50.8,13.7c0.1,0.3,0.3,0.6,0.4,0.9
	c0.1,0.3,0.3,0.6,0.4,0.9c0.2,0.5,0.4,0.8,0.5,1.1c0.1,0.2,0.3,0.6,0.4,0.9c0.1,0.2,0.1,0.4,0.2,0.7c0.1,0.3-0.1,0.5-0.4,0.6
	c-0.2,0.3-0.4,0.5-0.6,0.6c-0.2,0.2-0.4,0.3-0.6,0.4c-0.2,0.1-0.4,0.3-0.6,0.4c-0.2,0.1-0.4,0.3-0.6,0.5c0,0.4,0.1,0.7,0.2,0.9
	c0.2,0.1,0.5,0.2,0.9,0.4c0.4,0.1,0.8,0.1,1.2-0.1c0.3-0.1,0.6-0.3,0.8-0.6c0.2-0.2,0.5-0.5,0.8-0.7C53.9,20.9,54,21,54,21
	c0,0.1,0.1,0.1,0.1,0.2c0.5,1,0.9,2,1.3,2.9c0.4,1,0.9,1.9,1.4,2.9c0.2,0.4,0.4,0.8,0.7,1.3s0.5,0.8,0.8,1c0.3,0.2,0.6,0.4,0.9,0.5
	c0.3,0.1,0.6,0.1,0.9,0c0,0,0.2-0.1,0.3-0.2c0.2-0.2,0.3-0.4,0.5-0.6c0.1-0.2,0.1-0.5-0.1-0.9c-0.1-0.2-0.3-0.5-0.5-0.7
	s-0.4-0.5-0.6-0.8c-0.6-0.8-1.1-1.7-1.7-2.6s-1-1.8-1.4-2.7c-0.1-0.1-0.1-0.3-0.2-0.4c0-0.1-0.1-0.3-0.1-0.4
	c-0.1-0.1-0.1-0.2-0.2-0.4c-0.1-0.1-0.1-0.2-0.2-0.4c-0.1-0.2-0.1-0.5,0-0.7c0.1-0.2,0.2-0.4,0.4-0.6c0.2-0.2,0.4-0.4,0.6-0.6
	c0.2-0.2,0.4-0.4,0.6-0.5c0.2-0.1,0.4-0.3,0.5-0.4c0.2-0.1,0.4-0.3,0.5-0.5c0.1-0.2,0.2-0.3,0.3-0.5c0.1-0.2,0-0.4-0.1-0.7
	c-0.1-0.2-0.2-0.4-0.4-0.6c-0.2-0.2-0.4-0.2-0.7-0.1c-0.5,0.2-0.9,0.5-1.3,0.9c-0.3,0.3-0.7,0.6-1.3,0.9c-0.2,0.1-0.3,0.1-0.3,0
	c-0.1-0.1-0.1-0.2-0.2-0.3c-0.1-0.3-0.2-0.5-0.3-0.8c-0.1-0.2-0.2-0.5-0.3-0.7c-0.1-0.3-0.3-0.6-0.4-1c-0.1-0.3-0.3-0.6-0.4-1
	c-0.1-0.3-0.3-0.6-0.4-0.9c-0.2-0.3-0.3-0.7-0.5-1.1c-0.1-0.2-0.2-0.4-0.4-0.7c-0.1-0.2-0.3-0.4-0.5-0.5C51.3,9.1,51.1,9,50.8,9
	c-0.3,0-0.6,0-0.9,0.2c-0.2,0.1-0.3,0.2-0.4,0.2c-0.1,0.1-0.2,0.2-0.3,0.4c0.1,0.3,0.1,0.6,0.3,0.8L50.8,13.7z M35.9,42.1
	c-0.1-0.1-0.2-0.2-0.3-0.2c-0.1,0-0.2-0.1-0.3-0.2c-0.2,0-0.3,0-0.5,0c-0.1,0.1-0.2,0.1-0.4,0.2c-0.1,0.7-0.2,1.3-0.3,1.8
	c-0.1,0.5-0.4,1.1-0.8,1.6c-0.1,0.1-0.2,0.2-0.4,0.3c-0.2,0.1-0.5,0.2-0.9,0.3c-0.4,0-0.8,0-1.3-0.1c-0.5-0.1-1.1-0.5-1.7-1
	c0,0-0.1-0.1-0.1-0.1c-0.1-0.1-0.1-0.1-0.2-0.2c0.3-0.1,0.5-0.3,0.7-0.4c0.2-0.1,0.4-0.3,0.5-0.5c0.4-0.5,0.8-1,0.9-1.5
	c0.2-0.5,0.3-1.1,0.2-1.6c0-0.5-0.2-1-0.4-1.5c-0.2-0.5-0.5-0.9-0.9-1.2c-0.3-0.3-0.6-0.5-1-0.6c-0.4-0.1-0.7-0.2-1.2-0.2
	c-0.4,0-0.8,0.1-1.2,0.3c-0.4,0.2-0.8,0.5-1.2,0.9c-0.6,0.6-0.9,1.3-1,2c-0.1,0.7-0.1,1.5,0.1,2.2c0.2,0.8,0.5,1.5,1,2.2
	c0.5,0.7,1,1.4,1.6,1.9c0.4,0.3,0.8,0.7,1.2,1c0.4,0.3,0.8,0.5,1.2,0.7c0.4,0.2,0.9,0.3,1.4,0.4c0.5,0.1,1.1,0,1.7-0.1
	c0.4-0.1,0.8-0.3,1.3-0.6c0.5-0.3,0.8-0.5,1.1-0.8c0.5-0.6,0.9-1.1,1.2-1.5c0.2-0.5,0.4-1.1,0.4-1.8c0-0.2,0-0.5-0.1-0.7
	C36.3,42.6,36.1,42.3,35.9,42.1z M28,42.8c-0.1,0.1-0.2,0.2-0.3,0.3c-0.3-0.4-0.6-0.7-0.7-1c-0.2-0.3-0.3-0.5-0.3-0.7
	c-0.1-0.2-0.1-0.4-0.1-0.5c0-0.2,0-0.3,0-0.4c-0.1-0.2,0-0.4,0.1-0.6c0.1-0.2,0.2-0.4,0.4-0.5c0.2-0.2,0.5-0.3,0.8-0.3
	c0.3,0.1,0.6,0.2,0.8,0.4c0.4,0.4,0.6,0.8,0.6,1.4c0,0.6-0.3,1.1-0.8,1.6C28.2,42.5,28.1,42.7,28,42.8z M150.3,32.4
	c-0.1-0.3-0.2-0.5-0.3-0.6c0,0,0,0,0-0.1c0,0,0,0,0-0.1c-0.4-0.3-0.8-0.5-1.1-0.5c-0.3,0-0.5,0-0.7,0.2c-0.2,0.1-0.4,0.3-0.5,0.6
	c-0.2,0.2-0.4,0.4-0.6,0.6c-0.6,0.4-1.3,0.8-2.1,1.3c-0.8,0.5-1.6,0.9-2.5,1.3c-0.8,0.4-1.6,0.6-2.3,0.8s-1.2,0.2-1.5,0
	c0.2-0.4,0.6-1,1.1-1.7c0.5-0.7,1.1-1.5,1.7-2.4c0.2-0.2,0.4-0.5,0.7-0.7c0.3-0.2,0.6-0.6,1-1.1c0.2-0.3,0.5-0.5,0.7-0.7
	c0.2-0.2,0.4-0.4,0.7-0.7c0.3-0.3,0.3-0.7,0.2-1.1c-0.1-0.4-0.3-0.7-0.6-1c-0.1,0-0.2-0.1-0.3-0.1c-0.1,0-0.1-0.1-0.2-0.1
	c-0.1,0-0.3-0.1-0.4-0.1c-0.1,0-0.2,0-0.2,0c-0.5,0.3-0.9,0.7-1.3,1.1c-0.4,0.4-0.7,0.8-1.1,1.3l-0.7,0.9c-0.2,0.2-0.4,0.5-0.6,0.7
	c-0.2,0.2-0.4,0.5-0.6,0.7c-0.8,1-1.5,1.9-2,2.7s-0.8,1.4-1,2s-0.2,1.1-0.1,1.5c0.2,0.4,0.5,0.9,1,1.2c0.5,0.4,1,0.5,1.7,0.5
	c0.7,0,1.3-0.1,2-0.4c0.7-0.2,1.3-0.5,1.9-0.8c0.6-0.3,1.1-0.6,1.5-0.7L144,37c-0.3,0.5-0.5,0.9-0.8,1.4c-0.2,0.4-0.4,0.9-0.5,1.3
	c-0.1,0.4-0.1,0.9-0.1,1.3c0.1,0.4,0.2,0.8,0.6,1.2c0.1,0.1,0.3,0.1,0.4,0.2c0.1,0.1,0.3,0.1,0.4,0.2s0.3,0,0.4,0
	c0.2,0,0.3-0.1,0.5-0.3c0.1-0.2,0.1-0.4,0.1-0.6c0-0.2,0-0.4,0-0.6c0-0.6,0.2-1.2,0.6-1.9c0.4-0.7,0.9-1.5,1.5-2.3
	c0.3-0.4,0.7-0.9,1.3-1.4c0.5-0.5,1.2-1.3,2-2.3C150.4,32.9,150.3,32.7,150.3,32.4z M132.9,90.7c0,0.1,0,0.2,0.1,0.2
	C133,90.8,133,90.7,132.9,90.7z M133.2,91c-0.1,0-0.2,0-0.2-0.1c-0.1,0.1-0.3,0.3-0.1,0.4c-0.1,0.1-0.2-0.1-0.3,0.1
	C132.7,91.6,133,91.3,133.2,91C133.2,91,133.2,91,133.2,91z M133,92.9c-0.1-0.3-0.1-0.6-0.2-0.8C132.8,92.3,132.9,92.8,133,92.9z
	 M132.4,95.1c-0.2-0.1-0.1,0.3-0.2,0.3C132.2,95.4,132.3,95.3,132.4,95.1z M133.2,90.5c-0.1-0.1-0.1,0-0.1-0.2c-0.1,0.1,0,0.2,0,0.3
	C133.2,90.7,133.3,90.6,133.2,90.5z M134.2,80.6c0.1-0.2,0-0.3-0.2-0.3C134,80.9,134.1,80.1,134.2,80.6z M126.4,28.4
	c0,0.8,0.2,1.5,0.7,2.3c0.2,0.3,0.4,0.7,0.5,1c0.2,0.3,0.4,0.6,0.7,0.8l0.2,0.1c0.1,0.1,0.2,0.1,0.3,0.2c0.1,0.1,0.2,0.1,0.3,0.2
	c0.3,0.2,0.7,0.3,1.2,0.3c0.5,0,0.9-0.1,1.4-0.2c0.5-0.1,0.9-0.3,1.4-0.5c0.4-0.2,0.8-0.4,1.1-0.5c0.6-0.3,1.1-0.7,1.6-1
	s0.9-0.9,1.3-1.5l0.3-0.5c0.1-0.2,0.2-0.4,0.3-0.6c0.1-0.2,0.1-0.4,0.2-0.7c0-0.3,0-0.6,0.1-0.9c0-0.3,0-0.6-0.1-0.9
	c-0.1-0.4-0.3-0.7-0.5-1c-0.2-0.3-0.4-0.6-0.7-0.9c-0.2-0.3-0.5-0.6-0.7-0.8c-0.2-0.3-0.4-0.6-0.6-0.9c-0.1-0.2-0.3-0.4-0.4-0.5
	c-0.4-0.2-0.9-0.3-1.5-0.3c-0.6,0-1.1,0.2-1.6,0.3c-0.5,0.2-1,0.4-1.4,0.7c-0.4,0.3-0.7,0.5-0.9,0.7c-0.4,0.4-0.8,0.9-1.3,1.4
	c-0.5,0.5-0.8,1-1.1,1.4C126.6,26.8,126.4,27.6,126.4,28.4z M128.9,28.7c0.1-0.3,0.1-0.6,0.2-0.8c0.1-0.2,0.2-0.4,0.2-0.5
	c0.2-0.4,0.5-0.8,0.8-1.2c0.4-0.4,0.8-0.8,1.2-1.2c0.4-0.3,0.9-0.6,1.3-0.7c0.4-0.1,0.8-0.1,1.2,0.1c0.5,0.3,0.9,0.6,1.1,1.1
	c0.3,0.5,0.2,1-0.1,1.6l-0.1,0.1c-0.3,0.4-0.5,0.7-0.9,1.1c-0.3,0.4-0.7,0.7-1,1c-0.4,0.3-0.7,0.6-1.2,0.8c-0.4,0.2-0.8,0.3-1.2,0.3
	c-0.3,0-0.5,0-0.7-0.1c-0.2,0-0.4-0.1-0.6-0.2c-0.2-0.1-0.4-0.3-0.4-0.6C128.8,29.3,128.8,29,128.9,28.7z M134.3,81.2
	c-0.1,0-0.3,0.2-0.4,0.3C134.1,81.7,134.2,81.3,134.3,81.2z M94.1,39.2c0.1,0.7,0.1,1.4,0,2.2c0,0.3,0,0.5,0,0.8c0,0.3,0,0.5,0,0.8
	c0,0.4,0,0.8,0.1,1.1c0.1,0.3,0.2,0.5,0.3,0.6s0.3,0.2,0.6,0.3c0.2,0.1,0.5,0.1,0.7,0.1c0.2-0.2,0.3-0.3,0.4-0.4
	c0.1-0.1,0.1-0.2,0.1-0.4l0-0.1c0-0.3,0-0.6-0.1-1.1c0-0.5-0.1-1-0.1-1.6S96,40.2,96,39.5c0-0.7,0-1.3,0-1.8c0-0.2,0-0.3,0-0.5
	c0-0.2,0-0.3,0.1-0.5c-0.1-0.1-0.2-0.2-0.3-0.3c-0.1-0.1-0.3-0.2-0.5-0.3c-0.2,0-0.3,0-0.5,0.1s-0.3,0-0.4,0.1
	c-0.3,0.2-0.4,0.4-0.4,0.7C94,37.7,94,38.5,94.1,39.2z M135,86.7c-0.1-0.4-0.5-0.5-0.7-0.7c0.1-0.3,0-0.4,0.1-0.7
	c0.1,0.3,0.4,0.6,0.6,0.8c0.1-0.6-0.5-1.1-0.2-1.4c0-0.5-0.1-0.8-0.4-0.8c0.1,0.1,0.1-0.3,0.3-0.1c-0.1-0.3-0.1-0.5-0.2-0.7
	c0,0.1,0,0.1,0,0.2c-0.2-0.1-0.3-0.5-0.6-0.4c0.1,0.2,0.2,0.2,0.2,0.4c-0.2-0.1-0.4-0.6-0.2-0.8c0.2-0.2,0.4,0.3,0.5,0.1l-0.7-0.9
	c0.2,0.2,0.1,0.5-0.1,0.5l0.2,0.3l-0.2,0c0.2,0.6,0,1,0.3,1.6l0.2-0.3c0.1,0.4,0.4,0.7,0.2,1.1c-0.1-0.2-0.2,0-0.3,0
	c0,0.1,0.1,0.2,0.1,0.3l-0.4-0.1c0.5,0.1,0.2,1,0.3,1.1l-0.1,0c-0.1,0.6,0.2-0.1,0.2,0.3c0,0.3-0.4,0.1-0.6,0.4
	c0,0.5,0.4,1.5,0.1,2.1c0,0.5,0.1,1,0.3,1.5c0,0.4-0.4,0-0.2,0.4c-0.1-0.1-0.3,0-0.4,0c0.2,0.1-0.1,0.8,0.3,0.5
	c-0.1,0.6-0.2,1.4-0.2,2c0-0.2-0.2-0.3-0.4-0.1c0.2,0.3,0.2,0.9,0.1,1.4c0.3,0,0.3-0.2,0.5-0.1c0,0.1,0.1,0.2,0.1,0.4
	c-0.3,0-0.7-0.1-0.7,0.4c-0.4-0.2,0.2-0.8-0.2-0.7c-0.3-0.3-0.2-1.2,0.1-1.3c-0.3-0.5-0.1,0.3-0.4,0.2c0,0.4,0.1,0.6,0.1,1.2
	c0.2,0,0.2-0.2,0.3,0.1c0.3,0.6-0.4,0.6-0.4,0.8c0-0.1,0-0.2,0-0.3c-0.2,0.3,0,0.5,0,0.9c-0.5,0,0-0.6-0.2-0.8l-0.4,0.2
	c-0.1,0.6,0.4,0.2,0.1,0.8l-0.1-0.1l0,0.4c0.2,0,0.4,0,0.5-0.3c0.4,0.3,0,0.3-0.1,0.8c0.2,0.2,0-0.2,0.3-0.2c0.2,0,0.2,0.4,0.1,0.6
	c-0.1,0.4-0.3,0.2-0.5,0.3c0-0.1,0-0.4,0.2-0.4c-0.1-0.6-0.6,0.1-0.7-0.3c-0.3,0.4,0,0.4,0.1,0.6c0.1-0.1,0.2,0.1,0.3,0.1
	c0.5,0.9-0.6,0.3-0.7,1c0.5,0,0.4,1.1,1,0.7c0,0.2,0.1,0.4,0,0.6c-0.2-0.3-0.3,0.2-0.5-0.2l-0.1,0.2l-0.2-0.5
	c-0.3,0.2-0.6,0.6-0.8,0.7c0,0.4,0.3,0,0.2,0.4c-0.1-0.2-0.3,0-0.4,0.2c0.2-0.3,0.4,0.1,0.4,0.4c-0.1,0.3-0.5,0.5-0.5,0.4l-0.1-0.4
	c0.1,0.3-0.1,0.1-0.2,0.4c0.1,0.1,0.3,0.4,0.5,0.5c0,0.2-0.3,0.3-0.3,0.4l0-0.4c-0.1,0.5-0.5-0.1-0.5,0.4l0.2,0.2
	c-0.1,0.1-0.2,0.1-0.2,0c0.1,0.1,0,0.4,0,0.5l-0.2,0c0,0.2,0.2,0.6-0.2,0.7c0.4,0,0.1-0.2,0.4-0.5c0.3-0.1,0.1,0.4,0.1,0.5
	c-0.4-0.2-0.3,0.5-0.4,0.7c-0.2,0.1-0.3,0.2-0.4,0.2l0.2,0.2c-0.5-0.1-0.1,0.5-0.4,0.7c-0.1-0.2-0.3-0.3-0.4-0.1
	c0.5-0.1,0.2,0.6,0.5,0.7c-0.3,0.4-0.4-0.3-0.7-0.3c0.2,0.4-0.4,0.4-0.2,0.7c0.3-0.3,0.2,0.2,0.3,0.3c-0.2,0.4-0.1-0.1-0.4,0.1
	c0,0.2,0.1,0.6,0.3,0.4c-0.2,0.2-0.1,0.6-0.4,0.8c-0.3,0,0.2-0.5,0-0.5c-0.4,0.5,0.3,0.6,0.1,1.1c0.2-0.2,0.5,0.3,0.4,0.6
	c-0.4,0.5,0-0.3-0.4-0.3l-0.1,0.3c-0.6,0.1-0.2-1-0.6-0.9l0,0.3c-0.1-0.1-0.2-0.3-0.4-0.3c0.2,0.2-0.3,0.6-0.3,0.7
	c0.2,0.2,0.1-0.2,0.2-0.1c-0.1,0.3,0.2,0.6-0.2,0.9c0-0.3-0.3-0.1-0.4-0.3c-0.2,0.1,0.2,0.2-0.1,0.4l-0.1-0.1
	c-0.3,0.5-0.7,1-1.1,1.6c-0.3,0.6-0.6,1.2-0.7,1.8c-0.3,0-0.6,0.3-1.1,0.7c0.2-0.1,0.2,0.2,0.1,0.3l-0.4,0c-0.4,0.2-0.5,0.7-0.6,1
	c-0.1,0-0.2,0-0.2-0.1c-0.4,0.1-0.1,0.3-0.1,0.5l-0.3,0l0.1,0.2c-0.1,0.3-0.5,0.6-0.7,0.3c0,0.1-0.1,0.3,0.1,0.2
	c-0.2,0.1-0.4,0.2-0.6,0.5c-0.2,0.2-0.5,0.5-0.7,0.7c0.3-0.1,0.3,0,0.5,0.1c0.2,0.3-0.1,0-0.2,0.3c-0.1-0.1-0.4,0-0.2-0.3
	c-0.9,0.2-1.4,1.2-2.2,1.8c-0.1,0.2,0,0.2,0,0.3c-0.7,0.1-1.1,0.8-1.7,1.1c0.2,0,0.3,0.5,0,0.7c-0.2,0.5-0.4-0.2-0.8-0.1
	c-0.1,0.2-0.3,0.4-0.4,0.5l0,0c-0.1,0.3-0.3,0.5-0.6,0.6l0,0c-0.2,0.1-0.5,0.1-0.7,0.2c0.1,0.3-0.5,0.4-0.5,0.7c0,0,0,0-0.1-0.1
	l0.1,0.2l-0.4,0.1c0-0.1,0-0.2,0.1-0.3c-0.5,0.1,0,0.3-0.2,0.5c-0.2,0.3-0.3,0.1-0.5,0.1c0.1-0.2,0.2-0.1,0.3-0.2
	c0.1-0.3-0.2,0-0.3-0.1c-0.1,0,0.1,0.3-0.2,0.4c-0.2,0.1-0.6,0.4-0.6,0.2c-0.1,0.2-0.3,0.3-0.3,0.5c0.2-0.1,0.5-0.2,0.6-0.1
	c-0.1,0.1-0.3,0.3-0.4,0.3l0.1-0.1c-0.1,0.1-0.5,0.3-0.2,0.4l-0.4-0.1c0,0.2-0.3,0.4-0.5,0.5c-0.1-0.2-0.1-0.6-0.5-0.4l-0.3,0.4
	c-0.2,0.1-0.3,0.1-0.3,0c-0.7,0.2-0.4,1-1,1c0.1-0.4-0.1-0.3-0.4-0.3c0,0,0,0.1-0.1,0.2c0.1,0.1,0.1-0.3,0.3-0.2
	c0.1,0.1-0.2,0.2-0.3,0.3c-0.8-0.3-1.7,0.7-2.6,0.7c0.2,0.3-0.3,0.2-0.4,0.4c-0.1-0.4-0.4,0.2-0.7,0.1l0.3,0.3
	c-0.6,0-0.6,0.8-1.1,0.6c-0.3,0,0-0.3,0.1-0.4c-0.5-0.2-0.9,0.7-1.4,0.4c0,0.2,0.2,0.3-0.1,0.6c-0.3-0.1-0.9-0.1-0.9-0.2
	c-0.2,0.1-0.2,0.3-0.5,0.2c0-0.1,0.1-0.1,0.2-0.2c-0.4,0-0.7,0.3-1,0.5c-0.3-0.2-1,0.2-1.4,0.1c-0.2,0.4-0.8,0.1-0.7,0.5
	c0,0-0.1-0.1-0.1-0.1c-0.1,0.2-0.2,0.5-0.4,0.5l0-0.3c0-0.4-0.6,0.1-0.7-0.1c0.2,0.2-0.2,0-0.2,0.3l-0.2,0.1c-0.4,0.2,0,0.2-0.5,0.3
	c-0.3,0.1-0.2-0.3-0.1-0.3c-0.3-0.1-0.5,0-0.7,0.2c0.1,0,0.1,0,0.1,0.1c0,0,0,0-0.1-0.1c-0.1,0-0.2,0.1-0.3,0.1c0,0,0,0,0,0
	c0.1,0,0.2-0.1,0.3-0.1c-0.1,0-0.2,0-0.3,0c0,0,0,0-0.1,0c-0.1,0-0.2,0-0.2,0l0-0.2c-0.2,0-0.6,0.4-0.6,0.5c-0.2,0-0.4,0-0.7,0.1
	c-0.2,0-0.5,0.1-0.7,0.1c-0.4,0.1-0.7,0.2-0.9,0.3c0.1-0.1,0.1-0.1,0,0c-0.2,0.1-0.5,0.3-0.5,0.1c-0.2,0.1-0.2-0.1-0.6-0.1
	c0,0,0,0.2,0.1,0.2c-0.6-0.3-1.4,0.4-2.2,0.2c0.1,0,0.1-0.1,0.2-0.2c-0.6,0.1-1.1,0.2-1.6,0.5c0.1-0.1,0-0.2,0.2-0.3
	c-0.4,0-0.9,0.1-1,0.3c0.3,0.1,0-0.1,0.2-0.1c0.3,0.2-0.2,0.4-0.5,0.4l0,0c-0.4,0-0.4,0.1-0.8,0.1c-0.2-0.1,0.2-0.1,0.1-0.2
	c-0.1-0.4-0.9-0.2-1-0.3c-0.1,0.1-0.2,0.1-0.2,0.2c-0.3,0.1-0.1-0.2-0.3-0.2l-0.9,0.6c0-0.1-0.2-0.3,0-0.4c-0.7,0-1.1,0.3-1.5,0.5
	c-0.2-0.1-0.9,0-1.1,0c-0.1-0.2,0.2,0.1,0.3-0.1c-0.1-0.1-0.2-0.2-0.3-0.3c0.4,0.1,0-0.4,0.3-0.4c-0.4,0-1.1-0.3-1.6-0.5
	c0.3,0.5-0.7,0-0.8,0.4c-0.6-0.1-0.2-0.4-0.4-0.5c-0.7,0-1.2-0.2-1.8-0.4c0,0,0-0.1,0-0.1c-0.5-0.1-1.3-0.5-1.9-0.3
	c0.1-0.1,0-0.1,0.2-0.2c-0.5-0.3-0.3,0.4-0.8,0l0.2-0.1c-0.5,0-0.7-0.4-1.2-0.4c0-0.1,0.1-0.1,0.2-0.1c-0.4-0.1-0.8-0.4-1.3-0.3
	c0-0.1,0.1-0.2,0.3-0.2c-0.3-0.3-0.6,0.1-0.9-0.2c-0.1-0.1-0.2-0.3-0.1-0.3c-0.2,0.1-0.8-0.2-1-0.3c0-0.1-0.1-0.2-0.3-0.5
	c-0.9-0.6-1.8-1.2-2.7-1.7c-0.5-0.3-0.9-0.6-1.3-0.9c-0.4-0.3-0.9-0.6-1.4-0.9c0-0.5,0.5,0.1,0.5-0.2c-0.2,0.3-0.3-0.2-0.9-0.5
	l0-0.1c-0.3-0.1-0.2-0.4-0.5-0.5l-0.1,0.1c-0.4-0.1-0.2-0.8-0.6-0.6l0-0.3c-0.5,0-0.3-0.4-0.7-0.5l0.1,0c-0.2-0.5-1-0.5-1-0.8
	c-0.4-0.3-0.7-0.6-1-0.5c0-0.1,0.2-0.2,0.3-0.2c-1.1-1.2-2.3-2.6-3.4-3.7c0-0.1,0.1,0,0.2,0c-0.8-0.6-0.7-1.8-1.7-2
	c-0.1,0-0.2,0-0.4-0.1c0-0.2,0.2-0.3,0.2-0.5c-0.2-0.1-0.4-0.7-0.7-0.7c0-0.1,0.1,0,0.2-0.1c-0.2-0.4-0.7-0.6-0.8-1l0.2,0.1
	c-0.1-0.5-0.3-1.1-0.5-1.6c-0.1-0.6-0.3-1.1-0.5-1.7c-0.4-1.1-0.9-2.1-1.4-2.8c-0.2-0.4,0.3-0.3,0.2-0.5c-0.5-0.8-0.8-1.7-1-2.6
	c-0.2-0.9-0.4-1.8-1-2.5c-0.5-1.2-1.4-1.4-1.4-1.4c0.5,1.5,0.9,2.9,1.1,4.4c0.4,1.4,0.6,2.9,1,4.5c0.5,1,1.1,2.2,1.4,3.1
	c0.4,0.9,0.9,1.8,1.4,2.8l0.7,1.4c0.2,0.5,0.5,0.9,0.8,1.4c0.5,0.9,1,1.8,1.7,2.7c0.6,0.8,1.3,1.7,2,2.4c-0.1-0.2,0.2-0.2,0.4,0
	l0,0.1l0.4,0.1c0.2,0.2-0.1,0.3-0.3,0.1c0.6,0.6,1.2,1.2,1.7,1.7c0.6,0.5,1.1,1.1,1.7,1.7c0.3-0.2,0.7,0.5,0.9,0.3
	c0,0.1,0,0.1-0.1,0.1c1,0.6,1,0.6,1.6,1.6c3.5,2.9,7.5,4.6,11.7,6c4.3,1.2,8.7,1.3,13.2,1c0.6-0.6,1.6-0.4,2.3-0.9l0,0.2
	c0.7-0.3,0.9,0,1.7,0c0-0.2,0.3-0.1,0.2-0.4c0.3-0.3,0.6,0.3,1,0.1c0,0.1,0-0.2,0.1-0.1c1-0.6-0.2,0.2,1.3,0.2
	c1-0.3,1.9-0.6,2.9-0.8c0.9-0.3,1.9-0.7,2.8-0.9c-0.1,0-0.2-0.2,0-0.2c0.3,0.4,0.6-0.3,0.9-0.2c0,0.1-0.1,0.2-0.2,0.2
	c0.9-0.1,1.5-0.5,2.3-0.7c0.7-0.5,1.6-0.4,2-0.9c0,0.2,0.4,0,0.6,0c0.3-0.7,1.5-0.4,2-1.1l0,0.1c0.9-0.5,1.9-1,2.9-1.5l0.7-0.4
	l0.7-0.5c0.5-0.3,0.9-0.7,1.4-1c0.5-0.4,1.1-0.6,1.8-0.9c0.6-0.3,1.2-0.7,1.7-1.2c0.2-0.2-0.1-0.2,0.1-0.4c0.3-0.2,0.1,0.1,0.2,0.1
	c0.4-0.6,1.3-0.9,2-1.4c0-0.1,0.2-0.3,0-0.4c0.9-0.3,1.6-1.6,2.5-2c-0.6-0.1,0.2-0.6,0.4-0.9c0.2-0.1,0.3,0,0.3,0.1
	c0.5-0.5,0.7-0.9,1.4-1.4c0.2-0.3,0.1-0.6,0.5-0.9c0.5,0,0.7-0.7,1.1-1c-0.3-0.1-0.1-0.7,0.3-1l0.2,0.4c0.7-1.4,2.4-2.7,2.9-4.6
	l0.3,0c0.4-0.8,0.8-1.6,1.3-2.4c0.4-0.8,0.7-1.6,0.9-2.5c0.3-0.4,0.7-1,0.9-1.4c0-0.7,0.1-0.9,0-1.4c0.1-0.2,0.3-0.3,0.4-0.3
	c0.3-0.7,0.9-1.3,0.8-2l0.2,0c0-0.7,0-1.6,0.4-2.2c-0.1-0.2,0-0.9-0.3-0.7c0-0.3,0.4-0.1,0.2-0.4l0.2,0.3c0.5-1.5,0.5-2.9,0.6-4.4
	c0.4-0.4,0.2-1.4,0.4-2.3c-0.2-0.5,0.2-1.4-0.3-1.8l0.2,0c0-0.3,0.1-0.7,0.1-1.2c0-0.4,0-0.9,0.1-1.3c0-0.5-0.3-0.5-0.4-0.9
	L135,86.7z M95,32.7c0.1,0.1,0.3,0.2,0.5,0.2s0.3,0.1,0.5,0.1c0.3,0,0.5,0,0.6-0.1c0.1-0.1,0.2-0.3,0.2-0.6c0-0.1,0-0.3-0.1-0.4
	c-0.1-0.1-0.2-0.2-0.3-0.3c-0.1-0.1-0.3-0.2-0.4-0.3c-0.2-0.1-0.3-0.1-0.5-0.1c-0.2,0-0.3,0-0.4,0.1c-0.2,0.1-0.4,0.3-0.4,0.4
	c0,0.1-0.1,0.3-0.1,0.5c0,0.1,0,0.2,0.1,0.2C94.7,32.5,94.8,32.6,95,32.7z M81.9,14.3c0.1,1.3,0.1,2.6,0.1,3.8
	c0,1.2,0.1,2.5,0.1,3.9c0,0.3,0.2,0.6,0.5,0.8c0.3,0.2,0.6,0.3,0.8,0.3c0.2,0,0.4,0,0.6-0.1c0.2,0,0.4-0.2,0.7-0.3
	c0.2-0.2,0.5-0.4,0.8-0.8c0.3-0.4,0.6-0.9,0.9-1.5c0.2-0.5,0.4-0.9,0.6-1.4c0.2-0.5,0.3-0.9,0.5-1.4c0.2-0.5,0.4-1,0.6-1.5
	c0.2-0.5,0.5-1.1,0.8-1.7c0.2,0.3,0.4,0.6,0.6,1c0.1,0.4,0.3,0.9,0.4,1.3c0.1,0.5,0.2,1,0.3,1.4c0.1,0.5,0.2,0.9,0.3,1.3
	c0.1,0.3,0.2,0.7,0.3,1.1c0.1,0.5,0.2,0.9,0.3,1.3c0.1,0.4,0.3,0.8,0.6,1.1c0.2,0.3,0.5,0.4,0.9,0.4c0.3,0,0.6-0.1,0.9-0.3
	s0.5-0.4,0.5-0.8c-0.3-0.6-0.5-1.3-0.7-2c-0.2-0.7-0.3-1.5-0.4-2.2c-0.1-0.7-0.3-1.5-0.5-2.2c-0.2-0.7-0.4-1.4-0.7-2
	c-0.1-0.3-0.3-0.6-0.4-0.9c-0.1-0.3-0.2-0.6-0.3-0.9c-0.1-0.3-0.3-0.6-0.5-0.8c-0.2-0.2-0.5-0.4-0.9-0.5c-0.4,0-0.9,0.2-1.3,0.5
	c-0.4,0.3-0.8,0.8-1.1,1.3c-0.3,0.5-0.6,1-0.9,1.5c-0.2,0.5-0.4,1-0.5,1.3l-0.1,0.2c-0.2,0.4-0.3,0.9-0.5,1.4
	c-0.2,0.5-0.4,0.9-0.7,1.2l0-0.2c0-0.5,0-1.1,0-1.7c0-0.6,0-1.3-0.1-2.1c0-0.2,0-0.5-0.1-0.7c-0.1-0.2-0.1-0.4-0.1-0.7
	c0-0.2,0-0.4-0.1-0.7c0-0.3-0.1-0.5-0.2-0.8c-0.1-0.2-0.2-0.4-0.4-0.6c-0.2-0.2-0.4-0.2-0.7-0.2c-0.1,0-0.2,0-0.4,0
	c-0.1,0-0.3,0-0.4,0c-0.2,0.1-0.4,0.3-0.5,0.6c-0.1,0.3-0.1,0.5-0.1,0.8c0,0.4,0,0.8,0.1,1.1C81.9,13.6,81.9,14,81.9,14.3z
	 M132.1,94.9c-0.1-0.1-0.1-0.1-0.2-0.1C131.8,95,131.9,95.1,132.1,94.9z M111.4,36.6c0.1,0.2,0.2,0.3,0.4,0.4
	c0.2,0.1,0.3,0.2,0.4,0.2c0.5,0.2,0.9,0.3,1.3,0.3c0.4,0,0.8,0,1.1,0c0.3,0,0.6-0.1,0.9-0.2s0.5-0.2,0.8-0.2c1.8-1,3.3-2.2,4.5-3.8
	c1.2-1.5,2.2-3.4,3-5.6c0.1-0.3,0.3-0.7,0.4-1.1s0.3-0.8,0.4-1.1c0.1-0.4,0.2-0.7,0.3-1c0.1-0.3,0.2-0.6,0.3-0.7
	c0.2-0.6,0.5-1.3,0.9-2.1c0.4-0.8,0.8-1.8,1.3-3c0.1-0.4,0-0.7-0.2-1c-0.2-0.3-0.5-0.5-0.9-0.7c-0.3-0.1-0.7-0.1-1,0.2
	c-0.3,0.3-0.6,0.6-0.8,1.1c-0.3,0.5-0.5,1-0.7,1.5c-0.2,0.5-0.5,1-0.7,1.4c-0.2,0.3-0.5,0.7-0.9,1.2c-0.3,0.5-0.7,0.9-1.1,1.4
	c-0.4,0.4-0.8,0.8-1.3,1.1c-0.5,0.3-0.9,0.5-1.4,0.4c-0.2-0.2-0.2-0.5-0.2-0.9c0-0.4,0.1-0.8,0.2-1.2c0.1-0.4,0.2-0.9,0.4-1.3
	c0.1-0.4,0.3-0.8,0.4-1.1l0.2-0.5c0.1-0.3,0.2-0.6,0.4-1.1c0.2-0.4,0.3-0.8,0.5-1.1c0-0.3,0.1-0.6,0.2-0.9c0.1-0.3,0.2-0.6,0.3-0.9
	c0-0.3,0-0.6-0.1-0.8c-0.1-0.3-0.4-0.5-0.9-0.7c-0.2-0.1-0.4-0.1-0.7,0.1c-0.2,0.1-0.4,0.3-0.6,0.6c-0.2,0.3-0.4,0.5-0.5,0.9
	c-0.1,0.3-0.3,0.6-0.4,0.8c-0.1,0.4-0.3,0.7-0.4,1c-0.1,0.3-0.2,0.7-0.4,1c0,0.1-0.1,0.2-0.2,0.4c-0.1,0.1-0.1,0.2-0.2,0.4
	c-0.2,0.5-0.4,1.2-0.6,2c-0.2,0.8-0.3,1.6-0.4,2.4c0,0.8,0.1,1.5,0.4,2.2c0.3,0.7,0.8,1.1,1.5,1.4c0.2,0.1,0.5,0.1,0.9,0.1
	c0.3,0,0.7-0.1,1.1-0.2s0.7-0.3,1-0.5c0.3-0.2,0.6-0.4,0.8-0.6c0.1,0,0.1,0.1,0.1,0.1c-0.1,0.1-0.1,0.3-0.2,0.4
	c-0.1,0.1-0.1,0.3-0.2,0.4c-0.6,1.5-1.3,2.8-2.1,3.9c-0.9,1.1-2,2.2-3.4,3c-0.4,0.2-0.8,0.3-1.2,0.4c-0.5,0.1-0.9,0.1-1.3,0.1
	c-0.4,0-0.8,0.1-1.1,0.1s-0.5,0.1-0.5,0.2c-0.1,0.2-0.1,0.4,0,0.6C111.2,36.3,111.3,36.5,111.4,36.6z M44.9,102.5
	c0.1,0,0.3-0.2,0.4-0.3C45.1,102,45,102.4,44.9,102.5z M95.4,21.5c0.2,0.3,0.5,0.6,0.8,0.8c0.3,0.2,0.6,0.4,0.9,0.6
	c0.7,0,1.3-0.1,1.8-0.3c0.5-0.2,1-0.4,1.4-0.7c0.4-0.3,0.7-0.6,1-1c0.3-0.4,0.6-0.8,0.9-1.2c0,0.6,0,1.1,0,1.5c0,0.5,0,0.9-0.1,1.4
	c0,0.4-0.1,0.9-0.1,1.3c-0.1,0.4-0.1,0.9-0.2,1.4c-0.2,1.8-0.5,3.1-0.9,4c-0.4,0.9-0.8,1.6-1.3,2.1c-0.5,0.5-0.9,0.8-1.3,1
	c-0.4,0.2-0.7,0.5-1,0.9c0.1,0.5,0.2,0.8,0.4,0.9c0.2,0.1,0.5,0.2,0.8,0.4c0.7,0,1.2-0.1,1.6-0.3c0.4-0.2,0.8-0.4,1.1-0.7
	c0.3-0.3,0.5-0.5,0.7-0.8s0.4-0.5,0.6-0.7c0.6-0.9,1.1-1.8,1.4-2.8c0.3-1,0.5-2.1,0.6-3.1c0.3-2.2,0.4-4.1,0.5-5.9
	c0.1-1.7,0.2-3.4,0.4-4.9c0.1-0.5,0.1-1.1,0.1-1.5c0-0.5,0-1,0-1.5c-0.3-0.1-0.6-0.2-0.8-0.3c-0.2,0-0.4-0.1-0.6-0.2
	c-0.1,0-0.2,0.1-0.3,0.1s-0.2,0-0.3,0.1l-0.2-0.5c-0.2-0.1-0.3-0.2-0.5-0.2c-0.2-0.1-0.3-0.1-0.5-0.1c-0.9-0.1-1.8,0.1-2.6,0.7
	c-0.8,0.6-1.5,1.3-2.2,2.2c-0.6,0.9-1.2,1.8-1.6,2.7c-0.5,0.9-0.8,1.6-1,2.1c0,0.1-0.1,0.2-0.1,0.3c0,0.4,0,0.8,0.1,1.1
	C95,20.8,95.1,21.2,95.4,21.5z M97.7,18.6c0.2-0.4,0.4-0.8,0.7-1.2c0.3-0.4,0.5-0.8,0.8-1.2c0.3-0.4,0.5-0.7,0.7-1.1
	c0.2-0.2,0.4-0.4,0.6-0.6c0.2-0.2,0.4-0.4,0.6-0.6c0.2-0.2,0.4-0.3,0.7-0.4c0.3-0.1,0.6-0.1,0.9-0.1c0,0.2-0.1,0.5-0.2,0.7
	c-0.1,0.2-0.1,0.5-0.2,0.7c-0.3,0.8-0.7,1.5-1.1,2.2c-0.4,0.7-0.7,1.3-1.1,1.8c-0.4,0.5-0.8,0.9-1.1,1.2c-0.4,0.3-0.7,0.5-1.1,0.5
	c-0.4-0.1-0.6-0.4-0.6-0.7C97.4,19.4,97.5,19,97.7,18.6z M122.5,120C122.5,120,122.5,120,122.5,120c-0.1,0-0.1,0.1-0.2,0.1
	L122.5,120z M76.8,132.5L76.8,132.5l-0.1,0.3L76.8,132.5z M58.6,74.5c-0.1-0.3-0.2-0.5-0.3-0.6c-0.2-0.1-0.4-0.1-0.7,0.1
	c-0.1,0.1-0.3,0.2-0.4,0.2c-0.1,0.1-0.3,0.2-0.4,0.3c-0.3,0.3-0.5,0.6-0.7,1c-0.2,0.4-0.2,0.8-0.3,1.1c-0.1,0.5-0.1,1-0.1,1.5
	c0,0.5,0,1-0.1,1.5c-0.1,1.8-0.2,3.5-0.2,5.2c0,1.7,0.1,3.5,0.3,5.4c0,0.4,0.3,0.8,0.7,0.9c0.5,0.2,0.8,0.3,1.1,0.2
	c0.3-0.1,0.5-0.2,0.8-0.3c0.3-0.1,0.6-0.4,0.9-0.7c0.3-0.3,0.6-0.8,0.9-1.5c0.3-0.6,0.7-1.5,1.1-2.6c0.3-0.8,0.5-1.6,0.7-2.3
	c0.2-0.8,0.4-1.5,0.6-2.3c0.2-0.8,0.4-1.6,0.7-2.5c0.3-0.9,0.6-1.8,1.1-2.9c0.3,0.3,0.6,0.7,0.7,1.3c0.2,0.6,0.4,1.2,0.6,1.9
	c0.2,0.7,0.3,1.4,0.5,2.1c0.2,0.7,0.4,1.3,0.6,1.9c0.2,0.4,0.4,1,0.5,1.7c0.2,0.7,0.4,1.4,0.7,2c0.3,0.6,0.6,1.1,1,1.5
	c0.4,0.4,0.9,0.5,1.5,0.4c0.4-0.1,0.8-0.3,1.3-0.7c0.5-0.4,0.7-0.9,0.7-1.5c-0.6-0.9-1-1.9-1.4-3c-0.4-1.1-0.7-2.2-1-3.4
	c-0.3-1.1-0.6-2.2-0.9-3.3c-0.3-1.1-0.7-2-1.1-2.8c-0.2-0.4-0.4-0.8-0.5-1.2c-0.1-0.4-0.3-0.9-0.4-1.2c-0.1-0.4-0.3-0.7-0.6-1
	c-0.2-0.3-0.7-0.4-1.1-0.3c-0.5,0.1-1.1,0.7-1.6,1.4c-0.5,0.7-1,1.5-1.4,2.3c-0.4,0.9-0.8,1.7-1.2,2.6c-0.3,0.9-0.6,1.6-0.7,2.2
	c0,0.1,0,0.2-0.1,0.3c-0.2,0.7-0.4,1.5-0.6,2.3c-0.2,0.8-0.5,1.5-0.9,2.1c0-0.1,0-0.1,0-0.2c0-0.8,0-1.6,0-2.4c0-0.8,0-1.8,0.1-3
	c0-0.3,0-0.6-0.1-0.9c-0.1-0.3-0.1-0.6-0.1-0.9c0-0.2,0-0.5,0-0.9C58.7,75.1,58.6,74.8,58.6,74.5z M78.1,131.8
	c0.2,0.1,0.4,0.2,0.6,0.2c0.6,0.1,1,0.2,1.4,0.2c0.4,0,0.7-0.1,0.9-0.2c0.2-0.1,0.4-0.3,0.6-0.4c0.1-0.2,0.3-0.3,0.4-0.5
	c0.6-1.6,0.9-3.7,0.8-6.2c-0.2-2.5-0.8-5.4-1.8-8.9c-0.2-0.5-0.3-1.1-0.5-1.7c-0.2-0.6-0.4-1.2-0.6-1.8c-0.2-0.6-0.4-1.1-0.5-1.6
	c-0.2-0.5-0.3-0.9-0.4-1.2c-0.3-0.9-0.5-2.1-0.9-3.5c-0.3-1.4-0.5-3.5-1-5.2c-0.2-0.5-0.7-1-1.2-1.2c-0.6-0.2-1.1-0.3-1.7-0.2
	c-0.6,0.1-0.9,0.5-1,1.1c-0.1,0.6-0.2,1.3-0.1,2.2c0.1,0.8,0.2,1.7,0.4,2.6c0.2,0.9,0.4,1.7,0.5,2.4c0,0.6,0,1.3,0,2.2
	c0,0.9,0,1.7,0,2.5s-0.2,1.6-0.4,2.2c-0.2,0.7-0.6,1.1-1.1,1.3c-0.4-0.2-0.8-0.5-1.1-1c-0.4-0.5-0.7-1-1-1.7
	c-0.3-0.6-0.6-1.2-0.8-1.9c-0.2-0.6-0.4-1.2-0.6-1.6c-0.1-0.3-0.2-0.5-0.3-0.8c-0.1-0.4-0.3-1-0.5-1.7c-0.2-0.7-0.3-1.4-0.4-1.7
	c-0.1-0.4-0.4-0.9-0.5-1.4c-0.1-0.5-0.3-1-0.5-1.4c-0.2-0.4-0.5-0.8-0.9-1c-0.4-0.2-0.9-0.3-1.7-0.2c-0.3,0.1-0.6,0.3-0.7,0.6
	c-0.1,0.3-0.2,0.7-0.2,1.2c0,0.5,0.1,1,0.2,1.4c0.1,0.5,0.2,0.9,0.3,1.3c0.2,0.5,0.3,1,0.5,1.5c0.2,0.5,0.4,1,0.6,1.5
	c0.1,0.2,0.1,0.4,0.2,0.6c0,0.2,0.1,0.4,0.2,0.5c0.3,0.8,0.7,1.7,1.2,2.8c0.5,1.1,1.2,2.1,2,3.1c0.8,1,1.6,1.8,2.6,2.5
	c1,0.7,2,1.1,3.1,1.1c0.4,0,0.7-0.1,1-0.3c0.3-0.2,0.7-0.5,0.9-0.8c0.3-0.3,0.5-0.7,0.7-1.1c0.2-0.4,0.3-0.9,0.3-1.3
	c0.1,0,0.2,0,0.2,0c0,0.2,0.1,0.4,0.2,0.6c0.1,0.2,0.1,0.4,0.2,0.7c0.8,2.2,1.3,4.3,1.5,6.1c0.2,1.8,0.1,3.5-0.3,4.9
	c-0.1,0.3-0.4,0.6-0.7,0.7c-0.3,0.2-0.7,0.3-1,0.4c-0.3,0.1-0.6,0.2-0.8,0.3c-0.2,0.1-0.3,0.2-0.2,0.3c0.1,0.2,0.3,0.4,0.6,0.6
	c0.2,0.2,0.5,0.4,0.8,0.5C77.6,131.5,77.9,131.7,78.1,131.8z M83.5,82.9c-0.3-1.8-0.9-3.2-1.8-4.5c-0.8-1.2-1.7-2.5-2.6-3.6
	c-0.1-0.1-0.2-0.2-0.3-0.4c-0.2-0.2-0.4-0.5-0.7-0.8c-0.3-0.4-0.6-0.8-0.8-1.2c-0.3-0.4-0.5-0.9-0.8-1.3c-0.2-0.4-0.3-0.7-0.4-1
	c-0.1-0.5-0.1-0.7-0.2-1.2c-0.1-0.7-0.1-1.3,0-2c0.1-0.7,0.3-1.3,0.6-2c0.1-0.2,0.3-0.4,0.4-0.6c0.1-0.2,0.2-0.4,0.2-0.7
	c-0.1-0.2-0.3-0.5-0.6-0.8c-0.2-0.3-0.5-0.4-0.8-0.3c-0.1,0-0.2,0-0.2,0c-0.1,0-0.2,0-0.2,0c-0.7,0.2-1.3,0.6-1.8,1.3
	s-0.8,1.3-1,2.1c-0.2,0.8-0.4,1.6-0.4,2.5s0,1.7,0.1,2.5c0.1,1,0.4,1.9,0.9,2.7c0.5,0.9,1.1,1.8,1.8,2.7c0.7,1,1.4,2,2.2,3.2
	c0.8,1.2,1.5,2.5,2.2,4.1c0,0.1,0.1,0.2,0.2,0.5c0.2,0.8,0.1,1.6-0.3,2.2c-0.3,0.6-0.8,1-1.4,1.2c-0.4,0.1-0.9,0-1.3-0.4
	c-0.4,0.2-0.6,0.4-0.7,0.5c-0.1,0.2-0.2,0.4-0.3,0.7c0.2,0.7,0.7,1.4,1.4,1.8c0.7,0.5,1.4,0.6,2.1,0.5c0.8-0.2,1.6-0.5,2.2-1
	c0.7-0.5,1.2-1.2,1.6-1.9c0.4-0.7,0.7-1.6,0.8-2.4C83.7,84.7,83.7,83.8,83.5,82.9z M89.9,117.3c0.5,0.2,1,0.3,1.6,0.2
	c0.1,0,0.2,0,0.3-0.1c0.2,0,0.4-0.1,0.6-0.1c0.2,0,0.3,0,0.5-0.1c0.6-0.1,1.1-0.4,1.6-0.9c0.5-0.5,0.9-1,1.4-1.6
	c0.4-0.6,0.8-1.3,1.1-1.9c0.3-0.7,0.6-1.3,0.8-1.8c0.4-1,0.7-2,0.9-3c0.2-1,0.3-2.1,0.1-3.2c-0.1-0.4-0.1-0.6-0.2-1
	c-0.1-0.4-0.2-0.8-0.3-1.1c-0.1-0.4-0.3-0.7-0.5-1c-0.3-0.4-0.6-0.8-0.9-1.2c-0.3-0.4-0.7-0.8-1.1-1c-0.5-0.3-1.1-0.5-1.6-0.7
	c-0.6-0.1-1.2-0.3-1.7-0.4c-0.6-0.1-1.2-0.2-1.7-0.3s-1.1-0.3-1.7-0.5c-0.4-0.2-0.7-0.2-1-0.1c-0.8,0.2-1.5,0.6-2.1,1.2
	c-0.6,0.7-1.1,1.4-1.6,2.2c-0.4,0.8-0.7,1.6-1,2.3c-0.2,0.8-0.3,1.4-0.3,1.8c0,1,0,2,0,3.1c0,1.1,0.1,2,0.3,2.8
	c0.4,1.5,1,2.8,1.9,3.7c0.9,1,1.9,1.7,3.1,2.1C88.9,116.9,89.4,117.1,89.9,117.3z M87.5,110.4c-0.2-0.7-0.3-1.4-0.3-2.4
	c-0.1-0.9,0-1.8,0.2-2.7c0.2-0.9,0.4-1.6,0.8-2.3c0.4-0.7,0.9-1.1,1.6-1.2c0.9-0.2,1.7-0.1,2.6,0.2c0.8,0.3,1.3,1,1.5,2
	c0,0.1,0,0.2,0.1,0.3c0.1,0.7,0.1,1.5,0.1,2.3c0,0.8-0.1,1.6-0.2,2.3c-0.1,0.8-0.3,1.5-0.6,2.1c-0.3,0.7-0.7,1.2-1.1,1.7
	c-0.3,0.2-0.6,0.5-0.9,0.6c-0.3,0.2-0.6,0.3-0.9,0.4c-0.4,0.1-0.8,0-1.1-0.3c-0.3-0.3-0.6-0.7-0.8-1.1c-0.2-0.4-0.4-0.8-0.6-1.2
	C87.6,110.8,87.5,110.6,87.5,110.4z M86.1,132.7c0,0,0,0.3,0.2,0.2C86,132.9,86.3,132.7,86.1,132.7z M46.5,88.5
	c0.2,0.1,0.1-0.3,0.2-0.3C46.6,88.3,46.5,88.3,46.5,88.5z M74.6,54.2l0,0.1l0.2-0.2L74.6,54.2z M101.3,49.9L101.3,49.9l0.1-0.3
	L101.3,49.9z M48.2,81.7c0,0.1,0,0.1-0.1,0.2l0.2,0C48.4,81.8,48.3,81.6,48.2,81.7z M103.6,129.2l0-0.1l-0.2,0.2L103.6,129.2z
	 M100.9,81.9c0.7-0.1,1.4-0.5,2.1-1c0.7-0.5,1.2-1.3,1.7-2.2c0.5-0.9,0.8-1.9,1-3.1c0.2-1.1,0.2-2.4,0-3.7c0.2,0.2,0.5,0.7,0.8,1.2
	c0.3,0.6,0.7,1.2,1,1.9c0.4,0.7,0.7,1.3,1,1.9c0.3,0.6,0.6,1,0.8,1.2c0.5,0.7,1,1.1,1.3,1.3c0.3,0.1,0.7,0.2,1,0.3
	c0.1,0,0.3,0,0.6,0s0.5-0.1,0.6-0.1c0.3,0,0.6-0.2,0.8-0.5c0.2-0.3,0.3-0.9,0.1-1.4c-0.2-0.3-0.5-0.7-0.7-1.1
	c-0.2-0.4-0.5-0.7-0.8-1c-0.2-0.2-0.4-0.5-0.7-1c-0.3-0.5-0.7-1-1-1.5c-0.4-0.5-0.7-1-0.9-1.5c-0.3-0.5-0.4-0.7-0.5-0.9
	c0-0.1,0-0.1-0.1-0.2c-0.4-0.6-0.8-1.2-1.2-1.9c-0.4-0.7-0.8-1.4-1.2-2.2c-0.4-0.7-0.8-1.5-1.2-2.2c-0.4-0.7-0.7-1.4-1.1-2
	c-0.4-0.7-0.9-1.5-1.4-2.4c-0.5-0.9-0.9-1.6-1.2-2.2c-0.5-1-0.9-1.8-1.3-2.6c-0.4-0.8-0.8-1.5-1.3-2.4c-0.2-0.4-0.6-0.8-1-1.1
	c-0.4-0.4-0.9-0.6-1.3-0.7c-0.3-0.1-0.6-0.1-0.8,0c-0.3,0.1-0.4,0.2-0.5,0.4c-0.1,0.1-0.1,0.3,0.1,0.6c0.2,0.2,0.2,0.5,0.3,0.7
	c0.1,0.3,0.3,0.6,0.5,0.8c0.1,0.3,0.3,0.5,0.4,0.8c0.4,0.8,0.7,1.5,1,2.1c0.3,0.6,0.5,1,0.5,1c0.4,0.9,0.8,1.8,1.3,2.8
	c0.5,1,1,2,1.4,3c-0.4-0.1-0.9-0.2-1.3-0.3c-0.4-0.1-0.9-0.2-1.3-0.1c-0.6,0-1,0.2-1.2,0.4c-0.2,0.3-0.4,0.4-0.5,0.5
	c-0.6,0.6-1.1,1.4-1.5,2.5c-0.4,1-0.7,2.2-0.9,3.4s-0.3,2.4-0.3,3.7c0,1.2,0.2,2.4,0.4,3.4c0.4,1.8,1.2,3.2,2.2,4.2
	C97.8,81.9,99.2,82.2,100.9,81.9z M99.1,77.1c-0.2-0.3-0.4-0.6-0.4-0.9c-0.1-0.5-0.2-1-0.3-1.4c-0.1-0.4-0.1-0.9-0.1-1.3
	c0-0.4,0-0.9,0-1.3c0-0.5,0-1,0.1-1.6c0-0.9,0.2-1.7,0.6-2.4c0.4-0.7,0.6-1.4,0.8-2c0.1,0,0.2,0,0.3,0c0.1,0,0.2,0,0.3,0
	c0.1,0.2,0.1,0.3,0.1,0.5c0,0.2,0.1,0.3,0.1,0.5c0.1,0.2,0.3,0.2,0.4,0.3c0.2,0,0.3,0,0.5,0c0.2,0,0.3,0,0.4,0
	c0.1,0,0.2,0.1,0.2,0.2c0.2,0.5,0.3,1,0.3,1.5c0,0.5,0.1,1,0,1.5c0,0.5-0.1,1.2-0.2,2c0,0.8-0.1,1.6-0.3,2.3c-0.2,0.8-0.4,1.4-0.8,2
	c-0.4,0.6-0.9,0.9-1.6,1C99.5,77.7,99.3,77.4,99.1,77.1z M121.1,79c0.7,0.1,1.3,0.2,1.8,0.1c1-0.1,1.8-0.3,2.4-0.6
	c0.6-0.2,1.1-0.7,1.6-1.3c0.1-0.2,0.3-0.4,0.3-0.7c0.1-0.3,0.1-0.6-0.1-0.9c-0.1-0.2-0.1-0.3-0.2-0.4c-0.1-0.1-0.1-0.2-0.2-0.4
	c-0.2-0.2-0.4-0.3-0.6-0.3c-0.2-0.1-0.4-0.1-0.5-0.2c-0.5,0.4-0.9,0.9-1.4,1.3c-0.4,0.4-1.1,0.7-2,0.7c-0.1,0-0.4,0-0.7-0.1
	c-0.4-0.1-0.8-0.2-1.3-0.5c-0.5-0.3-1-0.7-1.5-1.3c-0.5-0.6-1-1.4-1.5-2.4c0-0.1-0.1-0.1-0.1-0.2c0-0.1-0.1-0.2-0.1-0.4
	c0.4,0.1,0.8,0.2,1.1,0.2s0.7,0.1,1,0c0.8,0,1.5-0.2,2-0.4c0.5-0.3,0.9-0.6,1.1-1c0.2-0.4,0.3-0.8,0.2-1.3c-0.1-0.5-0.3-1-0.7-1.5
	c-0.3-0.4-0.6-0.8-1.1-1.2c-0.4-0.4-0.9-0.8-1.5-1.1c-0.5-0.4-1.1-0.7-1.8-0.9c-0.6-0.3-1.3-0.5-2-0.6c-1-0.2-1.7-0.1-2.2,0.3
	c-0.5,0.4-0.8,0.9-0.9,1.7c-0.1,0.8-0.1,1.7,0.1,2.7c0.2,1.1,0.5,2.2,0.9,3.2c0.3,0.7,0.6,1.4,0.9,2c0.3,0.6,0.7,1.3,1.1,1.8
	c0.4,0.6,0.9,1.1,1.5,1.6c0.6,0.5,1.3,1,2.2,1.5C119.7,78.7,120.4,78.9,121.1,79z M116.8,69.3c-0.2,0-0.4,0-0.6-0.1
	c-0.2-0.6-0.4-1.1-0.5-1.4c-0.1-0.3-0.1-0.6-0.1-0.9s0-0.4,0.1-0.5c0.1-0.1,0.1-0.2,0.2-0.3c0-0.2,0.1-0.3,0.4-0.3
	c0.2,0,0.5,0,0.7,0c0.4,0,0.8,0.2,1.2,0.5c0.4,0.3,0.7,0.6,0.9,1c0.4,0.6,0.4,1.1,0.1,1.4c-0.3,0.4-0.9,0.6-1.9,0.6
	C117.2,69.4,117,69.3,116.8,69.3z M47,88.8c0-0.2,0-0.3-0.2-0.1C46.9,88.8,46.9,88.9,47,88.8z M90.5,75.1c-0.5-1.3-1-2.7-1.4-4.2
	c-0.5-1.4-0.9-2.8-1.2-4.1c-0.1-0.4-0.2-0.7-0.2-1c-0.1-0.3-0.1-0.7-0.2-1c-0.2-0.2-0.5-0.4-0.8-0.6c-0.3-0.2-0.7-0.3-1.1-0.4
	c-0.3,0.1-0.6,0.2-0.9,0.3c-0.3,0.1-0.6,0.2-0.9,0.4c-0.5,0.5-0.6,1-0.5,1.7c0.3,1.7,0.8,3.3,1.3,4.9c0.5,1.5,1,3.2,1.3,5
	c0.1,0.6,0.3,1.2,0.6,1.8c0.2,0.6,0.4,1.2,0.6,1.8c0.2,1,0.5,1.9,0.8,2.4c0.3,0.6,0.7,1,1.2,1.3c0.4,0.3,0.9,0.4,1.5,0.4
	c0.5,0,1.1,0,1.7-0.2c0.3-0.5,0.5-0.9,0.6-1.2c0.1-0.3,0.1-0.6,0-0.9c0-0.1,0-0.1,0-0.2c-0.2-0.6-0.5-1.5-0.9-2.6
	C91.4,77.6,91,76.4,90.5,75.1z M92.1,50.2c0,0,0-0.3-0.2-0.1C92.2,50,91.9,50.3,92.1,50.2z M85.5,54.8c-0.2-0.2-0.5-0.4-0.8-0.6
	c-0.3-0.2-0.6-0.3-0.9-0.3c-0.3-0.1-0.6-0.1-0.9,0c-0.4,0.1-0.6,0.2-0.7,0.4c-0.4,0.3-0.6,0.7-0.6,1c0,0.3,0,0.6,0.1,1
	c0,0.2,0.1,0.3,0.3,0.4c0.2,0.1,0.4,0.3,0.7,0.4c0.3,0.1,0.6,0.2,1,0.2c0.4,0,0.7,0,1,0c0.5-0.1,0.9-0.2,1.1-0.5
	c0.2-0.2,0.3-0.6,0.1-1.2C85.9,55.3,85.7,55.1,85.5,54.8z M74.9,51.3C74.9,51.3,74.9,51.3,74.9,51.3c0.1,0,0.1-0.1,0.2-0.1
	C75,51.2,75,51.2,74.9,51.3z M45.8,93.1c0.1,0.1,0.1,0,0.2,0.2c0.1-0.1,0-0.2-0.1-0.3C45.9,93,45.8,93.1,45.8,93.1z M90.7,50.1
	C90.7,50.1,90.6,50.1,90.7,50.1C90.6,50.1,90.6,50.1,90.7,50.1z M47.3,85.2c0,0.1,0,0.1,0,0.2C47.3,85.3,47.3,85.3,47.3,85.2z
	 M55.8,63.4C55.8,63.5,55.8,63.5,55.8,63.4c0.1,0,0.1-0.1,0.2-0.1L55.8,63.4z M46.2,93c0-0.1-0.1-0.2-0.1-0.2
	C46.1,92.8,46.1,92.9,46.2,93z M131.4,98.2c0,0,0,0.1,0,0.2C131.4,98.3,131.4,98.3,131.4,98.2z M45.9,92.7
	C45.9,92.7,45.9,92.7,45.9,92.7c0,0,0.1,0,0.2,0.1c0.1-0.1,0.3-0.3,0.1-0.4c0.1-0.1,0.2,0.1,0.3-0.1C46.3,92,46,92.3,45.9,92.7z
	 M105.2,114.7c0.6,0.2,1.3,0.2,2.1-0.1c0.8-0.3,1.5-0.9,2.1-1.7c0.6-0.9,1.2-1.9,1.7-2.9c0.5-1.1,0.9-2.1,1.2-3.2
	c0.3-1.1,0.6-1.9,0.8-2.6c0.1-0.2,0.1-0.3,0.1-0.5c0.1,0.8,0.3,1.5,0.4,2.2c0.2,0.7,0.4,1.3,0.6,1.8c0.3,0.5,0.6,0.9,0.9,1.1
	c0.4,0.3,0.8,0.3,1.4,0.2c0.2-0.1,0.4-0.3,0.6-0.4c0.2-0.1,0.4-0.2,0.5-0.4c0.2-0.2,0.3-0.3,0.4-0.6c0.1-0.2,0.2-0.5,0.3-0.8
	c-0.1-0.2-0.2-0.4-0.3-0.6c-0.1-0.1-0.3-0.3-0.4-0.4c-0.4-0.5-0.7-1.2-0.9-2.3c-0.2-1-0.4-2.3-0.5-3.9c-0.1-0.8-0.1-1.7-0.1-2.9
	c0-1.1,0.2-3.3-0.4-4.7c-0.1-0.2-0.5-0.4-0.9-0.6c-0.4-0.2-0.7-0.3-0.9-0.2c0,0-0.1,0-0.1,0c0,0-0.1,0-0.1,0
	c-0.8,0.2-1.3,0.4-1.6,0.8c-0.3,0.3-0.5,0.7-0.5,1.1c0,0.4,0,0.8,0.1,1.2c0.1,0.4,0.1,0.9,0,1.4c-0.2,1.2-0.4,2.5-0.7,4
	c-0.3,1.5-0.7,3-1.2,4.4c-0.5,1.4-0.9,2.6-1.5,3.7c-0.5,1-1,1.7-1.5,1.9c-0.1-0.7-0.3-1.7-0.6-3.1c-0.3-1.4-0.5-2.9-0.7-4.6
	c-0.1-0.5-0.1-1-0.1-1.6c0-0.6-0.1-1.4-0.2-2.4c-0.1-0.6-0.1-1.1-0.1-1.6s0-1-0.1-1.6c-0.1-0.7-0.5-1.1-1.1-1.4
	c-0.6-0.2-1.2-0.3-1.7-0.3c-0.2,0.1-0.3,0.1-0.4,0.2c-0.1,0.1-0.2,0.1-0.3,0.2c-0.2,0.1-0.4,0.2-0.5,0.4c-0.1,0.1-0.2,0.2-0.2,0.3
	c-0.1,0.9-0.1,1.9,0,2.8c0.1,0.9,0.2,1.9,0.4,2.8c0.1,0.8,0.2,1.1,0.3,1.9c0.1,0.5,0.2,1,0.2,1.5c0.1,0.5,0.1,1,0.1,1.5
	c0.2,2,0.6,3.8,0.9,5.2c0.3,1.4,0.6,2.4,1,3.2C104.2,114,104.7,114.5,105.2,114.7z M46,90.8c0.1,0.3,0.2,0.6,0.2,0.8
	C46.2,91.3,46.1,90.8,46,90.8z M46.2,88.5c-0.3-0.6,0.3-0.7,0.4-0.8c0,0.1,0,0.2,0.1,0.3c0.2-0.3-0.1-0.5,0-0.9c0.5,0,0,0.6,0.2,0.8
	l0.4-0.2c0.1-0.6-0.4-0.2-0.1-0.8l0.1,0.1l0-0.4c-0.2,0-0.4,0-0.5,0.3c-0.4-0.3,0-0.3,0-0.8c-0.2-0.2,0,0.2-0.3,0.2
	c-0.2,0-0.2-0.3-0.2-0.6c0.1-0.4,0.3-0.2,0.5-0.3c0,0.1,0,0.4-0.1,0.4c0.1,0.6,0.6-0.1,0.7,0.3c0.2-0.4-0.1-0.4-0.1-0.6
	c-0.1,0.1-0.2-0.1-0.3,0c-0.5-0.8,0.6-0.3,0.6-1c-0.5,0-0.4-1-1-0.7c0-0.2-0.1-0.4,0-0.6c0.2,0.3,0.3-0.2,0.5,0.2
	c0-0.1,0.1-0.2,0.1-0.2c0.1,0.2,0.2,0.3,0.2,0.5c0.3-0.2,0.6-0.6,0.8-0.7c0-0.4-0.3,0-0.3-0.4c0.1,0.2,0.3,0,0.4-0.2
	c-0.2,0.3-0.4-0.1-0.4-0.4c0.1-0.3,0.5-0.5,0.5-0.5l0.1,0.4c-0.1-0.2,0-0.2,0.1-0.2c-0.2,1-0.4,1.9-0.5,2.8
	c-0.1,1.1-0.2,2.4-0.3,3.8c0,0.5,0,0.9,0,1.3c0.1,0.4,0.1,0.9,0.1,1.4c0,0.8,0.1,1.4,0.3,1.8c0.2,0.4,0.4,0.7,0.7,0.9
	c0.3,0.2,0.6,0.2,1,0.2c0.4,0,0.8-0.1,1.3-0.3c0.3-0.4,0.4-0.8,0.5-1C52,92.2,52,92,52,91.7c0-0.1,0-0.1,0-0.2
	c-0.1-0.5-0.2-1.2-0.4-2.1s-0.3-1.9-0.4-3c-0.1-1.1-0.1-2.2-0.1-3.4c0-1.2,0.2-2.3,0.3-3.3c0.1-0.3,0.1-0.6,0.2-0.9
	c0.1-0.3,0.1-0.6,0.2-0.8c-0.1-0.1-0.2-0.2-0.3-0.3c-0.1-0.1-0.3-0.1-0.6,0c-0.2,0.2-0.5,0.4-0.7,0.6c-0.2,0.2-0.4,0.4-0.6,0.6
	c-0.3,0.4-0.5,0.8-0.7,1.2c-0.1-0.1,0-0.4,0-0.5l0.2,0c0-0.2-0.2-0.6,0.2-0.7c-0.4,0-0.1,0.2-0.4,0.5c-0.3,0.1-0.1-0.4-0.1-0.5
	c0.4,0.2,0.2-0.5,0.4-0.7c0.2-0.1,0.3-0.2,0.4-0.2l-0.2-0.2c0.5,0.1,0.1-0.5,0.4-0.7c0.1,0.2,0.3,0.3,0.4,0.1
	c-0.5,0.1-0.3-0.6-0.5-0.6C50,76.3,50,77,50.3,77c-0.2-0.4,0.4-0.4,0.1-0.7c-0.2,0.3-0.2-0.2-0.3-0.3c0.3-0.4,0.1,0.1,0.4-0.1
	c0-0.2-0.1-0.5-0.3-0.3c0.2-0.2,0-0.6,0.4-0.8c0.3,0-0.2,0.5,0.1,0.5c0.3-0.5-0.4-0.6-0.1-1.1c-0.2,0.2-0.5-0.3-0.5-0.6
	c0.4-0.5,0,0.3,0.4,0.3l0.1-0.3c0.5-0.1,0.2,1,0.7,0.9l0-0.3c0.1,0.1,0.2,0.3,0.4,0.3c-0.2-0.2,0.3-0.6,0.2-0.7
	c-0.2-0.2-0.1,0.2-0.2,0.1c0.1-0.3-0.2-0.6,0.2-1c0,0.3,0.3,0.1,0.4,0.3c0.1-0.1,0.1-0.1,0-0.2c0,0,0,0,0,0c0.1,0,0.2-0.1,0.4-0.2
	s0.4-0.3,0.6-0.5c0.3-0.3,0.6-0.6,0.8-0.9c0.2-0.3,0.4-0.7,0.6-1.2c0.1-0.2,0.1-0.4,0.1-0.5s-0.1-0.2-0.2-0.1
	c-0.1,0-0.2,0.1-0.3,0.2c-0.1,0.1-0.2,0.2-0.3,0.3c0.1-0.2,0.1-0.4,0.1-0.6c0.3,0,0.6-0.3,1.1-0.6c-0.2,0.1-0.2-0.2-0.1-0.3l0.4,0
	c0.4-0.2,0.5-0.7,0.5-1c0.1,0,0.1,0,0.2,0.1c0.3-0.1,0.1-0.4,0.1-0.5l0.3,0l-0.1-0.2c0.1-0.3,0.4-0.6,0.6-0.4c0-0.1,0.1-0.3-0.1-0.2
	c0.4-0.1,1-0.7,1.3-1.2c-0.3,0.1-0.3,0-0.5-0.1c-0.2-0.3,0.1,0,0.2-0.3c0.1,0.1,0.4,0,0.2,0.3c0.9-0.2,1.3-1.2,2.2-1.8
	c0.1-0.2,0-0.2,0.1-0.3c0.7-0.1,1-0.8,1.7-1.1c-0.2,0-0.3-0.5,0-0.7c0.1-0.5,0.4,0.2,0.7,0.1c0.1-0.2,0.3-0.5,0.4-0.5l0,0
	c0.1-0.3,0.3-0.5,0.6-0.5l0,0c0.2-0.1,0.5-0.1,0.7-0.2c-0.1-0.3,0.5-0.4,0.5-0.7c0,0,0,0,0.1,0.1L65.1,59l0.4-0.1
	c0,0.1,0,0.2-0.1,0.3c0.5-0.1,0-0.3,0.2-0.5c0.2-0.3,0.3-0.1,0.5-0.1c-0.1,0.2-0.2,0.1-0.3,0.2c-0.1,0.3,0.2,0,0.3,0.1
	c0.1,0-0.1-0.3,0.2-0.4c0.2-0.1,0.6-0.4,0.6-0.2c0.1-0.2,0.3-0.3,0.3-0.5c-0.2,0-0.5,0.2-0.6,0c0.1-0.1,0.3-0.3,0.4-0.3l-0.1,0.1
	c0.1-0.1,0.5-0.3,0.2-0.3l0.4,0.1c0-0.2,0.3-0.4,0.5-0.5c0.1,0.2,0.1,0.6,0.5,0.4l0.3-0.4c0.2-0.1,0.3-0.1,0.3,0
	c0.7-0.2,0.4-1,1-1.1c-0.1,0.4,0.1,0.3,0.4,0.3c0,0,0-0.1,0.1-0.2c-0.1-0.1-0.1,0.3-0.3,0.2c-0.1-0.1,0.2-0.2,0.3-0.3
	c0.7,0.3,1.7-0.6,2.6-0.7c-0.2-0.3,0.3-0.2,0.4-0.4c0.1,0.4,0.4-0.3,0.7-0.1l-0.3-0.3c0.6,0,0.6-0.9,1.1-0.6c0.3,0,0,0.3-0.1,0.4
	c0.3,0.1,0.5-0.1,0.7-0.3c0.2-0.2,0.4-0.3,0.7-0.2c0-0.1-0.2-0.3,0.1-0.6c0.3,0.1,0.9,0.1,0.9,0.1c0.2-0.1,0.2-0.3,0.5-0.2
	c0,0.1-0.1,0.1-0.2,0.2c0.4,0,0.7-0.3,1-0.5c0.3,0.2,0.9-0.2,1.4-0.2c0.2-0.4,0.8-0.1,0.7-0.5c0,0,0.1,0.1,0.1,0.1
	c0.1-0.2,0.2-0.5,0.4-0.6l0,0.3c0,0.4,0.6-0.1,0.8,0.1c-0.3-0.2,0.2-0.1,0.2-0.3l0.2-0.2c0.4-0.2,0-0.2,0.5-0.3
	c0.3-0.1,0.2,0.3,0.1,0.3c0.3,0.1,0.5-0.1,0.7-0.2c-0.1,0-0.1,0-0.1-0.1c0,0,0.1,0,0.1,0.1c0.1,0,0.2-0.1,0.3-0.1c0,0,0,0,0,0
	c-0.1,0-0.2,0.1-0.3,0.1c0.1,0,0.2,0,0.3,0c0,0,0,0,0.1,0c0.1,0,0.2,0,0.2,0l0,0.2c0.2,0,0.6-0.4,0.6-0.5c0.7,0,1.9-0.3,2.3-0.5
	c-0.1,0.1-0.1,0.1,0,0c0.2-0.1,0.5-0.3,0.5-0.2c0.2-0.1,0.2,0.1,0.6,0.1c0,0,0-0.2-0.1-0.2c0.7,0.3,1.4-0.4,2.2-0.3
	c-0.1,0-0.1,0.2-0.2,0.2c0.6-0.1,1.1-0.3,1.6-0.6c0,0.1,0,0.2-0.2,0.3c0.4,0,0.9-0.1,1-0.3c-0.3-0.1,0,0.1-0.2,0.1
	c-0.3-0.2,0.2-0.4,0.5-0.4l0,0c0.4,0,0.4-0.1,0.8-0.2c0.2,0.1-0.2,0.1-0.1,0.2c0.1,0.4,0.9,0.2,1,0.2c0.1-0.1,0.2-0.1,0.2-0.2
	c0.3-0.1,0.1,0.2,0.4,0.2l0.9-0.6c0,0.1,0.3,0.3,0,0.4c0.7,0,1.1-0.4,1.5-0.6c0.2,0.1,0.8,0,1.1,0c0.1,0.2-0.2,0-0.3,0.1l0.3,0.2
	c-0.4,0,0,0.3-0.2,0.5c0.4-0.1,1.2,0.2,1.7,0.3c-0.3-0.5,0.7-0.1,0.8-0.4c0.6,0,0.2,0.4,0.5,0.5c0.7,0,1.2,0.2,1.8,0.3
	c0,0,0,0.1,0,0.1c0.5,0.1,1.3,0.4,1.9,0.3c0,0.1,0,0.1-0.2,0.2c0.5,0.3,0.2-0.4,0.8,0l-0.2,0.1c0.5,0,0.7,0.4,1.3,0.3
	c0,0.1-0.1,0.1-0.2,0.1c0.4,0,0.9,0.3,1.3,0.2c0,0.1-0.1,0.2-0.3,0.2c0.3,0.3,0.5-0.1,0.9,0.2c0.1,0.1,0.2,0.3,0.2,0.3
	c0.2-0.1,0.8,0.2,1,0.2c0,0.1,0.1,0.2,0.3,0.4c0.5,0.2,0.9,0.5,1.4,0.8l1.4,0.8c1,0.5,1.8,1.2,2.8,1.7c0,0.5-0.5-0.1-0.5,0.2
	c0.2-0.3,0.3,0.1,0.9,0.5l0,0.1c0.3,0.1,0.2,0.4,0.5,0.5l0-0.1c0.4,0,0.2,0.8,0.6,0.6l0,0.3c0.5-0.1,0.3,0.4,0.7,0.5l-0.1,0
	c0.2,0.5,1,0.5,1,0.8c0.3,0.3,0.8,0.6,1,0.5c0,0.1-0.2,0.2-0.3,0.2c0.6,0.6,1.1,1.2,1.7,1.9c0.3,0.3,0.6,0.6,0.9,0.9
	c0.3,0.3,0.5,0.6,0.8,0.8c0,0.1-0.1,0-0.2,0c0.8,0.6,0.7,1.8,1.7,2l0.4,0.1c0,0.2-0.2,0.3-0.2,0.5c0.2,0.1,0.4,0.7,0.7,0.7
	c0,0.1-0.1,0-0.2,0.1c0.2,0.4,0.7,0.6,0.8,1l-0.2-0.1c0.1,0.5,0.3,1.1,0.5,1.6c0.1,0.6,0.3,1.1,0.5,1.7c0.4,1.1,0.9,2.1,1.4,2.8
	c0.2,0.4-0.3,0.3-0.2,0.5c0.5,0.8,0.7,1.7,1,2.6c0.2,0.9,0.4,1.8,1,2.5c0.5,1.2,1.4,1.4,1.4,1.4c-0.5-1.5-0.8-2.9-1.1-4.4
	c-0.4-1.4-0.6-2.9-1-4.5c-0.5-1-1.1-2.2-1.4-3.1c-0.4-0.9-0.9-1.8-1.4-2.8l-0.7-1.4l-0.8-1.4c-0.5-0.9-1-1.8-1.7-2.7
	c-0.7-0.8-1.3-1.7-2.1-2.4c0.1,0.2-0.2,0.2-0.4,0l0-0.1c-0.1,0-0.3-0.1-0.4-0.1c-0.2-0.2,0.1-0.3,0.3-0.1c-0.6-0.6-1.2-1.1-1.8-1.7
	c-0.6-0.6-1.1-1.1-1.8-1.6c-0.3,0.2-0.7-0.5-0.9-0.3c0-0.1,0-0.1,0.1-0.1c-1-0.6-1-0.6-1.7-1.6c-3.6-2.8-7.8-4.3-12-5.4
	c-1.1-0.2-2.2-0.4-3.3-0.5c-0.1,0-0.3,0-0.4,0c0.2,0,0.3,0,0.5-0.1c0.3-0.1,0.6-0.3,0.9-0.5c0.3-0.2,0.5-0.5,0.7-0.8
	c0.2-0.3,0.3-0.7,0.3-1c0.1-0.7,0.1-1.4-0.1-2c-0.2-0.6-0.4-1.2-0.6-1.8l-0.1-0.2c0-0.1-0.1-0.2-0.2-0.5s-0.1-0.4-0.2-0.6
	s-0.1-0.5-0.2-0.7c0-0.2-0.1-0.4-0.1-0.5l0.1-0.5c0-0.3,0.1-0.6,0.2-0.9c0.1-0.3,0.3-0.5,0.5-0.7c0.1-0.1,0.2-0.1,0.3-0.2
	c0.1-0.1,0.1-0.1,0.2-0.3c0-0.1-0.1-0.3-0.2-0.4c-0.1-0.2-0.2-0.3-0.4-0.3c0,0-0.1,0-0.1,0c0,0-0.1,0-0.1,0c-0.4-0.1-0.7,0-1,0.2
	c-0.3,0.2-0.5,0.4-0.7,0.7c-0.2,0.3-0.3,0.7-0.5,1c-0.1,0.4-0.2,0.7-0.2,1.1c-0.1,0.4,0,0.9,0.1,1.3c0.1,0.5,0.3,0.9,0.5,1.5
	c0.2,0.5,0.4,1.1,0.5,1.6c0.2,0.6,0.3,1.2,0.4,1.9c0,0,0,0.1,0,0.2c0,0.3-0.2,0.6-0.4,0.8c-0.2,0.2-0.5,0.3-0.7,0.2
	c-0.2,0-0.3-0.1-0.5-0.3c-0.2,0-0.3,0.1-0.4,0.1c-0.1,0-0.1,0.1-0.2,0.2c0,0.3,0.1,0.6,0.3,0.9c0.2,0.3,0.4,0.4,0.7,0.5
	c-0.7,0-1.5,0-2.2-0.1c-0.6,0-1.1,0-1.7,0c-0.5,0-1.1,0.1-1.6,0.1c-1.1,0.1-2.2,0.1-3.3,0.3c-0.6,0.6-1.6,0.5-2.3,1l0-0.2
	c-0.6,0.3-0.9,0.1-1.7,0c0,0.2-0.3,0.1-0.1,0.4c-0.2,0.3-0.6-0.3-1-0.1c0-0.1,0,0.2-0.1,0.1c-1,0.6,0.2-0.2-1.3-0.1
	c-1,0.3-1.9,0.6-2.8,0.9c-0.9,0.3-1.8,0.7-2.8,0.9c0.1-0.1,0.2,0.2,0.1,0.2c-0.3-0.4-0.6,0.3-0.9,0.3c0-0.1,0.1-0.2,0.2-0.2
	c-0.9,0.1-1.5,0.6-2.3,0.7c-0.6,0.5-1.6,0.5-2,0.9c0-0.2-0.4,0-0.6,0c-0.3,0.7-1.5,0.4-2,1l0-0.1c-0.9,0.5-1.9,1-2.9,1.5
	c-0.5,0.3-1,0.5-1.5,0.8c-0.5,0.3-0.9,0.7-1.3,1c-0.5,0.4-1.1,0.6-1.7,0.9c-0.6,0.3-1.3,0.6-1.7,1.2c-0.2,0.2,0.1,0.2-0.1,0.4
	c-0.3,0.2-0.1-0.1-0.2-0.1c-0.4,0.6-1.3,0.9-1.9,1.5c0,0.1-0.2,0.3,0,0.3c-1,0.3-1.6,1.6-2.5,2c0.6,0.1-0.2,0.6-0.4,0.9
	c-0.2,0.1-0.3,0-0.3-0.1c-0.5,0.5-0.8,0.8-1.4,1.4c-0.2,0.3-0.1,0.6-0.5,0.9c-0.4,0-0.7,0.7-1.1,1c0.3,0.1,0.1,0.7-0.3,1l-0.2-0.4
	c-0.4,0.7-0.9,1.4-1.5,2.2c-0.6,0.8-1.1,1.5-1.3,2.5l-0.3,0c-0.3,0.9-0.8,1.6-1.2,2.4c-0.4,0.8-0.7,1.6-0.8,2.5
	c-0.3,0.4-0.7,1-0.9,1.4c-0.1,0.6-0.1,0.9,0.1,1.4C46.4,80,46.1,80,46,80.1c-0.3,0.7-0.9,1.4-0.7,2.1l-0.2,0c0,0.6,0.1,1.6-0.3,2.2
	c0.1,0.2,0.1,0.9,0.4,0.7c0,0.3-0.4,0.1-0.2,0.4l-0.2-0.3c-0.5,1.5-0.4,2.9-0.4,4.4c-0.4,0.4-0.2,1.4-0.3,2.3
	c0.2,0.5-0.1,1.4,0.3,1.8l-0.2,0c0,0.7-0.1,1.6-0.1,2.5c0,0.5,0.3,0.5,0.4,0.9l-0.2,0c0.2,0.4,0.5,0.5,0.7,0.7
	c-0.1,0.3,0,0.4-0.1,0.7c-0.1-0.3-0.4-0.6-0.7-0.8c0,0.6,0.5,1,0.2,1.4c0,0.5,0.1,0.8,0.4,0.8c-0.1-0.1-0.1,0.3-0.3,0.1
	c0.1,0.3,0.1,0.5,0.3,0.7c0-0.1,0-0.1,0-0.2c0.2,0.1,0.3,0.5,0.6,0.3c-0.1-0.2-0.2-0.2-0.2-0.4c0.2,0.1,0.4,0.6,0.2,0.8
	c-0.2,0.2-0.4-0.3-0.5,0l0.7,0.9c-0.2-0.2-0.1-0.5,0.1-0.5l-0.2-0.3l0.2,0c-0.2-0.6,0-1-0.3-1.6l-0.2,0.3c-0.1-0.4-0.4-0.7-0.2-1.1
	c0.1,0.2,0.2,0,0.3,0c0-0.1-0.1-0.2-0.1-0.3l0.4,0.1c-0.5-0.1-0.3-1-0.3-1.1l0.1,0c0.1-0.6-0.2,0.1-0.2-0.3c0-0.3,0.4-0.1,0.5-0.4
	c0-0.5-0.4-1.5-0.1-2.1c-0.1-0.5-0.2-1-0.3-1.5c0-0.4,0.4,0,0.2-0.4c0.1,0.1,0.3,0,0.4,0c-0.2-0.1,0-0.8-0.3-0.5
	c0.1-0.6,0.1-1.4,0.2-2c0,0.2,0.2,0.3,0.4,0.1c-0.2-0.3-0.3-0.9-0.1-1.4c-0.3,0-0.3,0.2-0.5,0.1c0-0.1-0.1-0.2-0.1-0.4
	c0.3,0,0.7,0,0.7-0.5c0.4,0.2-0.2,0.8,0.3,0.7c0.3,0.3,0.2,1.2,0,1.3c0.3,0.5,0.1-0.3,0.4-0.2c0-0.4-0.1-0.6-0.1-1.2
	C46.4,88.6,46.3,88.8,46.2,88.5z M49,80.2c0,0,0,0.1-0.1,0.2l-0.1-0.2C48.9,80.1,49,80.1,49,80.2z M48.4,80.5l0.1,0.4
	c0.1-0.3,0.2-0.2,0.4-0.2c0,0,0,0,0,0c-0.1,0.2-0.1,0.5-0.2,0.7c-0.1-0.1-0.3-0.4-0.5-0.5C48.2,80.6,48.5,80.6,48.4,80.5z
	 M130.9,99.5c-0.2-0.1,0,0.4-0.1,0.4C130.9,99.9,130.9,99.7,130.9,99.5z M84.2,51.2C84.2,51.2,84.2,51.2,84.2,51.2
	C84.2,51.2,84.2,51.1,84.2,51.2C84.2,51.2,84.2,51.2,84.2,51.2z M130.4,101.8c0-0.1,0-0.1,0.1-0.2l-0.2,0
	C130.2,101.8,130.3,101.9,130.4,101.8z M87.5,132.9C87.5,132.9,87.5,132.9,87.5,132.9C87.5,132.9,87.5,132.9,87.5,132.9z
	 M103.3,132.1C103.3,132.1,103.3,132.1,103.3,132.1c-0.1,0-0.1,0.1-0.2,0.1C103.2,132.2,103.2,132.2,103.3,132.1z M47.8,84
	c0.2,0.1,0-0.4,0.1-0.4C47.7,83.6,47.8,83.9,47.8,84z"/>
</svg>
