<?xml version="1.0" encoding="utf-8"?>
<!-- Generator: Adobe Illustrator 27.0.1, SVG Export Plug-In . SVG Version: 6.00 Build 0)  -->
<svg version="1.1" id="Capa_1" xmlns="http://www.w3.org/2000/svg" xmlns:xlink="http://www.w3.org/1999/xlink" x="0px" y="0px"
	 viewBox="0 0 80 100" style="enable-background:new 0 0 80 100;" xml:space="preserve">
<style type="text/css">
	.st0{fill:#C0C0C0;}
</style>
<path class="st0" d="M36,73.9C36,73.9,36,73.9,36,73.9C36,73.9,36,73.9,36,73.9C36,73.9,36,73.9,36,73.9z M33,74.3
	C33,74.3,33,74.3,33,74.3C33.1,74.3,33,74.3,33,74.3z M33,74.3C33,74.3,33,74.3,33,74.3C33,74.2,33,74.2,33,74.3
	C32.9,74.2,33,74.3,33,74.3z M12.4,79.5C12.4,79.5,12.4,79.5,12.4,79.5C12.4,79.5,12.4,79.6,12.4,79.5
	C12.5,79.5,12.5,79.5,12.4,79.5z M32.8,73.8C32.8,73.8,32.8,73.8,32.8,73.8C32.7,73.7,32.7,73.7,32.8,73.8z M42.3,91.2
	C42.3,91.1,42.3,91.1,42.3,91.2C42.3,91.1,42.3,91.1,42.3,91.2z M41.5,91.8C41.5,91.8,41.5,91.8,41.5,91.8
	C41.5,91.8,41.5,91.8,41.5,91.8C41.5,91.8,41.5,91.8,41.5,91.8z M11.1,72.1C11.1,72.1,11.1,72.1,11.1,72.1
	C11.1,72.1,11.1,72.1,11.1,72.1L11.1,72.1z M37.7,72.3C37.7,72.3,37.7,72.3,37.7,72.3C37.6,72.3,37.6,72.3,37.7,72.3L37.7,72.3z
	 M45.8,57C45.8,57,45.8,57,45.8,57C45.8,57,45.8,57,45.8,57C45.8,57,45.8,57,45.8,57z M24,53.7c0,0-0.3,0-0.1,0.1
	C23.8,53.7,24,53.8,24,53.7z M33.3,73.1C33.3,73.1,33.3,73.1,33.3,73.1C33.3,73.1,33.3,73.1,33.3,73.1
	C33.3,73.1,33.3,73.1,33.3,73.1z M44.9,90.3C44.9,90.2,44.9,90.2,44.9,90.3C44.9,90.2,44.9,90.2,44.9,90.3
	C44.8,90.2,44.9,90.3,44.9,90.3z M48.2,57.5C48.2,57.5,48.2,57.5,48.2,57.5C48.2,57.5,48.2,57.5,48.2,57.5z M47.6,70.3
	C47.5,70.4,47.5,70.4,47.6,70.3C47.5,70.4,47.5,70.4,47.6,70.3z M35.2,60.8C35.2,60.8,35.2,60.8,35.2,60.8c0,0,0-0.1,0-0.1
	C35.2,60.7,35.2,60.8,35.2,60.8z M41.2,69.6C41.2,69.6,41.2,69.6,41.2,69.6C41.2,69.6,41.2,69.6,41.2,69.6z M28.3,64.1
	C28.3,64.1,28.3,64.1,28.3,64.1C28.3,64.2,28.3,64.2,28.3,64.1L28.3,64.1z M41.5,91.8C41.5,91.9,41.5,91.9,41.5,91.8
	C41.5,92,41.5,91.9,41.5,91.8z M9.6,60.2c0,0,0,0.1,0.1,0.1C9.7,60.3,9.7,60.3,9.6,60.2z M9.9,60.4C9.9,60.4,9.9,60.4,9.9,60.4
	c0,0-0.1,0-0.2-0.1c0,0-0.3,0-0.1,0.2c-0.1,0-0.2-0.1-0.3,0C9.5,60.6,9.8,60.5,9.9,60.4z M9.7,61.1l-0.2-0.4
	C9.5,60.8,9.6,61.1,9.7,61.1z M11,53.6l-0.3-0.4C10.7,53.3,10.8,53.6,11,53.6z M10,60.3c-0.1,0-0.1,0-0.1-0.1c-0.1,0,0,0.1,0,0.1
	C9.9,60.3,10,60.3,10,60.3z M8.9,61.8c-0.1,0-0.1-0.1-0.2-0.1C8.7,61.8,8.8,61.8,8.9,61.8z M9.6,80L9.6,80l0.1,0L9.6,80z M8.4,63.8
	c0.2,0,0.1-0.1,0.1-0.2C8.3,63.5,8.5,63.8,8.4,63.8z M10.7,52.6c0,0.1,0.1,0.1,0.1,0.1C10.8,52.7,10.8,52.6,10.7,52.6z M23.3,45.4
	c-0.1-0.1-0.3,0-0.5,0C23,45.5,23.1,45.4,23.3,45.4z M11,52.7C11,52.7,11,52.7,11,52.7c0,0-0.1,0-0.2,0c0,0.1-0.3,0.1-0.1,0.2
	c-0.1,0-0.2-0.1-0.3,0C10.6,53,10.9,52.9,11,52.7z M13.1,48.7c0.1,0,0-0.1-0.1-0.2C12.9,48.7,13.1,48.5,13.1,48.7z M34.3,47L34.3,47
	L34,47.2L34.3,47z M23.9,54.3C23.9,54.3,23.9,54.3,23.9,54.3C23.9,54.4,23.9,54.3,23.9,54.3z M13,86.3c0,0,0.2-0.1,0.1-0.2
	C13.1,86.2,12.9,86.2,13,86.3z M11,52.6C11,52.6,11.1,52.6,11,52.6c0-0.1-0.1-0.1-0.1-0.1C10.8,52.5,11,52.6,11,52.6z M13.1,48.9
	c-0.1,0-0.3,0-0.5,0C12.9,49,13,48.9,13.1,48.9z M23.4,45c0.1-0.1,0-0.1-0.1-0.2C23.1,45.1,23.3,44.7,23.4,45z M37.4,8.8
	C37.4,8.8,37.4,8.8,37.4,8.8c0-0.1,0-0.1,0-0.2C37.3,8.7,37.3,8.7,37.4,8.8z M11.4,83.5C11.4,83.5,11.4,83.5,11.4,83.5
	C11.4,83.5,11.4,83.5,11.4,83.5C11.4,83.5,11.4,83.5,11.4,83.5z M57.8,24.7C57.8,24.7,57.8,24.8,57.8,24.7
	C57.8,24.7,57.9,24.7,57.8,24.7L57.8,24.7z M34.9,48.5C34.9,48.5,34.9,48.5,34.9,48.5C34.9,48.5,34.9,48.5,34.9,48.5z M70.5,21.7
	C70.5,21.7,70.5,21.7,70.5,21.7c0.1,0,0.1,0.1,0.1,0.1C70.6,21.7,70.5,21.7,70.5,21.7z M23.3,53.4C23.3,53.4,23.3,53.4,23.3,53.4
	C23.4,53.4,23.4,53.4,23.3,53.4C23.4,53.4,23.3,53.4,23.3,53.4z M24,57.1C24,57.1,24,57.1,24,57.1C24,57.1,24,57.1,24,57.1
	C24,57.1,24,57.1,24,57.1z M23.3,53.4C23.3,53.4,23.3,53.4,23.3,53.4C23.2,53.4,23.3,53.4,23.3,53.4z M56.2,83.5
	C56.2,83.5,56.2,83.5,56.2,83.5C56.1,83.5,56.1,83.5,56.2,83.5L56.2,83.5z M49.4,90.7C49.4,90.7,49.4,90.7,49.4,90.7
	C49.4,90.7,49.3,90.7,49.4,90.7C49.4,90.8,49.4,90.7,49.4,90.7z M36,23.2C36,23.2,36,23.2,36,23.2c0,0,0-0.1,0-0.1L36,23.2z
	 M12.8,85.7C12.8,85.7,12.8,85.7,12.8,85.7C12.7,85.7,12.8,85.7,12.8,85.7z M16,88.4L16,88.4l0.2-0.2L16,88.4z M22.9,46.3
	C22.9,46.3,22.9,46.3,22.9,46.3C22.9,46.3,22.9,46.3,22.9,46.3C22.9,46.3,22.9,46.3,22.9,46.3z M17,63.1
	C16.9,63.1,16.9,63.2,17,63.1C16.9,63.2,17,63.2,17,63.1L17,63.1z M12.8,49.6C12.9,49.6,12.9,49.6,12.8,49.6
	C12.9,49.6,12.9,49.6,12.8,49.6z M38.2,68.3l-0.1-0.2C38.1,68.2,38.2,68.3,38.2,68.3C38.2,68.3,38.2,68.3,38.2,68.3z M37,43.5
	C36.9,43.5,36.9,43.5,37,43.5c0,0,0.1,0,0.2,0.1c0.1-0.1,0.3-0.2,0.1-0.3c0.1-0.1,0.2,0.1,0.3,0C37.4,43.1,37.1,43.3,37,43.5z
	 M46.3,9.9c0,0,0.2-0.1,0.1-0.2C46.5,9.9,46.2,9.9,46.3,9.9z M37.8,40.9c0.1,0,0.1,0.1,0.2,0.1C38,40.8,37.9,40.8,37.8,40.9z
	 M48.3,46c-0.1,0-0.1,0.1,0,0.2C48.6,45.9,48.2,46.2,48.3,46z M38.2,37.4c-0.2,0.1-0.1,0.2-0.1,0.3C38.4,37.8,38.1,37.5,38.2,37.4z
	 M52.6,41.9c0-0.1,0-0.1,0-0.2C52.5,41.7,52.5,41.8,52.6,41.9z M48.4,45.7c0.1,0.1,0.3,0.1,0.5,0.1C48.8,45.5,48.6,45.7,48.4,45.7z
	 M52.2,41.8c0,0.1,0.1,0.1,0.1,0.1c0.1,0,0-0.1,0-0.2C52.3,41.7,52.2,41.7,52.2,41.8z M52.9,40.6l0,0.5C53,41,53,40.7,52.9,40.6z
	 M49.6,14.7l-0.3,0l0,0L49.6,14.7z M52.4,41.6C52.4,41.6,52.4,41.6,52.4,41.6c0,0,0.1,0.1,0.1,0.1c0.1-0.1,0.3,0,0.2-0.2
	c0.1,0,0.2,0.2,0.3,0.1C52.9,41.4,52.6,41.4,52.4,41.6z M38.1,36.1c0,0.1,0,0.1,0,0.1l0.2,0C38.3,36.2,38.2,36.1,38.1,36.1z
	 M39.8,10.1l0.1,0L39.9,10L39.8,10.1z M37.2,43.8c0-0.1,0-0.1-0.1-0.2C37.1,43.6,37.1,43.7,37.2,43.8z M68.3,30.6
	C68.3,30.6,68.3,30.5,68.3,30.6C68.3,30.5,68.3,30.5,68.3,30.6z M37.2,51.7c-0.1-0.2,0.2,0,0.1-0.2C37.3,51.5,37,51.6,37.2,51.7z
	 M36.9,43.8c0.1,0,0.1,0,0.1,0.1c0.1-0.1,0-0.1,0-0.2C36.9,43.7,36.8,43.8,36.9,43.8z M37.5,40.8c0.2,0.1,0.1-0.2,0.2-0.2
	C37.6,40.6,37.5,40.7,37.5,40.8z M37.1,42.3l0.2,0.6C37.3,42.7,37.2,42.3,37.1,42.3z M68,23.2c0,0,0.1,0,0.1,0c0,0,0-0.1,0-0.1
	L68,23.2z M10.2,54.5c0,0.1,0.1,0.1,0.2,0C10.4,54.5,10.3,54.5,10.2,54.5z M10.8,57.7c0,0,0.1,0.1,0.2,0c0,0,0,0,0-0.1L10.8,57.7z
	 M10.6,56.7c-0.2,0,0.1,0.1,0,0.2C10.7,56.9,10.6,56.8,10.6,56.7z M10.8,54.6c-0.2,0,0,0.2-0.2,0.2C10.7,54.7,10.8,54.7,10.8,54.6z
	 M20,57.1c0,0.1,0.1,0.1,0.2,0c0,0,0-0.1,0-0.1L20,57.1z M20.1,52.8c-0.2,0,0,0.2-0.2,0.2C20,53,20.1,52.9,20.1,52.8z M19.6,52.6
	c0,0.2,0.1,0.2,0.2,0.1C19.7,52.7,19.7,52.6,19.6,52.6z M9.3,61.9C9,61.8,9.2,62,9.1,62C9.2,62,9.2,62,9.3,61.9z M19.8,55.7
	c-0.2,0,0.1,0.2,0,0.3C19.9,55.9,19.8,55.8,19.8,55.7z M42.2,54.6C42.2,54.6,42.2,54.6,42.2,54.6C42.3,54.6,42.3,54.6,42.2,54.6
	C42.3,54.5,42.3,54.6,42.2,54.6z M8.4,64.5c0,0,0.1,0.1,0.2,0.1c0,0,0,0,0-0.1L8.4,64.5z M55.3,37.3c0.2,0.1,0-0.2,0.1-0.2
	C55.2,37.1,55.3,37.3,55.3,37.3z M54.1,39.9c0.1-0.1,0-0.2-0.1-0.1C54,39.8,54,39.9,54.1,39.9z M67.1,36.5l-0.3-0.1l0,0L67.1,36.5z
	 M55.6,36C55.7,36.1,55.6,36.1,55.6,36l0.1,0.1C55.8,36.1,55.7,36,55.6,36z M60.4,67.1C60.4,67.2,60.4,67.2,60.4,67.1
	C60.4,67.2,60.4,67.2,60.4,67.1z M53.9,39.4c-0.1,0-0.2,0-0.2,0.1C53.9,39.7,53.8,39.4,53.9,39.4z M67.8,31.3c0,0,0.2,0.1,0.2-0.1
	C68,31.4,67.9,31.1,67.8,31.3z M71.5,23.7c0,0.1-0.2,0.2-0.2,0.1c0.4-0.3-0.3-0.4-0.2-0.6c0.1,0,0.2,0.1,0.2,0.1
	c-0.1-0.7-0.6-1-0.9-1.5c-0.5-0.3-0.8-1-1.3-1c0.2-0.1-0.1-0.3-0.2-0.4c-0.6,0.3-0.9-0.6-1.5-0.4l0-0.1c-0.7-0.2-1.5-0.3-2.3-0.2
	c-0.8,0.1-1.5,0.3-2.2,0.7c-0.7,0.3-1.8,0.4-2.4,1.1c-0.1,0.2,0.1,0.2,0,0.3c-0.2,0.1-0.1-0.1-0.2-0.1c-0.2,0.4-0.8,0.6-1.2,1
	c0,0.1-0.1,0.2,0.1,0.3c-0.7,0.2-0.8,1.1-1.3,1.4c0.5,0.1,0,0.4,0,0.6c-0.1,0.1-0.2,0-0.2-0.1c-0.2,0.4-0.3,0.6-0.7,0.9
	c-0.1,0.2,0.1,0.4-0.1,0.6c-0.4,0-0.3,0.5-0.5,0.7c0.3,0.1,0.3,0.5,0.1,0.6l-0.3-0.3c-0.1,0.9-1.1,1.7-1,2.7l-0.2,0
	c-0.2,1-0.9,1.7-0.8,2.7c-0.2,0.2-0.5,0.5-0.6,0.7c0,0.4,0,0.5,0.2,0.8c0,0.1-0.2,0.1-0.3,0.1c-0.2,0.4-0.7,0.6-0.5,1l-0.2-0.1
	c0,0.4,0,0.9-0.3,1.2c0.1,0.2,0,0.5,0.3,0.5c0,0.2-0.4-0.1-0.2,0.2L52.4,37c-0.4,0.7-0.6,1.4-0.8,2.3c-0.4,0.1-0.3,0.7-0.7,1.1
	c0.1,0.3-0.4,0.6-0.1,1l-0.2-0.1c-0.2,0.3-0.4,0.7-0.7,1.1c0.1-1.3,0.5-2.4,0.8-3.7c0-0.7-0.1-1.5,0.1-2.1c0.1-2.5,0.9-5,0.8-7.6
	c-0.1,0.1-0.3,0-0.3-0.2l0.1,0l-0.2-0.2c0-0.2,0.3-0.1,0.3,0.1c0.1-1,0-2,0.2-3c-0.3-0.1,0-0.5-0.3-0.6c0.1,0,0.1,0,0.1,0
	c-0.1-0.7-0.1-0.8,0.3-1.4c0.4-2.7,0.4-5.5,0.1-8.4c-0.5-3-1.8-5.9-4.2-8.2c-0.7,0-1-0.6-1.8-0.6l0.1-0.1c-0.5-0.1-0.5-0.4-1-0.9
	c-0.1,0.2-0.2-0.1-0.3,0.2c-0.3,0.1-0.2-0.5-0.6-0.5c0-0.1,0,0.2-0.1,0.1c-0.9,0.1,0.2-0.1-0.8-0.7c-0.8-0.1-1.7,0-2.6,0.3
	c-0.9,0.3-1.6,0.9-2.2,1.5c0.1-0.1,0.3,0,0.2,0.2c-0.5-0.1-0.2,0.5-0.5,0.7c-0.1-0.1,0-0.2,0-0.3c-0.6,0.6-0.5,1.2-0.8,1.8
	c0.1,0.6-0.4,1.2-0.2,1.6c-0.2-0.1-0.2,0.2-0.3,0.3c0.5,0.4-0.3,0.9,0.1,1.4l-0.1,0c-0.1,1.3-0.3,2.7-0.2,4.1c0,0.8-0.6,1.6-0.4,2.5
	c0.1,0.2,0.2,0,0.2,0.2c0,0.2-0.2,0-0.2,0.1c0.2,0.4-0.1,1-0.2,1.5c0.1,0.1,0.1,0.2,0.2,0.2c-0.4,0.5,0,1.4-0.3,2
	c0.5-0.2,0.2,0.4,0.3,0.6c0,0.1-0.2,0.1-0.3,0.1c0,0.4,0,0.7-0.2,1.2c0,0.3,0.3,0.3,0.2,0.6c-0.3,0.2-0.1,0.6-0.2,0.9
	c0.3,0,0.5,0.3,0.3,0.6l-0.4-0.1c0.2,0.9-0.4,2.2,0,3.4l-0.2,0.1c0.2,1.1-0.2,2.2,0.2,3.3c-0.2,0.3-0.3,0.7-0.3,1
	c0.2,0.4,0.1,0.5,0.4,0.8c0,0.1-0.2,0.2-0.3,0.3c-0.1,0.5-0.5,0.9-0.1,1.4l-0.2,0c0.2,0.4,0.4,1,0.1,1.4c0.2,0.1,0.2,0.6,0.5,0.4
	c0,0.2-0.4,0.1-0.2,0.3l-0.3-0.2c-0.2,1-0.1,1.8,0,2.8c-0.4,0.2,0,0.9-0.3,1.4c0.2,0.3-0.2,0.9,0.3,1.1l-0.2,0
	c-0.1,0.4-0.1,1-0.3,1.5c-0.1,0.3,0.2,0.3,0.3,0.6l-0.2,0c0.1,0.3,0.4,0.4,0.6,0.5c-0.2,0.2,0,0.2-0.2,0.4c-0.1-0.2-0.3-0.4-0.6-0.6
	c-0.1,0.3,0.4,0.7,0,0.9c-0.1,0.3,0,0.5,0.2,0.6C35,48,35,48,34.9,48c-0.1-0.2-0.2-0.5-0.3-0.8c-0.3,0.4-0.4-0.2-0.7,0
	c-0.2-0.2,0.2-0.3,0.2-0.5c-0.3-0.2-0.4-0.6-0.6-0.8c0,0,0,0,0.1,0c-0.3-0.2-0.5-0.6-0.9-0.7c0.1,0,0.1-0.1,0.2-0.1
	c-0.1-0.3-0.4,0.3-0.5-0.2l0.2-0.1c-0.3-0.1-0.1-0.5-0.5-0.5c0.1-0.1,0.1-0.1,0.2-0.1c-0.2-0.1-0.4-0.3-0.7-0.3
	c0.1-0.1,0.2-0.2,0.3-0.1c-0.1-0.3-0.4,0.1-0.5-0.2c0-0.1,0-0.2,0-0.2c-0.2,0.1-0.4-0.2-0.6-0.2c0.1-0.1,0-0.2,0-0.4
	c-0.5-0.4-1-0.7-1.6-0.9c-0.6-0.2-1.2-0.3-1.8-0.1c-0.2-0.4,0.3-0.2,0.2-0.5c0,0.3-0.2,0.1-0.6,0.2l0,0c-0.1,0.1-0.3-0.1-0.4,0.1
	l0,0.1c-0.1,0.3-0.5-0.3-0.5,0.2l-0.2-0.1c0,0.4-0.3,0-0.4,0.4l0-0.1c-0.4,0-0.2,0.7-0.5,0.5c-0.1,0.2-0.3,0.5-0.1,0.7
	c-0.1,0-0.2-0.2-0.3-0.3c-0.5,0.8-1.1,1.6-1.1,2.5c-0.1,0-0.1-0.1-0.1-0.1c0,0.3-0.1,0.5-0.3,0.6c0,0,0,0,0,0.1c0,0,0,0,0-0.1
	c0,0-0.1,0.1-0.1,0.1c-0.1-0.1-0.1-0.2-0.4-0.3c0.1,0.1,0.1,0.1,0.1,0.2c-0.2-0.1-0.2-0.4,0-0.4c0.2,0,0.3,0.3,0.5,0.2l-0.4-0.6
	c0.2,0.1,0,0.3-0.2,0.2l0.1,0.2l-0.2-0.1c0,0.3-0.3,0.5-0.2,0.9l0.2-0.1c0,0.2,0.2,0.5-0.1,0.6c-0.1-0.1-0.2-0.1-0.3-0.1
	c0,0.1,0.1,0.1,0.1,0.2l-0.4-0.2c0.5,0.2,0.1,0.6,0.1,0.7l-0.1,0c-0.2,0.3,0.2,0,0.2,0.2c0,0.1-0.1,0.1-0.3,0.1c0-0.1,0-0.2-0.2-0.3
	c0.1,0,0.1,0,0.2,0c-0.1-0.1-0.2-0.3-0.5-0.4c0.1-0.1,0.2-0.1,0.3-0.1c0.1-0.2-0.4,0-0.3-0.2c0,0,0.1-0.2,0.1-0.2
	c-0.2,0-0.3-0.2-0.4-0.3c0.1-0.1,0.1-0.1,0.2-0.3c-0.4-0.8-1.1-1.6-2.1-1.6c0-0.4,0.3-0.1,0.3-0.4c-0.1,0.3-0.2,0-0.5,0l0,0
	c-0.1,0-0.1-0.2-0.3-0.1l0,0.1c-0.2,0.2-0.3-0.5-0.4-0.1L18.1,44c-0.2,0.4-0.2-0.1-0.4,0.2l0-0.1c-0.3-0.2-0.4,0.4-0.5,0.2
	c-0.2,0.1-0.4,0.2-0.3,0.5c-0.1-0.1-0.1-0.3-0.1-0.4c-0.6,0.3-1.3,0.7-1.5,1.4c-0.1,0-0.1-0.1-0.1-0.1c0,0.5-0.8,0.3-0.5,0.9
	l0.2,0.2c-0.1,0-0.3-0.1-0.4-0.1c0.1,0.2-0.1,0.3,0.1,0.4c-0.1,0-0.1-0.1-0.2-0.1c-0.1,0.1,0.1,0.5,0,0.5l-0.1-0.1
	c-0.8,0.5-1.4,1.6-0.9,2.4c0.1,0.2-0.4,0-0.3,0.1c0.4,0.7-0.4,1.6,0.4,2.2c0.2,0.5,1,0.7,1,0.7c-0.3-1.2,0.1-2.3,0.7-3.2
	c0-0.3,0-0.8,0.2-1c0.3-1.3,1.5-1.4,2.1-1.9c-0.1-0.1-0.1-0.3-0.1-0.3l0,0.1l0-0.2c0.1,0,0.1,0.2,0.1,0.3c0.3-0.1,0.5-0.2,0.7,0
	c0.1-0.3,0.1,0,0.3-0.3c0,0.1,0,0.1-0.1,0.1c0.2-0.1,0.3,0,0.2,0.4c0.4,0.6,1.1,1.8,1.4,3.4c0,0.2,0.1,0.3,0.1,0.5c0,0,0,0,0,0
	c0,0,0,0,0.1,0c0.2,0.8,0.5,1.5,0.7,2.3c0,0-0.1,0.1-0.1,0.1c-0.4-0.1,0.1-0.5-0.3-0.4C20,52.5,20,52,20.2,51.9
	c-0.3-0.3-0.1,0.2-0.4,0.1c0,0.2,0.2,0.4,0.2,0.7c0.2,0,0.2-0.1,0.3,0.1c0.4,0.3-0.3,0.4-0.3,0.5c0,0,0-0.1-0.1-0.2
	c-0.1,0.2,0.1,0.3,0.1,0.5c-0.5,0.1,0-0.4-0.3-0.5l-0.3,0.2c-0.1,0.4,0.4,0.1,0.3,0.5l-0.2,0l0.1,0.2c0.2,0,0.4-0.1,0.4-0.3
	c0.4,0.1,0.1,0.2,0.2,0.5c0.3,0.1,0-0.1,0.2-0.1c0.2,0,0.2,0.2,0.3,0.3c0,0.3-0.3,0.1-0.4,0.3c0,0-0.1-0.2,0.1-0.2
	c-0.3-0.3-0.5,0.2-0.7-0.1c-0.1,0.3,0.2,0.2,0.3,0.4c0-0.1,0.2,0,0.3,0c0.7,0.4-0.5,0.3-0.3,0.7c0.4-0.1,0.7,0.5,1.1,0.2
	c0.1,0.1,0.2,0.2,0.2,0.3c-0.3-0.1-0.2,0.2-0.5,0l0,0.1l-0.4-0.2c-0.2,0.2-0.4,0.5-0.5,0.6c0.2,0.2,0.3-0.1,0.4,0.1
	c-0.2-0.1-0.3,0.1-0.3,0.2c0.1-0.2,0.4-0.1,0.5,0.1c0,0.2-0.2,0.4-0.3,0.4l-0.3-0.2c0.2,0.1-0.1,0.1,0,0.3c0.2,0,0.4,0.1,0.7,0.1
	c0.1,0.1-0.1,0.3,0,0.3l-0.2-0.2c0.1,0.3-0.4,0.2-0.3,0.4l0.2,0c0,0.1-0.1,0.1-0.2,0.1c0.2,0,0.2,0.2,0.3,0.3l-0.1,0.1
	c0.1,0.1,0.5,0.2,0.3,0.4c0.3-0.2,0-0.2,0.1-0.4c0.2-0.2,0.3,0.1,0.4,0.2c-0.4,0.1,0.1,0.3,0.1,0.5c-0.1,0.1-0.1,0.2-0.2,0.3l0.3,0
	c-0.5,0.2,0.2,0.3,0.1,0.5c-0.2,0-0.4,0-0.4,0.2c0.2-0.2,0.4-0.1,0.6,0c0,0.1-0.1,0.1-0.1,0.2c0,0,0,0,0,0c0,0,0,0,0-0.1
	c0,0,0,0,0,0.1c-0.1,0-0.3,0-0.4,0.1c0.3,0,0,0.3,0.2,0.4C21,60.8,21,60.9,21,61c-0.2-0.1-0.2,0-0.3,0.1c0.5,0.4-0.4,0.3-0.1,0.7
	l-0.1-0.1c-0.2,0.5-0.8,0.9-1.1,1.4c-0.3,0.2-0.8-0.1-1,0.2c0,0.1,0,0.2,0,0.3c-0.1,0,0-0.2-0.1-0.2c-0.1,0.2-0.4,0-0.5,0
	c0,0.1-0.1,0.1-0.1,0.2c-0.1-0.4-0.5,0-0.6-0.3c-0.2,0.5-0.2,0.2-0.4,0.2c0,0,0-0.2,0.1-0.2c-0.2,0-0.3-0.1-0.3-0.4
	c-0.1,0-0.3,0.1-0.4,0c0.2-0.3-0.2-0.2-0.2-0.4c-0.2,0.2-0.5,0.2-0.5,0l0.4-0.2c-0.5-0.3-0.4-1.1-1.1-1.5l0.2-0.1
	c-0.5-0.5-0.4-1.2-1.1-1.7c0.1-0.2,0.1-0.5,0-0.7c-0.3-0.2-0.3-0.3-0.6-0.3c0-0.1,0.1-0.2,0.2-0.2c0-0.3,0.3-0.6-0.2-0.8l0.2,0
	c-0.3-0.2-0.5-0.5-0.4-0.8c-0.2,0-0.3-0.3-0.5-0.2c-0.1-0.1,0.3-0.1,0.1-0.2l0.3,0.1c0-0.6-0.2-1.1-0.4-1.7c0.3-0.2-0.1-0.6,0.1-0.9
	c-0.2-0.2,0.1-0.5-0.3-0.7l0.2,0c0-0.3,0-0.6,0.2-0.9c0.1-0.2-0.2-0.2-0.3-0.4l0.2,0c-0.1-0.2-0.4-0.3-0.6-0.3
	c0.2-0.1,0-0.2,0.2-0.3c0.1,0.1,0.3,0.3,0.6,0.4c0.1-0.2-0.4-0.5-0.1-0.6c0.1-0.2,0-0.3-0.2-0.4c0.1,0,0.2-0.1,0.3,0
	c0-0.1,0-0.2-0.1-0.3c0,0,0,0,0,0.1c-0.2-0.1-0.2-0.2-0.5-0.2c0.1,0.1,0.1,0.1,0.1,0.2c-0.2-0.1-0.2-0.3,0-0.3
	c0.2,0,0.3,0.2,0.5,0.1L12.4,49c0.2,0.1,0,0.2-0.2,0.1l0.1,0.2l-0.2,0c0,0.3-0.2,0.4-0.1,0.7l0.2-0.1c0,0.2,0.3,0.3,0,0.4
	c-0.1-0.1-0.2,0-0.3-0.1c0,0,0.1,0.1,0.1,0.1l-0.4-0.1c0.5,0.1,0.1,0.4,0.2,0.5l-0.1,0c-0.2,0.2,0.2,0,0.2,0.1
	c-0.1,0.1-0.4,0-0.6,0.1c0,0.2,0.2,0.7-0.1,0.9c0.1,0.2,0.2,0.4,0.4,0.6c0,0.2-0.4,0-0.2,0.2c-0.1,0-0.3,0-0.4,0
	c0.2,0,0,0.4,0.3,0.2c-0.1,0.3-0.1,0.6,0,0.9c0-0.1-0.3-0.1-0.4,0c0.2,0.1,0.4,0.4,0.3,0.6c0.3,0,0.2-0.1,0.5-0.1
	c0,0,0.2,0.1,0.1,0.1c-0.3,0.1-0.7,0.1-0.6,0.3c-0.4,0,0-0.4-0.4-0.2c-0.3-0.1-0.4-0.5-0.2-0.6c-0.4-0.2,0,0.2-0.4,0.1
	c0,0.2,0.2,0.3,0.3,0.5c0.2,0,0.2-0.1,0.3,0c0.4,0.2-0.2,0.3-0.2,0.4c0,0-0.1-0.1-0.1-0.1c-0.1,0.2,0.1,0.2,0.1,0.4
	c-0.5,0.1-0.1-0.3-0.4-0.3l-0.3,0.2c0,0.3,0.4,0,0.3,0.3l-0.2,0l0.1,0.2c0.2,0,0.4-0.1,0.4-0.2c0.5,0,0.1,0.1,0.2,0.4
	c0.3,0,0-0.1,0.2-0.1c0.2,0,0.3,0.1,0.3,0.2c0,0.2-0.3,0.1-0.4,0.2c0,0-0.1-0.2,0-0.2c-0.3-0.2-0.5,0.2-0.7,0
	c-0.1,0.2,0.2,0.2,0.3,0.2c0-0.1,0.2,0,0.3-0.1c0.7,0.2-0.5,0.3-0.3,0.6c0.4-0.1,0.7,0.3,1.1,0c0.1,0.1,0.2,0.1,0.2,0.2
	c-0.3,0-0.2,0.2-0.5,0.1l0,0.1l-0.4-0.1c-0.2,0.2-0.3,0.4-0.5,0.5c0.2,0.1,0.3-0.1,0.4,0.1c-0.2,0-0.3,0.1-0.3,0.2
	c0.1-0.2,0.4-0.1,0.5,0c0,0.2-0.2,0.3-0.3,0.3l-0.3-0.1c0.2,0.1-0.1,0.1,0,0.2c0.1,0,0.4,0,0.6,0c0,0,0,0,0,0.1l0.1,0
	c0,0.1-0.1,0.2-0.1,0.2l-0.2-0.1c0.1,0.2-0.4,0.1-0.3,0.3l0.2,0c0,0.1-0.1,0.1-0.2,0.1c0.2,0,0.2,0.1,0.2,0.2c0,0,0,0,0,0l-0.1,0
	c0,0,0.1,0,0.1,0c0,0,0,0,0,0l-0.1,0c-0.2,0.2,0.2,0,0.2,0.2c-0.1,0.1-0.4-0.1-0.6,0c0,0.2,0.2,0.6-0.2,0.8c0,0.2,0.1,0.4,0.2,0.6
	c0,0.2-0.4-0.1-0.3,0.1c-0.1,0-0.3-0.1-0.4-0.1c0.1,0.1-0.1,0.3,0.3,0.2c-0.1,0.2-0.2,0.5-0.2,0.7c0-0.1-0.2-0.2-0.4-0.1
	c0.2,0.2,0.3,0.4,0.2,0.6c0.2,0,0.3,0,0.5,0.1c0,0,0.1,0.1,0.1,0.2c-0.3,0-0.6-0.1-0.7,0.1c-0.4-0.1,0.1-0.3-0.3-0.3
	c-0.3-0.2-0.2-0.5,0-0.5c-0.3-0.2-0.1,0.1-0.4,0c0,0.2,0.2,0.3,0.2,0.5c0.2,0,0.2,0,0.3,0.1c0.3,0.3-0.3,0.2-0.3,0.3
	c0,0,0-0.1-0.1-0.1c-0.1,0.1,0.1,0.2,0,0.4c-0.5-0.1,0-0.2-0.3-0.4l-0.3,0c-0.1,0.2,0.4,0.1,0.2,0.4l-0.2-0.1l0.1,0.2
	c0.2,0,0.4,0.1,0.4-0.1c0.4,0.2,0,0.1,0.1,0.3c0.2,0.1,0-0.1,0.2,0c0.2,0,0.2,0.2,0.2,0.3c0,0.2-0.3,0-0.5,0.1c0,0,0-0.2,0.1-0.1
	c-0.2-0.3-0.5,0-0.7-0.2C8.4,63,8.7,63,8.8,63.1c0,0,0.2,0.1,0.3,0c0.6,0.4-0.5,0.1-0.5,0.4c0.4,0,0.5,0.5,1.1,0.4
	c0.1,0.1,0.2,0.2,0.1,0.2C9.5,64,9.5,64.2,9.3,64l0,0.1l-0.3-0.2c-0.2,0.1-0.5,0.2-0.6,0.2c0.1,0.2,0.3,0,0.3,0.2
	c-0.1-0.1-0.3,0-0.3,0.1c0.1-0.1,0.4,0.1,0.5,0.2c0,0.1-0.3,0.2-0.4,0.2l-0.2-0.2c0.2,0.1-0.1,0,0,0.1c0.2,0.1,0.4,0.2,0.6,0.2
	c0.1,0.1-0.2,0.1-0.1,0.2l-0.2-0.2c0,0.2-0.5,0-0.4,0.2l0.2,0.1c0,0-0.1,0-0.2,0c0.2,0.1,0.1,0.2,0.2,0.2l-0.2,0
	c0.1,0.1,0.4,0.2,0.1,0.3c0.4,0,0-0.1,0.2-0.2c0.3,0,0.2,0.2,0.3,0.2c-0.4-0.1-0.1,0.2-0.1,0.3c-0.1,0-0.2,0.1-0.3,0.1l0.3,0.1
	c-0.5,0,0.1,0.2-0.1,0.3c-0.1-0.1-0.4-0.1-0.4,0c0.4-0.1,0.4,0.2,0.7,0.2c-0.2,0.2-0.5-0.1-0.7-0.1c0.3,0.1-0.2,0.2,0.2,0.3
	c0.1-0.1,0.2,0.1,0.4,0.1c-0.1,0.2-0.2-0.1-0.3,0.1c0,0.1,0.3,0.2,0.4,0.1c-0.1,0.1,0.3,0.3,0,0.3c-0.2,0-0.1-0.2-0.3-0.2
	C8.4,67.6,9,67.5,9,67.7c0.1-0.1,0.5,0.1,0.7,0.2c-0.1,0.2-0.1-0.1-0.4-0.1l0,0.1c-0.4,0.1-0.7-0.4-1-0.3l0.1,0.1
	c-0.1,0-0.3-0.1-0.4-0.1c0.3,0.1,0,0.3,0.1,0.3C8.3,68.1,8,68,8.2,68c0.1,0.1,0.5,0.2,0.3,0.4c-0.2-0.1-0.3,0-0.5,0
	c-0.1,0.1,0.3,0.1,0.1,0.2l-0.1,0c-0.1,0.5-0.1,1.1,0.5,1.5c-0.3,0.1-0.3,0.2-0.5,0.4c0.1-0.1,0.3,0,0.3,0.1L8,70.6
	c-0.2,0.1,0.1,0.3,0.3,0.5c-0.1,0-0.1,0-0.2,0c-0.2,0.1,0.2,0.1,0.2,0.2l-0.2,0.1l0.2,0c0.1,0.1,0.1,0.3-0.3,0.3
	c0.1,0,0.1,0.1,0.2,0c-0.2,0.1-0.2,0.5-0.1,0.7c0.1-0.1,0.2-0.1,0.4-0.1c0.3,0-0.1,0.1,0.1,0.1c-0.1,0-0.3,0.1-0.3,0
	c-0.4,0.3-0.1,0.7-0.1,1.1c0.1,0.1,0.1,0,0.2,0.1c-0.3,0.3,0.1,0.5-0.1,0.8c0.1-0.1,0.5,0,0.6,0.1c0.3,0.1-0.4,0.1-0.5,0.3
	C8.5,74.8,8.6,75,8.6,75l0,0c0.2,0.1,0.3,0.2,0.1,0.3l0,0c0,0.1-0.2,0.2-0.1,0.3c0.3,0,0.1,0.2,0.4,0.3c0,0,0,0-0.1,0l0.2,0
	l-0.1,0.2c-0.1,0-0.2,0-0.3-0.1c-0.1,0.2,0.2,0,0.3,0.1c0.2,0.1,0,0.1-0.1,0.2c-0.1,0,0-0.1,0-0.1c-0.2,0-0.1,0.1-0.2,0.1
	c0,0,0.3,0,0.2,0.1c0,0.1,0.1,0.3-0.1,0.3c0.1,0,0.1,0.1,0.3,0.2c0-0.1,0.1-0.2,0.2-0.2c0,0.1,0.1,0.2,0,0.2l-0.1,0
	c0.1,0,0,0.2,0.2,0.1L9.1,77c0.2,0,0.2,0.1,0.3,0.2c-0.2,0.1-0.5,0-0.5,0.2l0.3,0.1c0,0.1,0,0.1-0.2,0.1c-0.1,0.3,0.7,0.1,0.6,0.4
	c-0.3,0-0.3,0.1-0.4,0.2c0,0,0.1,0,0.2,0c0.1-0.1-0.2,0,0-0.1c0.2-0.1,0.1,0.1,0.2,0.1c-0.6,0.4,0,0.7-0.2,1.1
	c0.3-0.1,0.1,0.1,0.3,0.1c-0.4,0.1,0.1,0.2-0.1,0.3l0.3-0.2c-0.1,0.3,0.6,0.1,0.3,0.4c-0.1,0.1-0.3,0.1-0.3,0
	c-0.3,0.3,0.5,0.3,0.1,0.6c0.1,0,0.3-0.2,0.5-0.1c-0.1,0.2-0.2,0.4-0.3,0.4c0.1,0.1,0.2,0,0.1,0.2c-0.1,0-0.1,0-0.2,0
	c0,0.2,0.2,0.2,0.4,0.3c-0.2,0.2,0,0.4,0,0.6c0.4-0.1,0,0.3,0.4,0.2c0,0-0.1,0.1-0.1,0.1c0.1,0,0.4-0.1,0.5,0L11,82.6
	c-0.3,0.1,0.1,0.3-0.1,0.4c0.2-0.2,0,0.1,0.2,0l0.1,0c0.1,0.1,0.1-0.1,0.3,0.1c0.1,0.1-0.3,0.2-0.3,0.1c-0.1,0.2,0,0.2,0.1,0.3
	c0,0,0-0.1,0.1-0.1c0,0,0,0-0.1,0.1c0,0,0.1,0,0.1,0.1c0,0,0,0,0,0c0,0-0.1-0.1-0.1-0.1c0,0,0,0.1,0,0.1c0,0,0,0,0,0
	c0,0,0,0.1,0,0.1l-0.2,0.1c0,0.1,0.4,0.1,0.4,0.1c0,0.4,0.5,0.7,0.6,0.8c-0.1-0.1-0.2,0-0.1,0c0.1,0.1,0.3,0,0.2,0.1
	c0.1,0-0.1,0.2,0,0.3c0,0,0.2-0.1,0.2-0.1c-0.1,0.4,0.5,0.3,0.5,0.7c0-0.1-0.1,0-0.2,0c0.2,0.1,0.4,0.2,0.8,0.2
	c-0.1,0-0.2,0.1-0.2,0.1c0.1,0.1,0.3,0.2,0.5,0.1c0-0.1-0.1,0.1-0.1,0c0.1-0.2,0.4-0.2,0.4-0.1l0,0c0.1,0.1,0.2,0,0.3,0.2
	c0,0.2-0.1,0-0.2,0.1c-0.3,0.3,0,0.4,0,0.5c0.1,0,0.2,0,0.2-0.1c0.2,0-0.1,0.2-0.1,0.2l0.8-0.2c-0.1,0-0.2,0.3-0.4,0.3
	c0.2,0.2,0.6,0,0.9-0.1c0,0.1,0.3,0.2,0.3,0.2c-0.1,0.2,0-0.1-0.2,0l-0.1,0.2c-0.1-0.1-0.2,0.3-0.4,0.3c0.2,0,0.3,0.3,0.4,0.5
	c0.2-0.4,0.3,0,0.6-0.2c0.2,0.1-0.1,0.3-0.1,0.4c0.3,0.1,0.4,0.3,0.6,0.4c0,0,0,0-0.1,0.1c0.2,0,0.4,0.3,0.8,0.2
	c-0.1,0.1-0.1,0.1-0.2,0.1c0.1,0.2,0.3-0.3,0.4,0l-0.2,0.1c0.2,0,0.1,0.3,0.4,0.2c-0.1,0.1-0.1,0.1-0.2,0.1c0.2,0,0.3,0.2,0.6,0
	c-0.1,0.1-0.1,0.2-0.2,0.2c0,0.2,0.3-0.2,0.4,0c0,0,0,0.2,0,0.2c0.2-0.1,0.3,0,0.4,0c-0.1,0.1,0,0.2,0,0.3c0.1,0.1,0.2,0.1,0.3,0.2
	C19,90.8,18.9,91,18.9,91c0.7,0.1,1.3,0.4,1.9,0.8c0,0,0,0,0,0c0,0,0,0,0,0c0.5,0.3,0.9,0.7,1.4,1.1c0.4,0.1,1,0.2,1.4,0.4
	c1.7,0.5,3.2,1.5,5,1.6c-0.1-0.1,0.1-0.3,0.2-0.3l0,0.1l0.2-0.2c0.1,0,0,0.3-0.1,0.3c0.7,0.1,1.3,0.1,2,0.3c0.1-0.3,0.4,0,0.4-0.3
	c0,0.1,0,0.1,0,0.1c0.5-0.1,0.5-0.1,0.9,0.3c1.9,0.4,3.7,0.2,5.6,0.1c1.9-0.3,3.7-0.9,5.5-1.6c0.1-0.6,0.6-0.5,0.8-1l0,0.2
	c0.2-0.3,0.4-0.1,0.8,0c-0.1-0.2,0.1-0.1,0-0.3c0-0.3,0.4,0.3,0.5,0.1c0,0.1-0.1-0.2,0-0.1c0.3-0.5,0,0.2,0.7,0.2
	c0.8-0.5,1.4-1.1,2.2-1.4c0,0-0.2-0.2-0.1-0.2c0.3,0.4,0.2-0.3,0.4-0.2c0,0.1,0,0.2,0,0.2c0.4,0,0.5-0.4,0.9-0.5
	c0.2-0.4,0.7-0.2,0.8-0.6c0.1,0.2,0.2,0,0.3,0.1c-0.1-0.6,0.7-0.2,0.7-0.7l0.1,0.1c0.7-0.6,1.5-1.2,2-2.1c0.3-0.4,1.1-0.6,1.3-1.2
	c0-0.1-0.1-0.1-0.1-0.2c0.1-0.1,0.1,0.1,0.2,0.1c0-0.4,0.4-0.5,0.7-0.8c0-0.1,0-0.2-0.1-0.2c0.6-0.1,0.4-0.9,0.9-1.1
	c-0.5-0.1-0.1-0.3-0.1-0.5c0.1-0.1,0.2,0,0.2,0.1c0.1-0.3,0.2-0.4,0.5-0.7c0-0.2-0.2-0.3,0-0.5c0.4,0,0.2-0.4,0.4-0.5
	c-0.3-0.1-0.4-0.4-0.2-0.5l0.3,0.2c0.1-0.7,0.9-1.3,0.7-2.2l0.2,0c0-0.8,0.6-1.4,0.4-2.2c0.2-0.1,0.4-0.4,0.4-0.6
	c-0.1-0.3-0.1-0.4-0.3-0.7c0-0.1,0.2-0.1,0.3-0.1c0.2-0.3,0.6-0.5,0.3-0.9l0.2,0c-0.1-0.3-0.3-0.7,0-1c-0.2-0.1-0.1-0.4-0.4-0.4
	c0-0.1,0.4,0,0.2-0.2l0.3,0.2c0.2-0.6,0.2-1.2,0.2-1.8c0.4-0.1,0.1-0.6,0.4-0.9c-0.1-0.2,0.2-0.5-0.2-0.8l0.2,0
	c0.1-0.3,0.2-0.6,0.3-1c0.1-0.2-0.2-0.3-0.3-0.4l0.2,0c-0.1-0.2-0.4-0.3-0.6-0.4c0.2-0.1,0-0.2,0.2-0.3c0.1,0.2,0.3,0.3,0.5,0.5
	c0.1-0.2-0.3-0.5,0-0.6c0.1-0.2,0.1-0.3-0.2-0.4c0.1,0.1,0.2-0.1,0.3,0c0,0.3,0,0.6,0.2,0.9c0.1,0.2-0.4,0-0.3,0.1
	c0.2,0.4,0,0.7-0.1,1.1c-0.1,0.3-0.3,0.6-0.1,1.1c-0.1,0.5,0.5,1.2,0.5,1.2c0.5-1.4,1.2-2.4,1.8-3.8c0-0.5-0.2-1.1-0.1-1.6
	c-0.1-0.9-0.2-1.8-0.4-2.7c-0.2-0.9-0.5-1.8-1.2-2.5c0,0.1-0.2,0.1-0.3,0.1l0.1-0.1l-0.3,0c-0.1-0.1,0.2-0.2,0.3-0.1
	c-0.4-0.6-0.9-1.1-1.4-1.6c-0.2,0.2-0.3-0.1-0.4-0.1c0,0,0,0,0,0c0,0,0,0,0,0c0,0,0,0,0,0c0.5-1.2,1.3-2.2,2.2-3.3
	c0.2-0.5,0.4-1.3,0.7-1.7c0.8-2,2.3-3.8,2.9-5.9c-0.1,0.1-0.2-0.1-0.2-0.2l0.1,0l-0.1-0.2c0-0.2,0.3,0,0.2,0.2
	c0.3-0.8,0.6-1.6,1-2.4c-0.3-0.2,0.2-0.4-0.1-0.6c0.1,0,0.1,0,0.1,0.1c0.1-0.6,0.1-0.7,0.7-1c1.1-2.1,1.8-4.2,2.7-6.4
	c0.8-2.2,1.3-4.4,2-6.7c-0.3-0.5,0-0.9-0.2-1.5l0.1,0.1c-0.1-0.4,0.2-0.4,0.5-0.9c-0.2-0.1,0-0.2-0.3-0.2c-0.2-0.2,0.5-0.2,0.4-0.5
	c0.1,0-0.2,0-0.1-0.1c-0.2-0.7,0.1,0.2,0.6-0.6C72.1,26.4,71.8,25,71.5,23.7z M49.9,43l-0.1,0c0-0.1,0-0.2,0-0.2
	C49.9,42.8,49.9,42.9,49.9,43z M50.1,43.6c-0.2,0.1-0.1,0.2-0.3,0.3c0,0,0-0.1,0-0.2c0-0.2,0-0.4,0-0.6C49.9,43.3,50,43.4,50.1,43.6
	z M34.4,48.6l0.1-0.3c0.1,0.1,0.2,0,0.3-0.1c0,0.1,0,0.2,0.1,0.2c0,0,0-0.1,0-0.1c0.2,0.1,0.2,0.3,0.5,0.3c-0.1-0.1-0.1-0.1-0.1-0.3
	c0.2,0.1,0.2,0.4,0,0.5c-0.2,0.1-0.3-0.3-0.5-0.1l0.2,0.3c-0.2,0-0.4-0.1-0.5-0.1c0-0.1-0.3-0.4-0.3-0.5
	C34.4,48.4,34.3,48.6,34.4,48.6z M22.9,47.2C23,47.2,23,47.2,22.9,47.2l0.1,0C23,47.2,23,47.2,22.9,47.2
	C22.9,47.2,22.9,47.2,22.9,47.2z M22.8,46.7C22.8,46.7,22.8,46.7,22.8,46.7C22.8,46.7,22.8,46.7,22.8,46.7
	C22.8,46.7,22.8,46.7,22.8,46.7z M22.8,52C22.8,52,22.9,51.9,22.8,52C22.9,51.9,22.9,51.9,22.8,52c0.1-0.2,0.2-0.4,0.3-0.6
	c0-0.5,0.1-1.2,0.3-1.6c0.5-1.9,2-3.4,2.8-4.9c-0.1,0-0.2-0.2-0.2-0.3l0.1,0l-0.1-0.2c0.1-0.1,0.2,0.1,0.2,0.2
	c0.4-0.4,0.6-0.6,1-0.6c0-0.3,0.2,0,0.2-0.4c0,0.1,0,0.1,0,0.1c0.3-0.1,0.4-0.1,0.6,0.3c0.6,0.3,1.3,0.8,2,1.4
	c0.6,0.6,1.3,1.4,1.8,2.3c1.2,1.7,2.3,3.4,2.9,5.5c0.6,0.2,0.4,0.7,0.9,1l-0.2,0c0.3,0.3,0,0.4-0.1,0.9c0.2,0,0.1,0.2,0.3,0.1
	c0.3,0.1-0.4,0.3-0.2,0.5c-0.1,0,0.2,0,0.1,0c0.4,0.5-0.2-0.1-0.4,0.6c0.2,0.9,0.5,2,0.2,2.9c0,0,0.1-0.1,0.2,0c0,0,0,0,0,0.1
	c0,0,0,0,0,0c-0.2,0.1,0,0.2,0,0.3c0,0-0.1,0.1-0.1,0.1c0,0-0.1-0.1-0.1-0.1c-0.2,0.4,0,0.8-0.3,1.1c0.1,0.4-0.4,0.7-0.2,1
	c-0.2-0.1-0.2,0.1-0.3,0.1c0.5,0.4-0.4,0.5-0.2,0.9l-0.1-0.1c-0.4,0.7-1,1.1-1.7,1.7c-0.5,0.3-1.1-0.1-1.6,0.2
	c-0.1,0.1,0,0.2-0.1,0.3c-0.1,0,0-0.2-0.1-0.2c-0.3,0.2-0.6-0.1-1-0.1c-0.1,0.1-0.2,0.1-0.1,0.2c-0.3-0.4-0.9-0.1-1.2-0.5
	c0,0.5-0.3,0.2-0.5,0.2c-0.1-0.1,0-0.2,0-0.2c-0.3-0.1-0.5-0.2-0.7-0.5c-0.2,0-0.4,0.1-0.5-0.1c0.1-0.3-0.4-0.3-0.4-0.5
	c-0.1,0.3-0.5,0.2-0.6,0l0.3-0.2c-0.7-0.3-0.9-1.3-1.8-1.8l0.2-0.2c-0.3-0.3-0.5-0.6-0.7-1c0.1-0.2,0-0.3-0.2-0.5
	c0.3-0.1,0.2-0.4,0.3-0.6c-0.3-0.1,0.2-0.3-0.3-0.4c0,0,0.1,0,0.1,0c-0.1-0.1-0.4-0.2-0.4-0.2l0.3,0c0.4,0,0.1-0.3,0.3-0.3
	c-0.2,0.1,0-0.1-0.2-0.1l-0.1-0.1c-0.1-0.2-0.1,0-0.2-0.2c0-0.1,0.3,0,0.3,0c0.2-0.1,0.1-0.2,0-0.3c0,0,0,0.1-0.1,0c0,0,0.1,0,0.1,0
	c0,0,0-0.1,0-0.1c0,0,0,0,0,0c0,0,0,0.1,0,0.1c0,0,0-0.1,0-0.1c0,0,0,0,0,0c0,0,0-0.1,0.1-0.1l0.2,0c0-0.1-0.3-0.3-0.4-0.3
	c0.2-0.4-0.1-0.9-0.2-1c0,0.1,0.2,0.1,0.1,0.1c-0.1-0.1-0.3-0.2-0.1-0.2c-0.1-0.1,0.1-0.1,0.2-0.3c0,0-0.2,0-0.2,0
	c0.3-0.3-0.3-0.6-0.1-0.9c0,0,0.2,0,0.2,0.1c-0.1-0.2-0.3-0.4-0.6-0.6c0.1,0,0.2,0,0.3,0c0-0.1-0.1-0.2-0.2-0.3
	c-0.2,0.1-0.4,0-0.4-0.2l0,0c0-0.2-0.2-0.2-0.2-0.3c0.1-0.1,0.1,0.1,0.2,0c0.4-0.1,0.2-0.4,0.2-0.4c-0.1,0-0.2-0.1-0.2-0.1
	c-0.1-0.1,0.2-0.1,0.2-0.2l-0.5-0.2C22.7,52.1,22.8,52,22.8,52z M23.3,61.2C23.3,61.2,23.3,61.2,23.3,61.2
	C23.3,61.2,23.3,61.2,23.3,61.2C23.3,61.2,23.3,61.2,23.3,61.2z M22.4,47.4c0,0.1,0.2,0.3,0.3,0.4c0,0,0,0,0,0
	c-0.1,0-0.1-0.1-0.2-0.1c0,0.1,0,0.2,0,0.3c-0.1-0.1-0.2-0.1-0.3-0.2C22.4,47.6,22.2,47.6,22.4,47.4z M22.6,63.5
	c-0.2-0.1,0-0.2,0-0.3c0,0,0,0,0,0c0,0,0,0.1,0.1,0.1C22.7,63.4,22.8,63.5,22.6,63.5z M11.9,59.9c0,0,0.1,0,0.1,0
	c0,0.1-0.1,0.1-0.2,0.1C11.9,60,11.9,59.9,11.9,59.9z M11.5,58.8c0,0,0.1,0.1,0.1,0.1c0,0-0.1,0-0.1,0
	C11.5,58.9,11.5,58.9,11.5,58.8C11.5,58.8,11.5,58.8,11.5,58.8z M25.8,92.6C25.8,92.6,25.8,92.6,25.8,92.6l0-0.1
	C25.9,92.5,25.9,92.5,25.8,92.6L25.8,92.6z M59.2,62.3c-0.1,0.1-0.2,0.2-0.3,0.2c0.5,0.4,0.7,1.1,1.3,1.5c0,0-0.1,0-0.2,0
	c0.5,0.2-0.1,0.8,0.6,0.8l0.3,0c-0.1,0.1-0.3,0.2-0.3,0.2c0.2,0,0.1,0.3,0.4,0.3c-0.1,0.1-0.1,0-0.2,0c0,0.2,0.4,0.3,0.3,0.5l-0.1,0
	c-0.2,0.6-0.4,1.1-0.4,1.6c0-0.1,0-0.2-0.1-0.3c0,0,0,0.1,0,0.1c-0.2-0.1-0.2-0.2-0.5-0.3c0.1,0.1,0.1,0.1,0.1,0.2
	c-0.2-0.1-0.2-0.3,0-0.3c0.2,0,0.3,0.2,0.5,0.1L60,66.5c0.2,0.1,0,0.2-0.2,0.2l0.1,0.2l-0.2,0c0,0.3-0.2,0.4-0.1,0.7l0.2-0.1
	c0,0.2,0.3,0.4,0,0.5c-0.1-0.1-0.2-0.1-0.3-0.1c0,0,0.1,0.1,0.1,0.1l-0.4-0.1c0.5,0.2,0.1,0.5,0.2,0.5l-0.1,0
	c-0.2,0.2,0.2,0,0.2,0.2c-0.1,0.1-0.4,0-0.6,0.1c0,0.2,0.2,0.7-0.2,0.9c0,0.2,0.1,0.5,0.2,0.7c0,0.2-0.4-0.1-0.3,0.1
	c-0.1,0-0.3-0.1-0.4-0.1c0.1,0.1-0.1,0.3,0.3,0.3c-0.1,0.2-0.2,0.5-0.2,0.8c0-0.1-0.2-0.2-0.4-0.1c0.2,0.2,0.3,0.4,0.2,0.7
	c0.2,0.1,0.3,0,0.5,0.1c0,0,0.1,0.1,0.1,0.2c-0.3,0-0.6-0.1-0.7,0.1c-0.4-0.2,0.1-0.3-0.3-0.3c-0.3-0.2-0.2-0.5,0-0.6
	c-0.3-0.3-0.1,0.1-0.4,0c0,0.2,0.1,0.3,0.1,0.6c0.2,0,0.2,0,0.3,0.1c0.3,0.3-0.3,0.2-0.3,0.3c0,0,0-0.1-0.1-0.1
	c-0.2,0.1,0.1,0.2,0,0.4c-0.5-0.1,0-0.3-0.3-0.4l-0.4,0c-0.1,0.2,0.4,0.2,0.2,0.4l-0.2-0.1l0.1,0.2c0.2,0,0.4,0.1,0.4-0.1
	c0.4,0.2,0,0.1,0.1,0.4c0.2,0.1,0-0.1,0.2,0c0.2,0,0.2,0.2,0.2,0.3c0,0.2-0.3,0-0.5,0c0,0,0-0.2,0.1-0.1c-0.2-0.3-0.5,0-0.7-0.2
	c-0.2,0.1,0.1,0.2,0.2,0.3c0,0,0.2,0.1,0.3,0.1c0.6,0.5-0.5,0.1-0.5,0.4c0.4,0.1,0.5,0.5,1,0.5c0.1,0.1,0.1,0.2,0.1,0.3
	c-0.3-0.2-0.3,0.1-0.5-0.2l0,0.1L57,73.9c-0.2,0.1-0.5,0.2-0.6,0.2c0.1,0.2,0.3,0,0.3,0.2c-0.1-0.1-0.3,0-0.3,0
	c0.2-0.1,0.4,0.1,0.5,0.2c0,0.1-0.3,0.2-0.4,0.1l-0.2-0.2c0.2,0.2-0.1,0-0.1,0.1c0.1,0.1,0.4,0.2,0.6,0.3c0,0.1-0.2,0.1-0.2,0.2
	L56.4,75c0,0.2-0.5-0.1-0.4,0.1l0.2,0.1c0,0-0.2,0-0.2,0c0.2,0.1,0.1,0.2,0.1,0.2l-0.2,0c0.1,0.1,0.4,0.3,0,0.3c0.4,0,0-0.1,0.2-0.2
	c0.3,0,0.2,0.2,0.2,0.3c-0.4-0.1-0.1,0.2-0.1,0.3c-0.2,0-0.2,0-0.3,0l0.2,0.1c-0.5-0.1,0,0.2-0.1,0.3c-0.1-0.1-0.3-0.2-0.4-0.1
	c0.4,0,0.4,0.3,0.6,0.4c-0.2,0.2-0.4-0.2-0.7-0.2c0.2,0.2-0.3,0.2,0.1,0.3c0.2-0.1,0.2,0.1,0.4,0.2c-0.1,0.2-0.1-0.1-0.3,0
	c0,0.1,0.3,0.3,0.4,0.2c-0.1,0.1,0.2,0.3-0.1,0.4c-0.2,0,0-0.3-0.2-0.3c-0.1,0.2,0.5,0.3,0.5,0.6c0.2-0.1,0.5,0.2,0.6,0.4
	c-0.2,0.2-0.1-0.2-0.4-0.2l0,0.1c-0.4,0-0.5-0.6-0.9-0.6l0.1,0.2c-0.1-0.1-0.3-0.2-0.4-0.2c0.3,0.1,0,0.3,0,0.3c0.2,0.1,0-0.1,0.1,0
	c0,0.1,0.4,0.3,0.1,0.5c-0.1-0.2-0.3-0.1-0.4-0.2c-0.1,0,0.3,0.1,0.1,0.2l-0.1-0.1c-0.2,0.4-0.5,1-0.1,1.7c-0.3,0-0.3,0.1-0.6,0.2
	c0.1-0.1,0.2,0.1,0.2,0.2l-0.3,0c-0.2,0-0.1,0.3,0,0.5c-0.1,0-0.1,0-0.2-0.1c-0.2,0,0.1,0.2,0.1,0.3l-0.2,0l0.2,0.1
	c0,0.2-0.1,0.3-0.4,0.1c0,0.1,0.1,0.1,0.2,0.1c-0.2,0-0.4,0.3-0.4,0.6c0.1,0,0.2,0,0.4,0.1c0.3,0.2-0.1,0,0,0.2
	c-0.1-0.1-0.3,0-0.3-0.2c-0.5,0-0.5,0.6-0.8,0.9c0,0.1,0.1,0.1,0.1,0.2c-0.4,0-0.3,0.5-0.6,0.6c0.1,0,0.4,0.4,0.3,0.5
	c0.1,0.3-0.4-0.2-0.6-0.2c0.1,0.1,0,0.3-0.1,0.3l0,0c0.1,0.2,0,0.3-0.1,0.3l0,0c-0.1,0.1-0.3,0-0.3,0.1c0.2,0.2-0.1,0.3,0,0.5
	c0,0,0,0-0.1-0.1l0.2,0.2l-0.2,0c0-0.1-0.1-0.2-0.1-0.2c-0.2,0,0.1,0.2,0.1,0.3c0,0.2-0.1,0.1-0.2,0c0-0.1,0.1,0,0.1-0.1
	c-0.1-0.2-0.1,0-0.2-0.1c0,0,0.2,0.2,0.1,0.2c-0.1,0-0.2,0.2-0.3,0.1c0,0.1,0,0.2,0,0.3c0.1,0,0.2-0.1,0.3,0c0,0.1-0.1,0.2-0.2,0.1
	l0-0.1c0,0.1-0.2,0.2,0.1,0.3l-0.3-0.1c0.1,0.2,0,0.2-0.1,0.4c-0.2-0.2-0.3-0.4-0.5-0.3l0,0.3c-0.1,0.1-0.1,0.1-0.2-0.1
	c-0.3,0.1,0.2,0.7-0.1,0.7C49.9,87,49.8,87,49.7,87c0,0,0.1,0.1,0.1,0.2c0.1,0.1-0.1-0.2,0.1-0.1c0.1,0.1,0,0.2,0,0.2
	c-0.6-0.3-0.7,0.3-1.1,0.3c0.2,0.3-0.1,0.2,0,0.3c-0.2-0.3-0.1,0.2-0.3,0l0.3,0.3c-0.3-0.1,0,0.7-0.3,0.4c-0.2,0-0.1-0.2-0.1-0.3
	c-0.4-0.2-0.2,0.5-0.5,0.2c0.1,0.1,0.2,0.3,0.2,0.5c-0.2-0.1-0.5-0.1-0.5-0.2c0,0.1,0,0.2-0.2,0.2c0-0.1,0-0.1,0-0.2
	c-0.2,0-0.2,0.2-0.3,0.4c-0.2-0.2-0.4,0.1-0.7,0c0.1,0.4-0.3,0-0.1,0.4c0,0-0.1-0.1-0.1-0.1c0,0.1,0.1,0.4,0,0.5l-0.1-0.3
	c-0.1-0.3-0.3,0-0.4-0.1c0.2,0.2-0.1,0,0,0.2l-0.1,0.1c-0.1,0.1,0,0.1-0.1,0.3c-0.1,0.1-0.2-0.3-0.1-0.3c-0.2-0.1-0.2,0-0.3,0.1
	c0,0,0.1,0,0,0.1c0,0,0,0-0.1-0.1c0,0-0.1,0.1-0.1,0.1c0,0,0,0,0,0c0,0,0.1-0.1,0.1-0.1c0,0-0.1,0-0.1,0c0,0,0,0,0,0
	c0,0-0.1,0-0.1,0L44.5,90c-0.1,0-0.2,0.3-0.1,0.4c-0.4-0.1-0.8,0.3-0.9,0.5c0.1,0,0-0.2,0-0.1c-0.1,0.1-0.1,0.3-0.2,0.2
	c-0.1,0.1-0.1-0.1-0.3-0.1c0,0,0.1,0.2,0.1,0.2c-0.4-0.2-0.5,0.4-0.9,0.3c0,0,0-0.2,0-0.2c-0.2,0.2-0.4,0.3-0.5,0.7
	c0-0.1,0-0.2,0-0.3c-0.1,0-0.2,0.1-0.3,0.3c0.2,0.2,0,0.4-0.1,0.4l0,0c-0.2,0.1-0.1,0.2-0.3,0.2c-0.1-0.1,0.1-0.1,0-0.2
	C41,91.8,40.7,92,40.6,92c0,0.1-0.1,0.2,0,0.3c-0.1,0.1-0.1-0.2-0.2-0.2l-0.2,0.8c0.1-0.1-0.2-0.3-0.1-0.5c-0.3,0.1-0.3,0.5-0.5,0.8
	c-0.1,0-0.3,0.2-0.4,0.2c-0.1-0.2,0.1,0,0.1-0.2L39.1,93c0.2-0.1-0.1-0.3,0-0.5c-0.1,0.1-0.5,0.1-0.7,0c0.2,0.4-0.3,0.2-0.2,0.6
	c-0.2,0.1-0.2-0.3-0.3-0.4c-0.2,0.2-0.5,0.1-0.7,0.2c0,0,0,0,0-0.1c-0.2,0.1-0.6,0-0.8,0.4c0-0.1,0-0.1,0-0.2
	c-0.2-0.1,0,0.5-0.3,0.3l0.1-0.2c-0.2,0.2-0.3-0.2-0.5,0.1c0-0.1,0-0.1,0.1-0.2c-0.2,0.1-0.4,0.1-0.5,0.3c0-0.1,0-0.2,0.1-0.3
	c-0.2-0.1-0.2,0.3-0.4,0.2c0,0-0.1-0.2-0.1-0.2c-0.1,0.2-0.3,0.2-0.4,0.2c0-0.1-0.1-0.2-0.2-0.3c-0.9,0-1.8-0.1-2.7,0.1
	c-0.1-0.4,0.2-0.2,0.2-0.5c0,0.2-0.1,0.2-0.1,0.2c0.1-0.3,0.2-0.6,0.2-0.6c-1,0.4-2,0-3-0.5c-0.3,0-0.8,0.1-1.1-0.1
	c-1.3-0.1-2.4-1.1-3.8-1.3c0,0.1-0.1,0.2-0.2,0.3l0-0.1l-0.2,0.2c-0.1,0,0-0.3,0.1-0.3c-0.5-0.2-1-0.3-1.4-0.6
	C22,90.1,22,89.7,21.8,90c0-0.1,0-0.1,0.1-0.1c-0.4,0-0.4,0-0.5-0.5c-1.1-0.9-2.3-1.5-3.3-2.5C17,86,15.9,85.1,14.9,84
	c-0.5,0.1-0.5-0.3-1-0.3l0.1-0.1c-0.3-0.1-0.1-0.3-0.1-0.6c-0.2,0.1-0.1-0.1-0.3,0.1c-0.3,0,0.3-0.4,0.1-0.4c0.1-0.1-0.1,0.1-0.1,0
	c-0.5-0.1,0.2,0,0.2-0.6c-0.4-0.5-1-1-1.1-1.7c0,0-0.2,0.1-0.2,0.1c0.4-0.2-0.2-0.1-0.1-0.3c0.1,0,0.1,0,0.2,0
	c0.1-0.3-0.3-0.5-0.2-0.8c-0.3-0.2,0-0.6-0.3-0.7c0.2,0,0.1-0.2,0.2-0.2c-0.6,0,0-0.5-0.4-0.7l0.1,0c-0.2-0.7-0.3-1.4-0.6-2.1
	c-0.1-0.4,0.3-0.9,0-1.4c-0.1-0.1-0.2,0-0.3-0.1c0-0.1,0.2,0,0.2-0.1c-0.2-0.2,0-0.5,0-0.8c-0.1,0-0.1-0.1-0.3-0.1
	c0.4-0.3-0.2-0.7,0.1-1.1c-0.5,0.1-0.3-0.2-0.4-0.3c0-0.1,0.2-0.1,0.2,0c-0.1-0.2-0.1-0.4,0.1-0.7c-0.1-0.1-0.3-0.2-0.2-0.3
	c0.3-0.1,0-0.3,0.1-0.5c-0.3,0-0.5-0.2-0.4-0.3l0.4,0.1c-0.2-0.5,0.3-1.2-0.2-1.9l0.2,0c-0.2-0.6,0.2-1.2-0.2-1.9
	c0.2-0.1,0.3-0.4,0.3-0.5c-0.2-0.2-0.1-0.3-0.4-0.5c0-0.1,0.2-0.1,0.3-0.1c0.1-0.3,0.5-0.5,0.1-0.8l0.2,0c-0.2-0.3-0.4-0.6-0.1-0.8
	c-0.2-0.1-0.2-0.4-0.4-0.3c0-0.1,0.3,0,0.2-0.1l0.3,0.2c0.2-0.5,0.1-1,0.1-1.6c0.4-0.1,0.1-0.5,0.3-0.8c-0.1-0.2,0.2-0.5-0.2-0.7
	l0.2,0c0-0.1,0-0.1,0.1-0.2c0.1,0,0.2,0,0.3,0c0,0.2-0.2,0-0.3,0.2c0.1,0.1,0.4,0.1,0.5-0.1c0,0.1,0.4,0.1,0.2,0.3
	c-0.2,0.1-0.2-0.2-0.3-0.1c0.1,0.3,0.6-0.1,0.8,0.1c0.1-0.1,0.5-0.2,0.7-0.1c0,0.3-0.2-0.1-0.4,0.1l0.1,0.1c-0.3,0.3-0.8-0.1-1,0.2
	l0.2,0.1c-0.1,0-0.3,0.1-0.4,0.1c0.3-0.1,0.2,0.3,0.3,0.2c0.2-0.1-0.1-0.1,0.1-0.1c0.1,0.1,0.5,0,0.4,0.3c-0.2,0-0.3,0.2-0.4,0.2
	c-0.1,0.1,0.3-0.1,0.2,0.1l-0.1,0c0.2,0.5,0.5,1.2,1.3,1.3c-0.2,0.2-0.1,0.4,0,0.7c0-0.2,0.2-0.2,0.3-0.1l-0.1,0.3
	c0,0.2,0.4,0.3,0.6,0.3c0,0.1-0.1,0.1-0.1,0.2c0,0.3,0.2,0,0.3,0L14.5,65l0.2-0.1c0.2,0,0.3,0.2,0.1,0.4c0.1,0,0.2,0,0.2-0.1
	c0,0.3,0.4,0.6,0.8,0.6c-0.1-0.1,0-0.2,0.1-0.4c0.2-0.3,0,0.1,0.2,0c-0.1,0.1,0,0.3-0.2,0.3c0.2,0.6,0.9,0.5,1.4,0.7
	c0.1,0,0.1-0.1,0.2-0.2c0.3,0.4,0.8,0,1.1,0.1c-0.1-0.1,0-0.5,0.1-0.6c0.1-0.3,0.1,0.4,0.4,0.5c0.1-0.2,0.2-0.2,0.3-0.2l0,0
	c0.1-0.2,0.2-0.3,0.4-0.2l0,0c0.1,0,0.3,0.1,0.4,0c-0.1-0.3,0.3-0.2,0.2-0.5c0,0,0,0,0.1,0.1l-0.1-0.2l0.3,0c0,0.1,0,0.2,0,0.3
	c0.3,0,0-0.2,0-0.4c0.1-0.2,0.2,0,0.3,0c0,0.1-0.1,0-0.1,0.1c0,0.2,0.1,0,0.2,0.1c0,0-0.1-0.2,0-0.3c0.1,0,0.3-0.2,0.4,0
	c0-0.2,0.1-0.2,0.1-0.3c-0.1,0-0.3,0.1-0.4-0.1c0-0.1,0.1-0.2,0.2-0.1l0,0.1c0-0.1,0.2-0.2,0-0.3l0.3,0.1c-0.1-0.2,0-0.3,0.1-0.4
	c0.2,0.2,0.3,0.5,0.5,0.3c0-0.1,0-0.2,0-0.3c0.1-0.1,0.1-0.1,0.2,0c0.4-0.2-0.3-0.7,0.1-0.8c0.2,0.3,0.2,0.2,0.4,0.1
	c0.4,0.5,0.9,1,1.6,1c-0.1,0.3,0.1,0.5,0.3,0.8c-0.1-0.2,0.2-0.2,0.3-0.2l0,0.3c0.1,0.3,0.5,0.2,0.8,0.2c0,0.1,0,0.1-0.1,0.2
	c0.1,0.3,0.3,0,0.4,0l0,0.2l0.1-0.1c0.2,0,0.4,0.2,0.2,0.5c0.1,0,0.2,0,0.2-0.2c0.1,0.3,0.6,0.6,1,0.6c-0.1-0.1-0.1-0.2,0-0.4
	c0.2-0.3,0,0.1,0.3,0c0,0.1,0.1,0.3-0.1,0.3c0.3,0.6,1.1,0.5,1.7,0.7c0.1,0,0.1-0.1,0.2-0.2c0.3,0.4,0.9,0.1,1.3,0.3
	c-0.1-0.1,0.1-0.5,0.3-0.6c0.2-0.3,0.1,0.4,0.3,0.6c0.1-0.1,0.3-0.2,0.4-0.2l0,0c0.1-0.2,0.3-0.3,0.5-0.2l0,0c0.1,0,0.3,0.1,0.5,0.1
	c0-0.3,0.4-0.2,0.4-0.5c0,0,0,0,0.1,0.1l-0.1-0.2c0.1,0,0.2,0,0.3,0c0,0.1,0,0.2-0.1,0.3c0.4,0,0-0.2,0.1-0.4c0.1-0.2,0.2,0,0.3,0
	c0,0.1-0.2,0-0.2,0.1c-0.1,0.2,0.1,0,0.2,0.1c0,0,0-0.3,0.1-0.3c0.1,0,0.4-0.2,0.5,0c0-0.2,0.2-0.2,0.2-0.4c-0.1,0-0.3,0.1-0.4-0.1
	c0.1-0.1,0.2-0.2,0.3-0.2l0,0.1c0-0.1,0.3-0.2,0.1-0.3c0.1,0.1,0.2,0.1,0.3,0.1c0-0.2,0.1-0.3,0.2-0.4c0.2,0.2,0.2,0.5,0.5,0.3
	l0.1-0.4c0.1-0.1,0.2-0.1,0.2,0c0.1-0.1,0.2-0.2,0.2-0.3c0.2,0.3,0.4,0.6,0.7,0.8l-0.2,0.2c0.7,0.5,0.9,1.3,1.8,1.4
	c0,0.1,0.1,0.2,0.1,0.3c0,0.1,0.1,0.3,0,0.3c0-0.1,0.1,0.2,0.1,0.3c0.2,0.7-0.2-0.4-0.3-0.3c0.2,0.4,0.1,0.6,0.4,1
	c0,0.1,0,0.2,0,0.2c-0.1-0.3-0.1-0.2-0.2-0.5l0,0l-0.1-0.3c-0.1-0.2-0.2-0.3-0.3-0.5c0,0.1,0.1,0.3,0.1,0.4c0-0.2-0.1-0.3-0.1-0.2
	c0.1,0.1,0.2,0.4,0.2,0.5c0,0-0.2-0.2-0.2-0.3l-0.1-0.3c0.1,0.2-0.1-0.1-0.1,0c0.1,0.2,0.1,0.4,0.2,0.6c0,0.1-0.1-0.1-0.1-0.1l0-0.2
	c0,0.1-0.2-0.4-0.2-0.3l0.1,0.2c0,0-0.1-0.1-0.1-0.2c0.1,0.2,0,0.1,0,0.2l-0.1-0.1c0,0.1,0.1,0.4,0,0.2c0.2,0.3,0,0,0.2,0.1
	c0.1,0.2,0.1,0.3,0.1,0.3c-0.2-0.4-0.1,0-0.1,0c-0.1-0.1-0.1-0.2-0.2-0.2l0.1,0.2c-0.2-0.5,0,0.1-0.1,0c-0.1-0.2-0.1-0.3-0.2-0.4
	c0.2,0.3,0.2,0.5,0.3,0.7c-0.1-0.1-0.2-0.4-0.3-0.7c0.1,0.3-0.2-0.1,0,0.2c0.1,0.1,0.1,0.2,0.2,0.4c-0.1,0-0.1-0.2-0.2-0.3
	c0,0.1,0.1,0.3,0.2,0.4c-0.1-0.1,0.1,0.3-0.1,0.1c-0.1-0.2,0-0.1-0.1-0.3c-0.1,0,0.2,0.5,0.2,0.7c0.1,0.1,0.3,0.5,0.3,0.6
	c-0.1-0.1,0-0.1-0.2-0.4l0,0.1c-0.2-0.3-0.2-0.7-0.4-0.9l0,0.1c0-0.1-0.1-0.3-0.2-0.4c0.1,0.3,0,0.1,0,0.2c0.1,0.2,0-0.1,0.1,0.1
	c0,0.1,0.2,0.4,0,0.3C37.2,69.2,37,69.1,37,69c-0.1-0.1,0.1,0.3,0,0.2L36.9,69c-0.2,0-0.4,0.2-0.2,0.8c-0.2-0.2-0.2-0.2-0.4-0.3
	c0.1,0.1,0.1,0.2,0.1,0.3l-0.2-0.2c-0.1-0.1,0,0.2,0,0.3c0,0-0.1-0.1-0.1-0.2c-0.1-0.1,0,0.2,0.1,0.2l-0.1-0.2l0.1,0.2
	c0,0.1,0,0.1-0.2-0.2c0,0.1,0,0.1,0.1,0.2c-0.1-0.1-0.2-0.1-0.2,0.1c0.1,0,0.1,0.1,0.2,0.3c0.2,0.3-0.1,0,0,0.1
	c-0.1-0.1-0.2-0.2-0.2-0.3c-0.3-0.3-0.3,0.1-0.4,0.1c0,0.1,0.1,0.1,0.1,0.2c-0.3-0.2-0.1,0.1-0.3,0.1c0.1,0.1,0.3,0.4,0.3,0.5
	c0.1,0.3-0.3-0.3-0.4-0.4c0.1,0.1,0.1,0.2,0,0.2l0,0c0.1,0.1,0.1,0.2,0,0.2l0,0c0,0-0.2-0.1-0.2-0.1c0.2,0.2,0,0.1,0.1,0.3
	c0,0,0,0-0.1-0.1l0.1,0.2l-0.1-0.1c0-0.1-0.1-0.2-0.1-0.2c-0.1-0.1,0.1,0.2,0.2,0.3c0.1,0.2-0.1,0-0.1-0.1c-0.1-0.1,0.1,0,0,0
	c-0.1-0.2-0.1,0-0.2-0.1c0,0,0.2,0.2,0.1,0.2c0,0,0,0.1-0.2-0.1c0.1,0.1,0,0.1,0.1,0.2c0,0,0.1,0,0.2,0.1c0,0,0,0.1-0.1,0l0-0.1
	c0,0.1-0.1,0,0.1,0.2l-0.2-0.2c0.1,0.1,0.1,0.2,0.1,0.2c-0.2-0.2-0.3-0.4-0.4-0.4l0.1,0.2c0,0,0,0-0.1-0.1c-0.2,0,0.4,0.6,0.2,0.5
	c-0.2-0.2-0.2-0.2-0.3-0.3c0,0,0.1,0.1,0.1,0.1c0.1,0.1-0.1-0.2,0,0c0.1,0.1,0.1,0.1,0.1,0.2c-0.5-0.4-0.3,0.1-0.6-0.1
	c0.3,0.2,0,0.1,0.1,0.2c-0.3-0.3,0,0.1-0.2,0l0.3,0.2c-0.2-0.1,0.3,0.5,0,0.2c-0.1,0-0.2-0.2-0.2-0.2c-0.3-0.2,0.1,0.3-0.2,0.1
	c0.1,0.1,0.3,0.2,0.4,0.4c-0.1-0.1-0.3-0.1-0.4-0.2c0,0.1,0.1,0.2,0,0.1c-0.1-0.1-0.1-0.1-0.1-0.1c-0.1,0,0,0.1,0.1,0.2
	c-0.2-0.2-0.2,0-0.3,0c0.2,0.2-0.2,0,0.2,0.3c0,0-0.1-0.1-0.1-0.1c0.1,0.1,0.3,0.3,0.3,0.3l-0.2-0.2c-0.3-0.2-0.1,0-0.3-0.1
	c0.2,0.1,0,0,0.2,0.2l0.1,0.1c0,0.1,0.1,0.1,0.1,0.2c0,0-0.3-0.2-0.2-0.2c-0.1-0.1-0.1,0-0.1,0.1c0,0,0,0,0.1,0c0,0,0,0-0.1,0
	c0,0,0,0,0,0.1c0,0,0,0,0,0c0,0,0,0,0-0.1c0,0,0,0,0,0c0,0,0,0,0,0c0,0,0,0-0.1,0L33,72.9c0,0,0.1,0.2,0.2,0.3
	c-0.2,0-0.2,0.2-0.1,0.4c0,0-0.1-0.1-0.1-0.1c0,0.1,0.2,0.2,0,0.1c0.1,0.1-0.1-0.1-0.2,0c0,0,0.2,0.1,0.2,0.1
	c-0.3-0.1,0.1,0.3-0.2,0.2c0.1,0-0.1-0.1-0.2-0.1c0.1,0.1,0.1,0.2,0.3,0.4c-0.1-0.1-0.2-0.1-0.2-0.2c0,0,0,0.1,0.1,0.2
	c0.2,0.1,0.3,0.2,0.3,0.2l0,0c0,0,0.1,0.1,0.1,0.2c-0.1,0,0-0.1-0.2-0.1c-0.3-0.2-0.3,0-0.3,0c0.1,0,0.1,0.1,0.2,0.1
	c0.1,0.1-0.2-0.1-0.2-0.1l0.6,0.4c0-0.1-0.3-0.1-0.4-0.2c0,0.1,0.4,0.3,0.5,0.5c-0.1,0,0,0.1,0,0.2c-0.2-0.1,0,0-0.1-0.1l-0.2-0.1
	c0-0.1-0.3-0.2-0.4-0.2c0.1,0.1-0.1,0.1-0.2,0.2c0.4,0.1,0.1,0.2,0.5,0.3c0,0.1-0.3-0.1-0.4-0.1c0.1,0.1,0,0.2,0,0.2c0,0,0,0-0.1,0
	c0.1,0.1-0.1,0.2,0.2,0.4c-0.1,0-0.1-0.1-0.2-0.1c-0.1,0,0.4,0.2,0.2,0.2l-0.2-0.1c0.1,0.1-0.2,0,0.1,0.2c-0.1,0-0.1-0.1-0.2-0.1
	c0.1,0.1,0,0.1,0.2,0.3c-0.1,0-0.2-0.1-0.3-0.1c-0.2,0,0.3,0.2,0.2,0.2c0,0-0.2,0-0.2,0c0.1,0.1,0.1,0.1,0.2,0.2c-0.1,0-0.2,0-0.3,0
	c-0.1,0.2-0.2,0.5,0,0.8c-0.4-0.1-0.2-0.1-0.5-0.2c0.3,0.1,0.1,0.1,0.2,0.2l0,0c0.1,0.1-0.1,0-0.1,0.1l0.1,0c0.2,0.1-0.4,0,0,0.1
	l-0.2,0c0.3,0.1-0.1,0,0.2,0.2l-0.1,0c-0.2,0,0.3,0.2,0.1,0.2c0,0.1,0.1,0.1,0.4,0.2c-0.1,0-0.3-0.1-0.4-0.1c0.1,0.2,0,0.4,0.3,0.7
	c-0.1,0-0.1,0-0.2,0c0.3,0.2-0.4,0.2,0.2,0.3l0.3,0.1c-0.1,0-0.3,0-0.4,0c0.2,0,0,0.1,0.3,0.1c-0.1,0-0.1,0-0.2,0
	c-0.1,0,0.3,0.1,0.2,0.2l-0.1,0c-0.5,0.2-0.9,0.5-0.3,0.7c0.1,0.1-0.3,0-0.3,0c0.5,0.2-0.3,0.5,0.5,0.7c0.2,0.1,1,0.2,1,0.2
	c-0.3-0.3,0-0.6,0.5-0.9c-0.1-0.1-0.2-0.3,0-0.3c0-0.4,0.7-0.7,0.5-1.1c-0.1,0-0.3-0.1-0.3-0.1l0.1,0l-0.2-0.1c0,0,0.2,0,0.3,0.1
	c0-0.2,0-0.3,0.1-0.5c-0.3-0.1,0-0.1-0.3-0.2c0.1,0,0.1,0,0.1,0c-0.1-0.2-0.1-0.2,0.3-0.1c0.4-0.3,0.3-0.8,0.6-1.1
	c0.1-0.4,0.1-0.9,0.2-1.3c-0.4-0.3-0.1-0.3-0.4-0.6l0.1,0.1c-0.1-0.2,0.1-0.1,0.3,0c-0.1-0.1,0-0.1-0.3-0.2
	c-0.2-0.2,0.4,0.2,0.3,0.1c0.1,0.1-0.1-0.1-0.1-0.1c-0.2-0.3,0.1,0.1,0.4,0.2c0-0.2-0.1-0.6,0.2-0.6c0,0-0.2-0.1-0.2-0.1
	c0.4,0.3-0.1-0.1,0.1,0c0.1,0.1,0.1,0.1,0.1,0.1c0.2,0.1,0-0.2,0.2-0.1c-0.1-0.2,0.3,0,0.1-0.2c0.1,0.1,0.1,0.1,0.2,0.1
	c-0.4-0.4,0.2,0,0-0.3l0.1,0.1c0.1-0.2,0.4-0.2,0.4-0.6c0.1-0.1,0.5,0.2,0.4-0.1c0-0.1-0.1-0.2-0.1-0.2c0,0,0.1,0.1,0.2,0.2
	c-0.1-0.2,0.1-0.1,0.2-0.1c0-0.1,0-0.1-0.1-0.2c0.3,0.2,0.1-0.2,0.3-0.1c-0.3-0.4-0.1-0.3-0.1-0.4c0,0,0.1,0.1,0.2,0.2
	c0-0.1,0.1-0.1,0.2-0.1c0-0.1-0.1-0.3-0.1-0.3c0.2,0.3,0.1,0,0.2,0c-0.2-0.2-0.2-0.5-0.1-0.4l0.2,0.4c0-0.3,0.4,0,0.3-0.5l0.1,0.2
	c0-0.3,0.3-0.2,0.3-0.7c0.1,0.1,0.2,0.1,0.3,0.1c0-0.2,0-0.2-0.1-0.5c0,0,0.1,0.1,0.1,0.2c0.1,0,0.3,0.3,0.2-0.1l0.1,0.2
	c0-0.2,0-0.5,0.1-0.3c0-0.2,0-0.3-0.1-0.5c0-0.1,0.1,0.3,0.1,0.1l0.1,0.3c0.2,0,0.3-0.2,0.4-0.4c0.2,0.3,0.1-0.1,0.3,0.1
	c0-0.2,0.2,0,0.1-0.4l0.1,0.2c0.1,0,0.2,0,0.3,0c0.1,0,0-0.3,0-0.4l0.1,0.2c0-0.1,0-0.4-0.1-0.6c0.1,0.1,0,0,0.1,0.1
	c0,0.1,0,0.3,0,0.6c0.1,0.1,0-0.4,0.1-0.2c0.1,0.1,0.1,0,0-0.3c0,0.1,0.1,0.1,0.1,0.3c0,0,0.1-0.1,0.1-0.2c0,0,0,0,0,0
	c0-0.2,0-0.2,0-0.4c0,0,0,0,0.1,0.1c0,0.1,0,0.2,0.1,0.3l0-0.3c0,0,0,0,0.1,0c0,0.2,0.1,0.3,0.1,0.5c0-0.1-0.1-0.3-0.1-0.5
	c0.1-0.1,0.3-0.1,0.3-0.3c0.1,0-0.1,0.3,0.1,0.2l-0.2,0.2c0.6,0.3,1.1,0.3,1.7,0.4c0.1,0.4,0.6,0.1,0.8,0.4c0.2-0.1,0.5,0.2,0.7-0.2
	l0,0.2c0.2,0.1,0.6,0.1,0.9,0.3c0.2,0.1,0.2-0.2,0.4-0.3l0,0.2c0.2-0.1,0.3-0.4,0.4-0.6c0.1,0.2,0.1,0,0.3,0.2
	c-0.1,0.1-0.3,0.3-0.4,0.6c0.2,0.1,0.5-0.4,0.6,0c0.2,0.1,0.3,0,0.4-0.2c0,0.1,0.1,0.2,0,0.3c0.1,0,0.2,0,0.3-0.1c0,0,0,0-0.1,0
	c0.1-0.2,0.2-0.2,0.2-0.5c-0.1,0.1-0.1,0.1-0.2,0.1c0.1-0.2,0.3-0.2,0.3,0c0,0.2-0.2,0.3-0.1,0.5l0.4-0.5c-0.1,0.2-0.2,0-0.1-0.2
	l-0.2,0.1l0-0.2c-0.2,0-0.4-0.2-0.6,0l0.1,0.2c-0.1,0-0.3,0.3-0.4,0c0.1-0.1,0-0.2,0.1-0.3c0,0-0.1,0.1-0.1,0.1l0.1-0.4
	c-0.1,0.5-0.4,0.1-0.5,0.2l0-0.1c-0.2-0.2,0,0.2-0.1,0.2c-0.1-0.1,0-0.4-0.1-0.6c-0.2,0-0.6,0.2-0.8-0.1c-0.2,0-0.4,0.1-0.6,0.3
	c-0.2,0,0.1-0.4-0.1-0.3c0-0.1,0.1-0.3,0.1-0.4c-0.1,0.1-0.3-0.1-0.2,0.3c-0.2-0.1-0.5-0.2-0.7-0.2c0.1,0,0.2-0.2,0.1-0.4
	c-0.2,0.2-0.4,0.3-0.6,0.1c-0.1,0.2,0,0.3-0.1,0.5c0,0-0.1,0.1-0.2,0.1c0-0.3,0.2-0.6,0-0.7c0.2-0.4,0.3,0.1,0.3-0.3
	c0.2-0.3,0.5-0.2,0.5,0c0.2-0.3-0.1-0.1,0-0.4c-0.1,0-0.3,0.1-0.5,0.1c-0.1,0.2,0,0.2-0.1,0.3c-0.3,0.3-0.2-0.3-0.2-0.4
	c0,0,0.1,0,0.1-0.1c-0.1-0.2-0.2,0.1-0.3,0c0.1-0.4,0.2,0,0.4-0.2l0-0.3c-0.2-0.1-0.2,0.3-0.3,0.2l0.1-0.1l-0.2,0.1
	c-0.1,0.2-0.1,0.4,0,0.4c-0.2,0.4-0.1,0-0.3,0c-0.2,0.2,0.1,0,0,0.2c-0.1,0.2-0.2,0.2-0.3,0.2c-0.1-0.1,0-0.3,0-0.5
	c0,0,0.2,0,0.1,0.1c0.3-0.2,0.1-0.5,0.3-0.6c-0.1-0.2-0.2,0.1-0.3,0.1c0,0-0.1,0.2-0.1,0.3c-0.5,0.5,0.1-0.5-0.2-0.5
	c-0.1,0.4-0.6,0.4-0.6,0.9c-0.1,0-0.2,0.1-0.2,0c0.2-0.2,0-0.3,0.2-0.5l-0.1,0l0.3-0.3c0-0.2,0-0.5,0-0.6c-0.2,0.1-0.1,0.3-0.3,0.3
	c0.1-0.1,0.1-0.3,0.1-0.3c0,0.2-0.2,0.4-0.3,0.4c-0.1-0.1,0-0.3,0-0.4l0.2-0.2c-0.2,0.1,0-0.1-0.1-0.1c-0.1,0.1-0.3,0.3-0.4,0.5
	c-0.1,0,0-0.2-0.1-0.2l0.2-0.1c-0.2,0,0.2-0.4,0-0.4L41,66.1c0,0,0-0.1,0.1-0.2c-0.1,0.1-0.2,0-0.2,0.1l0.1-0.1
	c-0.1,0-0.4,0.3-0.3,0c-0.2,0.3,0.1,0.1,0,0.3c-0.1,0.3-0.2,0.1-0.3,0.1c0.3-0.3-0.1-0.1-0.2-0.2c0.1-0.1,0.1-0.2,0.1-0.3l-0.2,0.2
	c0.3-0.4-0.2,0-0.2-0.2c0.1-0.1,0.3-0.2,0.3-0.3c-0.2,0.3-0.4,0.2-0.6,0.4c0-0.2,0.4-0.3,0.5-0.5c-0.3,0.1,0-0.3-0.3,0
	c0,0.2-0.2,0.2-0.3,0.2c-0.1-0.1,0.1-0.1,0.2-0.3c-0.1,0-0.4,0.1-0.4,0.3c0-0.1-0.3,0-0.2-0.2c0.2-0.2,0.2,0.1,0.3-0.1
	c-0.1-0.2-0.5,0.3-0.7,0.2c0,0.2-0.4,0.3-0.6,0.3c-0.1-0.3,0.2,0,0.4-0.3l-0.1-0.1c0.3-0.3,0.7-0.2,0.9-0.5l-0.2,0
	c0.1-0.1,0.3-0.2,0.4-0.3c-0.2,0.2-0.2-0.1-0.2-0.1c-0.2,0.1,0.1,0-0.1,0.1c-0.1,0-0.5,0.1-0.4-0.1c0.2,0,0.3-0.2,0.4-0.2
	c0.1-0.1-0.3,0.1-0.2,0l0.1-0.1c-0.1-0.4-0.4-0.7-1-0.8c0.2-0.1,0.2-0.3,0.3-0.5c-0.1,0.1-0.2,0.1-0.3,0l0.3-0.1
	c0.1-0.1-0.1-0.2-0.3-0.3c0.1,0,0.1,0,0.2-0.1c0.2-0.1-0.2-0.1-0.2-0.1l0.2-0.1l-0.2,0C37.9,62.2,38,62,38.3,62
	c-0.1,0-0.1-0.1-0.2,0c0.2-0.1,0.2-0.3,0.1-0.5c-0.1,0.1-0.2,0-0.4,0c0,0,0-0.1,0-0.1c0.1,0,0.1,0,0.2,0.1c0.5-0.1,0.2-0.5,0.4-0.7
	c0-0.1-0.1-0.1-0.2-0.1c0.4,0,0.1-0.4,0.4-0.5c-0.1,0-0.5-0.3-0.4-0.4c-0.2-0.3,0.4,0.2,0.6,0.2c-0.1-0.1-0.1-0.2,0-0.3l0,0
	c-0.1-0.1-0.1-0.3,0.1-0.3l0,0c0.1,0,0.3,0,0.3,0c-0.2-0.2,0.1-0.2-0.1-0.4c0,0,0,0,0.1,0.1l-0.2-0.2l0.2,0c0,0.1,0.1,0.2,0.1,0.2
	c0.2,0-0.1-0.2-0.1-0.3c0-0.2,0.1,0,0.2,0c0,0.1-0.1,0-0.1,0.1c0.1,0.2,0.1,0,0.2,0.1c0,0-0.2-0.2-0.1-0.2c0.1,0,0.2-0.2,0.3,0
	c0-0.1,0-0.2,0-0.3c-0.1,0-0.2,0-0.3-0.1c0-0.1,0.1-0.2,0.1-0.1l0,0.1c0-0.1,0.2-0.1,0-0.2l0.3,0.2c-0.1-0.2,0-0.2,0.1-0.3
	c0.1,0.2,0.2,0.5,0.4,0.4l0-0.3c0.1-0.1,0.1,0,0.2,0.1c0.3,0-0.1-0.7,0.2-0.6c0.1,0.3,0.1,0.3,0.2,0.3c0,0-0.1-0.1,0-0.2
	c-0.1-0.1,0,0.2-0.1,0.1c-0.1-0.2,0-0.1,0-0.2c0.4,0.5,0.6-0.1,1,0.1c-0.1-0.3,0.1-0.1,0.1-0.3c0.1,0.4,0.1-0.1,0.3,0.1l-0.1-0.3
	c0.2,0.2,0.2-0.6,0.4-0.2c0.1,0.1,0,0.3,0,0.3c0.2,0.4,0.3-0.4,0.5,0c0-0.1-0.1-0.4,0-0.5c0.1,0.1,0.4,0.3,0.3,0.4
	c0.1-0.1,0.1-0.2,0.2-0.1c0,0.1,0,0.1-0.1,0.2c0.2,0.1,0.3-0.1,0.4-0.2c0.1,0.3,0.3,0.1,0.5,0.3c0.1-0.3,0.3,0.1,0.3-0.3
	c0,0,0,0.1,0,0.1c0.1-0.1,0.1-0.4,0.2-0.4l0,0.3c0,0.4,0.2,0.1,0.2,0.3c-0.1-0.3,0.1,0,0.1-0.2l0.1-0.1c0.2-0.1,0-0.1,0.2-0.2
	c0.1,0,0,0.3,0,0.3c0.1,0.2,0.2,0.1,0.3,0c0,0,0,0,0-0.1c0,0,0,0.1,0,0.1c0,0,0.1,0,0.1,0c0,0,0,0,0,0c0,0-0.1,0-0.1,0
	c0,0,0.1,0,0.1,0c0,0,0,0,0,0c0,0,0.1,0,0.1,0.1l-0.1,0.2c0.1,0,0.3-0.2,0.3-0.3c0.3,0.2,0.8,0.1,0.9,0c-0.1,0-0.1,0.2-0.1,0.1
	c0.1,0,0.2-0.2,0.2-0.1c0.1-0.1,0.1,0.2,0.2,0.2c0,0,0.1-0.2,0-0.2c0.2,0.4,0.6-0.1,0.8,0.2c0,0-0.1,0.1-0.1,0.2
	c0.2-0.1,0.5-0.1,0.7-0.3c0,0.1-0.1,0.2-0.1,0.2c0.1,0,0.3,0,0.5-0.2c-0.1-0.1,0,0.1-0.1,0.1c-0.1-0.2,0.2-0.4,0.3-0.3l0,0
	c0.1,0,0.2-0.1,0.3-0.1c0.1,0.1-0.1,0-0.1,0.2c-0.1,0.4,0.3,0.3,0.3,0.4c0.1-0.1,0.1-0.1,0.1-0.2c0.1-0.1,0,0.2,0.1,0.2l0.5-0.6
	c-0.1,0,0,0.3-0.1,0.4c0.3,0,0.5-0.3,0.7-0.5c0.1,0.1,0.3,0,0.4,0c0,0.2-0.1,0-0.1,0.1l0.1,0.3c-0.2,0-0.1,0.3-0.2,0.4
	c0.2-0.1,0.4,0.2,0.6,0.3c0-0.4,0.3-0.1,0.4-0.4c0.2,0,0,0.3,0.1,0.4c0.3-0.1,0.5,0.1,0.7,0.2c0,0,0,0,0,0.1c0.2,0,0.5,0.2,0.8,0
	c0,0.1-0.1,0.1-0.1,0.2c0.1,0.2,0.2-0.4,0.4-0.1L54,58.4c0.2-0.1,0.2,0.3,0.5,0.1c0,0.1-0.1,0.1-0.1,0.1c0.2,0,0.3,0.1,0.6,0
	c0,0.1-0.1,0.2-0.2,0.2c0.1,0.2,0.3-0.2,0.4,0c0,0,0,0.2,0,0.2c0.1-0.1,0.3,0,0.4,0c0,0.1,0,0.2,0,0.3c0.7,0.4,1.3,1,2.1,1.3
	c-0.2,0.4-0.3,0-0.4,0.3c0.2-0.2,0.2,0,0.4,0.1l0,0c0.1,0,0,0.2,0.2,0.2l0.1-0.1c0.2-0.1-0.1,0.5,0.2,0.2l-0.1,0.2
	c0.3-0.2,0,0.2,0.3,0.1l-0.1,0c0,0.2,0.6,0.1,0.4,0.3C58.7,62.3,58.9,62.4,59.2,62.3z M37.7,56.6c0-0.1,0.2-0.1,0.3-0.1
	c-0.1,0.1-0.1,0.1-0.2,0.2C37.7,56.8,37.7,56.8,37.7,56.6z M38.9,68.4c0.1,0.2,0,0,0.1,0.2c0.1,0.2,0,0.2,0,0.3
	C39,68.9,38.9,68.6,38.9,68.4c-0.1,0.1,0,0,0,0.1c0-0.2-0.1-0.4-0.2-0.5c0.1,0.1,0.1,0.2,0.2,0.2c0,0,0,0,0.1,0
	C39.1,68.6,38.9,68.3,38.9,68.4z M39,68.2C39,68.2,39,68.2,39,68.2C39,68.2,39,68.3,39,68.2C39,68.2,39,68.2,39,68.2z M39.8,68.7
	c-0.1,0-0.2,0-0.2,0.1c0,0,0-0.3-0.1-0.4c0,0.2,0,0.4-0.1,0.4c0.1,0.2,0.1,0.2,0.2,0.5c0,0,0,0.2,0,0.1c-0.1-0.2-0.2-0.6-0.3-0.6
	c-0.1-0.4,0.1,0,0-0.4c0-0.1,0-0.1,0-0.1c0.1,0,0.2,0,0.3-0.1c0,0.1,0,0.1,0,0.2l0-0.2c0,0,0,0,0,0c0.1,0,0,0.2,0,0.3
	C39.7,68.5,39.8,68.6,39.8,68.7z M39.3,68.4c0,0.4-0.2-0.2-0.2-0.2c0,0,0,0,0,0c0.1,0,0.1,0,0.1,0C39.3,68.3,39.3,68.3,39.3,68.4z
	 M40.1,68.9C40.1,68.9,40.1,68.9,40.1,68.9C40.1,69,40.1,69,40.1,68.9C40.1,69,40.1,68.9,40.1,68.9z M40.9,69.1c0,0,0.1,0,0.1,0
	C41,69.2,41,69.4,40.9,69.1C40.9,69.1,40.9,69.1,40.9,69.1z M41.1,69.2C41.1,69.2,41.1,69.2,41.1,69.2
	C41.1,69.2,41.1,69.2,41.1,69.2C41.1,69.2,41.1,69.2,41.1,69.2z M69.3,26.3c0.3-0.1,0,0.1,0.2,0.1l0.1,0.1c0.1,0.2,0.1,0,0.2,0.3
	c0,0.2-0.3,0-0.3,0c-0.2,0.1-0.1,0.2-0.1,0.4c0-0.1,0-0.1,0.1,0c0,0-0.1,0-0.1,0c0,0.1,0,0.1,0,0.1c0,0,0,0,0,0c0-0.1,0-0.1,0-0.1
	c0,0,0,0.1-0.1,0.1c0,0,0,0,0,0c0,0,0,0.1-0.1,0.1L69,27.4c0,0.1,0.2,0.4,0.3,0.4C69,28.1,69,28.9,69,29.1c0-0.1-0.1-0.2-0.1-0.1
	c0,0.1,0.1,0.3,0,0.3c0,0.2-0.2,0.1-0.3,0.2c0,0,0.2,0.1,0.2,0c-0.4,0.2,0,0.8-0.4,1.2c0.1,0-0.1-0.1-0.2-0.2c0,0.3,0,0.7,0.1,1
	c-0.1-0.1-0.2-0.1-0.2-0.2c-0.1,0.2-0.1,0.5,0.1,0.6c0.2-0.1-0.1-0.1-0.1-0.1c0.2-0.1,0.3,0.3,0.2,0.4l0,0c-0.1,0.2,0,0.3,0,0.5
	c-0.2,0.1,0-0.1-0.2-0.1c-0.4-0.1-0.4,0.4-0.4,0.4c0.1,0.1,0.1,0.2,0.2,0.2c0,0.2-0.2,0-0.3,0.1l0.5,0.7c0-0.1-0.4,0-0.4-0.2
	c-0.1,0.4,0.2,0.7,0.4,1c-0.1,0.1-0.1,0.5-0.1,0.6c-0.2,0,0-0.1-0.1-0.2l-0.3,0.1c0.1-0.2-0.3-0.1-0.4-0.3c0,0.2-0.2,0.6-0.4,0.9
	c0.5,0,0,0.4,0.4,0.6c-0.1,0.3-0.3,0.1-0.5,0.1c0,0.4-0.2,0.7-0.3,1c0,0,0,0-0.1,0c0,0.3-0.3,0.7-0.1,1.1c-0.1,0-0.1,0-0.2-0.1
	c-0.2,0.2,0.4,0.2,0.1,0.5l-0.1-0.1c0.1,0.3-0.3,0.4-0.1,0.7c-0.1,0-0.1-0.1-0.1-0.1c0,0.3-0.1,0.5,0,0.8c-0.1,0-0.2-0.1-0.3-0.2
	c-0.2,0.2,0.2,0.4,0,0.5c0,0.1-0.2,0.1-0.2,0.1c0.1,0.2,0,0.5,0,0.6c-0.1,0-0.2,0-0.4,0.1c-0.4,1.1-1,2.2-1.1,3.4
	c-0.4,0-0.1-0.3-0.4-0.3c0.3,0.1,0,0.2,0,0.6l0,0c0,0.2-0.2,0.2-0.2,0.4l0.1,0c0.1,0.2-0.5,0.2-0.2,0.4l-0.3,0
	c0.3,0.3-0.2,0.2,0,0.5l-0.1,0C62.6,46.5,63,47,62.7,47c0,0.2-0.1,0.5,0.2,0.7c-0.1,0-0.3-0.1-0.3-0.2c-0.2,0.9-0.7,1.8-0.7,2.7
	c-0.1,0-0.1-0.1-0.1-0.1c0.1,0.6-0.7,0.8-0.3,1.4l0.2,0.2c-0.1,0.1-0.3,0-0.4,0c0.1,0.2-0.1,0.4,0,0.6c-0.1,0-0.1-0.1-0.2-0.1
	c-0.1,0.2,0.1,0.6-0.1,0.8l-0.1-0.1C60,53.8,59,55,59.2,56.1c0,0.3-0.4,0-0.4,0.1c0,0.8-0.6,1.4-0.9,2.2c-1.2-1.2-2.8-1.8-4.2-2.5
	c-1.7-0.6-3.4-0.8-5.1-1.1c-0.4,0.4-0.7,0.1-1.1,0.5l0-0.1c-0.3,0.2-0.3-0.1-0.6-0.3c0,0.2-0.1,0-0.1,0.3c-0.2,0.2-0.2-0.4-0.3-0.3
	c0-0.1,0,0.2,0,0.1c-0.5,0.3,0.1-0.2-0.4-0.5c-0.8,0-1.7,0.3-2.5,0.2c0,0,0.1,0.2,0,0.2c-0.1-0.5-0.3,0.2-0.4,0
	c0-0.1,0.1-0.1,0.1-0.2c-0.4-0.2-0.7,0.2-1,0c-0.3,0.3-0.8-0.1-0.9,0.3c0-0.2-0.2-0.1-0.3-0.2c-0.1,0.6-0.7,0-0.9,0.5l0-0.1
	c-0.7,0.3-1.5,0.7-2.1,1.4c0-0.1,0-0.2-0.1-0.3c0,0.1,0,0.1-0.1,0c0,0,0.1,0,0.1,0c0-0.1,0-0.1-0.1-0.2c0,0,0,0,0,0
	c0,0.1,0,0.1,0.1,0.2c0,0,0-0.1,0-0.2c0,0,0,0,0,0c0-0.1,0-0.1,0-0.1l0.2,0c0-0.1-0.3-0.4-0.4-0.4c0.2-0.5-0.2-1.3-0.4-1.4
	c0,0.1,0.2,0.1,0.1,0.1c-0.1-0.1-0.3-0.3-0.1-0.3c-0.1-0.1,0.1-0.2,0.1-0.4c0,0-0.2,0-0.2,0.1c0.3-0.4-0.4-0.8-0.3-1.2
	c0,0,0.2,0,0.2,0.1c-0.2-0.3-0.4-0.6-0.7-0.8c0.1,0,0.2,0,0.3,0c-0.1-0.2-0.2-0.5-0.5-0.5c-0.1,0.2,0.1,0,0.1,0.1
	c-0.1,0.2-0.4,0-0.4-0.1l0,0c-0.1-0.2-0.2-0.2-0.3-0.4c0.1-0.2,0.1,0.1,0.2,0c0.3-0.2,0-0.6,0-0.6C36,50,36,50,35.9,50
	c-0.2-0.1,0.2-0.2,0.1-0.3l-0.9-0.2c0.1,0,0.1-0.1,0.2-0.1l0,0c0,0,0,0,0,0c0.1,0,0.1-0.1,0.2,0c0-0.1-0.1-0.1-0.2-0.2
	c0,0,0.1,0,0.2,0l-0.1-0.2l0.2,0c0-0.4,0.2-0.7,0.1-1.1L35.5,48c0-0.2-0.3-0.5,0-0.7c0.1,0.1,0.2,0,0.3,0.1c0-0.1-0.1-0.1-0.1-0.2
	l0.4,0.1c-0.5-0.2-0.1-0.7-0.2-0.8l0.1,0c0.2-0.3-0.2,0-0.2-0.2c0.1-0.2,0.4,0,0.6-0.2c0-0.4-0.2-1,0.1-1.4c0-0.3-0.1-0.7-0.3-1
	c0-0.3,0.4,0.1,0.2-0.3c0.1,0,0.3,0,0.4,0c-0.2,0,0.1-0.5-0.3-0.3c0.1-0.4,0.2-0.9,0.2-1.3c0,0.1,0.3,0.2,0.4,0.1
	c-0.2-0.2-0.3-0.6-0.2-1c-0.3,0-0.3,0.1-0.5,0c0-0.1-0.1-0.2-0.1-0.2c0.3,0,0.7,0,0.7-0.3c0.4,0.1-0.1,0.6,0.3,0.4
	c0.3,0.2,0.3,0.8,0.1,0.9c0.3,0.3,0.1-0.2,0.4-0.1c0-0.3-0.2-0.4-0.2-0.8c-0.2,0-0.2,0.1-0.3-0.1c-0.3-0.4,0.3-0.4,0.3-0.5
	c0,0.1,0,0.1,0.1,0.2c0.1-0.2-0.1-0.3,0-0.6c0.5,0,0,0.4,0.3,0.5l0.3-0.2c0.1-0.4-0.4-0.1-0.2-0.5l0.2,0.1l-0.1-0.3
	c-0.2,0-0.4,0-0.4,0.2c-0.4-0.2,0-0.2-0.1-0.6c-0.2-0.1,0,0.1-0.2,0.1c-0.2,0-0.2-0.2-0.2-0.4c0-0.3,0.3-0.1,0.5-0.2
	c0,0.1,0.1,0.3-0.1,0.2c0.2,0.4,0.5-0.1,0.7,0.2c0.2-0.3-0.1-0.3-0.2-0.4c0,0.1-0.2-0.1-0.3,0c-0.6-0.5,0.5-0.3,0.4-0.7
	c-0.4,0.1-0.6-0.7-1.1-0.4c-0.1-0.1-0.2-0.3-0.1-0.4c0.3,0.1,0.3-0.2,0.5,0.1l0-0.2l0.3,0.3c0.2-0.2,0.5-0.4,0.6-0.5
	c-0.1-0.2-0.3,0-0.3-0.2c0.1,0.1,0.3,0,0.3-0.2c-0.1,0.2-0.4,0-0.5-0.2c0-0.2,0.3-0.4,0.4-0.4l0.2,0.3c-0.2-0.2,0.1-0.1,0-0.3
	c-0.2-0.1-0.4-0.2-0.6-0.3c-0.1-0.2,0.2-0.2,0.1-0.3l0.2,0.3c0-0.3,0.5,0,0.4-0.4l-0.2-0.1c0-0.1,0.2-0.1,0.2,0
	c-0.2-0.1-0.1-0.2-0.2-0.3l0.2,0c-0.1-0.1-0.4-0.3-0.1-0.5c-0.4,0.1,0,0.2-0.2,0.4c-0.3,0.1-0.2-0.3-0.3-0.3
	c0.4,0.1,0.1-0.3,0.1-0.5c0.2-0.1,0.2-0.2,0.3-0.2l-0.3-0.1c0.5,0-0.1-0.3,0.1-0.5c0.1,0.1,0.4,0.1,0.4,0c-0.4,0.1-0.4-0.3-0.7-0.3
	c0.2-0.3,0.5,0.1,0.8,0c-0.3-0.2,0.2-0.4-0.1-0.5c-0.1,0.2-0.2-0.1-0.4-0.1c0.1-0.3,0.2,0.1,0.3-0.1c0-0.1-0.3-0.3-0.4-0.1
	c0.1-0.2-0.2-0.4,0-0.6c0.2-0.1,0.1,0.4,0.3,0.3c0.1-0.4-0.6-0.3-0.6-0.7c-0.1,0.2-0.5,0-0.7-0.2c0.1-0.4,0.1,0.2,0.4,0.1l0-0.2
	c0.4-0.2,0.6,0.6,1,0.4l-0.1-0.2c0.1,0.1,0.3,0.1,0.4,0.1c-0.3-0.1,0-0.4-0.1-0.5c-0.2-0.1,0.1,0.2-0.1,0.1c0-0.2-0.4-0.3-0.3-0.6
	c0.2,0.2,0.3,0,0.5,0c0.1-0.1-0.3-0.1-0.1-0.3l0.1,0c0.1-0.8,0.2-1.8-0.4-2.6c0.3-0.1,0.3-0.4,0.5-0.7c-0.1,0.2-0.3,0-0.3-0.1
	l0.3-0.2c0.2-0.2-0.1-0.6-0.2-0.8c0.1,0,0.1,0,0.2,0c0.2-0.2-0.1-0.2-0.2-0.3l0.2-0.1l-0.2,0c-0.1-0.2,0-0.5,0.3-0.4
	c-0.1-0.1-0.1-0.2-0.2-0.1c0.2-0.2,0.3-0.8,0.2-1.1c-0.1,0.2-0.2,0.1-0.4,0.1c-0.3-0.1,0.1-0.1-0.1-0.2c0.1,0,0.3-0.2,0.3,0
	c0.5-0.5,0.2-1.2,0.3-1.8c0-0.1-0.1-0.1-0.2-0.2c0.4-0.4,0.1-0.9,0.2-1.3c-0.2,0.1-0.5-0.1-0.5-0.3c-0.3-0.3,0.4-0.1,0.6-0.3
	c-0.1-0.1-0.1-0.4-0.1-0.4l0,0C39,18.4,39,18.2,39.1,18l0,0c0-0.1,0.2-0.3,0.2-0.4c-0.3-0.1-0.1-0.4-0.3-0.5c0,0,0,0,0.1,0L39,17
	l0.2-0.3c0.1,0.1,0.2,0.1,0.2,0.2c0.2-0.3-0.2-0.1-0.3-0.3c-0.1-0.2,0.1-0.2,0.2-0.3c0.1,0.1-0.1,0.2,0,0.2c0.2,0.1,0.1-0.1,0.2-0.1
	c0,0-0.3-0.1-0.2-0.2c0-0.1,0-0.5,0.2-0.4c-0.1-0.1-0.1-0.3-0.2-0.4c-0.1,0.1-0.1,0.3-0.3,0.3c0-0.1-0.1-0.3,0-0.3l0.1,0.1
	c-0.1-0.1,0-0.4-0.2-0.2l0.3-0.2c-0.2-0.1-0.1-0.3-0.2-0.5c0.2,0,0.5,0.2,0.6-0.1l-0.2-0.3c0-0.1,0-0.2,0.2-0.1
	c0.2-0.5-0.6-0.6-0.4-1c0.3,0.2,0.3,0.1,0.4-0.1c0,0-0.1,0-0.1-0.1c-0.1,0,0.2,0.1,0,0.2c-0.2,0-0.1-0.2-0.2-0.3
	c0.7-0.3,0.3-1.2,0.6-1.7c-0.4,0-0.1-0.3-0.2-0.4c0.4,0.1,0-0.3,0.2-0.4l-0.4,0c0.2-0.3-0.5-0.6,0-0.7c0.1-0.2,0.2,0.1,0.3,0.2
	c0.4-0.1-0.2-0.7,0.3-0.7C40,9,39.8,8.9,39.7,8.7c0.2-0.1,0.5-0.3,0.6-0.2c0-0.1-0.1-0.2,0.1-0.3c0.1,0.1,0.1,0.1,0.1,0.2
	c0.2-0.1,0.1-0.3,0.1-0.5c0.3,0.1,0.4-0.2,0.6-0.1c-0.1-0.4,0.3,0,0.2-0.4c0,0,0.1,0.1,0.1,0.1c0-0.1,0-0.4,0.1-0.5l0,0.3
	c0.1,0.4,0.3,0,0.4,0.2c-0.1-0.2,0.1,0,0.1-0.2c0,0,0.1-0.1,0.1-0.1c0.2-0.1,0-0.1,0.3-0.2c0.2,0,0,0.3,0,0.3
	c0.1,0.2,0.2,0.1,0.4,0.1c0,0-0.1,0,0-0.1c0,0,0,0.1,0,0.1c0.1,0,0.1,0,0.2,0c0,0,0,0,0,0c-0.1,0-0.1,0-0.1,0c0,0,0.1,0,0.1,0.1
	c0,0,0,0,0,0c0,0,0.1,0,0.1,0.1l-0.1,0.2c0.1,0,0.4-0.1,0.4-0.2c0.3,0.3,1.1,0.5,1.3,0.5c-0.1-0.1-0.2,0.1-0.1,0
	c0.1,0,0.4,0,0.3,0.1c0.2,0,0,0.2,0.2,0.3c0,0,0.2-0.2,0.1-0.2c0,0.5,0.8,0.4,0.9,0.9c0-0.1-0.2,0-0.3,0c0.3,0.2,0.6,0.4,1,0.5
	c-0.1,0-0.2,0.1-0.3,0.1c0.1,0.2,0.4,0.4,0.6,0.4c0-0.2-0.1,0.1-0.2,0c0.1-0.3,0.4-0.1,0.5,0.1l0,0c0.1,0.2,0.2,0.2,0.4,0.4
	c0,0.2-0.1-0.1-0.2,0c-0.3,0.2,0.1,0.6,0.1,0.7c0.1,0,0.2,0.1,0.3,0c0.2,0.1-0.2,0.2-0.1,0.3c0.3,0.1,0.6,0.1,0.9,0.2
	c-0.1-0.1-0.2,0.3-0.4,0.2c0.2,0.4,0.7,0.4,1,0.6c0,0.1,0.3,0.5,0.3,0.6c-0.2,0.1,0-0.1-0.2-0.1l-0.2,0.3c-0.1-0.3-0.3,0.1-0.5,0
	c0.2,0.2,0.2,0.7,0.2,1.1c0.4-0.3,0.3,0.4,0.7,0.3c0.1,0.4-0.3,0.2-0.3,0.4c0.2,0.4,0.2,0.8,0.2,1.1c0,0,0,0-0.1,0
	c0.2,0.3,0.1,0.9,0.4,1.2c-0.1,0-0.1,0-0.2-0.1c-0.1,0.4,0.5,0,0.3,0.5l-0.2-0.1c0.2,0.3-0.1,0.5,0.1,0.8c-0.1,0-0.1-0.1-0.2-0.1
	c0.1,0.3,0,0.6,0.3,0.8c-0.1,0-0.2,0-0.3-0.1c-0.1,0.3,0.3,0.3,0.2,0.5c0,0.1-0.2,0.2-0.2,0.2c0.2,0.1,0.1,0.5,0.2,0.6
	c-0.1,0-0.2,0.1-0.3,0.3c-0.1,1.4-0.2,2.8,0,4.2c-0.4,0.2-0.2-0.3-0.5-0.2c0.3,0,0.1,0.2,0.2,0.7l0,0c0.1,0.2-0.2,0.3-0.1,0.5l0.1,0
	c0.2,0.2-0.4,0.4,0,0.6l-0.2,0.1c0.4,0.2-0.1,0.3,0.2,0.6l-0.1,0c-0.2,0.3,0.3,0.7,0,0.8c0,0.3,0.1,0.6,0.4,0.7
	c-0.1,0.1-0.3,0-0.4,0c0.1,1.1-0.1,2.2,0.2,3.2c-0.1,0-0.1,0-0.2-0.1c0.3,0.6-0.4,1.2,0.2,1.7l0.3,0.2c-0.1,0.1-0.3,0.1-0.4,0.2
	c0.2,0.1,0,0.5,0.2,0.6c-0.1,0.1-0.1,0-0.2,0c-0.1,0.3,0.3,0.6,0.2,0.9l-0.1-0.1c-0.5,1.3-1,3-0.5,4.2c0.1,0.3-0.4,0.1-0.3,0.2
	c0.4,1.2-0.5,2.5,0.2,3.6c0.1,0.4,0.3,0.6,0.5,0.8c0,0,0,0,0,0c-0.2,0.2-0.2,0.4,0,0.5c-0.1-0.1-0.2,0.1-0.3-0.1
	c-0.1,0.2-0.1,0.3,0,0.4c0,0,0.1-0.1,0.1-0.1c0.1,0.2,0.1,0.3,0.3,0.4c0-0.1-0.1-0.1,0-0.2c0.2,0.1,0.1,0.4-0.1,0.4
	c-0.2,0-0.2-0.3-0.4-0.3l0.3,0.7c-0.1-0.2,0.1-0.3,0.3-0.1l0-0.2l0.2,0.1c0.1-0.3,0.4-0.5,0.4-0.8l-0.3,0c0.1-0.1,0-0.3,0.1-0.4
	c0,0,0.1,0,0.1,0c0,0,0-0.1,0-0.1c0,0,0,0,0.1,0c0,0.1,0.2,0.1,0.3,0.2c0-0.1-0.1-0.1,0-0.2l0.3,0.3c-0.4-0.3,0.1-0.6,0-0.7l0.1,0.1
	c0.3-0.2-0.2,0-0.1-0.2c0.1-0.1,0.4,0.1,0.6,0c0.1-0.3,0.1-0.9,0.5-1.1c0.1-0.3,0.1-0.6,0-0.9c0.1-0.2,0.4,0.2,0.3-0.1
	c0.1,0.1,0.3,0.1,0.4,0.2c-0.1-0.1,0.2-0.4-0.2-0.4c0.2-0.3,0.4-0.6,0.5-1c0,0.1,0.2,0.3,0.3,0.2c-0.1-0.3-0.1-0.6,0.1-0.9
	c-0.2-0.1-0.3,0-0.5-0.1c0-0.1-0.1-0.2,0-0.2c0.3,0.1,0.6,0.3,0.7,0c0.3,0.2-0.3,0.4,0.2,0.5c0.2,0.3,0,0.7-0.2,0.7
	c0.2,0.4,0.1-0.2,0.4,0c0.1-0.2,0-0.4,0.1-0.7c-0.2-0.1-0.2,0-0.3-0.2c-0.2-0.4,0.4-0.2,0.5-0.3c0,0.1,0,0.1,0,0.2
	c0.2-0.1,0-0.3,0.1-0.5c0.4,0.2-0.1,0.3,0.1,0.5l0.4,0c0.2-0.3-0.3-0.3,0-0.5l0.1,0.1l0-0.2c-0.2-0.1-0.4-0.2-0.5,0
	c-0.3-0.3,0-0.2,0.1-0.5c-0.2-0.2,0,0.1-0.3,0c-0.2-0.1-0.1-0.3-0.1-0.4c0.1-0.2,0.3,0,0.5,0c0,0.1,0,0.2-0.2,0.2
	c0.1,0.4,0.5,0.1,0.6,0.4c0.2-0.1-0.1-0.3-0.1-0.4c-0.1,0.1-0.2-0.1-0.3-0.1c-0.4-0.7,0.6,0,0.6-0.4c-0.4-0.1-0.3-0.7-0.9-0.7
	c0-0.1-0.1-0.3,0-0.3c0.2,0.2,0.3-0.1,0.5,0.2l0.1-0.1l0.2,0.3c0.3,0,0.6-0.2,0.7-0.2c0-0.2-0.3-0.1-0.2-0.3c0.1,0.1,0.3,0.1,0.3,0
	c-0.2,0.1-0.4-0.2-0.4-0.3c0.1-0.2,0.4-0.2,0.5-0.2l0.1,0.3c-0.1-0.2,0.1,0,0.1-0.2c-0.1-0.1-0.3-0.3-0.5-0.5c0-0.2,0.2-0.1,0.2-0.2
	l0.1,0.3c0.1-0.3,0.4,0.1,0.5-0.2l-0.2-0.2c0.1,0,0.2,0,0.2,0.1c-0.1-0.1,0-0.2-0.1-0.3l0.1,0.1c0-0.2-0.3-0.4,0.1-0.4
	c-0.4-0.1-0.1,0.1-0.3,0.2c-0.3,0-0.1-0.3-0.2-0.4c0.4,0.2,0.2-0.3,0.2-0.4c0.2,0,0.3,0,0.4-0.1l-0.2-0.2c0.5,0.2,0-0.3,0.2-0.4
	c0.1,0.1,0.3,0.2,0.4,0.2c-0.4,0-0.3-0.4-0.6-0.5c0.2-0.2,0.4,0.3,0.7,0.3c-0.2-0.3,0.3-0.2,0-0.5c-0.2,0.1-0.2-0.1-0.3-0.2
	c0.1-0.2,0.1,0.1,0.3,0c0-0.1-0.2-0.4-0.4-0.3c0.1-0.1-0.1-0.4,0.2-0.5c0.2,0,0,0.3,0.2,0.3c0.2-0.3-0.4-0.4-0.4-0.8
	c-0.2,0.1-0.5-0.2-0.6-0.4c0.3-0.3,0.1,0.2,0.4,0.2l0-0.2c0.5,0,0.4,0.7,0.8,0.7l-0.1-0.2c0.1,0.1,0.3,0.2,0.4,0.2
	c-0.2-0.2,0.1-0.4,0.1-0.4c-0.2-0.1,0,0.1-0.2,0c0-0.2-0.3-0.4-0.1-0.6c0.1,0.2,0.3,0.1,0.4,0.2c0.1-0.1-0.2-0.2,0-0.3l0.1,0.1
	c0.3-0.6,0.7-1.4,0.4-2.2c0.3,0,0.4-0.2,0.7-0.4c-0.1,0.1-0.2-0.1-0.2-0.2l0.3,0c0.2-0.1,0.1-0.4,0.1-0.7c0.1,0,0.1,0,0.2,0.1
	c0.2-0.1-0.1-0.2-0.1-0.3l0.2,0l-0.2-0.1c0-0.2,0.1-0.4,0.4-0.2c0-0.1,0-0.2-0.2-0.2c0.2,0,0.5-0.4,0.6-0.7c-0.1,0.1-0.2,0-0.4-0.1
	c-0.3-0.2,0.1,0,0-0.2c0.1,0.1,0.3,0,0.3,0.2c0.6-0.1,0.6-0.7,1-1c0-0.1,0-0.1-0.1-0.2c0.5,0,0.5-0.5,0.8-0.6
	c-0.1-0.1-0.3-0.4-0.2-0.6c0-0.4,0.3,0.3,0.5,0.3c0-0.2,0.1-0.3,0.2-0.3l0,0c0-0.2,0.1-0.4,0.3-0.3l0,0c0.1,0,0.3,0.1,0.4,0
	c-0.1-0.3,0.2-0.2,0.2-0.5c0,0,0,0,0.1,0.1l-0.1-0.2l0.2,0c0,0.1,0,0.2,0,0.3c0.3,0.1,0-0.2,0-0.4c0.1-0.2,0.2,0,0.3,0.1
	c0,0.1-0.1,0-0.1,0c0,0.2,0.1,0,0.2,0.2c0,0,0-0.3,0.1-0.3c0.1,0,0.3-0.1,0.3,0.1c0-0.1,0.1-0.1,0.2-0.3c-0.1,0-0.2,0-0.3-0.2
	c0.1,0,0.2-0.2,0.2-0.1l0,0.1c0-0.1,0.3,0,0.1-0.2l0.2,0.3c0-0.2,0.2-0.2,0.3-0.3c0,0.2,0,0.5,0.2,0.6c0.1-0.1,0.1-0.2,0.2-0.3
	c0.1,0,0.1,0,0.1,0.2c0.3,0.1,0.4-0.7,0.7-0.4c-0.2,0.3-0.1,0.3,0,0.4c0,0,0-0.1,0.1-0.1c0-0.1-0.1,0.2-0.2,0c0-0.2,0.1-0.1,0.2-0.2
	c0.1,0.7,0.8,0.3,1,0.8c0.1-0.3,0.2,0,0.3-0.1c-0.2,0.3,0.2,0.1,0.2,0.3l0.2-0.3c0.1,0.3,0.7-0.2,0.5,0.3c0,0.2-0.2,0.2-0.3,0.2
	c-0.2,0.4,0.6,0.1,0.3,0.5c0.1-0.1,0.3-0.3,0.5-0.2c0,0.2-0.1,0.5-0.2,0.5c0.1,0.1,0.2,0,0.2,0.2c-0.1,0-0.1,0-0.2,0
	c0,0.2,0.2,0.2,0.4,0.4c-0.2,0.2,0,0.4-0.1,0.7c0.4,0.1-0.1,0.3,0.3,0.3c0,0-0.1,0-0.1,0c0.1,0.1,0.4,0.1,0.4,0.3l-0.3,0
	C69.2,25.9,69.4,26.2,69.3,26.3z M38.4,68C38.4,67.8,38.4,68.1,38.4,68C38.4,68.2,38.4,68,38.4,68z M34.1,72L34,71.9L34.1,72
	L34.1,72z M44.9,68.3c0,0,0,0.2,0,0.1c0-0.1,0-0.1,0.1-0.1C45.1,68.2,45,68.3,44.9,68.3z M32.7,75.3L32.7,75.3l0.3,0.1L32.7,75.3z
	 M48.3,88.2l0.1,0l-0.1-0.1L48.3,88.2z M41.7,91.1c0,0,0.1,0.2,0.1,0.1C41.7,91.3,41.8,91.1,41.7,91.1z M48.2,70.6
	c0-0.1,0-0.3,0-0.5C48.1,70.3,48.2,70.4,48.2,70.6z M38.1,92.7l0.1,0.3L38.1,92.7L38.1,92.7z M41.5,69.7c0,0.1,0,0,0-0.1
	C41.4,69.4,41.5,69.6,41.5,69.7z M32.6,73.9c0,0-0.1-0.1-0.1-0.1C32.5,73.8,32.7,74,32.6,73.9z M43.4,67.4c0,0.1,0,0.2,0.1,0.2
	C43.5,67.4,43.3,67.5,43.4,67.4z M42.3,57.4L42.3,57.4l0-0.1L42.3,57.4z M42,66.5c0,0.2,0.1,0.1,0.1,0.1C42.2,66.4,42,66.6,42,66.5z
	 M41.3,66.4C41.4,66.4,41.4,66.4,41.3,66.4l0.1-0.1C41.4,66.3,41.3,66.4,41.3,66.4z M44.8,68c0-0.1,0.1-0.2,0-0.3
	c-0.1,0.2-0.1,0.5,0,0.6c0,0,0,0,0,0.1c0-0.1,0-0.2,0.1-0.2C44.9,68.1,44.9,67.8,44.8,68z M45,68C45,68,44.9,68.1,45,68
	C44.9,68.1,45,68.1,45,68z M44.2,68.1l0.4-0.2C44.4,67.9,44.2,68,44.2,68.1z M43.6,67.3c0-0.1,0.1-0.1,0.1-0.2
	C43.6,67.1,43.6,67.2,43.6,67.3z M57.2,71.7c-0.1,0-0.1-0.1-0.2-0.1C57,71.7,57,71.7,57.2,71.7z M57.9,69.9c0,0.1,0,0.1,0.1,0.1
	C58,70,58,70,57.9,69.9z M58.1,69.9c-0.1,0,0,0.1,0,0.1c0,0,0.2,0,0.1,0C58.2,69.9,58.1,69.9,58.1,69.9z M57.8,70.2
	c-0.1,0-0.2-0.1-0.3,0c0.2,0.1,0.5,0.1,0.6-0.1c0,0,0,0,0.1,0c-0.1,0-0.2,0-0.2-0.1C57.9,70.1,57.7,70.1,57.8,70.2z M69.4,27.2
	C69.4,27.2,69.4,27.2,69.4,27.2C69.4,27.2,69.4,27.2,69.4,27.2C69.4,27.2,69.4,27.2,69.4,27.2z M49,44.9C49,44.8,49,44.8,49,44.9
	C49,44.8,49,44.8,49,44.9z M58,70.9l-0.2-0.4C57.8,70.6,57.8,70.9,58,70.9z M46,9.2C45.9,9.2,45.9,9.2,46,9.2
	C45.9,9.2,45.9,9.2,46,9.2z M37.9,56.2C37.9,56.2,37.9,56.2,37.9,56.2C37.9,56.2,37.9,56.2,37.9,56.2C37.9,56.2,37.9,56.2,37.9,56.2
	z M42.9,7.3C42.9,7.3,42.9,7.3,42.9,7.3C42.9,7.3,42.9,7.3,42.9,7.3C42.9,7.3,42.9,7.3,42.9,7.3z M48.4,70.6c0.1,0.1,0.1,0,0.1-0.1
	C48.4,70.3,48.6,70.5,48.4,70.6z M52.3,58l0.1-0.3L52.3,58L52.3,58z M56.5,73.8c0.2,0,0.1-0.1,0.1-0.2
	C56.4,73.5,56.6,73.8,56.5,73.8z M56.5,74.6C56.5,74.6,56.5,74.6,56.5,74.6l-0.2-0.1C56.3,74.6,56.4,74.6,56.5,74.6z M60.7,66.4
	c-0.1,0-0.3,0-0.5,0C60.4,66.6,60.5,66.5,60.7,66.4z M48.6,57.6c0.1,0,0,0.2,0,0.2C48.7,57.8,48.8,57.6,48.6,57.6z M60.7,66.2
	c0.1-0.1,0-0.1-0.1-0.2C60.4,66.2,60.7,66,60.7,66.2z M57.5,71.8c-0.2-0.1-0.1,0.1-0.2,0.1C57.4,71.9,57.5,71.9,57.5,71.8z
	 M37.3,52.4C37.3,52.4,37.3,52.4,37.3,52.4C37.4,52.4,37.3,52.4,37.3,52.4z"/>
</svg>
