<?xml version="1.0" encoding="utf-8"?>
<!-- Generator: Adobe Illustrator 27.1.1, SVG Export Plug-In . SVG Version: 6.00 Build 0)  -->
<svg version="1.1" id="Capa_1" xmlns="http://www.w3.org/2000/svg" xmlns:xlink="http://www.w3.org/1999/xlink" x="0px" y="0px"
	 viewBox="0 0 260 80" style="enable-background:new 0 0 260 80;" xml:space="preserve">
<style type="text/css">
	.st0{fill:#C0C0C0;}
</style>
<path class="st0" d="M117.2,46c-0.3-0.1-0.5-0.2-0.8-0.2c-0.2,0-0.4-0.1-0.6-0.1c-0.1,0-0.2,0.1-0.3,0.1c-0.1,0-0.2,0-0.3,0.1
	l-0.2-0.4c-0.2-0.1-0.3-0.1-0.5-0.2c-0.2,0-0.3-0.1-0.5-0.1c-0.9,0-1.7,0.2-2.4,0.9c-0.7,0.6-1.3,1.3-1.9,2.2
	c-0.5,0.9-1,1.7-1.4,2.6c-0.4,0.9-0.6,1.6-0.8,2.1c0,0.1,0,0.2,0,0.3c0,0.4,0,0.7,0.2,1.1s0.3,0.6,0.6,0.9c0.2,0.3,0.5,0.5,0.8,0.7
	c0.3,0.2,0.6,0.4,0.9,0.5c0.6-0.1,1.2-0.2,1.7-0.4c0.5-0.2,0.9-0.4,1.2-0.7c0.4-0.3,0.7-0.6,0.9-1c0.3-0.4,0.5-0.8,0.7-1.2
	c0,0.5,0.1,1,0.1,1.4c0,0.4,0,0.9,0,1.3c0,0.4,0,0.8,0,1.3c0,0.4,0,0.9-0.1,1.3c-0.1,1.7-0.3,3-0.6,3.8c-0.3,0.9-0.7,1.6-1.1,2
	c-0.4,0.5-0.8,0.8-1.2,1.1c-0.4,0.2-0.7,0.5-0.8,0.9c0.1,0.4,0.2,0.7,0.4,0.8c0.2,0.1,0.5,0.2,0.8,0.3c0.6,0,1.1-0.2,1.5-0.4
	c0.4-0.2,0.7-0.4,1-0.7c0.3-0.3,0.5-0.5,0.6-0.8c0.2-0.3,0.3-0.5,0.5-0.7c0.5-0.8,0.9-1.8,1.1-2.7c0.2-1,0.3-2,0.3-3
	c0.1-2.1,0.1-3.9,0.1-5.5c0-1.6,0-3.2,0.1-4.6c0-0.5,0-1,0-1.4C117.2,47,117.2,46.5,117.2,46z M114.5,47.7c-0.1,0.2-0.1,0.4-0.1,0.7
	c-0.3,0.7-0.5,1.4-0.8,2.1c-0.3,0.7-0.6,1.2-0.9,1.8c-0.3,0.5-0.7,0.9-1,1.2c-0.3,0.3-0.7,0.5-1,0.5c-0.4-0.1-0.6-0.3-0.6-0.6
	c0-0.4,0.1-0.8,0.3-1.1c0.2-0.4,0.3-0.8,0.5-1.2c0.2-0.4,0.4-0.8,0.7-1.1c0.2-0.4,0.4-0.7,0.6-1.1c0.2-0.2,0.3-0.4,0.5-0.6
	c0.2-0.2,0.3-0.4,0.5-0.6c0.2-0.2,0.4-0.3,0.6-0.4c0.2-0.1,0.5-0.2,0.8-0.2C114.6,47.3,114.5,47.5,114.5,47.7z M127.7,31.6
	c-0.1-0.1-0.2-0.3-0.3-0.3c-0.1-0.1-0.2-0.1-0.3-0.2c-0.5,0.3-1,0.6-1.5,0.9c-0.4,0.3-1,0.4-1.6,0.4c-0.1,0-0.2,0-0.5-0.1
	c-0.2-0.1-0.5-0.2-0.8-0.5s-0.5-0.6-0.7-1c-0.2-0.4-0.3-1.1-0.3-1.8c0,0,0-0.1,0-0.2c0-0.1,0-0.2,0-0.3c0.3,0.1,0.5,0.2,0.7,0.2
	c0.2,0.1,0.4,0.1,0.7,0.1c0.6,0,1.2-0.1,1.7-0.3c0.5-0.2,0.9-0.5,1.3-0.8c0.3-0.3,0.6-0.7,0.8-1.2c0.2-0.4,0.3-0.9,0.3-1.4
	c0-0.4,0-0.7-0.2-1.1c-0.1-0.3-0.3-0.7-0.6-0.9c-0.3-0.3-0.6-0.5-1-0.7c-0.4-0.2-0.9-0.3-1.4-0.3c-0.8,0-1.4,0.1-2,0.5
	c-0.6,0.4-1.1,0.8-1.5,1.4c-0.4,0.6-0.7,1.3-1,2.1c-0.2,0.8-0.4,1.5-0.4,2.3c0,0.5,0,1,0,1.4c0,0.4,0.1,0.9,0.3,1.3
	c0.1,0.4,0.3,0.8,0.6,1.2c0.3,0.4,0.6,0.8,1.1,1.2c0.3,0.2,0.7,0.4,1.2,0.5c0.5,0.2,0.9,0.3,1.2,0.3c0.7,0,1.4,0,1.8-0.1
	s1-0.4,1.5-0.8c0.2-0.1,0.3-0.3,0.5-0.5c0.1-0.2,0.2-0.4,0.3-0.7c0-0.1,0-0.3,0-0.3C127.7,31.9,127.7,31.8,127.7,31.6z M122.2,25.9
	c0.1-0.3,0.2-0.5,0.3-0.7c0.1-0.2,0.2-0.3,0.3-0.4c0.1-0.1,0.2-0.2,0.3-0.3c0.1-0.2,0.3-0.3,0.5-0.3c0.2,0,0.4,0,0.6,0
	c0.3,0,0.5,0.1,0.7,0.4c0.2,0.3,0.2,0.5,0.2,0.8c0,0.5-0.2,0.9-0.6,1.2c-0.4,0.3-1,0.5-1.7,0.5c-0.1,0-0.2,0-0.4,0
	c-0.2,0-0.3,0-0.4-0.1C122,26.5,122.1,26.2,122.2,25.9z M130.9,52.6c-0.1-0.8-0.1-1.7-0.2-2.6c0-0.9,0-1.7,0-2.5c0-0.2,0-0.4,0-0.7
	c0-0.2,0-0.4,0.1-0.6c-0.1-0.2-0.2-0.3-0.4-0.5c-0.1-0.2-0.4-0.3-0.6-0.4c-0.2,0-0.4,0.1-0.6,0.1c-0.2,0-0.4,0.1-0.6,0.1
	c-0.4,0.2-0.6,0.5-0.6,1c0,1.1,0,2.1,0.1,3c0.1,1,0.1,2,0.1,3c0,0.4,0,0.7,0.1,1.1c0.1,0.4,0.1,0.7,0.1,1.1c0,0.6,0,1.1,0.1,1.4
	s0.3,0.6,0.5,0.8c0.2,0.2,0.5,0.3,0.8,0.4c0.3,0.1,0.6,0.1,1,0.1c0.2-0.2,0.4-0.4,0.5-0.6c0.1-0.2,0.1-0.3,0.1-0.5l0-0.1
	c0-0.4-0.1-0.9-0.1-1.5C131,54.2,130.9,53.4,130.9,52.6z M131,39.2c-0.2-0.1-0.4-0.3-0.6-0.3c-0.2-0.1-0.4-0.1-0.6-0.1
	c-0.3,0-0.5,0-0.6,0.1c-0.3,0.2-0.5,0.3-0.6,0.5c-0.1,0.2-0.1,0.4-0.1,0.6c0,0.1,0,0.2,0.2,0.3c0.1,0.1,0.3,0.2,0.4,0.3
	c0.2,0.1,0.4,0.2,0.6,0.3c0.2,0.1,0.5,0.1,0.7,0.1c0.4,0,0.6,0,0.8-0.2c0.2-0.1,0.3-0.4,0.3-0.8c0-0.2,0-0.4-0.1-0.5
	C131.3,39.5,131.2,39.4,131,39.2z M105.6,51.9c-0.1-0.7-0.1-1.4-0.2-2.1c-0.1-0.7-0.3-1.3-0.5-2c-0.1-0.3-0.2-0.6-0.3-0.9
	c-0.1-0.3-0.1-0.6-0.2-0.9c-0.1-0.3-0.2-0.5-0.4-0.8c-0.2-0.2-0.4-0.4-0.8-0.5c-0.4,0-0.8,0.1-1.2,0.4c-0.4,0.3-0.8,0.7-1.1,1.1
	c-0.4,0.4-0.7,0.9-0.9,1.4s-0.5,0.9-0.6,1.2L99.3,49c-0.2,0.4-0.4,0.8-0.6,1.3c-0.2,0.4-0.4,0.8-0.7,1.1l0-0.2c0-0.5,0.1-1,0.1-1.6
	c0-0.5,0.1-1.2,0.1-2c0-0.2,0-0.4,0-0.7c0-0.2-0.1-0.4,0-0.7c0-0.2,0-0.4,0-0.6c0-0.2,0-0.5-0.1-0.7c-0.1-0.2-0.2-0.4-0.3-0.6
	c-0.1-0.2-0.4-0.2-0.6-0.3c-0.1,0-0.2,0-0.3,0c-0.1,0-0.2,0-0.4,0c-0.2,0.1-0.4,0.3-0.5,0.5c-0.1,0.2-0.2,0.5-0.2,0.7
	c0,0.4,0,0.7,0,1.1c0,0.4,0,0.7,0,1.1c-0.1,1.2-0.1,2.4-0.2,3.5c-0.1,1.1-0.1,2.3-0.2,3.6c0,0.3,0.1,0.5,0.4,0.8
	c0.3,0.2,0.5,0.3,0.7,0.3c0.2,0,0.4,0,0.6,0c0.2,0,0.4-0.1,0.7-0.3c0.2-0.1,0.5-0.4,0.8-0.7c0.3-0.3,0.6-0.8,1-1.4
	c0.3-0.4,0.5-0.8,0.7-1.3c0.2-0.4,0.4-0.8,0.6-1.3c0.2-0.4,0.4-0.9,0.7-1.4c0.2-0.5,0.5-1,0.9-1.5c0.2,0.3,0.3,0.6,0.4,1
	c0.1,0.4,0.2,0.8,0.2,1.3c0.1,0.5,0.1,0.9,0.2,1.4c0,0.4,0.1,0.9,0.2,1.2c0.1,0.3,0.1,0.7,0.2,1.1c0,0.4,0.1,0.9,0.2,1.3
	c0.1,0.4,0.2,0.8,0.4,1c0.2,0.3,0.5,0.4,0.9,0.5c0.2,0,0.5-0.1,0.9-0.2c0.3-0.1,0.5-0.4,0.6-0.7c-0.2-0.6-0.4-1.2-0.5-1.9
	C105.8,53.3,105.7,52.6,105.6,51.9z M135.4,26.6c0.2-0.3,0.4-0.5,0.7-0.8c0.3-0.3,0.5-0.5,0.8-0.8c0.2-0.2,0.5-0.5,0.7-0.7
	c0.2-0.2,0.3-0.4,0.4-0.6c-0.1-0.4-0.4-0.7-0.7-0.9c-0.3-0.2-0.7-0.3-1.2-0.3c-0.2,0-0.5,0-0.6,0.1c-0.3,0.2-0.6,0.5-0.9,0.8
	c-0.3,0.3-0.6,0.7-0.8,1.1c-0.3,0.4-0.5,0.7-0.8,1c-0.2,0.3-0.5,0.5-0.7,0.7l0-1.7c0-0.2,0-0.5,0-0.7c0-0.3-0.1-0.5-0.2-0.7
	c-0.1-0.2-0.2-0.4-0.4-0.5c-0.2-0.1-0.5-0.2-0.8-0.2c-0.4,0-0.6,0-0.8,0.2c-0.2,0.1-0.3,0.3-0.4,0.6c0,0.2,0,0.4,0.1,0.6
	c0.1,0.2,0.1,0.4,0.1,0.5l0,0.1c0,0.5,0,0.9,0,1.4c0,0.5,0,0.9,0,1.4l0,1c0,0,0,0.2,0,0.5c0,0.3,0,0.6,0,1c0,0.4,0,0.8,0,1.3
	c0,0.5,0,0.9,0,1.3c0,0.4,0,0.8-0.1,1c0,0.3-0.1,0.5-0.1,0.6l0,0.1c0,0.4,0.1,0.7,0.3,0.9c0.2,0.2,0.5,0.4,0.9,0.4
	c0.3,0,0.6,0,0.8-0.2c0.2-0.1,0.4-0.3,0.5-0.5c0.1-0.2,0.2-0.4,0.3-0.7c0.1-0.3,0.1-0.5,0.1-0.8c0-0.2,0-0.4,0-0.7
	c0-0.3,0-0.5,0-0.7c0-0.3,0.1-0.6,0.3-1.1c0.2-0.4,0.4-0.9,0.7-1.4c0.3-0.5,0.6-1,0.9-1.4C134.7,27.3,135,26.9,135.4,26.6z
	 M227.6,51.9c-0.2-0.5-0.5-0.9-0.8-1.3c-0.4-0.4-0.9-0.6-1.5-0.6c-0.3,0-0.7,0-1,0.1c-0.3,0.1-0.6,0.2-0.8,0.3
	c-0.2,0.1-0.4,0.3-0.6,0.4c-0.2,0.1-0.2,0.2-0.3,0.2c-0.6,0.7-1,1.2-1.2,1.5c-0.3,0.4-0.5,0.7-0.7,1.1c0-0.1,0-0.2,0-0.4
	c0-0.2,0-0.4,0-0.7c0-0.2,0-0.5,0-0.6c0-0.2,0-0.3,0-0.3l0.3-3.5c0.1-1.3,0.3-2.6,0.5-3.7c0.2-1.2,0.4-2.4,0.6-3.7
	c0-0.2-0.1-0.4-0.3-0.4c-0.2-0.1-0.3-0.1-0.5-0.1c-0.2,0-0.6,0-0.9,0.1c-0.4,0.1-0.6,0.2-0.7,0.5c-0.1,0.4-0.2,0.8-0.3,1.2
	c-0.1,0.4-0.1,0.8-0.1,1.1c-0.3,2-0.6,3.9-0.7,5.6c-0.1,1.7-0.2,3.5-0.3,5.2c0,0.4,0,0.8,0,1.4c0,0.5,0,1,0.1,1.5
	c0,0.5,0.1,0.9,0.1,1.2c0,0.3,0.1,0.5,0.2,0.6c0.1,0.2,0.1,0.5,0.2,0.7c0.1,0.3,0.2,0.5,0.3,0.7c0.1,0.2,0.2,0.4,0.3,0.6
	c0.1,0.2,0.2,0.3,0.3,0.4c0.5,0.2,1,0.3,1.5,0.4c0.5,0.1,1,0.2,1.5,0.2c0.5,0,1.1-0.1,1.8-0.3c0.7-0.2,1.2-0.5,1.7-0.9
	c0.4-0.3,0.7-0.7,0.9-1.2c0.2-0.5,0.4-1,0.6-1.5c0.1-0.5,0.3-1,0.3-1.4c0.1-0.5,0.1-0.8,0.1-1.1c0-0.5,0-1-0.1-1.6
	C227.9,52.9,227.8,52.4,227.6,51.9z M225.3,54.7c0,0.5-0.1,1-0.2,1.5c-0.1,0.5-0.2,1.1-0.4,1.5c-0.2,0.5-0.5,0.9-0.8,1.2
	c-0.3,0.3-0.8,0.5-1.3,0.5c-0.3,0-0.6,0-0.8-0.1c-0.2-0.1-0.4-0.2-0.6-0.5c0-0.4,0.1-0.7,0.2-1c0.1-0.3,0.1-0.6,0.2-0.8
	c0.1-0.3,0.2-0.5,0.3-0.8c0.1-0.3,0.2-0.5,0.3-0.8l0.1-0.2c0.1-0.2,0.3-0.5,0.5-0.9c0.2-0.3,0.5-0.6,0.7-0.9
	c0.3-0.3,0.5-0.5,0.8-0.7c0.2-0.2,0.4-0.3,0.6-0.3c0.1,0,0.2,0.1,0.3,0.3c0.1,0.2,0.1,0.4,0.2,0.6c0,0.2,0.1,0.5,0.1,0.7
	C225.4,54.3,225.3,54.5,225.3,54.7z M116.8,29.2c0-0.4,0-0.7-0.1-1.2c0-0.4-0.1-0.8-0.1-1.1c0-0.3,0-0.8-0.1-1.3
	c-0.1-0.5-0.2-1-0.4-1.5c-0.2-0.5-0.5-0.9-0.8-1.3c-0.3-0.4-0.8-0.6-1.4-0.7c-0.4,0-0.7,0.1-1.1,0.3s-0.7,0.5-1.1,0.9
	c-0.3,0.4-0.7,0.8-1,1.3c-0.3,0.5-0.6,1-0.8,1.6c0-0.7,0.1-1.4,0.1-2.1c0-0.7,0.1-1.4,0.1-2.1c0-0.7,0.1-1.5,0.2-2.2
	s0.1-1.6,0.2-2.5c0-0.5,0.1-0.9,0.2-1.3c0.1-0.4,0.2-0.9,0.2-1.4c0-0.4-0.1-0.8-0.3-1.1c-0.2-0.3-0.5-0.5-0.9-0.5
	c-0.2,0-0.6,0-0.9,0.1c-0.2,0.5-0.3,1.1-0.4,1.8c-0.1,0.7-0.2,1.4-0.3,2.2c-0.1,0.8-0.1,1.6-0.2,2.4c-0.1,0.8-0.1,1.6-0.1,2.3
	c-0.1,1.2-0.1,2.5-0.1,3.8c0,1.3,0,2.5-0.1,3.7l0,0.6c0,0.5,0,0.9,0,1.4c0,0.4,0.1,0.9,0.2,1.2c0.1,0.4,0.3,0.7,0.6,0.9
	c0.3,0.2,0.7,0.4,1.2,0.4c0.1,0,0.3-0.1,0.4-0.2c0.1-0.1,0.2-0.3,0.3-0.5c0.1-0.2,0.1-0.4,0.2-0.6c0-0.2,0.1-0.5,0.1-0.7l0-0.1
	c0,0,0-0.1,0-0.1c0,0,0,0,0-0.1l0-0.2c0-0.1,0.1-0.4,0.2-0.7c0.1-0.3,0.2-0.7,0.3-1.2c0.1-0.5,0.3-0.9,0.5-1.4
	c0.2-0.5,0.4-1,0.6-1.4c0.2-0.4,0.4-0.8,0.7-1.1c0.2-0.3,0.5-0.5,0.7-0.6c0.1,0,0.2,0.1,0.2,0.4c0.1,0.2,0.1,0.5,0.2,0.9
	s0.1,0.7,0.1,1.1c0,0.4,0,0.7,0,0.9c0,0.3,0,0.8,0,1.5c0,0.7,0.1,1.3,0.2,2c0.1,0.7,0.3,1.2,0.6,1.8c0.3,0.5,0.7,0.8,1.2,0.8
	c0.2,0,0.4-0.1,0.6-0.2c0.2-0.2,0.4-0.3,0.4-0.5c0-0.6-0.1-1.3-0.3-2C117,30.6,116.8,29.9,116.8,29.2z M105.9,19.7
	c-0.5,0-1,0-1.4,0.2c-0.4,0.2-0.9,0.2-1.4,0.2c-0.2,0-0.3-0.1-0.3-0.2c0-0.1,0-0.2,0-0.3c0-0.3,0-0.5,0-0.8c0-0.2,0-0.5,0-0.7
	c0-0.3,0-0.7,0.1-1c0-0.3,0-0.6,0.1-1c0-0.3,0-0.6,0-0.9c0-0.3,0-0.7,0-1.1c0-0.2,0-0.5,0-0.7c0-0.2-0.1-0.5-0.2-0.6
	s-0.3-0.4-0.5-0.5c-0.2-0.1-0.5-0.2-0.8-0.2c-0.2,0-0.3,0-0.4,0.1c-0.1,0-0.2,0.1-0.4,0.2c-0.1,0.3-0.1,0.6-0.1,0.8l-0.1,3.2
	c0,0.3,0,0.6,0,0.9c0,0.3,0,0.6,0,0.9c0,0.5,0,0.8,0,1.1c0,0.3,0,0.6,0,0.9c0,0.2,0,0.4-0.1,0.7c-0.1,0.3-0.3,0.4-0.6,0.4
	c-0.3,0.1-0.5,0.2-0.8,0.3c-0.2,0.1-0.5,0.1-0.7,0.1c-0.2,0-0.4,0.1-0.7,0.1c-0.2,0-0.5,0.1-0.8,0.2c-0.1,0.3-0.2,0.6-0.2,0.9
	c0.1,0.2,0.3,0.4,0.6,0.7c0.3,0.3,0.6,0.4,1,0.5c0.3,0,0.6,0,0.9-0.1c0.3-0.1,0.6-0.2,0.9-0.2c0,0.1,0.1,0.2,0.1,0.2
	c0,0.1,0,0.2,0,0.2c0,1,0,2-0.1,3c0,1,0,2,0,3c0,0.4,0,0.9,0.1,1.4c0.1,0.5,0.1,0.9,0.2,1.2c0.2,0.3,0.3,0.5,0.6,0.8
	c0.2,0.2,0.5,0.3,0.8,0.3c0,0,0.2,0,0.4,0c0.2-0.1,0.4-0.2,0.6-0.3s0.3-0.4,0.3-0.8c0-0.2,0-0.5-0.1-0.8c-0.1-0.3-0.1-0.6-0.2-0.9
	c-0.1-0.9-0.2-1.9-0.3-2.9c-0.1-1-0.1-2-0.1-2.9c0-0.1,0-0.3,0-0.4c0-0.1,0-0.3,0-0.4s0-0.2,0-0.4c0-0.1,0-0.3,0-0.4
	c0-0.2,0.1-0.5,0.3-0.6c0.2-0.2,0.4-0.3,0.6-0.4c0.2-0.1,0.5-0.2,0.7-0.2c0.3-0.1,0.5-0.1,0.7-0.2c0.2-0.1,0.4-0.1,0.6-0.1
	c0.2,0,0.4-0.1,0.6-0.2c0.2-0.1,0.4-0.2,0.5-0.3c0.1-0.2,0.2-0.4,0.2-0.6c0-0.2,0-0.5-0.1-0.7C106.4,19.9,106.2,19.7,105.9,19.7z
	 M144.7,51c0,0.1,0,0.3,0,0.5C144.8,51.3,144.8,51.2,144.7,51z M137.7,51.4l-0.1-0.3c-0.1-0.1-0.2-0.3-0.3-0.6
	c-0.1-0.3-0.2-0.6-0.4-0.9c-0.1-0.3-0.2-0.6-0.3-0.9c-0.1-0.3-0.1-0.5-0.1-0.6l0-0.7c0-0.4,0.1-0.8,0.2-1.2c0.1-0.4,0.3-0.8,0.6-1.1
	c0.1-0.1,0.2-0.2,0.3-0.3c0.1-0.1,0.2-0.2,0.2-0.4c-0.1-0.2-0.2-0.4-0.3-0.6c-0.1-0.2-0.3-0.3-0.5-0.3c-0.1,0-0.1,0-0.2,0
	c-0.1,0-0.1,0-0.2,0c-0.5,0-1,0.1-1.3,0.4c-0.4,0.3-0.6,0.6-0.9,1.1c-0.2,0.4-0.4,0.9-0.5,1.5c-0.1,0.5-0.2,1-0.2,1.5
	c0,0.6,0.1,1.2,0.3,1.8c0.2,0.6,0.5,1.2,0.8,1.9c0.3,0.7,0.6,1.4,0.9,2.2c0.3,0.8,0.6,1.6,0.8,2.6c0,0,0,0.1,0,0.3
	c0,0.5-0.2,0.9-0.5,1.2c-0.3,0.3-0.6,0.4-1,0.4c-0.2,0-0.5-0.1-0.7-0.4c-0.3,0.1-0.4,0.1-0.5,0.2c-0.1,0.1-0.2,0.2-0.2,0.3
	c0,0.4,0.2,0.8,0.6,1.2c0.3,0.4,0.7,0.5,1.2,0.6c0.5,0,1-0.1,1.4-0.2c0.4-0.2,0.8-0.5,1.2-0.8c0.3-0.3,0.6-0.7,0.8-1.2
	c0.2-0.4,0.3-0.9,0.3-1.4c0-1-0.1-1.9-0.4-2.7S138.1,52.2,137.7,51.4z M147,58.1c0,0.1,0,0.1,0,0.2C147,58.3,147,58.2,147,58.1
	C147.1,58.1,147,58,147,58.1z M145.2,56.8c0.1-0.2,0-0.3,0-0.5C145.1,56.5,145.2,56.6,145.2,56.8z M144.5,51.2
	c0.1,0.2,0-0.1,0.1-0.1C144.6,51,144.6,51.1,144.5,51.2z M144.9,56.5c0.1,0.1,0,0,0.1-0.1C145,56.3,145,56.4,144.9,56.5z M147,58.4
	c0,0,0-0.1,0-0.1C147.1,58.3,147.1,58.3,147,58.4z M146,46.7c0.1,0.1,0,0,0.1-0.1C146.1,46.5,146,46.5,146,46.7z M216.3,30.4
	c0-0.5,0-1,0-1.5c0-0.5,0-1,0-1.5c0-0.6,0.1-1.2,0.1-1.9c0-0.6,0.1-1.3,0.1-2.1c0-0.5,0.1-1.1,0.2-1.6c0.1-0.5,0.2-1.1,0.2-1.6
	c0-0.3-0.1-0.5-0.2-0.6c-0.1-0.2-0.3-0.3-0.5-0.4s-0.4-0.2-0.7-0.2c-0.2,0-0.4-0.1-0.6-0.1c-0.2,0.2-0.4,0.3-0.5,0.5
	c-0.1,0.2-0.2,0.4-0.2,0.6c-0.1,1.2-0.2,2.3-0.3,3.4c-0.2,1.1-0.3,2.2-0.3,3.3c0,0.9-0.1,1.7-0.1,2.5c0,0.8-0.1,1.7-0.1,2.7
	c0,0.4,0,0.9,0,1.7c0,0.7,0.1,1.5,0.2,2.3c0.1,0.8,0.3,1.4,0.6,2c0.3,0.6,0.7,0.9,1.2,0.9c0.3,0,0.6-0.1,0.9-0.2
	c0.3-0.1,0.4-0.4,0.5-0.7c0,0,0-0.1,0-0.1c0,0,0-0.1,0-0.1c-0.2-0.8-0.3-1.6-0.4-2.6s-0.2-1.9-0.1-2.7c0-0.3,0-0.6,0-0.9
	C216.3,31.1,216.3,30.7,216.3,30.4z M146.2,46.5c0,0.1,0,0.3,0,0.5C146.3,46.8,146.2,46.7,146.2,46.5z M146.5,33.8
	c0.1-0.2,0.2-0.4,0.3-0.7c0-0.1,0-0.3,0-0.3c0-0.1,0-0.2,0-0.3c-0.1-0.1-0.2-0.3-0.3-0.3c-0.1-0.1-0.2-0.1-0.3-0.2
	c-0.5,0.3-1,0.6-1.5,0.9c-0.4,0.3-1,0.4-1.6,0.4c-0.1,0-0.2,0-0.5-0.1c-0.2-0.1-0.5-0.2-0.8-0.5c-0.3-0.2-0.5-0.6-0.7-1
	c-0.2-0.4-0.3-1.1-0.3-1.8c0,0,0-0.1,0-0.2c0-0.1,0-0.2,0-0.3c0.3,0.1,0.5,0.2,0.7,0.2c0.2,0.1,0.4,0.1,0.7,0.1
	c0.6,0,1.2-0.1,1.7-0.3s0.9-0.5,1.3-0.8c0.3-0.3,0.6-0.7,0.8-1.2c0.2-0.4,0.3-0.9,0.3-1.4c0-0.4,0-0.7-0.2-1.1
	c-0.1-0.3-0.3-0.7-0.6-0.9c-0.3-0.3-0.6-0.5-1-0.7c-0.4-0.2-0.9-0.3-1.4-0.3c-0.8,0-1.4,0.1-2,0.5c-0.6,0.4-1.1,0.8-1.5,1.4
	c-0.4,0.6-0.7,1.3-1,2.1c-0.2,0.8-0.4,1.5-0.4,2.3c0,0.5,0,1,0,1.4c0,0.4,0.1,0.9,0.3,1.3c0.1,0.4,0.3,0.8,0.6,1.2
	c0.3,0.4,0.6,0.8,1.1,1.2c0.3,0.2,0.7,0.4,1.2,0.5c0.5,0.2,0.9,0.3,1.2,0.3c0.7,0,1.4,0,1.8-0.1c0.5-0.1,1-0.4,1.5-0.8
	C146.2,34.2,146.3,34,146.5,33.8z M141.2,26.7c0.1-0.3,0.2-0.5,0.3-0.7c0.1-0.2,0.2-0.3,0.3-0.4c0.1-0.1,0.2-0.2,0.3-0.3
	c0.1-0.2,0.3-0.3,0.5-0.3c0.2,0,0.4,0,0.6,0c0.3,0,0.5,0.1,0.7,0.4c0.2,0.3,0.2,0.5,0.2,0.8c0,0.5-0.2,0.9-0.6,1.2
	c-0.4,0.3-1,0.5-1.7,0.5c-0.1,0-0.2,0-0.4,0c-0.2,0-0.3,0-0.4-0.1C141,27.4,141.1,27,141.2,26.7z M150.3,41.7
	c0.2,0.1,0.4,0.2,0.6,0.3c0.2,0.1,0.5,0.1,0.7,0.1c0.4,0,0.6,0,0.8-0.2c0.2-0.1,0.3-0.4,0.3-0.8c0-0.2,0-0.4-0.1-0.5
	c-0.1-0.2-0.3-0.3-0.4-0.5c-0.2-0.1-0.4-0.3-0.6-0.3c-0.2-0.1-0.4-0.1-0.6-0.1c-0.3,0-0.5,0-0.6,0.1c-0.3,0.2-0.5,0.3-0.6,0.5
	c-0.1,0.2-0.1,0.4-0.1,0.6c0,0.1,0,0.2,0.2,0.3C150,41.5,150.2,41.6,150.3,41.7z M66.6,28.9c0.1,0.4,0.3,0.8,0.6,1.2
	c0.3,0.4,0.6,0.8,1.1,1.2c0.3,0.2,0.7,0.4,1.2,0.5c0.5,0.2,0.9,0.3,1.2,0.3c0.7,0,1.4,0,1.8-0.1c0.5-0.1,1-0.4,1.5-0.8
	c0.2-0.1,0.3-0.3,0.5-0.5c0.1-0.2,0.2-0.4,0.3-0.7c0-0.1,0-0.3,0-0.3c0-0.1,0-0.2,0-0.3c-0.1-0.1-0.2-0.3-0.3-0.3s-0.2-0.1-0.3-0.2
	c-0.5,0.3-1,0.6-1.5,0.9c-0.4,0.3-1,0.4-1.6,0.4c-0.1,0-0.2,0-0.5-0.1c-0.2-0.1-0.5-0.2-0.8-0.5s-0.5-0.6-0.7-1
	c-0.2-0.4-0.3-1.1-0.3-1.8c0,0,0-0.1,0-0.2c0-0.1,0-0.2,0-0.3c0.3,0.1,0.5,0.2,0.7,0.2c0.2,0.1,0.4,0.1,0.7,0.1
	c0.6,0,1.2-0.1,1.7-0.3c0.5-0.2,0.9-0.5,1.3-0.8c0.3-0.3,0.6-0.7,0.8-1.2c0.2-0.4,0.3-0.9,0.3-1.4c0-0.4,0-0.7-0.2-1.1
	c-0.1-0.3-0.3-0.7-0.6-0.9c-0.3-0.3-0.6-0.5-1-0.7c-0.4-0.2-0.9-0.3-1.4-0.3c-0.8,0-1.4,0.1-2,0.5c-0.6,0.4-1.1,0.8-1.5,1.4
	c-0.4,0.6-0.7,1.3-1,2.1c-0.2,0.8-0.4,1.5-0.4,2.3c0,0.5,0,1,0,1.4C66.4,28.1,66.4,28.5,66.6,28.9z M69.3,23.6
	c0.1-0.3,0.2-0.5,0.3-0.7s0.2-0.3,0.3-0.4c0.1-0.1,0.2-0.2,0.3-0.3c0.1-0.2,0.3-0.3,0.5-0.3c0.2,0,0.4,0,0.6,0
	c0.3,0,0.5,0.1,0.7,0.4c0.2,0.3,0.2,0.5,0.2,0.8c0,0.5-0.2,0.9-0.6,1.2c-0.4,0.3-1,0.5-1.7,0.5c-0.1,0-0.2,0-0.4,0
	c-0.2,0-0.3,0-0.4-0.1C69.1,24.2,69.2,23.8,69.3,23.6z M233.3,54.1c0-0.5,0-1,0-1.5c0-0.5,0-1,0-1.5c0-0.6,0.1-1.2,0.1-1.9
	c0-0.6,0.1-1.3,0.1-2.1c0-0.5,0.1-1.1,0.2-1.6c0.1-0.5,0.2-1.1,0.2-1.6c0-0.3-0.1-0.5-0.2-0.6c-0.1-0.2-0.3-0.3-0.5-0.4
	c-0.2-0.1-0.4-0.2-0.7-0.2c-0.2,0-0.4-0.1-0.6-0.1c-0.2,0.2-0.4,0.3-0.5,0.5c-0.1,0.2-0.2,0.4-0.2,0.6c-0.1,1.2-0.2,2.3-0.3,3.4
	c-0.2,1.1-0.3,2.2-0.3,3.3c0,0.9-0.1,1.7-0.1,2.5c0,0.8-0.1,1.7-0.1,2.7c0,0.4,0,0.9,0,1.7c0,0.7,0.1,1.5,0.2,2.3
	c0.1,0.8,0.3,1.4,0.6,2c0.3,0.6,0.7,0.9,1.2,0.9c0.3,0,0.6-0.1,0.9-0.2c0.3-0.1,0.4-0.4,0.5-0.7c0,0,0-0.1,0-0.1c0,0,0-0.1,0-0.1
	c-0.2-0.8-0.3-1.6-0.4-2.6s-0.2-1.9-0.1-2.7c0-0.3,0-0.6,0-0.9C233.3,54.8,233.3,54.5,233.3,54.1z M35.2,41.8
	c-0.1-0.1-0.3-0.2-0.5-0.3c-0.2-0.1-0.6-0.1-1-0.1c-0.5,0-1,0.3-1.4,0.9c-0.4,0.5-0.8,1.2-1.1,1.9c-0.4,0.7-0.7,1.5-1,2.2
	c-0.3,0.7-0.7,1.3-1.1,1.7c0-0.3-0.1-0.7-0.2-1.1c-0.1-0.5-0.2-1-0.3-1.5c-0.1-0.5-0.2-1.1-0.2-1.6c-0.1-0.5-0.1-1-0.1-1.4
	c0-0.1-0.1-0.3-0.2-0.4c-0.1-0.1-0.3-0.2-0.4-0.3c-0.2-0.1-0.3-0.1-0.5-0.2c-0.2,0-0.3-0.1-0.4-0.1c-0.3,0-0.6,0-0.9,0.1
	c-0.3,0.1-0.5,0.3-0.5,0.6c0,0.7,0.1,1.4,0.3,2.1c0.2,0.7,0.4,1.4,0.4,2.1c0,0.4,0,0.8,0.1,1.3c0.1,0.5,0.1,1,0.3,1.6
	c0.1,0.5,0.2,1.1,0.4,1.6c0.2,0.5,0.4,1,0.6,1.3l0.9,0.8c0.6,0,1-0.2,1.3-0.6c0.3-0.4,0.6-0.8,0.9-1.3c0.2-0.5,0.5-1,0.7-1.6
	c0.2-0.5,0.5-1,0.8-1.4c0.1-0.1,0.1-0.2,0.2-0.3c0.1-0.1,0.1-0.2,0.2-0.3c0.3-0.5,0.5-0.9,0.7-1.3c0.2-0.4,0.5-0.8,0.7-1.2
	c0.2-0.4,0.5-0.7,0.8-1.1c0.3-0.4,0.6-0.7,1-1.1c0-0.2-0.1-0.4-0.1-0.6C35.4,42,35.4,41.9,35.2,41.8z M23.9,50.1
	c-0.1-0.1-0.2-0.3-0.3-0.3c-0.1-0.1-0.2-0.1-0.3-0.2c-0.5,0.3-1,0.6-1.5,0.9c-0.4,0.3-1,0.4-1.6,0.4c-0.1,0-0.2,0-0.5-0.1
	c-0.2-0.1-0.5-0.2-0.8-0.5c-0.3-0.2-0.5-0.6-0.7-1c-0.2-0.4-0.3-1.1-0.3-1.8c0,0,0-0.1,0-0.2c0-0.1,0-0.2,0-0.3
	c0.3,0.1,0.5,0.2,0.7,0.2c0.2,0.1,0.4,0.1,0.7,0.1c0.6,0,1.2-0.1,1.7-0.3c0.5-0.2,0.9-0.5,1.3-0.8c0.3-0.3,0.6-0.7,0.8-1.2
	c0.2-0.4,0.3-0.9,0.3-1.4c0-0.4,0-0.7-0.2-1.1c-0.1-0.3-0.3-0.7-0.6-0.9c-0.3-0.3-0.6-0.5-1-0.7c-0.4-0.2-0.9-0.3-1.4-0.3
	c-0.8,0-1.4,0.1-2,0.5c-0.6,0.4-1.1,0.8-1.5,1.4c-0.4,0.6-0.7,1.3-1,2.1c-0.2,0.8-0.4,1.5-0.4,2.3c0,0.5,0,1,0,1.4
	c0,0.4,0.1,0.9,0.3,1.3c0.1,0.4,0.3,0.8,0.6,1.2c0.3,0.4,0.6,0.8,1.1,1.2c0.3,0.2,0.7,0.4,1.2,0.5c0.5,0.2,0.9,0.3,1.2,0.3
	c0.7,0,1.4,0,1.8-0.1c0.5-0.1,1-0.4,1.5-0.8c0.2-0.1,0.3-0.3,0.5-0.5c0.1-0.2,0.2-0.4,0.3-0.7c0-0.1,0-0.3,0-0.3
	C23.9,50.3,23.9,50.2,23.9,50.1z M18.4,44.3c0.1-0.3,0.2-0.5,0.3-0.7s0.2-0.3,0.3-0.4c0.1-0.1,0.2-0.2,0.3-0.3
	c0.1-0.2,0.3-0.3,0.5-0.3c0.2,0,0.4,0,0.6,0c0.3,0,0.5,0.1,0.7,0.4c0.2,0.3,0.2,0.5,0.2,0.8c0,0.5-0.2,0.9-0.6,1.2
	c-0.4,0.3-1,0.5-1.7,0.5c-0.1,0-0.2,0-0.4,0c-0.2,0-0.3,0-0.4-0.1C18.2,45,18.3,44.6,18.4,44.3z M244.6,60.1c0-0.1,0-0.2,0-0.3
	c-0.1-0.1-0.2-0.3-0.3-0.3c-0.1-0.1-0.2-0.1-0.3-0.2c-0.5,0.3-1,0.6-1.5,0.9c-0.4,0.3-1,0.4-1.6,0.4c-0.1,0-0.2,0-0.5-0.1
	c-0.2-0.1-0.5-0.2-0.8-0.5c-0.3-0.2-0.5-0.6-0.7-1c-0.2-0.4-0.3-1.1-0.3-1.8c0,0,0-0.1,0-0.2c0-0.1,0-0.2,0-0.3
	c0.3,0.1,0.5,0.2,0.7,0.2c0.2,0.1,0.4,0.1,0.7,0.1c0.6,0,1.2-0.1,1.7-0.3c0.5-0.2,0.9-0.5,1.3-0.8c0.3-0.3,0.6-0.7,0.8-1.2
	c0.2-0.4,0.3-0.9,0.3-1.4c0-0.4,0-0.7-0.2-1.1c-0.1-0.3-0.3-0.7-0.6-0.9c-0.3-0.3-0.6-0.5-1-0.7s-0.9-0.3-1.4-0.3
	c-0.8,0-1.4,0.1-2,0.5c-0.6,0.4-1.1,0.8-1.5,1.4c-0.4,0.6-0.7,1.3-1,2.1c-0.2,0.8-0.4,1.5-0.4,2.3c0,0.5,0,1,0,1.4
	c0,0.4,0.1,0.9,0.3,1.3c0.1,0.4,0.3,0.8,0.6,1.2c0.3,0.4,0.6,0.8,1.1,1.2c0.3,0.2,0.7,0.4,1.2,0.5c0.5,0.2,0.9,0.3,1.2,0.3
	c0.7,0,1.4,0,1.8-0.1c0.5-0.1,1-0.4,1.5-0.8c0.2-0.1,0.3-0.3,0.5-0.5c0.1-0.2,0.2-0.4,0.3-0.7C244.6,60.3,244.6,60.2,244.6,60.1z
	 M239.1,54c0.1-0.3,0.2-0.5,0.3-0.7c0.1-0.2,0.2-0.3,0.3-0.4c0.1-0.1,0.2-0.2,0.3-0.3c0.1-0.2,0.3-0.3,0.5-0.3c0.2,0,0.4,0,0.6,0
	c0.3,0,0.5,0.1,0.7,0.4c0.2,0.3,0.2,0.5,0.2,0.8c0,0.5-0.2,0.9-0.6,1.2s-1,0.5-1.7,0.5c-0.1,0-0.2,0-0.4,0c-0.2,0-0.3,0-0.4-0.1
	C238.9,54.7,239,54.3,239.1,54z M170.6,35.3c0.2,0.3,0.4,0.6,0.7,0.8c0.3,0.2,0.7,0.3,1.2,0.3c0.6,0,1.3-0.2,1.9-0.6
	c0.6-0.4,1.2-0.9,1.8-1.5c0.5-0.6,1-1.2,1.4-1.9c0.4-0.6,0.6-1.2,0.7-1.6c0.1,0.6,0.2,1.3,0.2,2.1c0.1,0.8,0.2,1.5,0.3,2.2
	c0.1,0.7,0.3,1.3,0.6,1.8c0.2,0.5,0.6,0.7,1,0.7c0.1,0,0.3,0,0.4,0c0.1,0,0.3-0.1,0.4-0.1c0.1-0.1,0.3-0.1,0.4-0.2
	c0.1-0.1,0.2-0.2,0.2-0.4c0-0.2,0-0.3-0.1-0.5c-0.1-0.2-0.1-0.4-0.2-0.5l-0.2-0.6l-0.1-1.2c-0.2-0.9-0.3-1.8-0.3-2.7
	c0-0.8-0.1-1.8-0.2-2.8c0-0.5-0.1-1.1-0.2-1.6c-0.1-0.5-0.3-0.9-0.7-1.2c-0.2-0.1-0.4-0.3-0.6-0.4c-0.2-0.1-0.5-0.3-0.7-0.4
	c-0.2-0.1-0.5-0.2-0.7-0.3c-0.2-0.1-0.4-0.1-0.6-0.1c-0.9,0-1.7,0.3-2.5,0.9c-0.8,0.6-1.5,1.4-2.2,2.3c-0.6,0.9-1.1,1.9-1.5,2.9
	c-0.4,1-0.6,1.8-0.6,2.5c0,0.3,0,0.6,0,1C170.4,34.6,170.5,35,170.6,35.3z M172.8,33.7c0-0.6,0.1-1.1,0.4-1.7
	c0.2-0.6,0.5-1.1,0.8-1.6c0.1-0.1,0.2-0.3,0.4-0.7c0.2-0.4,0.4-0.8,0.7-1.2c0.3-0.4,0.6-0.8,1-1.1c0.4-0.3,0.8-0.5,1.2-0.5
	c0.1,0,0.2,0,0.3,0.1c0.1,0,0.2,0.1,0.3,0.1c0,0.1-0.1,0.3-0.1,0.5c-0.1,0.2-0.2,0.4-0.3,0.7c-0.1,0.2-0.2,0.5-0.4,0.7
	c-0.1,0.2-0.2,0.4-0.3,0.6c-0.2,0.4-0.4,0.9-0.7,1.4c-0.3,0.5-0.7,1-1,1.5c-0.4,0.5-0.7,0.9-1.1,1.2c-0.4,0.3-0.7,0.5-1,0.5
	c0,0,0,0,0,0c0,0,0,0,0,0L172.8,33.7z M219.9,36.2c0.1,0.8,0.3,1.4,0.6,2c0.3,0.6,0.7,0.9,1.2,0.9c0.3,0,0.6-0.1,0.9-0.2
	c0.3-0.1,0.4-0.4,0.5-0.7c0,0,0-0.1,0-0.1c0,0,0-0.1,0-0.1c-0.2-0.8-0.3-1.6-0.4-2.6s-0.2-1.9-0.1-2.7c0-0.3,0-0.6,0-0.9
	c0-0.3,0-0.7,0-1c0-0.5,0-1,0-1.5c0-0.5,0-1,0-1.5c0-0.6,0.1-1.2,0.1-1.9c0-0.6,0.1-1.3,0.1-2.1c0-0.5,0.1-1.1,0.2-1.6
	c0.1-0.5,0.2-1.1,0.2-1.6c0-0.3-0.1-0.5-0.2-0.6c-0.1-0.2-0.3-0.3-0.5-0.4c-0.2-0.1-0.4-0.2-0.7-0.2c-0.2,0-0.4-0.1-0.6-0.1
	c-0.2,0.2-0.4,0.3-0.5,0.5c-0.1,0.2-0.2,0.4-0.2,0.6c-0.1,1.2-0.2,2.3-0.3,3.4c-0.2,1.1-0.3,2.2-0.3,3.3c0,0.9-0.1,1.7-0.1,2.5
	c0,0.8-0.1,1.7-0.1,2.7c0,0.4,0,0.9,0,1.7C219.7,34.6,219.8,35.4,219.9,36.2z M92.3,37.5c-0.2-0.1-0.4-0.3-0.6-0.3
	c-0.2-0.1-0.4-0.1-0.6-0.1c-0.3,0-0.5,0-0.6,0.1c-0.3,0.2-0.5,0.3-0.6,0.5c-0.1,0.2-0.1,0.4-0.1,0.6c0,0.1,0,0.2,0.2,0.3
	c0.1,0.1,0.3,0.2,0.4,0.3c0.2,0.1,0.4,0.2,0.6,0.3c0.2,0.1,0.5,0.1,0.7,0.1c0.4,0,0.6,0,0.8-0.2c0.2-0.1,0.3-0.4,0.3-0.8
	c0-0.2,0-0.4-0.1-0.5C92.7,37.8,92.5,37.7,92.3,37.5z M150.8,24.4c0,0,0.1,0,0.2,0c0.1,0,0.2,0,0.2,0c0.9-0.1,1.5-1.1,1.8-2.9
	c0-0.2,0.1-0.5,0.2-1c0.1-0.5,0.3-1.2,0.5-2c0.1-0.4,0.2-0.8,0.3-1.2c0-0.4,0.1-0.7,0.1-1c0-0.1,0-0.2,0-0.4c0-0.1,0-0.2,0-0.3
	c0-0.3-0.1-0.7-0.3-1.1c-0.1-0.2-0.3-0.4-0.5-0.4c0,0-0.1,0-0.1,0c0,0-0.1,0-0.2,0c-0.1,0-0.1,0-0.2,0c-0.1,0-0.2,0-0.2,0
	c-0.8,0-1.2,0.2-1.2,0.6c0,0.2,0,0.4,0,0.5c0,0.2,0,0.3,0,0.5c0,0.5-0.1,1-0.1,1.6c-0.1,0.6-0.2,1.2-0.3,1.8c-0.3,1.1-0.4,2-0.6,2.7
	c-0.1,0.7-0.2,1.2-0.2,1.5l0,0.1C150.2,24,150.4,24.3,150.8,24.4z M158.2,35.9c-0.3,0.3-0.6,0.4-1,0.4c-0.2,0-0.5-0.1-0.7-0.4
	c-0.3,0.1-0.4,0.1-0.5,0.2c-0.1,0.1-0.2,0.2-0.2,0.3c0,0.4,0.2,0.8,0.6,1.2c0.3,0.4,0.7,0.5,1.2,0.6c0.5,0,1-0.1,1.4-0.2
	s0.8-0.5,1.2-0.8c0.3-0.3,0.6-0.7,0.8-1.2c0.2-0.4,0.3-0.9,0.3-1.4c0-1-0.1-1.9-0.4-2.7c-0.3-0.8-0.7-1.6-1-2.4l-0.1-0.3
	c-0.1-0.1-0.2-0.3-0.3-0.6c-0.1-0.3-0.2-0.6-0.4-0.9c-0.1-0.3-0.2-0.6-0.3-0.9c-0.1-0.3-0.1-0.5-0.1-0.6l0-0.7
	c0-0.4,0.1-0.8,0.2-1.2c0.1-0.4,0.3-0.8,0.6-1.1c0.1-0.1,0.2-0.2,0.3-0.3c0.1-0.1,0.2-0.2,0.2-0.4c-0.1-0.2-0.2-0.4-0.3-0.6
	c-0.1-0.2-0.3-0.3-0.5-0.3c-0.1,0-0.1,0-0.2,0c-0.1,0-0.1,0-0.2,0c-0.5,0-1,0.1-1.3,0.4c-0.4,0.3-0.6,0.6-0.9,1.1s-0.4,0.9-0.5,1.5
	c-0.1,0.5-0.2,1-0.2,1.5c0,0.6,0.1,1.2,0.3,1.8c0.2,0.6,0.5,1.2,0.8,1.9c0.3,0.7,0.6,1.4,0.9,2.2c0.3,0.8,0.6,1.6,0.8,2.6
	c0,0,0,0.1,0,0.3C158.6,35.2,158.5,35.6,158.2,35.9z M86.6,50.9c0-0.4,0-0.7-0.1-1.2c0-0.4-0.1-0.8-0.1-1.1c0-0.3,0-0.8-0.1-1.3
	c-0.1-0.5-0.2-1-0.4-1.5c-0.2-0.5-0.5-0.9-0.8-1.3c-0.3-0.4-0.8-0.6-1.4-0.7c-0.4,0-0.7,0.1-1.1,0.3S82,44.6,81.6,45
	c-0.3,0.4-0.7,0.8-1,1.3c-0.3,0.5-0.6,1-0.8,1.6c0-0.7,0.1-1.4,0.1-2.1c0-0.7,0.1-1.4,0.1-2.1c0-0.7,0.1-1.5,0.2-2.2
	s0.1-1.6,0.2-2.5c0-0.5,0.1-0.9,0.2-1.3c0.1-0.4,0.2-0.9,0.2-1.4c0-0.4-0.1-0.8-0.3-1.1c-0.2-0.3-0.5-0.5-0.9-0.5
	c-0.2,0-0.6,0-0.9,0.1c-0.2,0.5-0.3,1.1-0.4,1.8c-0.1,0.7-0.2,1.4-0.3,2.2c-0.1,0.8-0.1,1.6-0.2,2.4c-0.1,0.8-0.1,1.6-0.1,2.3
	c-0.1,1.2-0.1,2.5-0.1,3.8c0,1.3,0,2.5-0.1,3.7l0,0.6c0,0.5,0,0.9,0,1.4c0,0.4,0.1,0.9,0.2,1.2c0.1,0.4,0.3,0.7,0.6,0.9
	c0.3,0.2,0.7,0.4,1.2,0.4c0.1,0,0.3-0.1,0.4-0.2c0.1-0.1,0.2-0.3,0.3-0.5c0.1-0.2,0.1-0.4,0.2-0.6c0-0.2,0.1-0.5,0.1-0.7l0-0.1
	c0,0,0-0.1,0-0.1c0,0,0,0,0-0.1l0-0.2c0-0.1,0.1-0.4,0.2-0.7c0.1-0.3,0.2-0.7,0.3-1.2c0.1-0.5,0.3-0.9,0.5-1.4
	c0.2-0.5,0.4-1,0.6-1.4c0.2-0.4,0.4-0.8,0.7-1.1c0.2-0.3,0.5-0.5,0.7-0.6c0.1,0,0.2,0.1,0.2,0.4c0.1,0.2,0.1,0.5,0.2,0.9
	s0.1,0.7,0.1,1.1c0,0.4,0,0.7,0,0.9c0,0.3,0,0.8,0,1.5c0,0.7,0.1,1.3,0.2,2c0.1,0.7,0.3,1.2,0.6,1.8c0.3,0.5,0.7,0.8,1.2,0.8
	c0.2,0,0.4-0.1,0.6-0.2c0.2-0.2,0.4-0.3,0.4-0.5c0-0.6-0.1-1.3-0.3-2C86.7,52.3,86.6,51.6,86.6,50.9z M44.1,51
	c-0.1-0.1-0.2-0.3-0.3-0.3s-0.2-0.1-0.3-0.2c-0.5,0.3-1,0.6-1.5,0.9c-0.4,0.3-1,0.4-1.6,0.4c-0.1,0-0.2,0-0.5-0.1
	c-0.2-0.1-0.5-0.2-0.8-0.5c-0.3-0.2-0.5-0.6-0.7-1c-0.2-0.4-0.3-1.1-0.3-1.8c0,0,0-0.1,0-0.2c0-0.1,0-0.2,0-0.3
	c0.3,0.1,0.5,0.2,0.7,0.2c0.2,0.1,0.4,0.1,0.7,0.1c0.6,0,1.2-0.1,1.7-0.3c0.5-0.2,0.9-0.5,1.3-0.8c0.3-0.3,0.6-0.7,0.8-1.2
	c0.2-0.4,0.3-0.9,0.3-1.4c0-0.4,0-0.7-0.2-1.1c-0.1-0.3-0.3-0.7-0.6-0.9c-0.3-0.3-0.6-0.5-1-0.7c-0.4-0.2-0.9-0.3-1.4-0.3
	c-0.8,0-1.4,0.1-2,0.5c-0.6,0.4-1.1,0.8-1.5,1.4c-0.4,0.6-0.7,1.3-1,2.1c-0.2,0.8-0.4,1.5-0.4,2.3c0,0.5,0,1,0,1.4
	c0,0.4,0.1,0.9,0.3,1.3c0.1,0.4,0.3,0.8,0.6,1.2c0.3,0.4,0.6,0.8,1.1,1.2c0.3,0.2,0.7,0.4,1.2,0.5c0.5,0.2,0.9,0.3,1.2,0.3
	c0.7,0,1.4,0,1.8-0.1c0.5-0.1,1-0.4,1.5-0.8c0.2-0.1,0.3-0.3,0.5-0.5c0.1-0.2,0.2-0.4,0.3-0.7c0-0.1,0-0.3,0-0.3
	C44.1,51.2,44.1,51.1,44.1,51z M38.6,45.2c0.1-0.3,0.2-0.5,0.3-0.7c0.1-0.2,0.2-0.3,0.3-0.4c0.1-0.1,0.2-0.2,0.3-0.3
	c0.1-0.2,0.3-0.3,0.5-0.3c0.2,0,0.4,0,0.6,0c0.3,0,0.5,0.1,0.7,0.4c0.2,0.3,0.2,0.5,0.2,0.8c0,0.5-0.2,0.9-0.6,1.2
	c-0.4,0.3-1,0.5-1.7,0.5c-0.1,0-0.2,0-0.4,0c-0.2,0-0.3,0-0.4-0.1C38.5,45.9,38.5,45.5,38.6,45.2z M87.1,28
	c-0.1-0.7-0.1-1.4-0.2-2.1c-0.1-0.7-0.3-1.3-0.5-2c-0.1-0.3-0.2-0.6-0.3-0.9c-0.1-0.3-0.1-0.6-0.2-0.9c-0.1-0.3-0.2-0.5-0.4-0.8
	c-0.2-0.2-0.4-0.4-0.8-0.5c-0.4,0-0.8,0.1-1.2,0.4c-0.4,0.3-0.8,0.7-1.1,1.1c-0.4,0.4-0.7,0.9-0.9,1.4c-0.3,0.5-0.5,0.9-0.6,1.2
	l-0.1,0.2c-0.2,0.4-0.4,0.8-0.6,1.3c-0.2,0.4-0.4,0.8-0.7,1.1l0-0.2c0-0.5,0.1-1,0.1-1.6c0-0.5,0.1-1.2,0.1-2c0-0.2,0-0.4,0-0.7
	c0-0.2-0.1-0.4,0-0.7c0-0.2,0-0.4,0-0.6c0-0.2,0-0.5-0.1-0.7c-0.1-0.2-0.2-0.4-0.3-0.6c-0.1-0.2-0.4-0.2-0.6-0.3c-0.1,0-0.2,0-0.3,0
	c-0.1,0-0.2,0-0.4,0c-0.2,0.1-0.4,0.3-0.5,0.5c-0.1,0.2-0.2,0.5-0.2,0.7c0,0.4,0,0.7,0,1.1c0,0.4,0,0.7,0,1.1
	c-0.1,1.2-0.1,2.4-0.2,3.5c-0.1,1.1-0.1,2.3-0.2,3.6c0,0.3,0.1,0.5,0.4,0.8c0.3,0.2,0.5,0.3,0.7,0.3c0.2,0,0.4,0,0.6,0
	c0.2,0,0.4-0.1,0.7-0.3c0.2-0.1,0.5-0.4,0.8-0.7c0.3-0.3,0.6-0.8,1-1.4c0.3-0.4,0.5-0.8,0.7-1.3c0.2-0.4,0.4-0.8,0.6-1.3
	c0.2-0.4,0.4-0.9,0.7-1.4c0.2-0.5,0.5-1,0.9-1.5c0.2,0.3,0.3,0.6,0.4,1c0.1,0.4,0.2,0.8,0.2,1.3c0.1,0.5,0.1,0.9,0.2,1.4
	c0,0.4,0.1,0.9,0.2,1.2c0.1,0.3,0.1,0.7,0.2,1.1c0,0.4,0.1,0.9,0.2,1.3c0.1,0.4,0.2,0.8,0.4,1c0.2,0.3,0.5,0.4,0.9,0.5
	c0.2,0,0.5-0.1,0.9-0.2c0.3-0.1,0.5-0.4,0.6-0.7c-0.2-0.6-0.4-1.2-0.5-1.9C87.2,29.4,87.1,28.7,87.1,28z M92.2,50.9
	c-0.1-0.8-0.1-1.7-0.2-2.6c0-0.9,0-1.7,0-2.5c0-0.2,0-0.4,0-0.7c0-0.2,0-0.4,0.1-0.6c-0.1-0.2-0.2-0.3-0.4-0.5
	c-0.1-0.2-0.4-0.3-0.6-0.4c-0.2,0-0.4,0.1-0.6,0.1c-0.2,0-0.4,0.1-0.6,0.1c-0.4,0.2-0.6,0.5-0.6,1c0,1.1,0,2.1,0.1,3
	c0.1,1,0.1,2,0.1,3c0,0.4,0,0.7,0.1,1.1c0.1,0.4,0.1,0.7,0.1,1.1c0,0.6,0,1.1,0.1,1.4c0.1,0.4,0.3,0.6,0.5,0.8
	c0.2,0.2,0.5,0.3,0.8,0.4c0.3,0.1,0.6,0.1,1,0.1c0.2-0.2,0.4-0.4,0.5-0.6c0.1-0.2,0.1-0.3,0.1-0.5l0-0.1c0-0.4-0.1-0.9-0.1-1.5
	C92.3,52.5,92.3,51.7,92.2,50.9z M75.7,41.4c-0.5,0-1,0-1.4,0.2s-0.9,0.2-1.4,0.2c-0.2,0-0.3-0.1-0.3-0.2c0-0.1,0-0.2,0-0.3
	c0-0.3,0-0.5,0-0.8c0-0.2,0-0.5,0-0.7c0-0.3,0-0.7,0.1-1c0-0.3,0-0.6,0.1-1c0-0.3,0-0.6,0-0.9c0-0.3,0-0.7,0-1.1c0-0.2,0-0.5,0-0.7
	c0-0.2-0.1-0.5-0.2-0.6s-0.3-0.4-0.5-0.5c-0.2-0.1-0.5-0.2-0.8-0.2c-0.2,0-0.3,0-0.4,0.1c-0.1,0-0.2,0.1-0.4,0.2
	c-0.1,0.3-0.1,0.6-0.1,0.8L70.1,38c0,0.3,0,0.6,0,0.9c0,0.3,0,0.6,0,0.9c0,0.5,0,0.8,0,1.1c0,0.3,0,0.6,0,0.9c0,0.2,0,0.4-0.1,0.7
	s-0.3,0.4-0.6,0.4c-0.3,0.1-0.5,0.2-0.8,0.3c-0.2,0.1-0.5,0.1-0.7,0.1c-0.2,0-0.4,0.1-0.7,0.1c-0.2,0-0.5,0.1-0.8,0.2
	c-0.1,0.3-0.2,0.6-0.2,0.9c0.1,0.2,0.3,0.4,0.6,0.7c0.3,0.3,0.6,0.4,1,0.5c0.3,0,0.6,0,0.9-0.1c0.3-0.1,0.6-0.2,0.9-0.2
	c0,0.1,0.1,0.2,0.1,0.2c0,0.1,0,0.2,0,0.2c0,1,0,2-0.1,3c0,1,0,2,0,3c0,0.4,0,0.9,0.1,1.4c0.1,0.5,0.1,0.9,0.2,1.2
	c0.2,0.3,0.3,0.5,0.6,0.8c0.2,0.2,0.5,0.3,0.8,0.3c0,0,0.2,0,0.4,0c0.2-0.1,0.4-0.2,0.6-0.3c0.2-0.2,0.3-0.4,0.3-0.8
	c0-0.2,0-0.5-0.1-0.8c-0.1-0.3-0.1-0.6-0.2-0.9c-0.1-0.9-0.2-1.9-0.3-2.9c-0.1-1-0.1-2-0.1-2.9c0-0.1,0-0.3,0-0.4c0-0.1,0-0.3,0-0.4
	c0-0.1,0-0.2,0-0.4c0-0.1,0-0.3,0-0.4c0-0.2,0.1-0.5,0.3-0.6c0.2-0.2,0.4-0.3,0.6-0.4c0.2-0.1,0.5-0.2,0.7-0.2
	c0.3-0.1,0.5-0.1,0.7-0.2c0.2-0.1,0.4-0.1,0.6-0.1c0.2,0,0.4-0.1,0.6-0.2c0.2-0.1,0.4-0.2,0.5-0.3c0.1-0.2,0.2-0.4,0.2-0.6
	c0-0.2,0-0.5-0.1-0.7C76.2,41.6,76,41.4,75.7,41.4z M47.6,32.2c0.2,0.1,0.5,0.2,0.7,0.2c0.6,0,0.9-0.2,1.1-0.6
	c0.3-0.7,0.5-1.6,0.9-2.8c0.3-1.1,0.7-2.5,1.1-4c0.4-1.6,0.8-2.9,1.1-4.1c0.3-1.1,0.7-2.1,0.9-2.9c0,0,0.1-0.2,0.2-0.3
	c0.1-0.2,0.2-0.4,0.4-0.8c0.3-0.5,0.4-0.9,0.4-1.2c0-0.4-0.2-0.8-0.7-1c-0.2-0.1-0.5-0.2-0.9-0.2c-0.5,0-0.8,0.1-0.9,0.4
	c-0.7,1.3-1.4,3-1.9,5.1c-0.2,0.9-0.5,2.1-0.8,3.4c-0.3,1.3-0.6,2.9-1,4.8c-0.1-1.1-0.2-2.3-0.3-3.4c-0.1-1.2-0.2-2.3-0.4-3.6
	c-0.1-1.7-0.4-3.1-0.8-4.1c0,0-0.1-0.1-0.3-0.1c-0.2,0-0.3-0.1-0.3-0.2c-0.2-0.1-0.5-0.1-0.7-0.1c-0.6,0-1,0.4-1.1,1.4
	c-0.1,0.4-0.2,0.8-0.3,1.2c-0.1,0.4-0.2,0.8-0.3,1.2c-0.1,0.6-0.3,1.2-0.4,1.7c-0.1,0.5-0.2,1-0.3,1.4c-0.2,0.8-0.6,2.1-1.2,3.8
	c-0.2-3.5-0.4-6.4-0.5-8.6c-0.2-2.2-0.3-3.7-0.4-4.6c-0.3-0.5-0.7-0.8-1.3-0.8c-0.2,0-0.4,0-0.6,0c-0.2,0-0.4,0.1-0.5,0.3
	c-0.1,0.2-0.2,0.5-0.1,0.7c0.2,0.7,0.3,1.7,0.4,2.8c0.1,1.2,0.2,2.5,0.3,4.1c0.1,1.6,0.2,3,0.3,4.1c0.1,1.2,0.3,2.1,0.4,2.9l0.3,1.8
	c0.2,0.7,0.6,1.1,1.3,1.2c0.4,0.1,0.7,0.1,0.9,0c0.6-0.5,1.1-1.8,1.6-3.7c0.2-0.8,0.4-1.7,0.7-2.6c0.2-1,0.5-2,0.8-3.1
	c0.1,1.1,0.2,2.1,0.2,2.9c0.1,0.9,0.1,1.6,0.2,2.3c0.1,0.9,0.2,1.5,0.2,2c0,0.5,0.1,0.7,0.1,0.8C46.3,31,46.8,31.8,47.6,32.2z
	 M53.7,42.1c-0.3-0.2-0.7-0.3-1.2-0.3c-0.2,0-0.5,0-0.6,0.1c-0.3,0.2-0.6,0.5-0.9,0.8c-0.3,0.3-0.6,0.7-0.8,1.1
	c-0.3,0.4-0.5,0.7-0.8,1c-0.2,0.3-0.5,0.5-0.7,0.7l0-1.7c0-0.2,0-0.5,0-0.7c0-0.3-0.1-0.5-0.2-0.7c-0.1-0.2-0.2-0.4-0.4-0.5
	c-0.2-0.1-0.5-0.2-0.8-0.2c-0.4,0-0.6,0-0.8,0.2c-0.2,0.1-0.3,0.3-0.4,0.6c0,0.2,0,0.4,0.1,0.6c0.1,0.2,0.1,0.4,0.1,0.5l0,0.1
	c0,0.5,0,0.9,0,1.4c0,0.5,0,0.9,0,1.4l0,1c0,0,0,0.2,0,0.5c0,0.3,0,0.6,0,1c0,0.4,0,0.8,0,1.3c0,0.5,0,0.9,0,1.3c0,0.4,0,0.8-0.1,1
	c0,0.3-0.1,0.5-0.1,0.6l0,0.1c0,0.4,0.1,0.7,0.3,0.9c0.2,0.2,0.5,0.4,0.9,0.4c0.3,0,0.6,0,0.8-0.2c0.2-0.1,0.4-0.3,0.5-0.5
	c0.1-0.2,0.2-0.4,0.3-0.7c0.1-0.3,0.1-0.5,0.1-0.8c0-0.2,0-0.4,0-0.7c0-0.3,0-0.5,0-0.7c0-0.3,0.1-0.6,0.3-1.1
	c0.2-0.4,0.4-0.9,0.7-1.4c0.3-0.5,0.6-1,0.9-1.4c0.3-0.5,0.7-0.9,1-1.2c0.2-0.3,0.4-0.5,0.7-0.8c0.3-0.3,0.5-0.5,0.8-0.8
	c0.2-0.2,0.5-0.5,0.7-0.7c0.2-0.2,0.3-0.4,0.4-0.6C54.2,42.6,54,42.3,53.7,42.1z M63.3,42.4c-0.4,0-0.6,0.1-0.8,0.5
	c-0.2,0.3-0.3,0.7-0.4,1.2c-0.1,0.5-0.2,1-0.2,1.5c0,0.5-0.1,1-0.2,1.4c-0.1,0.3-0.3,0.8-0.4,1.3c-0.2,0.5-0.4,1-0.6,1.5
	c-0.2,0.5-0.5,1-0.8,1.4c-0.3,0.4-0.7,0.7-1.1,0.8c-0.2-0.2-0.4-0.4-0.4-0.8c-0.1-0.3-0.2-0.7-0.2-1.2c0-0.4-0.1-0.8-0.1-1.3
	c0-0.4,0-0.8,0-1.1l0-0.5c0-0.3,0-0.6,0.1-1.1c0-0.4,0.1-0.8,0.1-1.1c-0.1-0.3-0.1-0.6-0.1-0.9c0-0.3,0-0.6-0.1-0.9
	c0-0.3-0.2-0.5-0.4-0.7c-0.2-0.2-0.5-0.3-1-0.3c-0.2,0-0.4,0.1-0.6,0.3S56,43,55.9,43.3c-0.1,0.3-0.2,0.6-0.2,0.9
	c0,0.3-0.1,0.6-0.1,0.9c0,0.4,0,0.7,0,1c0,0.3,0,0.7,0,1c0,0.1,0,0.2,0,0.4c0,0.1,0,0.2,0,0.4c0,0.5,0,1.2,0,2
	c0,0.8,0.2,1.5,0.4,2.2c0.2,0.7,0.5,1.3,1,1.8c0.4,0.5,1,0.8,1.8,0.8c0.2,0,0.5,0,0.8-0.2c0.3-0.1,0.6-0.3,0.9-0.5
	c0.3-0.2,0.6-0.5,0.8-0.7c0.2-0.3,0.4-0.5,0.6-0.8c0.1,0,0.1,0,0.2,0c0,0.1,0,0.3,0,0.4c0,0.1,0,0.3,0,0.5c-0.1,1.5-0.3,2.9-0.7,4.2
	c-0.4,1.3-1.1,2.5-2.1,3.7c-0.3,0.3-0.6,0.5-1,0.7c-0.4,0.2-0.8,0.4-1.2,0.5c-0.4,0.1-0.7,0.3-1,0.4c-0.3,0.1-0.4,0.2-0.4,0.4
	c0,0.2,0,0.4,0.1,0.5c0.1,0.2,0.2,0.3,0.4,0.4c0.2,0.1,0.3,0.2,0.5,0.3c0.2,0.1,0.3,0.1,0.4,0.1c0.5,0,0.9,0,1.3-0.1
	c0.4-0.1,0.7-0.2,1-0.3c0.3-0.1,0.5-0.3,0.7-0.4c0.2-0.2,0.4-0.3,0.6-0.4c1.3-1.4,2.3-3,2.9-4.7c0.6-1.7,1-3.7,1.1-5.9
	c0-0.3,0-0.7,0-1.1c0-0.4,0-0.8,0-1.1c0-0.4,0-0.7,0-1c0-0.3,0-0.6,0-0.7c0-0.6,0.1-1.3,0.1-2.1c0.1-0.9,0.2-1.9,0.3-3.1
	c0-0.4-0.2-0.6-0.5-0.8S63.7,42.4,63.3,42.4z M56.8,31.2c0.1,0,0.3-0.1,0.4-0.2c0.1-0.1,0.2-0.3,0.3-0.5c0.1-0.2,0.1-0.4,0.2-0.6
	c0-0.2,0.1-0.5,0.1-0.7l0-0.1c0,0,0-0.1,0-0.1c0,0,0,0,0-0.1l0-0.2c0-0.1,0.1-0.4,0.2-0.7c0.1-0.3,0.2-0.7,0.3-1.2
	c0.1-0.5,0.3-0.9,0.5-1.4c0.2-0.5,0.4-1,0.6-1.4c0.2-0.4,0.4-0.8,0.7-1.1c0.2-0.3,0.5-0.5,0.7-0.6c0.1,0,0.2,0.1,0.2,0.4
	c0.1,0.2,0.1,0.5,0.2,0.9c0.1,0.3,0.1,0.7,0.1,1.1c0,0.4,0,0.7,0,0.9c0,0.3,0,0.8,0,1.5c0,0.7,0.1,1.3,0.2,2
	c0.1,0.7,0.3,1.2,0.6,1.8c0.3,0.5,0.7,0.8,1.2,0.8c0.2,0,0.4-0.1,0.6-0.2c0.2-0.2,0.4-0.3,0.4-0.5c0-0.6-0.1-1.3-0.3-2
	c-0.2-0.7-0.3-1.4-0.3-2.1c0-0.4,0-0.7-0.1-1.2c0-0.4-0.1-0.8-0.1-1.1c0-0.3,0-0.8-0.1-1.3c-0.1-0.5-0.2-1-0.4-1.5
	c-0.2-0.5-0.5-0.9-0.8-1.3c-0.3-0.4-0.8-0.6-1.4-0.7c-0.4,0-0.7,0.1-1.1,0.3c-0.4,0.2-0.7,0.5-1.1,0.9c-0.3,0.4-0.7,0.8-1,1.3
	c-0.3,0.5-0.6,1-0.8,1.6c0-0.7,0.1-1.4,0.1-2.1c0-0.7,0.1-1.4,0.1-2.1c0-0.7,0.1-1.5,0.2-2.2s0.1-1.6,0.2-2.5c0-0.5,0.1-0.9,0.2-1.3
	c0.1-0.4,0.2-0.9,0.2-1.4c0-0.4-0.1-0.8-0.3-1.1c-0.2-0.3-0.5-0.5-0.9-0.5c-0.2,0-0.6,0-0.9,0.1c-0.2,0.5-0.3,1.1-0.4,1.8
	s-0.2,1.4-0.3,2.2c-0.1,0.8-0.1,1.6-0.2,2.4c-0.1,0.8-0.1,1.6-0.1,2.3c-0.1,1.2-0.1,2.5-0.1,3.8s0,2.5-0.1,3.7l0,0.6
	c0,0.5,0,0.9,0,1.4c0,0.4,0.1,0.9,0.2,1.2c0.1,0.4,0.3,0.7,0.6,0.9C55.9,31,56.3,31.2,56.8,31.2z M148.7,53.9c0,0.2,0.1-0.1,0.1,0
	C148.8,53.8,148.8,53.9,148.7,53.9z M160.6,54C160.6,54,160.6,54,160.6,54C160.6,54,160.6,54,160.6,54C160.6,54,160.6,54,160.6,54z
	 M162.1,54.2C162.1,54.2,162.1,54.2,162.1,54.2C162.1,54.3,162.1,54.2,162.1,54.2z M147.9,48.7c0.1,0,0.1-0.1,0.2-0.3L147.9,48.7z
	 M148.4,49.2c0,0,0.1-0.1,0-0.2C148.4,49.1,148.4,49.1,148.4,49.2z M148.5,48.9c0-0.1,0-0.2-0.1-0.2
	C148.5,48.9,148.5,48.7,148.5,48.9z M147.7,48.3c0,0.1,0,0.1,0,0.2C147.7,48.5,147.7,48.4,147.7,48.3
	C147.7,48.3,147.7,48.2,147.7,48.3z M195.7,52c-0.1-0.3-0.2-0.5-0.3-0.8c-0.1-0.3-0.3-0.5-0.5-0.7c-0.3-0.2-0.5-0.4-0.8-0.6
	c-0.3-0.2-0.6-0.3-0.9-0.4c-0.3-0.1-0.6-0.3-0.9-0.4c-0.3-0.1-0.6-0.3-0.9-0.5c-0.2-0.1-0.4-0.2-0.6-0.2c-0.5,0-0.9,0.1-1.4,0.4
	s-0.9,0.6-1.2,1c-0.4,0.4-0.7,0.8-0.9,1.1c-0.2,0.4-0.4,0.7-0.5,0.9c-0.1,0.5-0.3,1.1-0.5,1.7c-0.2,0.6-0.3,1.2-0.3,1.6
	c0,0.9,0.1,1.7,0.5,2.4c0.3,0.7,0.8,1.2,1.5,1.6c0.3,0.2,0.6,0.4,0.9,0.6c0.3,0.2,0.6,0.3,0.9,0.3l0.2,0c0.1,0,0.2,0,0.4,0
	c0.1,0,0.2,0,0.3,0c0.4,0,0.7-0.1,1.1-0.3c0.4-0.2,0.7-0.5,1.1-0.7c0.3-0.3,0.7-0.6,0.9-1c0.3-0.3,0.5-0.6,0.7-0.9
	c0.4-0.5,0.7-1,0.9-1.6c0.3-0.5,0.4-1.1,0.5-1.8l0-0.6c0-0.2,0-0.5,0-0.7S195.8,52.2,195.7,52z M193.1,52.9
	c-0.1,0.4-0.1,0.8-0.3,1.3c-0.1,0.5-0.3,0.9-0.4,1.3c-0.2,0.4-0.4,0.8-0.7,1.1s-0.6,0.6-0.9,0.8c-0.2,0.1-0.4,0.2-0.6,0.2
	c-0.2,0.1-0.4,0.1-0.6,0.1c-0.2,0-0.4-0.1-0.6-0.3c-0.1-0.2-0.3-0.5-0.3-0.7c-0.1-0.3-0.1-0.5-0.1-0.8c0-0.3,0-0.4,0-0.5
	c0-0.4,0.1-0.9,0.2-1.4c0.1-0.5,0.3-1,0.5-1.5c0.2-0.5,0.5-0.8,0.8-1.1c0.3-0.3,0.7-0.5,1.1-0.4c0.5,0,1,0.2,1.4,0.5
	c0.4,0.3,0.6,0.7,0.6,1.3L193.1,52.9z M183.9,51c-0.2-0.5-0.5-0.9-0.8-1.3c-0.3-0.4-0.7-0.7-1.1-0.9c0,0,0,0,0,0c0,0,0,0,0,0
	l-0.1-0.1c-0.3-0.2-0.6-0.3-0.9-0.4c-0.3-0.1-0.7-0.2-1.3-0.2l-0.2,0c-0.2,0-0.4,0-0.6,0.1s-0.4,0.1-0.6,0.2c-0.1-0.4-0.3-0.7-0.4-1
	s-0.6-0.4-1.1-0.5c-0.5,0-0.9,0.1-1.1,0.2c-0.2,0.2-0.3,0.5-0.3,0.8c0,0.9,0,1.7,0,2.5c0,0.8,0,1.7,0,2.5c0,1.1-0.1,2-0.1,2.9
	c0,0.9,0,1.8-0.1,2.6c-0.1,1.2-0.1,2.3-0.2,3.4c-0.1,1.1-0.1,2.2-0.2,3.2c0,0.4,0,0.7,0,1.1c0,0.4,0,0.7,0,1.1c0,0.1,0,0.3-0.1,0.4
	c0,0.1,0,0.3,0,0.4c0,0.3,0.1,0.6,0.4,0.9c0.3,0.3,0.6,0.4,0.9,0.4c0.3,0,0.6-0.1,0.8-0.2c0.2-0.2,0.4-0.4,0.5-0.6
	c0.1-0.2,0.2-0.5,0.3-0.8c0.1-0.3,0.1-0.5,0.1-0.7c0-0.4,0-0.9,0-1.4c0-0.5-0.1-1.1,0-1.7l0.2-3.7c0-0.5,0-0.9,0-1
	c0-0.2,0-0.3,0.1-0.4c0.1,0,0.2,0.1,0.3,0.1c0.1,0,0.2,0,0.3,0c1,0,1.9-0.1,2.6-0.4c0.8-0.3,1.4-0.7,1.9-1.3
	c0.5-0.5,0.9-1.1,1.1-1.7c0.3-0.6,0.4-1.2,0.4-1.8c0-0.5,0-0.9-0.2-1.4C184.3,52,184.1,51.5,183.9,51z M180.6,56.2l-0.6,0.4
	c-0.3,0.2-0.6,0.2-0.9,0.3c-0.3,0-0.5,0.1-0.9,0c-0.2,0-0.3-0.2-0.3-0.6c0-0.4,0-0.8,0-1.2l0-1.1c0-0.2,0-0.6,0-1.1c0-0.5,0-1,0-1.4
	c0-0.4,0-0.5,0.1-0.6c0,0,0.1,0,0.1-0.1c0,0,0,0,0-0.1c0,0,0.2-0.1,0.3-0.2c0.2-0.1,0.3-0.2,0.5-0.2l0.4-0.1c0.4,0.1,0.7,0.2,1,0.4
	c0.3,0.2,0.5,0.5,0.7,0.8c0.2,0.3,0.4,0.7,0.5,1c0.1,0.4,0.1,0.7,0.1,1.1C181.7,54.7,181.3,55.6,180.6,56.2z M201.6,54.2l-0.1-0.3
	c-0.1-0.1-0.2-0.3-0.3-0.6c-0.1-0.3-0.2-0.6-0.4-0.9c-0.1-0.3-0.2-0.6-0.3-0.9c-0.1-0.3-0.1-0.5-0.1-0.6l0-0.7
	c0-0.4,0.1-0.8,0.2-1.2c0.1-0.4,0.3-0.8,0.6-1.1c0.1-0.1,0.2-0.2,0.3-0.3c0.1-0.1,0.2-0.2,0.2-0.4c-0.1-0.2-0.2-0.4-0.3-0.6
	c-0.1-0.2-0.3-0.3-0.5-0.3c-0.1,0-0.1,0-0.2,0c-0.1,0-0.1,0-0.2,0c-0.5,0-1,0.1-1.3,0.4c-0.4,0.3-0.6,0.6-0.9,1.1
	c-0.2,0.4-0.4,0.9-0.5,1.5c-0.1,0.5-0.2,1-0.2,1.5c0,0.6,0.1,1.2,0.3,1.8c0.2,0.6,0.5,1.2,0.8,1.9c0.3,0.7,0.6,1.4,0.9,2.2
	c0.3,0.8,0.6,1.6,0.8,2.6c0,0,0,0.1,0,0.3c0,0.5-0.2,0.9-0.5,1.2c-0.3,0.3-0.6,0.4-1,0.4c-0.2,0-0.5-0.1-0.7-0.4
	c-0.3,0.1-0.4,0.1-0.5,0.2c-0.1,0.1-0.2,0.2-0.2,0.3c0,0.4,0.2,0.8,0.6,1.2c0.3,0.4,0.7,0.5,1.2,0.6c0.5,0,1-0.1,1.4-0.2
	s0.8-0.5,1.2-0.8c0.3-0.3,0.6-0.7,0.8-1.2c0.2-0.4,0.3-0.9,0.3-1.4c0-1-0.1-1.9-0.4-2.7C202.4,55.9,202,55.1,201.6,54.2z
	 M158.3,48.6C158.3,48.6,158.3,48.6,158.3,48.6C158.3,48.6,158.3,48.6,158.3,48.6C158.3,48.6,158.3,48.6,158.3,48.6z M147.2,53.1
	l-0.2,0.3C147.1,53.3,147.2,53.2,147.2,53.1z M146.7,52.9c0,0.1,0,0.1,0,0.2C146.6,53.2,146.7,53,146.7,52.9
	C146.7,53,146.7,52.9,146.7,52.9z M205.3,28.9c0.2-0.4,0.3-0.9,0.4-1.2c0.1-0.4,0.2-0.6,0.2-0.8c0-0.2-0.1-0.5-0.3-0.7
	c-0.2-0.3-0.5-0.4-0.8-0.4c-0.2,0-0.4,0-0.7,0.1c-0.3,0.1-0.5,0.2-0.6,0.4c-0.2,0.3-0.3,0.7-0.5,1.3c-0.2,0.6-0.4,1.3-0.6,2
	c-0.2,0.7-0.5,1.5-0.8,2.2c-0.3,0.8-0.7,1.5-1.1,2.1c-0.2-0.7-0.4-1.5-0.6-2.3c-0.2-0.9-0.3-1.8-0.2-2.7c0-0.3,0-0.5-0.1-0.7
	c-0.1-0.2-0.2-0.3-0.4-0.4c-0.2-0.1-0.4-0.2-0.6-0.2c-0.2-0.1-0.4-0.1-0.6-0.2c-0.2,0.1-0.4,0.2-0.6,0.4c-0.2,0.2-0.3,0.4-0.5,0.7
	c-0.2,0.3-0.3,0.5-0.4,0.8c-0.1,0.3-0.3,0.5-0.5,0.8c-0.1,0.2-0.2,0.4-0.3,0.6c-0.1,0.2-0.2,0.5-0.3,0.7c-0.1,0.3-0.2,0.5-0.4,0.7
	c-0.1,0.2-0.3,0.4-0.4,0.5c-0.1-0.3-0.1-0.5-0.1-0.8c0-0.3,0-0.5,0-0.8c0-0.7-0.1-1.3-0.2-1.8c-0.1-0.5-0.1-1-0.1-1.6
	c0-0.5-0.1-0.9-0.2-1.2c-0.2-0.3-0.6-0.5-1.4-0.6c-0.4,0-0.7,0.2-0.8,0.5c-0.1,0.4-0.1,0.7-0.2,1.1c0,0.6,0,1.1,0.1,1.7
	c0.1,0.6,0.1,1.1,0.1,1.7c0,0.4,0,0.8,0.2,1.2c0.1,0.4,0.2,0.8,0.2,1.2l0,0.1c0,0.3,0,0.7,0,1.1c0,0.4,0.1,0.8,0.2,1.2
	c0.1,0.4,0.3,0.7,0.5,0.9c0.2,0.3,0.5,0.4,1,0.4c0.3,0,0.5,0,0.7-0.1s0.2-0.1,0.3-0.3c0.1-0.1,0.1-0.2,0.2-0.3
	c0-0.1,0.1-0.3,0.3-0.4c0.2-0.2,0.4-0.5,0.6-0.8c0.2-0.3,0.4-0.7,0.6-1c0.2-0.4,0.4-0.7,0.5-1.1s0.3-0.6,0.5-0.9
	c0.2,0.5,0.4,1,0.6,1.6c0.1,0.6,0.3,1.2,0.5,1.7c0.2,0.5,0.4,1,0.7,1.4c0.3,0.4,0.7,0.6,1.2,0.6c0.5,0,0.9-0.1,1.2-0.3
	c0.3-0.2,0.6-0.5,0.8-0.9c0.2-0.4,0.4-0.8,0.6-1.2c0.2-0.4,0.4-0.9,0.6-1.3c0.1-0.1,0.2-0.4,0.3-0.7c0.1-0.3,0.3-0.7,0.5-1.2
	c0.2-0.4,0.4-0.9,0.6-1.4C204.9,29.9,205.1,29.4,205.3,28.9z M147.6,53.9c0.1,0,0.1-0.1,0-0.2C147.6,53.8,147.6,53.8,147.6,53.9z
	 M147.8,53.5c0-0.1,0-0.2-0.1-0.2C147.7,53.6,147.8,53.4,147.8,53.5z M149.3,53.7l0,0.2C149.3,53.9,149.3,53.8,149.3,53.7
	C149.3,53.7,149.3,53.7,149.3,53.7z M173,52.2c-0.2,0-0.5,0.1-0.7,0c-0.2,0-0.4,0-0.6-0.1c0-0.4,0-0.8,0-1.3l0-0.5
	c0-0.6,0-1-0.1-1.3c-0.1-0.3-0.2-0.6-0.3-0.7c-0.1-0.2-0.3-0.3-0.5-0.4c-0.2-0.1-0.4-0.2-0.7-0.3c-0.6,0-1.1,0.2-1.5,0.4
	c0.1-0.1,0.1-0.1,0.2-0.3c0.2-0.2,0.3-1,0.3-1c-0.5,0.3-1-0.1-1.5-0.6c-0.2,0.1-0.4,0.2-0.6,0c-0.7,0-1.3-0.6-2-0.4
	c0,0.1,0,0.3-0.1,0.3l0-0.1l-0.1,0.2c-0.1,0,0-0.2,0-0.3c-0.3,0-0.5,0.1-0.8,0c0,0.3-0.1,0-0.2,0.3c0-0.1,0-0.1,0-0.1
	c-0.2,0.2-0.2,0.2-0.4-0.2c-0.7-0.3-1.4-0.1-2.1-0.2c-0.7,0-1.4,0.3-2.1,0.3c-0.1,0.5-0.3,0.3-0.4,0.7l0-0.2c-0.1,0.2-0.1,0-0.3-0.2
	c0,0.2-0.1,0,0,0.3c-0.1,0.2-0.1-0.4-0.1-0.3c0-0.1,0,0.2,0,0.1c-0.2,0.3,0-0.2-0.2-0.5c-0.3,0.1-0.7,0.4-1,0.2c0,0,0,0.2,0,0.2
	c0-0.5-0.1,0.1-0.2-0.1c0-0.1,0-0.1,0.1-0.2c-0.1-0.2-0.3,0.1-0.4-0.1c-0.1,0.2-0.3-0.2-0.4,0c0-0.2-0.1-0.1-0.1-0.2
	c-0.1,0.6-0.2-0.2-0.4,0.2l0-0.1c-0.3,0-0.7-0.1-1.1,0.1c-0.2,0.1-0.4-0.5-0.6-0.2c0,0.1,0,0.2-0.1,0.2c-0.1,0,0-0.2,0-0.2
	c-0.1,0.2-0.3-0.1-0.4-0.1c0,0.1-0.1,0.1-0.1,0.2c-0.1-0.4-0.4,0.1-0.5-0.2c0,0.5-0.1,0.3-0.2,0.4c0,0,0-0.2,0-0.2
	c-0.1,0.1-0.2,0.1-0.3-0.1c-0.1,0.1-0.1,0.3-0.2,0.2c0-0.3-0.2,0-0.2-0.1c0,0.3-0.1,0.5-0.2,0.4l0-0.4c-0.3,0.2-0.6-0.2-0.9,0.3
	l0-0.2c-0.3,0.3-0.6,0-0.9,0.4c-0.1-0.1-0.2-0.2-0.3-0.2c-0.1,0.2-0.1,0.2-0.2,0.4c0,0-0.1,0-0.1,0c0-0.1,0-0.1,0-0.2
	c-0.1-0.1-0.2-0.4-0.4,0l0-0.2c-0.1,0.2-0.3,0.4-0.4,0.2c0,0.2-0.2,0.2-0.1,0.5c0,0,0-0.3-0.1-0.1l0.1-0.3c-0.3-0.1-0.5,0.1-0.7,0.2
	c-0.1-0.4-0.2,0-0.4-0.2c-0.1,0.2-0.2-0.1-0.3,0.3l0-0.2c-0.1,0-0.3,0-0.4-0.1c-0.1-0.1-0.1,0.2-0.2,0.3l0-0.2
	c-0.1,0.1-0.1,0.4-0.2,0.6c-0.1-0.1-0.1,0-0.1-0.1c0.1-0.1,0.1-0.3,0.2-0.6c-0.1-0.1-0.2,0.4-0.2,0.1c-0.1-0.1-0.1,0-0.2,0.3
	c0-0.1,0-0.2,0-0.3c-0.1,0-0.1,0-0.1,0.1c0,0,0,0,0,0c0,0.2-0.1,0.2-0.1,0.5c0-0.1,0-0.1,0.1-0.1c0,0.2-0.1,0.3-0.1,0.1
	c0-0.2,0.1-0.4,0-0.5l-0.2,0.5c0-0.2,0.1,0,0.1,0.2l0.1-0.1l0,0.2c0.1-0.1,0.2,0.2,0.3,0l0-0.2c0.1,0,0.1-0.3,0.2,0
	c0,0.1,0,0.2,0,0.3c0,0,0-0.1,0.1-0.1l0,0.4c0.1-0.5,0.2-0.2,0.2-0.3l0,0.1c0.1,0.2,0-0.2,0.1-0.2c0.1,0.1,0,0.4,0,0.6
	c0.1,0,0.3-0.3,0.4,0c0.1-0.1,0.2-0.2,0.3-0.4c0.1,0,0,0.4,0.1,0.2c0,0.1,0,0.3,0,0.4c0-0.2,0.1,0,0.1-0.3c0.1,0.1,0.2,0.1,0.3,0.1
	c0,0-0.1,0.3,0,0.4c0.1-0.2,0.2-0.4,0.3-0.3c0-0.3,0-0.2,0-0.5c0,0,0-0.1,0.1-0.1c0,0.3,0,0.7,0.1,0.7c0,0.4-0.1-0.1-0.1,0.3
	c-0.1,0.3-0.2,0.3-0.2,0.1c-0.1,0.3,0.1,0,0,0.4c0.1,0,0.1-0.2,0.2-0.2c0-0.2,0-0.2,0-0.3c0.1-0.4,0.1,0.3,0.1,0.3
	c0,0,0,0.1-0.1,0.1c0.1,0.1,0.1-0.1,0.2-0.1c0,0.5-0.1,0-0.1,0.3l0,0.3c0.1,0,0-0.4,0.1-0.3l0,0.2l0.1-0.1c0-0.2,0-0.4-0.1-0.4
	c0.1-0.4,0.1-0.1,0.2-0.1c0-0.3,0,0,0-0.2c0-0.2,0.1-0.2,0.1-0.3c0.1,0,0,0.3,0,0.4c0,0-0.1,0.1-0.1-0.1c-0.1,0.3,0,0.5-0.1,0.7
	C149,49.4,149,49,149,49c0,0,0-0.2,0-0.3c0.1-0.6,0.1,0.3,0.1,0.4c0,0.5,0,1,0.1,1.5c0,0.2,0,0.3,0,0.5c0,0,0,0,0,0.1l0-0.2
	c-0.2,0.2-0.4,0.4-0.5,0.2c-0.1,0.2-0.2,0.2-0.2,0.5c-0.1,0,0-0.3-0.1-0.1l0.1-0.3c-0.3-0.1-0.6,0-1,0.1c-0.1-0.4-0.3,0-0.5-0.2
	c-0.1,0.2-0.3-0.1-0.4,0.3l0-0.2c-0.1,0-0.3-0.1-0.5-0.2c-0.1-0.1-0.1,0.2-0.2,0.3l0-0.2c-0.1,0.1-0.2,0.4-0.2,0.6
	c-0.1-0.1-0.1,0-0.1-0.1c0.1-0.1,0.2-0.3,0.2-0.6c-0.1-0.1-0.3,0.4-0.3,0.1c-0.1-0.1-0.2,0-0.2,0.3c0-0.1-0.1-0.2,0-0.3
	c-0.1,0-0.1,0-0.2,0.1c0,0,0,0,0,0c-0.1,0.2-0.1,0.2-0.1,0.5c0-0.1,0.1-0.1,0.1-0.1c0,0.2-0.2,0.3-0.2,0.1c0-0.2,0.1-0.3,0.1-0.5
	l-0.3,0.5c0.1-0.2,0.1,0,0.1,0.2l0.1-0.1l0,0.2c0.1-0.1,0.2,0.2,0.4,0l0-0.2c0.1,0,0.2-0.3,0.2,0c0,0.1,0,0.2,0,0.3
	c0,0,0.1-0.1,0.1-0.1l-0.1,0.4c0.1-0.5,0.2-0.2,0.3-0.2l0,0.1c0.1,0.2,0-0.2,0.1-0.2c0.1,0.1,0,0.4,0,0.6c0.1,0,0.4-0.3,0.5,0
	c0.1-0.1,0.3-0.2,0.4-0.3c0.1,0,0,0.4,0.1,0.2c0,0.1,0,0.3,0,0.4c0-0.2,0.2,0,0.1-0.3c0.1,0.1,0.3,0.1,0.5,0.1
	c-0.1,0-0.1,0.3-0.1,0.4c0.1-0.2,0.2-0.4,0.3-0.3c0-0.3,0-0.3,0-0.5c0,0,0.1-0.1,0.1-0.1c0,0.3,0,0.7,0.1,0.7
	c-0.1,0.4-0.2-0.1-0.2,0.3c-0.1,0.3-0.3,0.3-0.3,0.1c-0.1,0.3,0.1,0,0,0.4c0.1,0,0.2-0.2,0.3-0.2c0-0.2,0-0.2,0-0.3
	c0.2-0.3,0.1,0.3,0.2,0.3c0,0,0,0-0.1,0.1c0.1,0.1,0.1-0.1,0.2-0.1c0,0.5-0.1,0-0.2,0.3l0,0.3c0.1,0.1,0.1-0.4,0.2-0.2l0,0.2
	l0.1-0.1c0-0.2,0-0.4-0.1-0.4c0.1-0.4,0.1-0.1,0.2-0.1c0.1-0.3-0.1,0,0-0.2c0-0.2,0.1-0.2,0.2-0.3c0.1,0,0,0.3,0.1,0.5
	c0,0-0.1,0.1-0.1-0.1c-0.1,0.3,0,0.5-0.1,0.7c0.1,0.2,0.1-0.2,0.2-0.2c0,0,0-0.2,0-0.3c0.2-0.7,0.1,0.5,0.2,0.4
	c0-0.4,0.3-0.6,0.2-1.1c0-0.1,0.1-0.2,0.1-0.1c-0.1,0.3,0,0.2,0,0.5l0.1,0l-0.1,0.3c0,0.2,0.1,0.4,0.2,0.6c0.1-0.1,0-0.3,0.1-0.4
	c0,0.2,0,0.3,0,0.3c-0.1-0.1,0-0.4,0.1-0.5c0,0,0,0,0,0c0,0,0,0.1,0,0.1c0,0.1,0,0.2,0,0.3l0,0.1c0.1-0.2,0,0,0.1,0
	c0,0.2,0,0.4,0,0.6c0.1,0.4,0.1,0.7,0.1,1.1c0,0.1,0,0.1,0,0.2c0,0-0.1,0.1-0.1,0.2l0-0.2c-0.1,0.2-0.3,0.4-0.5,0.2
	c0,0.2-0.2,0.2-0.1,0.5c-0.1,0,0-0.3-0.1-0.1l0.1-0.3c-0.3-0.1-0.6,0.1-0.9,0.2c-0.1-0.4-0.3,0-0.5-0.2c-0.1,0.2-0.3-0.1-0.4,0.3
	l0-0.2c-0.1,0-0.3,0-0.5-0.1c-0.1-0.1-0.1,0.2-0.2,0.3l0-0.2c-0.1,0.1-0.1,0.4-0.2,0.6c-0.1-0.1-0.1,0-0.1-0.1
	c0.1-0.1,0.1-0.3,0.2-0.6c-0.1-0.1-0.2,0.4-0.3,0.1c-0.1-0.1-0.2,0-0.2,0.3c0-0.1-0.1-0.2,0-0.3c-0.1,0-0.1,0-0.2,0.1c0,0,0,0,0,0
	c0,0.2-0.1,0.2-0.1,0.5c0-0.1,0-0.1,0.1-0.1c0,0.2-0.1,0.3-0.2,0.1c0-0.2,0.1-0.4,0-0.5l-0.2,0.5c0-0.2,0.1,0,0.1,0.2l0.1-0.1l0,0.2
	c0.1-0.1,0.2,0.2,0.4,0l0-0.2c0.1,0,0.2-0.3,0.2,0c0,0.1,0,0.2,0,0.3c0,0,0-0.1,0.1-0.1l0,0.4c0-0.5,0.2-0.2,0.3-0.3l0,0.1
	c0.1,0.2,0-0.2,0.1-0.2c0.1,0.1,0,0.4,0.1,0.6c0.1,0,0.3-0.3,0.4,0c0.1-0.1,0.2-0.2,0.3-0.4c0.1,0,0,0.4,0.1,0.2c0,0.1,0,0.3,0,0.4
	c0-0.2,0.2,0,0.1-0.3c0.1,0.1,0.3,0.1,0.4,0c0,0-0.1,0.3,0,0.4c0.1-0.2,0.2-0.4,0.3-0.3c0-0.3,0-0.2,0-0.5c0,0,0.1-0.1,0.1-0.1
	c0,0.3,0,0.7,0.1,0.7c0,0.4-0.2-0.1-0.1,0.3c-0.1,0.3-0.3,0.3-0.3,0.1c-0.1,0.3,0.1,0,0,0.4c0.1,0,0.1-0.2,0.3-0.3
	c0-0.2,0-0.2,0-0.3c0.1-0.4,0.1,0.3,0.2,0.3c0,0,0,0.1-0.1,0.1c0.1,0.1,0.1-0.1,0.2-0.1c0,0.5-0.1,0-0.2,0.3l0.1,0.3
	c0.1,0,0-0.4,0.2-0.3l0,0.2l0.1-0.1c0-0.2,0-0.4-0.1-0.4c0.1-0.4,0.1-0.1,0.2-0.1c0-0.3,0,0,0-0.2c0-0.2,0.1-0.2,0.1-0.3
	c0.1,0,0,0.3,0.1,0.4c0,0-0.1,0.1-0.1-0.1c-0.1,0.3,0,0.5,0,0.7c0.1,0.2,0.1-0.2,0.1-0.2c0,0,0-0.2,0-0.3c0.2-0.7,0.1,0.5,0.2,0.4
	c0-0.4,0.2-0.6,0.1-1.1c0-0.1,0.1-0.2,0.1-0.1c0,0.3,0.1,0.2,0,0.5l0.1,0l-0.1,0.4c0.1,0.2,0.1,0.4,0.2,0.6c0.1-0.1,0-0.3,0.1-0.4
	c0,0.2,0,0.3,0.1,0.3c-0.1-0.1,0-0.4,0.1-0.5c0.1,0,0.1,0.3,0.1,0.4l-0.1,0.3c0.1-0.2,0,0.1,0.1,0c0-0.2,0.1-0.4,0.1-0.6
	c0.1-0.1,0.1,0.1,0.1,0.1l-0.1,0.2c0.1-0.1,0,0.5,0.1,0.3l0-0.2c0,0,0,0.1,0,0.2c0-0.2,0.1-0.1,0.1-0.2l0,0.2c0-0.1,0.1-0.4,0.2-0.1
	c0-0.4-0.1,0-0.1-0.2c0-0.3,0.1-0.3,0.1-0.3c0,0.4,0.1,0,0.2,0c0,0.1,0.1,0.2,0.1,0.3l0-0.3c0,0.5,0.1-0.1,0.2,0c0,0.2,0,0.4,0,0.4
	c0-0.3,0.1-0.5,0.1-0.6c0,0,0,0,0,0c0,0.2-0.1,0.4,0,0.7c0.1-0.3,0.1,0.2,0.2-0.2c-0.1-0.1,0-0.2,0-0.4c0.1,0,0,0.2,0,0.3
	c0,0,0.1-0.2,0.1-0.3c0,0,0.1,0,0.1,0c0,0,0,0,0,0.1c0,0,0,0,0.1-0.1c0,0,0.1,0,0.2,0c0,0,0,0.1,0,0.1l0-0.1c0,0,0,0,0,0
	c0,0.1,0,0.3,0,0.4c0-0.3,0.1-0.1,0.2-0.1c0-0.2-0.1,0.1,0-0.1c0,0,0-0.1,0.1-0.1c0,0,0.1,0,0.1,0c0,0.1,0,0.2,0,0.3
	c0,0.1,0-0.3,0.1-0.2l0,0.1c0.3,0,0.6,0,0.8-0.6c0,0.2,0.1,0.3,0.2,0.4c-0.1-0.1,0-0.3,0-0.3l0.1,0.3c0.1,0.2,0.2-0.1,0.3-0.3
	c0,0.1,0,0.1,0,0.2c0.1,0.2,0.1-0.2,0.1-0.2l0,0.2l0-0.2c0.1-0.1,0.2-0.1,0.1,0.3c0-0.1,0.1-0.1,0-0.2c0.1,0.2,0.2,0.2,0.4,0.1
	c-0.1-0.1,0-0.2,0-0.4c0-0.3,0,0.1,0.1-0.1c0,0.1,0,0.3,0,0.3c0.2,0.4,0.4,0.1,0.6,0.2c0-0.1,0-0.1,0.1-0.2c0.1,0.3,0.3,0,0.4,0.1
	c0-0.1,0-0.5,0.1-0.5c0.1-0.3,0,0.4,0.1,0.6c0-0.1,0.1-0.2,0.1-0.1l0,0c0-0.1,0.1-0.1,0.1-0.2c0,0,0,0,0.1,0.1l0,0
	c0,0,0.1,0.2,0.1,0.2c0,0,0,0,0,0c0,0,0,0,0.1,0.1c0.2,0.1,0.3,0.2,0.5,0.2c0.6,0,1-0.1,1.2-0.3c0.1,0,0.3-0.1,0.4,0.1
	c0-0.4,0.1-0.1,0.1-0.2c0,0.4,0.1-0.1,0.2,0.2l0-0.4c0.1,0.2,0.2-0.5,0.3-0.1c0.1,0.1,0,0.3-0.1,0.3c0.1,0.4,0.2-0.3,0.3,0.1
	c0-0.1,0-0.4,0.1-0.5c0.1,0.2,0.2,0.4,0.2,0.4c0.1-0.1,0.1-0.2,0.1-0.1c0,0.1,0,0.1-0.1,0.1c0.1,0.1,0.2-0.1,0.2-0.2
	c0,0.3,0.2,0.1,0.3,0.3c0.1-0.3,0.2,0.1,0.2-0.3c0,0,0,0.1,0,0.1c0-0.1,0.1-0.4,0.1-0.4l0,0.3c0,0.4,0.1,0.1,0.1,0.3
	c0-0.2,0.1,0,0.1-0.2l0.1-0.1c0.1-0.1,0-0.1,0.1-0.2c0.1,0,0,0.3,0,0.3c0,0.2,0.1,0.1,0.2,0c0,0,0,0,0-0.1c0,0,0,0.1,0,0.1
	c0,0,0,0,0.1,0c0,0,0,0,0,0c0,0,0,0-0.1,0c0,0,0,0,0.1,0c0,0,0,0,0,0c0,0,0,0,0,0.1l0,0.2c0,0,0.2-0.2,0.2-0.3
	c0.2,0.2,0.5,0,0.5-0.1c0,0-0.1,0.2,0,0.1c0.1,0,0.1-0.2,0.1-0.1c0.1-0.1,0,0.2,0.1,0.2c0,0,0-0.2,0-0.2c0.1,0.3,0.3-0.2,0.5,0
	c0,0,0,0.1,0,0.2c0.1-0.1,0.2-0.2,0.4-0.5c0,0.1,0,0.2,0,0.3c0.1,0,0.2-0.1,0.2-0.3c-0.1-0.1,0,0.1,0,0.1c-0.1-0.2,0.1-0.4,0.1-0.4
	l0,0c0.1,0,0.1-0.1,0.2-0.1c0,0.1,0,0.1,0,0.2c0,0.4,0.2,0.2,0.2,0.3c0-0.1,0.1-0.1,0.1-0.2c0.1-0.1,0,0.2,0.1,0.2l0-0.1
	c0.1,0.4,0.2,0.7,0.4,1c0.2,0.3,0.5,0.5,0.9,0.5c0.3,0,0.6,0,0.8-0.2c0.2-0.3,0.4-0.7,0.5-1c0.1-0.2,0.2-0.5,0.2-0.7
	c0,0,0,0.1,0,0.1c0-0.2,0.2-0.2,0.2-0.2c0,0.1,0,0.2,0.1,0.3c0.4,0,0.9,0.1,1.3-0.2c0.1,0.4-0.1,0.2-0.1,0.5c0-0.3,0.1-0.1,0.2-0.2
	l0,0c0.1-0.1,0.1,0.1,0.2,0l0-0.1c0.1-0.2,0.1,0.4,0.2,0l0,0.2c0.1-0.4,0.1,0.1,0.2-0.2l0,0.1c0.1,0.2,0.2-0.4,0.3-0.1
	c0.1-0.1,0.2-0.1,0.2-0.4c0,0.1,0,0.3,0,0.4c0.3-0.1,0.7-0.1,1-0.4c0,0.1,0,0.1,0,0.2c0.1-0.2,0.2,0,0.3,0c0.1,0.5,0.2,1,0.5,1.4
	c0.2,0.4,0.5,0.6,1,0.7c0.4,0,0.7-0.1,1-0.3c0.3-0.2,0.4-0.6,0.5-1.1c0-0.2,0-0.4,0-0.5c0.2,0,0.3-0.1,0.4-0.3c0.3-0.2,0.4-1,0.4-1
	c-0.4,0.2-0.8,0.1-1.2-0.1c0-0.2-0.1-0.4-0.1-0.6c-0.1-0.6-0.1-1.2-0.2-1.8c0.4,0.4,0.9,0.7,1.3,0.2c0.1-0.1,0,0.4,0.1,0.3
	c0.4-0.4,0.8,0.4,1.3-0.4c0.3-0.2,0.5-1,0.5-1C174.2,53.1,173.6,52.7,173,52.2z M155.2,54.5c0,0.3-0.1,0.5-0.1,0.8
	c0,0.1,0,0.2,0,0.3c0,0,0-0.1,0-0.1c-0.1,0.2-0.3-0.1-0.5-0.1c0,0.1-0.1,0.1-0.1,0.2c-0.2-0.4-0.5,0.1-0.6-0.2
	c0.1,0.5-0.1,0.3-0.2,0.4c0,0,0-0.2,0-0.2c-0.1,0.1-0.2,0.1-0.4-0.1c-0.1,0.1-0.1,0.3-0.2,0.2c-0.1-0.3-0.2,0-0.3-0.1
	c0,0.3-0.1,0.5-0.2,0.4l0-0.4c-0.1,0.1-0.2,0.1-0.4,0.1c-0.1-0.6-0.1-1.2-0.2-1.9c0.1-0.1,0.3-0.2,0.4-0.5c0,0.2,0.1,0.3,0.2,0.5
	c-0.1-0.1,0-0.3,0.1-0.3l0,0.3c0.1,0.2,0.2-0.1,0.3-0.2c0,0.1,0,0.1,0,0.2c0.1,0.2,0.1-0.2,0.1-0.2l0,0.2l0-0.2
	c0.1-0.1,0.2,0,0.1,0.3c0-0.1,0.1-0.1,0-0.2c0.1,0.2,0.3,0.2,0.4,0.1c-0.1-0.1,0-0.2,0-0.4c0-0.3,0,0.1,0.1-0.1c0,0.1,0,0.3,0,0.3
	c0.1,0.5,0.4,0.1,0.6,0.2c0,0,0-0.1,0.1-0.2c0.1,0.4,0.3,0,0.4,0.2c0-0.1,0.1-0.5,0.1-0.5c0.1-0.3,0,0.4,0.1,0.6c0,0,0,0,0-0.1
	C155.3,54,155.3,54.2,155.2,54.5z M155.4,50.9c-0.2,0.2-0.3-0.1-0.5-0.1c0,0.1-0.1,0.1-0.1,0.2c-0.2-0.4-0.5,0.1-0.7-0.2
	c0,0.5-0.1,0.3-0.2,0.4c0,0,0-0.2,0-0.2c-0.2,0-0.2,0.1-0.4-0.1c-0.1,0-0.1,0.3-0.2,0.2c0-0.3-0.2,0-0.3-0.2c0,0.3-0.1,0.5-0.2,0.4
	l0.1-0.4c-0.3,0.2-0.6-0.1-0.9,0c0-0.7,0-1.4,0-2c0.1-0.1,0.2-0.2,0.2-0.4c0,0.2,0.1,0.3,0.2,0.4c0-0.1,0-0.3,0-0.3l0,0.3
	c0.1,0.2,0.1-0.1,0.2-0.3c0,0.1,0,0.1,0,0.2c0,0.2,0.1-0.2,0.1-0.2l0,0.2l0-0.2c0.1-0.1,0.1-0.1,0.1,0.3c0-0.1,0-0.1,0-0.2
	c0,0.2,0.2,0.2,0.3,0.1c0-0.1,0-0.2,0-0.4c0-0.3,0,0.1,0.1-0.1c0,0.1,0,0.3,0,0.3c0.1,0.4,0.3,0.1,0.5,0.2c0-0.1,0-0.1,0-0.2
	c0.1,0.4,0.2,0,0.3,0.1c0-0.1,0-0.5,0.1-0.5c0.1-0.3,0,0.4,0.1,0.6c0-0.1,0.1-0.2,0.1-0.1l0,0c0-0.1,0.1-0.2,0.1-0.1l0,0
	c0,0,0.1,0.2,0.1,0.2c0-0.3,0.1-0.1,0.1-0.3c0,0,0,0,0,0.1l0-0.2l0.1,0.1c0,0.1,0,0.2-0.1,0.2c0.1,0.2,0-0.2,0.1-0.3
	c0.1-0.2,0.1,0.1,0.1,0.2c0,0.1,0-0.1-0.1,0c0,0.2,0,0.1,0,0.2c0,0,0-0.3,0.1-0.2c0,0,0.1,0,0.1,0.2c0-0.1,0.1-0.1,0.1-0.2
	c0,0-0.1-0.1-0.1-0.3c0,0,0.1-0.1,0.1,0l0,0.1c0-0.1,0.1,0,0.1-0.1c0,0,0,0,0,0.1l0,0.2c0,0,0,0,0,0c0,0,0,0,0,0.1
	c0.1,0.2,0.1,0.4,0.1,0.7c0,0.2,0,0.3,0,0.3c0,0,0,0.1,0,0.3c0,0.2,0,0.5,0,1C155.5,50.8,155.4,50.8,155.4,50.9z M160.4,51.1
	c0.2-0.4,0.5-0.7,0.8-0.9c0.2,0.3,0.3,0.6,0.4,1c0.1,0.2,0.1,0.5,0.2,0.8c0,0-0.1,0.1-0.1,0.2l0-0.2c-0.2,0.2-0.2-0.1-0.4-0.3
	c0,0.2-0.1,0-0.1,0.3c-0.1,0.2-0.1-0.4-0.2-0.3c0-0.1,0,0.2,0,0.1c-0.3,0.3,0.1-0.2-0.2-0.5c-0.2,0-0.4,0.1-0.7,0.2
	C160.2,51.4,160.3,51.3,160.4,51.1z M159.9,48L159.9,48C159.9,48.1,159.9,48.1,159.9,48c-0.1,0.1-0.1,0.1-0.1,0.1
	C159.9,48,159.9,48,159.9,48z M159.7,48.3C159.7,48.3,159.7,48.3,159.7,48.3C159.7,48.3,159.7,48.3,159.7,48.3
	C159.7,48.3,159.7,48.3,159.7,48.3z M158.2,50.8c-0.1,0.1-0.1,0.2-0.2,0.3c-0.1-0.1-0.1-0.1-0.2,0.1l0-0.1c0,0-0.1,0-0.1,0
	c0-0.2,0-0.4,0.1-0.7c0-0.3,0.1-0.5,0.1-0.8c0-0.2,0-0.5,0-0.9c0-0.1,0-0.2,0-0.3c0-0.1,0-0.2,0.1-0.2l0,0.3c0,0.4,0.1,0.1,0.1,0.3
	c0-0.3,0,0,0.1-0.2l0-0.1c0.1-0.1,0-0.1,0.1-0.2c0.1,0,0,0.3,0,0.3c0,0.2,0.1,0.1,0.1,0c0,0,0,0,0-0.1c0,0,0,0.1,0,0.1
	c0,0,0,0,0.1,0c0,0,0,0,0,0c0,0,0,0,0,0c0,0,0,0,0,0c0,0,0,0,0,0c0,0,0,0,0,0.1l0,0.2c0,0,0.1-0.2,0.1-0.3c0.1,0.2,0.4,0,0.4-0.1
	c0,0-0.1,0.2,0,0.1c0,0,0.1-0.2,0.1-0.1c0-0.1,0,0.2,0.1,0.2c0,0,0-0.2,0-0.2c0.1,0.4,0.3-0.2,0.4,0c0,0,0,0.1,0,0.2
	c0,0.1-0.1,0.1-0.1,0.2c-0.2,0.3-0.4,0.6-0.6,1C158.5,50.2,158.3,50.5,158.2,50.8z M161.5,55.6c-0.1,0.5-0.3,0.3-0.5,0.7l0-0.2
	c-0.1,0.2-0.2,0-0.3-0.2c0,0.2-0.1,0-0.1,0.3c-0.1,0.2-0.1-0.4-0.2-0.3c0-0.1,0,0.2,0,0.1c-0.2,0.3,0-0.2-0.2-0.4
	c-0.4,0.1-0.8,0.4-1.2,0.2c0,0,0,0.2,0,0.2c0-0.5-0.1,0.1-0.2-0.1c0-0.1,0-0.1,0.1-0.2c-0.2-0.2-0.3,0-0.4-0.1
	c0.1-0.3,0.3-0.7,0.5-1c0.1-0.2,0.2-0.5,0.3-0.8c0,0,0,0,0.1,0.1c0,0.1,0,0.1-0.1,0.1c0.1,0.1,0.2,0,0.3-0.2c0,0.3,0.2,0.2,0.3,0.3
	c0.1-0.3,0.2,0.2,0.2-0.3c0,0,0,0.1,0,0.1c0.1-0.1,0.1-0.4,0.2-0.4l0,0.3c0,0.4,0.1,0.1,0.1,0.3c0-0.3,0.1,0,0.1-0.2l0.1-0.1
	c0.1-0.1,0-0.1,0.1-0.2c0.1,0,0,0.3,0,0.3c0,0.2,0.1,0.1,0.2,0c0,0,0,0,0-0.1c0,0,0,0.1,0,0.1c0,0,0,0,0.1,0c0,0,0,0,0,0
	c0,0,0,0-0.1,0c0,0,0,0,0.1,0c0,0,0,0,0,0c0,0,0,0,0,0.1l0,0.2c0,0,0.2-0.2,0.2-0.3c0.2,0.2,0.5,0,0.6-0.1c0,0-0.1,0.2,0,0.1
	c0.1,0,0.1-0.2,0.1-0.1c0.1-0.1,0,0.2,0.1,0.2c0,0,0-0.2,0-0.2c0.1,0.3,0.3-0.1,0.4,0c0,0,0,0.1,0,0.1c0,0,0,0.1,0,0.1c0,0,0,0,0,0
	c0,0.3,0.1,0.7,0.1,0.9c0,0.1,0,0.3,0,0.4C162,55.6,161.7,55.6,161.5,55.6z M168.9,50.8c0.1,0.4,0.1,0.7,0.2,1c0,0,0,0,0,0
	c-0.2,0-0.4,0-0.5-0.1c-0.1,0.3-0.2,0-0.2,0.3c0-0.1,0-0.1,0-0.1c-0.1,0-0.1,0.1-0.2,0.1c0,0,0.1-0.1,0.1-0.2
	C168.4,51.5,168.7,51.1,168.9,50.8z M164.7,54.1c0-0.1-0.1-0.3-0.1-0.4l0-0.2l0,0.1c0,0,0-0.1,0-0.1c0,0,0-0.1,0-0.2
	c0.1-0.1,0,0.3,0.1,0.4c0.1,0,0.1-0.1,0.1-0.1C164.8,53.8,164.7,53.9,164.7,54.1z M165.9,51.4c-0.3,0-0.6,0-0.8-0.1
	c-0.3,0-0.6,0-0.9,0c-0.1-0.5-0.2-0.9-0.3-1.4c-0.1-0.3-0.1-0.7-0.2-1.1c0-0.3-0.1-0.6-0.1-0.8c0.1,0,0.3-0.1,0.4-0.2
	c0,0.4-0.1,0.2-0.1,0.5c0-0.3,0.1-0.1,0.2-0.2l0,0c0-0.1,0.1,0.1,0.1,0l0-0.1c0.1-0.2,0.1,0.4,0.1,0l0,0.2c0.1-0.4,0.1,0.1,0.2-0.2
	l0,0.1c0.1,0.2,0.2-0.4,0.2-0.1c0.1-0.1,0.2-0.1,0.2-0.4c0,0.1,0,0.3,0,0.4c0.3-0.1,0.6,0,0.9-0.4c0,0.1,0,0.1,0,0.2
	c0.2-0.3,0.3,0.4,0.4-0.3l0.1-0.3c0,0.1,0,0.3,0,0.4c0-0.2,0.1,0,0.2-0.3c0,0.1,0,0.1,0,0.2c0.1,0.1,0.2-0.3,0.2-0.2l0,0.1
	c0.3,0.5,0.8,0.8,1.1,0.3c0.1-0.1,0,0.4,0.1,0.3c0.2-0.3,0.5,0,0.7-0.1c-0.4,0.3-0.8,0.6-1.1,0.9c-0.3,0.4-0.6,0.8-0.9,1.3
	C166.3,50.7,166.1,51,165.9,51.4z M168.4,55.4c0,0.1,0,0.3-0.1,0.3l0-0.1l-0.1,0.2c-0.1,0,0-0.2,0-0.3c-0.3,0-0.6,0.1-1,0
	c0,0.3-0.2,0-0.2,0.3c0-0.1,0-0.1,0-0.1c-0.2,0.2-0.2,0.2-0.4-0.2c-0.2-0.1-0.3-0.1-0.5-0.1c0,0,0,0,0,0c0.2-0.3,0.4-0.7,0.6-1.1
	c0.1-0.1,0.2-0.3,0.3-0.5c0.4,0,0.7,0,1.1-0.2c0,0.4-0.1,0.2-0.1,0.5c0-0.3,0.1-0.1,0.2-0.2l0,0c0.1-0.1,0.1,0.1,0.2,0.1l0-0.1
	c0.1-0.2,0.1,0.4,0.2,0l0,0.2c0.1-0.4,0.1,0.1,0.2-0.2l0,0.1c0.1,0.2,0.3-0.4,0.3-0.1c0,0,0,0,0,0c0,0.3,0.1,0.5,0.2,0.8
	c0,0.1,0.1,0.3,0.1,0.6C169.1,55.3,168.7,55.3,168.4,55.4z M147.7,48.6c0,0,0-0.1,0-0.1C147.7,48.5,147.7,48.5,147.7,48.6z
	 M147.8,48.9c0-0.2,0-0.5-0.1-0.6c0,0,0,0,0,0c0,0.1,0,0.2,0,0.2c0,0,0,0.3,0.1,0.1C147.8,48.7,147.8,48.9,147.8,48.9z M146.8,53.6
	c0.1-0.2,0-0.5-0.1-0.6c0,0,0,0,0,0c0,0.1,0,0.2,0,0.2c0,0,0,0.3,0.1,0.1C146.8,53.4,146.8,53.5,146.8,53.6z M146.7,53.3
	C146.7,53.3,146.7,53.2,146.7,53.3C146.7,53.2,146.7,53.2,146.7,53.3z M161.7,58.4c0.1,0,0,0.2,0,0.2
	C161.8,58.6,161.8,58.3,161.7,58.4z M147.1,58.1c0,0.1,0,0.2,0,0.2c0,0,0.1,0.3,0.1,0.1c0,0.1,0,0.2,0,0.3
	C147.3,58.5,147.2,58.2,147.1,58.1C147.1,58.1,147.1,58.1,147.1,58.1z M158,58.4L158,58.4l0-0.1L158,58.4z M149.5,58.7l0,0.2
	C149.5,58.9,149.5,58.8,149.5,58.7C149.5,58.7,149.5,58.7,149.5,58.7z M145.5,56.5C145.5,56.5,145.5,56.5,145.5,56.5
	C145.5,56.5,145.5,56.5,145.5,56.5z M145.1,51.3C145.1,51.2,145.1,51.2,145.1,51.3C145.1,51.2,145.1,51.2,145.1,51.3z M161.5,58.4
	C161.5,58.4,161.5,58.4,161.5,58.4C161.5,58.4,161.5,58.4,161.5,58.4z M147.9,59c0.1,0,0.1-0.1,0-0.2C148,58.9,147.9,58.9,147.9,59z
	 M147.5,58.2l-0.2,0.3C147.4,58.4,147.5,58.3,147.5,58.2z M148.1,58.6c0-0.1,0-0.2-0.1-0.2C148,58.7,148.1,58.5,148.1,58.6z
	 M149,58.9C149,59.1,149.1,58.8,149,58.9C149.1,58.8,149,58.9,149,58.9z M153.2,45.9C153.2,45.9,153.2,45.9,153.2,45.9
	C153.2,45.9,153.2,45.9,153.2,45.9L153.2,45.9z M210.5,19.7c-0.2-0.1-0.4-0.3-0.6-0.3c-0.2-0.1-0.4-0.1-0.6-0.1
	c-0.3,0-0.5,0-0.6,0.1c-0.3,0.2-0.5,0.3-0.6,0.5c-0.1,0.2-0.1,0.4-0.1,0.6c0,0.1,0,0.2,0.2,0.3c0.1,0.1,0.3,0.2,0.4,0.3
	c0.2,0.1,0.4,0.2,0.6,0.3c0.2,0.1,0.5,0.1,0.7,0.1c0.4,0,0.6,0,0.8-0.2c0.2-0.1,0.3-0.4,0.3-0.8c0-0.2,0-0.4-0.1-0.5
	C210.8,20,210.7,19.9,210.5,19.7z M153.7,55.6C153.7,55.6,153.7,55.6,153.7,55.6C153.7,55.6,153.7,55.6,153.7,55.6L153.7,55.6z
	 M215.1,56.3c-0.1-0.8-0.1-1.7-0.2-2.6c0-0.9,0-1.7,0-2.5c0-0.2,0-0.4,0-0.7c0-0.2,0-0.4,0.1-0.6c-0.1-0.2-0.2-0.3-0.4-0.5
	c-0.1-0.2-0.4-0.3-0.6-0.4c-0.2,0-0.4,0.1-0.6,0.1c-0.2,0-0.4,0.1-0.6,0.1c-0.4,0.2-0.6,0.5-0.6,1c0,1.1,0,2.1,0.1,3
	c0.1,1,0.1,2,0.1,3c0,0.4,0,0.7,0.1,1.1c0.1,0.4,0.1,0.7,0.1,1.1c0,0.6,0,1.1,0.1,1.4s0.3,0.6,0.5,0.8c0.2,0.2,0.5,0.3,0.8,0.4
	c0.3,0.1,0.6,0.1,1,0.1c0.2-0.2,0.4-0.4,0.5-0.6c0.1-0.2,0.1-0.3,0.1-0.5l0-0.1c0-0.4-0.1-0.9-0.1-1.5
	C215.3,57.9,215.2,57.1,215.1,56.3z M146.5,46.7C146.5,46.7,146.5,46.7,146.5,46.7C146.5,46.7,146.5,46.7,146.5,46.7z M154,50.9
	C154,50.9,154,50.9,154,50.9C154,50.9,154,50.9,154,50.9L154,50.9z M210.4,33.1c-0.1-0.8-0.1-1.7-0.2-2.6c0-0.9,0-1.7,0-2.5
	c0-0.2,0-0.4,0-0.7c0-0.2,0-0.4,0.1-0.6c-0.1-0.2-0.2-0.3-0.4-0.5c-0.1-0.2-0.4-0.3-0.6-0.4c-0.2,0-0.4,0.1-0.6,0.1
	c-0.2,0-0.4,0.1-0.6,0.1c-0.4,0.2-0.6,0.5-0.6,1c0,1.1,0,2.1,0.1,3c0.1,1,0.1,2,0.1,3c0,0.4,0,0.7,0.1,1.1c0.1,0.4,0.1,0.7,0.1,1.1
	c0,0.6,0,1.1,0.1,1.4s0.3,0.6,0.5,0.8c0.2,0.2,0.5,0.3,0.8,0.4c0.3,0.1,0.6,0.1,1,0.1c0.2-0.2,0.4-0.4,0.5-0.6
	c0.1-0.2,0.1-0.3,0.1-0.5l0-0.1c0-0.4-0.1-0.9-0.1-1.5C210.5,34.7,210.4,33.9,210.4,33.1z M208.5,54.5l-0.1-0.3
	c-0.1-0.1-0.2-0.3-0.3-0.6c-0.1-0.3-0.2-0.6-0.4-0.9c-0.1-0.3-0.2-0.6-0.3-0.9c-0.1-0.3-0.1-0.5-0.1-0.6l0-0.7
	c0-0.4,0.1-0.8,0.2-1.2c0.1-0.4,0.3-0.8,0.6-1.1c0.1-0.1,0.2-0.2,0.3-0.3c0.1-0.1,0.2-0.2,0.2-0.4c-0.1-0.2-0.2-0.4-0.3-0.6
	c-0.1-0.2-0.3-0.3-0.5-0.3c-0.1,0-0.1,0-0.2,0c-0.1,0-0.1,0-0.2,0c-0.5,0-1,0.1-1.3,0.4c-0.4,0.3-0.6,0.6-0.9,1.1
	c-0.2,0.4-0.4,0.9-0.5,1.5c-0.1,0.5-0.2,1-0.2,1.5c0,0.6,0.1,1.2,0.3,1.8c0.2,0.6,0.5,1.2,0.8,1.9c0.3,0.7,0.6,1.4,0.9,2.2
	c0.3,0.8,0.6,1.6,0.8,2.6c0,0,0,0.1,0,0.3c0,0.5-0.2,0.9-0.5,1.2c-0.3,0.3-0.6,0.4-1,0.4c-0.2,0-0.5-0.1-0.7-0.4
	c-0.3,0.1-0.4,0.1-0.5,0.2c-0.1,0.1-0.2,0.2-0.2,0.3c0,0.4,0.2,0.8,0.6,1.2c0.3,0.4,0.7,0.5,1.2,0.6c0.5,0,1-0.1,1.4-0.2
	s0.8-0.5,1.2-0.8c0.3-0.3,0.6-0.7,0.8-1.2c0.2-0.4,0.3-0.9,0.3-1.4c0-1-0.1-1.9-0.4-2.7C209.3,56.2,208.9,55.4,208.5,54.5z
	 M156.9,46C156.9,46,156.9,46,156.9,46C156.9,46,156.9,46,156.9,46C156.9,46,156.9,46,156.9,46z M215.3,42.9
	c-0.2-0.1-0.4-0.3-0.6-0.3c-0.2-0.1-0.4-0.1-0.6-0.1c-0.3,0-0.5,0-0.6,0.1c-0.3,0.2-0.5,0.3-0.6,0.5c-0.1,0.2-0.1,0.4-0.1,0.6
	c0,0.1,0,0.2,0.2,0.3c0.1,0.1,0.3,0.2,0.4,0.3c0.2,0.1,0.4,0.2,0.6,0.3c0.2,0.1,0.5,0.1,0.7,0.1c0.4,0,0.6,0,0.8-0.2
	c0.2-0.1,0.3-0.4,0.3-0.8c0-0.2,0-0.4-0.1-0.5C215.6,43.2,215.5,43.1,215.3,42.9z M160.1,58.3C160.1,58.3,160.1,58.3,160.1,58.3
	C160.1,58.3,160.1,58.3,160.1,58.3C160.1,58.3,160.1,58.3,160.1,58.3z"/>
</svg>
