<?xml version="1.0" encoding="utf-8"?>
<!-- Generator: Adobe Illustrator 27.0.1, SVG Export Plug-In . SVG Version: 6.00 Build 0)  -->
<svg version="1.1" id="Capa_1" xmlns="http://www.w3.org/2000/svg" xmlns:xlink="http://www.w3.org/1999/xlink" x="0px" y="0px"
	 viewBox="0 0 230 120" style="enable-background:new 0 0 230 120;" xml:space="preserve">
<style type="text/css">
	.st0{fill:#B7B7B7;}
</style>
<path class="st0" d="M151.2,29.5c1,0.3,2.1,0.3,3.2,0.2c1.4-0.2,2.8-0.7,4-1.6c0.7-0.5,1.1-0.7,1.1-1.7c0-0.7-0.6-0.7-0.8-1
	c-0.3-0.4-0.5-1-0.4-1.5c0.3-2.3,0.7-3,1-5.6c0.1-1.1,0.3-2.1,0.3-3.2c0-1.2-0.7-3.1-1.3-4c-0.3-0.5-1.6-0.8-2.2-1.1
	c-0.2,0-0.5-0.1-0.7-0.1c-0.6,0.1-1.3,0.4-1.8,0.7c-0.5,0.2-1.2,0.8-1.5,1.3c-1,1.8-1.1,2.3-1.3,4.3c0,0,0,0.1,0,0.2
	c0,0.6,0.6,0.9,1.1,0.8c0.5-0.1,1.3-0.5,1.5-1.1c0.5-1.8-0.1-1.8,1.4-3.1c0.1-0.1,0.3-0.2,0.4-0.2c0.2,0,0.3,0,0.4,0.1
	c0.6,0.5,1,0.7,1.1,1.5c0.2,0.8,0.4,1.6,0.4,2.5c0,1.6-1,2.2-2.3,2.4c-0.8,0.1-1.6,0-2.4,0.1c-0.4,0-0.7,0.3-1,0.5
	c-0.8,0.5-1.3,1.5-1.8,2.3c-0.6,1-0.7,2.1-0.7,3.2C148.8,27.2,149.5,29.1,151.2,29.5z M154,21.7l0.8-0.1c0.8-0.1,1.1,0.1,1.1,1
	c0,0.9-0.5,1.8-0.5,2.7c0,0.3,0.2,0.5,0.2,0.8c-0.4,0.9-1.5,1.2-2.3,1.3c-1.3,0.1-1.6-0.4-1.9-1.6c0-0.3-0.1-0.6-0.1-0.9
	C151.5,23.4,152.4,21.8,154,21.7z M47.1,41.7c0.8,0.4,1.7,0.4,2.6,0.3c1.2-0.1,2.4-0.5,3.7-0.8c1.2-0.2,2.2-0.7,2.6-1.7
	c0.1-0.3,0.2-0.5,0.2-0.8c0-0.4-0.7-0.9-1.5-0.8c-0.2,0-0.4,0.1-0.7,0.3c-1,0.5-2.3,1-3.3,1.1c-1.3,0.1-2.5-0.1-3.2-1.4
	c-0.8-1.4-1.1-3-1.1-4.7c0-2.1,0.6-4.1,1.6-6.1c0.6-1.1,1.1-2.3,1.7-3.4c0.7-1.2,1.6-2,2.5-2.6c0.9-0.6,1.8-1.1,2.6-1.7
	c0.4-0.3,0.6-0.6,0.6-1c0,0,0-0.2,0-0.3c-0.2-0.5-1.4-0.4-1.9-0.4c-1.4,0.2-2.8,1.1-3.9,2.2c-3.5,3.4-5.5,7.5-6.1,12.1
	c-0.1,0.7-0.1,1.4-0.1,2C43.4,37.6,44.4,40.4,47.1,41.7z M56.4,35.1c0.3,0,0.7-0.4,0.9-0.4c0.3,0,0.4,1.2,0.4,1.4
	c0,1-0.2,1.9-0.2,2.9c0,0.5,0,1,0.2,1.5c0.4,0.4,0.2,0.5,0.8,0.5c1.8-0.2,1.8-1.5,1.8-2.9c0-1.3-0.1-2.6-0.1-4c0-1,0.1-2,0.4-3
	c0.9-3,3.1-4.9,5.3-6.9c0.3-0.3,0.6-0.7,0.6-1.1c0-0.6-0.4-0.7-0.8-0.6c-0.1,0-0.4,0-0.5,0.1c-1.7,0.6-3.5,3.1-4.8,4.4
	c-0.3-0.4-0.4-1-0.4-1.5c0-0.8,0.2-1.6,0.2-2.4c0-0.4-0.7-0.2-1-0.6c-0.4,0.3-1.2,0.4-1.4,0.8c-0.1,0.1-0.4,0.9-0.4,1
	c0,0.3,0,0.6,0,0.9c0,1.5,0.5,2.9,0.5,4.5c0,1.9-2.1,3.1-2.1,4.3C55.5,34.4,55.9,35.2,56.4,35.1z M81.7,37.7c1,0.3,2.1,0.3,3.2,0.2
	c1.4-0.2,2.8-0.7,4-1.6c0.7-0.5,1.1-0.7,1.1-1.7c0-0.7-0.6-0.7-0.8-1c-0.3-0.4-0.5-1-0.4-1.5c0.3-2.3,0.7-3,1-5.6
	c0.1-1.1,0.3-2.1,0.3-3.2c0-1.2-0.7-3.1-1.3-4c-0.3-0.5-1.6-0.8-2.2-1.1c-0.2,0-0.5-0.1-0.7-0.1c-0.6,0.1-1.3,0.4-1.8,0.7
	c-0.5,0.2-1.2,0.8-1.5,1.3c-1,1.8-1.1,2.3-1.3,4.3c0,0,0,0.1,0,0.2c0,0.6,0.6,0.9,1.1,0.8c0.5-0.1,1.3-0.5,1.5-1.1
	c0.5-1.8-0.1-1.8,1.4-3.1c0.1-0.1,0.3-0.2,0.4-0.2c0.2,0,0.3,0,0.4,0.1c0.6,0.5,1,0.7,1.1,1.5c0.2,0.8,0.4,1.6,0.4,2.5
	c0,1.6-1,2.2-2.3,2.4c-0.8,0.1-1.6,0-2.4,0.1c-0.4,0-0.7,0.3-1,0.5c-0.8,0.5-1.3,1.5-1.8,2.3c-0.6,1-0.7,2.1-0.7,3.2
	C79.3,35.4,80,37.3,81.7,37.7z M84.5,29.9l0.8-0.1c0.8-0.1,1.1,0.1,1.1,1c0,0.9-0.5,1.8-0.5,2.7c0,0.3,0.2,0.5,0.2,0.8
	c-0.4,0.9-1.5,1.2-2.3,1.3c-1.3,0.1-1.6-0.4-1.9-1.6c0-0.3-0.1-0.6-0.1-0.9C82,31.6,83,30,84.5,29.9z M162.5,18.5
	c0.1,1.3,0.1,1.2,0.1,2.6c0,1.9-0.1,3.8,0,5.7c0,0.7,0.6,1.2,1.3,1.1c0.4-0.1,1.2-0.4,1.3-0.9c0.1-0.8,0.1-2.2,0.1-3
	c0-2.1-0.2-4.1-0.2-6.2c0-1.2,0-2.4,0.2-3.6c0.1-0.8,1.7-1.3,2.3-1.4c0.7-0.1,0.9,0.6,1.1,1.1c0.7,1.8,1.1,3.3,1.1,5.3
	c0,1.7-0.2,3.5-0.2,5.2c0,1.3-0.3,3.6,1.5,3.3c0.8-0.1,1.6-0.7,1.6-1.7c0-0.7-0.2-1.3-0.3-1.9c0-0.6,0-1.2,0-1.8
	c0-1.6,0.2-3.2,0.2-4.9c0-2.7-0.7-4.6-2.3-6.5c-0.5-0.6-1.2-0.7-1.9-0.7c-1,0.1-2,0.5-3,0.7c0-0.4,0.2-0.9,0.2-1.4
	c0-0.8-0.7-1-1.3-0.9c-0.9,0.1-1.7,0.6-1.7,1.6c0,0.4,0.1,0.7,0.1,1.1c0,0.4-0.1,1.1-0.1,1.5C162.1,14.7,162.6,19.2,162.5,18.5z
	 M70.2,38.3c1,0.4,2,0.9,3.3,0.8c1.2,0,2.4-1,3.3-1.8c1.1-0.9,1.6-2.4,1.6-3.7c0-1.1-0.1-2.1-1.4-1.9c-0.1,0-0.4,0-0.5,0.1
	c-0.3,0.1-1,0.7-1,1c0,0.4,0.1,0.7,0.1,1c0,0.2,0,0.3-0.1,0.5c-0.1,1-1.1,1.7-1.9,1.8c-1,0.1-1.8-0.6-2.6-1c-0.8-0.5-1-1.4-1.1-2.3
	c-0.1-0.8-0.3-1.6-0.3-2.3c0-0.5,0.1-1.1,0.4-1.5c0.2-0.1,0.5-0.1,0.7-0.1c1.6-0.2,3.1,0,4.7-0.2c0.6-0.1,1.9-0.2,2.5-0.5
	c0.5-0.2,0.8-0.9,0.8-1.5c0-0.1,0-0.3,0-0.4c-0.2-0.4-1.1-0.4-1.3-0.7c-0.2-0.3,0-1.5-0.1-1.9c-0.5-1.6-1-2.2-1.9-3.1
	c-0.2-0.3-1-0.3-1.3-0.4c-0.5-0.1-1.1-0.1-1.6-0.1c-3.5,0.4-5,5.3-5.4,8.4c-0.1,1.1-0.4,2.3-0.4,3.4C66.8,34.5,67.8,37.3,70.2,38.3z
	 M72.6,23c0.1,0,1-0.1,1.1,0c0.6,0.5,0.7-0.1,1.2,2.7c0,0.1-0.5,0.5-0.6,0.5c-1,0.1-1.9-0.1-2.9,0c-0.1,0-0.4-0.2-0.4-0.4
	C70.9,25.1,71.8,23.1,72.6,23z M114.3,21.3c0-0.7-0.6-1-1.3-0.9c-0.4,0-0.2,0.1-0.6,0.3c-1.6,0.7-1.3,2.4-1.3,3.8c0,0.6,0,1.1,0,1.6
	c0,2.4,0.3,4.8,0.4,7.2c0,0.5,0,0.9,0.5,1.1c0.3,0.2,0.8,0.2,1.2,0.2c0.7-0.1,1.1-0.5,1.2-1.3c0-0.3,0-0.7,0-1c0-2.7-0.5-5.3-0.5-8
	c0-0.6,0-1.2,0.1-1.8C114.1,22,114.3,21.6,114.3,21.3z M117.2,23.8c0.1,1.3,0.1,1.2,0.1,2.6c0,1.9-0.1,3.8,0,5.7
	c0,0.7,0.6,1.2,1.3,1.1c0.4,0,1.2-0.4,1.3-0.9c0.1-0.8,0.1-2.2,0.1-3c0-2.1-0.2-4.1-0.2-6.2c0-1.2,0-2.4,0.2-3.6
	c0.1-0.8,1.7-1.3,2.3-1.4c0.7-0.1,0.9,0.6,1.1,1.1c0.7,1.8,1.1,3.3,1.1,5.3c0,1.7-0.2,3.5-0.2,5.2c0,1.3-0.3,3.6,1.5,3.3
	c0.8-0.1,1.6-0.7,1.6-1.7c0-0.7-0.2-1.3-0.3-1.9c0-0.6,0-1.2,0-1.8c0-1.6,0.2-3.2,0.2-4.9c0-2.7-0.7-4.6-2.3-6.5
	c-0.5-0.6-1.2-0.7-1.9-0.7c-1,0.1-2,0.5-3,0.7c0-0.4,0.2-0.9,0.2-1.4c0-0.8-0.7-1-1.3-0.9c-0.9,0.1-1.7,0.6-1.7,1.6
	c0,0.4,0.1,0.7,0.1,1.1c0,0.4-0.1,1.1-0.1,1.5C116.8,20,117.3,24.6,117.2,23.8z M129.3,20.5c0.2,0.1,0.4,0.2,0.6,0.4
	c0.7,0.6,1.2,1.5,1.5,2.4c-0.7,0.6-1.6,1.4-1.9,2.3c-0.2,0.5-0.4,1.2-0.4,1.8c0,0.4,0.2,0.8,0.2,1.3c0,0.4,0,0.7,0.1,1
	c0.2,0.4,0.4,0.9,0.7,1.3c0.7,1,2.1,1.7,3.3,1.6c0.2,0,0.4-0.1,0.6-0.1c2.5-0.8,4.5-2.4,4.5-5.3c0-1.8-0.9-3.5-2.2-4.5
	c-0.2-0.2-0.5-0.4-0.8-0.5l-0.2,0c-0.3,0-0.6,0.2-0.9,0.2c-0.4,0-0.8-0.1-0.8-0.5c0-0.3,0.2-0.6,0.5-0.7c1.1-0.5,2.3-1.3,2.8-2.6
	c0.2-0.5,0.6-1.3,0.6-1.8v-0.3l-0.2-0.8c-0.4-0.9-1.4-1.2-1.4-2.5c0-1.5,1.4-3.2,1.4-3.9c0-0.4-0.3-0.8-0.7-0.7
	c-0.6,0.1-1.4,0.2-1.8,0.8c-0.7,1.2-0.6,2.9-1.7,3.7c-0.6,0.4-1.6,0.2-2.1,1c0,0.2-0.1,0.3-0.1,0.5c-0.8,0.9-2.7,2.3-2.7,3.5
	c0,0.6,0.4,1.2,0.7,1.7C128.9,19.9,129.1,20.3,129.3,20.5z M133.8,24.6c0.2,0,0.3,0,0.4,0c1.1,0.4,1.6,1.7,1.6,2.8
	c0,0.5-0.3,1.4-0.6,1.8c-0.3,0.4-1,1-1.5,1.1c-0.1,0-0.2,0-0.3,0c-1.1-0.3-1.4-1.6-1.4-2.7c0-0.3,0-0.6,0.1-0.9
	C132.2,25.7,132.9,24.7,133.8,24.6z M133.4,16.2c0.2,0,0.4-0.3,0.6-0.3c0.2,0,0.7,0.5,0.8,0.8c0,0.1,0,0.2,0,0.3
	c0,1-0.6,2.5-1.7,2.6c-0.8,0.1-2.1-0.6-2.1-1.6C131,16.7,132.6,16.3,133.4,16.2z M93.8,27.3c1.2-0.1,2.3-0.9,3.5-1.1
	c0.1,0,0.3,0,0.4,0c0.2,0,0.4,0.2,0.4,0.4v8.3c0,1.1,0.5,1.3,1.5,1.2c1.7-0.2,1.8-1.3,1.8-2.8c0-1.6-0.2-3.2-0.2-4.7
	c0-0.8,0-1.8,0.4-2.6c0.1-0.1,0.2-0.1,0.4-0.1c1.3-0.1,2.5,0.3,3.8,0.1c0.8-0.1,1.8-0.5,2.2-1.5c0-0.1,0-0.2,0-0.3
	c0-0.4-0.3-0.8-0.6-0.9c-1.3-0.4-2.8-0.2-4.2-0.2c-0.5,0-1.1,0.1-1.5,0c-0.2,0-0.4-0.3-0.4-0.5c-0.1-1.2-0.2-2.6-0.2-3.9
	c0-0.7,0-1.4,0-2.1c0-0.9-0.4-1.6-1.3-1.5c-0.5,0.1-1,0.4-1.4,0.8c-0.2,0.3-0.3,0.6-0.3,1c0,0.2,0,0.4,0,0.7c0,0.7-0.1,1.4-0.1,2.1
	c0,0.9,0.5,1.8,0.5,2.4c0,0.1,0,0.6-0.2,0.7c-1.7,1.4-3.8,0.6-5.4,1.8c-0.4,0.3-0.8,1-0.8,1.5C92.2,27,93.1,27.4,93.8,27.3z
	 M110.4,18.1c0.4,0.4,1,0.6,1.6,0.5c1.2-0.1,2.4-1.4,2.4-2.6c0-0.2,0-0.4-0.1-0.6c0-0.1,0-0.1,0-0.1c0-0.3,0.2-0.6,0.2-1
	c0-2-1.8-3.4-3.6-3.2c-1.8,0.2-2.7,0.5-2.7,2.6C108.2,15.5,109.2,17.1,110.4,18.1z M74.8,97.7c1.3-0.2,2.5,0,3.8-0.1
	c0.5-0.1,1.5-0.2,2-0.4c0.4-0.2,0.7-0.8,0.7-1.2c0-0.1,0-0.2,0-0.3c-0.1-0.3-0.9-0.3-1-0.5c-0.2-0.2,0-1.2-0.1-1.5
	c-0.4-1.3-0.8-1.8-1.5-2.5c-0.2-0.2-0.8-0.3-1-0.4c-0.4-0.1-0.9-0.1-1.3-0.1c-2.8,0.3-4,4.3-4.3,6.7c-0.1,0.9-0.3,1.8-0.3,2.7
	c0,2,0.7,4.3,2.7,5.1c0.8,0.3,1.6,0.7,2.7,0.7c1,0,1.9-0.8,2.7-1.4c0.9-0.7,1.2-1.9,1.2-3c0-0.9-0.1-1.7-1.1-1.5
	c-0.1,0-0.3,0-0.4,0.1c-0.2,0.1-0.8,0.5-0.8,0.8c0,0.3,0.1,0.6,0.1,0.8c0,0.1,0,0.3-0.1,0.4c-0.1,0.8-0.9,1.4-1.6,1.5
	c-0.8,0.1-1.5-0.5-2.1-0.8c-0.7-0.4-0.8-1.1-0.9-1.9c-0.1-0.6-0.2-1.3-0.2-1.9c0-0.4,0.1-0.9,0.3-1.2C74.4,97.8,74.6,97.7,74.8,97.7
	z M76.3,92.9c0.1,0,0.8-0.1,0.9,0c0.5,0.4,0.6,0,1,2.1c0,0.1-0.4,0.4-0.5,0.4c-0.8,0.1-1.6-0.1-2.4,0c-0.1,0-0.3-0.2-0.3-0.3
	C75,94.6,75.7,93,76.3,92.9z M122.9,85.8c-1.1,0.1-2.4,0.5-3.5,1.1c-0.9,0.5-1.4,1.4-1.6,2.4c-0.2,0.8-0.3,1.6-0.3,2.3
	c0,1.2,0.3,2.2,1.2,2.9c1.1,0.9,2.6,1.5,4.1,1.3c1-0.1,2.1-0.5,2.8-1.2c1.1-1,1.6-2.4,1.6-3.8c0-1.4-0.5-3-1.1-4.2
	C125.5,85.7,124,85.7,122.9,85.8z M123,93.9c-1.8,0.2-3.2-1.1-3.2-3c0-0.8,0.2-1.7,0.5-2.4c0.3-0.5,0.7-0.6,1.2-0.7
	c0.4,0,0.8,0,1.2-0.1c0.9-0.1,1.4,0.6,1.6,1.4c0.2,0.7,0.4,1.5,0.4,2.3C124.7,92.7,124.3,93.8,123,93.9z M173.5,82.9
	c-0.2-1.1-0.3-3.6-1.8-3.4c-0.5,0.1-1.2,0.5-1.2,1.1c0,0.1,0,0.3,0.1,0.4c0.6,1.6,1,3.2,1,5c0,1.3-0.3,5.2-1.8,5.9
	c-0.1,0.1-0.3,0.1-0.5,0.1c-0.7,0.1-1.5-0.2-1.8-0.9c-0.5-1.3-0.6-2.9-0.6-4.4c0-1.3,0.1-2.7,0.1-4c0-0.4,0.1-0.9,0.1-1.4
	c0-0.6-0.4-0.9-1-0.9c-1.4,0.2-1.2,2-1.2,3c0,0.8,0.1,1.7,0.1,2.5c0,1-0.1,2-0.1,3c0,1.2,0.1,2.5,0.3,3.6c0.1,0.6,0.5,0.6,0.9,0.8
	c0.9,0.3,1.8,0.7,2.9,0.6c0.3,0,0.5-0.1,0.7-0.2c1.5-0.5,2.8-1.7,3.3-3.3c0.2-0.6,0.4-1.2,0.4-1.9c0-0.1,0-0.3,0-0.4
	c0-0.1,0.3-0.2,0.3-0.3c0-0.2,0-0.4,0-0.6c0-0.8,0.1-1.6,0.1-2.5C173.7,84,173.7,83.4,173.5,82.9z M90.3,100.2
	c0-1.3,0.1-2.6,0.1-3.9c0-2.1-0.6-3.7-1.8-5.2c-0.4-0.5-0.9-0.6-1.6-0.5c-0.8,0.1-1.6,0.4-2.4,0.6c0-0.4,0.1-0.7,0.1-1.1
	c0-0.6-0.5-0.8-1.1-0.7c-0.7,0.1-1.4,0.5-1.4,1.3c0,0.3,0.1,0.6,0.1,0.9c0,0.4-0.1,0.9-0.1,1.2c-0.2,1.3,0.2,5,0.1,4.4
	c0.1,1.1,0.1,0.9,0.1,2.1c0,1.5-0.1,3,0,4.6c0,0.6,0.5,1,1,0.9c0.3,0,0.9-0.3,1-0.7c0.1-0.7,0.1-1.7,0.1-2.4c0-1.7-0.2-3.3-0.2-5
	c0-1,0-2,0.2-2.9c0.1-0.6,1.3-1,1.8-1.1c0.5-0.1,0.7,0.5,0.9,0.9c0.6,1.4,0.9,2.7,0.9,4.3c0,1.4-0.1,2.8-0.1,4.2
	c0,1-0.3,2.9,1.2,2.7c0.7-0.1,1.2-0.6,1.2-1.3c0-0.5-0.2-1-0.2-1.6C90.3,101.1,90.3,100.7,90.3,100.2z M105.6,90
	c0.8-0.1,1.6,1,2.2,0.9c0.6-0.1,1.2-0.7,1.2-1.3c0-0.7-1-1.1-1.5-1.4c-0.6-0.4-1.3-0.7-2.1-0.6c-0.2,0-0.4,0-0.6,0.2
	c-0.6,0.2-1.6,0.7-2,1.2c-0.6,0.8-0.9,2-0.9,3c0,2,0.9,2.7,2.5,3.3c1.1,0.4,2.1,1.9,2.1,3.1c0,1.4-1.3,3.1-3,2l-0.3-0.3
	c-0.5-0.6-0.7-1.2-0.8-2c-0.1-0.9-1.2-0.7-1.6-0.6c-0.3,0-0.8,0.9-0.8,1.3c0,0.5,0.3,0.8,0.4,1.3c0.1,1.1,0.7,2,1.8,2.3
	c0.9,0.3,1.9,0.4,2.8,0.3c2.1-0.2,3.9-1.8,3.9-4.1c0-1.4-0.6-2.8-1.3-3.9c-0.8-1.2-2.4-1.2-3-2.4c-0.1-0.2-0.1-0.3-0.1-0.5
	C104.4,91,104.9,90.1,105.6,90z M99.3,92c0-0.3,0.1-0.6,0.1-0.9c0-0.2,0-0.4,0-0.7c0-1.2,0.1-2.3,0.1-3.5c0-0.7-0.1-1.4-0.2-2.1
	c-0.1-0.4-0.5-0.5-0.9-0.5c-1.1,0.1-1.3,1-1.3,2c0,0.6,0.1,1.2,0.1,1.8c0,0.3,0,0.7-0.1,1c-0.1,0.2,0.1,0.3-0.2,0.4
	c-3.4,1.7-5.7,4.5-5.7,8.4c0,2,0.5,4.4,2.3,5.3c0.4,0.2,1.7,0.6,2.2,0.6c0.3,0,0.7-0.2,1-0.2c0.4,0,0.9,0,0.9,0.5
	c0,0.3-0.1,0.5-0.1,0.8c0,0.6,0.8,0.7,1.3,0.7c0.4,0,0.8-0.2,0.8-0.7c0.1-0.9,0.1-1.9,0.1-2.7c0-3.2-0.5-6.3-0.5-9.5
	C99.2,92.5,99.2,92.2,99.3,92z M97.4,101.4c-0.2,0.1-0.5,0.2-0.8,0.3c-1.1,0.1-2.4-0.8-2.9-1.8c-0.3-0.7-0.4-1.5-0.4-2.2
	c0-0.4,0.4-2.2,0.5-2.6c0.1-0.4,0.6-1.3,0.9-1.6c0.1-0.2,0.3-0.3,0.4-0.4c0.4-0.5,0.8-1.1,1.4-1.2c0.5-0.1,0.5,0.1,0.5,0.6
	c0,0.3-0.1,0.7-0.1,1c0,2.4,0.4,4.7,0.4,7.1C97.4,100.8,97.4,101.1,97.4,101.4z M159.1,81.6c-1.1,0.1-2.4,0.5-3.5,1.1
	c-0.9,0.5-1.4,1.4-1.6,2.4c-0.2,0.8-0.3,1.6-0.3,2.3c0,1.2,0.3,2.2,1.2,2.9c1.1,0.9,2.6,1.5,4.1,1.3c1-0.1,2.1-0.5,2.8-1.2
	c1.1-1,1.6-2.4,1.6-3.8c0-1.4-0.5-3-1.1-4.2C161.7,81.4,160.2,81.4,159.1,81.6z M159.2,89.7c-1.8,0.2-3.2-1.1-3.2-3
	c0-0.8,0.2-1.7,0.5-2.4c0.3-0.5,0.7-0.6,1.2-0.7c0.4,0,0.8,0,1.2-0.1c0.9-0.1,1.4,0.6,1.6,1.4c0.2,0.7,0.4,1.5,0.4,2.3
	C161,88.4,160.5,89.5,159.2,89.7z M136.5,94.7c0-1.3,0.1-2.6,0.1-3.9c0-2.1-0.6-3.7-1.8-5.2c-0.4-0.5-0.9-0.6-1.6-0.5
	c-0.8,0.1-1.6,0.4-2.4,0.6c0-0.4,0.1-0.7,0.1-1.1c0-0.6-0.5-0.8-1.1-0.7c-0.7,0.1-1.4,0.5-1.4,1.3c0,0.3,0.1,0.6,0.1,0.9
	c0,0.4-0.1,0.9-0.1,1.2c-0.2,1.3,0.2,5,0.1,4.4c0.1,1.1,0.1,0.9,0.1,2.1c0,1.5-0.1,3,0,4.6c0,0.6,0.5,1,1,0.9c0.3,0,0.9-0.3,1-0.7
	c0.1-0.7,0.1-1.7,0.1-2.4c0-1.7-0.2-3.3-0.2-5c0-1,0-2,0.2-2.9c0.1-0.6,1.3-1,1.8-1.1c0.5-0.1,0.7,0.5,0.9,0.9
	c0.6,1.4,0.9,2.7,0.9,4.3c0,1.4-0.1,2.8-0.1,4.2c0,1-0.3,2.9,1.2,2.7c0.7-0.1,1.2-0.6,1.2-1.3c0-0.5-0.2-1-0.2-1.6
	C136.5,95.7,136.5,95.2,136.5,94.7z M50.3,97.8c0-0.3,0.1-0.6,0.1-0.9c0-0.2,0-0.4,0-0.7c0-1.2,0.1-2.3,0.1-3.5
	c0-0.7-0.1-1.4-0.2-2.1c-0.1-0.4-0.5-0.5-0.9-0.5c-1.1,0.1-1.3,1-1.3,2c0,0.6,0.1,1.2,0.1,1.8c0,0.3,0,0.7-0.1,1
	c-0.1,0.2,0.1,0.3-0.2,0.4c-3.4,1.7-5.7,4.5-5.7,8.4c0,2,0.5,4.4,2.3,5.3c0.4,0.2,1.7,0.6,2.2,0.6c0.3,0,0.7-0.2,1-0.2
	c0.4,0,0.9,0,0.9,0.5c0,0.3-0.1,0.5-0.1,0.8c0,0.6,0.8,0.7,1.3,0.7c0.4,0,0.8-0.2,0.8-0.7c0.1-0.9,0.1-1.9,0.1-2.7
	c0-3.2-0.5-6.3-0.5-9.5C50.2,98.3,50.2,98,50.3,97.8z M48.4,107.2c-0.2,0.1-0.5,0.2-0.8,0.3c-1.1,0.1-2.4-0.8-2.9-1.8
	c-0.3-0.7-0.4-1.5-0.4-2.2c0-0.4,0.4-2.2,0.5-2.6c0.1-0.4,0.6-1.3,0.9-1.6c0.1-0.2,0.3-0.3,0.4-0.4c0.4-0.5,0.8-1.1,1.4-1.2
	c0.5-0.1,0.5,0.1,0.5,0.6c0,0.3-0.1,0.7-0.1,1c0,2.4,0.4,4.7,0.4,7.1C48.4,106.6,48.4,106.9,48.4,107.2z M67.8,94.5
	c-0.4-0.2-1.6-0.6-2-0.5c-0.3,0-0.6,0.1-0.9,0.2c-0.3,0-0.8,0-0.8-0.4c0-0.3,0.1-0.5,0.1-0.7c0-0.5-0.7-0.7-1.1-0.6
	c-0.3,0-0.7,0.2-0.8,0.6c-0.1,0.8-0.1,1.6-0.1,2.5c0,2.9,0.4,5.7,0.4,8.5c0,0.2,0,0.4,0,0.6c0,0.3-0.1,0.5-0.1,0.8v0.6
	c0,1-0.1,2.1-0.1,3.1c0,0.7,0.1,1.3,0.2,1.9c0.1,0.4,0.4,0.5,0.8,0.4c1-0.1,1.2-0.9,1.2-1.7c0-0.5-0.1-1.1-0.1-1.6
	c0-0.3,0-0.6,0.1-0.9c0.1-0.2,0-0.2,0.2-0.4c3.1-1.5,5.1-4,5.1-7.5C69.8,97.5,69.4,95.3,67.8,94.5z M67.4,101.9
	c-0.1,0.4-0.5,1.1-0.8,1.4c-0.1,0.1-0.2,0.2-0.3,0.4c-0.4,0.5-0.7,1-1.3,1.1c-0.4,0-0.5-0.1-0.5-0.5c0-0.3,0.1-0.6,0.1-0.9
	c0-2.1-0.3-4.2-0.3-6.4v-0.8c0.2-0.1,0.5-0.2,0.7-0.2c1-0.1,2.2,0.7,2.6,1.6c0.2,0.6,0.4,1.4,0.4,2C67.9,99.9,67.5,101.5,67.4,101.9
	z M55.3,100c1.3-0.2,2.5,0,3.8-0.1c0.5-0.1,1.5-0.2,2-0.4c0.4-0.2,0.7-0.8,0.7-1.2c0-0.1,0-0.2,0-0.3c-0.1-0.3-0.9-0.3-1-0.5
	c-0.2-0.2,0-1.2-0.1-1.5c-0.4-1.3-0.8-1.8-1.5-2.5c-0.2-0.2-0.8-0.3-1-0.4C57.7,93,57.2,93,56.8,93c-2.8,0.3-4,4.3-4.3,6.7
	c-0.1,0.9-0.3,1.8-0.3,2.7c0,2,0.7,4.3,2.7,5.1c0.8,0.3,1.6,0.7,2.7,0.7c1,0,1.9-0.8,2.7-1.4c0.9-0.7,1.2-1.9,1.2-3
	c0-0.9-0.1-1.7-1.1-1.5c-0.1,0-0.3,0-0.4,0.1c-0.2,0.1-0.8,0.5-0.8,0.8c0,0.3,0.1,0.6,0.1,0.8c0,0.1,0,0.3-0.1,0.4
	c-0.1,0.8-0.9,1.4-1.6,1.5c-0.8,0.1-1.5-0.5-2.1-0.8c-0.7-0.4-0.8-1.1-0.9-1.9c-0.1-0.6-0.2-1.3-0.2-1.9c0-0.4,0.1-0.9,0.3-1.2
	C54.9,100.1,55.1,100,55.3,100z M56.8,95.2c0.1,0,0.8-0.1,0.9,0c0.5,0.4,0.6,0,1,2.1c0,0.1-0.4,0.4-0.5,0.4c-0.8,0.1-1.6-0.1-2.4,0
	c-0.1,0-0.3-0.2-0.3-0.3C55.5,96.9,56.2,95.3,56.8,95.2z M153.7,91.6c-0.2,0-0.5,0.1-0.7,0.1c-0.5,0.1-0.8-0.4-0.8-0.9
	c0-0.6,0.2-1.2,0.2-1.8v-0.7c0-2.4,0.3-4.9,0.5-7.3c-0.3-0.1-0.6-0.1-0.9,0c-0.5,0.1-1,0.3-1.1,0.8c-0.8,3.4-0.5,6.9-0.8,10.3
	c-0.2,0-0.8-0.1-1-0.3c-1.3-1.9-1.6-4.7-1.6-7.1c0-1,0.1-2.1,0.1-3.1c-0.3-0.2-0.8-0.2-1.2-0.2c-0.6,0.1-1,0.4-1,1
	c0,1.5,0.1,3,0.2,4.5c0.2,2.5,0.5,5.2,2,7c0.2,0.2,0.7,0.3,1,0.4c0.2,0,0.3,0.1,0.5,0.2c0.2,0.1,1,0,1,0.3c0.1,0.2,0.1,1.4,0.1,1.6
	c0,1.7-0.5,2.9-2,3.8l-0.1,0c-0.3,0-0.7-0.2-0.9-0.4c-0.4-0.3-0.6-1.4-1.1-1.4c-0.1,0-0.4,0.2-0.6,0.3c-0.5,0.2-0.6,0.6-0.6,1.1
	c0,1.6,1.6,2.3,3,2.2c0.6-0.1,1.2-0.3,1.7-0.6c2.6-1.9,2.6-4,2.9-6.8c0.1-0.8,1.9-0.6,1.9-2.1C154.4,91.8,154.3,91.5,153.7,91.6z
	 M74.9,57.9c-2.2,0.6-3.2,4.8-3.2,6.8c0,0.8,0.1,1.6,0.3,2.3c0.2,0.6,0.5,0.9,1.1,1.1c0.3,0.1,0.6,0.2,0.9,0.1
	c0.3,0,0.5-0.2,0.7-0.4c1.5-1.6,2.3-4.1,2.3-6.2C77.1,59.5,76.1,59.2,74.9,57.9z M58.9,61.3c0-0.2,0-0.4,0-0.6c0-0.7-0.4-1.5-1-1.7
	c-0.7-0.3-2.1-0.4-2.9-0.3c-0.3,0-0.8,0.2-0.8,0.6c0,0.1,0,0.2,0,0.3c0,0.5-0.1,1-0.1,1.5c0,0.8,0.3,1.2,0.7,1.8
	c0.3-0.5,0.8-0.9,1.3-1c1-0.1,1.3,0.8,1.7,0.7C58.4,62.5,58.8,61.7,58.9,61.3z M136.3,52.2c0-0.2,0-0.4,0-0.6c0-0.7-0.4-1.5-1-1.7
	c-0.7-0.3-2.1-0.4-2.9-0.3c-0.3,0-0.8,0.2-0.8,0.6c0,0.1,0,0.2,0,0.3c0,0.5-0.1,1-0.1,1.5c0,0.8,0.3,1.2,0.7,1.8
	c0.3-0.5,0.8-0.9,1.3-1c1-0.1,1.3,0.8,1.7,0.7C135.8,53.4,136.2,52.6,136.3,52.2z M9,50.6l1.4,1.5c-1.8,5.6-3.5,11.2-4,17
	S6.7,80.8,9.8,85c0.9,1.2,1.9,2.2,3.1,2.9c3.3,1.9,7.4,1.5,11.3,1C85.1,81.4,146,73.8,206.8,66.3c-0.9-12.7-1.8-25.4-2.8-38.1
	C139.1,32.9,74,40.4,9,50.6z M28.9,63.5c-0.7,0.1-1.2,0.1-1.8,0.1c-0.3,0-0.7,0.2-1,0.3c-0.5,0.6-0.6,0-0.6,0.9
	c0,0.6,0.1,1.1,0.1,1.7c0,0.2-0.1,0.4-0.1,0.6c0,0.2,0.2,0.4,0.4,0.4c0.9-0.1,1.7-0.6,2.5-0.7c0.4,0,1.1-0.1,1.2,0.4
	c0.2,1.6-2.9,1.8-3.8,2.3c-0.1,0.2-0.3,0.4-0.3,0.7c0,0.6,0.2,2.7,0.4,3.2c0.1,0.1,0.2,0.4,0.5,0.3c1.2-0.1,2.2-1.2,3.3-1.3
	c0.4,0,0.9,0.4,0.9,0.9c0,1.1-2.9,1.8-3.7,2.1c-1.5,0.6-2.2,0.8-3.7,1c-0.4,0.1-0.5-1.1-0.3-1.5c0.5-0.8,1,0.3,0.9-1.8
	c0-0.8,0-2.6-0.4-3.2c-0.3-0.6-0.9,0.1-0.9-0.5c0-0.2-0.1-1.1,0-1.3c0.1-0.1,0.3-0.2,0.4-0.2c0.5-0.3,0.5-1.5,0.5-2s-0.1-1-0.2-1.5
	c-0.1-1.8,0-1.3,0.1-3c0-0.4,0.9-0.9,1.3-0.9c1-0.1,0.9,0.2,0.9,1c0,0.5,0.7,0.4,1,0.4c0.8-0.1,1.5-0.3,2.2-0.3c0.3,0,2-0.1,2,0.2
	C31.1,62.7,31.4,63.4,28.9,63.5z M41.6,73.8c0,0-0.1,0-0.2,0c-0.8-0.3-1.5-1-2-1.7c-0.3-0.4-1.6-2.4-2-2.4c-0.2,0-0.3,0.3-0.4,0.4
	c-0.3,1.4-0.7,2.8-1.1,4.2c-0.1,0.3-0.2,0.4-0.5,0.5c-0.1,0.1-0.8,0.4-0.9,0.5c-0.4,0-0.7-0.4-0.7-0.8c0-0.1,0-0.2,0.1-0.3
	c0.9-2.2,1.5-4.1,1.8-6.4c0-0.1,0-0.2,0-0.2c0-0.8-0.6-1.3-1-1.8c-0.2-0.2-0.3-0.4-0.5-0.6c-0.5-0.7-1.1-1.3-1.7-2
	c-0.4-0.5-1.5-1.7-1.5-2.3c0-0.6,0.5-1.1,1-1.2c0.9-0.1,1.5,1.1,2,1.8c0.1,0.2,0.3,0.5,0.5,0.6c0.3,0.3,0.5,0.6,0.8,0.9
	c0.3,0.4,0.6,0.7,1.1,0.9c0.3-0.6,0.5-1.1,0.6-1.7c0.2-0.8,0.7-2.6,1.6-2.7c0.4,0,0.7,0.1,1,0.3c-0.1,0-0.1,0.4-0.1,0.5
	c0,0.2-0.1,0.4-0.2,0.6l-0.4,1.3c-0.4,1.3-0.8,2.7-1.1,4.1c1,1.4,2.1,2.7,3.2,4c0.5,0.6,1.1,1.3,1.6,2c0,0.1,0.1,0.2,0.1,0.3
	C42.7,73,42.1,73.8,41.6,73.8z M48.7,61.6c-0.7,0.1-1.4,0.3-2.1,0.4c-0.1,0-0.2,0.2-0.3,0.3c0,0.4,0,1,0,1.4c0,1,0,3.4-0.1,4.4
	c0,0.3,0,0.6,0,0.9c0,0.7,0,1.5,0,2.2s0,1.5-0.3,2.3c-0.1,0.4-0.4,0.5-0.7,0.6c-0.4,0-0.8-0.1-0.9-0.5c-0.1-0.8-0.2-1.6-0.2-2.4
	c0-2.1,0.3-5.8,0.4-7.8v-0.1c0-0.1,0-0.3-0.2-0.4c-0.5,0-1.6,0.2-1.6-0.7c0-0.3,0.2-0.7,0.5-0.9c0.3-0.2,1.1-0.2,1.2-0.7
	c0.2-1.1,0.2-1,0.2-2.1c0.1-0.1,0.3-0.5,0.4-0.5c0.1-0.1,0.6-0.2,0.8-0.2c0.6-0.1,0.8,0.3,0.8,0.9c0,0.7-0.3,0.2-0.3,1
	c0,0.2,0,0.3,0,0.5c0.2,0.3,0.2,0.3,0.6,0.2c0.5-0.1,1-0.3,1.6-0.4c0.5-0.1,1,0.1,1,0.7C49.6,61.2,49.1,61.6,48.7,61.6z M60,72.3
	c-0.1,0-0.2-0.1-0.3-0.2c-0.2-0.3-0.3-0.8-0.5-1.1c-0.3-0.8-0.7-1.5-1-2.2c-0.5-1.1-1-2.4-2-3.1c-0.1-0.1-0.4-0.2-0.6-0.1
	c-0.5,0.1-1.1,0.5-1.2,1.1c0,0.4,0,0.9,0,1.3c0,0.6,0.1,1.3,0.2,1.9c0.1,0.2,0.1,0.4,0.2,0.5c0,0.1,0,0.2,0,0.3
	c0,0.3-0.1,0.6-0.2,0.8c-0.3,0.3-0.6,0.4-0.9,0.5s-0.7,0-0.8-0.4c-0.2-0.5-0.3-1.1-0.3-1.7c0-0.7,0.1-1.5,0.1-2.2c0-0.2,0-0.4,0-0.5
	c0-0.3-0.4-0.7-0.8-0.7c-0.4,0-0.7-0.3-0.7-0.7c0-0.7,1-0.6,1.1-1.5c0.1-0.9,0.2-1.8,0.2-2.7c0-0.7-0.2-1.7-0.7-2.2
	c-0.2-0.2-0.4-0.2-0.7-0.2c-0.3,0-0.6,0.1-0.9,0.2c-0.4,0-0.6-0.1-0.6-0.5c0-0.3,0.3-0.5,0.6-0.7c0.5-0.3,2.4-0.9,3-1l1.2-0.1
	c1.3-0.2,2.6-0.3,3.9-0.1c1,0.2,1.8,0.9,2.3,1.8c0.3,0.5,0.4,1.1,0.4,1.6c0,2.4-1,2.7-2.6,4.3c0.5,0.9,3.4,5.9,3.4,6.5
	C61.7,71.9,60.5,72.3,60,72.3z M68,71.4c-0.6,0.1-0.7-0.2-0.7-0.8c0-0.5,0-1.1,0-1.5l-0.1-1.6C67.1,66,67,66,66.8,64.6
	c0-0.4-0.3-0.6-0.6-0.5c-0.2,0-0.5,0.1-0.7,0.1c-0.2,0-0.4-0.1-0.6-0.1c-0.2,0-0.5,0.3-0.6,0.5c-0.1,0.3-0.2,0.7-0.3,1
	c-0.2,0.9-0.5,2-0.8,2.9c-0.1,0.4-0.3,0.5-0.7,0.5c-0.3,0-0.8,0-0.9-0.4v-0.3c0-1.6,0.9-3.3,1.4-4.9c0.7-2.4,1.3-4.9,2.4-7.2
	c0.2-0.4,0.6-0.5,0.9-0.6c0.5-0.1,1,0.1,1.5,0.2c0.4,4.5,0.6,8.9,1.1,13.3c0,0.1,0,0.3,0,0.5C69,70.5,68.8,71.3,68,71.4z M79,61.6
	c-0.3,2.7-1,5.3-3.1,7.3c-0.6,0.5-1.3,0.8-2,0.9c-1.6,0.2-3.5-0.4-3.9-2.1c-0.2-0.7-0.3-1.4-0.3-2.2c0-1.9,0.4-4.4,1.4-6.2
	c0.6-1,1.5-1.7,2.1-2.7c0-0.1-0.2-0.3-0.2-0.4c0-0.1,0.1-0.4,0.1-0.6c0-0.1,0-0.4,0-0.5c0.1-0.2,0.4-0.4,0.6-0.4
	c0.1,0,0.4,0,0.5,0.1c0.1,0.1,0.2,0.2,0.4,0.3l0.8,0.5c1.4,0.9,2.9,1.9,3.6,3.6c0,0,0.1,0.4,0.1,0.5C79.1,60.4,79,61,79,61.6z
	 M90.2,68.8c-0.1,0-0.2-0.1-0.3-0.2c-0.2-0.3-0.3-0.8-0.5-1.1c-0.3-0.8-0.7-1.5-1-2.2c-0.5-1.1-1-2.4-2-3.1C86.3,62,86.1,62,85.8,62
	c-0.5,0.1-1.1,0.5-1.2,1.1c0,0.4,0,0.9,0,1.3c0,0.6,0.1,1.3,0.2,1.9c0.1,0.2,0.1,0.4,0.2,0.5c0,0.1,0,0.2,0,0.3
	c0,0.3-0.1,0.6-0.2,0.8c-0.3,0.3-0.6,0.4-0.9,0.5c-0.3,0-0.7,0-0.8-0.4c-0.2-0.5-0.3-1.1-0.3-1.7c0-0.7,0.1-1.5,0.1-2.2
	c0-0.2,0-0.4,0-0.5c0-0.3-0.4-0.7-0.8-0.7c-0.4,0-0.7-0.3-0.7-0.7c0-0.7,1-0.6,1.1-1.5c0.1-0.9,0.2-1.8,0.2-2.7
	c0-0.7-0.2-1.7-0.7-2.2c-0.2-0.2-0.5-0.2-0.7-0.2c-0.3,0-0.6,0.1-0.9,0.2c-0.4,0-0.6-0.1-0.6-0.5c0-0.3,0.3-0.5,0.6-0.7
	c0.5-0.3,2.4-0.9,3-1l1.2-0.1c1.3-0.2,2.6-0.3,3.9-0.1c1,0.2,1.8,0.9,2.3,1.8c0.3,0.5,0.4,1.1,0.4,1.6c0,2.4-1,2.7-2.6,4.3
	c0.5,0.9,3.4,5.9,3.4,6.5C91.8,68.4,90.7,68.7,90.2,68.8z M97.5,66c-1.9,2-2.5,1.8-4.2,2.4c-0.1,0-0.1,0-0.2,0
	c-0.4,0-0.9-0.1-0.9-0.6c0-0.2,0.1-0.5,0.3-0.7c0.7-0.8,0.6-1.6,0.6-2.7c0-1.2,0-2.4,0-3.6c0-1.7,0.1-3.4,0.1-5.1c0-0.3,0-1,0-1.3
	c0-0.3-0.3-0.4-0.3-0.7c0-0.5,0.2-0.9,0.6-1.2c0.2-0.1,0.5-0.3,0.7-0.3c0.3,0,2.3,1.3,2.6,1.5c0.7,0.5,1.3,1.2,1.8,2
	c0.6,1.2,0.9,2.7,0.9,4.1C99.5,61.8,99,64.4,97.5,66z M109.6,64.1c0,1.2-2,1.1-2.9,1.3c-0.5,0.1-0.8,0.2-0.9,0.6
	c-0.1,0.4-0.5,0.5-0.9,0.5c-0.6,0.1-1.1,0.2-1.1-0.5c0-0.3-0.3-0.2-0.6-0.1c-0.3,0-1,0.1-1.3,0.2c-0.2,0.1-0.5,0.1-0.7,0.1
	c-0.6,0.1-1.1,0.2-1.1-0.8c0-1.4,2.1-1.3,2.8-1.5c0.4-0.1,0.7-0.2,1.1-0.4c0.1-0.6,0.1-1.2,0.1-1.8c0-1.6-0.2-3.9-0.2-5.5
	c0-0.2,0-0.5,0-0.6c0-0.3-0.1-0.5-0.5-0.4c-0.7,0.1-1.9,0.5-2.6,0.6c-0.6,0.1-0.6-0.7-0.6-1.4c0,0,0-0.1,0-0.2
	c0.4-0.5,1.3-0.7,1.9-0.9l0.4-0.1c0.2,0,0.3-0.1,0.5-0.1c0.3-0.1,0.6-0.2,0.7-0.6c0.1-0.4,0.5-0.6,1.1-0.7c0.5-0.1,0.7-0.1,1.2,0.6
	c0.4,0.5,1.4-0.1,2.1-0.2c0.5,0,1-0.1,1.3,0.3c0,0.1,0,0.7,0,0.8c0,0.5-1.1,0.8-1.5,0.9c-0.6,0.1-1.2,0-1.7,0.1
	c-0.2,0-0.5,0.4-0.5,0.6c0,0.2,0,0.4,0,0.6c0,1.9,0.4,4.9,0.4,6.7v0.6c0,0.4,0.3,0.6,0.6,0.7C107.4,63.6,109.7,62.6,109.6,64.1z
	 M118,64.4c0,0.8-0.4,1.1-1.1,1.2c-0.5,0.1-0.7-1.2-0.7-1.6c0-0.3,0-0.5,0-0.8c0-0.4,0-0.7-0.2-1.1c-0.4-0.8-0.9-1.5-1.4-2.1
	l-1.1-1.4c-0.2-0.2-0.3-0.5-0.5-0.7c0,0-0.1-0.1-0.2-0.1c-0.2,0-0.5,0.3-0.5,0.5c0,2,0,4,0.2,5.9v0.1c0,0.5-0.7,0.8-1.1,0.8
	c-0.2,0-0.5,0-0.6-0.3c-0.2-1.3-0.3-2.6-0.3-3.9c0-1.3,0-2.6,0-3.9c0-0.5,0-0.9,0-1.4c0-0.5,0-1-0.3-1.5c-0.3-0.5-0.9-1.1-0.9-1.7
	c0-0.2,0.1-0.4,0.2-0.5c0-0.1,0.4-0.1,0.5-0.2c0.2-0.2,0.5-0.5,0.7-0.7c0.3-0.3,0.7-0.7,1.1-0.7c0.5-0.1,0.7,0.9,0.7,1.4
	c0,0.6-0.1,1.2-0.3,1.7c0.6,0.9,1,1.7,1.5,2.6c0.2,0.4,1.5,2.6,1.9,2.6c0.1,0,0.3-0.2,0.3-0.4c0-1.7-0.2-3.4-0.4-5l-0.2-1.7
	c0-0.2-0.1-0.5-0.1-0.7c0-0.3,1-0.7,1.3-0.7c0.2,0,0.4,0,0.5,0.2c0.5,1.6,0.6,4.1,0.7,5.8c0.1,2,0.1,3.9,0.2,5.9
	c-0.2,0.3-0.3,0.7-0.3,1.1C117.9,63.5,118,64,118,64.4z M125.3,64.6c-0.6,0.1-0.7-0.2-0.7-0.8c0-0.5,0-1.1,0-1.5l-0.1-1.6
	c-0.1-1.5-0.1-1.5-0.4-2.9c0-0.4-0.3-0.6-0.6-0.5c-0.2,0-0.5,0.1-0.7,0.1c-0.2,0-0.4-0.1-0.6-0.1c-0.2,0-0.5,0.3-0.6,0.5
	c-0.1,0.3-0.2,0.7-0.3,1c-0.2,0.9-0.5,2-0.8,2.9c-0.1,0.4-0.3,0.5-0.7,0.5c-0.3,0-0.8,0-0.9-0.4v-0.3c0-1.6,0.9-3.3,1.4-4.9
	c0.7-2.4,1.3-4.9,2.4-7.2c0.2-0.4,0.6-0.5,0.9-0.6c0.5-0.1,1,0.1,1.5,0.2c0.4,4.5,0.6,8.9,1.1,13.3c0,0.1,0,0.3,0,0.5
	C126.4,63.7,126.2,64.5,125.3,64.6z M137.4,63.2c-0.1,0-0.2-0.1-0.3-0.2c-0.2-0.3-0.3-0.8-0.5-1.1c-0.3-0.8-0.7-1.5-1-2.2
	c-0.5-1.1-1-2.4-2-3.1c-0.1-0.1-0.4-0.2-0.6-0.1c-0.5,0.1-1.1,0.5-1.2,1.1c0,0.4,0,0.9,0,1.3c0,0.6,0.1,1.3,0.2,1.9
	c0.1,0.2,0.1,0.4,0.2,0.5c0,0.1,0,0.2,0,0.3c0,0.3-0.1,0.6-0.2,0.8c-0.3,0.3-0.6,0.4-0.9,0.5c-0.3,0-0.7,0-0.8-0.4
	c-0.2-0.5-0.3-1.1-0.3-1.7c0-0.7,0.1-1.5,0.1-2.2c0-0.2,0-0.4,0-0.5c0-0.3-0.4-0.7-0.8-0.7c-0.4,0-0.7-0.3-0.7-0.7
	c0-0.7,1-0.6,1.1-1.5c0.1-0.9,0.2-1.8,0.2-2.7c0-0.7-0.2-1.7-0.7-2.2c-0.2-0.2-0.5-0.2-0.7-0.2c-0.3,0-0.6,0.1-0.9,0.2
	c-0.4,0-0.6-0.1-0.6-0.5c0-0.3,0.3-0.5,0.6-0.7c0.5-0.3,2.4-0.9,3-1l1.2-0.1c1.3-0.2,2.6-0.3,3.9-0.1c1,0.2,1.8,0.9,2.3,1.8
	c0.3,0.5,0.4,1.1,0.4,1.6c0,2.4-1,2.7-2.6,4.3c0.5,0.9,3.4,5.9,3.4,6.5C139,62.8,137.9,63.2,137.4,63.2z M147.8,53.4
	c0,0.2-0.1,0.3-0.3,0.5c-0.2,0.2-0.9,0.7-1,0.7c-0.3,0-0.6-0.2-0.8-0.3c-0.2-0.2-0.4-0.2-0.7-0.3c-0.8,2-0.9,4-1.3,6
	c0,0.1,0,0.2,0,0.2c0,0.3,0.1,0.5,0.1,0.8c0,0.1-0.1,0.3-0.1,0.5l-0.1,0.3c-0.1,0.2-0.2,0.3-0.4,0.4c-0.4,0.1-0.8,0.3-1.1,0.4
	c-0.2,0-0.3,0-0.4-0.2c0-0.3,0-0.6,0-0.9c0-2.1,0.8-4.1,1-6.2c0.1-0.9,0.7-1.6,0.7-2.5c0-2-4.4-3-4.4-4.4c0-0.6,0.5-1.1,1.1-1.1
	c0.9-0.1,2.2,1.3,2.8,1.9c0.3,0.3,0.6,0.5,1,0.7c0.5-0.5,0.6-1,0.8-1.7c0.2-0.9,0.4-1.8,1.4-1.9c0.1,0,0.7,0,0.8,0.2
	c0,0.1,0,0.3,0,0.5c0,1.4-0.9,2.9-1.2,4.2c0.5,1,2.2,1.2,2.2,2.1L147.8,53.4z M172.4,56.7c0,1.2-2,1.1-2.9,1.3
	c-0.5,0.1-0.8,0.2-0.9,0.6c-0.1,0.4-0.5,0.5-0.9,0.5c-0.6,0.1-1.1,0.2-1.1-0.5c0-0.3-0.3-0.2-0.6-0.1c-0.3,0-1,0.1-1.3,0.2
	c-0.2,0.1-0.5,0.1-0.7,0.1c-0.6,0.1-1.1,0.2-1.1-0.8c0,0,0-0.1,0-0.1c0,0,0,0.1,0,0.1c-1,1.2-3.1,1-4.5,1.4
	c-0.1,0.2-0.5,0.4-0.5,0.6c0,0.8,0.4,0.8,0.4,1.6c0,0.3-0.1,0.8-0.4,1.1c-0.1,0.1-0.5,0.2-0.6,0.2c-0.2,0-0.5,0-0.7-0.1
	c-0.6-0.2-0.4-1-0.4-1.5c0-0.4-0.1,0-0.4-0.3c-0.4-0.4-1.3-0.7-1.3-1.3c0-1,1-0.6,1.2-1.4c0-0.3,0.1-0.5,0.1-0.8
	c0-0.8-0.2-4.5-0.3-5.3c-0.2-1.5-0.5-3.1-0.5-4.7c0-0.6,0-1.3,0.2-1.9c0.1-0.4,0.5-0.6,0.9-0.7c0.4,0,0.8,0.1,0.9,0.5
	c0.3,1.7,0.3,3.4,0.5,5.2c0.1,0.8,0.2,1.6,0.3,2.5c0,0.1,0,0.2,0,0.3c0,0.2,0,3.4,0,3.6c0,0.4,0.1,0.7,0.5,0.8c0.3,0,0.6,0.1,0.9,0
	c1-0.1,1.9-0.7,2.9-0.8c0.5-0.1,1.1,0,1.1,0.5c0.4-1,2.1-0.9,2.7-1c0.4-0.1,0.7-0.2,1.1-0.4c0.1-0.6,0.1-1.2,0.1-1.8
	c0-1.6-0.2-3.9-0.2-5.5c0-0.2,0-0.5,0-0.6c0-0.3-0.1-0.5-0.5-0.4c-0.7,0.1-1.9,0.5-2.6,0.6c-0.6,0.1-0.6-0.7-0.6-1.4
	c0,0,0-0.1,0-0.2c0.4-0.5,1.3-0.7,1.9-0.9l0.4-0.1c0.2,0,0.3-0.1,0.5-0.1c0.3-0.1,0.6-0.2,0.7-0.6c0.1-0.4,0.5-0.6,1.1-0.7
	c0.5-0.1,0.7-0.1,1.2,0.6c0.4,0.5,1.4-0.1,2.1-0.2c0.5,0,1-0.1,1.3,0.3c0,0.1,0,0.7,0,0.8c0,0.5-1.1,0.8-1.5,0.9
	c-0.6,0.1-1.2,0-1.7,0.1c-0.2,0-0.5,0.4-0.5,0.6c0,0.2,0,0.4,0,0.6c0,1.9,0.4,4.9,0.4,6.7v0.6c0,0.4,0.3,0.6,0.6,0.7
	C170.3,56.2,172.6,55.2,172.4,56.7z M182.9,43.6c0.2,1.6-3.6,1.6-5.1,2.2c-0.6,0.2-0.6,0.9-0.6,1.4c0,0.4,0,0.9,0,1.3
	c0,0.2,0.3,0.5,0.5,0.5c0.6-0.1,1.4-0.4,2-0.6c0.3-0.1,0.7-0.2,1-0.2c0.5-0.1,1.3-0.1,1.3,0.7c0,0-0.1,0.5-0.1,0.5
	c-0.2,0.3-0.3,0.5-0.6,0.6c-0.6,0.1-1.3,0.2-1.8,0.4c-0.5,0.2-1.1,0.3-1.6,0.4c-0.3,0-0.7,0.5-0.7,0.8c0,0.4,0,0.5,0,0.9
	c0,1,0,2.1,0,3.1c0,0.8,0,1.6-0.1,2.4c-0.1,0.5-0.6,0.8-1,0.8c-0.7,0.1-1-0.3-1-1.1c0-0.8,0.1-1.6,0.1-2.4c0-0.1,0-0.3,0-0.4
	c0-0.6,0.2-1.2,0.1-1.8c-0.1-2.3-1.5-1.1-1.7-1.7c0-0.1,0-0.4,0-0.5c0-0.3,0.1-0.8,0.4-1c0.4-0.3,1.1-0.1,1.2-0.9
	c0.1-0.6,0.2-1.1,0.2-1.7c0-2.6-2.9-0.1-2.9-2c0-0.4,0.3-1.1,0.8-1.1c0.3,0,0.7,0,1-0.1c1.3-0.2,2-0.5,3.4-0.5
	c0.3,0,1.3-0.2,1.5-0.2c0.9-0.1,1.5-0.3,2.5-0.4c0.4-0.1,1.3-0.1,1.3,0.5C182.9,43.5,182.9,43.5,182.9,43.6z M189.7,44.6
	c-0.7,0.1-1.2,0.1-1.8,0.1c-0.3,0-0.7,0.2-1,0.3c-0.5,0.6-0.6,0-0.6,0.9c0,0.6,0.1,1.1,0.1,1.7c0,0.2-0.1,0.4-0.1,0.6
	c0,0.2,0.2,0.4,0.4,0.4c0.9-0.1,1.7-0.6,2.5-0.7c0.4,0,1.1-0.1,1.2,0.4c0.2,1.6-2.9,1.8-3.8,2.3c-0.1,0.2-0.3,0.4-0.3,0.7
	c0,0.6,0.2,2.7,0.4,3.2c0.1,0.1,0.2,0.4,0.5,0.3c1.2-0.1,2.2-1.2,3.3-1.3c0.4,0,0.9,0.4,0.9,0.9c0,1.1-2.9,1.8-3.7,2.1
	c-1.5,0.6-2.2,0.8-3.7,1c-0.4,0.1-0.5-1.1-0.3-1.5c0.5-0.8,1,0.3,0.9-1.8c0-0.8,0-2.6-0.4-3.2c-0.3-0.6-0.9,0.1-0.9-0.5
	c0-0.2-0.1-1.1,0-1.3c0.1-0.1,0.3-0.2,0.4-0.2c0.5-0.3,0.5-1.5,0.5-2s-0.1-1-0.2-1.5c-0.1-1.8,0-1.3,0.1-3c0-0.4,0.9-0.9,1.3-0.9
	c1-0.1,0.9,0.2,0.9,1c0,0.5,0.7,0.4,1,0.4c0.8-0.1,1.5-0.3,2.2-0.3c0.3,0,2-0.1,2,0.2C191.8,43.7,192.2,44.4,189.7,44.6z M123.5,53
	c-0.5,0.1-0.6,1-0.8,1.4c-0.1,0.3-0.3,0.6-0.3,0.9c0,0.5,0.4,0.5,0.8,0.5c0.5-0.1,0.8-0.4,0.8-1c0-0.5,0-0.9,0-1.4
	C123.8,53.2,123.8,53,123.5,53z M66.2,59.8c-0.5,0.1-0.6,1-0.8,1.4c-0.1,0.3-0.3,0.6-0.3,0.9c0,0.5,0.4,0.5,0.8,0.5
	c0.5-0.1,0.8-0.4,0.8-1c0-0.5,0-0.9,0-1.4C66.5,60,66.5,59.7,66.2,59.8z M94.9,54.9c-0.3,0,0,0.8-0.2,1.1c0,0.8-0.3,9.9,0.2,9.9
	c1.4-0.2,2.7-3.3,2.7-4.5c0-0.3,0-0.6,0-0.9C97.7,59.1,96.8,54.7,94.9,54.9z M89.1,57.7c0-0.2,0-0.4,0-0.6c0-0.7-0.4-1.5-1-1.7
	c-0.7-0.3-2.1-0.4-2.9-0.3c-0.3,0-0.8,0.2-0.8,0.6c0,0.1,0,0.2,0,0.3c0,0.5-0.1,1-0.1,1.5c0,0.8,0.3,1.2,0.7,1.8
	c0.3-0.5,0.8-0.9,1.3-1c1-0.1,1.3,0.8,1.7,0.7C88.6,59,89,58.2,89.1,57.7z M208.3,13.1c-0.8-0.2-1.6,0.2-1.8,1
	c-0.4,1.8-0.9,3.6-1.3,5.5c-0.2,0.8,0.2,1.7,1,1.8c0.8,0.2,1.6-0.2,1.8-1c0.4-1.8,0.9-3.6,1.3-5.5C209.5,14.2,209.1,13.3,208.3,13.1
	z M217.4,25.3c-2,1-4.1,2-6.1,3c-0.7,0.3-1,1.4-0.5,2.1c0.5,0.7,1.3,0.9,2.1,0.5c2-1,4.1-2,6.1-3c0.7-0.3,1-1.4,0.5-2.1
	C219,25.1,218.2,24.9,217.4,25.3z M222.8,15.1c-0.4-0.6-1.4-1-2.1-0.5c-3,2.3-5.9,4.5-8.9,6.8c-0.6,0.5-1,1.3-0.5,2.1
	c0.4,0.6,1.4,1,2.1,0.5c3-2.3,5.9-4.5,8.9-6.8C222.9,16.7,223.3,15.9,222.8,15.1z"/>
</svg>
