<?xml version="1.0" encoding="utf-8"?>
<!-- Generator: Adobe Illustrator 27.0.1, SVG Export Plug-In . SVG Version: 6.00 Build 0)  -->
<svg version="1.1" id="Capa_1" xmlns="http://www.w3.org/2000/svg" xmlns:xlink="http://www.w3.org/1999/xlink" x="0px" y="0px"
	 viewBox="0 0 260 80" style="enable-background:new 0 0 260 80;" xml:space="preserve">
<style type="text/css">
	.st0{fill:#C0C0C0;}
</style>
<path class="st0" d="M221.7,32.5l-0.2-0.7l-0.1-1.2c-0.2-1-0.3-1.9-0.4-2.8c-0.1-0.9-0.1-1.8-0.2-2.9c0-0.6-0.1-1.1-0.2-1.6
	c-0.1-0.5-0.3-0.9-0.7-1.2c-0.2-0.1-0.4-0.3-0.6-0.4c-0.2-0.1-0.5-0.3-0.7-0.4s-0.5-0.2-0.7-0.3s-0.5-0.1-0.7-0.1
	c-0.9,0-1.8,0.3-2.6,1c-0.8,0.7-1.6,1.5-2.2,2.5c-0.6,1-1.2,2-1.6,3c-0.4,1-0.6,1.9-0.6,2.6c0,0.3,0,0.7,0.1,1
	c0.1,0.4,0.2,0.7,0.3,1c0.2,0.3,0.4,0.6,0.7,0.8s0.7,0.3,1.3,0.4c0.6,0,1.3-0.2,2-0.6c0.7-0.4,1.3-0.9,1.8-1.6
	c0.6-0.6,1-1.3,1.4-1.9c0.4-0.7,0.6-1.2,0.7-1.7c0.1,0.6,0.2,1.4,0.3,2.2c0.1,0.8,0.2,1.6,0.4,2.3s0.3,1.3,0.6,1.8
	c0.3,0.5,0.6,0.7,1,0.8c0.1,0,0.3,0,0.4,0c0.2,0,0.3-0.1,0.4-0.1c0.1-0.1,0.3-0.1,0.4-0.2c0.1-0.1,0.2-0.2,0.2-0.4
	c0-0.2,0-0.3-0.1-0.5C221.8,32.9,221.7,32.7,221.7,32.5z M217.7,23.9c-0.1,0.2-0.2,0.4-0.3,0.7c-0.1,0.2-0.3,0.5-0.4,0.7
	c-0.1,0.2-0.2,0.4-0.3,0.6c-0.2,0.4-0.4,0.9-0.7,1.4c-0.3,0.5-0.7,1-1.1,1.5c-0.4,0.5-0.8,0.9-1.1,1.2c-0.4,0.3-0.7,0.5-1,0.5
	c0,0,0,0,0,0s0,0,0,0l0-0.2c0-0.6,0.1-1.2,0.4-1.8c0.2-0.6,0.5-1.2,0.8-1.7c0.1-0.1,0.2-0.4,0.4-0.8c0.2-0.4,0.4-0.8,0.7-1.3
	c0.3-0.4,0.6-0.8,1-1.2c0.4-0.4,0.8-0.5,1.3-0.5c0.1,0,0.2,0,0.3,0.1c0.1,0,0.2,0.1,0.3,0.1C217.8,23.5,217.7,23.7,217.7,23.9z
	 M77.3,21.4l0-0.6c0-0.2,0-0.5,0-0.7s-0.1-0.4-0.2-0.7c-0.1-0.3-0.2-0.5-0.4-0.8c-0.1-0.3-0.3-0.5-0.5-0.7c-0.3-0.2-0.6-0.5-0.9-0.6
	c-0.3-0.2-0.6-0.3-1-0.5c-0.3-0.1-0.7-0.3-1-0.4c-0.3-0.1-0.6-0.3-0.9-0.5c-0.2-0.1-0.4-0.2-0.6-0.2c-0.5,0-0.9,0.1-1.4,0.4
	c-0.5,0.3-0.9,0.6-1.2,1c-0.4,0.4-0.7,0.8-0.9,1.2c-0.3,0.4-0.4,0.7-0.5,1c-0.1,0.6-0.3,1.2-0.5,1.8c-0.2,0.6-0.3,1.2-0.3,1.7
	c0,1,0.1,1.8,0.5,2.5c0.4,0.7,0.9,1.2,1.6,1.7c0.3,0.2,0.6,0.4,0.9,0.6c0.3,0.2,0.6,0.3,1,0.3l0.2,0c0.1,0,0.3,0,0.4,0s0.2,0,0.3,0
	c0.4,0,0.8-0.1,1.2-0.3c0.4-0.2,0.8-0.5,1.1-0.8c0.4-0.3,0.7-0.6,1-1s0.5-0.7,0.7-0.9c0.4-0.5,0.7-1.1,0.9-1.6
	C77.1,22.7,77.3,22.1,77.3,21.4z M74.5,20.4c-0.1,0.4-0.1,0.9-0.3,1.3s-0.3,0.9-0.4,1.3c-0.2,0.4-0.4,0.8-0.7,1.2
	c-0.3,0.4-0.6,0.6-0.9,0.8c-0.2,0.1-0.5,0.2-0.7,0.2c-0.2,0.1-0.4,0.1-0.6,0.1c-0.3,0-0.5-0.1-0.6-0.3c-0.2-0.2-0.3-0.5-0.3-0.8
	c-0.1-0.3-0.1-0.6-0.1-0.8c0-0.3,0-0.4,0-0.5c0-0.4,0.1-0.9,0.2-1.4c0.1-0.5,0.3-1.1,0.5-1.5s0.5-0.9,0.8-1.2
	c0.3-0.3,0.7-0.5,1.1-0.5c0.5,0,1,0.2,1.5,0.5c0.4,0.3,0.6,0.8,0.6,1.4L74.5,20.4z M75,58.2c-0.1-0.1-0.1-0.4-0.2-0.7
	c-0.1-0.3-0.2-0.7-0.3-1.1c-0.1-0.4-0.2-0.7-0.3-1c-0.1-0.3-0.1-0.5-0.1-0.6l0-0.1c-0.1-0.4-0.2-0.9-0.3-1.4
	c-0.1-0.5-0.1-1.1-0.2-1.6c0-0.5-0.1-1.1-0.1-1.6c0-0.5,0-1-0.1-1.5c0-0.6-0.1-1.2-0.1-1.9c0-0.7-0.1-1.3,0-1.8
	c0-0.8,0.1-1.5,0.2-2.2c0.1-0.7,0.1-1.3,0.2-2.1c0-0.3-0.1-0.7-0.3-1c-0.2-0.3-0.5-0.5-0.9-0.5c-0.3,0-0.5,0-0.8,0.1
	c-0.3,0.1-0.5,0.2-0.7,0.4c-0.2,0.1-0.2,0.3-0.2,0.5c0,0.2,0,0.4-0.1,0.6c0,0.2,0,0.5,0,0.7c0,0.2,0,0.4,0,0.7c0,0.6,0,1.2,0,1.7
	c0,0.5,0,0.8,0,0.8c0,0.7,0,1.4,0,2.1c0,0.7,0,1.5,0,2.2c-0.3-0.1-0.6-0.2-0.8-0.3c-0.3-0.1-0.6-0.1-0.9-0.2c-0.4,0-0.8,0.1-1,0.2
	s-0.4,0.3-0.5,0.3C67,49.5,66.5,50,66,50.6c-0.5,0.6-0.9,1.3-1.3,2c-0.4,0.7-0.6,1.4-0.9,2.2c-0.2,0.7-0.3,1.4-0.3,2.1
	c0,1.1,0.2,2,0.6,2.7c0.5,0.7,1.2,1.1,2.3,1.2c0.5,0,1-0.1,1.5-0.3c0.5-0.2,1-0.6,1.5-1.1s0.9-1.1,1.3-1.7s0.7-1.5,0.9-2.3
	c0.1,0.2,0.2,0.5,0.2,0.9s0.2,0.8,0.2,1.3c0.1,0.5,0.2,0.9,0.3,1.3c0.1,0.4,0.2,0.7,0.3,0.8c0.2,0.5,0.4,0.8,0.6,0.9
	s0.4,0.2,0.6,0.3c0,0,0.2,0,0.4,0s0.4,0,0.4,0c0.2,0,0.4-0.1,0.7-0.2c0.2-0.2,0.3-0.5,0.4-0.9c-0.1-0.3-0.2-0.5-0.2-0.8
	S75.1,58.4,75,58.2z M69.9,53.1c-0.1,0.3-0.2,0.6-0.3,1c-0.2,0.4-0.4,0.8-0.6,1.3c-0.2,0.5-0.4,1-0.7,1.4c-0.3,0.4-0.5,0.8-0.9,1.1
	c-0.3,0.3-0.7,0.5-1.2,0.4c0-0.2-0.1-0.4-0.2-0.6S66,57.4,66,57.2c0-0.3,0-0.6,0.1-0.9s0.1-0.5,0.2-0.8c0.1-0.3,0.1-0.5,0.3-0.8
	c0.1-0.3,0.2-0.6,0.4-1c0.2-0.6,0.5-1.1,0.9-1.5s0.7-0.8,1.1-1.3c0.1,0,0.2,0,0.2,0c0.1,0,0.1,0,0.2,0c0,0.1,0,0.2,0,0.3
	c0,0.1,0,0.2,0,0.3c0,0.1,0.1,0.2,0.2,0.2c0.1,0,0.2,0,0.3,0.1c0.1,0,0.2,0,0.3,0c0.1,0,0.1,0.1,0.1,0.1
	C70.1,52.4,70.1,52.8,69.9,53.1z M86.6,52.8c-0.1-0.3-0.2-0.5-0.4-0.8c-0.1-0.3-0.3-0.5-0.5-0.7c-0.3-0.2-0.6-0.5-0.9-0.6
	s-0.6-0.3-1-0.5c-0.3-0.1-0.7-0.3-1-0.4s-0.6-0.3-0.9-0.5c-0.2-0.1-0.4-0.2-0.6-0.2c-0.5,0-0.9,0.1-1.4,0.4c-0.5,0.3-0.9,0.6-1.2,1
	c-0.4,0.4-0.7,0.8-0.9,1.2c-0.3,0.4-0.4,0.7-0.5,1c-0.1,0.6-0.3,1.2-0.5,1.8c-0.2,0.6-0.3,1.2-0.3,1.7c0,1,0.1,1.8,0.5,2.5
	c0.4,0.7,0.9,1.2,1.6,1.7c0.3,0.2,0.6,0.4,0.9,0.6c0.3,0.2,0.6,0.3,1,0.3l0.2,0c0.1,0,0.3,0,0.4,0c0.1,0,0.2,0,0.3,0
	c0.4,0,0.8-0.1,1.2-0.3c0.4-0.2,0.8-0.5,1.1-0.8c0.4-0.3,0.7-0.6,1-1c0.3-0.4,0.5-0.7,0.7-0.9c0.4-0.5,0.7-1.1,0.9-1.6
	c0.3-0.6,0.4-1.2,0.5-1.8l0-0.6c0-0.2,0-0.5,0-0.7S86.7,53,86.6,52.8z M83.9,53.7c-0.1,0.4-0.1,0.9-0.3,1.3
	c-0.1,0.5-0.3,0.9-0.4,1.3c-0.2,0.4-0.4,0.8-0.7,1.2c-0.3,0.4-0.6,0.6-0.9,0.8c-0.2,0.1-0.5,0.2-0.7,0.3s-0.4,0.1-0.6,0.1
	c-0.3,0-0.5-0.1-0.6-0.3c-0.2-0.2-0.3-0.5-0.3-0.8c-0.1-0.3-0.1-0.6-0.1-0.8c0-0.3,0-0.4,0-0.5c0-0.4,0.1-0.9,0.2-1.4
	c0.1-0.5,0.3-1.1,0.5-1.5c0.2-0.5,0.5-0.9,0.8-1.2c0.3-0.3,0.7-0.5,1.1-0.5c0.5,0,1,0.2,1.5,0.5s0.6,0.8,0.6,1.4L83.9,53.7z
	 M214.8,63.4c-0.1-0.2-0.2-0.3-0.3-0.3s-0.2-0.1-0.3-0.2c-0.6,0.3-1.1,0.7-1.5,0.9c-0.5,0.3-1,0.4-1.7,0.4c-0.1,0-0.3,0-0.5-0.1
	c-0.3-0.1-0.5-0.2-0.8-0.5c-0.3-0.2-0.5-0.6-0.7-1c-0.2-0.5-0.3-1.1-0.3-1.9c0,0,0-0.1,0-0.2s0-0.2,0-0.3c0.3,0.1,0.5,0.2,0.7,0.2
	c0.2,0.1,0.5,0.1,0.7,0.1c0.6,0,1.2-0.1,1.7-0.3c0.5-0.2,0.9-0.5,1.3-0.8c0.4-0.4,0.6-0.8,0.8-1.2c0.2-0.5,0.3-0.9,0.3-1.4
	c0-0.4,0-0.8-0.2-1.1c-0.1-0.4-0.3-0.7-0.6-1c-0.3-0.3-0.6-0.5-1-0.7c-0.4-0.2-0.9-0.3-1.5-0.3c-0.8,0-1.5,0.1-2.1,0.5
	c-0.6,0.4-1.1,0.9-1.6,1.5c-0.4,0.6-0.8,1.3-1,2.1s-0.4,1.6-0.4,2.4c0,0.5,0,1,0.1,1.5c0,0.5,0.1,0.9,0.3,1.3
	c0.1,0.4,0.4,0.9,0.6,1.2c0.3,0.4,0.7,0.8,1.2,1.2c0.3,0.2,0.8,0.4,1.3,0.5c0.5,0.2,0.9,0.3,1.3,0.3c0.8,0,1.4,0,1.9-0.1
	s1-0.4,1.6-0.9c0.2-0.1,0.3-0.3,0.5-0.5c0.1-0.2,0.2-0.4,0.3-0.7c0-0.1,0-0.3,0-0.3C214.8,63.6,214.8,63.5,214.8,63.4z M209.1,57.4
	c0.1-0.3,0.2-0.5,0.3-0.7c0.1-0.2,0.2-0.3,0.3-0.4c0.1-0.1,0.2-0.2,0.3-0.3c0.1-0.2,0.3-0.3,0.5-0.3c0.2,0,0.4,0,0.6,0
	c0.3,0,0.5,0.1,0.7,0.4c0.2,0.3,0.2,0.5,0.2,0.8c0,0.5-0.2,0.9-0.6,1.3c-0.4,0.4-1,0.5-1.7,0.5c-0.1,0-0.3,0-0.4,0
	c-0.2,0-0.3,0-0.4-0.1C208.9,58.1,209,57.7,209.1,57.4z M121.1,28.4c0-1-0.1-2-0.4-2.8c-0.3-0.8-0.7-1.7-1.1-2.5l-0.1-0.3
	c-0.1-0.1-0.2-0.3-0.3-0.6c-0.1-0.3-0.3-0.6-0.4-0.9c-0.1-0.3-0.2-0.6-0.3-0.9c-0.1-0.3-0.1-0.5-0.1-0.7l0-0.8
	c0-0.4,0.1-0.9,0.2-1.3c0.1-0.4,0.3-0.8,0.6-1.1c0.1-0.1,0.2-0.2,0.3-0.3s0.2-0.2,0.2-0.4c-0.1-0.2-0.2-0.4-0.3-0.6
	c-0.1-0.2-0.3-0.4-0.5-0.4c-0.1,0-0.1,0-0.2,0c-0.1,0-0.1,0-0.2,0c-0.6,0-1,0.1-1.4,0.4c-0.4,0.3-0.7,0.7-0.9,1.1
	c-0.2,0.5-0.4,1-0.5,1.5c-0.1,0.5-0.2,1.1-0.2,1.6c0,0.6,0.1,1.2,0.3,1.9c0.2,0.6,0.5,1.3,0.8,2c0.3,0.7,0.7,1.4,1,2.2
	c0.3,0.8,0.6,1.7,0.8,2.7c0,0,0,0.2,0,0.3c0,0.5-0.2,0.9-0.5,1.2c-0.3,0.3-0.6,0.5-1,0.4c-0.3,0-0.5-0.1-0.8-0.4
	c-0.3,0.1-0.4,0.1-0.5,0.2c-0.1,0.1-0.2,0.2-0.3,0.4c0,0.5,0.2,0.9,0.6,1.2c0.4,0.4,0.8,0.6,1.2,0.6c0.5,0,1-0.1,1.5-0.3
	c0.5-0.2,0.9-0.5,1.2-0.8c0.3-0.4,0.6-0.8,0.8-1.2C121,29.4,121.1,28.9,121.1,28.4z M119.8,55.1c0.1,0.1,0,0,0.1-0.1
	C119.8,54.9,119.8,55,119.8,55.1z M120.4,60.4c0.1,0.1,0,0,0.1-0.1C120.4,60.2,120.4,60.3,120.4,60.4z M120,55.5
	c0.1-0.2,0-0.3,0-0.5C120,55.1,120,55.3,120,55.5z M112.5,10.5c-0.2-0.1-0.4-0.3-0.6-0.3c-0.2-0.1-0.4-0.1-0.7-0.1
	c-0.3,0-0.5,0-0.6,0.1c-0.4,0.2-0.6,0.4-0.6,0.6c-0.1,0.2-0.1,0.4-0.1,0.7c0,0.1,0.1,0.2,0.2,0.3c0.1,0.1,0.3,0.2,0.5,0.4
	c0.2,0.1,0.4,0.2,0.6,0.3c0.2,0.1,0.5,0.1,0.7,0.1c0.4,0,0.7,0,0.9-0.2c0.2-0.1,0.3-0.4,0.3-0.8c0-0.2,0-0.4-0.2-0.6
	C112.8,10.8,112.7,10.6,112.5,10.5z M95.8,26c-0.1-0.2-0.2-0.3-0.3-0.3s-0.2-0.1-0.3-0.2c-0.5,0.3-1.1,0.7-1.5,0.9
	c-0.5,0.3-1,0.4-1.7,0.4c-0.1,0-0.3,0-0.5-0.1c-0.3-0.1-0.5-0.2-0.8-0.5c-0.3-0.2-0.5-0.6-0.7-1c-0.2-0.5-0.3-1.1-0.3-1.9
	c0,0,0-0.1,0-0.2c0-0.1,0-0.2,0-0.3c0.3,0.1,0.5,0.2,0.7,0.2s0.5,0.1,0.7,0.1c0.6,0,1.2-0.1,1.7-0.3c0.5-0.2,0.9-0.5,1.3-0.8
	c0.4-0.4,0.6-0.8,0.8-1.2c0.2-0.5,0.3-0.9,0.3-1.4c0-0.4,0-0.8-0.2-1.1c-0.1-0.4-0.3-0.7-0.6-1c-0.3-0.3-0.6-0.5-1-0.7
	c-0.4-0.2-0.9-0.3-1.5-0.3c-0.8,0-1.5,0.1-2.1,0.5c-0.6,0.4-1.1,0.9-1.6,1.5c-0.4,0.6-0.8,1.3-1,2.1C87.2,21.2,87,22,87,22.8
	c0,0.5,0,1,0.1,1.5c0,0.5,0.1,0.9,0.3,1.3s0.4,0.9,0.6,1.2c0.3,0.4,0.7,0.8,1.2,1.2c0.3,0.2,0.8,0.4,1.3,0.5
	c0.5,0.2,0.9,0.3,1.3,0.3c0.8,0,1.4,0,1.9-0.1c0.5-0.1,1-0.4,1.6-0.9c0.2-0.1,0.3-0.3,0.5-0.5c0.1-0.2,0.2-0.4,0.3-0.7
	c0-0.1,0-0.3,0-0.3S95.9,26.1,95.8,26z M90.1,20.1c0.1-0.3,0.2-0.5,0.3-0.7c0.1-0.2,0.2-0.3,0.3-0.4c0.1-0.1,0.2-0.2,0.3-0.3
	c0.1-0.2,0.3-0.3,0.5-0.3c0.2,0,0.4,0,0.6,0c0.3,0,0.5,0.1,0.7,0.4s0.2,0.5,0.2,0.8c0,0.5-0.2,0.9-0.6,1.3s-1,0.5-1.7,0.5
	c-0.1,0-0.3,0-0.4,0c-0.2,0-0.3,0-0.4-0.1C89.9,20.7,90,20.4,90.1,20.1z M105.3,59.4c-0.1-0.2-0.2-0.3-0.3-0.3s-0.2-0.1-0.3-0.2
	c-0.5,0.3-1.1,0.7-1.5,0.9c-0.5,0.3-1,0.4-1.7,0.4c-0.1,0-0.3,0-0.5-0.1c-0.3-0.1-0.5-0.2-0.8-0.5c-0.3-0.2-0.5-0.6-0.7-1
	c-0.2-0.5-0.3-1.1-0.3-1.9c0,0,0-0.1,0-0.2c0-0.1,0-0.2,0-0.3c0.3,0.1,0.5,0.2,0.7,0.2s0.5,0.1,0.7,0.1c0.6,0,1.2-0.1,1.7-0.3
	c0.5-0.2,0.9-0.5,1.3-0.8c0.4-0.4,0.6-0.8,0.8-1.2c0.2-0.5,0.3-0.9,0.3-1.4c0-0.4,0-0.8-0.2-1.1c-0.1-0.4-0.3-0.7-0.6-1
	c-0.3-0.3-0.6-0.5-1-0.7c-0.4-0.2-0.9-0.3-1.5-0.3c-0.8,0-1.5,0.1-2.1,0.5c-0.6,0.4-1.1,0.9-1.6,1.5c-0.4,0.6-0.8,1.3-1,2.1
	s-0.4,1.6-0.4,2.4c0,0.5,0,1,0.1,1.5c0,0.5,0.1,0.9,0.3,1.3c0.1,0.4,0.4,0.9,0.6,1.2c0.3,0.4,0.7,0.8,1.2,1.2
	c0.3,0.2,0.8,0.4,1.3,0.5c0.5,0.2,0.9,0.3,1.3,0.3c0.8,0,1.4,0,1.9-0.1c0.5-0.1,1-0.4,1.6-0.9c0.2-0.1,0.3-0.3,0.5-0.5
	c0.1-0.2,0.2-0.4,0.3-0.7c0-0.1,0-0.3,0-0.3C105.3,59.6,105.3,59.5,105.3,59.4z M99.6,53.4c0.1-0.3,0.2-0.5,0.3-0.7
	c0.1-0.2,0.2-0.3,0.3-0.4c0.1-0.1,0.2-0.2,0.3-0.3c0.1-0.2,0.3-0.3,0.5-0.3c0.2,0,0.4,0,0.6,0c0.3,0,0.5,0.1,0.7,0.4
	c0.2,0.3,0.2,0.5,0.2,0.8c0,0.5-0.2,0.9-0.6,1.3s-1,0.5-1.7,0.5c-0.1,0-0.3,0-0.4,0c-0.2,0-0.3,0-0.4-0.1
	C99.4,54.1,99.5,53.7,99.6,53.4z M104.2,22.1c0.2-0.2,0.4-0.5,0.7-0.7c0.2-0.2,0.4-0.5,0.5-0.7c0.4-0.3,0.8-0.7,1.2-1.1
	c0.4-0.4,0.9-0.9,1.3-1.4c0-0.1,0.1-0.3,0.1-0.4c0-0.4-0.2-0.7-0.5-0.8c-0.3-0.2-0.7-0.3-1.1-0.3c-0.5,0-0.8,0.1-1.2,0.4
	s-0.6,0.6-0.9,0.9c-0.1,0-0.2,0.2-0.4,0.4c-0.2,0.2-0.5,0.5-0.7,0.8c-0.3,0.3-0.5,0.6-0.8,1c-0.2,0.3-0.4,0.6-0.5,0.7
	c-0.2-0.3-0.4-0.5-0.5-0.7c-0.1-0.2-0.3-0.5-0.4-0.7c-0.1-0.3-0.3-0.5-0.4-0.8c-0.1-0.3-0.3-0.7-0.5-1.1c-0.3-0.5-0.6-0.8-0.9-1
	c-0.4-0.2-0.7-0.3-1.1-0.4c-0.2,0-0.3,0-0.4,0.2c-0.1,0.1-0.2,0.2-0.3,0.3l-0.3,0.7c0,0.3,0.1,0.6,0.4,0.8c0.2,0.2,0.4,0.5,0.6,0.8
	c0.2,0.4,0.4,0.8,0.6,1.1c0.2,0.3,0.3,0.6,0.5,0.9c0.2,0.3,0.3,0.6,0.5,1c0.2,0.4,0.4,0.8,0.6,1.2c0,0.4-0.2,0.7-0.5,1
	c-0.3,0.3-0.5,0.6-0.7,0.9c-0.3,0.6-0.7,1.2-1.1,1.7c-0.4,0.5-0.7,1.1-1,1.7c0,0,0,0.1,0,0.1c0,0,0,0.1,0,0.1c0,0.3,0.1,0.6,0.2,0.9
	c0.1,0.3,0.3,0.5,0.6,0.8c0.2,0.2,0.4,0.2,0.7,0.2c0.4,0,0.7-0.2,1-0.6c0.3-0.4,0.5-0.8,0.6-1.1c0.1-0.2,0.2-0.5,0.4-0.8
	c0.2-0.3,0.3-0.6,0.5-0.9c0.2-0.3,0.4-0.6,0.6-0.9c0.2-0.3,0.4-0.6,0.6-0.8c0.1,0,0.2,0.2,0.5,0.5c0.2,0.3,0.5,0.6,0.7,1
	c0.3,0.4,0.5,0.7,0.8,1.1s0.4,0.6,0.6,0.7c0.1,0.1,0.3,0.1,0.4,0.2c0.1,0,0.2,0,0.3,0s0.2,0,0.3,0c0.1,0,0.2,0,0.3,0
	c0.2-0.1,0.3-0.2,0.5-0.4c0.2-0.1,0.2-0.3,0.2-0.5c0-0.4-0.1-0.8-0.4-1.1s-0.5-0.7-0.7-1c-0.1-0.2-0.2-0.4-0.4-0.7
	c-0.2-0.3-0.5-0.6-0.7-0.9c-0.2-0.3-0.5-0.6-0.7-0.8c-0.2-0.2-0.3-0.4-0.3-0.5c0-0.1,0.1-0.3,0.3-0.5S103.9,22.3,104.2,22.1z
	 M111.2,55.8l-0.1-0.3c-0.1-0.1-0.2-0.3-0.3-0.6c-0.1-0.3-0.3-0.6-0.4-0.9c-0.1-0.3-0.2-0.6-0.3-0.9s-0.1-0.5-0.1-0.6l0-0.8
	c0-0.4,0.1-0.9,0.2-1.3c0.1-0.4,0.3-0.8,0.6-1.1c0.1-0.1,0.2-0.2,0.3-0.3c0.1-0.1,0.2-0.2,0.2-0.4c-0.1-0.2-0.2-0.4-0.3-0.6
	c-0.1-0.2-0.3-0.4-0.5-0.4c-0.1,0-0.1,0-0.2,0c-0.1,0-0.1,0-0.2,0c-0.6,0-1,0.1-1.4,0.4c-0.4,0.3-0.7,0.7-0.9,1.1
	c-0.2,0.5-0.4,1-0.5,1.5c-0.1,0.5-0.2,1.1-0.2,1.6c0,0.6,0.1,1.2,0.3,1.9s0.5,1.3,0.8,2c0.3,0.7,0.7,1.4,1,2.2
	c0.3,0.8,0.6,1.7,0.8,2.7c0,0,0,0.2,0,0.3c0,0.5-0.2,0.9-0.5,1.2c-0.3,0.3-0.6,0.5-1,0.4c-0.3,0-0.5-0.1-0.8-0.4
	c-0.3,0.1-0.4,0.1-0.5,0.2c-0.1,0.1-0.2,0.2-0.3,0.4c0,0.5,0.2,0.9,0.6,1.2c0.4,0.4,0.8,0.6,1.2,0.6c0.5,0,1-0.1,1.5-0.3
	c0.5-0.2,0.9-0.5,1.2-0.8c0.3-0.4,0.6-0.8,0.8-1.2c0.2-0.5,0.3-1,0.3-1.5c0-1-0.1-2-0.4-2.8C112,57.4,111.6,56.6,111.2,55.8z
	 M112.4,24.3c-0.1-0.8-0.1-1.7-0.2-2.7c-0.1-0.9-0.1-1.8,0-2.6c0-0.2,0-0.5,0-0.7c0-0.2,0-0.4,0.1-0.6c-0.1-0.2-0.3-0.3-0.4-0.5
	c-0.1-0.2-0.4-0.3-0.7-0.4c-0.2,0-0.5,0.1-0.6,0.1c-0.2,0-0.4,0.1-0.6,0.1c-0.4,0.2-0.6,0.6-0.6,1c0,1.1,0,2.1,0.1,3.1
	s0.1,2,0.1,3.1c0,0.4,0,0.7,0.1,1.1c0.1,0.4,0.1,0.7,0.1,1.1c0,0.6,0,1.1,0.1,1.5c0.1,0.4,0.3,0.7,0.5,0.9s0.5,0.3,0.8,0.4
	c0.3,0.1,0.6,0.1,1,0.1c0.2-0.2,0.4-0.4,0.5-0.6c0.1-0.2,0.1-0.3,0.1-0.5l0-0.1c0-0.4-0.1-0.9-0.2-1.6
	C112.6,26,112.5,25.2,112.4,24.3z M121.1,50.5c0-0.1,0,0-0.1,0.1C121.2,50.7,121,50.5,121.1,50.5z M126.2,44
	c-0.2-0.1-0.4-0.3-0.6-0.3c-0.2-0.1-0.4-0.1-0.7-0.1c-0.3,0-0.5,0-0.6,0.1c-0.4,0.2-0.6,0.4-0.6,0.6c-0.1,0.2-0.1,0.4-0.1,0.7
	c0,0.1,0.1,0.2,0.2,0.3c0.1,0.1,0.3,0.2,0.5,0.4c0.2,0.1,0.4,0.2,0.6,0.3c0.2,0.1,0.5,0.1,0.7,0.1c0.4,0,0.7,0,0.9-0.2
	c0.2-0.1,0.3-0.4,0.3-0.8c0-0.2,0-0.4-0.2-0.6C126.5,44.3,126.3,44.1,126.2,44z M121.2,50.4c0,0.1,0,0.3,0,0.5
	C121.3,50.7,121.2,50.6,121.2,50.4z M120.6,60.7c0.1-0.2,0-0.3,0-0.5C120.6,60.4,120.6,60.6,120.6,60.7z M122.9,20.3
	c0.3,0,0.6,0,0.9-0.2c0.3-0.1,0.6-0.2,1-0.3c0,0.1,0.1,0.2,0.1,0.2c0,0.1,0,0.2,0,0.2c0,1.1,0,2.1-0.1,3.1c0,1,0,2.1,0,3.1
	c0,0.4,0,0.9,0.1,1.4c0.1,0.5,0.1,0.9,0.2,1.2c0.2,0.3,0.4,0.6,0.6,0.8c0.2,0.2,0.5,0.3,0.8,0.3c0,0,0.2,0,0.4,0
	c0.2-0.1,0.5-0.2,0.7-0.3c0.2-0.2,0.3-0.4,0.3-0.8c0-0.3,0-0.5-0.1-0.8c-0.1-0.3-0.1-0.6-0.2-0.9c-0.1-1-0.3-2-0.4-3
	c-0.1-1-0.1-2.1-0.1-3c0-0.2,0-0.3,0-0.4c0-0.1,0-0.3,0-0.4s0-0.3,0-0.4c0-0.1,0-0.3,0-0.4c0-0.3,0.1-0.5,0.3-0.6
	c0.2-0.2,0.4-0.3,0.6-0.4c0.2-0.1,0.5-0.2,0.8-0.2c0.3-0.1,0.5-0.1,0.7-0.2c0.2-0.1,0.4-0.1,0.7-0.2c0.2,0,0.4-0.1,0.6-0.2
	c0.2-0.1,0.4-0.2,0.5-0.4s0.2-0.4,0.2-0.7c0-0.2,0-0.5-0.1-0.7c-0.1-0.2-0.3-0.4-0.6-0.4c-0.6,0-1,0.1-1.5,0.2
	c-0.4,0.2-0.9,0.2-1.5,0.2c-0.2,0-0.3-0.1-0.3-0.2c0-0.1,0-0.2,0-0.4c0-0.3,0-0.5,0-0.8c0-0.3,0-0.5,0-0.7c0-0.3,0-0.7,0.1-1
	c0-0.3,0-0.7,0.1-1c0-0.3,0-0.6,0-1c0-0.3,0-0.7,0-1.2c0-0.2,0-0.5,0-0.7c0-0.2-0.1-0.5-0.2-0.7c-0.1-0.2-0.3-0.4-0.5-0.5
	S126.6,8,126.2,8c-0.2,0-0.3,0-0.4,0.1s-0.3,0.1-0.4,0.2c-0.1,0.3-0.1,0.6-0.1,0.8l-0.1,3.3c0,0.3,0,0.6,0,1c0,0.3,0,0.7,0,1
	c0,0.5,0,0.9,0,1.1s0,0.6,0,1c0,0.2,0,0.4-0.1,0.7s-0.3,0.4-0.6,0.4c-0.3,0.1-0.5,0.2-0.8,0.3c-0.2,0.1-0.5,0.1-0.7,0.1
	s-0.5,0.1-0.7,0.1c-0.2,0-0.5,0.1-0.8,0.2c-0.1,0.4-0.2,0.7-0.2,0.9c0.1,0.2,0.4,0.4,0.7,0.7C122.1,20.2,122.5,20.3,122.9,20.3z
	 M163.8,29c0.1,0.8,0.4,1.5,0.7,2.1c0.3,0.6,0.7,0.9,1.3,0.9c0.3,0,0.6-0.1,0.9-0.2s0.4-0.4,0.5-0.7c0,0,0-0.1,0-0.1
	c0,0,0-0.1,0-0.1c-0.2-0.8-0.3-1.7-0.5-2.7s-0.2-2-0.2-2.8c0-0.3,0-0.6,0-1c0-0.3,0-0.7,0-1c0-0.5,0-1,0-1.5c0-0.5,0-1,0-1.6
	c0-0.6,0.1-1.3,0.1-1.9c0-0.7,0.1-1.4,0.1-2.2c0-0.6,0.1-1.1,0.2-1.7c0.1-0.6,0.2-1.1,0.2-1.7c0-0.3-0.1-0.5-0.2-0.7
	c-0.1-0.2-0.3-0.3-0.5-0.4c-0.2-0.1-0.4-0.2-0.7-0.2c-0.2,0-0.5,0-0.6-0.1c-0.2,0.2-0.4,0.3-0.5,0.5c-0.1,0.2-0.2,0.4-0.2,0.7
	c0,1.2-0.1,2.4-0.3,3.5c-0.2,1.1-0.3,2.3-0.3,3.5c0,0.9-0.1,1.8-0.1,2.6c0,0.8,0,1.8-0.1,2.8c0,0.4,0,1,0,1.7S163.7,28.2,163.8,29z
	 M12.8,6.1c-0.7,0-1.5,0.2-2.4,0.7c-0.9,0.5-1.9,1.3-3,2.4c-0.7,0.7-1.4,1.7-2,3c-0.6,1.3-0.9,2.8-1,4.6c0,0.7,0,1.6,0,2.6
	c0,1,0.2,2.1,0.5,3.1c0.2,0.5,0.5,1.2,1,1.9c0.5,0.7,1.1,1.5,1.8,2.2c0.7,0.7,1.5,1.4,2.3,1.9c0.9,0.6,1.7,1,2.6,1.2l0.1,0
	c0.3,0.1,0.5,0,0.7-0.3c0.2-0.3,0.4-0.6,0.4-0.9c0-0.3-0.1-0.6-0.5-0.8c-0.2-0.1-0.4-0.2-0.7-0.3c-0.3-0.1-0.5-0.2-0.7-0.3
	c-0.5-0.3-0.8-0.5-1.1-0.8c-0.2-0.2-0.5-0.5-0.7-0.7c-0.2-0.2-0.5-0.6-0.8-0.9c-0.3-0.4-0.6-0.8-1-1.2c-1.1-2-1.7-4-1.6-5.8
	c0-1,0.2-1.9,0.4-2.7c0.2-0.8,0.5-1.5,0.8-2.2c0.3-0.6,0.6-1.2,1-1.6c0.4-0.5,0.7-0.8,1.1-1.2C10.9,9.5,11.5,9.1,12,9s1-0.2,1.5-0.3
	c0.4-0.1,0.7-0.2,0.8-0.5s0.2-0.5,0.3-0.8c0-0.4-0.1-0.6-0.2-0.7C13.9,6.3,13.4,6.1,12.8,6.1z M131,24.4c0,0.5,0,1,0.1,1.5
	c0,0.5,0.1,0.9,0.3,1.3s0.4,0.9,0.6,1.2c0.3,0.4,0.7,0.8,1.2,1.2c0.3,0.2,0.8,0.4,1.3,0.5c0.5,0.2,0.9,0.3,1.3,0.3
	c0.8,0,1.4,0,1.9-0.1c0.5-0.1,1-0.4,1.6-0.9c0.2-0.1,0.3-0.3,0.5-0.5c0.1-0.2,0.2-0.4,0.3-0.7c0-0.1,0-0.3,0-0.3s0-0.2-0.1-0.3
	c-0.1-0.2-0.2-0.3-0.3-0.3c-0.1-0.1-0.2-0.1-0.4-0.2c-0.5,0.3-1,0.7-1.5,0.9c-0.5,0.3-1,0.4-1.7,0.4c-0.1,0-0.3,0-0.5-0.1
	s-0.5-0.2-0.8-0.5c-0.3-0.2-0.5-0.6-0.7-1c-0.2-0.5-0.3-1.1-0.3-1.9c0,0,0-0.1,0-0.2c0-0.1,0-0.2,0-0.3c0.3,0.1,0.5,0.2,0.7,0.2
	c0.2,0.1,0.5,0.1,0.7,0.1c0.6,0,1.2-0.1,1.7-0.3c0.5-0.2,0.9-0.5,1.3-0.8s0.6-0.8,0.8-1.2c0.2-0.5,0.3-0.9,0.3-1.4
	c0-0.4,0-0.8-0.2-1.1c-0.1-0.4-0.3-0.7-0.6-1s-0.6-0.5-1-0.7c-0.4-0.2-0.9-0.3-1.5-0.3c-0.8,0-1.5,0.1-2.1,0.5
	c-0.6,0.4-1.1,0.9-1.6,1.5c-0.4,0.6-0.8,1.3-1,2.1C131.1,22.9,131,23.7,131,24.4z M134.1,21.7c0.1-0.3,0.2-0.5,0.3-0.7
	c0.1-0.2,0.2-0.3,0.3-0.4c0.1-0.1,0.2-0.2,0.3-0.3c0.1-0.2,0.3-0.3,0.5-0.3c0.2,0,0.4,0,0.6,0c0.3,0,0.5,0.1,0.7,0.4
	c0.2,0.3,0.2,0.5,0.2,0.8c0,0.5-0.2,0.9-0.6,1.3c-0.4,0.4-1,0.5-1.7,0.5c-0.1,0-0.3,0-0.4,0c-0.2,0-0.3,0-0.4-0.1
	C133.9,22.3,134,22,134.1,21.7z M142.2,30c0.3,0.2,0.6,0.3,0.8,0.4c0.2,0,0.4,0,0.6,0s0.4-0.1,0.7-0.3c0.2-0.2,0.5-0.4,0.8-0.7
	c0.3-0.3,0.6-0.8,1-1.4c0.3-0.4,0.5-0.9,0.7-1.3c0.2-0.4,0.4-0.9,0.6-1.3c0.2-0.5,0.4-0.9,0.7-1.4c0.2-0.5,0.6-1,0.9-1.6
	c0.2,0.3,0.4,0.6,0.5,1c0.1,0.4,0.2,0.9,0.3,1.3c0.1,0.5,0.1,0.9,0.2,1.4c0,0.5,0.1,0.9,0.2,1.2c0.1,0.3,0.1,0.7,0.2,1.1
	c0,0.5,0.1,0.9,0.2,1.3s0.3,0.8,0.5,1.1s0.5,0.5,0.9,0.5c0.3,0,0.6-0.1,0.9-0.2c0.3-0.1,0.5-0.4,0.6-0.7c-0.2-0.6-0.4-1.3-0.5-2
	c-0.1-0.7-0.2-1.4-0.3-2.2c-0.1-0.7-0.2-1.5-0.3-2.2c-0.1-0.7-0.3-1.4-0.6-2c-0.1-0.3-0.2-0.6-0.3-0.9c-0.1-0.3-0.1-0.6-0.2-0.9
	c-0.1-0.3-0.2-0.6-0.4-0.8c-0.2-0.2-0.4-0.4-0.8-0.5c-0.4,0-0.9,0.1-1.3,0.4c-0.4,0.3-0.8,0.7-1.2,1.1s-0.7,0.9-1,1.4
	c-0.3,0.5-0.5,0.9-0.6,1.3l-0.1,0.2c-0.2,0.4-0.4,0.9-0.6,1.3c-0.2,0.5-0.5,0.8-0.8,1.1l0-0.2c0-0.5,0-1.1,0.1-1.6
	c0-0.6,0.1-1.2,0.1-2c0-0.2,0-0.5-0.1-0.7s-0.1-0.4-0.1-0.7c0-0.2,0-0.4,0-0.6c0-0.3-0.1-0.5-0.1-0.7c-0.1-0.2-0.2-0.4-0.3-0.6
	s-0.4-0.3-0.7-0.3c-0.1,0-0.2,0-0.4,0s-0.3,0-0.4,0c-0.2,0.1-0.4,0.3-0.5,0.5c-0.1,0.2-0.2,0.5-0.2,0.8c0,0.4,0,0.7,0,1.1
	c0,0.4,0,0.7,0,1.1c0,1.3-0.1,2.5-0.2,3.7c-0.1,1.2-0.1,2.4-0.2,3.8C141.8,29.5,141.9,29.8,142.2,30z M255.7,30.5
	c-0.3-0.8-0.7-1.7-1.1-2.5l-0.1-0.3c-0.1-0.1-0.2-0.3-0.3-0.6c-0.1-0.3-0.3-0.6-0.4-0.9c-0.1-0.3-0.2-0.6-0.3-0.9
	c-0.1-0.3-0.1-0.5-0.1-0.7l0-0.8c0-0.4,0.1-0.9,0.2-1.3c0.1-0.4,0.3-0.8,0.6-1.1c0.1-0.1,0.2-0.2,0.3-0.3c0.1-0.1,0.2-0.2,0.2-0.4
	c-0.1-0.2-0.2-0.4-0.3-0.6c-0.1-0.2-0.3-0.4-0.5-0.4c-0.1,0-0.1,0-0.2,0c-0.1,0-0.1,0-0.2,0c-0.6,0-1,0.1-1.4,0.4
	c-0.4,0.3-0.7,0.7-0.9,1.1c-0.2,0.5-0.4,1-0.5,1.5c-0.1,0.5-0.2,1.1-0.2,1.6c0,0.6,0.1,1.2,0.3,1.9s0.5,1.3,0.8,2
	c0.3,0.7,0.7,1.4,1,2.2c0.3,0.8,0.6,1.7,0.8,2.7c0,0,0,0.2,0,0.3c0,0.5-0.2,0.9-0.5,1.2c-0.3,0.3-0.6,0.5-1,0.4
	c-0.3,0-0.5-0.1-0.8-0.4c-0.3,0.1-0.4,0.1-0.5,0.2s-0.2,0.2-0.3,0.4c0,0.5,0.2,0.9,0.6,1.2s0.8,0.6,1.2,0.6c0.5,0,1-0.1,1.5-0.3
	c0.5-0.2,0.9-0.5,1.2-0.8c0.3-0.4,0.6-0.8,0.8-1.2c0.2-0.5,0.3-1,0.3-1.5C256.2,32.3,256,31.3,255.7,30.5z M248.4,33.5l-0.2-0.7
	l-0.1-1.2c-0.2-1-0.3-1.9-0.4-2.8c-0.1-0.9-0.1-1.8-0.2-2.9c0-0.6-0.1-1.1-0.2-1.6c-0.1-0.5-0.3-0.9-0.7-1.3
	c-0.2-0.1-0.4-0.3-0.6-0.4c-0.2-0.1-0.5-0.3-0.7-0.4c-0.3-0.1-0.5-0.2-0.7-0.3s-0.5-0.1-0.7-0.1c-0.9,0-1.8,0.3-2.6,1
	c-0.8,0.7-1.6,1.5-2.2,2.5c-0.6,1-1.2,2-1.6,3c-0.4,1-0.6,1.9-0.6,2.6c0,0.3,0,0.7,0.1,1c0.1,0.4,0.2,0.7,0.3,1
	c0.2,0.3,0.4,0.6,0.7,0.8c0.3,0.2,0.7,0.3,1.3,0.4c0.6,0,1.3-0.2,2-0.6c0.7-0.4,1.3-0.9,1.8-1.6c0.6-0.6,1-1.3,1.4-1.9
	c0.4-0.7,0.6-1.2,0.7-1.7c0.1,0.6,0.2,1.4,0.3,2.2c0.1,0.8,0.2,1.6,0.4,2.3c0.1,0.7,0.3,1.3,0.6,1.8c0.3,0.5,0.6,0.7,1,0.8
	c0.1,0,0.3,0,0.4,0c0.2,0,0.3-0.1,0.4-0.1c0.1-0.1,0.3-0.1,0.4-0.2s0.2-0.2,0.2-0.4c0-0.2,0-0.3-0.1-0.5
	C248.5,33.9,248.4,33.7,248.4,33.5z M244.3,24.8c-0.1,0.2-0.2,0.4-0.3,0.7c-0.1,0.2-0.3,0.5-0.4,0.7c-0.1,0.2-0.2,0.4-0.3,0.6
	c-0.2,0.4-0.4,0.9-0.7,1.4c-0.3,0.5-0.7,1-1.1,1.5c-0.4,0.5-0.8,0.9-1.1,1.2c-0.4,0.3-0.7,0.5-1,0.5c0,0,0,0,0,0c0,0,0,0,0,0l0-0.2
	c0-0.6,0.1-1.2,0.4-1.8c0.2-0.6,0.5-1.2,0.8-1.7c0.1-0.1,0.2-0.4,0.4-0.8c0.2-0.4,0.4-0.8,0.7-1.3c0.3-0.4,0.6-0.8,1-1.2
	c0.4-0.4,0.8-0.5,1.3-0.5c0.1,0,0.2,0,0.3,0.1c0.1,0,0.2,0.1,0.3,0.1C244.5,24.5,244.4,24.6,244.3,24.8z M52.9,47.8
	c0.1-0.2,0.2-0.4,0.2-0.7c0-0.2,0-0.5-0.1-0.7c-0.1-0.2-0.3-0.4-0.6-0.4c-0.6,0-1,0.1-1.5,0.2c-0.4,0.2-0.9,0.2-1.5,0.2
	c-0.2,0-0.3-0.1-0.3-0.2c0-0.1,0-0.2,0-0.4c0-0.3,0-0.5,0-0.8c0-0.3,0-0.5,0-0.7c0-0.3,0-0.7,0.1-1c0-0.3,0-0.7,0.1-1
	c0-0.3,0-0.6,0-1c0-0.3,0-0.7,0-1.2c0-0.2,0-0.5,0-0.7c0-0.2-0.1-0.5-0.2-0.7c-0.1-0.2-0.3-0.4-0.5-0.5c-0.2-0.1-0.5-0.2-0.9-0.2
	c-0.2,0-0.3,0-0.4,0.1s-0.3,0.1-0.4,0.2c-0.1,0.3-0.1,0.6-0.1,0.8l-0.1,3.3c0,0.3,0,0.6,0,1c0,0.3,0,0.7,0,1c0,0.5,0,0.9,0,1.1
	s0,0.6,0,1c0,0.2,0,0.4-0.1,0.7c-0.1,0.3-0.3,0.4-0.6,0.4c-0.3,0.1-0.5,0.2-0.8,0.3c-0.2,0.1-0.5,0.1-0.7,0.1
	c-0.2,0-0.5,0.1-0.7,0.1c-0.2,0-0.5,0.1-0.8,0.2c-0.1,0.4-0.2,0.7-0.2,0.9c0.1,0.2,0.4,0.4,0.7,0.7c0.3,0.3,0.6,0.4,1.1,0.5
	c0.3,0,0.6,0,0.9-0.2c0.3-0.1,0.6-0.2,1-0.3c0,0.1,0.1,0.2,0.1,0.2c0,0.1,0,0.2,0,0.2c0,1.1,0,2.1-0.1,3.1c0,1,0,2.1,0,3.1
	c0,0.4,0,0.9,0.1,1.4s0.1,0.9,0.2,1.2c0.2,0.3,0.4,0.6,0.6,0.8c0.2,0.2,0.5,0.3,0.8,0.3c0,0,0.2,0,0.4,0c0.2-0.1,0.5-0.2,0.7-0.3
	c0.2-0.2,0.3-0.4,0.3-0.8c0-0.3,0-0.5-0.1-0.8c-0.1-0.3-0.1-0.6-0.2-0.9c-0.1-1-0.3-2-0.4-3c-0.1-1-0.1-2.1-0.1-3c0-0.2,0-0.3,0-0.4
	c0-0.1,0-0.3,0-0.4s0-0.3,0-0.4c0-0.1,0-0.3,0-0.4c0-0.3,0.1-0.5,0.3-0.6c0.2-0.2,0.4-0.3,0.6-0.4s0.5-0.2,0.8-0.2
	c0.3-0.1,0.5-0.1,0.7-0.2c0.2-0.1,0.4-0.1,0.7-0.2c0.2,0,0.4-0.1,0.6-0.2C52.6,48.1,52.7,48,52.9,47.8z M62.2,51.9
	c-0.1-0.3-0.2-0.5-0.4-0.8c-0.1-0.3-0.3-0.5-0.5-0.7c-0.3-0.2-0.6-0.5-0.9-0.6s-0.6-0.3-1-0.5c-0.3-0.1-0.7-0.3-1-0.4
	s-0.6-0.3-0.9-0.5c-0.2-0.1-0.4-0.2-0.6-0.2c-0.5,0-0.9,0.1-1.4,0.4s-0.9,0.6-1.2,1c-0.4,0.4-0.7,0.8-0.9,1.2
	c-0.3,0.4-0.4,0.7-0.5,1c-0.1,0.6-0.3,1.2-0.5,1.8c-0.2,0.6-0.3,1.2-0.3,1.7c0,1,0.1,1.8,0.5,2.5c0.4,0.7,0.9,1.2,1.6,1.7
	c0.3,0.2,0.6,0.4,0.9,0.6c0.3,0.2,0.6,0.3,1,0.3l0.2,0c0.1,0,0.3,0,0.4,0c0.1,0,0.2,0,0.3,0c0.4,0,0.8-0.1,1.2-0.3
	c0.4-0.2,0.8-0.5,1.1-0.8s0.7-0.6,1-1c0.3-0.4,0.5-0.7,0.7-0.9c0.4-0.5,0.7-1.1,0.9-1.6c0.3-0.6,0.4-1.2,0.5-1.8l0-0.6
	c0-0.2,0-0.5,0-0.7C62.4,52.3,62.3,52.1,62.2,51.9z M59.6,52.9c-0.1,0.4-0.1,0.9-0.3,1.3c-0.1,0.5-0.3,0.9-0.4,1.3
	c-0.2,0.4-0.4,0.8-0.7,1.2c-0.3,0.4-0.6,0.6-0.9,0.8c-0.2,0.1-0.5,0.2-0.7,0.2c-0.2,0.1-0.4,0.1-0.6,0.1c-0.3,0-0.5-0.1-0.6-0.3
	c-0.2-0.2-0.3-0.5-0.3-0.8c-0.1-0.3-0.1-0.6-0.1-0.8c0-0.3,0-0.4,0-0.5c0-0.4,0.1-0.9,0.2-1.4c0.1-0.5,0.3-1.1,0.5-1.5
	c0.2-0.5,0.5-0.9,0.8-1.2c0.3-0.3,0.7-0.5,1.1-0.5c0.5,0,1,0.2,1.5,0.5c0.4,0.3,0.6,0.8,0.6,1.4L59.6,52.9z M64.2,27.4
	c0,0,0.2,0,0.4,0c0.2,0,0.4,0,0.4,0c0.2,0,0.4-0.1,0.7-0.2c0.2-0.2,0.3-0.5,0.4-0.9c-0.1-0.3-0.2-0.5-0.2-0.8
	c-0.1-0.3-0.1-0.5-0.3-0.8c-0.1-0.1-0.1-0.4-0.2-0.7c-0.1-0.3-0.2-0.7-0.3-1.1c-0.1-0.4-0.2-0.7-0.3-1s-0.1-0.5-0.1-0.6l0-0.1
	c-0.1-0.4-0.2-0.9-0.3-1.4c-0.1-0.5-0.1-1.1-0.2-1.6c0-0.5-0.1-1.1-0.1-1.6c0-0.5,0-1-0.1-1.5c0-0.6-0.1-1.2-0.1-1.9
	c0-0.7-0.1-1.3,0-1.8c0-0.8,0.1-1.5,0.2-2.2c0.1-0.7,0.1-1.3,0.2-2.1c0-0.3-0.1-0.7-0.3-1S63.4,5.8,63,5.8c-0.3,0-0.5,0-0.8,0.1
	C62,6,61.7,6.2,61.6,6.4c-0.2,0.1-0.2,0.3-0.2,0.5c0,0.2,0,0.4-0.1,0.6c0,0.2,0,0.5,0,0.7c0,0.2,0,0.4,0,0.7c0,0.6,0,1.2,0,1.7
	c0,0.5,0,0.8,0,0.8c0,0.7,0,1.4,0,2.1c0,0.7,0,1.5,0,2.2c-0.3-0.1-0.6-0.2-0.8-0.3c-0.3-0.1-0.6-0.2-0.9-0.2c-0.4,0-0.8,0.1-1,0.2
	c-0.2,0.2-0.4,0.3-0.5,0.3c-0.6,0.4-1.1,0.9-1.6,1.5c-0.5,0.6-0.9,1.3-1.3,2s-0.6,1.4-0.9,2.2c-0.2,0.7-0.3,1.4-0.3,2
	c0,1.1,0.2,2,0.6,2.7c0.5,0.7,1.2,1.1,2.3,1.2c0.5,0,1-0.1,1.5-0.3c0.5-0.2,1-0.6,1.5-1.1c0.5-0.5,0.9-1.1,1.3-1.7
	c0.4-0.7,0.7-1.5,0.9-2.3c0.1,0.2,0.2,0.5,0.2,0.9c0.1,0.4,0.2,0.8,0.2,1.3s0.2,0.9,0.3,1.3c0.1,0.4,0.2,0.7,0.3,0.8
	c0.2,0.5,0.4,0.8,0.6,0.9C63.8,27.2,64,27.3,64.2,27.4z M60.5,19.7c-0.1,0.3-0.2,0.6-0.3,1c-0.2,0.4-0.4,0.8-0.6,1.3
	c-0.2,0.5-0.4,1-0.7,1.4s-0.5,0.8-0.9,1.1c-0.3,0.3-0.7,0.5-1.2,0.4c0-0.2-0.1-0.4-0.2-0.6c-0.1-0.2-0.1-0.4-0.1-0.6
	c0-0.3,0-0.6,0.1-0.9c0-0.3,0.1-0.5,0.2-0.8c0.1-0.3,0.1-0.5,0.3-0.8c0.1-0.3,0.2-0.6,0.4-1c0.2-0.6,0.5-1.1,0.9-1.5
	c0.4-0.4,0.7-0.8,1.1-1.3c0.1,0,0.2,0,0.2,0c0.1,0,0.1,0,0.2,0c0,0.1,0,0.2,0,0.3c0,0.1,0,0.2,0,0.3c0,0.1,0.1,0.2,0.2,0.2
	c0.1,0,0.2,0,0.3,0.1c0.1,0,0.2,0,0.3,0c0.1,0,0.1,0.1,0.1,0.1C60.7,19.1,60.6,19.4,60.5,19.7z M39,25.9l-0.2-0.7L38.6,24
	c-0.2-1-0.3-1.9-0.4-2.8c-0.1-0.9-0.1-1.8-0.2-2.9c0-0.6-0.1-1.1-0.2-1.6c-0.1-0.5-0.3-0.9-0.7-1.3c-0.2-0.1-0.4-0.3-0.6-0.4
	c-0.2-0.1-0.5-0.3-0.7-0.4s-0.5-0.2-0.7-0.3c-0.2-0.1-0.5-0.1-0.7-0.1c-0.9,0-1.8,0.3-2.6,1c-0.8,0.7-1.6,1.5-2.2,2.5
	c-0.6,1-1.2,2-1.6,3c-0.4,1-0.6,1.9-0.6,2.6c0,0.3,0,0.7,0.1,1.1s0.2,0.7,0.3,1c0.2,0.3,0.4,0.6,0.7,0.8c0.3,0.2,0.7,0.3,1.3,0.4
	c0.6,0,1.3-0.2,2-0.6c0.7-0.4,1.3-0.9,1.8-1.6c0.6-0.6,1-1.3,1.4-1.9c0.4-0.7,0.6-1.2,0.7-1.7c0.1,0.6,0.2,1.4,0.3,2.2
	c0.1,0.8,0.2,1.6,0.4,2.3s0.3,1.3,0.6,1.8c0.3,0.5,0.6,0.7,1,0.8c0.1,0,0.3,0,0.4,0c0.2,0,0.3-0.1,0.4-0.1c0.1-0.1,0.3-0.1,0.4-0.2
	c0.1-0.1,0.2-0.2,0.2-0.4c0-0.2,0-0.3-0.1-0.5S39,26,39,25.9z M34.9,17.2c-0.1,0.2-0.2,0.4-0.3,0.7c-0.1,0.2-0.3,0.5-0.4,0.7
	c-0.1,0.2-0.2,0.4-0.3,0.6c-0.2,0.4-0.4,0.9-0.7,1.4c-0.3,0.5-0.7,1-1.1,1.5c-0.4,0.5-0.8,0.9-1.1,1.2c-0.4,0.3-0.7,0.5-1,0.5
	c0,0,0,0,0,0c0,0,0,0,0,0l0-0.2c0-0.6,0.1-1.2,0.4-1.8c0.2-0.6,0.5-1.2,0.8-1.7c0.1-0.1,0.2-0.4,0.4-0.8c0.2-0.4,0.4-0.8,0.7-1.3
	c0.3-0.4,0.6-0.8,1-1.2c0.4-0.4,0.8-0.5,1.3-0.5c0.1,0,0.2,0,0.3,0.1c0.1,0,0.2,0.1,0.3,0.1C35.1,16.8,35,17,34.9,17.2z M43.8,26.4
	c0.2-0.2,0.5-0.4,0.8-0.7c0.3-0.3,0.6-0.8,1-1.4c0.3-0.4,0.5-0.9,0.7-1.3c0.2-0.4,0.4-0.9,0.6-1.3c0.2-0.5,0.4-0.9,0.7-1.4
	c0.2-0.5,0.6-1,0.9-1.6c0.2,0.3,0.4,0.6,0.5,1c0.1,0.4,0.2,0.9,0.3,1.3c0.1,0.5,0.1,0.9,0.2,1.4c0,0.5,0.1,0.9,0.2,1.2
	c0.1,0.3,0.1,0.7,0.2,1.1c0,0.5,0.1,0.9,0.2,1.3s0.3,0.8,0.5,1.1s0.5,0.5,0.9,0.5c0.3,0,0.6-0.1,0.9-0.2c0.3-0.1,0.5-0.4,0.6-0.7
	c-0.2-0.6-0.4-1.3-0.5-2c-0.1-0.7-0.2-1.4-0.3-2.2c-0.1-0.7-0.2-1.5-0.3-2.2c-0.1-0.7-0.3-1.4-0.6-2c-0.1-0.3-0.2-0.6-0.3-0.9
	c-0.1-0.3-0.1-0.6-0.2-0.9s-0.2-0.6-0.4-0.8s-0.4-0.4-0.8-0.5c-0.4,0-0.9,0.1-1.3,0.4c-0.4,0.3-0.8,0.7-1.2,1.1
	c-0.4,0.4-0.7,0.9-1,1.4c-0.3,0.5-0.5,0.9-0.6,1.3l-0.1,0.2c-0.2,0.4-0.4,0.9-0.6,1.3c-0.2,0.5-0.5,0.8-0.8,1.1l0-0.2
	c0-0.5,0-1.1,0.1-1.6c0-0.6,0.1-1.2,0.1-2c0-0.2,0-0.5-0.1-0.7c0-0.2-0.1-0.4-0.1-0.7c0-0.2,0-0.4,0-0.6s-0.1-0.5-0.1-0.7
	c-0.1-0.2-0.2-0.4-0.3-0.6s-0.4-0.3-0.7-0.3c-0.1,0-0.2,0-0.4,0c-0.1,0-0.3,0-0.4,0c-0.2,0.1-0.4,0.3-0.5,0.5
	c-0.1,0.2-0.2,0.5-0.2,0.8c0,0.4,0,0.7,0,1.1c0,0.4,0,0.7,0,1.1c0,1.3-0.1,2.5-0.2,3.7c-0.1,1.2-0.1,2.4-0.2,3.8
	c0,0.3,0.1,0.6,0.4,0.8c0.3,0.2,0.6,0.3,0.8,0.4c0.2,0,0.4,0,0.6,0S43.6,26.6,43.8,26.4z M234.7,29.2c-0.1-0.7-0.2-1.5-0.3-2.2
	c-0.1-0.7-0.3-1.4-0.6-2c-0.1-0.3-0.2-0.6-0.3-0.9c-0.1-0.3-0.1-0.6-0.2-0.9s-0.2-0.6-0.4-0.8c-0.2-0.2-0.4-0.4-0.8-0.5
	c-0.4,0-0.9,0.1-1.3,0.4c-0.4,0.3-0.8,0.7-1.2,1.1c-0.4,0.4-0.7,0.9-1,1.4c-0.3,0.5-0.5,0.9-0.6,1.3l-0.1,0.2
	c-0.2,0.4-0.4,0.9-0.6,1.3c-0.2,0.5-0.5,0.8-0.8,1.1l0-0.2c0-0.5,0-1.1,0.1-1.6c0-0.6,0.1-1.2,0.1-2c0-0.2,0-0.5-0.1-0.7
	s-0.1-0.4-0.1-0.7c0-0.2,0-0.4,0-0.6c0-0.3-0.1-0.5-0.1-0.7c-0.1-0.2-0.2-0.4-0.3-0.6s-0.4-0.3-0.7-0.3c-0.1,0-0.2,0-0.4,0
	c-0.1,0-0.3,0-0.4,0c-0.2,0.1-0.4,0.3-0.5,0.5c-0.1,0.2-0.2,0.5-0.2,0.8c0,0.4,0,0.7,0,1.1c0,0.4,0,0.7,0,1.1c0,1.3-0.1,2.5-0.2,3.7
	c-0.1,1.2-0.1,2.4-0.2,3.8c0,0.3,0.1,0.6,0.4,0.8c0.3,0.2,0.6,0.3,0.8,0.4c0.2,0,0.4,0,0.6,0s0.4-0.1,0.7-0.3
	c0.2-0.2,0.5-0.4,0.8-0.7c0.3-0.3,0.6-0.8,1-1.4c0.3-0.4,0.5-0.9,0.7-1.3c0.2-0.4,0.4-0.9,0.6-1.3c0.2-0.5,0.4-0.9,0.7-1.4
	c0.2-0.5,0.6-1,0.9-1.6c0.2,0.3,0.4,0.6,0.5,1c0.1,0.4,0.2,0.9,0.3,1.3c0.1,0.5,0.1,0.9,0.2,1.4c0,0.5,0.1,0.9,0.2,1.2
	c0.1,0.3,0.1,0.7,0.2,1.1c0,0.5,0.1,0.9,0.2,1.3c0.1,0.4,0.3,0.8,0.5,1.1s0.5,0.5,0.9,0.5c0.3,0,0.6-0.1,0.9-0.2
	c0.3-0.1,0.5-0.4,0.6-0.7c-0.2-0.6-0.4-1.3-0.5-2C234.9,30.6,234.8,29.9,234.7,29.2z M25.9,23.8c-0.3-0.5-0.5-1.1-0.6-1.8
	c-0.1-0.7-0.2-1.6-0.1-2.7c0-0.5,0.1-1.1,0.2-1.8c0.1-0.7,0.2-1.7,0.2-3c-0.1-0.2-0.3-0.4-0.5-0.5c-0.2-0.2-0.4-0.3-0.6-0.3
	c0,0,0,0-0.1,0c0,0,0,0-0.1,0c-0.5,0-0.9,0-1.2,0.2c-0.2,0.1-0.4,0.3-0.5,0.5c-0.1,0.2-0.1,0.5-0.1,0.8c0,0.3,0,0.6-0.1,0.8
	c-0.2,0.7-0.5,1.4-0.9,2.3s-0.8,1.6-1.2,2.4c-0.4,0.8-0.9,1.4-1.3,1.9c-0.4,0.5-0.8,0.8-1.2,0.8c0-0.5-0.1-1.1-0.1-2
	c0-0.9,0-1.8,0-2.9c0-0.3,0-0.6,0.1-1c0.1-0.3,0.1-0.8,0.1-1.4c0-0.4,0.1-0.7,0.1-0.9c0.1-0.3,0.1-0.6,0.1-0.9c0-0.4-0.1-0.7-0.5-1
	c-0.3-0.2-0.7-0.4-1-0.4c-0.1,0-0.2,0-0.3,0.1c-0.1,0-0.1,0-0.2,0.1c-0.1,0-0.2,0.1-0.3,0.1s-0.2,0.1-0.2,0.1
	c-0.2,0.5-0.3,1-0.4,1.6c-0.1,0.5-0.1,1.1-0.1,1.7l0,1.1c0,0.3,0,0.6,0,0.9c0,0.3,0,0.6-0.1,0.9c0,1.3,0,2.4,0,3.3
	c0,0.9,0.2,1.6,0.3,2.2c0.2,0.6,0.5,1,0.8,1.2c0.4,0.3,0.9,0.4,1.5,0.4c0.6,0,1.1-0.2,1.6-0.6c0.5-0.4,1-0.9,1.4-1.4
	c0.4-0.6,0.8-1.1,1.1-1.7c0.3-0.6,0.6-1.1,0.7-1.4l0.1-0.3c0,0.5,0.1,1,0.2,1.5c0.1,0.5,0.2,0.9,0.4,1.3s0.4,0.8,0.7,1
	c0.3,0.3,0.7,0.5,1.1,0.6c0.2,0,0.3-0.1,0.5-0.1c0.2,0,0.3,0,0.4-0.1s0.2-0.1,0.3-0.2c0.1-0.1,0.2-0.3,0.2-0.5
	c-0.1-0.2-0.2-0.4-0.3-0.5C26.1,24.1,26,24,25.9,23.8z M171.3,55.9c-0.1-0.3-0.2-0.5-0.4-0.8c-0.1-0.3-0.3-0.5-0.5-0.7
	c-0.3-0.2-0.6-0.5-0.9-0.6c-0.3-0.2-0.6-0.3-1-0.5c-0.3-0.1-0.7-0.3-1-0.4s-0.6-0.3-0.9-0.5c-0.2-0.1-0.4-0.2-0.6-0.2
	c-0.5,0-0.9,0.1-1.4,0.4c-0.5,0.3-0.9,0.6-1.2,1c-0.4,0.4-0.7,0.8-0.9,1.2c-0.3,0.4-0.4,0.7-0.5,1c-0.1,0.6-0.3,1.2-0.5,1.8
	c-0.2,0.6-0.3,1.2-0.3,1.7c0,1,0.1,1.8,0.5,2.5c0.4,0.7,0.9,1.2,1.6,1.7c0.3,0.2,0.6,0.4,0.9,0.6c0.3,0.2,0.6,0.3,1,0.3l0.2,0
	c0.1,0,0.3,0,0.4,0c0.1,0,0.2,0,0.3,0c0.4,0,0.8-0.1,1.2-0.3c0.4-0.2,0.8-0.5,1.1-0.8c0.4-0.3,0.7-0.6,1-1c0.3-0.4,0.5-0.7,0.7-0.9
	c0.4-0.5,0.7-1.1,0.9-1.6c0.3-0.6,0.4-1.2,0.5-1.8l0-0.6c0-0.2,0-0.5,0-0.7C171.5,56.3,171.4,56.1,171.3,55.9z M168.6,56.8
	c-0.1,0.4-0.1,0.9-0.3,1.3s-0.3,0.9-0.4,1.3c-0.2,0.4-0.4,0.8-0.7,1.2c-0.3,0.4-0.6,0.6-0.9,0.8c-0.2,0.1-0.5,0.2-0.7,0.3
	s-0.4,0.1-0.6,0.1c-0.3,0-0.5-0.1-0.6-0.3c-0.2-0.2-0.3-0.5-0.3-0.8c-0.1-0.3-0.1-0.6-0.1-0.8s0-0.4,0-0.5c0-0.4,0.1-0.9,0.2-1.4
	c0.1-0.5,0.3-1.1,0.5-1.5c0.2-0.5,0.5-0.9,0.8-1.2c0.3-0.3,0.7-0.5,1.1-0.5c0.5,0,1,0.2,1.5,0.5c0.4,0.3,0.7,0.8,0.6,1.4L168.6,56.8
	z M133.4,52C133.4,52,133.4,52,133.4,52C133.4,52,133.4,52,133.4,52C133.4,52,133.4,52,133.4,52z M122.8,52.1c0,0.1,0,0.1,0,0.2
	C122.8,52.4,122.8,52.2,122.8,52.1C122.8,52.2,122.8,52.1,122.8,52.1z M123,52.7c0-0.2,0-0.5-0.1-0.6c0,0,0,0,0,0c0,0.1,0,0.2,0,0.2
	c0,0,0,0.3,0.1,0.1C123,52.6,122.9,52.7,123,52.7z M122.8,52.5c0,0,0-0.1,0-0.1C122.8,52.4,122.8,52.4,122.8,52.5z M177.4,58.2
	l-0.1-0.3c-0.1-0.1-0.2-0.3-0.3-0.6s-0.3-0.6-0.4-0.9s-0.2-0.6-0.3-0.9c-0.1-0.3-0.1-0.5-0.1-0.6l0-0.8c0-0.4,0.1-0.9,0.2-1.3
	c0.1-0.4,0.3-0.8,0.6-1.1c0.1-0.1,0.2-0.2,0.3-0.3c0.1-0.1,0.2-0.2,0.2-0.4c-0.1-0.2-0.2-0.4-0.3-0.6c-0.1-0.2-0.3-0.4-0.5-0.4
	c-0.1,0-0.1,0-0.2,0c-0.1,0-0.1,0-0.2,0c-0.6,0-1,0.1-1.4,0.4c-0.4,0.3-0.7,0.7-0.9,1.1c-0.2,0.5-0.4,1-0.5,1.5
	c-0.1,0.5-0.2,1.1-0.2,1.6c0,0.6,0.1,1.2,0.3,1.9c0.2,0.6,0.5,1.3,0.8,2c0.3,0.7,0.7,1.4,1,2.2c0.3,0.8,0.6,1.7,0.8,2.7
	c0,0,0,0.2,0,0.3c0,0.5-0.2,0.9-0.5,1.2c-0.3,0.3-0.6,0.5-1,0.4c-0.3,0-0.5-0.1-0.8-0.4c-0.3,0.1-0.4,0.1-0.5,0.2
	c-0.1,0.1-0.2,0.2-0.3,0.4c0,0.5,0.2,0.9,0.6,1.2c0.4,0.4,0.8,0.6,1.2,0.6c0.5,0,1-0.1,1.5-0.3c0.5-0.2,0.9-0.5,1.2-0.8
	c0.3-0.4,0.6-0.8,0.8-1.2c0.2-0.5,0.3-1,0.3-1.5c0-1-0.1-2-0.4-2.8C178.2,59.9,177.8,59,177.4,58.2z M184.3,60
	c-0.1-0.8-0.1-1.7-0.2-2.7c-0.1-0.9-0.1-1.8,0-2.6c0-0.2,0-0.5,0-0.7c0-0.2,0-0.4,0.1-0.6c-0.1-0.2-0.3-0.3-0.4-0.5
	c-0.1-0.2-0.4-0.3-0.7-0.4c-0.2,0-0.5,0.1-0.6,0.1c-0.2,0-0.4,0.1-0.6,0.1c-0.4,0.2-0.6,0.6-0.6,1c0,1.1,0,2.1,0.1,3.1
	c0.1,1,0.1,2,0.1,3.1c0,0.4,0,0.7,0.1,1.1c0.1,0.4,0.1,0.7,0.1,1.1c0,0.6,0,1.1,0.1,1.5c0.1,0.4,0.3,0.7,0.5,0.9
	c0.2,0.2,0.5,0.3,0.8,0.4c0.3,0.1,0.6,0.1,1,0.1c0.2-0.2,0.4-0.4,0.5-0.6c0.1-0.2,0.1-0.3,0.1-0.5l0-0.1c0-0.4-0.1-0.9-0.2-1.6
	C184.4,61.6,184.4,60.8,184.3,60z M136,57.3C136,57.3,136,57.3,136,57.3C136,57.3,136,57.3,136,57.3C136,57.3,136,57.3,136,57.3z
	 M129.2,54.4C129.2,54.4,129.2,54.4,129.2,54.4C129.2,54.5,129.2,54.5,129.2,54.4L129.2,54.4z M180.7,31l-0.2-0.7l-0.1-1.2
	c-0.2-1-0.3-1.9-0.4-2.8c-0.1-0.9-0.1-1.8-0.2-2.9c0-0.6-0.1-1.1-0.2-1.6c-0.1-0.5-0.3-0.9-0.7-1.3c-0.2-0.1-0.4-0.3-0.6-0.4
	s-0.5-0.3-0.7-0.4c-0.3-0.1-0.5-0.2-0.7-0.3c-0.2-0.1-0.5-0.1-0.7-0.1c-0.9,0-1.8,0.3-2.6,1c-0.8,0.7-1.6,1.5-2.2,2.5
	c-0.6,1-1.2,2-1.6,3c-0.4,1-0.6,1.9-0.6,2.6c0,0.3,0,0.7,0.1,1.1c0.1,0.4,0.2,0.7,0.3,1s0.4,0.6,0.7,0.8c0.3,0.2,0.7,0.3,1.3,0.4
	c0.6,0,1.3-0.2,2-0.6c0.7-0.4,1.3-0.9,1.8-1.6c0.6-0.6,1-1.3,1.4-1.9c0.4-0.7,0.6-1.2,0.7-1.7c0.1,0.6,0.2,1.4,0.3,2.2
	c0.1,0.8,0.2,1.6,0.3,2.3c0.1,0.7,0.3,1.3,0.6,1.8c0.3,0.5,0.6,0.7,1,0.8c0.1,0,0.3,0,0.4,0c0.2,0,0.3-0.1,0.4-0.1
	c0.1-0.1,0.3-0.1,0.4-0.2c0.1-0.1,0.2-0.2,0.2-0.4c0-0.2,0-0.3-0.1-0.5S180.7,31.2,180.7,31z M176.7,22.4c-0.1,0.2-0.2,0.4-0.3,0.7
	c-0.1,0.2-0.3,0.5-0.4,0.7c-0.1,0.2-0.2,0.4-0.3,0.6c-0.2,0.4-0.4,0.9-0.7,1.4c-0.3,0.5-0.7,1-1.1,1.5c-0.4,0.5-0.8,0.9-1.1,1.2
	c-0.4,0.3-0.7,0.5-1,0.5c0,0,0,0,0,0c0,0,0,0,0,0l0-0.2c0-0.6,0.1-1.2,0.4-1.8c0.2-0.6,0.5-1.2,0.8-1.7c0.1-0.1,0.2-0.4,0.4-0.8
	c0.2-0.4,0.4-0.8,0.7-1.3c0.3-0.4,0.6-0.8,1-1.2c0.4-0.4,0.8-0.5,1.3-0.5c0.1,0,0.2,0,0.3,0.1c0.1,0,0.2,0.1,0.3,0.1
	C176.8,22,176.7,22.2,176.7,22.4z M184.3,46.1c-0.2-0.1-0.4-0.3-0.6-0.3c-0.2-0.1-0.4-0.1-0.7-0.1c-0.3,0-0.5,0-0.6,0.1
	c-0.4,0.2-0.6,0.4-0.6,0.6s-0.1,0.4-0.1,0.7c0,0.1,0,0.2,0.2,0.3c0.1,0.1,0.3,0.2,0.5,0.4s0.4,0.2,0.6,0.3s0.5,0.1,0.7,0.1
	c0.4,0,0.7,0,0.9-0.2c0.2-0.1,0.3-0.4,0.3-0.8c0-0.2,0-0.4-0.2-0.6C184.7,46.4,184.5,46.3,184.3,46.1z M122.2,57.4
	c0.1-0.2,0-0.5-0.1-0.6c0,0,0,0,0,0c0,0.1,0,0.2,0,0.2c0,0,0.1,0.3,0.1,0.1C122.2,57.2,122.1,57.4,122.2,57.4z M122,57.1
	c0,0,0-0.1,0.1-0.1C122,57,122,57,122,57.1z M133.7,59C133.7,59,133.7,59,133.7,59C133.8,59,133.8,59,133.7,59
	C133.8,59,133.8,59,133.7,59z M159,55c-0.2-0.5-0.5-0.9-0.9-1.3c-0.3-0.4-0.7-0.7-1.1-0.9c0,0,0,0,0,0c0,0,0,0,0,0l-0.1-0.1
	c-0.3-0.2-0.6-0.3-0.9-0.4c-0.3-0.1-0.7-0.2-1.3-0.2l-0.2,0c-0.2,0-0.4,0-0.6,0.1c-0.3,0.1-0.5,0.1-0.6,0.2c-0.1-0.4-0.3-0.8-0.5-1
	c-0.2-0.3-0.6-0.4-1.2-0.5c-0.6,0-0.9,0.1-1.1,0.3s-0.3,0.5-0.3,0.9c0,0.9,0,1.8,0,2.6c0,0.3,0,0.6,0,1c-0.7,0.3-1.3-0.1-1.9-0.6
	c-0.2,0.1-0.5,0.2-0.7,0c-0.4,0-0.8-0.1-1.2-0.2l0-0.3c0-0.6,0-1.1-0.1-1.4c-0.1-0.3-0.2-0.6-0.3-0.7c-0.1-0.2-0.3-0.3-0.5-0.4
	c-0.2-0.1-0.4-0.2-0.7-0.3c-0.6,0-1.1,0.2-1.5,0.5c-0.5,0.3-0.9,0.6-1.2,1c-0.3,0.4-0.7,0.8-0.9,1.3c0,0,0,0,0,0
	c-0.2,0-0.5,0-0.7-0.1c-0.6,0-1.3,0.1-1.9,0.2c0-0.2-0.1-0.3-0.1-0.5c-0.1-0.3-0.1-0.7-0.2-1.1c0-0.4-0.1-0.8-0.2-1.1
	c-0.1-0.3-0.3-0.5-0.4-0.7c0,0,0.1-0.1,0.1-0.2c0,0.1,0,0.2,0,0.3c0.1,0.1,0.1-0.3,0.1-0.2c0,0,0.1,0.2,0,0.2c0-0.2,0.1-0.2,0.2-0.2
	c0,0.1,0,0.2,0.1,0.3c0.4,0,0.7,0.1,1.1-0.3c0.1,0.4-0.1,0.2,0,0.5c0-0.3,0.1-0.1,0.2-0.2l0,0c0-0.1,0.1,0.1,0.1,0l0-0.1
	c0.1-0.2,0.1,0.4,0.1,0l0,0.2c0.1-0.4,0.1,0.1,0.1-0.2l0,0.1c0.1,0.2,0.2-0.4,0.2-0.1c0.1-0.1,0.2-0.1,0.2-0.4c0,0.1,0,0.3,0,0.4
	c0.3-0.1,0.6-0.1,0.8-0.5c0,0.1,0,0.1,0,0.2c0.2-0.3,0.3,0.4,0.4-0.3l0-0.3c0,0.1,0,0.3,0.1,0.4c0-0.2,0.1,0,0.2-0.3
	c0,0.1,0,0.1,0,0.2c0.1,0.1,0.2-0.3,0.2-0.2l0,0.1c0.4,0.5,0.8,0.8,1.1,0.2c0.1-0.1,0,0.3,0.1,0.3c0.3-0.5,0.7,0.3,0.9-0.5
	c0.2-0.2,0.3-1,0.3-1c-0.5,0.3-1,0-1.5-0.5c-0.2,0.1-0.4,0.2-0.6,0.1c-0.7,0.1-1.3-0.6-2-0.3c0,0.1,0,0.3,0,0.3l0-0.1l-0.1,0.2
	c-0.1,0,0-0.2,0-0.3c-0.3,0-0.5,0.1-0.8,0c0,0.3-0.1,0-0.1,0.3c0-0.1,0-0.1,0-0.1c-0.2,0.2-0.2,0.2-0.4-0.2c-0.7-0.3-1.4,0-2.1-0.1
	c-0.7,0.1-1.4,0.3-2.1,0.4c-0.1,0.5-0.3,0.3-0.4,0.7l0-0.2c-0.1,0.2-0.1,0-0.3-0.2c0,0.2-0.1,0,0,0.3c0,0.2-0.1-0.4-0.2-0.3
	c0-0.1,0,0.2,0,0.1c-0.2,0.4,0-0.2-0.2-0.4c-0.3,0.1-0.7,0.4-1,0.2c0,0,0,0.2,0,0.2c0-0.5-0.1,0.1-0.2-0.1c0-0.1,0-0.1,0-0.2
	c-0.1-0.2-0.3,0.1-0.4-0.1c-0.1,0.2-0.3-0.2-0.4,0c0-0.2-0.1-0.1-0.1-0.2c-0.1,0.6-0.2-0.2-0.4,0.2l0-0.1c-0.3,0-0.7-0.1-1.1,0.2
	c-0.2,0.1-0.4-0.4-0.7-0.2c0,0.1,0,0.2,0,0.2c-0.1,0,0-0.2,0-0.2c-0.1,0.2-0.3,0-0.4,0c0,0.1-0.1,0.1,0,0.2
	c-0.2-0.4-0.4,0.1-0.5-0.2c0.1,0.5-0.1,0.3-0.1,0.4c0,0,0-0.2,0-0.2c-0.1,0.1-0.2,0.1-0.3-0.1c-0.1,0.1-0.1,0.3-0.2,0.2
	c0-0.3-0.2,0-0.2-0.1c0,0.3-0.1,0.5-0.2,0.4l0-0.4c-0.2,0.3-0.6-0.2-0.9,0.3l0-0.2c-0.3,0.3-0.6,0-0.9,0.4c-0.1-0.1-0.2-0.2-0.3-0.2
	c-0.1,0.2-0.1,0.2-0.2,0.5c0,0-0.1-0.2-0.1-0.3c-0.1-0.1-0.3-0.4-0.4,0l0-0.2c-0.1,0.2-0.3,0.5-0.4,0.2c0,0.2-0.1,0.2-0.1,0.4
	c0,0,0,0,0,0c0-0.1,0-0.2,0-0.1l0-0.3c-0.3-0.1-0.5,0.1-0.7,0.2c-0.1-0.3-0.2,0-0.4-0.2c-0.1,0.2-0.2-0.1-0.3,0.4l0-0.2
	c-0.1,0-0.3,0-0.4-0.1c-0.1-0.1-0.1,0.2-0.2,0.3l0-0.2c-0.1,0.1-0.1,0.4-0.1,0.6c-0.1-0.1-0.1,0-0.1-0.1c0.1-0.1,0.1-0.3,0.1-0.6
	c-0.1-0.1-0.2,0.4-0.2,0.1c-0.1-0.1-0.1,0-0.1,0.3c0-0.1,0-0.2,0-0.3c-0.1,0-0.1,0-0.1,0.1c0,0,0,0,0,0c0,0.2-0.1,0.2-0.1,0.5
	c0-0.1,0-0.1,0.1-0.1c0,0.2-0.1,0.3-0.1,0.1c0-0.2,0.1-0.4,0-0.5l-0.2,0.5c0-0.2,0.1,0,0.1,0.2l0.1-0.1l0,0.2c0.1-0.1,0.2,0.1,0.3,0
	l0-0.2c0.1,0,0.1-0.3,0.2-0.1c0,0.1,0,0.2,0,0.3c0,0,0-0.1,0-0.1l0,0.4c0-0.5,0.2-0.2,0.2-0.3l0,0.1c0.1,0.2,0-0.2,0-0.2
	c0.1,0.1,0,0.4,0.1,0.6c0.1,0,0.3-0.3,0.4,0c0.1-0.1,0.2-0.2,0.3-0.4c0.1,0,0,0.4,0.1,0.2c0,0.1,0,0.3,0,0.4c0-0.2,0.1,0,0.1-0.3
	c0,0,0.1,0,0.1,0c0,0.2,0,0.5,0,0.7l0,0c0,0,0,0,0,0c0,0.8,0,1.5,0.1,2.3c0,0.1,0,0.1,0,0.2c-0.1,0-0.2,0.1-0.3,0.1
	c-0.1-0.4-0.3,0-0.5-0.2c-0.1,0.2-0.3-0.1-0.4,0.3l0-0.2c-0.1,0-0.3,0-0.5-0.1c-0.1-0.1-0.1,0.2-0.2,0.3l0-0.2
	c-0.1,0.1-0.1,0.4-0.2,0.6c-0.1-0.1-0.1,0-0.2-0.1c0.1-0.1,0.1-0.3,0.2-0.6c-0.1-0.1-0.3,0.4-0.3,0.1c-0.1-0.1-0.2,0-0.2,0.3
	c0-0.1-0.1-0.2,0-0.3c-0.1,0-0.1,0-0.2,0.1c0,0,0,0,0,0c0,0.2-0.1,0.2-0.1,0.5c0-0.1,0-0.1,0.1-0.1c0,0.2-0.2,0.3-0.2,0.1
	c0-0.2,0.1-0.4,0-0.5l-0.2,0.5c0.1-0.2,0.1,0,0.1,0.2l0.1-0.1l0,0.2c0.1-0.1,0.2,0.2,0.4,0l0-0.2c0.1,0,0.2-0.3,0.2,0
	c0,0.1,0,0.2,0,0.3c0,0,0-0.1,0.1-0.1l-0.1,0.4c0.1-0.5,0.2-0.2,0.3-0.3l0,0.1c0.1,0.2,0-0.2,0.1-0.2c0.1,0.1,0,0.4,0.1,0.6
	c0.1,0,0.4-0.3,0.5,0c0,0,0,0,0,0l0,0.1l0.4,0c0,0,0,0.1,0,0.1c0-0.1,0.1-0.1,0.1-0.1l0.4,0c0,0.1,0,0.2,0,0.2
	c0-0.1,0.1-0.2,0.1-0.2l0.4,0c-0.1,0.3-0.2-0.1-0.2,0.3c-0.1,0.3-0.3,0.3-0.3,0.1c-0.1,0.3,0.1,0,0,0.4c0.1,0,0.1-0.2,0.3-0.2
	c0-0.2,0-0.2,0-0.3c0.1-0.4,0.1,0.3,0.2,0.3c0,0,0,0.1-0.1,0.1c0,0,0,0,0.1,0c0,0,0,0.1,0,0.1c0,0,0,0-0.1,0.1l0,0.3c0,0,0,0,0,0
	c0,0,0,0,0,0c0,0.4,0,0.7,0.1,1.1c0.1,0.4,0.1,0.7,0.1,1.1c0,0,0,0,0,0c0,0-0.1,0-0.1,0c-0.1-0.3-0.3,0-0.5-0.1
	c-0.1,0.2-0.3-0.1-0.4,0.4l0-0.2c-0.1,0-0.3,0-0.5-0.1c-0.1-0.1-0.1,0.2-0.2,0.4l0-0.2c-0.1,0.1-0.1,0.4-0.1,0.6
	c-0.1-0.1-0.1,0-0.2-0.1c0.1-0.1,0.1-0.3,0.2-0.6c-0.1-0.1-0.2,0.4-0.3,0.1c-0.1-0.1-0.2,0-0.2,0.3c0-0.1-0.1-0.2,0-0.3
	c-0.1,0-0.1,0-0.1,0.1c0,0,0,0,0,0c0,0.2-0.1,0.2-0.1,0.5c0-0.1,0-0.1,0.1-0.1c0,0.2-0.1,0.3-0.2,0.1c0-0.2,0.1-0.4,0-0.5l-0.2,0.5
	c0-0.2,0.1,0,0.1,0.2l0.1-0.1l0,0.2c0.1-0.1,0.2,0.1,0.3,0l-0.1-0.2c0.1,0,0.2-0.3,0.2-0.1c0,0.1,0,0.2,0,0.3c0,0,0-0.1,0.1-0.1
	l0,0.4c0-0.5,0.2-0.2,0.2-0.3l0,0.1c0.1,0.2,0-0.2,0.1-0.2c0.1,0.1,0,0.4,0.1,0.6c0.1,0,0.3-0.3,0.4,0c0.1-0.1,0.2-0.2,0.3-0.4
	c0.1,0,0,0.4,0.1,0.2c0,0.1,0,0.3,0,0.4c0-0.2,0.2,0,0.1-0.3c0.1,0.1,0.3,0.1,0.4,0c0,0-0.1,0.3,0,0.4c0.1-0.2,0.2-0.4,0.3-0.3
	c0-0.2,0-0.3,0-0.5c0,0.1,0,0.3,0.1,0.4c0,0.1,0.1,0.2,0.1,0.3c0,0.1-0.2-0.1-0.1,0.2c0,0.3-0.2,0.3-0.3,0.1c-0.1,0.3,0.1,0,0.1,0.4
	c0.1,0,0.1-0.2,0.3-0.3c0-0.2,0-0.2,0-0.3c0-0.1,0.1-0.1,0.1-0.1c0,0,0,0.1,0.1,0.1c0,0.1,0,0.2,0.1,0.3c0,0,0,0.1-0.1,0.1
	c0.1,0.1,0.1-0.1,0.2-0.1c0,0,0,0,0,0c0,0.4-0.1,0-0.2,0.3l0.1,0.3c0.1,0,0-0.4,0.2-0.3l0,0.2l0.1-0.1c0-0.1,0-0.2,0-0.3
	c0,0,0,0,0,0c0,0,0.1,0.1,0.2,0.1c0,0.1,0,0.1,0,0.2c0.1,0.1,0.1,0,0.1-0.1c0.2,0.1,0.3,0.2,0.5,0.2c0.3,0.1,0.6,0.1,1,0.1
	c0.2-0.2,0.3-0.3,0.4-0.5c0,0,0,0.1,0,0.1c0-0.3,0.1,0.2,0.2-0.2c0,0,0-0.1,0-0.1c0-0.1,0.1-0.2,0.1-0.2c0,0.1,0,0.2,0,0.3
	c0-0.1,0.1-0.3,0-0.5c0.1,0.1,0.1-0.3,0.2-0.1c0,0.2-0.1,0.1-0.1,0.3c0.1,0,0.1-0.6,0.2-0.7c-0.1-0.1,0-0.6,0-0.7
	c0.1,0.1-0.1,0.1,0,0.4l0.1,0c0.1,0.4-0.2,0.7-0.1,1l0.1-0.1c0,0.1,0,0.3,0,0.4c0-0.3,0.1-0.1,0.2-0.1c0-0.2,0,0.1,0-0.1
	c0.1-0.1,0.1-0.5,0.2-0.3c-0.1,0.2,0,0.3,0,0.5c0.1,0.1,0-0.3,0.1-0.2l0,0.1c0.3,0,0.6,0,0.8-0.6c0,0.2,0.1,0.3,0.3,0.4
	c-0.1-0.1,0-0.3,0-0.3l0.1,0.3c0.1,0.2,0.2-0.1,0.2-0.3c0,0.1,0,0.1,0,0.2c0.1,0.2,0.1-0.2,0.1-0.2l0,0.2l0-0.2
	c0.1-0.1,0.2-0.1,0.2,0.3c0-0.1,0.1-0.1,0-0.2c0,0.1,0.1,0.1,0.2,0.1c0.1,0.1,0.1,0.3,0.2,0.4c0.1,0.2,0.2,0.3,0.4,0.4
	c0.2,0.1,0.3,0.2,0.5,0.2c0.6,0,1-0.1,1.3-0.4c0.2-0.2,0.4-0.6,0.6-1c0,0,0,0.1,0,0.1l0.1-0.3c0,0,0.1,0,0.1,0.2
	c0.2,0.1,0.2-0.7,0.3-0.5c0,0.3,0,0.3,0.1,0.4c0,0,0-0.1,0-0.2c0-0.1,0,0.2-0.1,0c0-0.2,0.1-0.1,0.1-0.2c0.1,0.6,0.4,0.1,0.6,0.4
	c0-0.4,0.1-0.1,0.1-0.2c0,0.4,0.1-0.1,0.2,0.2l0-0.4c0.1,0.2,0.2-0.6,0.3-0.1c0.1,0.1,0,0.3,0,0.3c0.1,0.4,0.2-0.3,0.3,0.1
	c0-0.1,0-0.4,0-0.5c0.1,0.2,0.2,0.3,0.2,0.4c0-0.1,0.1-0.2,0.1-0.1c0,0.1,0,0.1,0,0.2c0.1,0.1,0.2-0.1,0.2-0.2
	c0.1,0.3,0.2,0.1,0.3,0.3c0.1-0.3,0.2,0.1,0.2-0.3c0,0,0,0.1,0,0.1c0-0.1,0.1-0.4,0.1-0.4l0,0.3c0,0.4,0.1,0.1,0.2,0.3
	c0-0.2,0.1,0,0.1-0.2l0.1-0.1c0.1-0.1,0-0.1,0.1-0.2c0.1,0,0,0.3,0,0.3c0.1,0.2,0.1,0.1,0.2,0c0,0,0,0,0-0.1c0,0,0,0.1,0,0.1
	c0,0,0,0,0.1,0c0,0,0,0,0,0c0,0,0,0-0.1,0c0,0,0,0,0.1,0c0,0,0,0,0,0c0,0,0,0,0,0.1l0,0.2c0,0,0.1-0.3,0.1-0.4
	c0.2,0.2,0.5,0,0.5-0.1c0,0-0.1,0.2,0,0.1c0.1,0,0.1-0.2,0.1-0.1c0-0.1,0.1,0.2,0.1,0.2c0,0,0-0.2,0-0.2c0.1,0.2,0.2,0.1,0.2,0
	c0,0.2,0.1,0.5,0.1,0.7c0.1,0.5,0.3,0.8,0.5,1.1c0.2,0.3,0.5,0.5,0.9,0.5c0.3,0,0.6,0,0.8-0.2c0.2-0.4,0.4-0.7,0.5-1
	c0.1-0.3,0.2-0.6,0.3-1c0.1-0.3,0.2-0.6,0.3-1c0,0,0-0.1,0-0.1c0,0,0.1,0.1,0.2-0.1c0,0.1,0,0.1,0,0.2c0.1-0.1,0.2,0,0.3-0.3
	c0,0.1,0,0.2,0,0.3c0.1,0.1,0.1-0.3,0.2-0.2c0,0,0.1,0.2,0.1,0.2c0-0.2,0.2-0.2,0.2-0.2c0,0.1,0,0.2,0.1,0.3c0.4,0,0.9,0,1.3-0.3
	c0.1,0.4-0.1,0.2,0,0.5c0-0.3,0.1-0.1,0.2-0.2l0,0c0.1-0.1,0.1,0.1,0.2,0l0-0.1c0.1-0.2,0.2,0.4,0.2,0l0.1,0.2
	c0.1-0.4,0.1,0.1,0.2-0.2l0,0.1c0.1,0.2,0.2-0.4,0.3-0.1c0.1-0.1,0.2-0.1,0.2-0.4c0,0.1,0,0.3,0,0.4c0.1-0.1,0.2-0.1,0.4-0.1
	c0,0.4,0.1,0.8,0.2,1.2c0.1,0.6,0.3,1,0.5,1.5c0.2,0.4,0.6,0.6,1,0.7c0.4,0,0.8-0.1,1.1-0.3c0.3-0.2,0.5-0.6,0.5-1.1
	c0-0.5-0.1-0.9-0.3-1.4c-0.1-0.2-0.2-0.4-0.2-0.6c0.1,0,0.2-0.1,0.3-0.3c0.1-0.1,0,0.3,0.1,0.3c0.4-0.5,0.8,0.3,1.1-0.5
	c0.3-0.2,0.3-1,0.3-1c-0.6,0.3-1.2,0-1.8-0.5c-0.1,0-0.2,0.1-0.3,0.1c0-0.4-0.1-0.7-0.1-1l2,0.1l0-0.6l-2.1-0.1c0-0.1,0-0.3,0-0.4
	c0,0,0,0,0-0.1l0.1-0.3c0,0.1,0,0.3,0.1,0.4c0-0.2,0.2,0,0.2-0.3c0,0.1,0,0.1,0,0.2c0.1,0.1,0.2-0.3,0.3-0.2l0,0.1
	c0.4,0.5,1,0.9,1.4,0.3c0.1-0.1,0,0.4,0.1,0.3c0.4-0.5,0.9,0.3,1.2-0.4c0.2-0.1,0.3-0.6,0.4-0.9c0,0.5,0,1,0,1.5
	c0,1.1-0.1,2.1-0.1,3c0,0.9,0,1.8-0.1,2.7c0,1.2-0.1,2.4-0.2,3.5c-0.1,1.1-0.1,2.2-0.2,3.4c0,0.4,0,0.7,0,1.1s0,0.7,0,1.1
	c0,0.1,0,0.3-0.1,0.4c0,0.1,0,0.3,0,0.4c0,0.3,0.1,0.7,0.4,0.9c0.3,0.3,0.6,0.4,0.9,0.4c0.3,0,0.6-0.1,0.8-0.2
	c0.2-0.2,0.4-0.4,0.5-0.6c0.1-0.3,0.2-0.5,0.3-0.8s0.1-0.5,0.1-0.7c0-0.5,0-0.9-0.1-1.5c-0.1-0.5-0.1-1.1,0-1.7l0.1-3.8
	c0-0.6,0-0.9,0-1.1c0-0.2,0-0.3,0.1-0.4c0.1,0,0.2,0.1,0.3,0.1c0.1,0,0.2,0,0.3,0c1,0,1.9-0.1,2.7-0.4s1.4-0.8,1.9-1.3
	c0.5-0.5,0.9-1.1,1.2-1.8c0.3-0.7,0.4-1.3,0.4-1.9c0-0.5,0-1-0.2-1.5S159.2,55.5,159,55z M123,56C123,56,123,56,123,56
	C123,56,123,56,123,56L123,56z M129.5,57.5c0,0.1,0,0.2,0,0.5c0,0.3-0.1,0.5-0.1,0.8c0,0.2,0,0.4-0.1,0.6c0,0-0.1,0-0.1,0
	c0,0,0-0.1,0-0.2c-0.1,0.1-0.2,0.1-0.4-0.1c-0.1,0.1-0.1,0.3-0.2,0.2c-0.1-0.3-0.2,0-0.3-0.1c0,0.3-0.1,0.5-0.2,0.4l0-0.4
	c-0.3,0.3-0.7-0.2-1.1,0.3l0-0.2c-0.2,0.2-0.5,0.1-0.7,0.2c-0.1-0.5-0.1-1.1-0.2-1.6c0-0.2,0-0.4,0-0.6c0,0,0-0.1,0-0.1
	c0.1,0,0,0.2,0,0.3c0-0.1,0.1-0.3,0.1-0.5c0.1,0.1,0.1-0.3,0.2,0c0,0.2-0.1,0.1-0.1,0.3c0.1,0,0.1-0.2,0.1-0.5l0.2,0
	c-0.1,0.2-0.1,0.3-0.1,0.5l0.1-0.1c0,0.1,0,0.3,0,0.4c0-0.3,0.2-0.1,0.2-0.1c0-0.2-0.1,0.1,0-0.1c0.1-0.1,0.1-0.5,0.2-0.3
	c-0.1,0.2,0,0.3,0,0.5c0,0.1,0-0.3,0.1-0.2l0,0.1c0.3,0.1,0.6,0,0.9-0.5c0,0.2,0.1,0.3,0.3,0.5c-0.1-0.1,0-0.3,0-0.3l0.1,0.3
	c0.1,0.2,0.2-0.1,0.3-0.3c0,0.1,0,0.1,0,0.2c0.1,0.2,0.1-0.2,0.1-0.2l0,0.2l0-0.2c0.1-0.1,0.2-0.1,0.1,0.3c0-0.1,0.1-0.1,0-0.2
	c0.1,0.2,0.3,0.2,0.4,0.1c-0.1-0.1,0-0.2,0-0.4c0,0,0,0,0-0.1l0.1,0c0,0.1,0,0.2,0,0.3c0.1,0.2,0.1,0.2,0.2,0.2
	C129.5,57.4,129.5,57.5,129.5,57.5z M126.5,56.2c0-0.1,0-0.2,0.1-0.3C126.7,56,126.6,56,126.5,56.2L126.5,56.2z M129.4,54.3
	c0.1,0.5-0.1,0.3-0.2,0.4c0,0,0-0.2,0-0.2c-0.2,0.1-0.2,0.1-0.4-0.1c-0.1,0.1-0.1,0.3-0.2,0.2c0-0.3-0.2,0-0.3-0.2
	c0,0.3-0.1,0.5-0.2,0.4l0-0.4c-0.3,0.2-0.8-0.2-1.2,0.3l0-0.2c-0.3,0.2-0.7,0-1,0.2c0-0.7,0-1.3,0-1.9c0,0,0-0.1,0-0.1
	c0,0,0-0.1,0-0.1c0,0,0,0,0,0c0-0.1,0-0.1,0-0.2c0,0,0-0.1,0-0.1c0.1,0,0,0.2,0,0.3c0-0.1,0.1-0.3,0-0.5c0,0.1,0.1-0.3,0.2,0
	c0,0.2-0.1,0.1-0.1,0.3c0.1,0,0.1-0.6,0.2-0.7c0-0.1,0-0.6,0-0.7c0.1,0.1-0.1,0.1,0,0.4l0,0c0.1,0.4-0.1,0.7-0.1,1l0.1-0.1
	c0,0.1,0,0.3,0,0.4c0-0.3,0.1-0.1,0.1-0.1c0-0.2,0,0.1,0-0.1c0.1-0.1,0.1-0.5,0.2-0.3c0,0.2,0,0.3,0,0.5c0,0.1,0-0.3,0.1-0.2l0,0.1
	c0.2,0,0.5,0,0.7-0.6c0,0.2,0.1,0.3,0.2,0.4c0-0.1,0-0.3,0-0.3l0.1,0.3c0.1,0.2,0.1-0.1,0.2-0.3c0,0.1,0,0.1,0,0.2
	c0.1,0.2,0.1-0.2,0.1-0.2l0,0.2l0-0.2c0.1-0.1,0.1-0.1,0.1,0.3c0-0.1,0-0.1,0-0.2c0.1,0.2,0.2,0.2,0.3,0.1c0-0.1,0-0.2,0-0.4
	c0-0.3,0,0.1,0.1-0.1c0,0.1,0,0.3,0,0.3c0.1,0.4,0.3,0.1,0.5,0.2c0-0.1,0-0.1,0-0.2c0.1,0.3,0.2,0,0.3,0.1c0-0.1,0-0.5,0.1-0.6
	c0-0.1,0-0.1,0,0c0,0,0,0.1,0,0.1c0,0.2,0,0.5,0.1,0.7c0.1,0.2,0.1,0.4,0.1,0.7c0,0.2,0,0.3,0,0.3c0,0,0,0.1,0.1,0.3
	c0,0.1,0,0.3,0,0.6C129.5,54.4,129.5,54.4,129.4,54.3z M136,50.6C136,50.7,136,50.7,136,50.6C136,50.7,135.9,50.7,136,50.6
	C135.9,50.7,136,50.6,136,50.6z M135.8,50.7C135.8,50.7,135.8,50.7,135.8,50.7C135.8,50.7,135.8,50.7,135.8,50.7
	C135.8,50.7,135.8,50.7,135.8,50.7z M135.5,54.3c0.1,0.1,0.1,0.3,0.2,0.4c-0.2,0.1-0.5,0.1-0.7,0.1
	C135.1,54.6,135.3,54.4,135.5,54.3z M131.8,51.7C131.8,51.6,131.8,51.6,131.8,51.7c0.1,0.1,0.1,0.1,0.1,0.2
	C131.8,51.8,131.8,51.7,131.8,51.7z M132.7,54.4c-0.2,0-0.5,0-0.7,0c0-0.3,0.1-0.5,0.1-0.7c0-0.3,0-0.6,0-0.9c0-0.3-0.1-0.5-0.1-0.7
	c0.1-0.1,0.1-0.2,0.1,0c0-0.1,0-0.4,0-0.5c0,0.2,0.1,0.4,0.1,0.4c0-0.1,0.1-0.2,0.1-0.1c0,0.1,0,0.1,0,0.2c0.1,0.1,0.1-0.1,0.2-0.2
	c0,0.3,0.2,0.1,0.2,0.3c0-0.3,0.1,0.1,0.1-0.3c0,0,0,0.1,0,0.1c0-0.1,0.1-0.4,0.1-0.4l0,0.3c0,0.4,0.1,0.1,0.1,0.3c0-0.2,0,0,0-0.2
	l0-0.1c0.1-0.1,0-0.1,0.1-0.2c0.1,0,0,0.3,0,0.3c0,0.2,0.1,0.1,0.1,0c0,0,0,0,0-0.1c0,0,0,0.1,0,0.1c0,0,0,0,0,0c0,0,0,0,0,0
	c0,0,0,0,0,0c0,0,0,0,0,0c0,0,0,0,0,0c0,0,0,0,0,0.1l0,0.2c0,0,0.1-0.2,0.1-0.3c0.1,0.2,0.4,0,0.4-0.1c0,0,0,0.2,0,0.1
	c0,0,0.1-0.2,0.1-0.1c0-0.1,0,0.2,0.1,0.2c0,0,0-0.2,0-0.2c0,0.1,0.1,0.1,0.1,0.1c-0.1,0.1-0.1,0.1-0.2,0.2
	c-0.2,0.2-0.4,0.5-0.6,0.8c-0.2,0.3-0.4,0.6-0.6,1C132.8,54.1,132.7,54.3,132.7,54.4z M136.4,59.6l0-0.2c-0.1,0.2-0.2,0-0.4-0.2
	c0,0.2-0.1,0,0,0.3c-0.1,0.2-0.1-0.4-0.2-0.3c0-0.1,0,0.2,0,0.1c-0.2,0.4,0-0.2-0.3-0.4c-0.4,0.1-0.8,0.4-1.2,0.2c0,0,0,0.2,0,0.2
	c0-0.5-0.1,0.1-0.2-0.1c0-0.1,0-0.1,0.1-0.2c-0.2-0.2-0.3,0.1-0.5-0.1c-0.2,0.2-0.3-0.2-0.4,0c0-0.2-0.1-0.1-0.1-0.2
	c0,0.2-0.1,0.2-0.1,0.2c0,0,0-0.1,0-0.1c0.1-0.3,0.2-0.6,0.4-1c0.1-0.2,0.2-0.4,0.2-0.6l0,0l0,0c0-0.1,0-0.1,0.1-0.2l0.1,0
	c0,0.1-0.1,0.1-0.1,0.2c0.1,0.4,0.3-0.3,0.3,0.1c0-0.1,0-0.2,0-0.3l0.2,0c0,0.1,0.1,0.2,0.1,0.2c0.1-0.1,0.1-0.2,0.1-0.1
	c0,0.1,0,0.1-0.1,0.1c0.1,0.1,0.2-0.1,0.3-0.2c0,0.3,0.2,0.1,0.3,0.3c0.1-0.3,0.2,0.1,0.2-0.3c0,0,0,0.1,0,0.1c0,0,0-0.1,0.1-0.2
	l0.1,0l0,0.1c0,0.4,0.1,0.1,0.1,0.3c0-0.3,0.1,0,0.1-0.2l0.1-0.1l0.2,0c0,0.1,0,0.1,0,0.1c0.1,0.2,0.1,0.1,0.2,0c0,0,0,0,0-0.1
	c0,0,0,0.1,0,0.1c0,0,0,0,0.1,0c0,0,0,0,0,0c0,0,0,0-0.1,0c0,0,0,0,0.1,0c0,0,0,0,0,0c0,0,0,0,0,0.1l0,0.2c0,0,0.2-0.2,0.2-0.3
	c0,0,0.1,0.1,0.1,0.1c0,0.2,0.1,0.5,0.1,0.7c0.1,0.4,0.1,0.8,0.1,1.2C136.5,59.3,136.5,59.4,136.4,59.6z M137.4,51.1
	C137.4,51.1,137.4,51.1,137.4,51.1C137.4,51.1,137.4,51,137.4,51.1C137.4,51.1,137.4,51.1,137.4,51.1z M139.2,56.1
	c0,0.1,0.2-0.1,0.2-0.1c0,0.2,0,0-0.1,0.1l0.1,0.2c-0.1,0,0,0.1,0,0.2l-0.4,0C139.1,56.5,139.1,56.3,139.2,56.1z M138.9,56.6
	L138.9,56.6c0,0,0-0.1-0.1-0.1l0.1-0.2C138.8,56.4,138.9,56.5,138.9,56.6z M139.4,57.7c-0.1,0.2-0.2,0.4-0.2,0.6
	c-0.1-0.3-0.1-0.7-0.2-1l0.6,0C139.5,57.4,139.4,57.6,139.4,57.7z M139.8,56.6L139.8,56.6C139.8,56.6,139.9,56.6,139.8,56.6
	C139.9,56.6,139.8,56.6,139.8,56.6z M139.9,56.5c0,0,0-0.1,0-0.1c0,0,0,0,0,0C139.9,56.5,139.9,56.5,139.9,56.5z M143.5,54.8
	C143.5,54.9,143.5,54.9,143.5,54.8c0,0.1,0,0.1-0.1,0.1C143.4,54.9,143.4,54.9,143.5,54.8z M143.5,56.6c0,0.1,0,0.2,0,0.2l-0.5,0
	C143.1,56.7,143.3,56.7,143.5,56.6z M143.8,58.3c0,0.1,0,0.3,0,0.3l0-0.1l-0.1,0.2c-0.1,0,0-0.2,0-0.3c-0.3,0-0.6,0.1-1,0
	c0,0.3-0.2,0-0.2,0.3c0-0.1,0-0.1,0-0.1c-0.2,0.2-0.2,0.2-0.4-0.2c-0.2-0.1-0.4-0.1-0.7-0.1c0.2-0.3,0.4-0.7,0.6-1l1.7,0.1
	c0,0.2,0,0.4,0,0.6C143.8,58.1,143.8,58.2,143.8,58.3C143.8,58.3,143.8,58.3,143.8,58.3z M155.6,60.4l-0.7,0.4
	c-0.3,0.2-0.7,0.3-0.9,0.3s-0.6,0.1-0.9,0c-0.2,0-0.3-0.2-0.3-0.6c0-0.4,0-0.8,0-1.3l0-1.1c0-0.2,0-0.6,0-1.1c0-0.5,0-1,0-1.4
	c0-0.4,0-0.6,0.1-0.6c0,0,0.1,0,0.1-0.1c0,0,0,0,0.1-0.1c0,0,0.2-0.1,0.3-0.2c0.2-0.1,0.3-0.2,0.5-0.2l0.4-0.1
	c0.4,0.1,0.8,0.2,1.1,0.5c0.3,0.2,0.6,0.5,0.8,0.8c0.2,0.3,0.4,0.7,0.5,1.1c0.1,0.4,0.1,0.8,0.1,1.1
	C156.8,58.9,156.4,59.7,155.6,60.4z M122,56.8c0,0.1,0,0.1,0,0.2C122,57,122,56.9,122,56.8C122,56.8,122,56.7,122,56.8z M123.1,57.4
	c0-0.1,0-0.2-0.1-0.2C123,57.4,123.1,57.2,123.1,57.4z M123,57.7c0.1,0,0.1-0.1,0-0.2C123,57.6,123,57.6,123,57.7z M122.3,57.2
	c0.1,0,0.2-0.1,0.2-0.3L122.3,57.2z M121,60.4C121,60.4,121,60.4,121,60.4C121,60.4,121,60.4,121,60.4z M133.5,61.8L133.5,61.8
	l0-0.1L133.5,61.8z M123.5,62.8c0.1,0,0.1-0.1,0-0.2C123.5,62.7,123.5,62.7,123.5,62.8z M123.7,62.4c0-0.1,0-0.2-0.1-0.2
	C123.6,62.5,123.7,62.3,123.7,62.4z M122.6,61.9c0,0.1,0,0.1,0,0.2C122.6,62.2,122.6,62,122.6,61.9C122.6,62,122.6,61.9,122.6,61.9z
	 M122.6,62.3c0,0,0-0.1,0-0.1C122.6,62.2,122.6,62.2,122.6,62.3z M120.4,55.2C120.4,55.2,120.4,55.2,120.4,55.2
	C120.4,55.2,120.4,55.2,120.4,55.2z M123.1,62l-0.2,0.3C123,62.3,123.1,62.1,123.1,62z M122.7,61.9c0,0.1,0,0.2,0,0.2
	c0,0,0.1,0.3,0.1,0.1c0,0.1,0,0.2,0,0.3C122.8,62.4,122.7,62.1,122.7,61.9C122.7,62,122.7,62,122.7,61.9z M131.9,49.4
	C131.9,49.4,131.9,49.4,131.9,49.4C131.9,49.4,131.9,49.4,131.9,49.4C131.9,49.4,131.9,49.4,131.9,49.4z M135.6,61.6
	C135.6,61.6,135.6,61.6,135.6,61.6C135.6,61.6,135.6,61.6,135.6,61.6C135.6,61.6,135.6,61.6,135.6,61.6z M129.1,59.1
	C129.1,59.1,129.1,59.2,129.1,59.1C129.2,59.2,129.2,59.2,129.1,59.1L129.1,59.1z M203.1,57.6c0-0.5,0-1,0-1.5c0-0.5,0-1,0-1.6
	c0-0.6,0.1-1.3,0.1-1.9c0-0.7,0.1-1.4,0.1-2.2c0-0.6,0.1-1.1,0.2-1.7c0.1-0.6,0.2-1.1,0.2-1.7c0-0.3-0.1-0.5-0.2-0.7
	c-0.1-0.2-0.3-0.3-0.5-0.4c-0.2-0.1-0.4-0.2-0.7-0.2c-0.2,0-0.5,0-0.6-0.1c-0.2,0.2-0.4,0.3-0.5,0.5c-0.1,0.2-0.2,0.4-0.2,0.7
	c0,1.2-0.1,2.4-0.3,3.5s-0.3,2.3-0.3,3.5c0,0.9-0.1,1.8-0.1,2.6c0,0.8,0,1.8-0.1,2.8c0,0.4,0,1,0,1.7c0,0.8,0.1,1.6,0.3,2.3
	c0.1,0.8,0.4,1.5,0.7,2.1c0.3,0.6,0.7,0.9,1.3,0.9c0.3,0,0.6-0.1,0.9-0.2s0.5-0.4,0.5-0.7c0,0,0-0.1,0-0.1c0,0,0-0.1,0-0.1
	c-0.2-0.8-0.3-1.7-0.5-2.7c-0.1-1-0.2-2-0.2-2.8c0-0.3,0-0.6,0-1C203.1,58.3,203.1,58,203.1,57.6z M197.2,55.3
	c-0.2-0.5-0.5-1-0.9-1.3c-0.4-0.4-0.9-0.6-1.5-0.6c-0.3,0-0.7,0-1,0.1c-0.3,0.1-0.6,0.2-0.9,0.4c-0.3,0.1-0.5,0.3-0.6,0.4
	c-0.2,0.1-0.3,0.2-0.3,0.2c-0.6,0.7-1,1.2-1.3,1.6c-0.3,0.4-0.5,0.8-0.7,1.1c0-0.1,0-0.2,0-0.4c0-0.2,0-0.4,0-0.7c0-0.2,0-0.5,0-0.7
	s0-0.3,0-0.4l0.3-3.6c0.1-1.4,0.3-2.7,0.5-3.9s0.4-2.5,0.6-3.9c0-0.2-0.1-0.4-0.3-0.5c-0.2-0.1-0.3-0.1-0.5-0.1c-0.3,0-0.6,0-1,0.1
	c-0.4,0.1-0.6,0.3-0.7,0.6c-0.1,0.4-0.2,0.8-0.3,1.2c-0.1,0.4-0.1,0.8-0.1,1.2c-0.3,2.1-0.6,4-0.7,5.8c-0.1,1.8-0.2,3.6-0.3,5.4
	c0,0.4,0,0.9,0,1.4c0,0.5,0,1,0.1,1.5c0,0.5,0.1,0.9,0.1,1.3c0.1,0.4,0.1,0.6,0.2,0.6c0.1,0.2,0.1,0.5,0.2,0.7
	c0.1,0.3,0.2,0.5,0.3,0.8c0.1,0.2,0.2,0.5,0.3,0.6c0.1,0.2,0.2,0.3,0.4,0.4c0.5,0.2,1,0.3,1.5,0.4c0.5,0.1,1.1,0.2,1.6,0.2
	c0.5,0,1.1-0.1,1.8-0.3c0.7-0.2,1.3-0.5,1.8-1c0.4-0.3,0.7-0.8,0.9-1.3s0.4-1,0.6-1.6c0.1-0.5,0.3-1,0.3-1.5
	c0.1-0.5,0.1-0.8,0.1-1.1c0-0.5,0-1-0.1-1.6C197.5,56.4,197.4,55.8,197.2,55.3z M194.9,58.2c0,0.5-0.1,1-0.2,1.6
	c-0.1,0.6-0.2,1.1-0.4,1.6c-0.2,0.5-0.5,0.9-0.8,1.2c-0.3,0.3-0.8,0.5-1.3,0.6c-0.3,0-0.6,0-0.8-0.1c-0.2-0.1-0.4-0.2-0.7-0.5
	c0-0.4,0.1-0.7,0.2-1c0.1-0.3,0.1-0.6,0.2-0.9c0.1-0.3,0.2-0.5,0.3-0.8c0.1-0.3,0.2-0.6,0.3-0.9l0.1-0.2c0.1-0.3,0.3-0.5,0.5-0.9
	c0.2-0.3,0.5-0.7,0.8-1c0.3-0.3,0.5-0.6,0.8-0.8c0.3-0.2,0.4-0.3,0.6-0.3s0.2,0.1,0.3,0.3c0.1,0.2,0.1,0.4,0.2,0.6
	c0,0.2,0.1,0.5,0.1,0.7C194.9,57.8,194.9,58,194.9,58.2z M121.5,50.6C121.5,50.6,121.5,50.6,121.5,50.6
	C121.5,50.6,121.5,50.6,121.5,50.6z M128.2,49.4C128.2,49.5,128.2,49.5,128.2,49.4C128.2,49.5,128.2,49.5,128.2,49.4L128.2,49.4z
	 M207.5,38.1c0.2-1,0.3-2,0.3-3.1c0.1-2.1,0.1-4.1,0.1-5.7c0-1.7,0-3.3,0-4.8c0-0.5,0-1-0.1-1.5c-0.1-0.5-0.1-0.9-0.1-1.4
	c-0.3-0.1-0.6-0.2-0.8-0.2c-0.2,0-0.4-0.1-0.6-0.1c-0.1,0-0.2,0.1-0.3,0.1c-0.1,0-0.2,0-0.3,0.1l-0.2-0.4c-0.2-0.1-0.3-0.1-0.5-0.2
	c-0.2,0-0.3-0.1-0.5-0.1c-0.9,0-1.7,0.3-2.5,0.9c-0.7,0.6-1.4,1.4-1.9,2.3c-0.5,0.9-1,1.8-1.4,2.7c-0.4,0.9-0.7,1.6-0.8,2.1
	c0,0.1,0,0.2,0,0.3c0,0.4,0.1,0.8,0.2,1.1c0.1,0.3,0.3,0.6,0.6,0.9c0.2,0.3,0.5,0.5,0.8,0.7c0.3,0.2,0.6,0.4,0.9,0.5
	c0.7-0.1,1.2-0.2,1.7-0.4c0.5-0.2,0.9-0.5,1.3-0.8c0.4-0.3,0.7-0.7,0.9-1c0.3-0.4,0.5-0.8,0.7-1.2c0,0.5,0.1,1,0.1,1.5
	c0,0.5,0,0.9,0,1.3c0,0.4,0,0.9,0,1.3c0,0.4,0,0.9-0.1,1.4c-0.1,1.7-0.3,3.1-0.6,4c-0.3,0.9-0.7,1.6-1.1,2.1
	c-0.4,0.5-0.8,0.8-1.2,1.1c-0.4,0.3-0.7,0.6-0.9,1c0.1,0.5,0.2,0.7,0.5,0.8c0.2,0.1,0.5,0.2,0.8,0.3c0.6,0,1.2-0.2,1.6-0.4
	c0.4-0.2,0.7-0.5,1-0.7c0.3-0.3,0.5-0.6,0.6-0.8c0.2-0.3,0.3-0.5,0.5-0.7C207,40.1,207.3,39.1,207.5,38.1z M205,23.4
	c-0.1,0.2-0.1,0.5-0.1,0.7c-0.3,0.8-0.5,1.5-0.9,2.2c-0.3,0.7-0.6,1.3-1,1.8c-0.3,0.5-0.7,1-1,1.3c-0.3,0.3-0.7,0.5-1,0.5
	c-0.4-0.1-0.6-0.3-0.6-0.6c0-0.4,0.1-0.8,0.3-1.2c0.2-0.4,0.3-0.8,0.6-1.2s0.4-0.8,0.7-1.2c0.2-0.4,0.5-0.8,0.6-1.1
	c0.2-0.2,0.3-0.4,0.5-0.6c0.2-0.2,0.3-0.4,0.5-0.6c0.2-0.2,0.4-0.3,0.6-0.5c0.2-0.1,0.5-0.2,0.9-0.2C205.1,22.9,205.1,23.2,205,23.4
	z M188.5,30.8c0-1-0.1-2-0.4-2.8c-0.3-0.8-0.7-1.7-1.1-2.5l-0.1-0.3c-0.1-0.1-0.2-0.3-0.3-0.6c-0.1-0.3-0.3-0.6-0.4-0.9
	c-0.1-0.3-0.2-0.6-0.3-0.9c-0.1-0.3-0.1-0.5-0.1-0.7l0-0.8c0-0.4,0.1-0.9,0.2-1.3c0.1-0.4,0.3-0.8,0.6-1.1c0.1-0.1,0.2-0.2,0.3-0.3
	c0.1-0.1,0.2-0.2,0.2-0.4c-0.1-0.2-0.2-0.4-0.3-0.6c-0.1-0.2-0.3-0.3-0.5-0.4c-0.1,0-0.1,0-0.2,0c-0.1,0-0.1,0-0.2,0
	c-0.6,0-1,0.1-1.4,0.4c-0.4,0.3-0.7,0.7-0.9,1.1c-0.2,0.5-0.4,1-0.5,1.5c-0.1,0.5-0.2,1.1-0.2,1.6c0,0.6,0.1,1.2,0.3,1.9
	c0.2,0.6,0.5,1.3,0.8,2s0.7,1.4,1,2.2s0.6,1.7,0.8,2.7c0,0,0,0.2,0,0.3c0,0.5-0.2,0.9-0.5,1.2c-0.3,0.3-0.6,0.5-1,0.4
	c-0.3,0-0.5-0.1-0.8-0.4c-0.3,0.1-0.4,0.1-0.5,0.2s-0.2,0.2-0.3,0.4c0,0.5,0.2,0.9,0.6,1.2c0.4,0.4,0.8,0.6,1.2,0.6
	c0.5,0,1-0.1,1.5-0.3s0.9-0.5,1.2-0.8c0.3-0.4,0.6-0.8,0.8-1.2C188.3,31.9,188.4,31.4,188.5,30.8z"/>
</svg>
