<?xml version="1.0" encoding="utf-8"?>
<!-- Generator: Adobe Illustrator 27.0.1, SVG Export Plug-In . SVG Version: 6.00 Build 0)  -->
<svg version="1.1" id="Capa_1" xmlns="http://www.w3.org/2000/svg" xmlns:xlink="http://www.w3.org/1999/xlink" x="0px" y="0px"
	 viewBox="0 0 160 135" style="enable-background:new 0 0 160 135;" xml:space="preserve">
<style type="text/css">
	.st0{fill:#C0C0C0;}
</style>
<path class="st0" d="M122.5,67.8l0,0.3C122.6,68,122.6,67.7,122.5,67.8z M108.8,69.5c0-0.1,0-0.2,0-0.3
	C108.8,69.4,108.7,69.5,108.8,69.5z M131.4,68.7l0.1,0.1c0-0.1,0-0.3,0-0.3C131.4,68.2,131.6,68.7,131.4,68.7z M123.1,68
	C123.1,68,123.1,68,123.1,68C123,68,123,68,123.1,68C123,68,123.1,68,123.1,68z M114.2,67.2L114.2,67.2L114.2,67.2L114.2,67.2z
	 M129.9,57.7L129.9,57.7l0,0.2L129.9,57.7z M127.4,67.8L127.4,67.8L127.4,67.8L127.4,67.8z M131.1,68.3c0,0.1-0.1,0.1,0,0.2
	C131.1,68.5,131.1,68.3,131.1,68.3z M129,68.5c0,0.1,0,0.1,0.1,0.1L129,68.5z M128.2,68.4l0-0.3C128.2,68.2,128.2,68.2,128.2,68.4z
	 M120.4,68c0-0.2-0.1-0.3-0.1-0.1C120.4,67.9,120.4,68,120.4,68z M130.1,68.4L130.1,68.4c0,0,0-0.1,0-0.1L130.1,68.4z M110.3,67.5
	C110.3,67.5,110.3,67.5,110.3,67.5C110.3,67.5,110.3,67.6,110.3,67.5C110.3,67.5,110.3,67.5,110.3,67.5
	C110.3,67.5,110.3,67.5,110.3,67.5z M117.9,76.3C117.9,76.3,117.8,76.3,117.9,76.3C117.8,76.3,117.8,76.3,117.9,76.3
	C117.9,76.3,117.9,76.3,117.9,76.3C117.9,76.3,117.9,76.3,117.9,76.3z M129.1,68.6C129.1,68.7,129.1,68.7,129.1,68.6
	C129.1,68.7,129.1,68.7,129.1,68.6L129.1,68.6z M126.2,67.9C126.3,68,126.3,68,126.2,67.9C126.3,67.9,126.3,67.9,126.2,67.9z
	 M124.5,78l0.1-0.1L124.5,78L124.5,78z M152,87.9c0.1-0.1,0.1-0.1,0.1-0.2c0-0.1,0-0.1,0-0.2C152.1,87.6,152,87.8,152,87.9z
	 M127.7,69.6L127.7,69.6l0,0.2L127.7,69.6z M132,70c0,0,0.1,0.2,0.1,0.2l0-0.1C132.1,70.2,132.1,69.8,132,70z M132.7,70.1
	L132.7,70.1L132.7,70.1C132.7,70.1,132.7,70.1,132.7,70.1z M132.7,69.5c0,0,0,0.2,0,0.3c-0.1,0.2-0.1-0.1-0.1-0.2L132.7,69.5
	c-0.1-0.5-0.3,0.1-0.4,0.1l0.1-0.4l-0.1,0.3c0-0.1,0-0.3,0-0.4c-0.1-0.2-0.1,0.1-0.1-0.1c0,0,0-0.1,0-0.1l-0.1,0.1
	c0-0.1,0-0.3,0-0.2c-0.1-0.2-0.2,0.3-0.3,0l0,0c-0.2,0.1,0,0.3-0.2,0.7l-0.1-0.8l0,0.3c0,0-0.1,0,0-0.2c-0.1,0.2,0,0.1,0,0.3
	c-0.1-0.3-0.2,0.1-0.2-0.4c0,0.2,0.1,0.2,0,0.3c0-0.5-0.1,0.1-0.2-0.2c0-0.3,0.1-0.1,0-0.4c-0.1,0.5-0.2-0.1-0.2,0
	c0,0.1,0,0.2,0,0.2c0-0.1,0-0.2,0-0.2c0-0.1,0-0.1,0-0.2c0,0,0,0.3,0,0.4c-0.1,0.1-0.1,0-0.2,0.1c0-0.1-0.2-0.2-0.3-0.3l0-0.1
	c0,0.4-0.1,0.3-0.2,0.4c0-0.2,0-0.3,0.1-0.4l-0.1,0c0,0.1,0,0.2-0.1,0.2l0-0.3c-0.1,0-0.2,0.3-0.3,0.1c0,0.3,0.1,0.7-0.1,0.9
	c0-0.1,0-0.4,0-0.4c0,0,0,0.1-0.1,0.1l0.1-0.2c-0.1-0.1,0,0.2-0.1,0.2c0-0.2,0-0.1,0-0.3c0,0,0,0.1,0.1,0c-0.1,0-0.1-0.2-0.1-0.3
	c0,0.1,0,0.3-0.1,0.3c-0.1,0,0-0.2-0.1-0.3c0,0.1-0.1,0-0.1,0.3c0,0,0-0.1,0-0.2c-0.1,0.1-0.2,0-0.2,0.3l0,0c0,0,0,0,0,0
	c-0.2,0.3-0.3-0.2-0.5-0.1l0-0.1c-0.1,0.1-0.2,0.1-0.3,0.3c0,0-0.1-0.2,0-0.3c-0.1,0.1-0.1,0.2-0.2,0c0.1-0.2,0-0.2,0.1-0.1
	c-0.1-0.1-0.1-0.2-0.2,0c0-0.3-0.1-0.3-0.1-0.2l0.1,0.2c-0.1,0-0.1,0-0.1,0l0-0.3c-0.2-0.4-0.4,0.7-0.5,0c-0.1,0.2,0.1,0.2,0,0.4
	c-0.1,0-0.2-0.5-0.2-0.5c-0.1-0.2-0.1,0.5-0.3,0.3c0,0.1,0,0.4-0.1,0.5c-0.1,0-0.1-0.5,0-0.6c0,0,0,0,0,0.1c0,0,0.1-0.1,0-0.2l0,0.1
	c0-0.1-0.2-0.1-0.1-0.3c-0.1,0.1,0,0.2,0,0.3c-0.1-0.2-0.2,0-0.3-0.1c0,0.1,0,0.2,0,0.2c-0.2-0.2-0.1,0.2-0.2,0.3
	c-0.1-0.2,0-0.4-0.1-0.3c-0.1-0.1,0-0.3,0-0.4c-0.1,0.2-0.2-0.2-0.3-0.2l0.1-0.1c0,0.1-0.1,0.1-0.1,0.1l0,0.2c0,0-0.1,0-0.1-0.1
	c0,0.2,0,0.4-0.1,0.6c0-0.1-0.1,0.1-0.2-0.2c0.1,0.1,0-0.3,0.1-0.4c0,0-0.1,0-0.1,0c0,0,0-0.1,0-0.1c-0.1-0.3-0.1,0.4-0.2,0.3
	c0-0.2,0-0.3,0-0.3c0.1,0,0,0.3,0,0.4c-0.1-0.1-0.1,0.1-0.2,0.1l0.1,0.1c0,0.2-0.1,0.2-0.1,0.2c0-0.1,0.1-0.1,0-0.2
	c-0.1,0.3-0.2-0.3-0.3-0.1c0-0.1,0-0.3,0-0.4c-0.1,0.2-0.1-0.2-0.2-0.1c0,0.2,0,0.2-0.1,0.4l0.2-0.2l-0.1,0.3c0.1,0,0.1-0.1,0.2-0.1
	c-0.1,0.2-0.1,0.1,0,0.3c-0.1-0.4-0.2,0.2-0.3,0l0-0.6c-0.1-0.3-0.3,0.3-0.4,0.1l0.1,0.1c0,0.2-0.1,0-0.2,0.1c0-0.2,0-0.3,0-0.4
	c0,0.1-0.1,0-0.2,0.4l-0.1-0.3c-0.1-0.1-0.2,0.6-0.3,0.5c0.1-0.2,0-0.4,0.1-0.5c0,0-0.1,0-0.1,0.1c0-0.1-0.1,0.3-0.2,0.1
	c0,0.1,0,0.3-0.1,0.3c0,0,0-0.1,0-0.1c0,0.1-0.1,0.1-0.1,0.3c-0.1-0.6-0.4,0-0.5-0.5c-0.1,0.1-0.2,0.1-0.3,0.1c0-0.1,0-0.1,0-0.1
	c-0.1-0.2-0.1,0.6-0.2,0.4c-0.1-0.3,0.1-0.2,0-0.3c0-0.7-0.2,0.1-0.3-0.3l0,0c-0.1-0.2-0.2,0.2-0.3,0.2c0,0,0-0.1,0-0.1
	c-0.1,0.3-0.3,0.4-0.4,0.5c0-0.3,0.1-0.1,0-0.4c-0.1,0,0,0.4-0.1,0.5c0-0.1-0.1-0.3-0.1-0.5l0.1,0c0-0.4-0.1,0-0.2-0.1l0-0.2
	c-0.2,0-0.2,0.4-0.3,0.4l0,0.1c-0.1,0.4-0.1-0.2-0.2,0.1l0-0.4c-0.1,0.1-0.2,0.4-0.3,0.4c0.1-0.3,0.2-0.4,0.3-0.6
	c-0.1,0-0.2,0-0.2,0.2c0,0,0.1-0.1,0.1-0.1c-0.1,0.3-0.2,0.5-0.3,0.4c0.1-0.8-0.3-0.2-0.4-0.8c-0.2,0.3-0.4-0.1-0.6-0.1
	c0.1,0.6-0.1,0-0.1,0.6c-0.1,0-0.1,0-0.1,0c0,0,0,0,0,0c0,0,0,0,0,0l-0.2-0.4c0-0.2,0.1-0.1,0.1-0.3c-0.1-0.1,0-0.3-0.1-0.4
	c0,0.2-0.1,0.3-0.1,0.2l0.1,0.3c-0.2,0.3-0.1-0.5-0.3-0.2l0.1-0.2c-0.1,0.1-0.3,0-0.4,0.5c0-0.1,0-0.2,0-0.3
	c-0.2-0.1-0.5,0.5-0.6,0.2l0-0.1c0,0-0.1,0.3-0.1,0.1c0-0.1,0-0.1,0-0.2c0,0.1-0.1,0.3-0.2,0.2l0.1-0.2c-0.2-0.2-0.3,0.4-0.5,0.5
	c0-0.4-0.1-0.6-0.2-0.7l0-0.1c-0.2-0.1-0.4,0.3-0.7,0.5c-0.1-0.5-0.5-0.2-0.7-0.5c0,0.1,0,0.3-0.1,0.4c0-0.1-0.2,0.3-0.1-0.1l0,0
	c0-0.4-0.1-0.3-0.2-0.3l0,0.5c-0.2-0.8-0.6,0.3-0.7-0.4c-0.1,0.1-0.1,0.1-0.2,0.3l0-0.3c-0.1-0.1-0.2-0.1-0.4-0.1l0-0.2
	c-0.1,0-0.2,0.8-0.3,0.8l0-0.4c-0.2,0-0.3-0.4-0.5,0c0-0.1,0-0.2,0-0.2c-0.1,0-0.3-0.3-0.3,0.3c0-0.4-0.2,0-0.3,0.1l0-0.3
	c-0.1,0.4-0.1,0.4-0.2,0.5c0,0,0-0.1,0-0.2c-0.1,0-0.1,0.3-0.2,0.1l0-0.2c-0.1,0-0.1,0.1-0.1,0.3c-0.1,0.1-0.2-0.1-0.2-0.3
	c0,0.2-0.1,0.4-0.1,0.3c0-0.1,0-0.2,0-0.2c-0.1-0.2-0.2,0.3-0.3,0c0-0.1,0-0.1,0-0.2c0.1,0,0.2,0,0.2,0.1c0-0.3-0.1-0.3,0-0.7
	c-0.1,0.2-0.2,0.6-0.3,0.5c0,0,0,0,0-0.1l0,0c0,0,0,0-0.1,0c0,0,0-0.1-0.1-0.1c0-0.2-0.1-0.1-0.2-0.1c0,0.3-0.1,0.2,0,0.5
	c0,0,0,0,0,0c0,0,0,0,0,0c0,0,0,0,0,0c0,0,0.1,0,0.1,0c0,0.1-0.1,0.3-0.1,0.1c0,0.2-0.1,0.4-0.1,0.5c-0.1-0.4-0.2-0.6-0.2-0.9
	c-0.2,0.2-0.4,0.1-0.5,0.6c0,0.1,0-0.2-0.1-0.2c0-0.1,0.1,0,0.1-0.1c-0.1,0.1-0.3,0-0.3,0.4c-0.1-0.2,0.1-0.3-0.1-0.3l0-0.1
	c-0.3-0.6-0.5,0.9-0.8,0.2c0,0,0,0.1,0,0.1c-0.4-0.3-0.8,0.3-1.1-0.3c-0.1-0.1-0.1,0.1-0.2,0.3l0-0.3l-0.1,0.3
	c-0.2,0.2-0.2-0.8-0.4-0.3l0,0.2c-0.1,0-0.2,0.1-0.2-0.1c0,0,0,0.2-0.1,0.1l0-0.2l-0.2,0.3c-0.1-0.1,0-0.6-0.1-0.7
	c-0.1,0.1-0.2,0.5-0.2,0.6c0,0,0.1,0.1,0.1,0.3l-0.1,0.1c0,0.5-0.1,0.9,0,1.3l0.1-0.3l0,0.2l-0.1,0c0,0.2,0.1,0,0.1-0.1
	c0,0.1,0,0.2,0,0.3l0.1-0.4c0,0.2-0.1,0.4,0,0.5c0.1-0.2,0-0.4,0.1-0.5c0,0.2,0,0.4,0.1,0.2c0,0.1,0,0.2,0,0.2
	c0.1-0.1,0.2-0.1,0.2-0.3c0,0.3,0.2-0.1,0.2,0.4c0-0.1,0.1-0.3,0.2-0.4c-0.1,0.5,0.2,0,0.1,0.6c0.1-0.5,0.3-0.2,0.4-0.5
	c0,0,0,0.1,0,0.1c0.1,0,0.1,0.2,0.1,0.3c0-0.4,0.1-0.5,0.2-0.7c0.1,0.4-0.1,0.5-0.1,0.8c0-0.3,0.2-0.3,0.1-0.6
	c0.1,0.2,0.1,0.1,0.1,0.4c0-0.5,0.1-0.1,0.1-0.4c0.1,0.2,0,0.5,0.1,0.3c0,0.2-0.1,0.3-0.1,0.3c0.1,0,0.1-0.4,0.1-0.6
	c0.1-0.1,0,0.3,0.1,0.5c0.1-0.1,0.2-0.4,0.2-0.4c0,0.1,0,0.1,0,0.2c0.1-0.3,0.2,0,0.4-0.4c0,0,0,0.1,0,0.1c0-0.2,0-0.4,0-0.5
	c0,0,0.1-0.2,0.1,0c0,0,0,0.1-0.1,0.2l0.1-0.1c0,0.3-0.1,0.1-0.1,0.4c0.1-0.1,0.2-0.4,0.3-0.3c0,0.3-0.2,0.1-0.1,0.4l-0.1-0.1
	c0.1,0.5-0.1,0,0,0.5c0.1,0.1,0.2-0.2,0.3-0.1c0-0.2,0-0.3,0-0.5c0.2-0.3,0.1,0.9,0.3,0.4c0-0.2,0.1-0.7,0.2-0.4l-0.1,0.4
	c0.1,0,0.1-0.5,0.2-0.3c0,0.1-0.1,0.1-0.1,0.2c0.1,0.3,0.1-0.2,0.2-0.2l0,0.3c0.2,0,0.3-0.3,0.5-0.3c0,0.1,0,0.2,0,0.3
	c0.2-0.2,0.5,0.1,0.7,0.3l0.1-0.3c0,0,0,0.1,0,0.2c0.1,0.1,0-0.2,0.1-0.3c0,0,0.1,0.2,0,0.3c0.2-0.2,0.4-0.5,0.6-0.2l0,0.1
	c0.1,0.1,0.2-0.6,0.3-0.3l0,0.1c0.3,0.1,0.5-0.1,0.7,0.3c0.1-0.4,0.2,0.2,0.3-0.4c0.1,0.3,0.1,0.4,0.3,0.6c0.1,0,0.1-0.4,0.2-0.4
	l0,0.3l0.1-0.3l0,0.4l0.1-0.1c0,0,0-0.1,0-0.2c0.1-0.1,0.2,0.2,0.2,0.4l0.2-0.3c0,0.1-0.1,0.2-0.1,0.2c0.1-0.3,0,0.3,0.1,0
	c0-0.1,0-0.2,0-0.2c0.1,0.2,0.2,0.2,0.3,0.1l0,0.2c0.2,0.1,0.4-0.1,0.6-0.1c-0.1-0.1,0-0.5,0-0.5l0,0.3c0-0.2-0.1-0.1,0-0.4
	c0.1,0,0,0.4,0,0.5l0.1-0.1c0,0.1,0,0.1,0,0.3c0-0.2,0.1,0.3,0.2,0l0,0.1c0.2,0,0.3-0.1,0.5-0.1c0-0.3,0.1-0.2,0.1-0.4
	c0.1,0.1,0.2,0.3,0.4,0.3c0.1-0.1,0-0.2,0.1-0.4c0,0.3,0.1,0.2,0.1,0.4c0.2,0,0.2,0,0.4-0.2c0-0.1,0-0.2,0-0.2c0,0,0.1,0.1,0.1,0.2
	l0,0c0.3-0.4,0.5,0.8,0.7,0.2l0,0l0.2-0.3c0.1,0-0.1,0.2,0,0.4c0.2-0.4,0.3,0.1,0.5-0.2c0.1,0.8,0.5,0,0.7,0.5l0-0.2
	c0.1-0.2,0.1,0.1,0.1,0.1c0-0.1,0-0.2,0-0.3c0.4-0.2,0.8,0.3,1.2,0.5c0.2,0.1,0.1-0.9,0.3-0.5l-0.1,0.3c0.3-0.4,0.6,0,0.9-0.3
	c0,0.1,0,0.2-0.1,0.2c0.1,0.2,0.2,0,0.2-0.2c0,0,0,0.2,0,0.3c0.1,0.1,0.2-0.3,0.2-0.1c0,0,0,0.1,0,0.1c0-0.1,0.2,0,0.2-0.2
	c0.1,0.1,0.2-0.1,0.3,0.1c0.1-0.3,0.2,0.2,0.2-0.3c0,0.5,0.2,0.4,0.3,0.2c0,0.1,0.1,0.1,0,0.3c0.1,0,0.2-0.1,0.2-0.3
	c0.1,0.5,0.3-0.4,0.4,0.3c0.3-0.2,0.5-0.4,0.7-0.5c0,0.5-0.2,0-0.3,0.5c0.2-0.2,0.3-0.6,0.5-0.4c0.1,0.1,0,0.2-0.1,0.3
	c0.2-0.2,0.4,0.1,0.6-0.2c0,0,0,0.1,0,0.1c0,0,0.1,0.1,0.1-0.1l0,0.1c0-0.3,0.2-0.6,0.2-0.8c-0.1,0.6,0.2,0.2,0,0.9
	c0,0,0.1-0.1,0.1-0.3c0,0,0,0.1,0,0.3c0.1-0.1,0.1-0.3,0.2-0.3c0,0.1,0,0.1,0,0.3c0.1-0.2,0.1-0.4,0.2-0.3c0,0.1,0,0.1,0,0.1
	c0.2,0,0.3-0.5,0.5-0.3c-0.1,0.4,0.1,0.1,0.1,0.5l0.1-0.1l0-0.2c0.1,0,0.2-0.3,0.2-0.1l-0.1,0.2l0.2-0.1l-0.1-0.1
	c0.1-0.2,0-0.5,0.1-0.4c0,0,0.1,0,0.1,0.2c0,0,0,0,0,0c0-0.1,0.1-0.2,0.2-0.1c0,0.1,0,0.4,0,0.5c0.1-0.3,0.2-0.1,0.3-0.4
	c0,0.1,0,0.3,0,0.3l0-0.3c0,0.1,0,0.1,0,0.3c0.1,0.1,0-0.5,0.1-0.3c0,0,0,0.1,0,0.1c0.1,0.1,0.3-0.1,0.4,0c0,0.4-0.1,0.1-0.1,0.4
	c0.2-0.1,0.4-0.4,0.6-0.3l0,0c0-0.5,0.1,0.3,0.2,0c0,0,0,0.3,0,0.2c0.1,0.1,0.3-0.1,0.5-0.3l0,0.1c0.1,0.1,0.2,0.1,0.3,0.1
	c0-0.1,0.1-0.1,0.1-0.3c0.2,0.8,0.5-0.4,0.7,0.3c0,0-0.1,0.1,0,0.1l0.2-0.1c0-0.2,0-0.1-0.1-0.3c0-0.1,0.1-0.2,0.1-0.2
	c-0.1,0.1,0,0.4,0,0.5c0-0.1,0-0.1,0-0.2c0.1,0.4,0-0.5,0.2-0.2l0,0.1c0.1-0.1,0.1-0.2,0.2-0.2c0,0.3-0.1,0.1-0.1,0.3
	c0.1,0,0.2-0.5,0.2-0.2c0,0.1-0.1,0.1-0.1,0.1c0.1,0.3,0.1,0.2,0.1,0.3l0,0l0.1,0.1l0-0.1c0.1-0.7,0.2-0.1,0.3-0.6
	c-0.1,0.4,0,0.2-0.1,0.6c0,0.1,0.1,0.2,0.1,0.3c0.1-0.2,0.1,0.2,0.2-0.2c0,0.1,0.1,0,0,0.3c0.1-0.1,0-0.2,0-0.3
	c0.1-0.3,0.3,0.4,0.5,0c0.2-0.2,0.2-0.5,0.3-0.7c0,0.2-0.1,0.4-0.1,0.4c0.1,0.1,0.1,0.1,0.2,0c0,0.1,0,0.2,0,0.3
	c0.1,0,0.1-0.4,0.1-0.2c0,0.1,0,0.3-0.1,0.4c0.1-0.1,0.1-0.3,0.2-0.4c0,0.2-0.1,0.3-0.1,0.4C132.6,69.9,132.7,69.8,132.7,69.5
	L132.7,69.5z M110.3,67.2C110.3,67.2,110.3,67.3,110.3,67.2c0,0,0-0.1,0-0.1C110.4,67.1,110.4,67.1,110.3,67.2
	C110.4,67.2,110.4,67.2,110.3,67.2z M110.5,69.1C110.5,69.1,110.5,69.1,110.5,69.1C110.5,69.1,110.5,69.1,110.5,69.1
	C110.5,69.1,110.5,69.1,110.5,69.1z M110.6,69.1c0-0.1,0-0.2,0-0.2C110.6,68.9,110.7,69,110.6,69.1
	C110.7,69.1,110.7,69.1,110.6,69.1z M109.2,63.1c0-0.1-0.1-0.2-0.1-0.2C109.2,63.1,109.1,63.2,109.2,63.1z M50.7,56.1L50.7,56.1
	L50.7,56.1L50.7,56.1z M20.7,46.8C20.7,46.8,20.7,46.9,20.7,46.8C20.7,46.9,20.7,46.9,20.7,46.8C20.7,46.9,20.7,46.8,20.7,46.8z
	 M132.8,70L132.8,70C132.7,70,132.8,70,132.8,70z M63.1,89.4c-0.1,0.4-0.2,0.8-0.2,1.2c-0.1,0.4-0.1,0.7-0.1,0.9
	c0,0.1,0,0.3-0.1,0.6c0,0.2-0.1,0.5-0.1,0.7c0,0.3-0.1,0.5-0.1,0.7c0,0.2-0.1,0.4-0.1,0.6c-0.1,1,0,1.8,0.2,2.4
	c0.3,0.6,0.8,1.1,1.6,1.3c0.1,0,0.3,0,0.4-0.1c0.1-0.1,0.2-0.3,0.2-0.4c0-0.3,0-0.7,0.1-1c0-0.3,0.1-0.7,0.1-1.1
	c0.1-0.7,0.2-1.6,0.4-2.7c0.2-1.1,0.4-2.3,0.6-3.6c0.2-1.3,0.5-2.6,0.8-4c0.3-1.4,0.5-2.7,0.8-3.9c0.2-1.2,0.5-2.4,0.6-3.4
	c0.2-1,0.3-1.8,0.4-2.4c0-0.3-0.2-0.5-0.4-0.7c-0.2-0.2-0.5-0.3-0.9-0.3c-0.1,0-0.2,0-0.3,0c-0.3,0-0.6,0.4-0.8,1.2
	c-0.4,2-0.8,3.8-1.1,5.3c-0.4,1.5-0.7,2.9-1.1,4.1c0,0-0.1,0-0.1,0c-0.1,0-0.2,0-0.4,0s-0.4-0.1-0.7-0.1c-0.1,0-0.2-0.1-0.4-0.1
	c-0.5-0.1-0.9-0.3-1.2-0.4c-0.3-0.2-0.4-0.5-0.3-0.9c0-0.3,0.1-0.7,0.2-1.1c0.1-0.4,0.2-0.8,0.2-1.3c0.1-0.4,0.2-0.8,0.2-1.2
	c0.1-0.4,0.1-0.6,0.1-0.8c0-0.3,0-0.5,0.1-0.8c0-0.3,0-0.6,0-0.8c0-0.3-0.1-0.5-0.2-0.7c-0.1-0.2-0.2-0.3-0.4-0.4
	c-0.3-0.1-0.6-0.3-0.9-0.4c-0.1,0-0.3,0-0.5,0c-0.2,0-0.4,0.2-0.4,0.4c0,0.1,0,0.3,0,0.4c-0.1,0.6-0.2,1.3-0.3,2.2
	c-0.1,0.9-0.3,1.8-0.5,2.7c-0.2,1-0.4,1.9-0.6,2.9c-0.2,0.9-0.4,1.8-0.6,2.6c-0.2,0.8-0.3,1.5-0.4,2.1c-0.1,0.6-0.2,1-0.2,1.2
	c0,0.1,0,0.3-0.1,0.6s-0.1,0.5-0.1,0.7c0,0.4,0,0.7,0.1,1c0.1,0.3,0.2,0.5,0.3,0.7c0.1,0.2,0.3,0.3,0.5,0.5c0.2,0.1,0.4,0.2,0.5,0.3
	c0.2,0.1,0.4,0.1,0.8,0.1c0.2-1.7,0.5-3.2,0.8-4.5c0.3-1.3,0.6-2.3,0.9-3.2c0.3,0,0.6,0,0.9,0.1c0.1,0,0.2,0.1,0.4,0.1
	c0.2,0.1,0.4,0.2,0.6,0.2c0.2,0.1,0.4,0.2,0.6,0.2c0.2,0.1,0.3,0.1,0.5,0.2c0.1,0,0.2,0,0.3,0.1c0,0.2-0.1,0.5-0.1,0.9
	C63.3,88.5,63.2,89,63.1,89.4z M58.3,58.6c0,0.1,0,0.2,0,0.3C58.3,58.7,58.5,58.7,58.3,58.6z M20.8,46.9
	C20.8,46.9,20.7,46.9,20.8,46.9c-0.1,0-0.1,0.1-0.1,0.1C20.7,46.9,20.7,46.9,20.8,46.9z M50.7,80.3c0.2-0.8,0.5-1.4,0.9-2
	c0.3-0.6,0.7-1.1,1.1-1.5c0.4-0.4,0.8-0.8,1.1-1c0.7-0.5,1.3-0.8,1.8-0.9c0.5-0.1,1-0.1,1.4-0.2c0.4,0,0.6-0.2,0.8-0.4
	c0.2-0.2,0.3-0.5,0.3-0.8c0-0.4,0-0.7-0.1-0.8c-0.4-0.4-0.9-0.7-1.5-0.8c-0.6-0.1-1.4,0.1-2.3,0.6c-0.9,0.4-1.9,1.2-3,2.2
	c-0.7,0.6-1.4,1.5-2,2.6c-0.6,1.1-1,2.5-1.2,4.1c-0.1,0.7-0.1,1.5-0.1,2.4c0,1,0.1,2,0.3,3c0.1,0.5,0.4,1.2,0.8,2.1s0.9,1.7,1.5,2.6
	c0.6,0.9,1.3,1.8,2,2.6c0.7,0.8,1.5,1.5,2.3,2.1c0,0,0.1,0,0.1,0c0.2,0.2,0.5,0.1,0.7-0.1c0.2-0.2,0.4-0.5,0.4-0.8
	c0-0.3-0.1-0.7-0.4-1c-0.2-0.1-0.3-0.3-0.6-0.5s-0.4-0.4-0.6-0.5c-0.4-0.4-0.7-0.8-0.9-1.1s-0.4-0.6-0.6-0.9
	c-0.2-0.3-0.4-0.7-0.7-1.1s-0.5-0.9-0.8-1.5c-0.9-2.3-1.3-4.2-1.1-6C50.3,81.9,50.5,81.1,50.7,80.3z M35.8,51.1
	C35.8,51.1,35.8,51.1,35.8,51.1C35.8,51.1,35.8,51.1,35.8,51.1L35.8,51.1z M53.7,37.1c0,2,0,3.6,0.1,5.1c0.1,1.4,0.2,2.6,0.3,3.5
	c0.1,0.7,0.2,1.4,0.2,2.2c0.2,0.8,0.7,1.3,1.5,1.4c0.5,0.2,0.8,0.2,1.1,0c0.7-0.7,1.5-2.3,2.2-4.9c0.3-1.1,0.6-2.3,1-3.6
	c0.4-1.3,0.8-2.8,1.2-4.3c0,1.5,0.1,2.8,0.1,4c0,1.2,0,2.2,0,3.1c0.1,1.2,0.1,2.1,0.1,2.7c0,0.6,0,1,0.1,1c0.3,1.6,0.8,2.6,1.7,3.3
	c0.3,0.2,0.6,0.3,0.9,0.3c0.7,0.1,1.2-0.2,1.4-0.8c0.4-1,0.8-2.3,1.2-3.9c0.5-1.6,1-3.5,1.6-5.8c0.6-2.3,1.1-4.2,1.6-5.9
	c0.5-1.7,0.9-3.1,1.3-4.2c0-0.1,0.1-0.2,0.2-0.5c0.1-0.3,0.3-0.7,0.5-1.2c0.4-0.7,0.6-1.3,0.6-1.8c0.1-0.6-0.2-1.1-0.8-1.4
	c-0.3-0.2-0.6-0.2-1-0.2c-0.6,0-0.9,0.2-1.2,0.7c-1,2-1.9,4.6-2.7,7.7c-0.3,1.3-0.7,3-1.1,4.9c-0.5,1.9-1,4.2-1.5,6.8
	c0-1.6-0.1-3.1-0.1-4.7c-0.1-1.6-0.2-3.2-0.3-4.9c-0.1-2.3-0.3-4.2-0.8-5.6c0-0.1-0.1-0.1-0.3-0.1c-0.2,0-0.3-0.1-0.3-0.3
	c-0.3,0-0.6-0.1-0.8,0c-0.7,0.1-1.2,0.8-1.4,2.1c-0.1,0.5-0.3,1.1-0.4,1.6c-0.1,0.5-0.3,1.1-0.5,1.6c-0.2,0.9-0.4,1.7-0.5,2.4
	c-0.2,0.7-0.3,1.3-0.5,1.8c-0.3,1.1-0.9,2.8-1.7,5.1c0-4.5,0-8.2,0-11c0-2.8-0.1-4.7-0.2-5.8c-0.3-0.6-0.8-0.8-1.5-0.6
	c-0.2,0.1-0.5,0.2-0.7,0.3c-0.3,0.1-0.5,0.3-0.7,0.7c-0.2,0.3-0.2,0.6-0.2,0.9c0.1,0.9,0.2,2,0.3,3.4C53.6,33.4,53.7,35.1,53.7,37.1
	z M32.5,50.4C32.5,50.4,32.5,50.4,32.5,50.4C32.6,50.3,32.5,50.3,32.5,50.4z M22.8,47.6c0,0,0,0.1,0,0.1c0,0,0,0,0,0L22.8,47.6z
	 M36.5,51.3c0,0.1,0,0.2,0,0.2c0,0,0,0,0-0.1L36.5,51.3z M29.4,50.1c0,0,0.1-0.1,0.1-0.1C29.5,49.9,29.5,49.9,29.4,50.1z M29.6,50
	c0,0,0.1,0.1,0.1,0C29.7,50,29.6,50,29.6,50z M28.3,49.4l0-0.2l-0.1,0.2L28.3,49.4z M150.8,87.2L150.8,87.2c0.1,0,0.1-0.1,0.1-0.1
	L150.8,87.2z M100.6,20.2C100.6,20.2,100.6,20.2,100.6,20.2c0.1,0,0.1,0,0.1,0c0.1,0,0.3,0,0.4,0c0.2,0,0.2,0,0.3,0
	c0.3-0.6,0.6-1.4,0.8-2.5c0.2-0.7,0.3-1.3,0.4-1.7c0.1-0.4,0.2-0.7,0.2-0.9c0.4,0.3,0.8,0.8,1.3,1.3c0.5,0.6,1.1,1.2,1.9,2.1
	c1.3,1.5,2.3,2.7,3.2,3.6c0.9,0.1,1.3,0,1.4-0.3c0-0.1,0-0.1-0.1-0.2c-0.2-0.4-0.5-0.9-0.9-1.4c-0.4-0.5-0.9-1.1-1.4-1.7
	c-0.9-1-1.8-1.9-2.7-2.8c-0.3-0.2-0.5-0.5-0.8-0.7c-0.2-0.2-0.3-0.3-0.4-0.4c-0.1-0.1-0.1-0.2-0.1-0.3c0-0.1,0.1-0.1,0.2-0.2
	c0.1,0,0.2-0.1,0.4-0.1c0.8-0.2,1.5-0.6,2.1-1c0.7-0.5,1.1-1.1,1.2-1.8c0.1-0.8-0.1-1.6-0.7-2.3c-0.6-0.8-1.4-1.3-2.4-1.4
	c-0.1,0-0.2,0-0.4,0c-1.7-0.2-2.6,0.1-2.9,0.8c-0.2,0.6-0.4,1.3-0.5,2c-0.1,0.7-0.2,1.6-0.4,2.5c-0.1,0.7-0.2,1.4-0.3,2.1
	c-0.1,0.5-0.2,1-0.3,1.4c-0.1,0.4-0.2,0.8-0.3,1.2c-0.1,0.2-0.2,0.5-0.2,0.7c-0.1,0.1-0.1,0.3-0.1,0.4c0,0.1-0.1,0.2-0.1,0.4
	C99.5,19.4,99.8,19.9,100.6,20.2z M103.3,12.5c0-0.1,0-0.2,0.1-0.3c0-0.1,0-0.2,0-0.3c0-0.1,0-0.3,0-0.4c0-0.7,0.1-1.2,0.1-1.4
	c0-0.2,0.1-0.4,0.1-0.6c0.1-0.2,0.1-0.4,0.2-0.6c0.1-0.2,0.4-0.3,0.8-0.2c0.6,0.1,1,0.2,1.2,0.5c0.2,0.3,0.4,0.6,0.4,0.9
	c0,0.1,0,0.1,0,0.2c0,0.1,0,0.1,0,0.2c0,0.1,0,0.2-0.1,0.3c-0.3,0.8-1.2,1.5-2.8,2C103.3,12.7,103.3,12.6,103.3,12.5z M105.7,25.8
	c-0.8-0.2-1.5-0.2-2-0.3c-0.5,0-1,0-1.5,0c-0.2,0.2-0.3,0.4-0.3,0.6c0,0.1,0.1,0.5,0.3,1.3c0.7,1,1.7,1.6,2.9,2
	c0.3,0.1,0.5,0.1,0.7,0.1c0.2,0,0.4,0,0.7,0c0.5,0.1,0.9,0.1,1.3,0.2c0.4,0.1,0.7,0.2,1,0.3c0.2,0.1,0.3,0.1,0.5,0.2
	c0,0.3-0.1,0.5-0.1,0.8c-0.1,1-0.2,2.2-0.4,3.5c-0.2,1.4-0.4,2.9-0.7,4.6c-0.6,4.1-1.1,7.2-1.3,9.1c-0.1,1.2-0.2,2.4-0.2,3.5
	c0,0.9,0.1,1.7,0.5,2.4c0.4,0.8,1,1.2,1.7,1.3c0.4,0,0.7-0.1,0.8-0.6c0-0.1,0.1-0.2,0.1-0.4c0-0.1,0-0.3,0.1-0.5c0-0.1,0-0.3,0-0.4
	c0.1-0.9,0.1-1.8,0.2-2.7c0.1-0.9,0.2-1.8,0.3-2.7c0.2-2.4,0.6-5.1,1-7.9c0.4-2.8,0.9-6,1.6-9.4c2,0.3,3.7,0.6,4.9,0.9
	c1.3,0.2,2.3,0.4,3.1,0.6c0.6,0.1,1.1-0.2,1.4-1c0-0.4-0.3-0.8-0.9-1.1c0,0,0-0.1,0-0.1c0-0.3-0.1-0.5-0.5-0.7
	c-0.1,0-0.2-0.1-0.2-0.1c-0.1-0.1-0.2-0.1-0.2-0.1c-0.6-0.3-1.2-0.4-1.8-0.5c-0.4-0.1-0.7-0.1-1-0.1c-0.3,0-0.6-0.1-0.7-0.1
	c-1.1-0.2-2.2-0.4-3.3-0.9c-1-0.4-2-0.9-3-1.6C109.5,26.3,107.9,26.2,105.7,25.8z M112.2,17.5c-0.1,0.3-0.1,0.5-0.1,0.8
	c0,0.3-0.1,0.6-0.1,0.9c0,0.3,0,0.6,0,0.9c0,0.5,0.2,0.9,0.6,1.4c0.4,0.5,0.8,0.9,1.3,1.2c1.3,0.8,2.8,1.6,4.5,2.4
	c0.2,0.1,0.3,0.1,0.5,0.2c0.2,0.1,0.3,0.1,0.5,0.2c0.2,0.1,0.4,0.1,0.6,0c0.2-0.1,0.3-0.3,0.3-0.5c0,0,0-0.1,0-0.1s0-0.1,0-0.1
	c0-0.8-0.3-1.2-0.7-1.4c0,0-0.1,0-0.1,0c0,0,0,0-0.1,0c-0.1,0-0.2,0-0.4,0c-0.2,0.1-0.3,0-0.5,0c-0.1-0.1-0.3-0.1-0.4-0.1
	c-0.1,0-0.2-0.1-0.4-0.1c-1.6-0.7-2.8-1.3-3.5-2c-0.1-0.3-0.1-0.7-0.1-1.1c0.1-0.7,0.3-1.5,0.8-2.5c0.5,0,1.2,0.1,2,0.3
	c1,0.3,1.7,0.5,2,0.5c0.2,0.1,0.4,0.1,0.5,0c0.1-0.1,0.2-0.1,0.3-0.2c0.1,0,0.1,0,0.1-0.1c0.1,0,0.2-0.1,0.2-0.2
	c0-0.1-0.1-0.4-0.3-0.8c-0.3-0.3-0.7-0.5-1.2-0.7c-0.1,0-0.3-0.1-0.5-0.1c-0.2,0-0.4-0.1-0.7-0.1c-0.3-0.1-0.5-0.1-0.7-0.1
	c-0.2,0-0.4-0.1-0.5-0.1c-0.4-0.1-0.7-0.2-1-0.4c0.1-0.7,0.2-1.3,0.3-1.7c0.1-0.4,0.2-0.7,0.3-0.9c0.3,0,0.8-0.1,1.3-0.1
	c0.5,0,1.1,0,1.7-0.1c0.7,0,1.2,0,1.7-0.1s0.9-0.1,1.3-0.1c0.1,0,0.2-0.1,0.2-0.3c0-0.1,0-0.2-0.1-0.4c0-0.2-0.1-0.4-0.1-0.4
	c-0.6-0.5-1.1-0.8-1.6-0.9c-0.2,0-0.3,0-0.3,0c-0.5,0-0.9,0-1.3,0c-0.4,0-0.9,0-1.3,0.1c-0.5,0-1,0.1-1.4,0.1
	c-0.4,0-0.8,0.1-1.2,0.2c-0.6,0.1-1.2,0.2-1.8,0.3c-0.6,0.1-1,0.4-1.1,0.9c-0.1,0.5,0.4,0.9,1.4,1.2c-0.1,0.7-0.2,1.2-0.3,1.5
	c-0.1,0.3-0.1,0.5-0.1,0.6c0,0.1-0.2,0.2-0.5,0.2c-0.2,0-0.4,0.1-0.4,0.3c0,0,0,0.1,0,0.1c0,0.2,0.2,0.5,0.6,0.9
	C112.3,17,112.2,17.2,112.2,17.5z M114.5,59.4L114.5,59.4l0.1-0.1L114.5,59.4z M149,86.9C149,86.9,149,86.9,149,86.9
	C149,87,149,86.9,149,86.9L149,86.9z M86.4,99.1c0.3,0,0.6,0,0.9,0c0.6-0.1,1.1-0.4,1.6-0.7c0.5-0.3,1-0.7,1.5-1.1
	c0.5-0.4,0.9-0.9,1.2-1.4c0.4-0.5,0.7-1,0.9-1.5c0.5-1,0.9-1.9,1.2-2.7c0.3-0.9,0.5-1.9,0.6-3.1c0.1-0.7,0-1.6,0-2.7
	c-0.1-1.1-0.3-2.2-0.7-3.3c-0.3-0.9-0.6-1.6-1.1-2.1c-0.4-0.5-0.9-0.8-1.4-0.9c-0.4,0-0.8,0-1.1,0c-0.3,0.1-0.7,0.2-1.2,0.4
	c-0.2-0.2-0.5-0.3-0.6-0.4c-0.2-0.1-0.4-0.1-0.7-0.2c-0.1,0-0.3,0-0.4-0.1c-0.3,0-0.7,0.2-1.3,0.7c-0.6,0.5-1.2,1.2-1.8,2.2
	c-0.7,1.1-1.3,2.2-1.7,3.3c-0.4,1.1-0.7,2.3-0.9,3.7c-0.1,1.6-0.1,3,0.2,4.2c0.3,1.2,0.7,2.2,1.1,2.9c0.5,0.8,1,1.4,1.7,1.8
	C85,98.7,85.7,99,86.4,99.1z M84,90c0.1-1,0.2-1.8,0.4-2.5c0.2-0.7,0.4-1.3,0.7-1.8c0.2-0.5,0.5-0.9,0.8-1.3c0.3-0.3,0.6-0.7,0.8-1
	c0.1-0.1,0.2-0.2,0.3-0.3c0.1-0.1,0.2-0.1,0.2-0.1c0,0,0.1,0,0.2,0.1c0.1,0,0.2,0.1,0.3,0.3c0.1,0.2,0.3,0.3,0.5,0.3
	c0.1,0,0.2,0,0.5-0.1c0.2-0.1,0.5-0.3,0.7-0.6c0.2-0.2,0.4-0.4,0.5-0.5c0.1-0.2,0.2-0.2,0.3-0.2c0,0,0.1,0,0.3,0.1
	c0.2,0.2,0.4,0.4,0.6,0.9c0.2,0.4,0.3,0.9,0.4,1.5s0.2,1.2,0.2,1.9c0,0.7,0,1.3,0,2c-0.1,1.5-0.3,2.7-0.6,3.6
	c-0.3,0.9-0.7,1.7-1.3,2.5c-0.5,0.6-1,1-1.5,1.3c-0.6,0.3-1.1,0.4-1.6,0.4c-0.4,0-0.7-0.2-1.1-0.6c-0.3-0.4-0.6-0.8-0.9-1.4
	c-0.2-0.5-0.4-1-0.5-1.8C84,91.8,83.9,91,84,90z M90.6,62.1c0.4-0.1,0.8-0.2,1.3-0.3c0.5-0.1,1.1-0.2,1.7-0.3
	c0.7-0.1,1.2-0.2,1.7-0.3s0.9-0.2,1.3-0.3c0.1-0.1,0.2-0.2,0.2-0.3c0-0.1,0-0.2-0.1-0.4c-0.1-0.2-0.1-0.3-0.1-0.4
	c-0.6-0.4-1.1-0.7-1.6-0.7c-0.2,0-0.3,0-0.3,0c-0.5,0.1-0.9,0.1-1.3,0.2c-0.4,0.1-0.9,0.1-1.3,0.2c-0.5,0.1-1,0.2-1.4,0.3
	c-0.4,0.1-0.8,0.2-1.2,0.4l-1.8,0.5c-0.6,0.2-1,0.6-1.1,1.1c-0.1,0.6,0.4,1,1.3,1.3c-0.1,0.8-0.2,1.4-0.3,1.8
	c-0.1,0.4-0.1,0.6-0.2,0.7c-0.1,0.1-0.2,0.3-0.5,0.4c-0.2,0.1-0.4,0.2-0.4,0.4l0,0.1c0,0.3,0.2,0.6,0.6,1c-0.1,0.3-0.1,0.6-0.2,0.9
	c-0.1,0.3-0.1,0.7-0.2,1c0,0.4-0.1,0.7-0.1,1.1c0,0.4,0,0.7,0,1.1c0,0.5,0.2,1,0.5,1.5c0.4,0.5,0.8,0.8,1.3,1c1.4,0.5,2.9,0.8,4.6,1
	c0.2,0,0.3,0,0.5,0c0.2,0,0.3,0,0.5,0c0.3,0,0.5-0.1,0.6-0.2c0.2-0.2,0.3-0.4,0.3-0.6c0,0,0-0.1,0-0.1s0-0.1,0-0.1
	c0-0.8-0.3-1.2-0.7-1.2c0,0-0.1,0-0.1,0c0,0,0,0-0.1,0c-0.1,0-0.2,0-0.4,0.2c-0.2,0.1-0.3,0.2-0.5,0.2s-0.3,0-0.4,0
	c-0.1,0-0.2,0-0.4,0c-1.7-0.2-2.8-0.6-3.5-1.2c-0.1-0.4-0.1-0.8-0.1-1.3c0.1-0.8,0.4-1.9,0.8-3.1c0.5-0.1,1.2-0.2,2-0.1
	c1,0.1,1.7,0.1,2.1,0.1c0.2,0,0.4,0,0.6-0.2c0.1-0.1,0.2-0.2,0.3-0.2c0.1,0,0.1-0.1,0.1-0.1c0.1-0.1,0.2-0.1,0.2-0.3
	c0-0.1-0.1-0.4-0.3-0.7c-0.3-0.3-0.7-0.4-1.2-0.5c-0.1,0-0.3,0-0.5,0c-0.2,0-0.5,0-0.7,0c-0.3,0-0.5,0-0.7,0c-0.2,0-0.4,0-0.5,0
	c-0.4,0-0.7-0.1-1-0.3c0.1-0.8,0.2-1.5,0.4-2C90.4,62.6,90.5,62.3,90.6,62.1z M96.1,24.1c-0.4,0.9-0.9,2-1.4,3.3
	c-0.5,1.3-1.1,2.9-1.7,4.7c-1.4,4.1-2.4,6.9-3,8.4c-0.1,0.2-0.3,0.4-0.8,0.4c-0.4,0-0.7,0.1-0.8,0.3c-0.1,0.1-0.2,0.3-0.2,0.5
	c0,0.2,0.1,0.5,0.5,0.9c0.3,0.4,0.4,0.7,0.4,0.9c-0.2,1-0.7,2.6-1.7,4.8c-0.7,1.6-1.1,3-1.2,4.3c0,0.1,0,0.3,0,0.4
	c0,0.6,0.4,1.2,1.2,1.6c0.1,0.1,0.2,0.1,0.3,0.1c0.1,0,0.2,0,0.2,0c0.4,0.1,0.6-0.1,0.8-0.5c0.5-1.1,1.1-2.8,1.7-5.1
	c0.3-1.2,0.6-2.2,0.9-3.1c0.3-0.8,0.5-1.5,0.7-1.9c0.6-0.5,1.4-0.8,2.4-0.8c0.9,0,1.7,0.1,2.6,0.1c0.4,1.7,0.6,3.7,0.7,6.1
	c0.1,2.2,0.8,3.5,2,4c0.2,0,0.5-0.2,0.9-0.5c0.5-0.4,0.7-0.9,0.8-1.5c0-0.3,0-0.8-0.1-1.3c-0.5-2.5-0.9-5.2-1.3-8.3
	c-0.4-3.1-0.7-6.5-1-10.2c0-0.6,0-1.3,0-1.9c0-0.7,0-1.3-0.1-1.9c-0.1-1.5-0.4-2.7-1.1-3.6c-0.3-0.3-0.6-0.6-0.9-0.6
	C96.6,23.6,96.3,23.7,96.1,24.1z M93.5,40.2c0.8-2.5,1.7-4.9,2.7-7.4c0.1,0.6,0.1,1.3,0.2,1.9c0.1,0.6,0.1,1.3,0.2,1.9
	c0.1,0.7,0.1,1.4,0.1,2c0,0.6,0,1.3,0,1.9C95,40.3,93.9,40.2,93.5,40.2z M87.9,18.9c0.1,0,0.1,0,0.2,0c0.1,0,0.1,0,0.2,0
	c0.3,0,0.5-0.1,0.6-0.2c0.4-0.5,0.8-1.1,1.2-2c0.2-0.5,0.5-0.9,0.6-1.2c0.2-0.3,0.3-0.6,0.5-0.8c0.4-0.2,1-0.3,1.7-0.3
	c0.6,0,1.2,0,1.9,0.1c0.3,0.7,0.4,1.5,0.5,2.5c0.1,0.9,0.6,1.5,1.5,1.7c0.1,0,0.3,0,0.7-0.2c0.3-0.1,0.5-0.3,0.6-0.6
	c0-0.1,0-0.3-0.1-0.6c-0.3-1.1-0.7-2.3-1-3.5c-0.3-1.3-0.6-2.7-0.8-4.3c0-0.3,0-0.5,0-0.8c0-0.3,0-0.5,0-0.8
	c-0.1-0.6-0.3-1.1-0.8-1.5c-0.2-0.1-0.4-0.2-0.6-0.2c-0.3,0-0.6,0-0.7,0.2c-0.3,0.4-0.6,0.9-0.9,1.4c-0.3,0.5-0.7,1.2-1.1,1.9
	c-1,1.7-1.6,2.8-2.1,3.4c0,0.1-0.2,0.1-0.5,0.2c-0.3,0-0.5,0.1-0.6,0.1c-0.1,0-0.1,0.1-0.1,0.2c0,0.1,0.1,0.2,0.3,0.3
	c0.2,0.1,0.3,0.3,0.3,0.4c-0.1,0.4-0.5,1.1-1.2,2c-0.5,0.7-0.8,1.2-0.9,1.7c0,0.1,0,0.1,0,0.2C87,18.6,87.3,18.8,87.9,18.9z
	 M94.1,10.1c0.1,0.3,0.1,0.5,0.1,0.8c0,0.3,0.1,0.5,0.1,0.8c0,0.3,0.1,0.6,0.1,0.8c0,0.3,0,0.5,0,0.8c-1.2-0.1-2-0.2-2.3-0.2
	C92.7,12.1,93.4,11.1,94.1,10.1z M72.7,12.6c-0.1,0.2-0.1,0.5-0.2,0.8c-0.1,0.3-0.1,0.5-0.2,0.8c0,0.3-0.1,0.6-0.1,0.9
	c0,0.3,0,0.6,0,0.9c0,0.4,0.2,0.8,0.5,1.1c0.4,0.3,0.8,0.5,1.3,0.6c1.3,0.2,2.9,0.2,4.6,0.2c0.2,0,0.3,0,0.5,0c0.2,0,0.3,0,0.5,0
	c0.3,0,0.5-0.1,0.6-0.2c0.2-0.1,0.3-0.3,0.3-0.5c0,0,0-0.1,0-0.1s0-0.1,0-0.1c0-0.6-0.3-0.9-0.7-0.8c0,0-0.1,0-0.1,0c0,0,0,0-0.1,0
	c-0.1,0-0.3,0.1-0.4,0.2c-0.2,0.1-0.3,0.2-0.5,0.2c-0.1,0-0.3,0-0.4,0c-0.1,0-0.2,0-0.4,0c-1.7,0-2.9-0.1-3.5-0.5
	c-0.1-0.3-0.1-0.6-0.1-1c0.1-0.7,0.4-1.5,0.9-2.5c0.5-0.1,1.2-0.2,2-0.2c1,0,1.7,0,2.1-0.1c0.3,0,0.4,0,0.6-0.1
	c0.1-0.1,0.2-0.2,0.3-0.2c0.1,0,0.1-0.1,0.1-0.1c0.1,0,0.2-0.1,0.2-0.2c0-0.1-0.1-0.3-0.3-0.5c-0.3-0.2-0.7-0.3-1.2-0.3
	c-0.1,0-0.3,0-0.5,0c-0.2,0-0.5,0-0.7,0.1c-0.3,0-0.5,0-0.7,0.1c-0.2,0-0.4,0-0.5,0c-0.4,0-0.7-0.1-1-0.1c0.1-0.6,0.3-1.2,0.4-1.5
	c0.1-0.4,0.2-0.7,0.3-0.8c0.4-0.1,0.8-0.2,1.3-0.3c0.5-0.1,1.1-0.2,1.7-0.3c0.7-0.1,1.2-0.2,1.7-0.3c0.5-0.1,0.9-0.2,1.3-0.2
	c0.1,0,0.2-0.1,0.2-0.2c0-0.1,0-0.2-0.1-0.3c0-0.1-0.1-0.2-0.1-0.3c-0.6-0.3-1.1-0.5-1.6-0.5c-0.2,0-0.3,0-0.3,0
	C80,6,79.6,6,79.1,6.1c-0.4,0.1-0.9,0.1-1.3,0.2c-0.5,0.1-1,0.2-1.4,0.2c-0.4,0.1-0.8,0.2-1.2,0.3c-0.6,0.1-1.2,0.3-1.8,0.4
	c-0.6,0.2-1,0.5-1.1,0.9c-0.1,0.5,0.4,0.8,1.3,0.9c-0.1,0.6-0.3,1.1-0.3,1.4c-0.1,0.3-0.1,0.5-0.2,0.6c-0.1,0.1-0.2,0.2-0.5,0.3
	c-0.2,0.1-0.4,0.2-0.5,0.3c0,0,0,0.1,0,0.1C72.1,12.1,72.3,12.4,72.7,12.6z M81.6,36.9c-0.1,0-0.3,0-0.5,0c-0.2,0-0.5,0-0.8,0
	c-0.2,0-0.3,0-0.5,0c-0.7-0.1-1.2-0.2-1.6-0.3c-0.3-0.2-0.5-0.5-0.4-1.1c0-0.4,0.1-0.9,0.2-1.5c0.1-0.6,0.2-1.1,0.3-1.7
	c0.1-0.6,0.2-1.1,0.3-1.6c0.1-0.5,0.1-0.9,0.2-1.1c0-0.3,0-0.7,0.1-1.1c0-0.4,0-0.7-0.1-1.1c0-0.3-0.1-0.6-0.3-0.9
	c-0.1-0.2-0.3-0.4-0.5-0.5c-0.4-0.1-0.7-0.3-1.1-0.4c-0.1,0-0.3,0-0.6,0.1c-0.3,0.1-0.4,0.3-0.5,0.6c0,0.2,0,0.4,0,0.6
	c-0.1,0.8-0.2,1.8-0.4,3c-0.2,1.2-0.4,2.4-0.6,3.7c-0.2,1.3-0.4,2.6-0.7,4c-0.2,1.3-0.5,2.6-0.7,3.7c-0.2,1.1-0.4,2.1-0.5,2.9
	c-0.1,0.8-0.2,1.4-0.3,1.7c0,0.2-0.1,0.4-0.1,0.8c-0.1,0.4-0.1,0.7-0.1,0.9c0,0.5,0,1,0.1,1.3c0.1,0.3,0.3,0.6,0.4,0.8
	c0.2,0.2,0.4,0.4,0.6,0.5c0.2,0.1,0.5,0.1,0.7,0.2c0.2,0,0.6,0,1-0.1c0.2-2.4,0.5-4.5,0.9-6.3c0.3-1.8,0.7-3.3,1.1-4.5
	c0.3-0.1,0.7-0.1,1.1-0.1c0.1,0,0.3,0,0.5,0.1c0.2,0.1,0.5,0.1,0.8,0.2c0.3,0.1,0.5,0.1,0.8,0.2c0.2,0.1,0.4,0.1,0.6,0.1
	c0.1,0,0.2,0,0.3,0c0,0.3-0.1,0.7-0.2,1.2c-0.1,0.5-0.2,1.1-0.3,1.7c-0.1,0.6-0.2,1.1-0.3,1.7c-0.1,0.5-0.1,0.9-0.2,1.2
	c0,0.2,0,0.4-0.1,0.7c0,0.3-0.1,0.6-0.1,1c0,0.4-0.1,0.7-0.1,1c0,0.3-0.1,0.6-0.1,0.7c-0.1,1.3,0,2.4,0.3,3.1c0.3,0.7,1,1.2,2,1.3
	c0.2,0,0.3-0.1,0.5-0.2c0.1-0.2,0.2-0.4,0.2-0.6c0-0.4,0-0.9,0.1-1.3c0-0.5,0.1-0.9,0.1-1.4c0.1-0.9,0.2-2.1,0.4-3.6
	c0.2-1.5,0.5-3,0.8-4.7c0.3-1.7,0.6-3.4,0.9-5.2c0.3-1.8,0.6-3.5,0.9-5.2c0.3-1.6,0.6-3.1,0.8-4.4c0.2-1.3,0.4-2.4,0.5-3.1
	c0-0.4-0.2-0.6-0.5-0.9c-0.3-0.2-0.7-0.3-1.2-0.4c-0.1,0-0.2,0-0.3,0c-0.4,0-0.7,0.5-1,1.6c-0.5,2.6-1,5-1.4,7.1
	c-0.4,2.1-0.9,3.9-1.4,5.6C81.7,36.9,81.6,36.9,81.6,36.9z M144.4,84.8C144.4,84.8,144.4,84.8,144.4,84.8
	C144.4,84.8,144.4,84.8,144.4,84.8z M58.5,11.6c0,1.4,0,2.5,0.1,3.5c0,1,0.1,1.8,0.2,2.4c0.1,0.5,0.1,1,0.2,1.5
	c0.1,0.5,0.5,0.8,1,0.8c0.3,0,0.6,0,0.7-0.2c0.5-0.5,1-1.7,1.6-3.3c0.2-0.7,0.5-1.4,0.7-2.2c0.3-0.8,0.6-1.6,0.9-2.5
	c0,0.8,0,1.6,0,2.3c0,0.7,0,1.3,0,1.8c0,0.7,0.1,1.2,0.1,1.6c0,0.4,0,0.6,0,0.6c0.2,0.9,0.6,1.4,1.2,1.6c0.2,0.1,0.4,0.1,0.6,0
	c0.5-0.1,0.8-0.3,1-0.6c0.3-0.6,0.6-1.3,0.9-2.2c0.3-0.9,0.7-1.9,1.2-3.1c0.4-1.2,0.8-2.2,1.2-3c0.4-0.8,0.7-1.5,1-2
	c0,0,0.1-0.1,0.2-0.2c0.1-0.1,0.2-0.3,0.4-0.5c0.3-0.3,0.4-0.6,0.4-0.8c0-0.3-0.1-0.5-0.5-0.7c-0.2-0.1-0.4-0.2-0.7-0.2
	c-0.4,0-0.7,0.1-0.8,0.2c-0.7,0.9-1.4,2.2-2,3.7c-0.2,0.7-0.5,1.5-0.9,2.6c-0.3,1-0.7,2.3-1.2,3.7c0-0.8,0-1.7,0-2.6
	c0-0.9-0.1-1.8-0.1-2.7c0-1.3-0.2-2.3-0.5-3.1c0,0-0.1-0.1-0.2-0.1c-0.1,0-0.2-0.1-0.2-0.2c-0.2-0.1-0.4-0.1-0.6-0.1
	c-0.5,0-0.9,0.3-1,1.1C63.1,9,63,9.3,62.9,9.7c-0.1,0.3-0.2,0.6-0.4,0.9c-0.2,0.5-0.3,1-0.4,1.4c-0.1,0.4-0.2,0.8-0.3,1.1
	c-0.2,0.7-0.6,1.7-1.2,3.3c0-2.9,0-5.3,0-7.1c0-1.8-0.1-3.1-0.1-3.8c-0.2-0.5-0.6-0.7-1.1-0.8c-0.2,0-0.4,0-0.5,0
	c-0.2,0-0.4,0.1-0.5,0.3c-0.1,0.2-0.2,0.4-0.1,0.6c0.1,0.6,0.2,1.5,0.2,2.5C58.5,9.1,58.5,10.3,58.5,11.6z M21.2,47.1
	c-0.1,0-0.1-0.3-0.2-0.2l0,0.1C21.1,46.8,21.1,47.2,21.2,47.1z M127,56.3C127,56.3,127,56.3,127,56.3C127,56.3,127,56.3,127,56.3z
	 M124.5,57.5C124.4,57.5,124.4,57.5,124.5,57.5C124.4,57.5,124.4,57.5,124.5,57.5C124.4,57.5,124.4,57.5,124.5,57.5z M127.9,56.5
	C127.9,56.5,127.9,56.5,127.9,56.5C127.9,56.5,127.9,56.5,127.9,56.5z M123.7,57.7C123.7,57.7,123.7,57.7,123.7,57.7
	C123.7,57.7,123.7,57.7,123.7,57.7L123.7,57.7z M127.1,58.8C127.1,58.8,127.1,58.8,127.1,58.8C127,58.9,127.1,58.9,127.1,58.8z
	 M131.2,56.3C131.2,56.3,131.2,56.3,131.2,56.3C131.2,56.3,131.2,56.3,131.2,56.3L131.2,56.3z M123.8,57.4l0.1,0.3
	C123.9,57.7,123.8,57.3,123.8,57.4z M132.2,55.7L132.2,55.7c0,0,0-0.1,0-0.1L132.2,55.7z M128.9,57.7c0,0.1,0,0.1,0,0.1
	C128.9,57.9,128.9,57.9,128.9,57.7z M133.7,56.9c0,0,0-0.1,0-0.1c0,0,0,0,0,0L133.7,56.9z M128.8,57.9
	C128.8,57.9,128.9,57.9,128.8,57.9C128.8,57.8,128.8,57.8,128.8,57.9z M130.1,56.1c0,0,0,0.1,0.1,0.3L130.1,56.1z M135.1,56.7
	C135.1,56.7,135.1,56.6,135.1,56.7C135.1,56.6,135.1,56.6,135.1,56.7C135.1,56.7,135.1,56.7,135.1,56.7z M135.1,56.7
	C135.1,56.7,135.1,56.6,135.1,56.7c0-0.1,0-0.1,0-0.1C135.1,56.6,135.1,56.6,135.1,56.7z M129.1,56l-0.1,0.1L129.1,56L129.1,56z
	 M147.6,86.2l0.1-0.2C147.5,86,147.6,86.1,147.6,86.2z M146.3,85.3l-0.2,0L146.3,85.3L146.3,85.3z M148.9,86.9l-0.1-0.1
	C148.8,86.8,148.9,86.8,148.9,86.9z M153.2,88c-0.2-0.4,0,0.2-0.3,0.1l0.2,0.1C153.1,88.2,153.1,88,153.2,88z M138.2,82.7l-0.1,0.3
	C138.2,83,138.4,82.7,138.2,82.7z M152.4,87.6c-0.1,0.1-0.1,0.1-0.1,0.2C152.4,87.8,152.4,87.6,152.4,87.6z M136,56.3
	c0-0.1-0.1-0.3-0.1-0.2l0,0.3L136,56.3z M135.5,56.6L135.5,56.6L135.5,56.6C135.5,56.6,135.5,56.6,135.5,56.6z M133.8,55.6l0.2,0
	c0-0.1-0.1-0.2-0.1-0.3C133.6,55.1,134,55.6,133.8,55.6z M133.2,55.4c0,0.1,0,0.1,0,0.2C133.4,55.5,133.3,55.4,133.2,55.4z
	 M135.6,56.5L135.6,56.5C135.6,56.6,135.6,56.6,135.6,56.5z M131.1,56.3L131.1,56.3C131.1,56.3,131.1,56.3,131.1,56.3z M135.6,55.9
	c0,0,0.1,0.1,0.1,0.2c0-0.1,0.1,0.1,0.1-0.2C135.7,55.8,135.6,55.8,135.6,55.9c-0.1,0-0.1-0.1-0.1-0.2c0,0.2,0,0.5,0.1,0.7
	C135.6,56.2,135.6,56.3,135.6,55.9z M122.5,70.2c0-0.1,0-0.2-0.1-0.2c0,0,0,0,0,0.1L122.5,70.2z M131,69.9c0,0,0-0.1,0-0.1
	c0,0,0,0,0,0L131,69.9z M126.8,69.4c0,0.1,0,0.1-0.1,0.1C126.8,69.6,126.8,69.6,126.8,69.4z M132.3,70C132.3,70,132.3,70,132.3,70
	c0-0.1,0-0.1,0-0.1C132.3,70,132.3,70,132.3,70z M133.1,69.6c0-0.3-0.1-0.3-0.2-0.1c0-0.1,0-0.2,0-0.2c-0.1,0.2-0.1,0.4-0.1,0.7
	c0.1-0.3,0.1-0.2,0.1-0.6c0,0,0.1,0.1,0.1,0.2C133,69.6,133.1,69.8,133.1,69.6z M126.7,69.5C126.7,69.6,126.7,69.6,126.7,69.5
	C126.7,69.5,126.7,69.5,126.7,69.5z M132.3,70.1C132.4,70,132.4,70,132.3,70.1C132.4,70,132.4,70,132.3,70.1
	C132.4,70,132.3,70,132.3,70.1z M105.8,68.1L105.8,68.1c0-0.1,0-0.1,0-0.2L105.8,68.1z M124.9,59.7
	C124.9,59.7,124.9,59.7,124.9,59.7C124.9,59.7,124.9,59.7,124.9,59.7L124.9,59.7z M113.6,69.7L113.6,69.7L113.6,69.7L113.6,69.7z
	 M118.6,67.5c0.1,0.3-0.1,0.3,0,0.6C118.5,68,118.7,67.7,118.6,67.5z M122.4,68C122.4,68,122.4,68,122.4,68
	C122.4,68.1,122.4,68,122.4,68L122.4,68z M125,70C125,70,125,70,125,70C124.9,70.1,125,70,125,70z M123,70.2
	C123,70.2,123,70.2,123,70.2C123,70.2,123,70.2,123,70.2L123,70.2z M133.1,70L133.1,70c0.1-0.2,0.1-0.4,0-0.3L133.1,70z M119.5,58.9
	c0-0.1,0-0.5-0.1-0.6C119.5,58.6,119.3,58.7,119.5,58.9z M155.5,90l-0.2,0.3l0.1-0.1C155.5,90.1,155.6,89.9,155.5,90z M110.3,60.8
	C110.3,60.8,110.3,60.8,110.3,60.8C110.3,60.8,110.3,60.9,110.3,60.8C110.4,60.9,110.4,60.8,110.3,60.8
	C110.3,60.8,110.3,60.8,110.3,60.8z M105.6,62.7L105.6,62.7c0-0.1,0-0.1,0-0.2L105.6,62.7z M134.5,81.8c0.1,0,0.1,0.2,0.2,0.2
	C134.7,81.8,134.6,81.6,134.5,81.8z M124.4,59.8c0-0.1-0.1-0.1-0.1-0.2c0,0,0,0,0,0.1L124.4,59.8z M114.5,62L114.5,62L114.5,62
	L114.5,62z M122.2,58.1c-0.1,0,0.1,0.4,0,0.5c-0.1-0.1-0.2-0.2-0.3-0.5l0.1,0c-0.1-0.3-0.1,0-0.2,0l0-0.2c-0.2,0.1-0.1,0.5-0.3,0.5
	l0,0.1c0,0.4-0.1-0.2-0.2,0.1l-0.1-0.4c0,0.1-0.1,0.4-0.2,0.5c0-0.3,0.1-0.5,0.1-0.7c-0.1,0-0.2,0.1-0.2,0.3c0,0,0-0.1,0.1-0.1
	c0,0.3-0.1,0.5-0.2,0.5c-0.2-0.8-0.4-0.1-0.6-0.7c-0.2,0.3-0.5,0-0.7,0.1c0.2,0.6-0.1,0,0.1,0.6c-0.1,0-0.1,0-0.1,0c0,0,0,0,0,0
	c0,0,0,0,0,0l-0.3-0.3c-0.1-0.2,0-0.1,0-0.3c-0.1,0-0.1-0.2-0.2-0.4c0.1,0.2,0,0.3-0.1,0.3l0.2,0.2c-0.1,0.4-0.3-0.5-0.4-0.1l0-0.2
	c-0.1,0.1-0.4,0.1-0.3,0.6c0-0.1-0.1-0.2-0.1-0.3c-0.3,0-0.4,0.6-0.7,0.4l0-0.1c0,0.1,0,0.3-0.1,0.2c0-0.1,0-0.1,0-0.2
	c0,0.1-0.1,0.3-0.1,0.2l0-0.2c-0.3-0.1-0.3,0.5-0.4,0.6c-0.1-0.4-0.3-0.5-0.4-0.6l0-0.1c-0.3,0-0.4,0.5-0.6,0.7
	c-0.3-0.4-0.6-0.1-0.9-0.3c0.1,0.1,0.1,0.3,0,0.4c-0.1-0.1-0.1,0.3-0.2-0.1l0,0c-0.1-0.4-0.2-0.2-0.3-0.2l0.1,0.5
	c-0.4-0.7-0.6,0.4-0.9-0.2c0,0.1-0.1,0.2-0.1,0.3l-0.1-0.3c-0.2,0-0.3,0-0.5,0.1l0-0.2c-0.1,0,0,0.8-0.1,0.9l-0.1-0.4
	c-0.2,0.1-0.5-0.3-0.6,0.2c0-0.1,0-0.2,0-0.2c-0.1,0-0.4-0.2-0.3,0.4c-0.1-0.4-0.2,0-0.3,0.2l0-0.3c0,0.4,0,0.5-0.1,0.6
	c0,0-0.1-0.1,0-0.2c-0.1,0,0,0.3-0.1,0.2l0-0.2c-0.1,0-0.1,0.1-0.1,0.3c0,0.1-0.2,0-0.3-0.3c0,0.2,0,0.4-0.1,0.3c0-0.1,0-0.2,0-0.2
	c-0.2-0.1-0.2,0.4-0.4,0.1c0-0.1,0-0.1-0.1-0.2c0.1,0,0.2,0,0.2,0c-0.1-0.3-0.2-0.3-0.2-0.6c0,0.2-0.1,0.7-0.2,0.6c0,0,0,0,0-0.1
	l0,0c0,0,0,0-0.1,0.1c0,0-0.1-0.1-0.1-0.1c-0.1-0.2-0.2-0.1-0.2-0.1c0.1,0.3,0,0.2,0.1,0.5c0,0,0,0,0-0.1c0,0,0,0,0,0c0,0,0,0,0,0
	c0,0,0.1,0,0.1-0.1c0,0.1,0,0.3-0.1,0.1c0,0.2,0,0.4,0,0.5c-0.2-0.4-0.4-0.5-0.4-0.8c-0.1,0.2-0.4,0.2-0.4,0.7
	c0,0.1-0.1-0.1-0.1-0.2c0-0.1,0-0.1,0-0.1c-0.1,0.2-0.3,0.1-0.2,0.5c-0.2-0.1,0-0.3-0.2-0.2l0-0.1c-0.5-0.5-0.3,1-0.8,0.4
	c0,0,0.1,0.1,0.1,0.1c-0.5-0.2-0.8,0.5-1.3,0.1c-0.1-0.1-0.1,0.2-0.1,0.3l-0.1-0.3l0,0.4c-0.1,0.3-0.5-0.7-0.6-0.1l0.1,0.2
	c-0.1,0-0.2,0.2-0.3-0.1c0,0,0,0.2,0,0.1l0-0.2l-0.1,0.3c-0.2-0.1-0.1-0.6-0.3-0.6c-0.1,0.1-0.1,0.5-0.1,0.6c0,0,0.1,0.1,0.1,0.2
	l-0.1,0.1c0.1,0.5,0.1,0.9,0.4,1.2l0.1-0.3l0.1,0.2l-0.1,0c0.1,0.2,0.1,0,0.1-0.1c0,0.1,0.1,0.2,0.1,0.2l0-0.5
	c0.1,0.2,0,0.4,0.1,0.4c0-0.2-0.1-0.4-0.1-0.5c0.1,0.2,0.1,0.4,0.2,0.2c0,0.1,0,0.2,0,0.2c0-0.2,0.2-0.1,0.1-0.3
	c0.1,0.2,0.2-0.1,0.3,0.3c0-0.1,0-0.4,0.1-0.4c0,0.5,0.2,0,0.3,0.5c0-0.5,0.2-0.3,0.3-0.6c0,0,0,0.1,0,0.1c0.1,0,0.1,0.2,0.2,0.2
	c-0.1-0.4,0-0.5,0-0.7c0.2,0.3,0,0.5,0.2,0.8c-0.1-0.3,0.1-0.3,0-0.6c0.1,0.2,0.1,0.1,0.2,0.4c-0.1-0.5,0-0.1,0-0.4
	c0.2,0.2,0.1,0.4,0.2,0.3c0.1,0.1,0,0.3,0,0.3c0.1,0,0-0.4-0.1-0.6c0.1-0.1,0.1,0.2,0.2,0.4c0.1-0.1,0.1-0.5,0.1-0.5
	c0,0.1,0,0.1,0,0.2c0-0.3,0.3-0.1,0.3-0.5c0,0,0,0.1,0,0.1c-0.1-0.2-0.1-0.4-0.1-0.5c0.1,0,0-0.2,0.1,0c0,0,0,0.1,0,0.2l0-0.1
	c0.1,0.3,0,0.1,0,0.4c0.1-0.1,0.1-0.4,0.2-0.4c0.1,0.3-0.2,0.2,0,0.4l-0.2-0.1c0.2,0.5-0.1,0,0.1,0.5c0.2,0.1,0.1-0.2,0.3-0.2
	c0-0.2-0.1-0.3-0.1-0.5c0.2-0.4,0.4,0.8,0.5,0.3c0-0.2-0.1-0.7,0.1-0.5l0,0.4c0.2,0,0-0.6,0.2-0.3c0,0.2-0.1,0.2-0.1,0.2
	c0.2,0.3,0-0.2,0.1-0.3l0.1,0.3c0.2-0.1,0.3-0.4,0.5-0.5c0,0.1,0,0.2,0.1,0.3c0.2-0.2,0.5-0.1,0.8,0.1l0-0.3c0,0,0.1,0.1,0.1,0.2
	c0.1,0.1,0-0.2,0-0.3c0,0,0.1,0.1,0.1,0.2c0.1-0.3,0.3-0.6,0.6-0.4l0,0.1c0.2,0.1,0-0.6,0.2-0.4l0,0.1c0.3,0.1,0.6-0.3,0.9,0.1
	c-0.1-0.4,0.3,0.1,0.2-0.5c0.2,0.2,0.2,0.4,0.5,0.5c0.1,0,0-0.4,0.1-0.5l0.1,0.3l0-0.3l0.1,0.3l0.1-0.1c0,0-0.1-0.1-0.1-0.2
	c0.1-0.2,0.3,0.1,0.4,0.3l0.2-0.3c0,0.1,0,0.2,0,0.3c0.1-0.3,0.1,0.3,0.2,0c0-0.1,0-0.2,0-0.2c0.1,0.2,0.3,0.1,0.3,0l0,0.2
	c0.2,0,0.4-0.2,0.6-0.2c-0.1-0.1-0.2-0.4-0.1-0.5l0.1,0.3c0-0.2-0.1-0.1-0.1-0.4c0.1,0,0.1,0.3,0.1,0.5l0.1-0.1c0,0.1,0,0.1,0,0.3
	c0-0.2,0.2,0.3,0.2-0.1l0,0.1c0.2,0,0.3-0.2,0.5-0.2c-0.1-0.3,0-0.2,0-0.5c0.2,0.1,0.3,0.2,0.5,0.2c0.1-0.2,0-0.2,0-0.4
	c0.1,0.2,0.2,0.2,0.2,0.4c0.2-0.1,0.2-0.1,0.4-0.4c0-0.1-0.1-0.1-0.1-0.2c0-0.1,0.1,0.1,0.1,0.2l0,0c0.2-0.4,0.8,0.6,0.9,0l0,0
	l0.2-0.3c0.1,0,0,0.2,0.1,0.3c0.1-0.5,0.4,0,0.5-0.4c0.3,0.7,0.5-0.2,0.8,0.2l-0.1-0.2c0-0.2,0.1,0.1,0.1,0.1c0-0.1-0.1-0.1-0.1-0.2
	c0.4-0.3,1,0,1.5,0.1c0.2,0-0.1-0.9,0.2-0.6l0,0.3c0.2-0.5,0.7-0.1,1-0.6c0,0.1,0,0.2,0,0.2c0.1,0.2,0.3,0,0.2-0.2
	c0.1,0,0.1,0.2,0.1,0.3c0.1,0.1,0.1-0.3,0.2-0.1c0,0,0,0.1,0,0.1c0-0.1,0.2,0,0.1-0.3c0.2,0.1,0.2-0.2,0.3,0c0-0.3,0.2,0.1,0.2-0.3
	c0.1,0.4,0.3,0.3,0.3,0.1c0,0.1,0.1,0.1,0.1,0.3c0.1,0,0.2-0.1,0.1-0.4c0.3,0.5,0.2-0.5,0.5,0.2c0.2-0.3,0.4-0.5,0.6-0.7
	c0.1,0.4-0.3,0.1-0.1,0.6c0.2-0.2,0.2-0.6,0.5-0.6c0.1,0,0,0.2,0,0.3c0.2-0.2,0.4-0.1,0.6-0.4c0,0,0,0.1,0,0.1c0,0,0.1,0,0.1-0.2
	l0,0.1c-0.1-0.3,0-0.6,0-0.8c0.1,0.6,0.2,0.1,0.3,0.8c0,0,0-0.1,0-0.3c0,0,0.1,0.1,0.1,0.3c0.1-0.1,0-0.3,0.1-0.4c0,0.1,0,0.1,0,0.3
	c0-0.2,0-0.4,0.2-0.4c0,0.1,0,0.1,0,0.1c0.2-0.1,0.2-0.6,0.5-0.4c0,0.4,0.1,0.1,0.2,0.5l0.1-0.1l-0.1-0.2c0.1,0,0.1-0.3,0.2-0.2
	l0,0.2l0.2-0.1l-0.1-0.1c0.1-0.2-0.1-0.5,0-0.4c0,0,0.1,0,0.2,0.2c0,0,0,0,0,0c0-0.1,0-0.3,0.1-0.2c0,0.1,0.1,0.4,0.1,0.5
	c0-0.3,0.2-0.1,0.2-0.5c0,0.1,0,0.3,0.1,0.3l0-0.3c0.1,0.1,0.1,0.1,0.1,0.3c0.1,0-0.2-0.5,0.1-0.3c0,0,0,0.1,0,0.1
	c0.2,0.1,0.3-0.2,0.5-0.1c0.1,0.4-0.1,0.1,0,0.4c0.2-0.1,0.3-0.5,0.6-0.5l0,0c-0.1-0.5,0.2,0.2,0.3,0c0,0,0,0.3,0,0.2
	c0.2,0,0.3-0.2,0.4-0.4l0,0.1c0.1,0.1,0.2,0,0.3,0.1c0-0.1,0.1-0.1,0-0.3c0.5,0.7,0.4-0.5,0.8,0c0,0,0,0.1,0,0.1l0.2-0.2
	c-0.1-0.2-0.1-0.1-0.1-0.3c0-0.1,0-0.3,0.1-0.3c-0.1,0.2,0.1,0.4,0.2,0.5c0-0.1,0-0.1,0-0.2c0.2,0.4-0.1-0.5,0.1-0.2l0,0.1
	c0-0.1,0.1-0.2,0.1-0.2c0.1,0.3,0,0.1,0,0.4c0.1,0,0.1-0.5,0.2-0.3c0,0.1-0.1,0.1-0.1,0.2c0.2,0.3,0.1,0.2,0.2,0.2l0,0l0.2,0.1
	l-0.1-0.1c-0.1-0.7,0.2-0.2,0.2-0.7c0,0.5,0,0.2,0.1,0.5c0.1,0.1,0.1,0.2,0.1,0.2c0-0.3,0.2,0.2,0.2-0.2c0,0.1,0.1,0,0.1,0.2
	c0.1-0.1-0.1-0.2-0.1-0.3c0.1-0.4,0.4,0.3,0.5-0.2c0.1-0.2,0.1-0.6,0.2-0.7c0.1,0.1,0,0.4,0,0.4c0.1,0.1,0.2,0.1,0.2,0
	c0,0.1,0,0.2,0.1,0.3c0.1,0,0-0.4,0.1-0.2c0,0.1,0,0.3,0,0.4c0.1-0.1,0.1-0.3,0.1-0.4c0.1,0.2,0,0.3,0,0.4c0.1-0.1,0.2-0.2,0.2-0.5
	l-0.1-0.1c0,0,0.1,0.2,0.1,0.3c0,0.2-0.1-0.1-0.2-0.2l0-0.1c-0.2-0.5-0.2,0.1-0.3,0.1l0-0.4l0,0.4c0-0.1-0.1-0.3-0.1-0.4
	c-0.1-0.2,0,0.2-0.2,0c0,0,0-0.1,0-0.1l-0.1,0.1c0-0.1-0.1-0.3,0-0.2c-0.2-0.2-0.2,0.4-0.3,0.1l0,0c-0.2,0.2,0.1,0.3,0,0.7l-0.3-0.7
	l0.1,0.3c0,0-0.1,0-0.1-0.1c0,0.2,0,0.1,0,0.3c-0.2-0.2-0.2,0.2-0.4-0.3c0,0.2,0.1,0.2,0.1,0.3c-0.1-0.5-0.1,0.1-0.2-0.1
	c0-0.3,0.1-0.1-0.1-0.4c0.1,0.5-0.2-0.1-0.3,0c0,0.1,0,0.2,0,0.2c0-0.1,0-0.2,0-0.2c0-0.1,0-0.1-0.1-0.2c0,0,0,0.3,0.1,0.4
	c0,0.1-0.2,0-0.2,0.1c0-0.1-0.3-0.1-0.4-0.2l0-0.1c0.1,0.4-0.1,0.3-0.1,0.4c0-0.2-0.1-0.3,0-0.4l-0.1,0c0,0.1,0,0.2,0,0.2l0-0.3
	c-0.1,0-0.1,0.4-0.3,0.2c0.1,0.3,0.3,0.7,0.2,0.9c0-0.1-0.1-0.4-0.1-0.4c0,0,0,0.1-0.1,0.1l0-0.2c-0.1-0.1,0,0.2,0,0.2
	c0-0.2-0.1-0.1-0.1-0.3c0,0,0.1,0.1,0.1,0c-0.1,0-0.2-0.1-0.2-0.3c0,0.1,0.1,0.3,0,0.3c-0.1,0-0.1-0.2-0.2-0.3c0,0.1-0.1,0,0,0.3
	c0,0-0.1-0.1-0.1-0.2c0,0.1-0.3,0.1-0.1,0.4l0,0c0,0,0,0,0,0c-0.1,0.3-0.4-0.1-0.6,0.1l0-0.1c-0.1,0.1-0.2,0.1-0.3,0.3
	c0,0-0.1-0.2-0.1-0.3c-0.1,0.1-0.1,0.2-0.2,0.1c0-0.2-0.1-0.1,0.1-0.1c-0.1-0.1-0.2-0.2-0.2,0.1c0-0.3-0.2-0.3-0.2-0.2l0.1,0.2
	c-0.1,0-0.1,0-0.2,0l0-0.3c-0.3-0.3-0.2,0.8-0.6,0.1c0,0.2,0.2,0.1,0.2,0.4c-0.1,0-0.3-0.5-0.4-0.5c-0.2-0.1,0,0.5-0.2,0.4
	c0,0.1,0.1,0.4,0.1,0.5c-0.1,0-0.2-0.5-0.2-0.6c0,0,0,0,0.1,0.1c0,0,0.1-0.1,0-0.2l0,0.1c-0.1-0.1-0.2-0.1-0.2-0.3
	c-0.1,0.1,0,0.2,0.1,0.2c-0.2-0.1-0.2,0-0.4,0c0,0.1,0.1,0.2,0.1,0.2c-0.2-0.1,0,0.2-0.2,0.3c-0.1-0.2-0.1-0.4-0.2-0.2
	c-0.1-0.1-0.1-0.3-0.1-0.4c-0.1,0.3-0.3-0.1-0.3-0.1l0-0.1c0,0.1-0.1,0.1-0.1,0.1l0.1,0.2c0,0-0.1,0-0.1-0.1c0,0.2,0.1,0.4,0.1,0.6
	c-0.1-0.1-0.1,0.2-0.2-0.1c0.2,0.1-0.1-0.3,0-0.4c0,0-0.1,0-0.1,0c0,0,0-0.1,0-0.1c-0.2-0.2,0,0.4-0.2,0.4c0-0.2-0.1-0.3-0.1-0.3
	c0.1,0,0.1,0.3,0.1,0.4c-0.1-0.1-0.1,0.1-0.1,0.1l0.1,0c0,0.2,0,0.2-0.1,0.2c0-0.1,0-0.1,0-0.2c0,0.3-0.3-0.3-0.3,0
	c-0.1-0.1-0.1-0.3-0.1-0.4c-0.1,0.3-0.2-0.2-0.3,0c0.1,0.2,0.1,0.2,0,0.4l0.2-0.2l-0.1,0.4c0.1,0,0.1-0.2,0.2-0.1c0,0.2,0,0.1,0,0.3
	c-0.2-0.3-0.1,0.2-0.3,0l-0.1-0.6c-0.2-0.2-0.2,0.4-0.4,0.3l0.1,0.1c0,0.2-0.1,0.1-0.2,0.2c0-0.2-0.1-0.3-0.2-0.4
	c0,0.1-0.1,0-0.1,0.4l-0.1-0.2c-0.2-0.1-0.1,0.6-0.2,0.6c0-0.2-0.1-0.3,0-0.5c-0.1,0-0.1,0-0.1,0.1c-0.1-0.1-0.1,0.3-0.2,0.1
	c0,0.1,0,0.3,0,0.3c0,0,0-0.1,0-0.1c0,0.1-0.1,0.2,0,0.4c-0.3-0.6-0.4,0.1-0.7-0.3c-0.1,0.1-0.2,0.2-0.3,0.2c0-0.1,0-0.1,0-0.1
	c-0.2-0.1,0,0.6-0.2,0.4c-0.2-0.3,0-0.2,0-0.3c-0.2-0.6-0.2,0.1-0.4-0.2l0,0c-0.1-0.2-0.1,0.3-0.3,0.3c0,0,0-0.1,0-0.1
	c0,0.3-0.2,0.5-0.3,0.6C122.2,58.3,122.3,58.4,122.2,58.1z M110.3,60.5C110.3,60.5,110.3,60.6,110.3,60.5c0,0,0-0.1,0-0.1
	C110.3,60.4,110.4,60.4,110.3,60.5C110.4,60.5,110.3,60.5,110.3,60.5z M111,62.3C111,62.3,111,62.3,111,62.3
	C111,62.3,111,62.3,111,62.3C111,62.3,111,62.3,111,62.3z M111.1,62.2c0-0.1,0-0.2,0-0.2c0,0.1,0.1,0.1,0.1,0.2
	C111.2,62.2,111.2,62.2,111.1,62.2z M154.4,90c0.2,0,0.4,0,0.5-0.3l-0.1-0.1c0.1,0,0,0.2-0.1,0.3c-0.2,0.2-0.1-0.1-0.1-0.2l0.1,0
	c0.1-0.6-0.4,0-0.5-0.1l0.2-0.4l-0.3,0.3c0-0.1,0-0.3,0.1-0.4c-0.1-0.2-0.2,0.1-0.2-0.1c0,0,0-0.1,0-0.1l-0.2,0.1
	c0.1-0.1,0.1-0.3,0.1-0.2c-0.1-0.3-0.4,0.2-0.4-0.1l0,0c-0.3,0-0.1,0.3-0.5,0.5l0.1-0.8l-0.1,0.3c0,0-0.1-0.1,0-0.2
	c-0.2,0.2,0,0.1-0.1,0.3c-0.1-0.3-0.4,0-0.3-0.5c-0.1,0.2,0.1,0.2-0.1,0.3c0.1-0.5-0.2,0-0.3-0.2c0.1-0.2,0.2-0.1,0.1-0.3
	c-0.2,0.4-0.2-0.2-0.4-0.1c-0.1,0.3-0.3,0.1-0.5,0.1c0-0.1-0.3-0.3-0.4-0.5l0-0.1c-0.1,0.3-0.3,0.2-0.5,0.2c0.1-0.2,0.1-0.3,0.2-0.4
	l-0.1,0c-0.1,0.1-0.1,0.1-0.2,0.2l0.1-0.3c-0.2,0-0.4,0.2-0.6,0c-0.1,0.2-0.1,0.7-0.3,0.8c0-0.1,0.1-0.4,0.2-0.4c0,0-0.1,0.1-0.1,0
	l0.2-0.2c-0.1-0.1-0.1,0.2-0.2,0.1c0.1-0.2,0-0.2,0-0.3c0,0,0,0.1,0.1,0c-0.1-0.1-0.1-0.2-0.1-0.4c0,0.1-0.1,0.3-0.2,0.3
	c-0.2,0,0-0.2,0-0.4c-0.1,0.1-0.1-0.1-0.2,0.2c0,0,0-0.2,0-0.2c-0.1,0.1-0.4-0.1-0.4,0.2l0,0c0,0,0,0,0,0c-0.4,0.2-0.5-0.4-0.8-0.3
	l0-0.1c-0.2,0.1-0.4-0.1-0.6,0.1c0,0-0.1-0.2,0-0.3c-0.2,0-0.2,0.1-0.3-0.1c0.2-0.1,0-0.2,0.2-0.1c-0.1-0.1-0.1-0.3-0.4-0.1
	c0.1-0.2,0-0.3-0.1-0.3L147,86c-0.1,0-0.2,0-0.2-0.1l0.1-0.3c-0.2-0.5-0.8,0.5-0.9-0.3c-0.2,0.2,0.1,0.2,0,0.4
	c-0.1-0.1-0.2-0.6-0.2-0.6c-0.2-0.2-0.4,0.4-0.5,0.2c0,0.1-0.1,0.4-0.3,0.5c-0.1-0.1,0-0.5,0.1-0.6c0,0,0,0,0,0.1
	c0.1,0,0.1-0.1,0.1-0.2l-0.1,0.1c0-0.1-0.3-0.2-0.1-0.4c-0.2,0.1-0.1,0.2,0,0.3c-0.1-0.2-0.3-0.1-0.5-0.3c0,0.1,0,0.2,0,0.2
	c-0.3-0.2-0.2,0.2-0.4,0.2c-0.1-0.2,0.2-0.4-0.1-0.3c-0.1-0.2,0.1-0.3,0.2-0.4c-0.3,0.2-0.3-0.3-0.4-0.3l0.1-0.1c-0.1,0-0.1,0-0.2,0
	l0,0.2c0-0.1-0.1-0.1-0.1-0.2c-0.1,0.1-0.1,0.4-0.3,0.6c0-0.1-0.3,0-0.2-0.3c0.2,0.2,0.1-0.3,0.3-0.3c-0.1,0-0.1,0-0.1-0.1
	c0,0,0-0.1,0.1-0.1c-0.1-0.3-0.2,0.3-0.5,0.2c0.1-0.2,0-0.3,0-0.3c0.1,0,0,0.3-0.2,0.4c-0.1-0.2-0.2,0-0.3,0l0.1,0.1
	c-0.1,0.2-0.2,0.1-0.3,0.1c0-0.1,0.1-0.1,0.1-0.1c-0.2,0.3-0.2-0.4-0.4-0.3c0-0.1,0.1-0.3,0.1-0.4c-0.3,0.2-0.1-0.3-0.4-0.2
	c0,0.2,0,0.2-0.2,0.4l0.4-0.1l-0.3,0.3c0.1,0,0.3-0.1,0.3,0c-0.2,0.2-0.1,0.1-0.1,0.3c0-0.4-0.3,0.1-0.4-0.2l0.2-0.6
	c-0.1-0.3-0.5,0.2-0.8-0.1l0.1,0.1c-0.1,0.2-0.2,0-0.3,0c0.1-0.2,0-0.3,0-0.4c0,0.1-0.2-0.1-0.4,0.3l-0.1-0.3
	c-0.2-0.2-0.5,0.4-0.7,0.3c0.1-0.2,0.1-0.3,0.3-0.4c-0.1,0-0.1-0.1-0.2,0c0-0.1-0.3,0.2-0.3,0c-0.1,0.1-0.1,0.3-0.2,0.2
	c0,0,0-0.1,0-0.1c0,0.1-0.2,0.1-0.2,0.3c0-0.7-0.7-0.2-0.7-0.7c-0.2,0-0.4,0-0.6,0c0-0.1,0-0.1,0.1-0.1c-0.2-0.2-0.3,0.5-0.5,0.2
	c0-0.3,0.2-0.1,0.1-0.3c0.2-0.6-0.3,0-0.4-0.4l0.1,0c-0.1-0.3-0.4,0.1-0.6,0c0,0,0-0.1,0-0.1c-0.2,0.3-0.5,0.3-0.8,0.3
	c0.1-0.2,0.1-0.1,0.2-0.4c-0.1,0-0.1,0.4-0.3,0.4c0-0.2-0.1-0.3,0-0.6l0.2,0c0-0.4-0.2-0.1-0.3-0.1l0.1-0.1c-0.3,0-0.4,0.3-0.7,0.2
	l0,0.1c-0.3,0.3-0.1-0.2-0.3,0l0.1-0.4c-0.1,0.1-0.5,0.2-0.7,0.3c0.2-0.2,0.4-0.3,0.6-0.4c-0.1,0-0.3-0.1-0.5,0.1
	c0.1,0,0.1-0.1,0.2,0c-0.2,0.3-0.4,0.3-0.6,0.3c0.3-0.7-0.4-0.3-0.4-1c-0.4,0.2-0.6-0.3-1.1-0.4c0,0.6-0.1,0-0.3,0.6
	c-0.1,0-0.1,0-0.1,0c0,0,0,0,0,0c0,0,0,0,0,0l-0.2-0.4c0-0.2,0.1-0.1,0.2-0.2c-0.2-0.1,0-0.3-0.1-0.5c0,0.2-0.2,0.3-0.3,0.2l0.1,0.3
	c-0.4,0.2-0.1-0.6-0.5-0.4l0.2-0.2c-0.2,0.1-0.5-0.2-0.8,0.2c0-0.1,0-0.2,0.1-0.3c-0.3-0.2-0.9,0.2-1.1-0.1l0.1-0.1
	c-0.1,0-0.2,0.2-0.2,0.1c0-0.1,0.1-0.1,0-0.2c-0.1,0-0.3,0.2-0.3,0.1l0.1-0.1c-0.3-0.3-0.7,0.2-1,0.2c0.1-0.4-0.1-0.6-0.2-0.8l0-0.1
	c-0.4-0.2-0.8,0.1-1.2,0.2c-0.1-0.5-0.7-0.4-1-0.8c0,0.1-0.1,0.3-0.2,0.3c-0.1-0.1-0.3,0.2-0.2-0.2l0,0c0.1-0.4-0.2-0.4-0.3-0.4
	l-0.2,0.5c-0.1-0.8-1,0-1-0.8c-0.1,0.1-0.2,0.1-0.4,0.2l0.1-0.3c-0.2-0.1-0.3-0.2-0.7-0.3l0.1-0.2c-0.2-0.1-0.5,0.7-0.6,0.7l0.1-0.4
	c-0.3-0.1-0.5-0.5-0.9-0.3c0-0.1,0.1-0.2,0.1-0.2c-0.1-0.1-0.5-0.4-0.6,0.1c0.1-0.4-0.3-0.1-0.5,0l0.1-0.3c-0.2,0.3-0.3,0.4-0.5,0.4
	c0,0,0-0.1,0-0.2c-0.1-0.1-0.2,0.2-0.3,0l0.1-0.1c-0.1-0.1-0.2,0-0.3,0.2c-0.1,0.1-0.3-0.2-0.2-0.4c-0.1,0.1-0.2,0.3-0.3,0.2
	c0-0.1,0.1-0.1,0.1-0.2c-0.2-0.3-0.5,0.2-0.6-0.1c0-0.1,0-0.1,0-0.2c0.2,0.1,0.4,0.1,0.3,0.2c0.1-0.2-0.1-0.3,0.2-0.6
	c-0.2,0.1-0.5,0.5-0.7,0.3c0,0,0-0.1,0-0.1l0,0c0,0-0.1,0-0.1,0c0-0.1-0.1-0.1-0.1-0.1c0-0.2-0.2-0.2-0.2-0.2
	c-0.1,0.3-0.2,0.2-0.1,0.4c0,0,0,0,0.1,0c0,0,0,0,0,0c0,0,0,0,0,0c0.1,0,0.1,0,0.2,0c-0.1,0.1-0.2,0.2-0.3,0
	c-0.1,0.2-0.2,0.3-0.3,0.4c0-0.4-0.1-0.7-0.1-0.9c-0.3,0.1-0.6-0.1-0.9,0.4c-0.1,0,0-0.2,0-0.3c0.1,0,0.1,0,0.1-0.1
	c-0.2,0.1-0.4-0.1-0.6,0.3c-0.1-0.2,0.2-0.3-0.1-0.3l0.1-0.1c-0.3-0.7-1.1,0.6-1.4-0.3c0,0.1,0,0.1,0,0.1c-0.5-0.5-1.4-0.1-1.8-0.8
	c-0.1-0.2-0.2,0.1-0.4,0.2l0.1-0.3l-0.3,0.3c-0.3,0.2-0.2-0.8-0.7-0.5l0,0.2c-0.1-0.1-0.4,0-0.3-0.2c0,0-0.1,0.2-0.1,0.1l0-0.2
	l-0.4,0.2c-0.2-0.2,0.2-0.6-0.1-0.7c-0.1,0-0.5,0.3-0.5,0.4c0,0,0.1,0.1,0,0.3l-0.1,0c-0.2,0.4-0.4,0.9-0.2,1.3l0.3-0.2l0,0.2
	l-0.2,0c0,0.2,0.1,0.1,0.2,0c0,0.1,0,0.2,0,0.3l0.3-0.4c0,0.2-0.2,0.3-0.1,0.5c0.2-0.2,0-0.4,0.2-0.5c0,0.2-0.1,0.4,0.1,0.2
	c0,0.1-0.1,0.2-0.1,0.2c0.1-0.1,0.3,0,0.4-0.2c0,0.3,0.3,0,0.2,0.5c0.1-0.1,0.3-0.3,0.4-0.3c-0.3,0.4,0.3,0.1,0.1,0.7
	c0.3-0.4,0.5-0.1,0.8-0.2c0,0-0.1,0.1-0.1,0.1c0.1,0.1,0.1,0.2,0.1,0.3c0.1-0.4,0.3-0.4,0.5-0.6c0,0.4-0.2,0.4-0.3,0.8
	c0.1-0.3,0.3-0.2,0.4-0.5c0,0.3,0.1,0.1,0,0.5c0.2-0.5,0.1,0,0.3-0.3c0.1,0.3-0.1,0.4,0.1,0.4c0,0.2-0.2,0.3-0.2,0.3
	c0.2,0.1,0.2-0.3,0.3-0.5c0.2,0,0,0.3,0,0.5c0.2,0,0.4-0.3,0.5-0.3c0,0.1,0,0.1,0,0.2c0.2-0.2,0.4,0.1,0.7-0.2c0,0,0,0.1,0,0.1
	c0-0.2,0.1-0.4,0.1-0.5c0.1,0,0.2-0.2,0.2,0.1c0,0-0.1,0.1-0.1,0.1l0.1-0.1c0,0.4-0.2,0.1-0.2,0.3c0.2-0.1,0.5-0.3,0.6-0.1
	c-0.1,0.3-0.3,0-0.3,0.4l-0.2-0.2c0,0.6-0.1-0.1-0.1,0.5c0.2,0.2,0.3-0.1,0.6,0.1c0.1-0.2,0.1-0.3,0.2-0.4c0.5-0.2,0,0.9,0.4,0.6
	c0.1-0.2,0.3-0.6,0.4-0.3l-0.2,0.3c0.2,0.1,0.3-0.5,0.5-0.2c-0.1,0.1-0.2,0.1-0.2,0.1c0.1,0.3,0.2-0.2,0.3-0.1l-0.1,0.3
	c0.3,0,0.6-0.1,0.9-0.1c0,0.1-0.1,0.2-0.1,0.3c0.4,0,0.8,0.3,1,0.6l0.2-0.2c0,0,0,0.1,0,0.2c0.1,0.2,0.1-0.2,0.2-0.3
	c0.1,0,0,0.2,0,0.3c0.3-0.2,0.8-0.3,1,0.1L120,79c0.2,0.2,0.4-0.5,0.5-0.2l-0.1,0c0.4,0.3,0.9,0.2,1.1,0.7c0.2-0.4,0.4,0.3,0.6-0.2
	c0.2,0.4,0.1,0.4,0.3,0.7c0.1,0.1,0.3-0.3,0.4-0.3l-0.1,0.3l0.3-0.3l0,0.4l0.1,0c0,0,0-0.2,0-0.2c0.2-0.1,0.3,0.3,0.3,0.5l0.5-0.1
	c0,0.1-0.1,0.1-0.2,0.2c0.3-0.2-0.1,0.3,0.2,0.1c0-0.1,0.1-0.2,0.1-0.2c0,0.2,0.3,0.3,0.4,0.3l-0.1,0.2c0.3,0.1,0.6,0.1,1,0.2
	c-0.1-0.1,0.1-0.5,0.2-0.5l-0.1,0.3c0.1-0.2-0.1-0.1,0.1-0.3c0.1,0.1,0,0.4-0.1,0.5l0.2-0.1c0,0.1-0.1,0.1-0.1,0.2
	c0.1-0.2,0.2,0.4,0.4,0.1l0,0.1c0.3,0.1,0.5,0.1,0.8,0.1c0.1-0.3,0.2-0.2,0.3-0.4c0.2,0.1,0.3,0.4,0.6,0.5c0.2-0.1,0.1-0.2,0.2-0.3
	c-0.1,0.2,0.2,0.3,0,0.4c0.3,0.1,0.4,0.1,0.8,0c0-0.1,0-0.2,0-0.2c0.1,0,0.1,0.2,0.1,0.3l0,0c0.5-0.2,0.7,1,1.2,0.6l0,0l0.4-0.2
	c0.1,0.1-0.2,0.2-0.1,0.3c0.5-0.3,0.5,0.2,0.9,0.1c0,0.8,0.8,0.2,1,0.8l0-0.2c0.1-0.1,0.1,0.1,0.1,0.2c0-0.1,0-0.2,0-0.3
	c0.7,0,1.3,0.7,2,1.1c0.2,0.1,0.4-0.8,0.6-0.3l-0.2,0.3c0.6-0.2,1,0.4,1.6,0.2c-0.1,0.1-0.1,0.2-0.1,0.1c0,0.3,0.4,0.1,0.4,0
	c0.1,0,0,0.2,0,0.3c0.1,0.2,0.4-0.2,0.3,0c0,0-0.1,0.1-0.1,0.1c0.1-0.1,0.3,0.1,0.3-0.2c0.1,0.2,0.4,0,0.5,0.2
	c0.2-0.3,0.3,0.2,0.4-0.2c-0.2,0.4,0.2,0.5,0.4,0.3c-0.1,0.1,0.1,0.2,0,0.3c0.1,0,0.3,0,0.3-0.2c0.1,0.6,0.6-0.2,0.6,0.5
	c0.5-0.1,0.9-0.1,1.3-0.1c-0.2,0.4-0.4-0.1-0.5,0.4c0.4-0.1,0.7-0.4,1-0.2c0.1,0.1-0.1,0.2-0.2,0.2c0.4-0.1,0.6,0.3,1,0.1
	c0,0-0.1,0.1-0.1,0.1c0.1,0,0.1,0.1,0.2-0.1l-0.1,0c0-0.3,0.4-0.5,0.5-0.7c-0.3,0.5,0.3,0.2-0.1,0.9c0.1,0,0.1-0.1,0.2-0.2
	c0,0.1,0,0.1-0.1,0.3c0.2,0,0.2-0.3,0.4-0.2c0,0.1-0.1,0.1-0.1,0.2c0.2-0.2,0.3-0.3,0.5-0.2c0,0.1,0,0.1-0.1,0.1
	c0.3,0.1,0.6-0.3,0.9-0.1c-0.2,0.4,0.1,0.2,0,0.5l0.2-0.1l0-0.2c0.1,0.1,0.4-0.2,0.4,0l-0.2,0.1l0.3,0l-0.1-0.2
	c0.2-0.1,0.1-0.5,0.3-0.3c-0.1,0,0.1,0.1,0.2,0.3c0,0,0,0,0,0c0.1-0.1,0.2-0.2,0.3-0.1c0,0.1-0.2,0.4-0.2,0.5c0.2-0.3,0.4,0,0.6-0.3
	c-0.1,0.1-0.1,0.2-0.1,0.3l0.1-0.2c0,0.1,0,0.1,0,0.3c0.2,0.1,0.1-0.5,0.3-0.2c0,0,0,0.1-0.1,0.1c0.2,0.2,0.5,0,0.7,0.2
	c-0.1,0.4-0.2,0-0.2,0.3c0.3,0,0.8-0.2,1.1,0l0-0.1c0.2-0.5,0.2,0.3,0.4,0.1c-0.1,0-0.1,0.3-0.1,0.2c0.2,0.2,0.5,0,0.9,0l-0.1,0.1
	c0.1,0.2,0.3,0.2,0.4,0.3C149,88,149,88,149,87.8c0.2,0.9,0.9-0.1,1.1,0.6c0,0-0.1,0.1-0.1,0.1l0.4,0c0-0.2,0-0.1,0-0.3
	c0.1-0.1,0.2-0.2,0.3-0.2c-0.2,0.1-0.1,0.4-0.1,0.5c0-0.1,0.1-0.1,0.1-0.2c0,0.4,0.2-0.4,0.3-0.1l0,0.1c0.1,0,0.2-0.2,0.3-0.1
	c0,0.3-0.1,0.1-0.2,0.3c0.1,0,0.4-0.4,0.4-0.1c-0.1,0.1-0.2,0-0.2,0.1c0,0.3,0.1,0.3,0.1,0.3l0,0l0.2,0.2l0-0.1
	c0.4-0.6,0.4,0,0.7-0.4c-0.3,0.3-0.1,0.2-0.2,0.5c0,0.1,0.1,0.2,0,0.3c0.2-0.2,0.1,0.2,0.4-0.1c0,0.1,0.1,0,0,0.3
	c0.2,0,0-0.2,0.1-0.3c0.3-0.2,0.4,0.5,0.8,0.2c0.3-0.1,0.5-0.4,0.7-0.5c0,0.2-0.2,0.3-0.2,0.3c0.1,0.2,0.2,0.2,0.3,0.1
	c-0.1,0.1,0,0.1,0,0.3c0.1,0,0.2-0.3,0.3-0.1c-0.1,0.1-0.1,0.3-0.2,0.3c0.1,0,0.3-0.2,0.5-0.2C154.6,89.8,154.5,89.9,154.4,90z
	 M117.8,78C117.8,77.9,117.8,77.9,117.8,78C117.8,77.9,117.8,77.9,117.8,78C117.9,78,117.8,78,117.8,78z M118,76.1
	C118,76.1,118,76.1,118,76.1C118,76,118.1,76,118,76.1c0.1-0.1,0.1-0.1,0.1,0C118.1,76.1,118.1,76.1,118,76.1z M118.1,78
	c0-0.1,0.1-0.2,0.1-0.2c0,0.1,0,0.1,0.1,0.2C118.2,78,118.1,78,118.1,78z M134.8,56.7c0,0,0.2,0.2,0.2,0.1l0-0.1
	C134.9,56.9,134.8,56.5,134.8,56.7z M154.7,90.2C154.7,90.2,154.7,90.1,154.7,90.2L154.7,90.2L154.7,90.2z M155.5,89.8
	c0-0.3-0.1-0.3-0.3-0.2c0-0.1,0-0.2,0.1-0.2c-0.1,0.1-0.3,0.4-0.3,0.7c0.2-0.3,0.2-0.1,0.4-0.5c0.1,0,0.1,0.1,0,0.3
	C155.3,89.9,155.4,90,155.5,89.8z M154.8,90.1L154.8,90.1C154.8,90.1,154.8,90.1,154.8,90.1z M121.5,58.3c-0.1-0.1-0.1-0.2-0.2-0.1
	C121.4,58.2,121.5,58.3,121.5,58.3z M16,63l0.1,0.1C16.1,63,16,63.1,16,63z M17.5,63.3l0,0.3C17.5,63.5,17.4,63.5,17.5,63.3z
	 M12.6,73.4l-0.1-0.2l0,0.2L12.6,73.4z M12.5,63.2c0.1-0.1,0.1-0.1,0-0.2C12.4,63.1,12.5,63.2,12.5,63.2z M44.6,71.3L44.6,71.3
	c0.1-0.6,0.1-1-0.2-1.3l-0.1,0.3L44.2,70l0.1,0c-0.1-0.2-0.1,0-0.2,0.1c0-0.1-0.1-0.2-0.1-0.2l-0.1,0.5c0-0.2,0-0.4-0.1-0.5
	c-0.1,0.2,0.1,0.4,0,0.5c-0.1-0.2-0.1-0.4-0.2-0.2c0-0.1,0-0.2,0-0.3c-0.1,0.2-0.2,0.1-0.2,0.3c-0.1-0.3-0.3,0.1-0.3-0.3
	c0,0.1-0.1,0.4-0.2,0.4c0.1-0.5-0.3,0-0.3-0.6c-0.1,0.5-0.4,0.2-0.5,0.5c0,0,0-0.1,0-0.1c-0.1,0-0.1-0.2-0.2-0.3
	c0,0.4-0.1,0.5-0.2,0.7c-0.2-0.4,0-0.5,0-0.8c0,0.3-0.2,0.3-0.1,0.6c-0.1-0.2-0.1-0.1-0.2-0.4c0,0.5-0.1,0.1-0.1,0.4
	c-0.2-0.2-0.1-0.5-0.2-0.3c-0.1-0.1,0-0.3,0-0.3c-0.2,0,0,0.4-0.1,0.6c-0.2,0.1-0.1-0.3-0.2-0.4c-0.1,0.1-0.2,0.5-0.3,0.4
	c0-0.1,0-0.1,0-0.2c-0.1,0.3-0.4,0-0.5,0.4c0,0,0-0.1,0-0.1c0,0.2,0.1,0.4,0.1,0.5c-0.1,0-0.1,0.2-0.2,0c0,0,0-0.1,0.1-0.2L40,71
	c-0.1-0.3,0.1-0.1,0.1-0.4c-0.1,0.1-0.3,0.4-0.4,0.3c-0.1-0.3,0.2-0.1,0.1-0.4l0.2,0.1c-0.2-0.5,0.1,0-0.1-0.5
	c-0.2-0.1-0.2,0.2-0.5,0.1c0,0.2,0,0.3,0,0.5c-0.3,0.4-0.3-0.8-0.5-0.4c0,0.2,0,0.7-0.2,0.4l0-0.4c-0.2,0-0.1,0.6-0.3,0.3
	c0-0.2,0.2-0.1,0.1-0.2c-0.2-0.3-0.1,0.2-0.2,0.2l-0.1-0.3c-0.2,0.1-0.5,0.3-0.7,0.4c0-0.1,0-0.2,0-0.3c-0.3,0.2-0.7,0-1-0.2
	l-0.1,0.3c0,0-0.1-0.1,0-0.2c-0.1-0.1,0,0.2,0,0.3c-0.1,0-0.1-0.2-0.1-0.3c-0.2,0.3-0.6,0.6-0.8,0.3l0-0.1c-0.2-0.1-0.1,0.6-0.3,0.4
	l0-0.1c-0.4-0.1-0.8,0.2-1.1-0.2c0,0.4-0.4-0.2-0.4,0.4c-0.2-0.3-0.2-0.4-0.5-0.5c-0.1,0-0.1,0.4-0.2,0.4l0-0.3L33,71.3l-0.1-0.4
	L32.8,71c0,0,0.1,0.1,0.1,0.2c-0.1,0.2-0.4-0.2-0.4-0.3l-0.3,0.3c0-0.1,0.1-0.2,0.1-0.3c-0.2,0.3-0.1-0.3-0.2,0c0,0.1,0,0.2,0,0.2
	c-0.1-0.2-0.3-0.2-0.4-0.1l0-0.2c-0.3,0-0.5,0.2-0.8,0.2c0.1,0.1,0.1,0.5,0,0.5l-0.1-0.3c0,0.2,0.1,0.1,0,0.4
	c-0.1,0-0.1-0.4-0.1-0.5l-0.1,0.1c0-0.1,0-0.2,0-0.3c0,0.2-0.3-0.3-0.3,0.1l0-0.1c-0.3,0-0.4,0.1-0.6,0.2c0,0.3-0.1,0.2-0.1,0.5
	c-0.2-0.1-0.4-0.3-0.6-0.2c-0.1,0.2,0,0.2-0.1,0.4c0-0.3-0.2-0.2-0.1-0.4c-0.2,0.1-0.3,0.1-0.6,0.3c0,0.1,0.1,0.1,0.1,0.2
	c-0.1,0-0.1-0.1-0.1-0.2l0,0c-0.3,0.4-0.9-0.7-1.1-0.1l0,0l-0.3,0.3c-0.1,0,0.1-0.2-0.1-0.3c-0.3,0.5-0.5,0-0.7,0.3
	c-0.3-0.7-0.7,0.1-1-0.3l0,0.2c-0.1,0.2-0.1-0.1-0.1-0.1c0,0.1,0.1,0.2,0.1,0.3c-0.6,0.3-1.3-0.1-1.9-0.2c-0.2,0,0,0.9-0.4,0.5
	l0-0.3c-0.4,0.4-0.9,0.1-1.3,0.4c0-0.1,0-0.2,0.1-0.2c-0.1-0.2-0.3,0-0.3,0.2c-0.1,0,0-0.2-0.1-0.3c-0.1-0.1-0.2,0.3-0.3,0.1
	c0,0,0-0.1,0-0.1c-0.1,0.1-0.3,0-0.2,0.3c-0.2-0.1-0.3,0.2-0.5,0c-0.1,0.3-0.3-0.1-0.3,0.3c0-0.5-0.3-0.3-0.4-0.1
	c0-0.1-0.1-0.1-0.1-0.3c-0.1,0-0.2,0.1-0.2,0.3c-0.3-0.5-0.4,0.5-0.6-0.2c-0.3,0.3-0.6,0.5-1,0.6c0-0.5,0.3-0.1,0.3-0.5
	c-0.3,0.2-0.4,0.6-0.7,0.5c-0.1-0.1,0-0.2,0-0.3c-0.3,0.2-0.6,0-0.8,0.3c0,0,0-0.1,0-0.1c-0.1,0-0.1-0.1-0.1,0.1l0-0.1
	c0.1,0.3-0.2,0.6-0.1,0.8c0-0.6-0.3-0.1-0.2-0.9c0,0-0.1,0.1,0,0.3c-0.1,0-0.1-0.1,0-0.3c-0.2,0.1-0.1,0.3-0.3,0.4
	c0-0.1,0-0.1,0-0.3c-0.1,0.2-0.1,0.4-0.3,0.3c0-0.1,0-0.1,0-0.1c-0.2,0.1-0.4,0.6-0.7,0.4c0-0.4-0.1-0.1-0.2-0.5l-0.1,0.1l0.1,0.2
	c-0.1,0-0.2,0.3-0.3,0.2l0.1-0.2L14,73.2l0.1,0.1c-0.1,0.2,0.1,0.5-0.1,0.4c0,0-0.1,0-0.2-0.2c0,0,0,0,0,0c-0.1,0.1-0.1,0.3-0.2,0.2
	c0-0.1,0-0.4,0-0.5c0,0.3-0.3,0.1-0.3,0.5c0-0.1,0-0.3,0-0.3l0,0.3c-0.1-0.1-0.1-0.1-0.1-0.3c-0.2,0,0.1,0.5-0.1,0.3
	c0,0,0-0.1,0-0.1c-0.2-0.1-0.4,0.2-0.6,0.1c-0.1-0.4,0.2-0.1,0.1-0.4c-0.3,0.1-0.5,0.5-0.8,0.4l0.1,0c0,0.5-0.2-0.2-0.3,0
	c0,0,0-0.3,0-0.2c-0.2-0.1-0.4,0.2-0.6,0.4l0-0.1c-0.1-0.1-0.3,0-0.4-0.1c0,0.1-0.1,0.1,0,0.3c-0.4-0.7-0.7,0.5-1.1-0.1
	c0,0,0.1-0.1,0.1-0.1L9,73.8c0,0.2,0,0.1,0.1,0.3c0,0.1-0.1,0.3-0.2,0.3c0.1-0.2,0-0.4-0.1-0.5c0,0.1,0,0.1,0,0.2
	c-0.2-0.4,0,0.5-0.2,0.2l0-0.1c-0.1,0.1-0.1,0.2-0.2,0.2c-0.1-0.3,0.1-0.1,0.1-0.4c-0.1,0-0.2,0.5-0.3,0.3c0-0.1,0.1-0.1,0.2-0.2
	c-0.1-0.3-0.1-0.2-0.2-0.3l0,0l-0.2-0.1L8,73.8c-0.1,0.7-0.3,0.2-0.4,0.6c0.1-0.4,0-0.3,0-0.6c-0.1-0.1-0.1-0.2-0.1-0.3
	c-0.1,0.3-0.2-0.2-0.3,0.2c0-0.1-0.1,0-0.1-0.2c-0.1,0.1,0,0.2,0,0.3c-0.1,0.3-0.5-0.4-0.7,0.1c-0.2,0.2-0.2,0.5-0.4,0.7
	c-0.1-0.1,0-0.4,0-0.4c-0.1-0.1-0.2-0.1-0.3,0c0-0.1,0-0.2-0.1-0.3c-0.1,0,0,0.4-0.2,0.2c0-0.1,0-0.3,0-0.4
	c-0.1,0.1-0.2,0.3-0.3,0.4c0-0.2,0-0.3,0.1-0.4c-0.1,0.1-0.3,0.2-0.3,0.5l0.1,0.1c0,0,0-0.2,0-0.3c0.1-0.2,0.2,0.1,0.2,0.2l-0.1,0.1
	c0.1,0.6,0.3-0.1,0.4-0.1l0,0.4l0.1-0.4c0,0.1,0.1,0.3,0,0.4C5.9,75,5.9,74.7,6,74.9c0,0,0,0.1,0,0.1l0.1-0.1c0,0.1,0,0.3,0,0.2
	c0.2,0.2,0.3-0.3,0.4,0l0,0c0.2-0.2,0-0.3,0.2-0.7l0.2,0.7l0-0.3c0,0,0.1,0,0.1,0.1c0.1-0.2,0-0.1,0-0.3c0.2,0.3,0.3-0.2,0.4,0.3
	c0-0.2-0.1-0.2,0-0.3c0.1,0.5,0.2-0.1,0.3,0.1c0,0.3-0.1,0.1,0,0.4c0-0.5,0.2,0.1,0.3,0c0-0.1,0-0.2,0-0.2c0,0.1,0,0.2,0,0.2
	c0,0.1,0,0.1,0,0.2c0,0,0-0.3,0-0.4c0.1-0.1,0.2,0,0.3-0.1c0,0.1,0.3,0.2,0.5,0.3l0,0.1c0-0.4,0.2-0.3,0.3-0.4C9,74.9,9,75,9,75.1
	l0.1,0c0-0.1,0-0.2,0.1-0.2l0,0.3c0.1,0,0.3-0.3,0.5-0.2c0-0.3-0.2-0.7,0-0.9c0,0.1,0,0.4,0,0.4c0,0,0.1-0.1,0.1-0.1l-0.1,0.2
	c0.1,0.1,0-0.2,0.1-0.2c0,0.2,0.1,0.1,0.1,0.3c0,0-0.1-0.1-0.1,0c0.1,0,0.2,0.1,0.2,0.3c0-0.1,0-0.3,0-0.3c0.1,0,0.1,0.2,0.2,0.3
	c0-0.1,0.1,0,0.1-0.3c0,0,0.1,0.1,0.1,0.2c0.1-0.1,0.3-0.1,0.2-0.4l0,0c0,0,0,0,0,0c0.2-0.3,0.5,0.1,0.8,0l0,0.1
	c0.1-0.1,0.3-0.1,0.4-0.3c0,0,0.1,0.2,0.1,0.3c0.1-0.1,0.1-0.2,0.3,0c-0.1,0.2,0.1,0.1-0.1,0.1c0.2,0.1,0.2,0.2,0.3-0.1
	c0,0.3,0.1,0.3,0.2,0.2l-0.1-0.2c0.1,0,0.1,0,0.2,0l0,0.3c0.3,0.4,0.5-0.7,0.8-0.1c0.1-0.2-0.2-0.1-0.1-0.4c0.1,0,0.3,0.5,0.4,0.5
	c0.2,0.2,0.1-0.5,0.3-0.4c0-0.1-0.1-0.4,0-0.6c0.1,0,0.2,0.5,0.1,0.6c0,0-0.1,0-0.1-0.1c0,0-0.1,0.1,0,0.2l0-0.1
	c0.1,0.1,0.3,0.1,0.2,0.3c0.1-0.1,0-0.2-0.1-0.3c0.2,0.2,0.3,0,0.5,0.1c0-0.1-0.1-0.2,0-0.2c0.3,0.1,0.1-0.2,0.3-0.3
	c0.1,0.2,0,0.4,0.2,0.3c0.1,0.1,0.1,0.3,0,0.4c0.1-0.2,0.3,0.1,0.4,0.2l-0.1,0.1c0-0.1,0.1-0.1,0.1-0.1L15.6,75c0.1,0,0.1,0,0.1,0.1
	c0-0.2-0.1-0.4,0-0.6c0.1,0.1,0.2-0.1,0.2,0.2C15.7,74.6,16,75,15.8,75c0,0,0.1,0,0.1,0c0,0,0,0.1,0,0.1c0.2,0.3,0.1-0.4,0.3-0.4
	c0,0.2,0.1,0.3,0.1,0.3c-0.1,0-0.1-0.3,0-0.4c0.1,0.1,0.1-0.1,0.2-0.1l-0.1-0.1c0-0.2,0.1-0.2,0.2-0.2c0,0.1-0.1,0.1,0,0.2
	c0.1-0.3,0.3,0.3,0.4,0.1c0.1,0.1,0,0.3,0.1,0.4c0.1-0.2,0.2,0.2,0.4,0c-0.1-0.2-0.1-0.2,0-0.4l-0.3,0.2l0.2-0.4
	c-0.1,0-0.2,0.2-0.2,0.1c0.1-0.2,0.1-0.1,0-0.3c0.2,0.3,0.2-0.2,0.4,0l0.1,0.6c0.2,0.2,0.3-0.3,0.6-0.2l-0.1-0.1
	c0-0.2,0.2,0,0.2-0.2c0,0.2,0.1,0.3,0.1,0.4c0-0.1,0.2,0,0.2-0.4l0.1,0.2c0.2,0.1,0.2-0.6,0.4-0.5c0,0.2,0.1,0.4-0.1,0.5
	c0.1,0,0.1,0,0.1-0.1c0.1,0.1,0.2-0.3,0.2-0.1c0-0.1,0-0.3,0.1-0.3c0,0,0,0.1,0,0.1c0-0.1,0.1-0.1,0-0.4c0.3,0.6,0.6-0.1,0.8,0.4
	c0.1-0.1,0.3-0.2,0.5-0.2c0,0.1,0,0.1,0,0.1c0.2,0.2,0.1-0.6,0.3-0.4c0.1,0.3-0.1,0.2,0,0.3c0.1,0.6,0.2-0.1,0.4,0.3l0,0
	c0.1,0.2,0.2-0.3,0.4-0.2c0,0,0,0.1,0,0.1c0.1-0.3,0.3-0.5,0.5-0.6c0,0.3-0.1,0.1,0,0.4c0.1,0-0.1-0.4,0.1-0.5
	c0.1,0.1,0.2,0.2,0.2,0.5l-0.1,0c0.1,0.3,0.2,0,0.3,0l0,0.2c0.2-0.1,0.2-0.5,0.4-0.5l0-0.1c0.1-0.4,0.1,0.2,0.2-0.1l0.1,0.4
	c0.1-0.1,0.3-0.4,0.4-0.5c-0.1,0.3-0.2,0.5-0.3,0.6c0.1,0,0.3-0.1,0.3-0.3c0,0-0.1,0.1-0.1,0.1c0.1-0.3,0.2-0.5,0.4-0.5
	c0,0.8,0.5,0.2,0.6,0.7c0.3-0.3,0.6,0.1,1,0c-0.2-0.6,0.1,0,0-0.6c0.1,0,0.1,0,0.1,0c0,0,0,0,0,0c0,0,0,0,0,0l0.3,0.3
	c0.1,0.2-0.1,0.1,0,0.3c0.2,0,0.1,0.3,0.2,0.4c0-0.2,0-0.3,0.1-0.2l-0.2-0.3c0.2-0.3,0.3,0.5,0.5,0.1l-0.1,0.2
	c0.1-0.1,0.5,0,0.6-0.5c0,0.1,0.1,0.2,0,0.3c0.3,0,0.6-0.6,0.9-0.3l0,0.2c0.1,0,0.1-0.3,0.2-0.1c0,0.1,0,0.2,0,0.2
	c0-0.1,0.1-0.3,0.2-0.2l-0.1,0.2c0.3,0.2,0.4-0.5,0.7-0.6c0,0.4,0.3,0.6,0.4,0.6l0,0.1c0.4,0,0.6-0.4,0.9-0.6
	c0.2,0.5,0.7,0.1,1.1,0.4c-0.1-0.1,0-0.3,0-0.4c0.1,0.1,0.2-0.3,0.2,0.1l0,0c0.1,0.4,0.2,0.3,0.4,0.3l0-0.5c0.4,0.7,0.8-0.4,1.1,0.3
	c0.1-0.1,0.2-0.1,0.2-0.3l0,0.3c0.2,0.1,0.3,0.1,0.6,0l0,0.2c0.2,0,0.1-0.8,0.3-0.9l0.1,0.4c0.3,0,0.6,0.3,0.8-0.1
	c0,0.1,0,0.2,0,0.2c0.1,0,0.5,0.2,0.4-0.3c0,0.4,0.3,0,0.4-0.2l0,0.3c0.1-0.4,0.1-0.5,0.2-0.6c0,0,0,0.1,0,0.2
	c0.1,0,0.1-0.3,0.2-0.1l0,0.2c0.1,0,0.1-0.1,0.2-0.3c0.1-0.1,0.3,0,0.3,0.3c0-0.2,0.1-0.4,0.1-0.3c0,0.1,0,0.2,0,0.2
	c0.2,0.2,0.3-0.4,0.5-0.1c0,0.1,0,0.1,0,0.2c-0.2,0-0.3,0-0.3,0c0,0.3,0.2,0.3,0.1,0.7c0.1-0.2,0.3-0.6,0.4-0.5c0,0,0,0,0,0.1l0,0
	c0,0,0.1,0,0.1,0c0,0,0.1,0.1,0.1,0.1c0,0.2,0.2,0.1,0.3,0.1c0-0.3,0.1-0.2,0-0.5c0,0,0,0-0.1,0.1c0,0,0,0,0,0c0,0,0,0,0,0
	c0,0-0.1,0-0.2,0c0-0.1,0.1-0.3,0.2-0.1c0-0.2,0-0.4,0.1-0.5c0.1,0.4,0.3,0.6,0.4,0.8c0.2-0.2,0.5-0.2,0.6-0.7
	c0.1-0.1,0.1,0.1,0.1,0.2c0,0.1-0.1,0.1-0.1,0.1c0.1-0.1,0.4-0.1,0.4-0.5c0.2,0.2-0.1,0.3,0.2,0.3l0,0.1c0.5,0.5,0.6-1,1.2-0.3
	c0,0-0.1-0.1-0.1-0.1c0.6,0.3,1.1-0.4,1.7,0.1c0.2,0.1,0.2-0.1,0.2-0.3l0.1,0.3l0.1-0.4c0.2-0.3,0.5,0.7,0.7,0.2l-0.1-0.2
	c0.1,0,0.3-0.1,0.3,0.1c0,0,0-0.2,0.1-0.1l0,0.2l0.2-0.3c0.2,0.1,0,0.6,0.3,0.6c0.1-0.1,0.3-0.5,0.2-0.6
	C44.7,71.5,44.6,71.4,44.6,71.3z M37.4,71.2c0-0.1-0.1-0.1-0.1-0.2c0,0,0.1,0,0.1,0C37.5,71.1,37.5,71.2,37.4,71.2z M37.6,71
	C37.6,71,37.6,71,37.6,71C37.6,71,37.7,71,37.6,71C37.7,71,37.6,71,37.6,71z M38.1,72.8C38.1,72.8,38.1,72.8,38.1,72.8
	c0,0,0,0.1,0,0.1C38.1,72.9,38.1,72.9,38.1,72.8C38.1,72.8,38.1,72.8,38.1,72.8z M11.8,62.8l-0.2-0.1c0,0.1,0.1,0.3,0,0.3
	C11.8,63.3,11.5,62.7,11.8,62.8z M154.1,89.9C154.1,89.9,154.1,89.9,154.1,89.9c0.1,0,0.1-0.1,0.1-0.1
	C154.1,89.9,154.1,89.9,154.1,89.9z M18.9,63.9L18.9,63.9l0.1,0L18.9,63.9z M27.3,64c-0.1,0.1-0.1,0.4,0,0.3L27.3,64z M27.5,64.1
	C27.5,64,27.5,64,27.5,64.1C27.5,64,27.5,64,27.5,64.1L27.5,64.1z M41.7,65.4l-0.1,0.1L41.7,65.4L41.7,65.4z M34.1,64.8
	c-0.1-0.3,0.2-0.3,0.1-0.6C34.2,64.3,33.9,64.6,34.1,64.8z M40.1,70.3c0,0.1,0.1,0.2,0.1,0.2C40.1,70.4,40.2,70.3,40.1,70.3z
	 M31.1,64.3c-0.1,0-0.2-0.2-0.2-0.1C30.9,64.4,31,64.5,31.1,64.3z M137.6,85.1c0-0.1,0-0.2,0-0.2c0,0,0,0,0,0.1L137.6,85.1z
	 M19.9,72c0,0.1,0.1,0.2,0.1,0.2c0,0,0,0,0-0.1L19.9,72z M33.1,70.9L33.1,70.9L33.1,70.9L33.1,70.9z M19.2,72
	C19.2,72,19.2,72,19.2,72C19.3,72,19.3,72,19.2,72L19.2,72z M13.8,73.5c0-0.1,0-0.1,0.1-0.1C13.8,73.4,13.8,73.4,13.8,73.5z
	 M44.7,71.2L44.7,71.2c0,0.1,0,0.1,0,0.2L44.7,71.2z M16.3,72.6C16.4,72.6,16.4,72.6,16.3,72.6C16.4,72.5,16.4,72.6,16.3,72.6z
	 M14,73.4c-0.1-0.1-0.1,0-0.1,0C13.9,73.4,13.9,73.4,14,73.4z M138.4,85.4C138.4,85.4,138.4,85.4,138.4,85.4
	C138.4,85.4,138.4,85.4,138.4,85.4L138.4,85.4z M38.2,72.5C38.2,72.5,38.2,72.5,38.2,72.5C38.2,72.5,38.2,72.5,38.2,72.5
	C38.2,72.5,38.2,72.5,38.2,72.5C38.2,72.5,38.2,72.5,38.2,72.5z M144.9,86.6c0,0-0.1-0.1-0.1-0.1C144.8,86.6,144.8,86.6,144.9,86.6z
	 M145,86.5c0,0-0.1,0.1-0.1,0.1C144.9,86.7,145,86.7,145,86.5z M26.3,64C26.3,64,26.3,64.1,26.3,64C26.4,64,26.4,64,26.3,64
	C26.4,64,26.3,64,26.3,64z M141.8,86.2C141.8,86.2,141.8,86.2,141.8,86.2C141.7,86.2,141.8,86.2,141.8,86.2z M152,89.1
	c0,0,0-0.1,0-0.1c0,0,0,0,0,0L152,89.1z M72.5,113.4c-0.2-0.6-0.6-1.1-1.1-1.7c-0.5-0.5-1.1-1-1.8-1.3c-0.4-0.2-0.8-0.3-1-0.5
	c-0.3-0.1-0.5-0.3-0.8-0.4c-0.4-0.2-0.6-0.4-0.8-0.5c-0.2-0.1-0.4-0.3-0.5-0.4c-0.1-0.1-0.3-0.2-0.4-0.2c-0.1-0.1-0.3-0.1-0.4-0.2
	c-0.8-0.2-1.5,0-2.3,0.4c-0.8,0.4-1.5,1-2.1,1.7c-0.6,0.7-1.2,1.5-1.6,2.4c-0.4,0.9-0.7,1.7-0.8,2.4c-0.1,0.9,0,1.8,0.4,2.6
	c0.3,0.8,0.8,1.5,1.4,2.1c0.6,0.6,1.2,1.1,1.8,1.4c0.7,0.3,1.3,0.6,1.8,0.6c0.8,0.1,1.6,0.1,2.3-0.1c0.8-0.2,1.5-0.4,2.2-0.8
	c0.7-0.4,1.4-0.8,2-1.4c0.6-0.5,1.2-1.2,1.7-1.8c0.3-0.4,0.5-0.9,0.6-1.5c0-0.3,0-0.7,0-1.3C72.9,114.6,72.8,114,72.5,113.4z
	 M69.5,115.8c-0.1,0.5-0.3,1-0.6,1.4c-0.4,0.5-0.8,0.9-1.3,1.3c-0.5,0.4-1.1,0.7-1.6,0.9c-0.6,0.2-1.1,0.3-1.6,0.2
	c-0.2,0-0.4-0.1-0.7-0.4c-0.3-0.2-0.5-0.5-0.8-0.9c-0.2-0.4-0.4-0.8-0.6-1.3c-0.2-0.5-0.2-1-0.1-1.6c0-0.3,0.1-0.6,0.2-0.9
	c0.1-0.3,0.2-0.7,0.4-1c0.2-0.3,0.4-0.5,0.6-0.7c0.2-0.2,0.5-0.3,0.7-0.2c0.1,0,0.3,0.1,0.6,0.4c0.3,0.2,0.5,0.4,0.7,0.4
	c0.1,0,0.2,0,0.5-0.2c0.2-0.1,0.5-0.3,0.8-0.4c0.3-0.1,0.5-0.3,0.8-0.4c0.3-0.1,0.5-0.2,0.6-0.1c0.5,0.1,0.9,0.4,1.1,1
	c0.2,0.6,0.4,1.3,0.4,2.1C69.5,115.6,69.5,115.7,69.5,115.8z M116.5,80.2c-0.7-0.4-1.3-0.6-1.8-0.6c-0.2,0-0.3,0-0.4,0
	c-0.5,0.1-1,0.2-1.5,0.4s-1,0.3-1.5,0.4c-0.6,0.2-1.1,0.3-1.6,0.5c-0.5,0.2-0.9,0.4-1.3,0.6c-0.7,0.3-1.3,0.6-2,0.8
	c-0.7,0.4-1.1,0.9-1.2,1.6c-0.1,0.7,0.4,1.2,1.5,1.5c-0.1,1-0.3,1.8-0.3,2.3c-0.1,0.5-0.1,0.8-0.2,0.9c-0.1,0.2-0.2,0.4-0.6,0.6
	c-0.3,0.2-0.4,0.4-0.5,0.6c0,0,0,0.1,0,0.1c0,0.3,0.2,0.7,0.7,1.1c-0.1,0.4-0.1,0.8-0.2,1.2c-0.1,0.4-0.1,0.9-0.2,1.3
	c0,0.5-0.1,0.9-0.1,1.4c0,0.5,0,1,0,1.5c0,0.7,0.2,1.3,0.6,1.8c0.4,0.5,0.9,0.8,1.4,0.9c1.5,0.2,3.2,0.1,5.1-0.3
	c0.2,0,0.4-0.1,0.5-0.1c0.2-0.1,0.4-0.1,0.5-0.1c0.3-0.1,0.5-0.3,0.7-0.5c0.2-0.3,0.3-0.5,0.3-0.8c0,0,0-0.1,0-0.1c0,0,0-0.1,0-0.1
	c0-0.9-0.3-1.3-0.8-1.2c0,0-0.1,0-0.1,0c0,0-0.1,0-0.1,0c-0.1,0-0.3,0.1-0.5,0.3c-0.2,0.2-0.4,0.3-0.5,0.3c-0.2,0-0.3,0.1-0.4,0.1
	c-0.1,0-0.3,0.1-0.4,0.1c-1.8,0.4-3.1,0.2-3.9-0.3c-0.1-0.4-0.2-0.9-0.1-1.6c0.1-1.1,0.4-2.4,0.9-4c0.6-0.3,1.3-0.5,2.3-0.6
	c1.1-0.2,1.9-0.3,2.3-0.4c0.3,0,0.5-0.1,0.6-0.3c0.1-0.2,0.2-0.3,0.3-0.4c0.1-0.1,0.1-0.1,0.1-0.1c0.1-0.1,0.2-0.2,0.2-0.4
	c0-0.1-0.1-0.4-0.3-0.8c-0.4-0.2-0.8-0.3-1.4-0.2c-0.2,0-0.4,0-0.6,0.1c-0.2,0.1-0.5,0.1-0.8,0.2s-0.6,0.1-0.8,0.2
	c-0.2,0-0.4,0.1-0.6,0.1c-0.4,0-0.8,0-1.1-0.1c0.1-1,0.3-1.9,0.4-2.5c0.1-0.6,0.2-1.1,0.3-1.4c0.4-0.2,0.9-0.4,1.4-0.6
	c0.6-0.2,1.2-0.4,1.9-0.6c0.7-0.2,1.4-0.4,1.9-0.6c0.6-0.2,1-0.4,1.4-0.6c0.1-0.1,0.2-0.2,0.2-0.4c0-0.1,0-0.3-0.1-0.5
	C116.6,80.4,116.5,80.3,116.5,80.2z M114.9,77.4c0-0.1,0-0.2,0-0.3C114.9,77.4,114.7,77.4,114.9,77.4z M114.6,106.5
	c-0.9-0.4-1.6-0.5-2.3-0.4c-0.3,0-0.4,0.1-0.5,0.1c-0.7,0.3-1.3,0.5-1.9,0.8s-1.3,0.5-1.9,0.8c-0.7,0.3-1.4,0.6-2,0.8
	c-0.6,0.3-1.2,0.5-1.7,0.8c-0.9,0.4-1.7,0.8-2.6,1.1c-0.9,0.5-1.5,1-1.6,1.7c-0.1,0.7,0.6,1.2,2,1.3c-0.2,1-0.4,1.8-0.5,2.4
	c-0.1,0.5-0.2,0.8-0.2,0.9c-0.1,0.2-0.3,0.4-0.7,0.6c-0.4,0.2-0.6,0.3-0.7,0.5c0,0,0,0.1,0,0.1c0,0.3,0.2,0.7,0.8,1.1
	c-0.1,0.4-0.2,0.8-0.3,1.2c-0.1,0.4-0.2,0.9-0.2,1.3c-0.1,0.5-0.1,0.9-0.1,1.4c0,0.5,0,0.9-0.1,1.4c0,0.7,0.2,1.3,0.8,1.9
	c0.5,0.6,1.1,1,1.8,1.2c2,0.6,4.2,1,6.7,1.2c0.2,0,0.5,0,0.7,0c0.2,0,0.5,0,0.7,0c0.4,0,0.7-0.1,0.9-0.4c0.2-0.2,0.4-0.5,0.4-0.9
	c0-0.1,0-0.1,0-0.2c0-0.1,0-0.1,0-0.2c-0.1-1.1-0.4-1.7-1-1.7c-0.1,0-0.1,0-0.1,0c0,0-0.1,0-0.1,0c-0.2,0-0.4,0.1-0.6,0.2
	c-0.3,0.2-0.5,0.3-0.7,0.2c-0.2,0-0.4,0-0.6,0c-0.2,0-0.3,0-0.5,0c-2.4-0.1-4.1-0.6-5.1-1.3c-0.2-0.5-0.2-1-0.1-1.6
	c0.1-1.1,0.6-2.4,1.3-4.1c0.8-0.2,1.7-0.4,3-0.5c1.5-0.1,2.5-0.2,3-0.3c0.4,0,0.6-0.1,0.8-0.3c0.2-0.2,0.3-0.3,0.4-0.4
	c0.1-0.1,0.2-0.1,0.2-0.2c0.2-0.1,0.3-0.3,0.3-0.4c0-0.2-0.1-0.5-0.4-1c-0.5-0.3-1.1-0.4-1.8-0.4c-0.2,0-0.5,0-0.8,0.1
	c-0.3,0.1-0.7,0.1-1.1,0.2c-0.4,0.1-0.8,0.1-1.1,0.2c-0.3,0-0.6,0.1-0.8,0.1c-0.5,0-1,0-1.4-0.2c0.2-1.1,0.4-2,0.5-2.7
	c0.2-0.7,0.3-1.2,0.5-1.5c0.5-0.2,1.1-0.5,1.8-0.8c0.7-0.3,1.6-0.6,2.5-0.9c0.9-0.4,1.8-0.7,2.5-1c0.7-0.3,1.3-0.6,1.8-0.9
	c0.2-0.1,0.3-0.3,0.3-0.6c0-0.1,0-0.3-0.1-0.6C114.6,106.8,114.6,106.6,114.6,106.5z M146.2,87.2l0,0.2l0.1-0.2L146.2,87.2z
	 M48.5,65.4C48.5,65.3,48.5,65.3,48.5,65.4C48.5,65.3,48.5,65.3,48.5,65.4C48.5,65.3,48.5,65.3,48.5,65.4
	C48.5,65.4,48.5,65.4,48.5,65.4z M154.1,89.9C154.1,89.9,154.1,89.9,154.1,89.9C154.2,89.9,154.1,89.9,154.1,89.9
	C154.1,89.9,154.1,89.9,154.1,89.9z M101.1,100.8c0.6-1.3,1-2.6,1.1-3.9c0.1-1.6-0.2-3.5-1-5.8c-0.6-1.7-1-3.1-1.3-4
	c-0.3-1-0.5-1.5-0.5-1.6c-0.1-0.6-0.2-1.3-0.1-2c0.2-1.9,0.8-3.4,2-4.6c0.1-0.1,0.3-0.2,0.4-0.2c0.1,0,0.2,0.1,0.4,0.2
	c0,0,0.1,0,0.2,0.1c0.1,0,0.2,0,0.3-0.1c0.6-0.3,0.9-0.7,1-1.2c0-0.3-0.1-0.5-0.2-0.8c-0.4-0.6-1-0.9-1.8-1c-0.4,0-0.9,0-1.4,0.3
	c-1,0.5-1.9,1.4-2.5,2.6c-0.6,1.1-0.9,2.4-1,3.9c-0.1,1.8,0.3,4.3,1.3,7.4c1.1,3.1,1.5,5.3,1.4,6.9c-0.1,1.1-0.4,2.2-0.9,3.3
	c-0.1,0.3-0.3,0.4-0.6,0.5c-0.3,0.1-0.5,0.1-0.6,0.2c-0.3,0.4-0.5,0.8-0.5,1.1c0,0.5,0.2,0.9,0.8,1.2c0.1,0.1,0.3,0.1,0.5,0.1
	c0.5,0,1-0.3,1.6-0.9C100.4,101.8,100.9,101.3,101.1,100.8z M153.6,89.7c0.1,0,0.1,0.3,0.2,0.2l0-0.1
	C153.7,90,153.7,89.6,153.6,89.7z M79.7,84.6c-0.2-0.7-0.5-1.3-0.8-1.9c-0.4-0.6-0.8-1.1-1.4-1.4c-0.3-0.2-0.6-0.3-0.8-0.5
	c-0.2-0.1-0.4-0.3-0.6-0.4c-0.3-0.2-0.5-0.4-0.6-0.5c-0.1-0.1-0.3-0.3-0.4-0.4c-0.1-0.1-0.2-0.2-0.3-0.2c-0.1-0.1-0.2-0.1-0.3-0.1
	c-0.6-0.1-1.2,0.2-1.8,0.7c-0.6,0.6-1.2,1.3-1.7,2.2c-0.5,0.9-0.9,1.8-1.3,2.9s-0.6,1.9-0.6,2.7c-0.1,1,0,2,0.2,2.8
	c0.3,0.8,0.6,1.6,1,2.2c0.4,0.6,0.9,1.2,1.4,1.5c0.5,0.4,1,0.6,1.4,0.7c0.6,0.1,1.2,0.1,1.8-0.1c0.6-0.2,1.2-0.5,1.7-1
	c0.5-0.5,1.1-1,1.6-1.7c0.5-0.7,0.9-1.4,1.3-2.3c0.2-0.5,0.4-1.1,0.5-1.8c0-0.4,0-0.9,0-1.5C80,85.9,79.9,85.3,79.7,84.6z
	 M77.3,87.6c-0.1,0.6-0.2,1.2-0.5,1.7c-0.3,0.6-0.6,1.1-1,1.6c-0.4,0.5-0.8,0.8-1.3,1.1c-0.5,0.3-0.9,0.3-1.3,0.3
	c-0.1,0-0.3-0.2-0.5-0.4c-0.2-0.2-0.4-0.6-0.6-1c-0.2-0.4-0.3-0.9-0.4-1.4c-0.1-0.5-0.1-1.1-0.1-1.8c0-0.3,0.1-0.6,0.2-1
	c0.1-0.4,0.2-0.8,0.3-1.1c0.1-0.3,0.3-0.6,0.5-0.9c0.2-0.2,0.4-0.3,0.6-0.3c0.1,0,0.2,0.1,0.4,0.4c0.2,0.2,0.4,0.4,0.5,0.4
	c0.1,0,0.2-0.1,0.4-0.2c0.2-0.2,0.4-0.3,0.6-0.5c0.2-0.2,0.4-0.4,0.6-0.5c0.2-0.2,0.4-0.2,0.5-0.2c0.4,0.1,0.7,0.4,0.9,1.1
	c0.2,0.7,0.3,1.5,0.3,2.5C77.4,87.3,77.4,87.4,77.3,87.6z M7.5,73.8c0,0,0,0.1,0,0.1c0,0,0,0,0,0L7.5,73.8z M45.4,65.3
	c0,0.4,0.3,0.1,0.5-0.1l0,0.3c0.2-0.3,0.2-0.4,0.4-0.5c0,0,0,0.1,0,0.2c0.1,0,0.1-0.3,0.3-0.1l-0.1,0.2c0.2,0,0.2-0.1,0.3-0.3
	c0.1-0.1,0.3,0.1,0.3,0.3c0-0.2,0.1-0.4,0.2-0.3c0,0.1,0,0.2,0,0.2c0.3,0.2,0.4-0.3,0.6,0c0,0.1,0,0.1,0,0.2c-0.2,0-0.4,0-0.4-0.1
	c0,0.3,0.2,0.3,0,0.7c0.1-0.2,0.4-0.6,0.6-0.5c0,0,0,0.1,0,0.1l0,0c0,0,0.1,0,0.1,0c0.1,0,0.1,0.1,0.1,0.1c0,0.2,0.2,0.1,0.3,0.1
	c0-0.3,0.1-0.2,0-0.5c0,0,0,0-0.1,0c0,0,0,0,0,0c0,0,0,0,0,0c-0.1,0-0.1,0-0.2,0c0.1-0.1,0.2-0.3,0.2-0.1c0.1-0.2,0.1-0.4,0.1-0.4
	c0.1,0.4,0.3,0.6,0.3,0.9c0.3-0.1,0.6-0.1,0.8-0.6c0.1-0.1,0.1,0.2,0.1,0.2c0,0.1-0.1,0-0.1,0.1c0.2-0.1,0.4,0,0.5-0.4
	c0.2,0.2-0.1,0.3,0.1,0.3l0,0.1c0.5,0.6,0.9-0.9,1.4-0.1c0,0-0.1-0.1-0.1-0.1c0.6,0.4,1.3-0.2,1.9,0.3c0.2,0.1,0.2-0.1,0.3-0.3
	l0,0.3l0.2-0.3c0.3-0.2,0.4,0.8,0.8,0.3l0-0.2c0.1,0,0.4-0.1,0.4,0.1c0,0,0.1-0.2,0.1-0.1l0,0.2l0.3-0.3c0.2,0.1-0.1,0.6,0.3,0.7
	c0.1-0.1,0.4-0.4,0.3-0.5c0,0-0.1-0.1-0.1-0.3l0.1-0.1c0-0.5,0.2-0.9-0.1-1.3L56,64.1l0-0.2l0.2,0c-0.1-0.2-0.2,0-0.2,0.1
	c0-0.1,0-0.2-0.1-0.3l-0.2,0.4c0-0.2,0.1-0.4,0-0.5c-0.1,0.2,0.1,0.4-0.1,0.5c-0.1-0.2,0-0.4-0.2-0.2c0-0.1,0-0.2,0.1-0.2
	c-0.1,0.1-0.3,0-0.3,0.3c-0.1-0.3-0.3,0-0.3-0.4c0,0.1-0.2,0.3-0.3,0.3c0.2-0.5-0.3-0.1-0.3-0.6c-0.1,0.5-0.4,0.2-0.7,0.4
	c0,0,0-0.1,0.1-0.1c-0.1,0-0.1-0.2-0.2-0.3c0,0.4-0.2,0.5-0.3,0.7c-0.1-0.4,0.1-0.5,0.1-0.8c0,0.3-0.3,0.3-0.2,0.6
	c-0.1-0.2-0.1-0.1-0.1-0.4c0,0.5-0.1,0.1-0.2,0.4c-0.1-0.3,0-0.5-0.2-0.3c-0.1-0.2,0.1-0.3,0.1-0.3c-0.2,0-0.1,0.4-0.2,0.6
	c-0.2,0.1-0.1-0.3-0.1-0.5c-0.1,0.1-0.3,0.4-0.4,0.4c0-0.1,0-0.1,0-0.2c-0.2,0.3-0.4,0-0.6,0.3c0,0,0-0.1,0-0.1c0,0.2,0,0.4,0,0.5
	c-0.1,0-0.2,0.2-0.2,0c0,0,0.1-0.1,0.1-0.2l-0.1,0.1c-0.1-0.4,0.1-0.1,0.1-0.4c-0.2,0.1-0.4,0.4-0.5,0.3c0-0.3,0.3-0.1,0.2-0.4
	l0.2,0.1c-0.1-0.5,0.1,0,0-0.5c-0.3-0.1-0.3,0.2-0.6,0c-0.1,0.2,0,0.3-0.1,0.5c-0.4,0.3-0.2-0.9-0.5-0.4c-0.1,0.2-0.1,0.6-0.3,0.4
	l0.1-0.4c-0.3-0.1-0.2,0.5-0.4,0.3c0.1-0.1,0.2-0.1,0.2-0.2c-0.2-0.3-0.1,0.2-0.3,0.2l0-0.3c-0.3,0-0.6,0.3-0.9,0.3
	c0-0.1,0.1-0.2,0-0.3c-0.4,0.1-0.8-0.1-1.2-0.3l-0.2,0.3c0,0-0.1-0.1,0-0.2c-0.1-0.1,0,0.2-0.1,0.3c-0.1,0-0.1-0.2,0-0.3
	c-0.3,0.2-0.7,0.5-1,0.2l0.1-0.1c-0.2-0.1-0.3,0.6-0.4,0.3l0,0c-0.4-0.2-0.9,0.1-1.3-0.4c-0.1,0.4-0.4-0.2-0.5,0.4
	c-0.2-0.3-0.2-0.4-0.5-0.6c-0.1,0-0.2,0.4-0.3,0.4l0-0.3l-0.2,0.3l-0.1-0.4L42.4,63c0,0,0.1,0.1,0.1,0.2c-0.2,0.1-0.4-0.2-0.4-0.4
	L41.7,63c0-0.1,0.1-0.2,0.1-0.2c-0.2,0.3,0-0.3-0.2-0.1c0,0.1,0,0.2,0,0.2c-0.1-0.2-0.3-0.2-0.5-0.1l0-0.2c-0.3-0.1-0.6,0.1-1,0
	c0.1,0.1,0.1,0.5,0,0.5l0-0.3C40,63.1,40.1,63,40,63.2c-0.1,0-0.1-0.4,0-0.5l-0.2,0.1c0-0.1,0-0.1,0.1-0.3c-0.1,0.2-0.2-0.3-0.4,0
	l0-0.1c-0.3,0-0.5,0.1-0.8,0.1c0,0.3-0.1,0.2-0.2,0.4c-0.2-0.1-0.4-0.3-0.7-0.3c-0.2,0.1-0.1,0.2-0.2,0.4c0-0.3-0.2-0.2-0.1-0.4
	c-0.3,0-0.4,0-0.8,0.2c0,0.1,0.1,0.2,0,0.2c-0.1,0-0.1-0.1-0.1-0.2l0,0c-0.4,0.4-0.9-0.8-1.3-0.3l0,0l-0.4,0.3
	c-0.2-0.1,0.1-0.2,0-0.4c-0.4,0.4-0.6-0.1-0.9,0.2c-0.2-0.8-0.8,0-1.1-0.5l0,0.2C33,62.5,33,62.2,33,62.1c0,0.1,0.1,0.2,0,0.3
	c-0.7,0.2-1.4-0.3-2.1-0.5c-0.3-0.1-0.2,0.9-0.5,0.5l0.1-0.3c-0.6,0.4-1.1-0.1-1.6,0.2c0-0.1,0-0.2,0.1-0.2c-0.1-0.2-0.4,0-0.4,0.2
	c-0.1,0,0-0.2-0.1-0.3c-0.1-0.1-0.3,0.3-0.3,0c0,0,0-0.1,0.1-0.1c-0.1,0.1-0.3,0-0.3,0.2c-0.2-0.1-0.4,0.1-0.5-0.1
	c-0.1,0.3-0.3-0.2-0.4,0.3c0-0.5-0.3-0.4-0.5-0.2c0-0.1-0.1-0.1,0-0.3c-0.1,0-0.3,0.1-0.3,0.3c-0.2-0.6-0.5,0.4-0.7-0.3
	c-0.4,0.2-0.8,0.4-1.2,0.4c0-0.4,0.4,0,0.4-0.5c-0.4,0.2-0.6,0.5-0.9,0.4c-0.1-0.1,0.1-0.2,0.1-0.3c-0.4,0.2-0.7-0.1-1,0.1
	c0,0,0-0.1,0.1-0.1c-0.1,0-0.1-0.1-0.1,0.1l0.1-0.1c0.1,0.3-0.3,0.6-0.3,0.8c0.1-0.6-0.3-0.2-0.1-0.9c0,0-0.1,0.1-0.1,0.3
	c-0.1,0-0.1-0.1,0-0.3c-0.2,0.1-0.2,0.3-0.4,0.3c0-0.1,0-0.1,0.1-0.3c-0.1,0.2-0.2,0.4-0.4,0.3c0-0.1,0-0.1,0-0.1
	c-0.3,0-0.5,0.5-0.8,0.3c0.1-0.4-0.1-0.1-0.1-0.5l-0.2,0.1l0.1,0.2c-0.2,0-0.3,0.2-0.4,0.1l0.1-0.1l-0.3,0.1l0.2,0.2
	c-0.2,0.2,0,0.5-0.2,0.4c0,0-0.2,0-0.2-0.2c0,0,0,0,0,0c-0.1,0.1-0.2,0.2-0.3,0.1c0-0.1,0-0.4,0-0.5c-0.1,0.3-0.4,0.1-0.5,0.4
	c0-0.1,0-0.3,0-0.3l-0.1,0.2C19,62.3,19,62.2,19,62.1c-0.2-0.1,0,0.5-0.2,0.3c0,0,0-0.1,0.1-0.1c-0.2-0.1-0.5,0.1-0.7,0
	c0-0.4,0.2-0.1,0.1-0.4c-0.3,0-0.7,0.4-1,0.3l0.1,0c-0.1,0.5-0.2-0.3-0.4,0c0,0,0.1-0.3,0.1-0.2c-0.2-0.1-0.5,0.1-0.8,0.2l0-0.1
	c-0.1-0.1-0.3-0.1-0.5-0.2c-0.1,0.1-0.1,0.1-0.1,0.3c-0.4-0.8-0.9,0.4-1.2-0.3c0,0,0.1-0.1,0.1-0.1l-0.3,0.1c0,0.2,0,0.1,0.1,0.3
	c0,0.1-0.1,0.2-0.2,0.2c0.2-0.1,0-0.4,0-0.5c0,0.1,0,0.1,0,0.2c-0.1-0.4-0.1,0.5-0.3,0.2l0-0.1c-0.1,0.1-0.2,0.2-0.3,0.2
	c0-0.3,0.1-0.1,0.1-0.3c-0.1,0-0.3,0.5-0.4,0.2c0.1-0.1,0.1-0.1,0.2-0.1c-0.1-0.3-0.1-0.2-0.2-0.3l0,0l-0.2-0.2l0.1,0.1
	c-0.2,0.7-0.3,0.1-0.6,0.5c0.2-0.4,0.1-0.2,0.1-0.5c-0.1-0.1-0.1-0.2-0.1-0.3c-0.1,0.2-0.2-0.2-0.3,0.1c0-0.1-0.1,0-0.1-0.3
	c-0.1,0.1,0,0.2,0,0.3c-0.2,0.3-0.5-0.4-0.8,0c-0.3,0.2-0.3,0.5-0.6,0.6c-0.1-0.2,0.1-0.4,0.1-0.4c-0.1-0.2-0.2-0.1-0.4,0
	c0-0.1,0-0.2,0-0.3c-0.1,0-0.1,0.4-0.2,0.2c0-0.1,0.1-0.3,0.1-0.4c-0.1,0.1-0.3,0.3-0.4,0.3c0-0.2,0.1-0.3,0.1-0.4
	c-0.1,0.1-0.4,0.1-0.4,0.4l0.1,0.1c-0.1,0,0-0.2,0-0.3c0.1-0.2,0.2,0.1,0.2,0.2l-0.1,0.1c0.1,0.6,0.4-0.1,0.5,0l-0.1,0.4l0.2-0.3
	c0,0.1,0,0.3,0,0.4c0.1,0.2,0.1-0.1,0.2,0.1c0,0,0,0.1,0,0.1l0.1-0.1c0,0.1,0,0.3-0.1,0.2c0.2,0.3,0.4-0.3,0.4,0l0,0
	c0.3-0.1,0-0.3,0.3-0.6l0.1,0.8l0-0.3c0,0,0.1,0,0.1,0.2c0.1-0.2,0-0.1,0.1-0.3c0.1,0.3,0.4-0.1,0.4,0.4c0.1-0.2-0.1-0.2,0-0.3
	c0,0.5,0.2-0.1,0.3,0.2c-0.1,0.3-0.2,0.1-0.1,0.4c0.1-0.5,0.3,0.1,0.4,0c0-0.1,0-0.2,0.1-0.2c0,0.1-0.1,0.2-0.1,0.2
	c0,0.1,0,0.1,0,0.2c0,0,0.1-0.3,0.1-0.4c0.1-0.1,0.2,0,0.4-0.1c0,0.1,0.4,0.2,0.5,0.4l0,0.1c0.1-0.4,0.2-0.3,0.4-0.4
	c0,0.2,0,0.3-0.1,0.4l0.1,0c0-0.1,0.1-0.2,0.2-0.2l0,0.3c0.2,0,0.4-0.3,0.6-0.1c0-0.3-0.1-0.7,0.1-0.9c0,0.1,0,0.4-0.1,0.4
	c0,0,0.1-0.1,0.1,0l-0.1,0.2c0.1,0.1,0.1-0.2,0.1-0.2c0,0.2,0.1,0.1,0,0.3c0,0-0.1-0.1-0.1,0c0.1,0,0.2,0.2,0.2,0.3
	c0-0.1,0-0.3,0.1-0.3c0.2,0,0,0.2,0.1,0.3c0.1-0.1,0.2,0,0.2-0.3c0.1,0,0.1,0.1,0.1,0.2c0.1-0.1,0.4,0,0.3-0.3l0,0c0,0,0,0,0,0
	c0.3-0.3,0.6,0.2,0.9,0.1l0,0.1c0.2-0.1,0.4,0,0.5-0.2c0.1,0,0.1,0.2,0.1,0.3c0.1-0.1,0.2-0.2,0.3,0c-0.1,0.2,0,0.2-0.1,0.1
	c0.2,0.1,0.2,0.3,0.4,0c-0.1,0.2,0.1,0.3,0.2,0.3l-0.1-0.2c0.1,0,0.2,0,0.3,0l-0.1,0.3c0.3,0.4,0.7-0.6,0.9,0
	c0.1-0.2-0.2-0.2-0.1-0.4c0.2,0.1,0.3,0.5,0.4,0.5c0.2,0.2,0.2-0.5,0.5-0.3c0-0.1,0-0.4,0.1-0.5c0.2,0.1,0.2,0.5,0.1,0.6
	c0,0-0.1,0-0.1-0.1c-0.1,0-0.1,0.1-0.1,0.2l0-0.1c0.1,0.1,0.3,0.1,0.2,0.3c0.1-0.1,0.1-0.2,0-0.3c0.2,0.2,0.3,0,0.5,0.2
	c0-0.1-0.1-0.2,0-0.2c0.3,0.2,0.2-0.2,0.4-0.3c0.1,0.2-0.1,0.4,0.2,0.3c0.1,0.1,0,0.3,0,0.4c0.2-0.2,0.4,0.2,0.5,0.2l-0.1,0.1
	c0.1-0.1,0.1,0,0.2,0l0-0.2c0.1,0,0.1,0,0.1,0.1c0.1-0.2,0-0.4,0.1-0.6c0.1,0.1,0.3-0.1,0.3,0.2c-0.2-0.1,0,0.3-0.2,0.4
	c0,0,0.1,0,0.2,0c0,0,0,0.1,0,0.1c0.2,0.3,0.1-0.3,0.4-0.3c0,0.2,0,0.3,0.1,0.3c-0.1,0,0-0.3,0.1-0.4c0.2,0.1,0.2-0.1,0.3-0.1
	l-0.1-0.1c0-0.2,0.1-0.1,0.2-0.2c0,0.1-0.1,0.1-0.1,0.2c0.1-0.3,0.3,0.3,0.4,0.1c0.1,0.1,0,0.3,0.1,0.4c0.2-0.2,0.2,0.3,0.4,0.1
	c0-0.2-0.1-0.2,0.1-0.4l-0.3,0.1l0.2-0.3c-0.1,0-0.2,0.1-0.3,0.1c0.1-0.2,0.1-0.1,0.1-0.3c0.1,0.4,0.3-0.2,0.4,0.1l0,0.6
	c0.2,0.3,0.4-0.3,0.8-0.1l-0.1-0.1c0.1-0.2,0.2,0,0.3-0.1c0,0.2,0,0.3,0.1,0.4c0-0.1,0.2,0,0.3-0.4l0.1,0.3c0.2,0.1,0.3-0.5,0.6-0.5
	c-0.1,0.2,0,0.4-0.2,0.5c0.1,0,0.2,0,0.2-0.1c0,0.1,0.2-0.3,0.3-0.1c0-0.1,0.1-0.3,0.2-0.3c0,0,0,0.1,0,0.1c0-0.1,0.2-0.1,0.1-0.3
	c0.2,0.6,0.7,0,0.9,0.5c0.2-0.1,0.4-0.1,0.6-0.1c0,0.1,0,0.1,0,0.1c0.2,0.2,0.2-0.6,0.4-0.3c0.1,0.3-0.1,0.2-0.1,0.3
	c0,0.7,0.3-0.1,0.5,0.3l0,0c0.1,0.2,0.3-0.2,0.5-0.2c0,0,0,0.1,0,0.1c0.2-0.3,0.4-0.4,0.7-0.5c-0.1,0.2-0.1,0.1-0.1,0.4
	c0.1,0,0-0.4,0.2-0.5c0.1,0.1,0.2,0.3,0.2,0.5l-0.2,0c0.1,0.4,0.2,0,0.3,0.1l0,0.2c0.3,0,0.3-0.4,0.6-0.4l0-0.1
	c0.2-0.4,0.1,0.2,0.3-0.1l0,0.4c0.1-0.1,0.4-0.4,0.6-0.4c-0.1,0.3-0.3,0.4-0.5,0.6c0.1,0,0.3,0,0.4-0.2c0,0-0.1,0.1-0.1,0.1
	c0.1-0.3,0.3-0.4,0.5-0.4c-0.1,0.8,0.5,0.2,0.6,0.8c0.4-0.3,0.7,0.2,1.1,0.1c-0.1-0.6,0.1,0,0.1-0.6c0.1,0,0.1,0,0.1,0c0,0,0,0,0,0
	c0,0,0,0,0,0l0.3,0.4c0.1,0.2-0.1,0.1-0.1,0.3c0.2,0.1,0.1,0.3,0.2,0.4c0-0.2,0.1-0.3,0.2-0.2l-0.2-0.3c0.3-0.3,0.2,0.5,0.5,0.2
	L35,65.2c0.2-0.1,0.6,0,0.7-0.4c0,0.1,0,0.2,0,0.3c0.4,0.1,0.8-0.5,1.1-0.2l0,0.1c0.1,0,0.1-0.3,0.2-0.1c0,0.1,0,0.1,0,0.2
	c0,0,0.2-0.3,0.3-0.2l-0.1,0.2c0.3,0.2,0.6-0.4,0.9-0.5c0,0.4,0.2,0.6,0.4,0.7l0,0.1c0.4,0.1,0.7-0.3,1.1-0.5
	c0.2,0.5,0.8,0.2,1.2,0.5c-0.1-0.1,0-0.3,0.1-0.4c0.1,0.1,0.3-0.3,0.2,0.1l0,0c0,0.4,0.2,0.3,0.4,0.3l0.1-0.5c0.3,0.8,1-0.2,1.2,0.5
	c0.1-0.1,0.2-0.1,0.3-0.2l0,0.3c0.2,0.1,0.4,0.1,0.7,0.1l-0.1,0.2c0.2,0,0.3-0.8,0.4-0.8l0,0.4c0.3,0,0.6,0.4,0.9,0
	c0,0.1,0,0.2-0.1,0.2C45.1,65.6,45.5,65.9,45.4,65.3z M48.4,65.6C48.4,65.6,48.4,65.6,48.4,65.6c0,0,0,0.1,0,0.1
	c-0.1,0-0.1,0-0.1-0.1C48.3,65.6,48.3,65.6,48.4,65.6z M48.1,63.7C48.1,63.7,48.1,63.7,48.1,63.7C48.1,63.7,48.1,63.7,48.1,63.7
	C48.1,63.7,48.1,63.7,48.1,63.7z M47.9,63.7c0,0.1,0,0.2,0,0.2c0-0.1-0.1-0.1-0.1-0.2C47.8,63.7,47.8,63.7,47.9,63.7z M83.2,67.9
	c0.4-1.3,0.8-2.5,1.2-3.4c0.4-1,0.7-1.8,1-2.4c0,0,0.1-0.1,0.2-0.3c0.1-0.2,0.2-0.4,0.4-0.6c0.3-0.4,0.4-0.7,0.4-1
	c0-0.4-0.1-0.7-0.5-0.9C85.6,59.1,85.3,59,85,59c-0.4,0-0.7,0-0.8,0.3c-0.7,1.1-1.4,2.5-1.9,4.3c-0.2,0.8-0.5,1.8-0.8,2.9
	c-0.3,1.1-0.7,2.5-1.1,4.1c0-1,0-2-0.1-3c0-1-0.1-2-0.2-3.1c0-1.5-0.2-2.7-0.5-3.6c0,0-0.1-0.1-0.2-0.1c-0.1,0-0.2-0.1-0.2-0.2
	c-0.2-0.1-0.4-0.1-0.6-0.1c-0.5-0.1-0.9,0.3-1,1.1c-0.1,0.3-0.2,0.7-0.3,1c-0.1,0.3-0.2,0.7-0.3,1c-0.1,0.5-0.3,1-0.4,1.5
	c-0.1,0.4-0.2,0.8-0.3,1.2c-0.2,0.7-0.6,1.8-1.2,3.2c0-3.1,0-5.5,0-7.4c0-1.9-0.1-3.2-0.1-4c-0.2-0.5-0.6-0.7-1.1-0.8
	c-0.2,0-0.4,0-0.5,0c-0.2,0-0.4,0.1-0.5,0.3s-0.2,0.4-0.1,0.6c0.1,0.6,0.2,1.5,0.2,2.5c0,1,0.1,2.2,0.1,3.6c0,1.4,0,2.6,0.1,3.6
	c0,1,0.1,1.8,0.2,2.5l0.2,1.5c0.1,0.6,0.5,1,1,1.1c0.3,0.1,0.6,0.2,0.8,0c0.5-0.4,1.1-1.5,1.6-3.1c0.2-0.7,0.5-1.4,0.7-2.2
	c0.3-0.8,0.5-1.7,0.9-2.7c0,0.9,0,1.8,0,2.5c0,0.8,0,1.4,0,2c0,0.8,0.1,1.3,0.1,1.7c0,0.4,0,0.6,0,0.7c0.2,1,0.6,1.7,1.2,2.1
	c0.2,0.1,0.4,0.2,0.6,0.2c0.5,0.1,0.8-0.1,1-0.4c0.3-0.6,0.6-1.4,0.9-2.3C82.4,70.4,82.8,69.2,83.2,67.9z M94.3,106.6
	c-0.6-0.3-1.3-0.4-2-0.6c-0.7-0.1-1.3-0.2-1.9-0.3c-0.6-0.1-1.1-0.1-1.6-0.1c-0.5,0-0.8,0-1,0c-0.5,0-1,0.1-1.4,0.2
	c-0.5,0.1-0.8,0.5-0.8,1c0.3,0.7,1,1.2,2.2,1.4c0,0.5,0,1,0,1.5c0,0.5-0.1,1-0.2,1.6c-0.1,0.9-0.3,1.9-0.5,2.8
	c-0.2,0.9-0.4,1.9-0.6,2.9c-0.2,0-0.5,0.1-0.9,0.3c-0.3,0.2-0.5,0.4-0.5,0.6c0,0.2,0,0.4,0.2,0.6c0.1,0.2,0.3,0.3,0.6,0.5
	c-0.2,0.7-0.4,1.4-0.5,2.3c-0.1,0.9-0.3,1.8-0.6,2.9c-0.2,1.7-0.5,3.5-0.7,5.2c0.1,0.6,0.6,0.9,1.4,1c0.4,0,0.7,0,1-0.1
	c1.3-0.5,2.7-1,4-1.5c1.7-0.6,3-1.4,4-2.3c1-0.9,1.5-2,1.7-3.1c0.2-1.6-0.7-3.1-2.6-4.3c-0.1,0-0.3-0.1-0.4-0.1
	c-0.4-0.2-0.7-0.3-1-0.5c-0.3-0.1-0.5-0.4-0.7-0.6c0.3-0.1,0.5-0.2,0.8-0.4c0.7-0.3,1.4-0.7,2.1-1c0.7-0.4,1.3-0.7,1.9-1.2
	c0.6-0.4,1.1-0.9,1.6-1.4c0.5-0.5,0.8-1.1,1-1.6c0-0.1,0.1-0.2,0.1-0.3c0-0.1,0-0.2,0.1-0.3c0.1-0.9-0.1-1.7-0.8-2.5
	C97.4,108.1,96.2,107.3,94.3,106.6z M92.2,120.9c0.5,0.5,0.7,1.1,0.6,1.7c0,0.1,0,0.2-0.1,0.3c0,0.1-0.1,0.2-0.1,0.3
	c-0.3,0.6-0.6,1.1-1,1.5c-0.4,0.4-1,0.8-1.8,1.2c-0.3,0.2-0.6,0.3-0.8,0.4c-0.3,0.1-0.6,0.3-0.9,0.5c-0.1,0-0.2,0-0.3,0
	c0-0.4,0-0.8,0-1.1c0-0.3,0-0.7,0.1-1c0.1-0.8,0.2-1.6,0.4-2.4c0.2-0.8,0.3-1.7,0.5-2.6c0.2,0,0.3,0,0.5,0c0.2,0,0.3,0,0.4,0
	c0.2,0,0.5,0.1,0.9,0.3C91.1,120.2,91.6,120.5,92.2,120.9z M95.5,110.7c0,0.1,0,0.1,0,0.2c0,0.3-0.2,0.7-0.4,1
	c-0.2,0.4-0.5,0.7-0.7,1c-0.3,0.3-0.6,0.6-1,0.9c-0.4,0.3-0.8,0.5-1.1,0.6c-0.3,0.2-0.5,0.3-0.8,0.5c-0.2,0.1-0.4,0.2-0.7,0.3
	c-0.2,0.1-0.4,0.2-0.6,0.2c-0.1,0-0.2,0.1-0.4,0.1c0.2-1.1,0.3-2.3,0.5-3.3c0.2-1.1,0.4-2,0.5-2.9c0-0.2,0.1-0.4,0.1-0.6
	c0-0.2,0.1-0.4,0.1-0.5c0.1,0,0.2,0,0.3-0.1c0.1,0,0.1,0,0.2,0c0.1,0,0.3,0,0.4,0.1c0.2,0.1,0.4,0.1,0.5,0.2
	c0.2,0.1,0.3,0.2,0.5,0.2c0.1,0.1,0.2,0.1,0.3,0.1c1.5,0.4,2.2,1,2.2,1.8C95.5,110.6,95.5,110.6,95.5,110.7z M64.8,104.8
	c0.7,0,1.2-0.3,1.5-1c0-0.4-0.3-0.7-1-0.8c0,0,0-0.1,0-0.1c0-0.2-0.2-0.4-0.5-0.5c-0.1,0-0.2,0-0.3-0.1c-0.1,0-0.2-0.1-0.3-0.1
	c-0.6-0.2-1.2-0.3-1.9-0.3c-0.4,0-0.7,0-1.1-0.1c-0.3,0-0.6-0.1-0.8-0.1c-1.2-0.1-2.3-0.4-3.4-0.7c-1.1-0.4-2.1-0.9-3.1-1.5
	c-1.2,0.1-2.9-0.2-5.1-1c-0.8-0.3-1.5-0.5-2-0.7c-0.5-0.1-1-0.3-1.4-0.3c-0.2,0.1-0.3,0.2-0.3,0.4c0,0.1,0.1,0.5,0.3,1.2
	c0.7,1,1.7,1.8,2.9,2.3c0.3,0.1,0.5,0.2,0.7,0.2c0.2,0,0.4,0.1,0.7,0.1c0.5,0.1,0.9,0.3,1.3,0.4c0.4,0.1,0.8,0.3,1.1,0.4
	c0.2,0.1,0.3,0.1,0.5,0.2c0,0.2,0,0.4-0.1,0.7c-0.1,0.8-0.2,1.8-0.4,2.9c-0.2,1.1-0.4,2.3-0.6,3.7c-0.6,3.3-1,5.8-1.2,7.4
	c-0.1,1-0.2,1.9-0.2,2.9c0,0.7,0.2,1.4,0.6,2.1c0.4,0.7,1,1.1,1.7,1.2c0.4,0.1,0.7-0.1,0.8-0.4c0-0.1,0.1-0.2,0.1-0.3
	c0-0.1,0-0.2,0.1-0.4c0-0.1,0-0.2,0-0.4c0.1-0.7,0.1-1.5,0.2-2.2c0.1-0.7,0.1-1.4,0.2-2.2c0.2-2,0.5-4.1,0.9-6.4
	c0.4-2.3,0.9-4.8,1.5-7.6c2.1,0.4,3.8,0.6,5.1,0.8C62.8,104.7,63.9,104.7,64.8,104.8z M20.8,63.9C20.8,63.9,20.8,63.9,20.8,63.9
	C20.8,63.9,20.8,63.9,20.8,63.9z M10.2,61.4C10.2,61.4,10.2,61.4,10.2,61.4C10.2,61.4,10.2,61.4,10.2,61.4
	C10.2,61.4,10.2,61.4,10.2,61.4z M10.3,61.4C10.3,61.4,10.2,61.4,10.3,61.4c0,0.1-0.1,0.1,0,0.1C10.2,61.5,10.3,61.4,10.3,61.4z
	 M14.1,63.2L14.1,63.2c0,0-0.1,0.1-0.1,0.1L14.1,63.2z M12.5,61.6c0,0,0,0.1,0,0.1c0,0,0,0,0,0L12.5,61.6z M15.9,63
	C15.9,63,15.9,63,15.9,63C15.9,63,15.9,63,15.9,63L15.9,63z M22.1,64.3C22.1,64.3,22.1,64.3,22.1,64.3
	C22.1,64.3,22.1,64.3,22.1,64.3z M56.3,65.1L56.3,65.1c0,0.1,0,0.1,0,0.2L56.3,65.1z M27.3,61.8c0,0.1,0.1,0.2,0.1,0.2
	c0,0,0,0,0-0.1L27.3,61.8z M19.8,62.4c0,0,0.1-0.1,0.1-0.1C19.9,62.2,19.8,62.2,19.8,62.4z M26.5,61.8
	C26.5,61.8,26.5,61.8,26.5,61.8C26.5,61.8,26.5,61.8,26.5,61.8L26.5,61.8z M42.8,62.9L42.8,62.9L42.8,62.9L42.8,62.9z M20.1,62.3
	c-0.1-0.1-0.1,0-0.1,0C20,62.3,20,62.3,20.1,62.3z M23,61.9C23,61.9,23,61.9,23,61.9C23.1,61.8,23,61.9,23,61.9z M139.1,83.3
	C139.1,83.3,139.1,83.2,139.1,83.3C139,83.3,139,83.3,139.1,83.3C139.1,83.2,139.1,83.2,139.1,83.3z M48.9,58.3l0.2,0L48.9,58.3
	L48.9,58.3z M19.4,46.9c0,0.3,0.1,0.3,0.3,0.1c0,0.1,0,0.2-0.1,0.2c0.1-0.1,0.3-0.4,0.3-0.7c-0.2,0.3-0.1,0.1-0.3,0.5
	c-0.1,0-0.1-0.1,0-0.2C19.6,46.9,19.5,46.8,19.4,46.9z M36,53.4c-0.1,0-0.2,0.4-0.1,0.3L36,53.4z M122.8,80.1L122.8,80.1L122.8,80.1
	L122.8,80.1z M28.3,51.3l-0.1,0l0,0L28.3,51.3z M20.4,46.8c-0.2,0-0.4,0-0.5,0.3l0.1,0.1c-0.1,0,0-0.2,0.1-0.3
	c0.2-0.2,0.1,0.1,0.1,0.2l-0.1,0c-0.1,0.6,0.4,0,0.5,0.1l-0.2,0.4l0.3-0.3c0,0.1,0,0.3-0.1,0.4c0.1,0.2,0.1-0.1,0.2,0.1
	c0,0,0,0.1,0,0.1l0.2-0.1c0,0.1-0.1,0.3-0.1,0.2c0.1,0.3,0.4-0.2,0.4,0.1l0,0c0.3,0,0.1-0.3,0.4-0.6l-0.1,0.8l0.1-0.3
	c0,0,0.1,0.1,0,0.2c0.2-0.2,0-0.1,0.1-0.3c0.1,0.3,0.4,0,0.3,0.5c0.1-0.2-0.1-0.2,0.1-0.3c-0.1,0.5,0.2,0,0.3,0.2
	c-0.1,0.2-0.2,0.1-0.1,0.3c0.2-0.4,0.2,0.2,0.4,0.1c0.1-0.3,0.3-0.1,0.5-0.1c0,0.1,0.3,0.3,0.4,0.5l0,0.1c0.1-0.3,0.3-0.2,0.4-0.2
	c-0.1,0.2-0.1,0.3-0.2,0.4l0.1,0c0.1-0.1,0.1-0.1,0.2-0.2L24,49.6c0.2,0,0.4-0.2,0.6,0c0.1-0.2,0.1-0.7,0.3-0.8
	c0,0.1-0.1,0.4-0.2,0.4c0,0,0.1-0.1,0.1,0l-0.2,0.2c0.1,0.1,0.1-0.2,0.2-0.1c-0.1,0.2,0,0.2,0,0.3c0,0,0-0.1-0.1,0
	c0.1,0.1,0.1,0.2,0.1,0.4c0-0.1,0.1-0.3,0.2-0.3c0.2,0,0,0.2,0,0.4c0.1-0.1,0.1,0,0.2-0.2c0,0,0,0.2,0,0.2c0.1-0.1,0.4,0.1,0.4-0.2
	l0,0c0,0,0,0,0,0c0.4-0.2,0.5,0.3,0.8,0.3l0,0.1c0.2-0.1,0.4,0.1,0.6-0.1c0,0,0.1,0.2,0,0.3c0.1,0,0.2-0.1,0.3,0.1
	c-0.2,0.1,0,0.2-0.2,0.1c0.1,0.1,0.1,0.3,0.4,0.1c-0.1,0.2,0,0.3,0.1,0.3l-0.1-0.2c0.1,0,0.2,0,0.2,0.1L27.7,51
	c0.2,0.5,0.8-0.5,0.8,0.3c0.2-0.2-0.1-0.2,0-0.4c0.1,0.1,0.1,0.6,0.2,0.6c0.1,0.2,0.3-0.4,0.5-0.2c0-0.1,0.1-0.4,0.3-0.5
	c0.1,0.1,0,0.5-0.1,0.6c0,0,0,0,0-0.1c-0.1,0-0.1,0.1-0.1,0.2l0.1-0.1c0,0.1,0.2,0.2,0.1,0.4c0.1-0.1,0.1-0.2,0-0.3
	c0.1,0.2,0.3,0.1,0.5,0.3c0-0.1,0-0.2,0-0.2c0.2,0.2,0.2-0.2,0.4-0.2c0.1,0.2-0.2,0.4,0.1,0.3c0.1,0.2-0.1,0.3-0.1,0.4
	c0.2-0.2,0.3,0.3,0.4,0.3l-0.1,0.1c0.1,0,0.1,0,0.2,0l0-0.2c0,0.1,0.1,0.1,0.1,0.2c0.1-0.1,0.1-0.4,0.3-0.6c0,0.1,0.3-0.1,0.2,0.3
	c-0.2-0.2-0.1,0.3-0.3,0.3c0,0,0.1,0,0.1,0.1c0,0,0,0.1,0,0.1c0.1,0.3,0.2-0.3,0.4-0.2c-0.1,0.2-0.1,0.3,0,0.3c-0.1,0,0-0.3,0.2-0.4
	c0.1,0.2,0.2,0,0.3,0l-0.1-0.1C32,51.9,32,52,32.1,52c0,0.1-0.1,0.1-0.1,0.1c0.2-0.3,0.2,0.4,0.4,0.2c0,0.1-0.1,0.3-0.1,0.4
	c0.2-0.2,0.1,0.3,0.4,0.2c0-0.2,0-0.2,0.2-0.4l-0.4,0.1l0.3-0.3c-0.1,0-0.2,0.1-0.3,0c0.2-0.2,0.1-0.1,0.1-0.3
	c0,0.4,0.3-0.1,0.4,0.2l-0.2,0.6c0.1,0.3,0.5-0.2,0.7,0.1l-0.1-0.1c0.1-0.2,0.2,0,0.3,0c-0.1,0.2,0,0.3,0,0.4c0-0.1,0.2,0.1,0.4-0.3
	l0,0.3c0.2,0.2,0.4-0.4,0.6-0.3c-0.1,0.2-0.1,0.3-0.3,0.4c0.1,0,0.1,0.1,0.2,0c0,0.1,0.3-0.2,0.3,0c0.1-0.1,0.1-0.3,0.2-0.2
	c0,0,0,0.1,0,0.1c0-0.1,0.2-0.1,0.2-0.3c0,0.7,0.7,0.2,0.7,0.7c0.2,0,0.4,0,0.6,0c0,0.1,0,0.1-0.1,0.1c0.1,0.2,0.3-0.5,0.5-0.2
	c0,0.3-0.2,0.1-0.1,0.3c-0.2,0.6,0.3,0,0.3,0.4l0,0c0.1,0.2,0.4-0.1,0.5,0c0,0,0,0.1,0,0.1c0.2-0.3,0.5-0.3,0.7-0.3
	c-0.1,0.2-0.1,0.1-0.2,0.4c0.1,0,0.1-0.4,0.3-0.4c0,0.2,0.1,0.3,0,0.6l-0.2,0c0,0.4,0.2,0.1,0.3,0.1l-0.1,0.1c0.3,0,0.4-0.3,0.6-0.2
	l0-0.1c0.3-0.3,0.1,0.2,0.3,0l-0.1,0.4c0.1-0.1,0.4-0.3,0.6-0.3c-0.2,0.2-0.4,0.3-0.6,0.5c0.1,0,0.3,0.1,0.4-0.1c0,0-0.1,0.1-0.1,0
	c0.2-0.3,0.4-0.4,0.6-0.3c-0.3,0.7,0.4,0.3,0.4,0.9c0.4-0.2,0.6,0.3,1,0.4c0-0.6,0.1,0,0.3-0.6c0.1,0,0.1,0,0.1,0c0,0,0,0,0,0
	c0,0,0,0,0,0l0.2,0.4c0,0.2-0.1,0.1-0.2,0.2c0.2,0.1,0,0.3,0.1,0.5c0-0.2,0.2-0.3,0.2-0.2l-0.1-0.3c0.4-0.2,0.1,0.6,0.5,0.3
	l-0.1,0.2c0.2-0.1,0.5,0.2,0.8-0.3c0,0.1,0,0.2-0.1,0.3c0.3,0.2,0.9-0.3,1.1,0.1l-0.1,0.1c0.1,0,0.2-0.2,0.2-0.1
	c0,0.1-0.1,0.1,0,0.2c0,0,0.2-0.2,0.3-0.1L45,56.8c0.3,0.3,0.6-0.2,0.9-0.2c-0.1,0.4,0.1,0.6,0.2,0.7l0,0.1c0.4,0.2,0.8-0.1,1.2-0.2
	c0.1,0.5,0.7,0.4,1,0.8c0-0.1,0.1-0.3,0.2-0.3c0.1,0.1,0.3-0.2,0.2,0.2l0,0c-0.1,0.4,0.1,0.4,0.3,0.4l0.2-0.5c0.1,0.8,1,0,1,0.7
	c0.1-0.1,0.2-0.1,0.4-0.2l-0.1,0.3c0.2,0.1,0.3,0.2,0.6,0.2L50.7,59c0.2,0.1,0.5-0.7,0.6-0.7l-0.1,0.4c0.3,0.1,0.5,0.5,0.9,0.3
	c0,0.1-0.1,0.2-0.1,0.2c0.1,0.1,0.4,0.4,0.6-0.1c-0.1,0.4,0.3,0.1,0.5,0l-0.1,0.3c0.2-0.3,0.3-0.4,0.5-0.4c0,0,0,0.1,0,0.2
	c0.1,0.1,0.2-0.2,0.3,0l-0.1,0.1c0.1,0.1,0.2,0,0.3-0.2c0.1-0.1,0.3,0.2,0.2,0.4c0.1-0.1,0.2-0.3,0.3-0.2c0,0.1-0.1,0.1-0.1,0.2
	c0.2,0.3,0.5-0.2,0.5,0.1c0,0.1,0,0.1,0,0.2c-0.2-0.1-0.3-0.1-0.3-0.1c-0.1,0.2,0.1,0.3-0.2,0.6c0.2-0.1,0.5-0.5,0.6-0.3
	c0,0,0,0.1,0,0.1l0,0c0,0,0.1,0,0.1,0c0,0.1,0.1,0.1,0.1,0.1c0,0.2,0.1,0.2,0.2,0.2c0.1-0.3,0.2-0.2,0.1-0.4c0,0,0,0-0.1,0
	c0,0,0,0,0,0c0,0,0,0,0,0c-0.1,0-0.1,0-0.2,0c0.1-0.1,0.2-0.2,0.2,0c0.1-0.2,0.2-0.3,0.2-0.4c0,0.4,0.1,0.7,0.1,0.9
	c0.3-0.1,0.6,0.1,0.9-0.4c0.1,0,0,0.2,0,0.3c-0.1,0-0.1,0-0.1,0.1c0.2-0.1,0.4,0.1,0.6-0.3c0.1,0.2-0.2,0.3,0.1,0.3l-0.1,0.1
	c0.3,0.7,1-0.7,1.3,0.2c0-0.1,0-0.1,0-0.1c0.5,0.5,1.3,0.1,1.7,0.8c0.1,0.2,0.2-0.1,0.4-0.2l-0.1,0.3l0.3-0.3
	c0.3-0.2,0.2,0.8,0.6,0.5l0-0.2c0.1,0.1,0.4,0,0.3,0.2c0,0,0.1-0.2,0.1-0.1l0,0.2l0.4-0.2c0.2,0.2-0.2,0.6,0.1,0.7
	c0.1,0,0.5-0.3,0.5-0.4c0,0-0.1-0.1,0-0.3l0.1,0c0.2-0.4,0.4-0.9,0.2-1.3l-0.3,0.2l0-0.2l0.2,0c0-0.2-0.1-0.1-0.2,0
	c0-0.1,0-0.2,0-0.3l-0.3,0.4c0-0.2,0.2-0.3,0.1-0.5c-0.1,0.2,0,0.4-0.2,0.5c0-0.2,0.1-0.4-0.1-0.2c0-0.1,0.1-0.2,0.1-0.2
	c-0.1,0.1-0.3,0-0.4,0.2c0-0.3-0.3,0-0.2-0.4c-0.1,0.1-0.3,0.3-0.4,0.3c0.3-0.5-0.3-0.1-0.1-0.7c-0.3,0.4-0.5,0.1-0.7,0.3
	c0,0,0.1-0.1,0.1-0.1c-0.1-0.1-0.1-0.2-0.1-0.3c-0.1,0.4-0.3,0.4-0.5,0.6c0-0.4,0.2-0.4,0.3-0.8c-0.1,0.3-0.3,0.2-0.4,0.5
	c0-0.3-0.1-0.1,0-0.5c-0.2,0.5-0.1,0-0.3,0.3c-0.1-0.3,0.1-0.4-0.1-0.4c0-0.2,0.2-0.3,0.2-0.3c-0.2-0.1-0.2,0.3-0.3,0.5
	c-0.2,0,0-0.3,0-0.5c-0.2,0.1-0.4,0.3-0.4,0.3c0-0.1,0-0.1,0-0.2c-0.2,0.2-0.4-0.1-0.7,0.2c0,0,0-0.1,0-0.1c0,0.2-0.1,0.4-0.1,0.5
	c-0.1,0-0.2,0.2-0.2-0.1c0,0,0.1-0.1,0.1-0.1l-0.1,0.1c0-0.4,0.1-0.1,0.2-0.3c-0.2,0.1-0.5,0.3-0.5,0.1c0.1-0.3,0.3,0,0.2-0.4
	l0.1,0.2c0-0.6,0.1,0.1,0.1-0.5c-0.2-0.2-0.3,0.1-0.5-0.1c-0.1,0.2-0.1,0.3-0.2,0.4c-0.4,0.2,0-0.9-0.4-0.5
	c-0.1,0.2-0.3,0.6-0.4,0.3l0.2-0.3c-0.2-0.1-0.3,0.5-0.5,0.2c0.1-0.1,0.2-0.1,0.2-0.1c-0.1-0.3-0.2,0.2-0.3,0.1l0.1-0.3
	c-0.3,0-0.6,0.1-0.9,0.1c0-0.1,0.1-0.2,0.1-0.3c-0.4,0-0.7-0.3-1-0.6l-0.2,0.2c0,0,0-0.1,0-0.2c-0.1-0.1-0.1,0.2-0.2,0.3
	c-0.1,0,0-0.2,0-0.3c-0.3,0.2-0.8,0.3-1-0.1l0.1-0.1c-0.2-0.2-0.4,0.5-0.5,0.2l0,0c-0.4-0.3-0.9-0.1-1.1-0.7
	c-0.2,0.4-0.3-0.3-0.6,0.2c-0.1-0.4,0-0.4-0.3-0.7c-0.1-0.1-0.2,0.3-0.4,0.3l0.1-0.3l-0.2,0.3l0-0.4l-0.1,0c0,0,0,0.2,0,0.2
	c-0.2,0.1-0.3-0.3-0.3-0.5l-0.5,0.1c0-0.1,0.1-0.1,0.2-0.2c-0.3,0.2,0.1-0.3-0.2-0.1c0,0.1-0.1,0.2-0.1,0.2c0-0.2-0.2-0.3-0.4-0.3
	l0.1-0.2c-0.3-0.1-0.6-0.1-0.9-0.2c0.1,0.1-0.1,0.5-0.2,0.5l0.1-0.3c-0.1,0.2,0.1,0.1-0.1,0.3c-0.1-0.1,0-0.4,0.1-0.5L48,55.3
	c0-0.1,0.1-0.1,0.1-0.2c-0.1,0.2-0.1-0.4-0.3-0.1l0-0.1c-0.3-0.1-0.5,0-0.7-0.1c-0.1,0.3-0.2,0.2-0.3,0.4c-0.2-0.1-0.3-0.4-0.5-0.5
	c-0.2,0.1-0.1,0.2-0.2,0.3c0.1-0.2-0.2-0.3,0-0.4c-0.3,0-0.4-0.1-0.8,0c0,0.1,0,0.2,0,0.2c-0.1,0-0.1-0.1-0.1-0.3l0,0
	c-0.5,0.2-0.7-1-1.1-0.6l0,0l-0.4,0.2c-0.1-0.1,0.1-0.2,0.1-0.3c-0.5,0.3-0.5-0.2-0.9-0.1c0-0.8-0.8-0.2-0.9-0.8l0,0.2
	c-0.1,0.1-0.1-0.1-0.1-0.2c0,0.1,0,0.2,0,0.3c-0.7,0-1.3-0.7-1.9-1c-0.2-0.1-0.4,0.8-0.6,0.3l0.2-0.3c-0.6,0.2-1-0.3-1.6-0.2
	c0.1-0.1,0.1-0.2,0.1-0.1c0-0.3-0.4-0.1-0.4,0.1c-0.1,0,0-0.2,0-0.3c-0.1-0.2-0.3,0.2-0.3,0c0,0,0.1-0.1,0.1-0.1
	c-0.1,0.1-0.3-0.1-0.3,0.2c-0.1-0.2-0.4,0-0.5-0.2c-0.2,0.3-0.3-0.2-0.4,0.2c0.2-0.4-0.2-0.4-0.4-0.3c0.1-0.1-0.1-0.2,0-0.3
	c-0.1,0-0.3,0-0.3,0.2c-0.1-0.6-0.6,0.3-0.5-0.4C34.5,51,34,51,33.7,51c0.2-0.4,0.4,0.1,0.5-0.4c-0.4,0.1-0.7,0.4-1,0.2
	c-0.1-0.1,0.1-0.2,0.2-0.2c-0.4,0.1-0.6-0.2-1-0.1c0,0,0.1-0.1,0.1-0.1c-0.1,0-0.1-0.1-0.2,0.1l0.1,0c0,0.3-0.4,0.5-0.5,0.7
	c0.3-0.5-0.2-0.2,0.1-0.9c0,0-0.1,0.1-0.2,0.2c0-0.1,0-0.1,0.1-0.3c-0.2,0-0.2,0.3-0.4,0.2c0-0.1,0.1-0.1,0.1-0.2
	c-0.2,0.2-0.3,0.3-0.4,0.2c0-0.1,0-0.1,0.1-0.1c-0.3-0.1-0.6,0.3-0.9,0.1c0.2-0.4-0.1-0.2,0-0.5l-0.2,0.1l0,0.2
	c-0.1-0.1-0.3,0.2-0.4,0l0.2-0.1l-0.3,0l0.1,0.2c-0.2,0.1-0.1,0.5-0.3,0.3c0,0-0.1,0-0.1-0.3c0,0,0,0,0,0c-0.1,0.1-0.2,0.2-0.3,0.1
	c0-0.1,0.1-0.4,0.2-0.5c-0.2,0.3-0.4,0-0.5,0.3c0.1-0.1,0.1-0.3,0.1-0.3l-0.1,0.2c0-0.1,0-0.1,0-0.3c-0.2-0.1-0.1,0.5-0.3,0.2
	c0,0,0-0.1,0.1-0.1c-0.2-0.2-0.5,0-0.7-0.2c0.1-0.4,0.2,0,0.2-0.4c-0.3,0-0.8,0.2-1,0l0,0.1c-0.2,0.5-0.1-0.3-0.4-0.1
	c0,0,0.1-0.3,0.1-0.2c-0.2-0.1-0.5,0-0.8,0l0.1-0.1c-0.1-0.2-0.3-0.2-0.4-0.3c-0.1,0.1-0.1,0.1-0.2,0.3c-0.2-0.9-0.9,0.1-1-0.6
	c0,0,0.1-0.1,0.1-0.1l-0.3,0c0,0.2,0,0.1,0,0.3c-0.1,0.1-0.2,0.2-0.3,0.2c0.2-0.1,0.1-0.4,0.1-0.5c0,0.1-0.1,0.1-0.1,0.2
	c0-0.4-0.2,0.4-0.3,0.1l0-0.1c-0.1,0-0.2,0.2-0.3,0.1c0-0.3,0.1-0.1,0.2-0.3c-0.1,0-0.4,0.4-0.4,0.1c0.1-0.1,0.1,0,0.2-0.1
	c0-0.3-0.1-0.3-0.1-0.3l0,0l-0.2-0.2l0,0.1c-0.4,0.6-0.4,0-0.7,0.4c0.3-0.3,0.1-0.2,0.2-0.5c0-0.1-0.1-0.2,0-0.3
	c-0.2,0.2-0.1-0.2-0.4,0.1c0-0.1-0.1,0,0-0.3c-0.2,0,0,0.2-0.1,0.3C22,47.7,22,47,21.5,47.3c-0.3,0.1-0.4,0.4-0.7,0.5
	c0-0.2,0.2-0.3,0.2-0.3c-0.1-0.2-0.2-0.2-0.3-0.1c0-0.1,0-0.1,0-0.3c-0.1,0-0.2,0.3-0.2,0.1c0.1-0.1,0.1-0.3,0.2-0.3
	c-0.1,0-0.3,0.2-0.4,0.2C20.2,46.9,20.4,46.9,20.4,46.8z M55.4,58.1C55.5,58.1,55.5,58.1,55.4,58.1C55.5,58.1,55.5,58.1,55.4,58.1
	C55.4,58.1,55.4,58.1,55.4,58.1z M55.2,60C55.2,60,55.2,60,55.2,60C55.2,60,55.2,60.1,55.2,60c-0.1,0.1-0.1,0.1-0.1,0
	C55.2,60,55.2,60,55.2,60z M55.2,58.1c0,0.1-0.1,0.2-0.1,0.2c0-0.1,0-0.1,0-0.2C55.1,58.1,55.2,58.1,55.2,58.1z M51.1,63.7
	c0-0.2,0.2-0.3,0-0.3C51.1,63.6,51.1,63.7,51.1,63.7z M21.6,48.7c0.2,0.4,0-0.2,0.3-0.1l-0.2-0.1C21.7,48.6,21.7,48.7,21.6,48.7z
	 M110.2,74.6L110.2,74.6c0-0.1,0.1-0.1,0.1-0.2L110.2,74.6z M20.2,46.6C20.2,46.6,20.2,46.6,20.2,46.6L20.2,46.6L20.2,46.6z
	 M20,46.7L20,46.7C20.1,46.7,20.1,46.6,20,46.7z M27,50.4l-0.1,0.2C27,50.6,26.9,50.6,27,50.4z M22.4,48.9c-0.1,0,0,0.2-0.1,0.2
	C22.5,49.1,22.5,49,22.4,48.9z M25.7,49.9c0-0.1,0-0.1-0.1-0.1L25.7,49.9z M39.3,54.5c0,0.2,0,0.3,0.2,0.2
	C39.4,54.6,39.3,54.5,39.3,54.5z M31.1,52.5C31.1,52.5,31.1,52.5,31.1,52.5C31,52.5,31,52.5,31.1,52.5z M35.1,53.2
	C35.1,53.2,35.1,53.3,35.1,53.2C35.1,53.2,35.1,53.2,35.1,53.2C35.1,53.2,35.1,53.2,35.1,53.2z M25.6,49.7
	C25.6,49.7,25.6,49.7,25.6,49.7C25.6,49.7,25.6,49.7,25.6,49.7L25.6,49.7z M30,51.8C30,51.7,30,51.7,30,51.8
	C30,51.8,30,51.8,30,51.8z M36.2,53.5C36.2,53.5,36.2,53.5,36.2,53.5C36.2,53.5,36.1,53.5,36.2,53.5L36.2,53.5z M42.1,55.8
	c0-0.3,0.3-0.2,0.2-0.6C42.3,55.4,42,55.6,42.1,55.8z M62.7,61.4L62.7,61.4c0,0.1-0.1,0.1-0.1,0.2L62.7,61.4z M131.7,80.5
	c0.1,0.3-0.3,0.2-0.2,0.6C131.6,81,131.9,80.7,131.7,80.5z M55.4,59.8C55.4,59.8,55.4,59.8,55.4,59.8C55.4,59.8,55.4,59.7,55.4,59.8
	C55.4,59.7,55.4,59.8,55.4,59.8C55.4,59.8,55.4,59.8,55.4,59.8z M23.9,49.5L23.9,49.5c-0.1,0-0.1,0.1-0.1,0.1L23.9,49.5z M138,82.9
	C138,82.9,138,83,138,82.9C138,83,138,83,138,82.9L138,82.9z M143.3,84.1C143.3,84.1,143.3,84.1,143.3,84.1
	C143.3,84.1,143.3,84.1,143.3,84.1z M22.8,48.8c-0.1,0.1-0.1,0.2-0.1,0.2c0,0.1,0,0.1,0,0.2C22.6,49.2,22.7,48.9,22.8,48.8z
	 M19.4,74.2C19.5,74.2,19.5,74.3,19.4,74.2C19.5,74.2,19.5,74.2,19.4,74.2C19.5,74.3,19.5,74.3,19.4,74.2z M23.3,73.8
	c0,0.2,0.1,0.2,0.2,0.1C23.4,73.9,23.3,73.8,23.3,73.8z M32.4,73.6l0.1-0.1l-0.1,0L32.4,73.6z M26.1,74c-0.1-0.2,0.2-0.3,0-0.6
	C26,73.5,25.9,73.8,26.1,74z M19.4,46.8l0.1-0.3l-0.1,0.1C19.4,46.7,19.3,46.8,19.4,46.8z M20.3,74.4l-0.1-0.3
	C20.2,74.1,20.2,74.5,20.3,74.4z M20.5,74.1C20.4,74.1,20.4,74.1,20.5,74.1C20.4,74.1,20.4,74.1,20.5,74.1L20.5,74.1z M13.2,75.2
	l0.1-0.1L13.2,75.2L13.2,75.2z M5.6,73.8C5.6,73.9,5.6,73.9,5.6,73.8C5.6,73.9,5.6,73.9,5.6,73.8C5.6,73.9,5.6,73.9,5.6,73.8z
	 M5.7,73.9C5.6,73.9,5.6,73.9,5.7,73.9c0,0.1,0,0.1,0,0.1C5.6,73.9,5.6,73.9,5.7,73.9z M10.6,74.7l0.1,0.1
	C10.7,74.7,10.7,74.7,10.6,74.7z M10.6,74.7C10.6,74.7,10.6,74.6,10.6,74.7C10.6,74.6,10.6,74.6,10.6,74.7L10.6,74.7z M9.1,75.1
	L9.1,75.1c0,0,0,0.1,0,0.1L9.1,75.1z M14.8,74.9C14.8,74.9,14.8,74.8,14.8,74.9C14.8,74.9,14.8,74.9,14.8,74.9z M16,75.1
	C16,75.1,16,75.1,16,75.1C15.9,75.1,15.9,75.1,16,75.1z M11.9,75c0.1,0,0-0.1,0-0.3L11.9,75z M9.5,61.4L9.5,61.4
	C9.6,61.4,9.5,61.4,9.5,61.4z M8.9,61.7L9,61.4l-0.1,0.1C8.8,61.6,8.8,61.8,8.9,61.7z M9.3,61.9c0,0.1,0,0.2,0,0.2
	c0.1-0.2,0.2-0.4,0.2-0.7C9.3,61.7,9.3,61.6,9.3,61.9c-0.1,0.1-0.2-0.1-0.2-0.2c0,0.1-0.1-0.1-0.2,0.1C9,62.1,9.2,62.1,9.3,61.9z
	 M9.6,61.3C9.6,61.3,9.6,61.3,9.6,61.3L9.6,61.3L9.6,61.3z M18.4,61.9l-0.1,0.2l0.1-0.1L18.4,61.9z M10.8,61.5
	c-0.1,0-0.1-0.2-0.2-0.2l0,0.1C10.6,61.2,10.7,61.7,10.8,61.5z M4.5,74.4l0-0.3l-0.1,0.1C4.4,74.2,4.5,74.4,4.5,74.4z M6.1,73.9
	c-0.1,0-0.2-0.2-0.2-0.1l0,0.1C5.9,73.7,6.1,74.1,6.1,73.9z M7,75.3C7.2,75.6,6.9,75,7.1,75L6.9,75C7,75.1,7,75.2,7,75.3z M4.8,74.5
	c-0.1,0-0.1-0.1-0.1-0.2c0,0.1-0.1-0.1-0.1,0.1C4.7,74.7,4.8,74.7,4.8,74.5c0.1,0,0.1,0.1,0.1,0.2C5,74.5,5,74.3,4.9,74
	C4.9,74.3,4.9,74.2,4.8,74.5z M5,74L5,74C5,73.9,5,73.9,5,74z M5.1,73.9L5.1,73.9C5.1,73.9,5.1,73.9,5.1,73.9L5.1,73.9z M7.7,75.4
	c0.1-0.1,0.1-0.1,0-0.2C7.6,75.2,7.7,75.3,7.7,75.4z"/>
</svg>
