<?xml version="1.0" encoding="utf-8"?>
<!-- Generator: Adobe Illustrator 27.0.1, SVG Export Plug-In . SVG Version: 6.00 Build 0)  -->
<svg version="1.1" id="Capa_1" xmlns="http://www.w3.org/2000/svg" xmlns:xlink="http://www.w3.org/1999/xlink" x="0px" y="0px"
	 viewBox="0 0 135 80" style="enable-background:new 0 0 135 80;" xml:space="preserve">
<style type="text/css">
	.st0{fill:#B7B7B7;}
</style>
<path class="st0" d="M13.1,70.6c0-0.2-0.1-0.3-0.1-0.5c0-0.3-0.1-0.6-0.1-0.8c-0.2-0.7-0.3-1.3-0.3-1.9c-0.1-0.6-0.1-1.3-0.2-2
	c0-0.4-0.1-0.8-0.2-1.1c-0.1-0.4-0.2-0.7-0.5-1c-0.1-0.1-0.2-0.3-0.4-0.4c-0.2-0.2-0.3-0.3-0.5-0.5c-0.2-0.1-0.3-0.3-0.5-0.4
	c-0.2-0.1-0.3-0.2-0.4-0.3c-0.6-0.3-1.2-0.4-1.7-0.2c-0.5,0.2-1,0.5-1.4,0.9c-0.4,0.4-0.7,0.9-1,1.4c-0.2,0.5-0.3,1-0.3,1.5
	c0,0.2,0,0.5,0.1,0.7c0,0.3,0.1,0.5,0.2,0.8C5.8,67,6,67.3,6.2,67.6C6.4,67.8,6.7,68,7,68.2c0.4,0.2,0.8,0.3,1.3,0.3
	c0.4-0.1,0.8-0.2,1.2-0.5c0.4-0.2,0.6-0.5,0.9-0.9c0.2-0.3,0.4-0.7,0.4-0.9c0.1,0.5,0.1,1,0.2,1.5c0.1,0.6,0.2,1.1,0.3,1.6
	c0.1,0.5,0.3,1,0.4,1.4c0.2,0.4,0.4,0.7,0.7,0.8c0.1,0,0.2,0.1,0.3,0.1c0.1,0,0.2,0,0.3,0c0.1,0,0.2,0,0.2-0.1
	c0.1,0,0.1-0.1,0.1-0.2c0-0.1,0-0.2-0.1-0.4S13.2,70.7,13.1,70.6z M10.3,63.7c0,0.1-0.1,0.2-0.2,0.4c-0.1,0.1-0.2,0.2-0.2,0.4
	c-0.1,0.1-0.1,0.2-0.2,0.3c-0.1,0.2-0.3,0.5-0.5,0.7C9,65.8,8.8,66,8.5,66.2c-0.2,0.2-0.5,0.3-0.7,0.4c-0.2,0.1-0.5,0.1-0.6,0
	c0,0,0,0,0,0c0,0,0,0,0,0c0,0,0-0.1,0-0.1c0-0.4,0.1-0.7,0.2-1.1c0.1-0.3,0.3-0.6,0.5-0.9c0,0,0.1-0.2,0.2-0.4
	c0.1-0.2,0.3-0.4,0.4-0.6c0.2-0.2,0.4-0.4,0.6-0.5c0.2-0.1,0.5-0.1,0.8,0.1c0.1,0,0.1,0.1,0.2,0.1s0.1,0.1,0.2,0.2
	C10.3,63.5,10.3,63.6,10.3,63.7z M96.2,23.3c0,0-0.1,0.1-0.1,0.1c-0.1,0.2-0.3,0.5-0.3,0.8c-0.1,0.3-0.2,0.7-0.2,1.1
	c-0.1,0.4-0.1,0.8-0.1,1.3c0,0.4,0,0.8,0,1.2c0,0.8,0,1.7-0.1,2.8c-0.1,1.1-0.1,2.2-0.1,3.4c-0.1,0.1-0.3,0.1-0.5,0.2
	c-0.2,0.1-0.3,0.1-0.5,0.2c-0.2,0.1-0.3,0.1-0.4,0.2c-0.1,0.1-0.2,0.2-0.2,0.3c0,0.3,0.1,0.5,0.3,0.6c0.2,0.1,0.5,0.2,0.9,0.1
	c0.1,0,0.1,0,0.2,0c0.1,0,0.1,0,0.2-0.1c0,0.1,0,0.3,0,0.4c0,0.3,0,0.6,0,0.9c0,0.3,0,0.6,0,0.9c0,0.4,0,0.7,0.1,1.1
	c0,0.4,0.1,0.7,0.1,1.1c0,0.1,0,0.2,0,0.3c0,0.3,0,0.6,0,1c0,0.4,0.1,0.8,0.1,1.1c0.1,0.3,0.2,0.6,0.3,0.9c0.2,0.2,0.4,0.3,0.7,0.3
	c0.2,0,0.4-0.1,0.5-0.2c0.2-0.1,0.3-0.3,0.3-0.6c0-0.3,0-0.6-0.1-1.2c0-0.5-0.1-1.1-0.1-1.8c0-0.7-0.1-1.4-0.1-2.2
	c0-0.8-0.1-1.5-0.1-2.3c0-0.2,0.1-0.4,0.4-0.6c0.3-0.2,0.6-0.3,0.9-0.4c0.3-0.1,0.7-0.3,1-0.4c0.3-0.2,0.5-0.4,0.5-0.7
	c0-0.2-0.1-0.3-0.1-0.4c-0.1-0.1-0.2-0.1-0.5-0.1c-0.1,0-0.2,0-0.4,0.1c-0.2,0-0.3,0.1-0.5,0.2c-0.2,0.1-0.4,0.1-0.6,0.2
	c-0.2,0.1-0.4,0.1-0.5,0.1c-0.2,0-0.3,0-0.3,0c0,0-0.1-0.1-0.1-0.3c0-0.1,0-0.2,0-0.3c0-0.1,0-0.3,0-0.4c0-0.5,0-1,0-1.5
	c0-0.5,0-1,0.1-1.4c0-0.5,0.1-1,0.1-1.5c0-0.5,0.1-1.1,0.2-1.8c0-0.1,0-0.2,0-0.4c0-0.2,0-0.3,0.1-0.5c0-0.2,0.1-0.4,0.1-0.5
	c0.1-0.2,0.1-0.3,0.2-0.5c0.1-0.1,0.1-0.1,0.2-0.2c0.1-0.1,0.1-0.1,0.1-0.2c0-0.1,0.1-0.1,0.1-0.2c0-0.1,0-0.2,0-0.3
	c0-0.1,0-0.1-0.1-0.2c-0.1-0.1-0.2-0.1-0.3-0.2c-0.1-0.1-0.2-0.1-0.3-0.1c-0.1,0-0.2-0.1-0.3,0c-0.2,0-0.4,0.1-0.6,0.3
	C96.5,23,96.3,23.1,96.2,23.3z M97.8,6.2C97.8,6.3,97.8,6.3,97.8,6.2c0,0.4,0,0.7,0.1,1c0,0.3,0,0.6,0,0.9c0,0.2,0,0.5,0,0.7
	c0,0,0,0.1,0,0.3c0,0.2,0,0.4,0,0.7c0,0.3,0,0.5,0,0.9c0,0.3,0,0.6,0,0.9c0,0.3,0,0.5,0,0.7c0,0.2,0,0.3-0.1,0.4c0,0,0,0.1,0,0.1
	c0,0.2,0.1,0.4,0.2,0.6c0.2,0.1,0.4,0.2,0.6,0.2c0.2,0,0.4-0.1,0.5-0.2c0.1-0.1,0.3-0.2,0.3-0.4c0.1-0.2,0.1-0.3,0.2-0.5
	c0-0.2,0-0.4,0-0.5c0-0.1,0-0.3,0-0.5c0-0.2,0-0.4,0-0.5c0-0.2,0.1-0.4,0.2-0.7c0.1-0.3,0.3-0.6,0.4-1c0.2-0.3,0.4-0.7,0.6-1
	c0.2-0.3,0.4-0.6,0.6-0.9c0.1-0.2,0.3-0.4,0.5-0.6c0.2-0.2,0.3-0.4,0.5-0.6c0.2-0.2,0.3-0.4,0.4-0.5c0.1-0.2,0.2-0.3,0.2-0.4
	c-0.1-0.3-0.3-0.5-0.5-0.6s-0.5-0.2-0.8-0.2c-0.2,0-0.3,0-0.4,0.1c-0.2,0.2-0.4,0.4-0.6,0.6c-0.2,0.2-0.4,0.5-0.5,0.8
	c-0.2,0.3-0.3,0.5-0.5,0.7c-0.2,0.2-0.3,0.4-0.4,0.5c0-0.4,0-0.7-0.1-1.1c0-0.2,0-0.3-0.1-0.5c0-0.2-0.1-0.3-0.1-0.4
	C99.2,5.1,99.1,5,99,4.9c-0.1-0.1-0.3-0.1-0.6-0.1c-0.3,0-0.4,0.1-0.5,0.2c-0.1,0.1-0.2,0.3-0.2,0.4c0,0.1,0,0.3,0.1,0.4
	C97.8,6,97.8,6.1,97.8,6.2z M30.5,72.7c0-0.1-0.1-0.2-0.2-0.5c-0.1-0.2-0.1-0.5-0.2-0.7c-0.1-0.2-0.1-0.5-0.2-0.7
	c0-0.2-0.1-0.3-0.1-0.4c0,0,0-0.1,0-0.1c-0.1-0.3-0.2-0.6-0.2-0.9c-0.1-0.3-0.1-0.7-0.1-1.1c0-0.4-0.1-0.7-0.1-1.1
	c0-0.4-0.1-0.7-0.1-1c0-0.4-0.1-0.8-0.1-1.2c0-0.4-0.1-0.8-0.1-1.2c0-0.5,0-1,0.1-1.4c0-0.4,0.1-0.9,0.1-1.4c0-0.2-0.1-0.4-0.2-0.6
	c-0.1-0.2-0.3-0.3-0.6-0.3c-0.2,0-0.3,0-0.5,0.1c-0.2,0.1-0.3,0.1-0.4,0.3c-0.1,0.1-0.1,0.2-0.1,0.3c0,0.1,0,0.3,0,0.4
	c0,0.2,0,0.3,0,0.5c0,0.1,0,0.3,0,0.4c0,0.4,0,0.8,0,1.1c0,0.3,0,0.5,0,0.5c0,0.5,0,0.9,0.1,1.4c0,0.5,0.1,1,0.1,1.5
	c-0.2-0.1-0.4-0.1-0.6-0.2c-0.2-0.1-0.4-0.1-0.6-0.1c-0.3,0-0.5,0-0.6,0.1c-0.1,0.1-0.2,0.2-0.3,0.2c-0.4,0.2-0.7,0.5-1,0.9
	c-0.3,0.4-0.6,0.8-0.8,1.2c-0.2,0.4-0.4,0.9-0.5,1.4c-0.1,0.5-0.2,0.9-0.2,1.3c0,0.7,0.2,1.3,0.5,1.8c0.3,0.5,0.8,0.8,1.5,0.9
	c0.3,0,0.6,0,1-0.1c0.3-0.1,0.6-0.3,0.9-0.6c0.3-0.3,0.6-0.7,0.8-1.1c0.2-0.4,0.4-0.9,0.5-1.5c0.1,0.1,0.1,0.3,0.2,0.6
	c0.1,0.3,0.1,0.5,0.2,0.8c0.1,0.3,0.1,0.6,0.2,0.8c0.1,0.3,0.1,0.4,0.2,0.6c0.1,0.3,0.3,0.5,0.4,0.6c0.1,0.1,0.3,0.1,0.4,0.2
	c0,0,0.1,0,0.3,0c0.1,0,0.2,0,0.3,0c0.1,0,0.3,0,0.4-0.2c0.1-0.1,0.2-0.3,0.2-0.6c-0.1-0.2-0.1-0.3-0.2-0.5
	C30.7,73.1,30.6,72.9,30.5,72.7z M27.1,69.4c-0.1,0.2-0.1,0.4-0.2,0.6c-0.1,0.2-0.2,0.5-0.3,0.8c-0.1,0.3-0.2,0.6-0.4,0.9
	c-0.2,0.3-0.3,0.5-0.5,0.7c-0.2,0.2-0.5,0.3-0.8,0.2c0-0.1-0.1-0.2-0.1-0.4c-0.1-0.1-0.1-0.3-0.1-0.4c0-0.2,0-0.4,0-0.6
	c0-0.2,0-0.3,0.1-0.5c0-0.2,0.1-0.3,0.1-0.5c0.1-0.2,0.1-0.4,0.2-0.6c0.1-0.4,0.3-0.7,0.6-0.9c0.2-0.2,0.5-0.5,0.7-0.8
	c0.1,0,0.1,0,0.1,0c0,0,0.1,0,0.1,0c0,0.1,0,0.1,0,0.2c0,0.1,0,0.1,0,0.2c0,0.1,0.1,0.1,0.1,0.1c0.1,0,0.1,0,0.2,0.1
	c0.1,0,0.1,0,0.2,0c0,0,0.1,0,0.1,0.1C27.2,68.9,27.1,69.1,27.1,69.4z M21.6,70.6c-0.1-0.5-0.1-1-0.2-1.5c-0.1-0.5-0.2-0.9-0.4-1.4
	c-0.1-0.2-0.2-0.4-0.2-0.6c0-0.2-0.1-0.4-0.2-0.6c-0.1-0.2-0.2-0.4-0.3-0.6c-0.1-0.2-0.3-0.3-0.5-0.5c-0.3-0.1-0.6,0-0.8,0.1
	c-0.3,0.1-0.5,0.3-0.7,0.6c-0.2,0.2-0.4,0.5-0.6,0.8c-0.2,0.3-0.3,0.5-0.4,0.7c0,0,0,0.1,0,0.1c-0.1,0.2-0.2,0.5-0.3,0.8
	c-0.1,0.3-0.3,0.5-0.5,0.6c0,0,0-0.1,0-0.1c0-0.3,0-0.7,0-1.1c0-0.4,0-0.8,0-1.3c0-0.2,0-0.3-0.1-0.5c0-0.2-0.1-0.3-0.1-0.5
	c0-0.1,0-0.3,0-0.4c0-0.2,0-0.3-0.1-0.5c0-0.2-0.1-0.3-0.2-0.5c-0.1-0.1-0.3-0.2-0.4-0.3c-0.1,0-0.1,0-0.2-0.1c-0.1,0-0.2,0-0.3-0.1
	c-0.2,0-0.3,0.1-0.3,0.2c-0.1,0.1-0.1,0.3-0.1,0.5c0,0.2,0,0.5,0,0.7c0,0.3,0,0.5,0,0.7c0,0.8,0,1.6,0,2.4c0,0.8,0,1.6,0,2.5
	c0,0.2,0.1,0.4,0.3,0.6c0.2,0.2,0.4,0.3,0.5,0.4c0.1,0,0.3,0.1,0.4,0.1c0.1,0,0.3,0,0.4,0c0.2-0.1,0.3-0.2,0.5-0.3
	c0.2-0.2,0.4-0.4,0.6-0.8c0.2-0.2,0.3-0.5,0.4-0.8c0.1-0.3,0.2-0.5,0.3-0.8c0.1-0.3,0.3-0.6,0.4-0.8c0.1-0.3,0.3-0.6,0.6-0.9
	c0.1,0.2,0.3,0.5,0.3,0.7c0.1,0.3,0.1,0.6,0.2,0.9c0.1,0.3,0.1,0.6,0.1,1c0,0.3,0.1,0.6,0.2,0.9c0.1,0.2,0.1,0.5,0.1,0.8
	c0,0.3,0.1,0.6,0.2,0.9c0.1,0.3,0.2,0.5,0.3,0.8c0.1,0.2,0.3,0.4,0.6,0.4c0.2,0,0.4,0,0.6,0c0.2-0.1,0.3-0.2,0.4-0.4
	C22,73,21.9,72.5,21.8,72C21.7,71.6,21.7,71.1,21.6,70.6z M23.7,46.4c0,0.3,0,0.6,0.1,1.1c0,0.5,0.1,1,0.2,1.6
	c0.1,0.5,0.3,1,0.5,1.4c0.2,0.4,0.5,0.6,0.8,0.7c0.2,0,0.4,0,0.6-0.1c0.2-0.1,0.3-0.2,0.3-0.5c0,0,0-0.1,0-0.1c0,0,0-0.1,0-0.1
	c-0.1-0.5-0.3-1.1-0.4-1.8c-0.1-0.7-0.2-1.3-0.2-1.9c0-0.2,0-0.4,0-0.6c0-0.2,0-0.4,0-0.7c0-0.3,0-0.7,0-1c0-0.3,0-0.7,0-1
	c0-0.4,0-0.8,0-1.3c0-0.4,0-0.9,0-1.4c0-0.4,0-0.7,0.1-1.1c0.1-0.4,0.1-0.7,0.1-1.1c0-0.2,0-0.3-0.1-0.4c-0.1-0.1-0.2-0.2-0.4-0.3
	c-0.1-0.1-0.3-0.1-0.5-0.2c-0.2,0-0.3-0.1-0.4-0.1c-0.1,0.1-0.3,0.2-0.3,0.3C24,37.9,24,38.1,24,38.3c0,0.8,0,1.6-0.1,2.3
	c-0.1,0.7-0.1,1.5-0.1,2.3c0,0.6,0,1.2,0,1.7C23.7,45.1,23.7,45.7,23.7,46.4z M28.4,39.7c0.1,0.1,0.3,0.1,0.4,0.2
	C29,40,29.2,40,29.3,40c0.2,0,0.4,0,0.6-0.1c0.1-0.1,0.2-0.3,0.2-0.5c0-0.1,0-0.2-0.1-0.4c-0.1-0.1-0.2-0.2-0.3-0.3
	c-0.1-0.1-0.3-0.2-0.4-0.2c-0.1-0.1-0.3-0.1-0.4-0.1c-0.2,0-0.3,0-0.4,0.1c-0.2,0.1-0.4,0.2-0.4,0.4c0,0.1-0.1,0.3-0.1,0.4
	c0,0.1,0,0.1,0.1,0.2C28.2,39.6,28.3,39.7,28.4,39.7z M54,17.4c0,0.5,0,1,0,1.6c0,0.6,0,1.1,0,1.7c0,0.6,0,1.1,0,1.7
	c0,0.6,0,1.1,0,1.6c0,0.2,0,0.3,0,0.4c0,0.1,0.1,0.2,0.1,0.3c0.1,0.1,0.2,0.1,0.3,0.2c0.1,0,0.3,0,0.5-0.1c0.3-0.1,0.5-0.2,0.7-0.4
	c0.2-0.2,0.3-0.5,0.3-0.8c0-0.4,0-0.8-0.1-1.1c0-0.4-0.1-0.7-0.1-1.1c0-0.1,0-0.2,0-0.3c0.3,0.1,0.6,0.3,1,0.5
	c0.4,0.2,0.7,0.5,1.1,0.7c0.4,0.2,0.7,0.4,1,0.6s0.6,0.2,0.8,0.1c0.1,0,0.2-0.1,0.4-0.1c0.1-0.1,0.3-0.1,0.4-0.2
	c0.1-0.1,0.2-0.2,0.3-0.4c0.1-0.1,0.1-0.3,0.1-0.5c0-0.2-0.1-0.3-0.4-0.4c-0.3-0.1-0.6-0.2-0.9-0.4c-0.4-0.1-0.7-0.3-1.1-0.5
	c-0.4-0.2-0.7-0.5-1-0.9c0.2-0.3,0.4-0.6,0.7-1c0.3-0.4,0.6-0.9,0.8-1.3c0.3-0.4,0.5-0.9,0.7-1.2c0.2-0.4,0.3-0.7,0.3-0.8
	c0-0.1,0-0.2-0.1-0.2c-0.1,0-0.1-0.1-0.2-0.1c-0.1,0-0.2,0-0.2,0c-0.1,0-0.2,0-0.2,0c-0.2,0.1-0.4,0.2-0.6,0.3
	c-0.2,0.2-0.4,0.3-0.5,0.6c-0.2,0.2-0.3,0.4-0.4,0.7c-0.1,0.2-0.2,0.5-0.3,0.7c-0.2,0.4-0.5,0.7-0.7,1.1c-0.3,0.3-0.6,0.7-0.8,1
	c0-1,0.1-2.1,0.1-3.3c0-1.2,0.1-2.6,0.1-4.2c0-0.4-0.1-0.7-0.2-0.9c-0.1-0.2-0.4-0.2-0.8-0.2c-0.2,0.1-0.4,0.2-0.6,0.3
	c-0.2,0.1-0.3,0.3-0.5,0.5c-0.1,0.2-0.1,0.4-0.1,0.5c0,1,0,2,0.1,2.9C53.9,15.5,54,16.4,54,17.4z M37.3,47.2
	c-0.1-0.1-0.2-0.1-0.5-0.1c-0.1,0-0.2,0-0.4,0.1c-0.2,0-0.3,0.1-0.5,0.2c-0.2,0.1-0.4,0.1-0.6,0.2c-0.2,0-0.4,0.1-0.5,0.1
	c-0.2,0-0.3,0-0.3,0c0,0-0.1-0.1-0.1-0.3c0-0.1,0-0.2,0-0.3c0-0.1,0-0.3,0-0.4c0-0.5,0-1,0-1.5c0-0.5,0-1,0.1-1.4
	c0-0.5,0.1-1,0.1-1.5c0-0.5,0.1-1.1,0.2-1.8c0-0.1,0-0.2,0-0.4c0-0.2,0-0.3,0.1-0.5c0-0.2,0.1-0.4,0.1-0.5c0.1-0.2,0.1-0.3,0.2-0.4
	c0.1-0.1,0.1-0.1,0.2-0.2c0.1-0.1,0.1-0.1,0.1-0.2c0-0.1,0.1-0.1,0.1-0.2c0-0.1,0-0.2,0-0.3c0-0.1,0-0.1-0.1-0.2
	c-0.1-0.1-0.2-0.1-0.3-0.2c-0.1-0.1-0.2-0.1-0.3-0.2c-0.1,0-0.2-0.1-0.3-0.1c-0.2,0-0.4,0.1-0.6,0.2c-0.2,0.2-0.3,0.3-0.4,0.5
	c0,0-0.1,0.1-0.1,0.1c-0.1,0.2-0.3,0.4-0.3,0.8c-0.1,0.3-0.2,0.7-0.2,1.1c-0.1,0.4-0.1,0.8-0.1,1.3c0,0.4,0,0.8,0,1.2
	c0,0.8,0,1.7-0.1,2.8c-0.1,1.1-0.1,2.2-0.1,3.4c-0.1,0-0.3,0.1-0.5,0.1c-0.2,0-0.3,0.1-0.5,0.1c-0.2,0-0.3,0.1-0.4,0.2
	c-0.1,0.1-0.2,0.2-0.2,0.3c0,0.3,0.1,0.5,0.3,0.7c0.2,0.2,0.5,0.3,0.9,0.3c0.1,0,0.1,0,0.2,0c0.1,0,0.1,0,0.2,0c0,0.1,0,0.3,0,0.4
	c0,0.3,0,0.6,0,0.9c0,0.3,0,0.6,0,0.9c0,0.4,0,0.7,0.1,1.1c0,0.4,0.1,0.7,0.1,1.1c0,0.1,0,0.2,0,0.3c0,0.3,0,0.6,0,1
	c0,0.4,0.1,0.8,0.1,1.1c0.1,0.4,0.2,0.7,0.3,0.9c0.2,0.2,0.4,0.4,0.7,0.4c0.2,0,0.4,0,0.5-0.1c0.2-0.1,0.3-0.3,0.3-0.6
	c0-0.3,0-0.6-0.1-1.2c0-0.5-0.1-1.1-0.1-1.8c0-0.7-0.1-1.4-0.1-2.2c0-0.8-0.1-1.5-0.1-2.3c0-0.2,0.1-0.4,0.4-0.6
	c0.3-0.1,0.6-0.3,0.9-0.4c0.3-0.1,0.7-0.3,1-0.4c0.3-0.2,0.5-0.4,0.5-0.7C37.4,47.5,37.4,47.3,37.3,47.2z M73.4,13.8
	c0,0.1,0,0.2,0,0.3c0,0.1,0,0.2,0,0.3c0,0.4,0,0.8,0.1,1.3c0,0.5,0.2,1,0.3,1.4c0.2,0.4,0.4,0.8,0.7,1c0.3,0.2,0.7,0.3,1.2,0.1
	c0.2,0,0.4-0.1,0.5-0.3c0.2-0.1,0.4-0.3,0.6-0.5c0.2-0.2,0.4-0.4,0.5-0.7c0.2-0.2,0.3-0.5,0.4-0.7c0.1,0,0.1,0,0.1,0
	c0,0.1,0,0.2,0,0.3c0,0.1,0,0.2,0,0.3c0,1-0.1,2-0.4,3c-0.3,1-0.7,1.9-1.3,3c-0.2,0.2-0.4,0.5-0.6,0.7c-0.3,0.2-0.5,0.4-0.8,0.6
	c-0.3,0.2-0.5,0.4-0.7,0.5c-0.2,0.1-0.3,0.3-0.3,0.3c0,0.1,0,0.2,0.1,0.3c0.1,0.1,0.2,0.1,0.3,0.2c0.1,0,0.2,0.1,0.3,0.1
	c0.1,0,0.2,0,0.3,0c0.3-0.1,0.6-0.2,0.9-0.4c0.2-0.1,0.5-0.3,0.6-0.4c0.2-0.2,0.3-0.3,0.5-0.5c0.1-0.2,0.3-0.3,0.4-0.4
	c0.8-1.2,1.4-2.5,1.8-3.8c0.4-1.3,0.5-2.7,0.5-4.2c0-0.2,0-0.5,0-0.7c0-0.3,0-0.5,0-0.8c0-0.2,0-0.5,0-0.7c0-0.2,0-0.4,0-0.5
	c0-0.4,0-0.9,0-1.5c0-0.6,0.1-1.3,0.1-2.1c0-0.2-0.2-0.4-0.4-0.4c-0.2-0.1-0.4-0.1-0.7,0c-0.2,0.1-0.4,0.2-0.5,0.5
	c-0.1,0.3-0.2,0.6-0.2,0.9c0,0.3-0.1,0.7-0.1,1.1c0,0.4,0,0.7-0.1,1c-0.1,0.3-0.2,0.6-0.3,1c-0.1,0.4-0.2,0.8-0.4,1.2
	c-0.1,0.4-0.3,0.8-0.5,1.1c-0.2,0.3-0.4,0.6-0.7,0.8c-0.1-0.1-0.3-0.2-0.3-0.4c-0.1-0.2-0.1-0.5-0.2-0.7c0-0.3-0.1-0.6-0.1-0.8
	c0-0.3,0-0.5,0-0.7c0-0.1,0-0.2,0-0.4c0-0.2,0-0.4,0-0.7c0-0.3,0-0.6,0-0.8c0-0.2-0.1-0.4-0.1-0.6c0-0.2,0-0.4-0.1-0.6
	c0-0.2-0.1-0.3-0.3-0.4c-0.1-0.1-0.4-0.1-0.7,0c-0.2,0-0.3,0.2-0.4,0.3c-0.1,0.2-0.2,0.3-0.2,0.6c-0.1,0.2-0.1,0.4-0.1,0.7
	c0,0.2,0,0.4,0,0.6c0,0.2,0,0.5,0,0.7C73.4,13.3,73.4,13.5,73.4,13.8z M61.4,20.4c0.1,0.3,0.3,0.5,0.4,0.7c0.2,0.2,0.5,0.4,0.8,0.5
	c0.2,0,0.5,0.1,0.8,0.1c0.3,0,0.6,0,0.8-0.1c0.5-0.2,0.9-0.3,1.2-0.5c0.3-0.2,0.7-0.5,1-0.9c0.1-0.1,0.2-0.3,0.3-0.4
	c0.1-0.2,0.1-0.3,0.2-0.5c0-0.1,0-0.2,0-0.2c0,0,0-0.1,0-0.2c-0.1-0.1-0.1-0.1-0.2-0.1c-0.1,0-0.2,0-0.2,0c-0.4,0.3-0.7,0.7-1,1
	c-0.3,0.3-0.7,0.5-1.1,0.6c-0.1,0-0.2,0-0.3,0c-0.2,0-0.3,0-0.5-0.1c-0.2-0.1-0.4-0.3-0.5-0.5c-0.2-0.2-0.2-0.6-0.3-1.1
	c0,0,0-0.1,0-0.1s0-0.1,0-0.2c0.2,0,0.3,0,0.5,0c0.1,0,0.3-0.1,0.5-0.1c0.4-0.1,0.8-0.3,1.1-0.6c0.3-0.2,0.6-0.5,0.8-0.8
	c0.2-0.3,0.4-0.6,0.5-1c0.1-0.3,0.2-0.7,0.2-1c0-0.3,0-0.5-0.1-0.7c-0.1-0.2-0.2-0.4-0.4-0.5c-0.2-0.1-0.4-0.2-0.7-0.2
	c-0.3,0-0.6,0-1,0.1c-0.5,0.2-1,0.4-1.4,0.8c-0.4,0.4-0.7,0.8-1,1.3c-0.3,0.5-0.5,1-0.6,1.6c-0.1,0.6-0.2,1.1-0.2,1.6
	c0,0.3,0,0.6,0.1,0.9C61.2,19.9,61.3,20.2,61.4,20.4z M63.1,16.2c0.1-0.2,0.1-0.4,0.2-0.5c0.1-0.1,0.1-0.3,0.2-0.4
	c0.1-0.1,0.1-0.2,0.2-0.3c0.1-0.1,0.2-0.2,0.3-0.3c0.1-0.1,0.3-0.1,0.4-0.2c0.2-0.1,0.4,0,0.5,0.1c0.1,0.1,0.2,0.3,0.2,0.5
	c0,0.3-0.1,0.7-0.4,1c-0.3,0.3-0.6,0.6-1.1,0.7c-0.1,0-0.2,0-0.3,0.1c-0.1,0-0.2,0-0.3,0C63,16.6,63,16.4,63.1,16.2z M60.5,42.3
	c0.2,0,0.3,0,0.5,0c0.1,0,0.3-0.1,0.5-0.1c0.4-0.1,0.8-0.3,1.1-0.6c0.3-0.2,0.6-0.5,0.8-0.8c0.2-0.3,0.4-0.6,0.5-1
	c0.1-0.3,0.2-0.7,0.2-1c0-0.3,0-0.5-0.1-0.7c-0.1-0.2-0.2-0.4-0.4-0.5c-0.2-0.1-0.4-0.2-0.7-0.2c-0.3,0-0.6,0-1,0.1
	c-0.5,0.2-1,0.4-1.4,0.8c-0.4,0.4-0.7,0.8-1,1.3c-0.3,0.5-0.5,1-0.6,1.6c-0.1,0.6-0.2,1.1-0.2,1.6c0,0.3,0,0.6,0.1,0.9
	c0,0.3,0.1,0.6,0.2,0.8c0.1,0.3,0.3,0.5,0.4,0.7c0.2,0.2,0.5,0.4,0.8,0.5c0.2,0,0.5,0.1,0.8,0.1c0.3,0,0.6,0,0.8-0.1
	c0.5-0.2,0.9-0.3,1.2-0.5c0.3-0.2,0.7-0.5,1-0.9c0.1-0.1,0.2-0.3,0.3-0.4c0.1-0.2,0.1-0.3,0.2-0.5c0-0.1,0-0.2,0-0.2
	c0,0,0-0.1,0-0.2c-0.1-0.1-0.1-0.1-0.2-0.1c-0.1,0-0.2,0-0.2,0c-0.4,0.3-0.7,0.7-1,0.9c-0.3,0.3-0.7,0.5-1.1,0.6c-0.1,0-0.2,0-0.3,0
	c-0.2,0-0.3,0-0.5-0.1c-0.2-0.1-0.4-0.3-0.5-0.5c-0.2-0.2-0.2-0.6-0.3-1.2c0,0,0-0.1,0-0.1S60.5,42.4,60.5,42.3z M60.7,40.3
	c0.1-0.2,0.1-0.4,0.2-0.5c0.1-0.1,0.1-0.3,0.2-0.4c0.1-0.1,0.1-0.2,0.2-0.3c0.1-0.1,0.2-0.2,0.3-0.3c0.1-0.1,0.3-0.1,0.4-0.2
	c0.2-0.1,0.4,0,0.5,0.1c0.1,0.1,0.2,0.3,0.2,0.5c0,0.3-0.1,0.7-0.4,1c-0.3,0.3-0.6,0.5-1.1,0.7c-0.1,0-0.2,0-0.3,0.1
	c-0.1,0-0.2,0-0.3,0C60.6,40.8,60.7,40.6,60.7,40.3z M28.1,47.8c0,0.2,0,0.5,0.1,0.7c0,0.2,0.1,0.5,0.1,0.7c0,0.4,0,0.7,0.1,1
	c0.1,0.2,0.2,0.4,0.3,0.6c0.1,0.1,0.3,0.2,0.5,0.3c0.2,0.1,0.4,0.1,0.7,0.1c0.2-0.2,0.3-0.3,0.3-0.4c0.1-0.1,0.1-0.2,0.1-0.3
	c0,0,0-0.1,0-0.1c0-0.2-0.1-0.6-0.1-1c-0.1-0.5-0.1-1-0.2-1.5c-0.1-0.6-0.1-1.1-0.2-1.7c-0.1-0.6-0.1-1.2-0.1-1.7c0-0.2,0-0.3,0-0.4
	c0-0.1,0-0.3,0-0.4c-0.1-0.1-0.2-0.2-0.3-0.3c-0.1-0.1-0.2-0.2-0.4-0.3c-0.2,0-0.3,0-0.4,0.1c-0.1,0-0.3,0-0.4,0.1
	c-0.2,0.1-0.4,0.4-0.4,0.7c0,0.7,0,1.4,0.1,2.1C28,46.4,28.1,47.1,28.1,47.8z M82.6,15.3c0.2,0.1,0.4,0.2,0.6,0.2
	c0.2,0.1,0.4,0.1,0.6,0c0,0,0.1,0,0.1,0c0.1,0,0.2,0,0.2,0c0.1,0,0.2,0,0.2,0c0.3-0.1,0.5-0.2,0.8-0.4c0.2-0.2,0.5-0.4,0.7-0.7
	c0.2-0.3,0.4-0.5,0.6-0.8c0.2-0.3,0.3-0.5,0.4-0.7c0.2-0.4,0.4-0.8,0.6-1.2c0.2-0.4,0.2-0.8,0.3-1.3c0-0.1,0-0.3,0-0.4
	c0-0.2,0-0.3,0-0.4c0-0.1-0.1-0.3-0.1-0.4c-0.1-0.2-0.2-0.3-0.3-0.5c-0.1-0.2-0.2-0.3-0.4-0.4C86.9,8.1,86.7,8,86.4,8
	c-0.2-0.1-0.4-0.1-0.6-0.1c-0.2,0-0.4-0.1-0.6-0.1c-0.2,0-0.4-0.1-0.6-0.2c-0.1-0.1-0.3-0.1-0.4,0c-0.3,0.1-0.6,0.3-0.9,0.5
	C83,8.3,82.7,8.6,82.5,9c-0.2,0.3-0.4,0.6-0.6,1c-0.2,0.3-0.3,0.6-0.3,0.7c-0.1,0.4-0.2,0.8-0.3,1.3c-0.1,0.5-0.2,0.8-0.2,1.2
	c0,0.6,0.1,1.1,0.4,1.5C81.8,14.9,82.1,15.2,82.6,15.3z M83,11.8c0.1-0.4,0.2-0.7,0.3-1.1c0.1-0.4,0.3-0.7,0.5-0.9
	c0.2-0.3,0.4-0.4,0.7-0.5c0.4-0.1,0.7-0.1,1,0c0.3,0.1,0.4,0.4,0.4,0.8c0,0,0,0.1,0,0.1c0,0.3-0.1,0.6-0.1,0.9
	c-0.1,0.3-0.1,0.6-0.3,0.9c-0.1,0.3-0.2,0.6-0.4,0.9c-0.2,0.3-0.4,0.5-0.6,0.7c-0.2,0.1-0.3,0.2-0.4,0.3c-0.1,0.1-0.3,0.1-0.4,0.2
	c-0.2,0-0.3,0-0.4-0.1c-0.1-0.1-0.2-0.3-0.2-0.4c-0.1-0.2-0.1-0.3-0.1-0.5c0-0.2,0-0.3,0-0.3C82.9,12.5,82.9,12.2,83,11.8z
	 M32.7,28.8c0.3,0.1,0.5,0.2,0.6,0.2c0.1,0,0.2-0.1,0.3-0.2c0.2-0.4,0.3-0.8,0.5-1.4c0.2-0.5,0.3-1.1,0.5-1.8c0.2-0.6,0.3-1.3,0.5-2
	c0.2-0.7,0.3-1.5,0.5-2.2c0.1,0.3,0.1,0.6,0.3,1.1c0.1,0.5,0.2,1,0.3,1.5c0.1,0.4,0.2,0.8,0.3,1.1c0.1,0.3,0.2,0.5,0.3,0.7
	c0.2,0.3,0.4,0.5,0.5,0.7c0.2,0.2,0.4,0.3,0.8,0.3c0,0,0.1,0,0.1,0c0.3,0,0.5-0.3,0.8-0.7c0.1-0.1,0.2-0.5,0.5-1.2
	c0.1-0.3,0.2-0.7,0.3-1.1c0.1-0.4,0.2-0.8,0.4-1.2c0.1-0.4,0.2-0.7,0.3-1.1c0.1-0.3,0.2-0.6,0.2-0.7c0,0.1,0,0.3,0,0.5
	c0,0.2,0,0.5,0,0.8c0,0.3,0,0.6,0,0.9c0,0.3,0,0.6,0,0.9c0,0.9,0.1,1.6,0.3,2.1c0.1,0.5,0.4,0.9,0.6,1.1c0.3,0.2,0.6,0.3,0.9,0.3
	c0.5-0.1,0.7-0.3,0.7-0.5c0,0,0,0,0,0c0,0,0,0,0-0.1c-0.4-1.9-0.7-4.4-0.8-7.4c0-0.1,0-0.2,0-0.3c0-0.1,0-0.2,0-0.3
	c0-0.1,0-0.2,0-0.4c0-0.1,0-0.3,0-0.4c0-0.4,0-0.7,0-0.9c0-0.2,0-0.4,0-0.5c0-0.7,0-1.3-0.1-1.7c-0.1-0.3-0.4-0.5-0.9-0.4
	c-0.4,0.1-0.6,0.2-0.6,0.4c-0.2,1.1-0.5,2.5-0.9,4c-0.4,1.5-1,3.3-1.7,5.2c-0.4-0.5-0.7-1.3-0.8-2.2c-0.1-0.4-0.2-0.8-0.3-1.1
	c-0.1-0.3-0.2-0.8-0.2-1.3c0-0.2,0-0.5,0-0.9c0-0.3-0.1-0.7-0.1-1.2c-0.1-0.4-0.1-0.8-0.1-1.2c0-0.3,0-0.6,0-0.8
	c-0.2-0.2-0.5-0.2-1.1-0.2c-0.2,0-0.3,0.1-0.4,0.3c-0.1,0.3-0.2,0.4-0.2,0.5c-0.2,1.3-0.3,2.4-0.5,3.3c-0.2,0.9-0.3,1.6-0.5,2.1
	c-0.4,1.5-0.8,2.6-1,3.5c-0.2,0.8-0.4,1.3-0.5,1.5c-0.3,0.8-0.4,1.2-0.4,1.4c0,0.2,0,0.3,0.1,0.5C32.4,28.6,32.5,28.7,32.7,28.8z
	 M42.4,42.4c-0.3-0.1-0.6-0.1-1,0c-0.5,0.1-1,0.3-1.4,0.6c-0.4,0.3-0.7,0.7-1,1.1c-0.3,0.5-0.5,0.9-0.6,1.5
	c-0.1,0.5-0.2,1.1-0.2,1.6c0,0.3,0,0.7,0.1,1c0,0.3,0.1,0.6,0.2,0.9c0.1,0.3,0.3,0.5,0.4,0.8c0.2,0.2,0.5,0.5,0.8,0.7
	c0.2,0.1,0.5,0.2,0.8,0.2s0.6,0.1,0.8,0c0.5-0.1,0.9-0.2,1.2-0.3c0.3-0.1,0.7-0.4,1-0.8c0.1-0.1,0.2-0.3,0.3-0.4
	c0.1-0.1,0.1-0.3,0.2-0.5c0-0.1,0-0.2,0-0.2c0,0,0-0.1,0-0.2c-0.1-0.1-0.1-0.1-0.2-0.2c-0.1,0-0.2,0-0.2-0.1c-0.4,0.3-0.7,0.6-1,0.8
	c-0.3,0.2-0.7,0.4-1.1,0.5c-0.1,0-0.2,0-0.3,0c-0.2,0-0.3-0.1-0.5-0.2c-0.2-0.1-0.4-0.3-0.5-0.6c-0.2-0.3-0.2-0.7-0.3-1.2
	c0,0,0-0.1,0-0.1c0,0,0-0.1,0-0.2c0.2,0,0.3,0.1,0.5,0.1c0.1,0,0.3,0,0.5,0c0.4-0.1,0.8-0.2,1.1-0.4c0.3-0.2,0.6-0.4,0.8-0.7
	c0.2-0.3,0.4-0.6,0.5-0.9c0.1-0.3,0.2-0.6,0.2-1c0-0.3,0-0.5-0.1-0.7c-0.1-0.2-0.2-0.4-0.4-0.6C42.9,42.5,42.7,42.4,42.4,42.4z
	 M41.8,45.3c-0.3,0.3-0.6,0.5-1.1,0.5c-0.1,0-0.2,0-0.3,0c-0.1,0-0.2,0-0.3,0c0-0.3,0.1-0.6,0.1-0.8c0.1-0.2,0.1-0.4,0.2-0.5
	c0.1-0.1,0.1-0.2,0.2-0.3c0.1-0.1,0.1-0.2,0.2-0.2c0.1-0.1,0.2-0.2,0.3-0.3c0.1,0,0.3-0.1,0.4-0.1c0.2,0,0.4,0,0.5,0.2
	c0.1,0.2,0.2,0.3,0.2,0.5C42.2,44.7,42,45,41.8,45.3z M114.1,49.5c0.1,0.1,0.3,0.2,0.4,0.3c0.2,0.1,0.3,0.1,0.5,0.2
	c0.2,0.1,0.4,0,0.6,0c0.1-0.1,0.2-0.2,0.2-0.5c0-0.1,0-0.3-0.1-0.4c-0.1-0.1-0.2-0.3-0.3-0.4c-0.1-0.1-0.3-0.2-0.4-0.3
	c-0.1-0.1-0.3-0.1-0.4-0.2c-0.2,0-0.3,0-0.4,0c-0.2,0.1-0.4,0.2-0.4,0.3c0,0.1-0.1,0.3-0.1,0.4c0,0.1,0,0.2,0.1,0.2
	C113.9,49.3,114,49.4,114.1,49.5z M96.5,51.7c0-0.2,0-0.3-0.1-0.5C96.3,51.1,96.2,51,96,51c-0.4,0-0.7,0.1-1,0.3
	c-0.3,0.2-0.6,0.3-1,0.3c-0.1,0-0.2,0-0.2-0.1c0-0.1,0-0.1,0-0.2c0-0.2,0-0.4,0-0.5c0-0.2,0-0.3,0-0.5c0-0.2,0-0.4,0-0.7
	c0-0.2,0-0.4,0-0.7c0-0.2,0-0.4,0-0.6c0-0.2,0-0.5,0-0.8c0-0.2,0-0.3,0-0.5c0-0.2-0.1-0.3-0.2-0.4c-0.1-0.1-0.2-0.2-0.3-0.3
	c-0.1-0.1-0.3-0.1-0.6,0c-0.1,0-0.2,0.1-0.3,0.1c-0.1,0-0.2,0.1-0.3,0.2c0,0.2-0.1,0.4-0.1,0.6c0,0.7,0,1.5,0,2.2c0,0.2,0,0.4,0,0.6
	c0,0.2,0,0.4,0,0.6c0,0.3,0,0.6,0,0.7c0,0.2,0,0.4,0,0.6c0,0.1,0,0.3-0.1,0.5c0,0.2-0.2,0.3-0.4,0.3c-0.2,0.1-0.4,0.2-0.5,0.3
	c-0.2,0.1-0.3,0.1-0.5,0.2c-0.1,0.1-0.3,0.1-0.5,0.2c-0.2,0.1-0.3,0.1-0.5,0.2c-0.1,0.3-0.1,0.5-0.1,0.6c0.1,0.1,0.2,0.2,0.4,0.4
	c0.2,0.1,0.4,0.2,0.7,0.1c0.2,0,0.4-0.1,0.6-0.2c0.2-0.1,0.4-0.2,0.6-0.3c0,0.1,0,0.1,0.1,0.1c0,0,0,0.1,0,0.2c0,0.7,0,1.4,0,2.1
	c0,0.7,0,1.4,0.1,2c0,0.3,0,0.6,0.1,0.9c0,0.3,0.1,0.6,0.2,0.8c0.1,0.2,0.3,0.3,0.4,0.4c0.2,0.1,0.3,0.1,0.5,0.1c0,0,0.1,0,0.3-0.1
	c0.2-0.1,0.3-0.2,0.4-0.3c0.1-0.1,0.2-0.3,0.2-0.6c0-0.2,0-0.3-0.1-0.5c-0.1-0.2-0.1-0.4-0.1-0.6c-0.1-0.6-0.2-1.3-0.3-1.9
	c-0.1-0.7-0.1-1.3-0.1-2c0-0.1,0-0.2,0-0.3c0-0.1,0-0.2,0-0.3c0-0.1,0-0.2,0-0.3c0-0.1,0-0.2,0-0.3c0-0.2,0.1-0.3,0.2-0.4
	c0.1-0.1,0.2-0.2,0.4-0.3c0.2-0.1,0.3-0.2,0.5-0.2c0.2-0.1,0.3-0.1,0.5-0.2c0.1-0.1,0.3-0.1,0.4-0.2c0.1-0.1,0.3-0.1,0.4-0.2
	c0.1-0.1,0.2-0.2,0.3-0.3C96.5,52,96.5,51.9,96.5,51.7z M108,34.9c-0.2-0.3-0.4-0.7-0.5-1.2c-0.1-0.5-0.1-1.1-0.1-1.8
	c0-0.3,0-0.7,0.1-1.2c0-0.5,0.1-1.1,0.1-2c-0.1-0.1-0.2-0.2-0.3-0.4c-0.2-0.1-0.3-0.2-0.4-0.2c0,0,0,0,0,0c0,0,0,0,0,0
	c-0.4,0-0.6,0-0.8,0.1c-0.1,0.1-0.2,0.2-0.3,0.4c0,0.1-0.1,0.3-0.1,0.5c0,0.2,0,0.4-0.1,0.5c-0.1,0.4-0.3,0.9-0.5,1.5
	c-0.2,0.6-0.5,1.1-0.7,1.6c-0.3,0.5-0.5,0.9-0.8,1.3c-0.3,0.4-0.5,0.6-0.8,0.6c0-0.3-0.1-0.7-0.1-1.3c0-0.6-0.1-1.2-0.1-1.9
	c0-0.2,0-0.4,0.1-0.6c0-0.2,0.1-0.5,0.1-1c0-0.2,0-0.4,0.1-0.6c0-0.2,0.1-0.4,0.1-0.6c0-0.3-0.1-0.5-0.3-0.6
	c-0.2-0.1-0.5-0.2-0.7-0.2c-0.1,0-0.1,0-0.2,0c0,0-0.1,0-0.1,0c-0.1,0-0.2,0.1-0.2,0.1c-0.1,0-0.1,0.1-0.1,0.1
	c-0.1,0.3-0.2,0.7-0.2,1c0,0.4,0,0.7,0,1.1c0,0.2,0,0.5,0,0.7c0,0.2,0,0.4,0,0.6c0,0.2,0,0.4,0,0.6c0,0.8,0,1.6,0.1,2.1
	c0,0.6,0.1,1,0.3,1.4c0.1,0.4,0.3,0.6,0.6,0.8c0.2,0.2,0.6,0.2,1,0.2c0.4,0,0.7-0.1,1.1-0.4c0.3-0.3,0.6-0.6,0.9-1
	c0.3-0.4,0.5-0.7,0.7-1.1c0.2-0.4,0.3-0.7,0.5-0.9c0-0.1,0.1-0.1,0.1-0.2c0,0.3,0.1,0.7,0.1,1c0.1,0.3,0.1,0.6,0.3,0.9
	c0.1,0.3,0.3,0.5,0.5,0.7c0.2,0.2,0.4,0.3,0.8,0.4c0.1,0,0.2,0,0.3,0c0.1,0,0.2,0,0.3-0.1c0.1,0,0.2-0.1,0.2-0.2
	c0.1-0.1,0.1-0.2,0.1-0.3c-0.1-0.1-0.1-0.2-0.2-0.3C108.1,35.1,108.1,35,108,34.9z M102.6,54.1c-0.1-0.2-0.2-0.3-0.3-0.5
	c-0.1-0.2-0.2-0.3-0.4-0.5c-0.2-0.1-0.4-0.3-0.6-0.4c-0.2-0.1-0.4-0.2-0.6-0.2c-0.2-0.1-0.4-0.1-0.6-0.2c-0.2-0.1-0.4-0.2-0.6-0.3
	c-0.1-0.1-0.3-0.1-0.4-0.1c-0.3,0-0.6,0.1-0.9,0.4c-0.3,0.2-0.6,0.5-0.8,0.8c-0.2,0.3-0.4,0.6-0.6,0.9c-0.2,0.3-0.3,0.5-0.3,0.7
	c-0.1,0.4-0.2,0.8-0.3,1.2c-0.1,0.4-0.2,0.8-0.2,1.1c0,0.6,0.1,1.2,0.4,1.6c0.3,0.4,0.6,0.7,1.1,0.9c0.2,0.1,0.4,0.2,0.6,0.3
	c0.2,0.1,0.4,0.2,0.6,0.1c0,0,0.1,0,0.1,0c0.1,0,0.2,0,0.2,0c0.1,0,0.2,0,0.2,0c0.3,0,0.5-0.1,0.8-0.3c0.2-0.2,0.5-0.4,0.7-0.6
	c0.2-0.2,0.4-0.5,0.6-0.7c0.2-0.2,0.3-0.5,0.4-0.7c0.2-0.4,0.4-0.7,0.6-1.1c0.2-0.4,0.2-0.8,0.3-1.2c0-0.1,0-0.3,0-0.4
	c0-0.2,0-0.3,0-0.5C102.7,54.4,102.7,54.3,102.6,54.1z M100.9,54.9c0,0.3-0.1,0.6-0.1,0.9c-0.1,0.3-0.1,0.6-0.3,0.9
	c-0.1,0.3-0.2,0.6-0.4,0.8c-0.2,0.3-0.4,0.5-0.6,0.6c-0.2,0.1-0.3,0.2-0.4,0.2c-0.1,0.1-0.3,0.1-0.4,0.1c-0.2,0-0.3,0-0.4-0.2
	c-0.1-0.1-0.2-0.3-0.2-0.5c-0.1-0.2-0.1-0.4-0.1-0.5c0-0.2,0-0.3,0-0.3c0-0.3,0-0.6,0.1-0.9c0.1-0.4,0.2-0.7,0.3-1
	c0.1-0.3,0.3-0.6,0.5-0.8c0.2-0.2,0.4-0.4,0.7-0.4c0.4,0,0.7,0,1,0.2c0.3,0.2,0.4,0.5,0.4,0.9C100.9,54.8,100.9,54.8,100.9,54.9z
	 M90.3,32.5c0.1,0.6,0.1,1.3,0.1,2c0,0.2,0,0.5,0.1,0.7c0.1,0.2,0.1,0.5,0.1,0.7c0,0.4,0,0.7,0.1,0.9c0.1,0.2,0.2,0.4,0.3,0.5
	c0.1,0.1,0.3,0.2,0.5,0.2c0.2,0,0.4,0,0.7-0.1c0.2-0.2,0.3-0.3,0.3-0.5c0.1-0.1,0.1-0.2,0.1-0.4c0,0,0-0.1,0-0.1
	c0-0.2-0.1-0.6-0.1-1c-0.1-0.4-0.1-0.9-0.2-1.5c-0.1-0.5-0.1-1.1-0.2-1.7C92,31.8,92,31.2,92,30.7c0-0.2,0-0.3,0-0.4
	c0-0.1,0-0.3,0-0.4c-0.1-0.1-0.2-0.2-0.3-0.3c-0.1-0.1-0.2-0.1-0.4-0.2c-0.2,0.1-0.3,0.1-0.4,0.2c-0.1,0-0.3,0.1-0.4,0.2
	c-0.2,0.2-0.4,0.4-0.4,0.7C90.2,31.1,90.2,31.8,90.3,32.5z M91.2,26.4c0.2,0,0.3,0,0.5,0c0.2,0,0.4-0.1,0.6-0.2
	c0.1-0.1,0.2-0.3,0.2-0.6c0-0.1,0-0.2-0.1-0.3c-0.1-0.1-0.2-0.2-0.3-0.3c-0.1-0.1-0.3-0.1-0.4-0.1c-0.1,0-0.3,0-0.4,0
	c-0.2,0-0.3,0.1-0.4,0.2c-0.2,0.2-0.4,0.3-0.4,0.5c0,0.1-0.1,0.3-0.1,0.5c0,0.1,0,0.1,0.1,0.2c0.1,0.1,0.2,0.1,0.3,0.2
	C90.9,26.4,91,26.4,91.2,26.4z M111.9,60c-0.1-0.5-0.3-1.1-0.4-1.8c-0.1-0.7-0.2-1.3-0.2-1.9c0-0.2,0-0.4,0-0.6c0-0.2,0-0.4,0-0.7
	c0-0.3,0-0.7,0-1c0-0.3,0-0.7,0-1c0-0.4,0-0.8,0-1.3c0-0.4,0-0.9,0-1.4c0-0.4,0-0.7,0.1-1.1c0.1-0.4,0.1-0.7,0.1-1.1
	c0-0.2-0.1-0.3-0.1-0.4c-0.1-0.1-0.2-0.2-0.4-0.3c-0.1-0.1-0.3-0.1-0.5-0.2c-0.2,0-0.3-0.1-0.4-0.1c-0.1,0.1-0.3,0.2-0.3,0.3
	c-0.1,0.1-0.1,0.2-0.1,0.4c0,0.8,0,1.6-0.1,2.3c-0.1,0.7-0.1,1.5-0.1,2.3c0,0.6,0,1.2,0,1.7s0,1.2,0,1.9c0,0.3,0,0.6,0.1,1.1
	c0,0.5,0.1,1,0.2,1.6c0.1,0.5,0.3,1,0.5,1.4c0.2,0.4,0.5,0.6,0.8,0.7c0.2,0,0.4,0,0.6-0.1c0.2-0.1,0.3-0.2,0.3-0.5
	C111.9,60.1,111.9,60.1,111.9,60C111.9,60,111.9,60,111.9,60z M124,56c-0.1-0.1-0.2-0.2-0.4-0.3c-0.2-0.1-0.4-0.2-0.7-0.3
	c-0.4-0.1-0.7,0-0.9,0.3c-0.3,0.3-0.5,0.6-0.7,1.1c-0.2,0.4-0.4,0.9-0.6,1.3c-0.2,0.4-0.4,0.8-0.7,1c0-0.2-0.1-0.5-0.1-0.8
	c-0.1-0.3-0.1-0.7-0.2-1.1c-0.1-0.4-0.1-0.8-0.2-1.2c-0.1-0.4-0.1-0.7-0.1-1c0-0.1-0.1-0.2-0.2-0.3c-0.1-0.1-0.2-0.2-0.3-0.3
	c-0.1-0.1-0.2-0.1-0.3-0.2c-0.1-0.1-0.2-0.1-0.2-0.1c-0.2-0.1-0.4-0.1-0.6-0.1c-0.2,0-0.3,0.1-0.3,0.3c0,0.5,0.1,1,0.3,1.5
	c0.2,0.5,0.3,1,0.3,1.5c0,0.3,0,0.6,0.1,0.9c0.1,0.4,0.1,0.7,0.2,1.1c0.1,0.4,0.2,0.8,0.3,1.1c0.1,0.4,0.3,0.7,0.4,1
	c0.2,0.2,0.4,0.5,0.7,0.7c0.4,0.1,0.7,0,0.9-0.2c0.2-0.2,0.4-0.4,0.5-0.7c0.1-0.3,0.3-0.6,0.4-0.9c0.1-0.3,0.3-0.6,0.5-0.8
	c0-0.1,0.1-0.1,0.1-0.2c0-0.1,0.1-0.1,0.1-0.2c0.2-0.3,0.3-0.5,0.5-0.7c0.1-0.2,0.3-0.4,0.4-0.6c0.2-0.2,0.3-0.4,0.5-0.5
	c0.2-0.2,0.4-0.3,0.6-0.5c0-0.2-0.1-0.3-0.1-0.4C124.1,56.3,124,56.1,124,56z M91,14.5c0.4-0.1,0.7-0.3,1.1-0.6
	c0.3-0.3,0.6-0.7,0.9-1.1c0.3-0.4,0.5-0.8,0.7-1.3c0.2-0.4,0.3-0.8,0.5-1c0-0.1,0.1-0.1,0.1-0.2c0,0.3,0.1,0.7,0.1,1
	c0.1,0.3,0.1,0.6,0.3,0.8c0.1,0.2,0.3,0.4,0.5,0.6c0.2,0.2,0.4,0.3,0.8,0.3c0.1,0,0.2-0.1,0.3-0.1c0.1,0,0.2-0.1,0.3-0.1
	c0.1,0,0.2-0.1,0.2-0.2c0.1-0.1,0.1-0.2,0.1-0.3c-0.1-0.1-0.1-0.2-0.2-0.3c-0.1-0.1-0.1-0.2-0.2-0.3c-0.2-0.3-0.4-0.6-0.5-1.1
	c-0.1-0.5-0.1-1.1-0.1-1.7c0-0.3,0-0.7,0.1-1.2c0-0.5,0.1-1.1,0.1-2c-0.1-0.1-0.2-0.2-0.3-0.3c-0.2-0.1-0.3-0.1-0.4-0.1c0,0,0,0,0,0
	c0,0,0,0,0,0c-0.4,0-0.6,0.1-0.8,0.3C94.1,5.6,94,5.8,94,5.9c0,0.2-0.1,0.3-0.1,0.5c0,0.2,0,0.4-0.1,0.6c-0.1,0.5-0.3,1-0.5,1.6
	c-0.2,0.6-0.5,1.2-0.7,1.7c-0.3,0.6-0.5,1-0.8,1.4c-0.3,0.4-0.5,0.6-0.8,0.7c0-0.3-0.1-0.7-0.1-1.3c0-0.6-0.1-1.2-0.1-1.9
	c0-0.2,0-0.4,0.1-0.6c0-0.2,0.1-0.6,0.1-1c0-0.2,0-0.5,0.1-0.6c0-0.2,0.1-0.4,0.1-0.6c0-0.3-0.1-0.5-0.3-0.6
	c-0.2-0.1-0.5-0.1-0.7-0.1c-0.1,0-0.1,0.1-0.2,0.1c0,0-0.1,0-0.1,0.1c-0.1,0-0.2,0.1-0.2,0.1c-0.1,0-0.1,0.1-0.1,0.1
	c-0.1,0.4-0.2,0.7-0.2,1.1c0,0.4,0,0.7,0,1.1c0,0.2,0,0.5,0,0.7c0,0.2,0,0.4,0,0.6c0,0.2,0,0.4,0,0.6c0,0.8,0,1.6,0.1,2.1
	c0,0.6,0.1,1,0.3,1.4c0.1,0.3,0.3,0.6,0.6,0.7C90.3,14.6,90.6,14.6,91,14.5z M130.3,65.6c0-0.1,0-0.1,0-0.2
	c-0.1-0.1-0.1-0.3-0.2-0.3c-0.1-0.1-0.2-0.2-0.2-0.2c-0.4,0-0.7,0.1-1,0.1c-0.3,0-0.7-0.1-1.1-0.3c-0.1,0-0.2-0.1-0.3-0.2
	c-0.2-0.1-0.3-0.3-0.5-0.6c-0.2-0.2-0.4-0.6-0.5-0.9c-0.2-0.4-0.2-0.8-0.3-1.4c0,0,0-0.1,0-0.1c0,0,0-0.1,0-0.2
	c0.2,0.1,0.3,0.3,0.5,0.4c0.1,0.1,0.3,0.2,0.5,0.3c0.4,0.2,0.8,0.3,1.1,0.4c0.3,0,0.6,0,0.8-0.1c0.2-0.1,0.4-0.3,0.5-0.5
	c0.1-0.2,0.2-0.5,0.2-0.8c0-0.3,0-0.5-0.1-0.8c-0.1-0.3-0.2-0.6-0.4-0.9c-0.2-0.3-0.4-0.6-0.7-0.8c-0.3-0.3-0.6-0.5-1-0.7
	c-0.5-0.3-1-0.4-1.4-0.3c-0.4,0.1-0.7,0.2-1,0.5c-0.3,0.3-0.5,0.7-0.6,1.1c-0.1,0.5-0.2,1-0.2,1.5c0,0.3,0,0.7,0.1,1
	c0,0.3,0.1,0.6,0.2,1c0.1,0.3,0.3,0.7,0.4,1c0.2,0.3,0.5,0.7,0.8,1.1c0.2,0.2,0.5,0.5,0.8,0.7c0.3,0.3,0.6,0.5,0.8,0.6
	c0.5,0.3,0.9,0.5,1.2,0.6c0.3,0.1,0.7,0.1,1,0c0.1,0,0.2-0.1,0.3-0.2c0.1-0.1,0.1-0.2,0.2-0.4C130.3,65.7,130.3,65.6,130.3,65.6z
	 M126.4,59.4c0.1-0.2,0.1-0.3,0.2-0.4c0.1-0.1,0.1-0.2,0.2-0.2c0.1,0,0.1-0.1,0.2-0.1c0.1-0.1,0.2-0.1,0.3-0.1
	c0.1,0,0.3,0.1,0.4,0.2c0.2,0.1,0.4,0.3,0.5,0.5c0.1,0.2,0.2,0.4,0.2,0.6c0,0.3-0.1,0.6-0.4,0.7c-0.3,0.1-0.6,0-1.1-0.2
	c-0.1,0-0.2-0.1-0.3-0.2c-0.1-0.1-0.2-0.1-0.3-0.2C126.3,59.8,126.3,59.6,126.4,59.4z M111.9,36.5c-0.1-0.5-0.3-1.1-0.4-1.8
	c-0.1-0.7-0.2-1.3-0.2-1.9c0-0.2,0-0.4,0-0.6c0-0.2,0-0.4,0-0.7c0-0.3,0-0.7,0-1c0-0.3,0-0.7,0-1c0-0.4,0-0.8,0-1.3
	c0-0.4,0-0.9,0-1.4c0-0.4,0-0.7,0.1-1.1c0.1-0.4,0.1-0.7,0.1-1.1c0-0.2,0-0.3-0.1-0.4c-0.1-0.1-0.2-0.2-0.4-0.3
	c-0.1-0.1-0.3-0.1-0.5-0.2c-0.2,0-0.3-0.1-0.4-0.1c-0.1,0.1-0.3,0.2-0.3,0.3c-0.1,0.1-0.1,0.2-0.1,0.4c0,0.8,0,1.6-0.1,2.3
	c-0.1,0.7-0.1,1.5-0.1,2.3c0,0.6,0,1.2,0,1.7c0,0.5,0,1.2,0,1.9c0,0.3,0,0.6,0.1,1.1c0,0.5,0.1,1,0.2,1.6c0.1,0.5,0.3,1,0.5,1.4
	c0.2,0.4,0.5,0.6,0.8,0.7c0.2,0,0.4,0,0.6-0.1c0.2-0.1,0.3-0.2,0.3-0.5C112,36.7,111.9,36.6,111.9,36.5
	C111.9,36.6,111.9,36.5,111.9,36.5z M115.7,57.8c-0.1-0.6-0.1-1.2-0.2-1.8c-0.1-0.6-0.1-1.2-0.1-1.7c0-0.2,0-0.3,0-0.4
	c0-0.1,0-0.3,0-0.4c-0.1-0.1-0.2-0.2-0.3-0.4c-0.1-0.1-0.2-0.2-0.4-0.3c-0.2,0-0.3,0-0.4,0c-0.1,0-0.3,0-0.4,0
	c-0.2,0.1-0.4,0.3-0.4,0.6c0,0.7,0,1.4,0.1,2.1c0.1,0.7,0.1,1.4,0.1,2.1c0,0.2,0,0.5,0.1,0.7c0,0.2,0.1,0.5,0.1,0.7
	c0,0.4,0,0.7,0.1,1c0.1,0.3,0.2,0.5,0.3,0.6c0.1,0.2,0.3,0.3,0.5,0.4c0.2,0.1,0.4,0.2,0.7,0.2c0.2-0.1,0.3-0.2,0.3-0.3
	s0.1-0.2,0.1-0.3c0,0,0-0.1,0-0.1c0-0.2-0.1-0.6-0.1-1.1C115.8,58.9,115.7,58.4,115.7,57.8z M46.2,65c-0.1,0-0.3,0.1-0.5,0.2
	c-0.2,0.1-0.3,0.2-0.4,0.3c-0.1,0.2-0.2,0.5-0.3,1c-0.1,0.4-0.2,0.9-0.4,1.4c-0.1,0.5-0.3,1.1-0.5,1.6c-0.2,0.6-0.4,1.1-0.7,1.5
	c-0.2-0.4-0.3-0.9-0.5-1.5c-0.2-0.6-0.2-1.2-0.2-1.8c0-0.2,0-0.3-0.1-0.4c-0.1-0.1-0.2-0.2-0.3-0.2c-0.1,0-0.2-0.1-0.4-0.1
	c-0.1,0-0.3,0-0.4-0.1c-0.2,0.1-0.3,0.2-0.4,0.3c-0.1,0.2-0.2,0.3-0.3,0.5c-0.1,0.2-0.2,0.4-0.3,0.6c-0.1,0.2-0.2,0.4-0.3,0.6
	c-0.1,0.1-0.1,0.3-0.2,0.4C40.1,69.6,40,69.8,40,70c-0.1,0.2-0.1,0.4-0.2,0.5c-0.1,0.2-0.2,0.3-0.3,0.4c0-0.2-0.1-0.3-0.1-0.5
	c0-0.2,0-0.4,0-0.6c0-0.5-0.1-0.9-0.2-1.2c-0.1-0.3-0.1-0.7-0.1-1.1c0-0.3-0.1-0.6-0.2-0.8c-0.1-0.2-0.5-0.3-1-0.2
	c-0.3,0-0.5,0.2-0.5,0.4c0,0.3-0.1,0.5-0.1,0.8c0,0.4,0,0.8,0.1,1.1c0.1,0.4,0.1,0.8,0.1,1.2c0,0.3,0,0.5,0.1,0.8
	c0.1,0.2,0.1,0.5,0.1,0.8c0,0,0,0.1,0,0.1c0,0.2,0,0.5,0,0.7c0,0.3,0.1,0.5,0.1,0.8c0.1,0.2,0.2,0.4,0.3,0.6C38.5,74,38.7,74,39,74
	c0.2,0,0.4-0.1,0.5-0.1c0.1-0.1,0.2-0.1,0.2-0.2c0-0.1,0.1-0.2,0.1-0.3c0-0.1,0.1-0.2,0.2-0.3c0.1-0.2,0.3-0.4,0.4-0.6
	c0.1-0.2,0.2-0.5,0.3-0.8c0.1-0.3,0.2-0.5,0.3-0.8c0.1-0.3,0.2-0.5,0.3-0.7c0.2,0.3,0.3,0.6,0.4,1c0.1,0.4,0.2,0.8,0.4,1.1
	c0.1,0.3,0.3,0.6,0.5,0.8c0.2,0.2,0.5,0.3,0.8,0.2c0.3-0.1,0.6-0.2,0.8-0.4c0.2-0.2,0.4-0.4,0.5-0.7c0.1-0.3,0.3-0.6,0.4-0.9
	c0.1-0.3,0.2-0.7,0.4-1c0-0.1,0.1-0.3,0.2-0.5c0.1-0.3,0.2-0.5,0.3-0.9c0.1-0.3,0.2-0.7,0.3-1.1c0.1-0.4,0.2-0.7,0.3-1.1
	c0.1-0.3,0.2-0.6,0.2-0.9c0.1-0.3,0.1-0.4,0.1-0.5c0-0.2-0.1-0.3-0.2-0.4C46.6,65,46.4,64.9,46.2,65z M67.8,58
	c-0.4,0.1-0.7,0.3-1,0.5c-0.3,0.2-0.6,0.4-1,0.5c-0.1,0-0.2,0-0.2,0c0-0.1,0-0.1,0-0.2c0-0.2,0-0.4,0-0.5c0-0.2,0-0.3,0-0.5
	c0-0.2,0-0.4,0-0.7c0-0.2,0-0.4,0-0.7c0-0.2,0-0.4,0-0.6c0-0.2,0-0.5,0-0.8c0-0.2,0-0.3,0-0.5c0-0.2-0.1-0.3-0.2-0.4
	c-0.1-0.1-0.2-0.2-0.3-0.2c-0.1,0-0.3,0-0.6,0.1c-0.1,0-0.2,0.1-0.3,0.1c-0.1,0.1-0.2,0.1-0.3,0.2c0,0.2-0.1,0.4-0.1,0.6
	c0,0.7,0,1.5,0,2.2c0,0.2,0,0.4,0,0.6c0,0.2,0,0.4,0,0.6c0,0.3,0,0.6,0,0.7c0,0.2,0,0.4,0,0.6c0,0.1,0,0.3-0.1,0.5
	c0,0.2-0.2,0.3-0.4,0.4c-0.2,0.2-0.4,0.3-0.5,0.4c-0.2,0.1-0.3,0.2-0.5,0.2c-0.1,0.1-0.3,0.1-0.5,0.2c-0.2,0.1-0.3,0.2-0.5,0.3
	c-0.1,0.3-0.1,0.5-0.1,0.6c0.1,0.1,0.2,0.2,0.4,0.3c0.2,0.1,0.4,0.1,0.7,0.1c0.2-0.1,0.4-0.2,0.6-0.3c0.2-0.1,0.4-0.3,0.6-0.4
	c0,0,0,0.1,0.1,0.1c0,0,0,0.1,0,0.2c0,0.7,0,1.4,0,2c0,0.7,0,1.4,0.1,2c0,0.3,0,0.6,0.1,0.9c0,0.3,0.1,0.6,0.2,0.7
	c0.1,0.2,0.3,0.3,0.4,0.4c0.2,0.1,0.3,0.1,0.5,0c0,0,0.1,0,0.3-0.1c0.2-0.1,0.3-0.2,0.4-0.4c0.1-0.2,0.2-0.3,0.2-0.6
	c0-0.2,0-0.3-0.1-0.5c-0.1-0.2-0.1-0.4-0.1-0.5c-0.1-0.6-0.2-1.2-0.3-1.9c-0.1-0.7-0.1-1.3-0.1-1.9c0-0.1,0-0.2,0-0.3
	c0-0.1,0-0.2,0-0.3c0-0.1,0-0.2,0-0.3c0-0.1,0-0.2,0-0.3c0-0.2,0.1-0.3,0.2-0.5c0.1-0.1,0.2-0.3,0.4-0.4c0.2-0.1,0.3-0.2,0.5-0.3
	c0.2-0.1,0.3-0.2,0.5-0.3c0.1-0.1,0.3-0.2,0.4-0.3c0.1-0.1,0.3-0.2,0.4-0.3c0.1-0.1,0.2-0.2,0.3-0.3c0.1-0.1,0.1-0.3,0.1-0.5
	c0-0.2,0-0.3-0.1-0.4C68.1,58,68,57.9,67.8,58z M56.2,46.3c0.2-0.3,0.4-0.6,0.6-1c0.1-0.4,0.3-0.8,0.3-1.1c0.1-0.4,0.1-0.7,0.2-1
	c0-0.3,0-0.6,0-0.7c0-0.3,0-0.7-0.1-1c-0.1-0.4-0.2-0.7-0.3-1c-0.1-0.3-0.4-0.5-0.6-0.7c-0.3-0.2-0.6-0.2-1-0.1
	c-0.2,0.1-0.4,0.2-0.6,0.3c-0.2,0.1-0.4,0.3-0.5,0.4c-0.2,0.1-0.3,0.3-0.4,0.4c-0.1,0.1-0.2,0.2-0.2,0.2c-0.4,0.6-0.6,1-0.8,1.3
	c-0.2,0.3-0.3,0.6-0.4,0.9c0,0,0-0.1,0-0.3c0-0.1,0-0.3,0-0.5c0-0.2,0-0.3,0-0.4c0-0.1,0-0.2,0-0.2c0-0.8,0.1-1.6,0.1-2.4
	c0-0.9,0.1-1.8,0.2-2.6c0.1-0.8,0.2-1.7,0.3-2.6c0-0.1-0.1-0.2-0.2-0.2c-0.1,0-0.2,0-0.4,0c-0.2,0-0.4,0.1-0.6,0.2
	c-0.2,0.1-0.4,0.3-0.5,0.5c-0.1,0.3-0.1,0.6-0.2,0.8c0,0.3,0,0.5,0,0.8c-0.2,1.4-0.3,2.7-0.3,3.9c0,1.2-0.1,2.4-0.1,3.6
	c0,0.3,0,0.6,0,0.9c0,0.3,0,0.7,0.1,1c0,0.3,0.1,0.6,0.1,0.8c0,0.2,0.1,0.3,0.1,0.4c0,0.1,0.1,0.3,0.1,0.5c0.1,0.2,0.1,0.3,0.2,0.4
	c0.1,0.1,0.2,0.3,0.2,0.4c0.1,0.1,0.2,0.2,0.2,0.2c0.3,0,0.7,0,1,0c0.3,0,0.7-0.1,1-0.2c0.4-0.1,0.7-0.3,1.2-0.5
	C55.5,47,55.9,46.7,56.2,46.3z M55.4,43.8c0,0.4-0.1,0.8-0.3,1.1c-0.1,0.4-0.3,0.7-0.5,1c-0.2,0.3-0.5,0.5-0.9,0.6
	c-0.2,0.1-0.4,0.1-0.5,0.1c-0.1,0-0.3-0.1-0.4-0.2c0-0.3,0-0.5,0.1-0.7c0-0.2,0.1-0.4,0.1-0.6c0.1-0.2,0.1-0.4,0.2-0.6
	c0.1-0.2,0.1-0.4,0.2-0.6c0,0,0-0.1,0-0.1c0.1-0.2,0.2-0.4,0.3-0.7c0.1-0.3,0.3-0.5,0.5-0.8c0.2-0.2,0.3-0.5,0.5-0.6
	c0.2-0.2,0.3-0.3,0.4-0.3c0.1,0,0.2,0,0.2,0.1c0.1,0.1,0.1,0.2,0.1,0.4c0,0.1,0.1,0.3,0.1,0.5c0,0.2,0,0.3,0,0.4
	C55.5,43,55.4,43.4,55.4,43.8z M60.7,61.2c-0.2-0.1-0.5,0-0.8,0c-0.2,0-0.3,0.1-0.4,0.2c-0.2,0.2-0.4,0.5-0.6,0.8
	c-0.2,0.3-0.4,0.6-0.5,0.9c-0.2,0.3-0.3,0.6-0.5,0.8c-0.2,0.3-0.3,0.5-0.4,0.6c0-0.4,0-0.7-0.1-1.1c0-0.2,0-0.3-0.1-0.5
	c0-0.2-0.1-0.3-0.1-0.4c-0.1-0.1-0.2-0.2-0.3-0.2c-0.1-0.1-0.3,0-0.6,0c-0.3,0.1-0.4,0.2-0.5,0.3c-0.1,0.1-0.2,0.3-0.2,0.5
	c0,0.1,0,0.3,0.1,0.4c0.1,0.1,0.1,0.2,0.1,0.3c0,0,0,0.1,0,0.1c0,0.3,0,0.6,0.1,0.9c0,0.3,0,0.6,0,0.9c0,0.2,0,0.5,0,0.7
	c0,0,0,0.1,0,0.3c0,0.2,0,0.4,0,0.7c0,0.3,0,0.5,0,0.9c0,0.3,0,0.6,0,0.9c0,0.3,0,0.5,0,0.7c0,0.2,0,0.3-0.1,0.4c0,0,0,0.1,0,0.1
	c0,0.2,0.1,0.4,0.2,0.5c0.2,0.1,0.4,0.1,0.6,0.1c0.2-0.1,0.4-0.2,0.5-0.3c0.1-0.1,0.3-0.3,0.3-0.5c0.1-0.2,0.1-0.3,0.2-0.5
	c0-0.2,0-0.4,0-0.5c0-0.1,0-0.3,0-0.5c0-0.2,0-0.4,0-0.5c0-0.2,0.1-0.4,0.2-0.8c0.1-0.3,0.3-0.7,0.4-1.1c0.2-0.4,0.4-0.8,0.6-1.2
	c0.2-0.4,0.4-0.7,0.6-1c0.1-0.2,0.3-0.5,0.5-0.7c0.2-0.2,0.3-0.5,0.5-0.7c0.2-0.2,0.3-0.4,0.4-0.6c0.1-0.2,0.2-0.4,0.2-0.5
	C61.1,61.5,60.9,61.3,60.7,61.2z M49.3,22.7c0.2-0.5,0.4-0.9,0.4-1.2c0.1,0.4,0.1,0.9,0.2,1.4c0.1,0.5,0.2,1,0.3,1.4
	c0.1,0.4,0.3,0.8,0.4,1.1c0.2,0.3,0.4,0.4,0.7,0.3c0.1,0,0.2-0.1,0.3-0.1c0.1,0,0.2-0.1,0.3-0.2c0.1-0.1,0.2-0.1,0.2-0.2
	c0.1-0.1,0.1-0.2,0.1-0.3c0-0.1,0-0.2-0.1-0.3c0-0.1-0.1-0.2-0.1-0.3c0-0.1-0.1-0.3-0.1-0.4c0-0.3-0.1-0.5-0.1-0.8
	c-0.2-0.6-0.3-1.2-0.3-1.7c-0.1-0.6-0.1-1.2-0.2-1.9c0-0.4-0.1-0.7-0.2-1c-0.1-0.3-0.2-0.5-0.5-0.7c-0.1-0.1-0.2-0.1-0.4-0.2
	c-0.2-0.1-0.3-0.1-0.5-0.1c-0.2,0-0.3,0-0.5,0c-0.2,0-0.3,0-0.4,0c-0.6,0.1-1.2,0.5-1.7,1c-0.5,0.6-1,1.2-1.4,1.9
	c-0.4,0.7-0.7,1.5-1,2.2c-0.2,0.7-0.3,1.3-0.3,1.8c0,0.2,0,0.4,0.1,0.7c0,0.2,0.1,0.4,0.2,0.6c0.1,0.2,0.3,0.3,0.5,0.4
	c0.2,0.1,0.5,0.1,0.8,0c0.4-0.1,0.8-0.3,1.3-0.7c0.4-0.4,0.8-0.8,1.2-1.3C48.8,23.7,49.1,23.2,49.3,22.7z M47.5,23.1
	c-0.2,0.4-0.5,0.7-0.7,1c-0.2,0.3-0.5,0.4-0.6,0.5c0,0,0,0,0,0c0,0,0,0,0,0c0,0,0-0.1,0-0.1c0-0.4,0.1-0.8,0.2-1.2
	c0.1-0.4,0.3-0.8,0.5-1.2c0-0.1,0.1-0.3,0.2-0.6c0.1-0.3,0.3-0.6,0.4-0.9c0.2-0.3,0.4-0.6,0.6-0.9c0.2-0.3,0.5-0.5,0.8-0.5
	c0.1,0,0.1,0,0.2,0c0.1,0,0.1,0,0.2,0c0,0.1,0,0.2-0.1,0.4c0,0.2-0.1,0.3-0.2,0.5c-0.1,0.2-0.2,0.4-0.2,0.5
	c-0.1,0.2-0.1,0.3-0.2,0.5c-0.1,0.3-0.3,0.7-0.5,1.1C48,22.3,47.8,22.7,47.5,23.1z M54.2,65.5c-0.1-0.1-0.2-0.3-0.3-0.5
	c-0.1-0.2-0.2-0.3-0.4-0.4c-0.2-0.1-0.4-0.2-0.6-0.2c-0.2,0-0.4-0.1-0.6-0.1c-0.2,0-0.4-0.1-0.6-0.1c-0.2,0-0.4-0.1-0.6-0.2
	c-0.1-0.1-0.3-0.1-0.4,0c-0.3,0.1-0.6,0.2-0.9,0.5c-0.3,0.3-0.6,0.6-0.8,0.9c-0.2,0.3-0.4,0.6-0.6,0.9c-0.2,0.3-0.3,0.5-0.3,0.7
	c-0.1,0.4-0.2,0.8-0.3,1.3c-0.1,0.5-0.2,0.8-0.2,1.1c0,0.6,0.1,1.1,0.4,1.5c0.3,0.4,0.6,0.7,1.1,0.8c0.2,0.1,0.4,0.2,0.6,0.3
	c0.2,0.1,0.4,0.1,0.6,0.1c0,0,0.1,0,0.1,0c0.1,0,0.2,0,0.2,0c0.1,0,0.2,0,0.2,0c0.3-0.1,0.5-0.2,0.8-0.4c0.2-0.2,0.5-0.4,0.7-0.7
	c0.2-0.3,0.4-0.5,0.6-0.8c0.2-0.3,0.3-0.5,0.4-0.7c0.2-0.4,0.4-0.8,0.6-1.2c0.2-0.4,0.2-0.8,0.3-1.3c0-0.1,0-0.3,0-0.4
	c0-0.2,0-0.3,0-0.4C54.3,65.8,54.2,65.7,54.2,65.5z M52.4,66.7c0,0.3-0.1,0.6-0.1,0.9c-0.1,0.3-0.1,0.6-0.3,1
	c-0.1,0.3-0.2,0.6-0.4,0.9c-0.2,0.3-0.4,0.5-0.6,0.7c-0.2,0.1-0.3,0.2-0.4,0.3c-0.1,0.1-0.3,0.1-0.4,0.2c-0.2,0-0.3,0-0.4-0.1
	c-0.1-0.1-0.2-0.3-0.2-0.4c-0.1-0.2-0.1-0.3-0.1-0.5c0-0.2,0-0.3,0-0.3c0-0.3,0-0.6,0.1-1c0.1-0.4,0.2-0.7,0.3-1.1
	c0.1-0.3,0.3-0.7,0.5-0.9c0.2-0.3,0.4-0.4,0.7-0.5c0.4-0.1,0.7-0.1,1,0c0.3,0.1,0.4,0.4,0.4,0.8C52.4,66.6,52.4,66.7,52.4,66.7z
	 M83.4,55.2c0-0.2-0.2-0.4-0.4-0.5c-0.2-0.1-0.4-0.1-0.7,0c-0.2,0.1-0.4,0.2-0.5,0.5c-0.1,0.3-0.2,0.6-0.2,0.9
	c0,0.3-0.1,0.7-0.1,1.1c0,0.4,0,0.7-0.1,1c-0.1,0.3-0.2,0.6-0.3,1c-0.1,0.4-0.2,0.8-0.4,1.2c-0.1,0.4-0.3,0.8-0.5,1.1
	c-0.2,0.3-0.4,0.6-0.7,0.8c-0.1-0.1-0.3-0.2-0.3-0.4c-0.1-0.2-0.1-0.5-0.2-0.7c0-0.3-0.1-0.6-0.1-0.8c0-0.3,0-0.5,0-0.7
	c0-0.1,0-0.2,0-0.4c0-0.2,0-0.4,0-0.7c0-0.3,0-0.6,0-0.8c0-0.2-0.1-0.4-0.1-0.6c0-0.2,0-0.4-0.1-0.6c0-0.2-0.1-0.3-0.3-0.4
	c-0.1-0.1-0.4-0.1-0.7,0c-0.2,0-0.3,0.1-0.4,0.3c-0.1,0.2-0.2,0.3-0.2,0.6c-0.1,0.2-0.1,0.4-0.1,0.7c0,0.2,0,0.4,0,0.6
	c0,0.2,0,0.5,0,0.7c0,0.2,0,0.4,0,0.7c0,0.1,0,0.2,0,0.3c0,0.1,0,0.2,0,0.3c0,0.4,0,0.8,0.1,1.3c0,0.5,0.2,1,0.3,1.4
	c0.2,0.4,0.4,0.8,0.7,1c0.3,0.3,0.7,0.3,1.2,0.2c0.2,0,0.4-0.1,0.5-0.3c0.2-0.1,0.4-0.3,0.6-0.5c0.2-0.2,0.4-0.4,0.5-0.6
	c0.2-0.2,0.3-0.4,0.4-0.7c0.1,0,0.1,0,0.1,0c0,0.1,0,0.2,0,0.3c0,0.1,0,0.2,0,0.3c0,1-0.1,2-0.4,2.9c-0.3,0.9-0.7,1.9-1.3,3
	c-0.2,0.2-0.4,0.5-0.6,0.7c-0.3,0.2-0.5,0.4-0.8,0.6c-0.3,0.2-0.5,0.3-0.7,0.5c-0.2,0.1-0.3,0.3-0.3,0.3c0,0.1,0,0.2,0.1,0.3
	c0.1,0.1,0.2,0.1,0.3,0.2c0.1,0,0.2,0.1,0.3,0.1c0.1,0,0.2,0,0.3,0c0.3-0.1,0.6-0.2,0.9-0.3c0.2-0.1,0.5-0.3,0.6-0.4
	c0.2-0.1,0.3-0.3,0.5-0.4c0.1-0.2,0.3-0.3,0.4-0.4c0.8-1.2,1.4-2.5,1.8-3.7c0.4-1.3,0.5-2.7,0.5-4.2c0-0.2,0-0.5,0-0.7
	c0-0.3,0-0.5,0-0.8c0-0.2,0-0.5,0-0.7c0-0.2,0-0.4,0-0.5c0-0.4,0-0.9,0-1.5C83.3,56.8,83.4,56,83.4,55.2z M88.8,28.8
	c-0.4,0.1-0.7,0.2-1,0.4c-0.3,0.2-0.6,0.3-1,0.4c-0.1,0-0.2,0-0.2-0.1c0-0.1,0-0.1,0-0.2c0-0.2,0-0.4,0-0.5c0-0.2,0-0.3,0-0.5
	c0-0.2,0-0.4,0-0.7c0-0.2,0-0.4,0-0.7c0-0.2,0-0.4,0-0.6c0-0.2,0-0.5,0-0.8c0-0.2,0-0.3,0-0.5c0-0.2-0.1-0.3-0.2-0.4
	c-0.1-0.1-0.2-0.2-0.3-0.2c-0.1-0.1-0.3,0-0.6,0c-0.1,0-0.2,0.1-0.3,0.1c-0.1,0.1-0.2,0.1-0.3,0.2c0,0.2-0.1,0.4-0.1,0.6
	c0,0.7,0,1.5,0,2.2c0,0.2,0,0.4,0,0.6c0,0.2,0,0.4,0,0.6c0,0.3,0,0.6,0,0.7c0,0.2,0,0.4,0,0.6c0,0.1,0,0.3-0.1,0.5
	c0,0.2-0.2,0.3-0.4,0.4c-0.2,0.1-0.4,0.3-0.5,0.3c-0.2,0.1-0.3,0.2-0.5,0.2c-0.1,0.1-0.3,0.1-0.5,0.2c-0.2,0.1-0.3,0.2-0.5,0.3
	c-0.1,0.3-0.1,0.5-0.1,0.6c0.1,0.1,0.2,0.2,0.4,0.3c0.2,0.1,0.4,0.2,0.7,0.1c0.2-0.1,0.4-0.1,0.6-0.3c0.2-0.1,0.4-0.2,0.6-0.3
	c0,0,0,0.1,0.1,0.1c0,0,0,0.1,0,0.2c0,0.7,0,1.4,0,2.1c0,0.7,0,1.4,0.1,2c0,0.3,0,0.6,0.1,0.9c0,0.3,0.1,0.6,0.2,0.8
	c0.1,0.2,0.2,0.3,0.4,0.4c0.2,0.1,0.3,0.1,0.5,0.1c0,0,0.1,0,0.3-0.1c0.2-0.1,0.3-0.2,0.4-0.3c0.1-0.1,0.2-0.3,0.2-0.6
	c0-0.2,0-0.3-0.1-0.5c-0.1-0.2-0.1-0.4-0.1-0.6c-0.1-0.6-0.2-1.2-0.3-1.9c-0.1-0.7-0.1-1.3-0.1-1.9c0-0.1,0-0.2,0-0.3
	c0-0.1,0-0.2,0-0.3c0-0.1,0-0.2,0-0.3c0-0.1,0-0.2,0-0.3c0-0.2,0.1-0.3,0.2-0.5c0.1-0.1,0.2-0.3,0.4-0.4c0.2-0.1,0.3-0.2,0.5-0.3
	c0.2-0.1,0.3-0.2,0.5-0.3c0.1-0.1,0.3-0.1,0.4-0.2c0.1-0.1,0.3-0.1,0.4-0.2c0.1-0.1,0.2-0.2,0.3-0.3c0.1-0.1,0.1-0.3,0.1-0.5
	c0-0.2,0-0.3-0.1-0.4C89.1,28.8,89,28.7,88.8,28.8z M78.6,39.6c0.3-0.4,0.5-0.9,0.7-1.3c0.2-0.4,0.3-0.8,0.5-1.1
	c0-0.1,0.1-0.1,0.1-0.2c0,0.3,0.1,0.6,0.1,0.9c0.1,0.3,0.1,0.6,0.3,0.8c0.1,0.2,0.3,0.4,0.5,0.5c0.2,0.1,0.4,0.2,0.8,0.2
	c0.1-0.1,0.2-0.1,0.3-0.1c0.1,0,0.2-0.1,0.3-0.1c0.1-0.1,0.2-0.1,0.2-0.2c0.1-0.1,0.1-0.2,0.1-0.4c-0.1-0.1-0.1-0.2-0.2-0.3
	c-0.1-0.1-0.1-0.1-0.2-0.2c-0.2-0.2-0.4-0.6-0.5-1.1c-0.1-0.5-0.1-1-0.1-1.7c0-0.3,0-0.7,0.1-1.2c0-0.5,0.1-1.1,0.1-2
	c-0.1-0.1-0.2-0.2-0.3-0.2c-0.2-0.1-0.3-0.1-0.4-0.1c0,0,0,0,0,0c0,0,0,0,0,0c-0.4,0.1-0.6,0.2-0.8,0.4c-0.1,0.1-0.2,0.3-0.3,0.4
	c0,0.2-0.1,0.3-0.1,0.5c0,0.2,0,0.4-0.1,0.6c-0.1,0.5-0.3,1-0.5,1.7c-0.2,0.6-0.5,1.2-0.7,1.8c-0.3,0.6-0.5,1.1-0.8,1.5
	c-0.3,0.4-0.5,0.7-0.7,0.8c0-0.3-0.1-0.7-0.1-1.3c0-0.6-0.1-1.2-0.1-1.9c0-0.2,0-0.4,0.1-0.6c0-0.2,0.1-0.6,0.1-1
	c0-0.2,0-0.5,0.1-0.6c0-0.2,0.1-0.4,0.1-0.6c0-0.3-0.1-0.4-0.3-0.5c-0.2-0.1-0.5-0.1-0.7-0.1c-0.1,0-0.1,0.1-0.2,0.1
	c0,0-0.1,0.1-0.1,0.1c-0.1,0.1-0.2,0.1-0.2,0.2c-0.1,0.1-0.1,0.1-0.1,0.1c-0.1,0.4-0.2,0.7-0.2,1.1c0,0.4,0,0.7,0,1.1
	c0,0.2,0,0.5,0,0.7c0,0.2,0,0.4,0,0.6c0,0.2,0,0.4,0,0.6c0,0.8,0,1.6,0.1,2.1c0,0.6,0.1,1,0.3,1.3c0.1,0.3,0.3,0.5,0.6,0.6
	c0.2,0.1,0.6,0.1,1,0c0.4-0.1,0.7-0.4,1.1-0.7C78,40.4,78.3,40,78.6,39.6z M75.5,61.7c0-0.2-0.1-0.5-0.1-0.8c0-0.3-0.1-0.5-0.1-0.7
	c0-0.2,0-0.5-0.1-0.8c-0.1-0.3-0.2-0.7-0.3-0.9c-0.1-0.3-0.3-0.5-0.6-0.7c-0.2-0.2-0.6-0.2-0.9-0.1c-0.2,0.1-0.5,0.2-0.7,0.5
	c-0.2,0.2-0.5,0.5-0.7,0.9c-0.2,0.3-0.4,0.7-0.6,1.1c-0.2,0.4-0.4,0.8-0.5,1.3c0-0.5,0-1,0-1.5c0-0.5,0-1,0-1.5c0-0.5,0-1,0-1.5
	c0-0.5,0-1.1,0.1-1.7c0-0.3,0-0.6,0.1-0.9c0.1-0.3,0.1-0.6,0.1-1c0-0.3-0.1-0.5-0.2-0.7c-0.1-0.2-0.4-0.2-0.7-0.1
	c-0.2,0.1-0.4,0.2-0.6,0.3c-0.1,0.4-0.2,0.8-0.2,1.3c-0.1,0.5-0.1,1-0.1,1.5c0,0.5,0,1.1-0.1,1.6c0,0.6,0,1.1,0,1.6
	c0,0.8,0,1.7,0.1,2.5c0,0.8,0.1,1.7,0.1,2.5c0,0.1,0,0.3,0,0.4c0,0.3,0,0.6,0,0.9c0,0.3,0.1,0.6,0.2,0.8c0.1,0.2,0.2,0.4,0.5,0.5
	c0.2,0.1,0.5,0.1,0.9,0c0.1,0,0.2-0.1,0.3-0.2c0.1-0.1,0.1-0.2,0.2-0.4c0-0.1,0.1-0.3,0.1-0.5c0-0.2,0-0.3,0.1-0.5c0,0,0-0.1,0-0.1
	c0,0,0,0,0-0.1c0,0,0,0,0-0.1c0,0,0-0.1,0-0.1c0-0.1,0-0.3,0.1-0.5c0-0.3,0.1-0.5,0.2-0.9c0.1-0.3,0.2-0.7,0.3-1.1
	c0.1-0.4,0.2-0.7,0.4-1.1c0.1-0.3,0.3-0.6,0.4-0.9c0.2-0.3,0.3-0.4,0.5-0.5c0.1,0,0.1,0,0.2,0.2c0.1,0.1,0.1,0.3,0.2,0.5
	c0,0.2,0.1,0.4,0.1,0.7c0,0.2,0.1,0.4,0.1,0.6c0,0.2,0,0.5,0.1,1c0,0.4,0.1,0.9,0.2,1.3c0.1,0.4,0.3,0.8,0.5,1
	c0.2,0.3,0.5,0.4,0.8,0.3c0.1,0,0.2-0.1,0.4-0.3c0.1-0.2,0.2-0.3,0.3-0.5c0-0.4-0.1-0.8-0.3-1.3C75.6,62.6,75.5,62.2,75.5,61.7z
	 M70.4,40.2c0.2-0.5,0.4-0.9,0.4-1.2c0.1,0.4,0.1,0.9,0.2,1.4c0.1,0.5,0.2,1,0.3,1.4c0.1,0.4,0.3,0.8,0.4,1c0.2,0.3,0.4,0.3,0.7,0.3
	c0.1,0,0.2-0.1,0.3-0.1c0.1-0.1,0.2-0.1,0.3-0.2c0.1-0.1,0.2-0.1,0.2-0.2c0.1-0.1,0.1-0.2,0.1-0.3c0-0.1,0-0.2-0.1-0.3
	c0-0.1-0.1-0.2-0.1-0.3c0-0.1-0.1-0.3-0.1-0.4c0-0.2-0.1-0.5-0.1-0.7c-0.2-0.6-0.3-1.2-0.3-1.7c-0.1-0.6-0.1-1.2-0.2-1.8
	c0-0.4-0.1-0.7-0.2-1c-0.1-0.3-0.2-0.5-0.5-0.7c-0.1,0-0.2-0.1-0.4-0.1c-0.2,0-0.3-0.1-0.5-0.1c-0.2,0-0.3,0-0.5,0
	c-0.2,0-0.3,0-0.4,0.1c-0.6,0.2-1.2,0.6-1.7,1.2c-0.5,0.6-1,1.3-1.4,2.1c-0.4,0.8-0.7,1.5-1,2.3c-0.2,0.8-0.3,1.4-0.3,1.8
	c0,0.2,0,0.4,0.1,0.7c0,0.2,0.1,0.4,0.2,0.6c0.1,0.2,0.3,0.3,0.5,0.3c0.2,0.1,0.5,0,0.8-0.1c0.4-0.1,0.8-0.4,1.3-0.8
	c0.4-0.4,0.8-0.9,1.2-1.4C69.9,41.3,70.2,40.7,70.4,40.2z M68.6,40.7c-0.2,0.4-0.5,0.8-0.7,1.1c-0.2,0.3-0.5,0.5-0.6,0.6
	c0,0,0,0,0,0c0,0,0,0,0,0c0,0,0-0.1,0-0.1c0-0.4,0.1-0.8,0.2-1.2c0.1-0.4,0.3-0.9,0.5-1.3c0-0.1,0.1-0.3,0.2-0.6
	c0.1-0.3,0.3-0.6,0.4-1c0.2-0.4,0.4-0.7,0.6-1c0.2-0.3,0.5-0.5,0.8-0.6c0.1,0,0.1,0,0.2,0c0.1,0,0.1,0,0.2,0c0,0.1,0,0.2-0.1,0.4
	c0,0.2-0.1,0.3-0.2,0.5c-0.1,0.2-0.2,0.4-0.2,0.5c-0.1,0.2-0.1,0.3-0.2,0.5c-0.1,0.3-0.3,0.7-0.5,1.1C69,39.9,68.8,40.3,68.6,40.7z"
	/>
</svg>
