<?xml version="1.0" encoding="utf-8"?>
<!-- Generator: Adobe Illustrator 27.0.1, SVG Export Plug-In . SVG Version: 6.00 Build 0)  -->
<svg version="1.1" id="Capa_1" xmlns="http://www.w3.org/2000/svg" xmlns:xlink="http://www.w3.org/1999/xlink" x="0px" y="0px"
	 viewBox="0 0 170 160" style="enable-background:new 0 0 170 160;" xml:space="preserve">
<style type="text/css">
	.st0{fill:#CCCCCC;}
	.st1{fill:#F2F2F2;}
	.st2{fill:#B7B7B7;}
</style>
<path class="st0" d="M91,39c0.2,0.1,0.4,0.2,0.6,0.3s0.5,0.1,0.7,0.1c0.3,0,0.6-0.1,0.8-0.2c0.2-0.1,0.3-0.4,0.3-0.8
	c0-0.2-0.1-0.3-0.2-0.5c-0.1-0.2-0.3-0.3-0.4-0.4c-0.2-0.1-0.4-0.2-0.6-0.3c-0.2-0.1-0.4-0.1-0.6-0.1c-0.3,0-0.4,0-0.5,0.1
	c-0.3,0.2-0.5,0.4-0.6,0.5c0,0.2-0.1,0.4-0.1,0.6c0,0.1,0.1,0.2,0.2,0.3C90.6,38.8,90.8,38.9,91,39z M62.1,51.7
	c0.2-0.5,0.3-1,0.4-1.3c0.4-0.4,1-0.6,1.8-0.7l2-0.2c0.4,1,0.7,2.3,1,3.8c0.3,1.4,0.9,2.2,1.9,2.4c0.1,0,0.4-0.1,0.7-0.4
	c0.3-0.3,0.5-0.6,0.5-1c0-0.2-0.1-0.5-0.2-0.8c-0.5-1.6-1.1-3.3-1.6-5.2c-0.5-1.9-1-4.1-1.5-6.4c0-0.4-0.1-0.8-0.2-1.2
	c-0.1-0.4-0.1-0.8-0.2-1.2c-0.2-1-0.5-1.7-1.1-2.2c-0.2-0.2-0.5-0.3-0.8-0.3c-0.4,0-0.6,0.1-0.8,0.4c-0.3,0.6-0.5,1.4-0.8,2.3
	c-0.3,0.9-0.6,1.9-0.9,3.1c-0.8,2.7-1.3,4.6-1.7,5.6c0,0.1-0.2,0.3-0.6,0.3c-0.3,0.1-0.6,0.2-0.6,0.3c-0.1,0.1-0.1,0.2-0.1,0.3
	s0.1,0.3,0.4,0.5c0.3,0.2,0.4,0.4,0.4,0.5c-0.1,0.7-0.4,1.7-1,3.2c-0.4,1.1-0.7,2-0.7,2.8v0.3c0,0.4,0.4,0.7,1,0.9
	c0.1,0,0.2,0.1,0.2,0.1s0.1,0,0.2,0c0.3,0,0.5-0.1,0.6-0.4c0.3-0.7,0.7-1.8,1-3.3C61.7,52.9,61.9,52.3,62.1,51.7z M64.8,42.8
	c0.1,0.4,0.2,0.8,0.3,1.2c0.1,0.4,0.2,0.8,0.3,1.2c0.1,0.4,0.2,0.9,0.2,1.3s0.1,0.8,0.2,1.2c-1.4,0-2.2,0-2.5,0.1
	C63.7,46.1,64.2,44.5,64.8,42.8z M77.7,53.3h-0.4c-0.4,0-0.7-0.2-1.1-0.5c-0.2-0.1-0.5-0.3-0.7-0.6c-0.2-0.3-0.5-0.6-0.7-1
	c-0.2-0.4-0.4-0.8-0.5-1.2c-0.1-0.4-0.2-0.8-0.2-1.3c0-0.2,0-0.5,0.1-0.8c0-0.3,0.1-0.5,0.3-0.8c0.1-0.1,0.2-0.3,0.3-0.4
	c0.1-0.1,0.3-0.3,0.5-0.4c0.2-0.2,0.5-0.3,0.8-0.5c0.2-0.1,0.4-0.2,0.6-0.2c0.2,0,0.4-0.1,0.6-0.2c0.2-0.1,0.3-0.2,0.5-0.4
	c0.1-0.2,0.2-0.3,0.2-0.4c-0.1-0.5-0.3-0.8-0.4-0.9c-0.2-0.1-0.5-0.2-1-0.3c-0.3,0-0.6,0.1-0.9,0.2s-0.6,0.2-0.8,0.3l-1.1,0.5
	c-0.4,0.2-0.7,0.5-0.9,0.9s-0.5,0.7-0.7,1.2c-0.2,0.4-0.3,0.9-0.4,1.3c-0.1,0.4-0.1,0.9-0.1,1.3c0,0.1,0,0.3,0,0.5
	c0,0.2,0.1,0.4,0.1,0.6c0,0.2,0.1,0.4,0.2,0.6c0.1,0.2,0.2,0.4,0.3,0.5c0.3,0.6,0.6,1.2,1.1,1.7c0.5,0.5,1,0.9,1.5,1.3
	c0.3,0.2,0.6,0.4,0.9,0.5c0.3,0.1,0.6,0.2,1,0.3c0.2,0,0.4,0,0.7-0.1c0.2,0,0.4-0.1,0.6-0.1c0.2-0.1,0.3-0.2,0.4-0.3
	c0.1-0.1,0.2-0.3,0.2-0.5c0-0.2-0.1-0.4-0.2-0.6C78.1,53.4,77.9,53.3,77.7,53.3z M104.9,44c-0.1-0.1-0.3-0.2-0.5-0.2
	c-0.2,0-0.6-0.1-1-0.1c-0.5,0.1-1,0.4-1.3,0.9c-0.4,0.5-0.7,1.2-1,1.9c-0.3,0.7-0.6,1.4-0.9,2.2c-0.3,0.7-0.6,1.3-0.9,1.7
	c0-0.3-0.1-0.6-0.2-1.1c-0.1-0.5-0.2-0.9-0.3-1.4c-0.1-0.5-0.2-1-0.3-1.5c-0.1-0.5-0.1-1-0.1-1.4c0-0.1-0.1-0.3-0.3-0.4
	c-0.1-0.1-0.3-0.2-0.4-0.3c-0.1-0.1-0.3-0.1-0.4-0.1c-0.2,0-0.3,0-0.3,0c-0.3,0-0.5,0-0.8,0.1c-0.3,0.1-0.5,0.3-0.5,0.6
	c0,0.7,0.1,1.3,0.4,2c0.2,0.7,0.4,1.3,0.5,2c0,0.4,0.1,0.8,0.1,1.3c0.1,0.5,0.2,1,0.3,1.5c0.1,0.5,0.3,1,0.5,1.5
	c0.2,0.5,0.4,0.9,0.6,1.3l0.9,0.8c0.5-0.1,1-0.3,1.3-0.7c0.3-0.4,0.6-0.8,0.8-1.3s0.4-1,0.6-1.5c0.2-0.5,0.4-1,0.7-1.4
	c0.1-0.1,0.1-0.2,0.2-0.3c0-0.1,0.1-0.2,0.1-0.3c0.2-0.5,0.5-0.9,0.7-1.3c0.2-0.4,0.4-0.8,0.6-1.1c0.2-0.4,0.5-0.7,0.7-1.1
	s0.5-0.7,0.9-1.1c0-0.2-0.1-0.4-0.1-0.6S105.1,44.1,104.9,44z M88.1,41.9c-0.5,0-1,0.1-1.4,0.3c-0.4,0.2-0.8,0.3-1.4,0.3
	c-0.2,0-0.3,0-0.3-0.2c0-0.1,0-0.2,0-0.3c0-0.3,0-0.5,0-0.8c0-0.2,0-0.5,0-0.7c0-0.3,0-0.6,0-0.9c0-0.3,0-0.6,0-0.9
	c0-0.3,0-0.6,0-0.9c0-0.3,0-0.7,0-1.1c0-0.2,0-0.4-0.1-0.7s-0.1-0.4-0.2-0.6c-0.1-0.2-0.3-0.3-0.5-0.5s-0.5-0.2-0.8-0.2
	c-0.2,0-0.3,0-0.4,0.1c-0.1,0-0.2,0.1-0.4,0.2c-0.1,0.3-0.1,0.5-0.1,0.8v3.1c0,0.3,0,0.6,0,0.9c0,0.3,0,0.6,0,0.9c0,0.5,0,0.8,0,1.1
	c0,0.2,0,0.6,0,0.9c0,0.2,0,0.4-0.1,0.6s-0.2,0.4-0.6,0.4c-0.3,0.1-0.5,0.2-0.7,0.3c-0.2,0.1-0.4,0.1-0.6,0.2s-0.4,0.1-0.6,0.1
	c-0.2,0-0.5,0.1-0.7,0.2c-0.1,0.3-0.1,0.6-0.1,0.8c0.1,0.2,0.3,0.4,0.6,0.6c0.3,0.3,0.6,0.4,1,0.4c0.3,0,0.6-0.1,0.8-0.2
	c0.2-0.1,0.5-0.2,0.9-0.3c0,0.1,0.1,0.2,0.1,0.2c0,0.1,0,0.1,0,0.2c0,1,0,2,0.1,2.9c0,1,0.1,1.9,0.1,2.9c0,0.4,0.1,0.8,0.1,1.3
	c0.1,0.5,0.2,0.9,0.3,1.1c0.2,0.3,0.4,0.5,0.6,0.7c0.2,0.2,0.5,0.3,0.8,0.3c0,0,0.2,0,0.4-0.1c0.2-0.1,0.4-0.2,0.6-0.3
	c0.2-0.2,0.3-0.4,0.3-0.8c0-0.2,0-0.5-0.1-0.8s-0.2-0.6-0.2-0.8c-0.2-0.9-0.3-1.8-0.4-2.8c-0.1-1-0.2-1.9-0.2-2.8c0-0.1,0-0.3,0-0.4
	c0-0.1,0-0.3,0-0.4s0-0.2,0-0.4c0-0.1,0-0.2,0-0.4c0-0.2,0.1-0.4,0.2-0.6c0.2-0.2,0.3-0.3,0.6-0.4c0.2-0.1,0.5-0.2,0.7-0.3
	c0.2-0.1,0.5-0.1,0.6-0.2c0.2-0.1,0.4-0.1,0.6-0.2s0.4-0.1,0.6-0.2c0.2-0.1,0.3-0.2,0.5-0.3s0.2-0.4,0.2-0.6c0-0.2-0.1-0.4-0.2-0.7
	C88.6,42.1,88.4,41.9,88.1,41.9z M93.1,50.4c-0.1-0.8-0.2-1.6-0.3-2.5c-0.1-0.9-0.1-1.7-0.1-2.4c0-0.2,0-0.4,0-0.6s0-0.4,0-0.6
	c-0.1-0.1-0.2-0.3-0.4-0.4c-0.1-0.1-0.4-0.3-0.6-0.3c-0.2,0-0.4,0.1-0.6,0.1c-0.2,0-0.4,0.1-0.6,0.1c-0.3,0.2-0.5,0.5-0.5,1
	c0,1,0.1,2,0.2,2.9c0.1,0.9,0.2,1.9,0.2,2.9c0,0.3,0,0.7,0.1,1c0.1,0.3,0.1,0.7,0.1,1c0,0.6,0.1,1,0.2,1.4c0.1,0.3,0.3,0.6,0.5,0.8
	s0.5,0.3,0.8,0.4c0.3,0.1,0.6,0.1,0.9,0.1c0.2-0.2,0.4-0.4,0.5-0.6c0.1-0.2,0.1-0.3,0.1-0.5V54c0-0.3-0.1-0.8-0.2-1.5
	C93.3,51.9,93.2,51.2,93.1,50.4z M113.9,52.8c0-0.1,0-0.2-0.1-0.3c-0.1-0.1-0.2-0.2-0.3-0.3s-0.2-0.1-0.3-0.1
	c-0.5,0.3-1,0.7-1.4,0.9c-0.4,0.3-0.9,0.4-1.5,0.4c-0.1,0-0.2,0-0.5-0.1c-0.2-0.1-0.5-0.2-0.8-0.4c-0.3-0.2-0.5-0.5-0.7-0.9
	c-0.2-0.4-0.3-1-0.4-1.7c0,0,0-0.1,0-0.2s0-0.2,0-0.3c0.3,0.1,0.5,0.1,0.7,0.2s0.4,0,0.7,0c0.6,0,1.1-0.1,1.6-0.3
	c0.5-0.2,0.9-0.5,1.2-0.8c0.3-0.3,0.6-0.7,0.7-1.2c0.2-0.4,0.3-0.9,0.3-1.3c0-0.4-0.1-0.7-0.2-1c-0.1-0.3-0.3-0.6-0.6-0.9
	c-0.3-0.3-0.6-0.5-1-0.6c-0.4-0.2-0.8-0.2-1.4-0.2c-0.7,0-1.4,0.2-1.9,0.6c-0.6,0.4-1,0.9-1.4,1.5c-0.4,0.6-0.7,1.3-0.9,2
	s-0.3,1.5-0.3,2.2c0,0.5,0.1,0.9,0.1,1.4c0,0.4,0.2,0.8,0.3,1.2c0.2,0.4,0.4,0.8,0.6,1.1c0.3,0.4,0.6,0.7,1.1,1.1
	c0.3,0.2,0.7,0.3,1.2,0.5c0.5,0.1,0.9,0.2,1.2,0.2c0.7,0,1.3-0.1,1.8-0.2c0.5-0.1,0.9-0.4,1.5-0.9c0.2-0.1,0.3-0.3,0.4-0.5
	c0.1-0.2,0.2-0.4,0.2-0.7C114,53,114,52.9,113.9,52.8z M108.4,47.2c0.1-0.3,0.2-0.5,0.3-0.7c0.1-0.2,0.2-0.3,0.3-0.4
	c0.1-0.1,0.2-0.2,0.3-0.3c0.1-0.2,0.2-0.3,0.4-0.3c0.2,0,0.4-0.1,0.6-0.1c0.3,0,0.5,0.1,0.7,0.4c0.2,0.2,0.2,0.5,0.2,0.8
	c0,0.5-0.2,0.9-0.6,1.2c-0.4,0.3-0.9,0.5-1.6,0.5c-0.1,0-0.2,0-0.4,0s-0.3,0-0.4,0C108.2,47.8,108.3,47.5,108.4,47.2z M74.7,105.1
	c0.1,0.1,0.3,0.2,0.4,0.3c0.2,0.1,0.4,0.2,0.6,0.3c0.2,0.1,0.5,0.1,0.7,0.1c0.3,0,0.6-0.1,0.8-0.2c0.2-0.1,0.3-0.4,0.3-0.8
	c0-0.2-0.1-0.3-0.2-0.5c-0.1-0.2-0.3-0.3-0.4-0.4c-0.2-0.1-0.4-0.2-0.6-0.3c-0.2-0.1-0.4-0.1-0.6-0.1c-0.3,0-0.4,0-0.5,0.1
	c-0.3,0.2-0.5,0.4-0.6,0.5s-0.1,0.4-0.1,0.6C74.5,104.9,74.5,105,74.7,105.1z M77.3,116.8c-0.1-0.8-0.2-1.6-0.3-2.5
	c-0.1-0.9-0.1-1.7-0.1-2.4c0-0.2,0-0.4,0-0.6s0-0.4,0-0.6c-0.1-0.1-0.2-0.3-0.4-0.4c-0.1-0.2-0.4-0.3-0.6-0.3
	c-0.2,0-0.4,0.1-0.6,0.1c-0.2,0-0.4,0.1-0.6,0.1c-0.3,0.2-0.5,0.5-0.5,1c0,1,0.1,2,0.2,2.9s0.2,1.9,0.2,2.9c0,0.3,0,0.7,0.1,1
	c0.1,0.3,0.1,0.7,0.1,1c0,0.6,0.1,1,0.2,1.4c0.1,0.3,0.3,0.6,0.5,0.8s0.5,0.3,0.8,0.4c0.3,0.1,0.6,0.1,0.9,0.1
	c0.2-0.2,0.4-0.4,0.5-0.6c0.1-0.2,0.1-0.3,0.1-0.5v-0.1c0-0.3-0.1-0.8-0.2-1.5C77.5,118.3,77.4,117.6,77.3,116.8z M74.2,101.4
	c-0.3-0.2-0.6-0.3-0.9-0.3c-1.4,0-3.3,0.4-5.6,1.2c-1.3,0.4-2.4,0.8-3.3,1c-0.9,0.2-1.6,0.4-2.1,0.5c-0.7,0.1-1.1,0.4-1.1,0.9
	c0,0.4,0.2,0.7,0.6,1.1c0.4,0.4,0.7,0.6,1.1,0.7c0,0.1,0,0.2,0,0.3c0,0.1,0,0.2,0,0.3c0.1,1.1,0.1,2,0.2,2.7s0.1,1.1,0.1,1.3
	c0,0.6,0,1.2-0.1,1.8c-0.1,0.5-0.1,1.1-0.2,1.5c0,0-0.1,0-0.2,0c-0.2,0-0.3,0.1-0.5,0.3c-0.1,0.2-0.3,0.3-0.6,0.3
	c-0.1,0.2-0.1,0.4-0.2,0.6s0,0.3,0,0.4c0,0.1,0,0.2,0,0.2c0.1,0.1,0.4,0.3,0.9,0.5c0.4,0.1,0.6,0.3,0.6,0.6c0.1,0.3,0.1,0.8,0.1,1.5
	c0,0.2,0,0.5,0,0.7c0,0.2,0,0.5,0,0.8c-0.1,0.8-0.1,1.5-0.2,2c0,0.5,0,0.8,0,0.9c0,0.9,0.1,1.6,0.3,2.2c0.1,0.3,0.2,0.5,0.5,0.7
	c0.3,0.2,0.5,0.3,0.8,0.3c0.2,0,0.4-0.1,0.5-0.3c0.5-1,0.8-2.3,0.8-4.1c0-0.5,0-1.2-0.1-2.2c0-0.5,0-0.9,0-1.3c0-0.4,0-0.7,0-0.9
	c0-0.3,0-0.5,0-0.7c0-0.2,0-0.4,0-0.6c0.4-0.1,0.7-0.1,0.9-0.2c0.3,0,0.5-0.1,0.6-0.1l2.5-0.8c0.9-0.4,1.4-1,1.5-1.8
	c0-0.3-0.2-0.5-0.6-0.5c0,0-0.1,0-0.1,0c-0.1,0-0.1,0-0.1,0c-0.2,0-0.5,0-0.9,0.1s-0.7,0.2-1.1,0.3c-1.1,0.3-1.8,0.4-2.2,0.4
	c-0.1,0-0.2,0-0.2,0c-0.1,0-0.2,0-0.3,0c0-0.6-0.1-1.3-0.1-2c0-0.7,0-1.3,0-2c0-0.6,0-1.3,0-1.9c0-0.6,0-1.3,0.1-1.9
	c0.3-0.1,0.6-0.2,1.2-0.4c0.5-0.2,1.2-0.5,2-0.8c0.6-0.3,1.2-0.5,1.8-0.6s1-0.3,1.5-0.3c0.2,0,0.4,0.1,0.6,0.2
	c0.2,0.1,0.4,0.2,0.6,0.2h0.1c0.4-0.1,0.7-0.3,1-0.6s0.4-0.7,0.4-1.1C74.6,101.8,74.5,101.6,74.2,101.4z M87.5,108.3
	c-0.5,0-1,0.1-1.4,0.3c-0.4,0.2-0.8,0.3-1.4,0.3c-0.2,0-0.3,0-0.3-0.1c0-0.1,0-0.2,0-0.3c0-0.3,0-0.5,0-0.8c0-0.2,0-0.5,0-0.7
	c0-0.3,0-0.6,0-0.9c0-0.3,0-0.6,0-0.9c0-0.3,0-0.6,0-0.9c0-0.3,0-0.7,0-1.1c0-0.2,0-0.4-0.1-0.7c0-0.2-0.1-0.4-0.2-0.6
	c-0.1-0.2-0.3-0.3-0.5-0.5s-0.5-0.2-0.8-0.2c-0.2,0-0.3,0-0.4,0.1c-0.1,0.1-0.2,0.1-0.4,0.2c-0.1,0.3-0.1,0.5-0.1,0.8v3.1
	c0,0.3,0,0.6,0,0.9c0,0.3,0,0.6,0,0.9c0,0.5,0,0.8,0,1.1c0,0.3,0,0.6,0,0.9c0,0.2,0,0.4-0.1,0.6s-0.2,0.4-0.6,0.4
	c-0.3,0.1-0.5,0.2-0.7,0.3c-0.2,0.1-0.4,0.1-0.6,0.2s-0.4,0.1-0.6,0.1c-0.2,0-0.5,0.1-0.7,0.2c-0.1,0.3-0.1,0.6-0.1,0.8
	c0.1,0.2,0.3,0.4,0.6,0.6c0.3,0.3,0.6,0.4,1,0.4c0.3,0,0.6-0.1,0.8-0.2c0.2-0.1,0.5-0.2,0.9-0.3c0,0.1,0.1,0.2,0.1,0.2
	c0,0.1,0,0.1,0,0.2c0,1,0,2,0.1,2.9c0,1,0.1,1.9,0.1,2.9c0,0.4,0.1,0.8,0.1,1.3c0.1,0.5,0.2,0.9,0.3,1.1c0.2,0.3,0.4,0.5,0.6,0.7
	c0.2,0.2,0.5,0.3,0.8,0.3c0,0,0.2,0,0.4-0.1c0.2-0.1,0.4-0.2,0.6-0.3c0.2-0.2,0.3-0.4,0.3-0.8c0-0.2,0-0.5-0.1-0.8
	c-0.1-0.3-0.2-0.6-0.2-0.8c-0.2-0.9-0.3-1.8-0.4-2.8c-0.1-1-0.2-1.9-0.2-2.8c0-0.1,0-0.3,0-0.4s0-0.3,0-0.4s0-0.2,0-0.4s0-0.2,0-0.4
	c0-0.2,0.1-0.4,0.2-0.6c0.2-0.2,0.3-0.3,0.6-0.4c0.2-0.1,0.5-0.2,0.7-0.3s0.5-0.1,0.6-0.2c0.2-0.1,0.4-0.1,0.6-0.2s0.4-0.1,0.6-0.2
	c0.2-0.1,0.3-0.2,0.5-0.3c0.1-0.2,0.2-0.4,0.2-0.6c0-0.2-0.1-0.4-0.2-0.7C88,108.4,87.8,108.3,87.5,108.3z"/>
<path class="st1" d="M63.4,24.2c0,0.9-0.2,1.8-0.6,2.7c-0.1,0.2-0.3,0.3-0.6,0.4c-0.3,0-0.5,0.1-0.6,0.2c-0.3,0.3-0.5,0.6-0.5,0.9
	c0,0.4,0.3,0.7,0.9,1c0.1,0.1,0.3,0.1,0.5,0.1c0.5,0,1-0.2,1.6-0.6c0.7-0.5,1.2-1,1.3-1.3c0.5-1,0.8-2.1,0.8-3.2
	c0-1.3-0.5-3-1.4-4.9c-0.7-1.4-1.3-2.5-1.7-3.3c-0.4-0.8-0.6-1.2-0.6-1.3c-0.2-0.5-0.3-1-0.3-1.6c0-1.6,0.5-2.9,1.6-4
	c0.1-0.1,0.2-0.2,0.4-0.2c0.1,0,0.2,0,0.5,0.1c0,0,0.1,0,0.2,0c0.1,0,0.2,0,0.3-0.1c0.6-0.3,0.9-0.7,0.9-1.1c0-0.2-0.1-0.5-0.3-0.7
	c-0.4-0.5-1-0.7-1.9-0.7c-0.4,0-0.9,0.1-1.4,0.3c-1,0.5-1.8,1.3-2.3,2.4c-0.5,1-0.7,2-0.7,3.3c0,1.5,0.6,3.5,1.9,5.9
	C62.8,21,63.4,22.9,63.4,24.2z M81.3,26.3c0.1-0.2,0.2-0.4,0.2-0.7s0.1-0.5,0.1-0.7c0-0.2,0-0.4,0-0.7c0-0.3,0-0.5,0-0.7
	c0-0.3,0.1-0.6,0.2-1c0.2-0.4,0.4-0.9,0.6-1.4c0.2-0.5,0.5-0.9,0.8-1.4c0.3-0.5,0.6-0.9,0.9-1.2c0.2-0.3,0.4-0.5,0.6-0.8
	c0.2-0.3,0.5-0.5,0.7-0.8c0.2-0.2,0.4-0.5,0.6-0.7c0.2-0.2,0.3-0.4,0.3-0.6c-0.2-0.4-0.4-0.7-0.7-0.9s-0.7-0.3-1.2-0.3
	c-0.2,0-0.4,0-0.6,0.1c-0.3,0.2-0.5,0.5-0.8,0.8c-0.3,0.3-0.5,0.7-0.8,1.1c-0.2,0.4-0.5,0.7-0.7,1c-0.2,0.3-0.4,0.5-0.6,0.7L81,16.6
	c0-0.2,0-0.4-0.1-0.7s-0.1-0.5-0.2-0.6c-0.1-0.2-0.3-0.3-0.5-0.5c-0.2-0.1-0.5-0.2-0.8-0.2c-0.4,0-0.6,0.1-0.8,0.2
	c-0.1,0.1-0.2,0.3-0.3,0.6c0,0.2,0,0.4,0.1,0.6s0.1,0.3,0.1,0.5v0.1c0,0.4,0,0.9,0.1,1.3c0,0.4,0,0.9,0,1.3v1c0,0,0,0.2,0,0.5
	c0,0.3,0,0.6,0,1s0,0.8,0,1.2c0,0.4,0,0.9,0,1.2c0,0.4,0,0.7,0,1c0,0.3,0,0.5-0.1,0.6v0.1c0,0.3,0.1,0.6,0.3,0.9
	c0.2,0.2,0.5,0.3,0.9,0.3c0.3,0,0.6-0.1,0.8-0.2C81,26.7,81.1,26.5,81.3,26.3z M108.2,22c-0.1-0.7-0.2-1.3-0.3-2
	c-0.1-0.7-0.3-1.3-0.6-1.9c-0.1-0.3-0.2-0.5-0.3-0.8c-0.1-0.3-0.2-0.6-0.2-0.8c-0.1-0.3-0.2-0.5-0.4-0.7s-0.4-0.4-0.8-0.5
	c-0.4,0-0.8,0.2-1.2,0.5s-0.7,0.7-1,1.1c-0.3,0.4-0.6,0.9-0.8,1.4s-0.4,0.9-0.5,1.2l-0.1,0.2c-0.2,0.4-0.3,0.8-0.5,1.3
	c-0.2,0.4-0.4,0.8-0.7,1.1v-0.2c0-0.5,0-1,0-1.5c0-0.5,0-1.1,0-1.9c0-0.2,0-0.4-0.1-0.6s-0.1-0.4-0.1-0.6c0-0.2,0-0.4,0-0.6
	c0-0.2-0.1-0.5-0.1-0.7c-0.1-0.2-0.2-0.4-0.3-0.6c-0.1-0.1-0.4-0.2-0.6-0.2c-0.1,0-0.2,0-0.3,0c-0.1,0-0.2,0-0.4,0
	c-0.2,0.1-0.4,0.3-0.5,0.5c-0.1,0.2-0.1,0.5-0.1,0.7c0,0.3,0,0.7,0,1c0,0.4,0,0.7,0,1c0,1.2,0,2.3,0,3.4c0,1.1,0,2.2,0,3.5
	c0,0.3,0.1,0.5,0.4,0.7c0.3,0.2,0.5,0.3,0.7,0.3c0.2,0,0.4,0,0.6,0s0.4-0.1,0.6-0.3c0.2-0.1,0.5-0.4,0.7-0.7
	c0.3-0.3,0.5-0.8,0.9-1.3c0.2-0.4,0.4-0.8,0.6-1.2c0.2-0.4,0.3-0.8,0.5-1.3c0.2-0.4,0.4-0.9,0.6-1.4c0.2-0.5,0.5-1,0.8-1.5
	c0.2,0.2,0.4,0.6,0.5,0.9c0.1,0.4,0.2,0.8,0.3,1.2c0.1,0.4,0.2,0.9,0.2,1.3c0.1,0.4,0.1,0.8,0.2,1.2c0.1,0.3,0.1,0.6,0.2,1
	c0,0.4,0.1,0.8,0.2,1.2c0.1,0.4,0.3,0.7,0.5,1c0.2,0.3,0.5,0.4,0.8,0.4c0.2,0,0.5-0.1,0.8-0.2c0.3-0.1,0.5-0.4,0.5-0.7
	c-0.2-0.6-0.4-1.2-0.5-1.8C108.4,23.4,108.3,22.7,108.2,22z M68.1,17.2c0.3,0.3,0.6,0.4,1,0.4c0.3,0,0.6-0.1,0.8-0.2
	c0.2-0.1,0.5-0.2,0.9-0.3c0,0.1,0.1,0.2,0.1,0.2c0,0.1,0,0.1,0,0.2c0,1,0,2,0.1,2.9c0,1,0.1,1.9,0.1,2.9c0,0.4,0.1,0.8,0.1,1.3
	c0.1,0.5,0.2,0.9,0.3,1.1c0.2,0.3,0.4,0.5,0.6,0.7c0.2,0.2,0.5,0.3,0.8,0.3c0,0,0.2,0,0.4-0.1c0.2-0.1,0.4-0.2,0.6-0.3
	c0.2-0.2,0.3-0.4,0.3-0.8c0-0.2,0-0.5-0.1-0.8s-0.2-0.6-0.2-0.8c-0.2-0.9-0.3-1.8-0.4-2.8c-0.1-1-0.2-1.9-0.2-2.8c0-0.1,0-0.3,0-0.4
	c0-0.1,0-0.3,0-0.4s0-0.2,0-0.4c0-0.1,0-0.2,0-0.4c0-0.2,0.1-0.4,0.2-0.6c0.2-0.2,0.3-0.3,0.6-0.4c0.2-0.1,0.5-0.2,0.7-0.3
	c0.2-0.1,0.5-0.1,0.6-0.2c0.2-0.1,0.4-0.1,0.6-0.2s0.4-0.1,0.6-0.2c0.2-0.1,0.3-0.2,0.5-0.3s0.2-0.4,0.2-0.6c0-0.2-0.1-0.4-0.2-0.7
	c-0.1-0.2-0.3-0.3-0.6-0.3c-0.5,0-1,0.1-1.4,0.3c-0.4,0.2-0.8,0.3-1.4,0.3c-0.2,0-0.3,0-0.3-0.2c0-0.1,0-0.2,0-0.3
	c0-0.3,0-0.5,0-0.8c0-0.2,0-0.5,0-0.7c0-0.3,0-0.6,0-0.9c0-0.3,0-0.6,0-0.9c0-0.3,0-0.6,0-0.9c0-0.3,0-0.7,0-1.1
	c0-0.2,0-0.4-0.1-0.7s-0.1-0.4-0.2-0.6c-0.1-0.2-0.3-0.3-0.5-0.5S72.1,6,71.8,6c-0.2,0-0.3,0-0.4,0.1c-0.1,0-0.2,0.1-0.4,0.2
	c-0.1,0.3-0.1,0.5-0.1,0.8v3.1c0,0.3,0,0.6,0,0.9c0,0.3,0,0.6,0,0.9c0,0.5,0,0.8,0,1.1c0,0.2,0,0.6,0,0.9c0,0.2,0,0.4-0.1,0.6
	S70.7,15,70.3,15c-0.3,0.1-0.5,0.2-0.7,0.3c-0.2,0.1-0.4,0.1-0.6,0.2s-0.4,0.1-0.6,0.1c-0.2,0-0.5,0.1-0.7,0.2
	c-0.1,0.3-0.1,0.6-0.1,0.8C67.6,16.7,67.8,17,68.1,17.2z M119.4,23.1c-0.1-1.6-0.1-3-0.1-4.5c0-0.5,0-1-0.1-1.4s-0.1-0.9-0.2-1.3
	c-0.3-0.1-0.5-0.1-0.7-0.1c-0.2,0-0.4,0-0.6-0.1c-0.1,0-0.2,0.1-0.3,0.1c-0.1,0-0.2,0-0.3,0.1l-0.2-0.4c-0.2-0.1-0.3-0.1-0.5-0.2
	c-0.2,0-0.3-0.1-0.5-0.1c-0.8,0-1.6,0.3-2.2,0.9s-1.2,1.4-1.7,2.2c-0.5,0.9-0.9,1.7-1.2,2.6c-0.3,0.9-0.5,1.5-0.7,2
	c0,0.1,0,0.1,0,0.3c0,0.4,0.1,0.7,0.2,1c0.2,0.3,0.3,0.6,0.6,0.8c0.2,0.2,0.5,0.5,0.8,0.6c0.3,0.2,0.6,0.3,0.9,0.5
	c0.6-0.1,1.2-0.2,1.6-0.4c0.4-0.2,0.8-0.5,1.2-0.8s0.6-0.6,0.8-1c0.2-0.4,0.4-0.8,0.6-1.2c0.1,0.5,0.1,1,0.1,1.4
	c0,0.4,0.1,0.8,0.1,1.2c0,0.4,0,0.8,0,1.2s0,0.8,0,1.3c0,1.6-0.1,2.9-0.4,3.7c-0.3,0.9-0.6,1.5-0.9,2c-0.4,0.5-0.7,0.8-1.1,1.1
	c-0.4,0.2-0.6,0.6-0.8,0.9c0.1,0.4,0.2,0.7,0.4,0.7c0.2,0.1,0.5,0.2,0.8,0.3c0.6-0.1,1.1-0.2,1.5-0.4s0.7-0.5,0.9-0.7
	c0.2-0.3,0.4-0.5,0.6-0.8c0.1-0.3,0.3-0.5,0.5-0.7c0.5-0.8,0.8-1.7,0.9-2.7c0.1-0.9,0.2-1.9,0.2-2.9
	C119.6,26.4,119.5,24.6,119.4,23.1z M116.5,17.6c0,0.2-0.1,0.4-0.1,0.6c-0.2,0.7-0.5,1.4-0.7,2.1c-0.3,0.7-0.5,1.2-0.8,1.7
	c-0.3,0.5-0.6,0.9-0.9,1.2c-0.3,0.3-0.6,0.5-0.9,0.5c-0.4-0.1-0.6-0.2-0.6-0.6c0-0.4,0.1-0.7,0.2-1.1s0.3-0.8,0.5-1.1
	c0.2-0.4,0.4-0.8,0.6-1.1c0.2-0.4,0.4-0.7,0.6-1.1c0.2-0.2,0.3-0.4,0.5-0.6s0.3-0.4,0.5-0.6s0.4-0.3,0.6-0.5
	c0.2-0.1,0.5-0.2,0.8-0.2C116.6,17.2,116.6,17.4,116.5,17.6z M96,18.3c-0.1-0.2-0.2-0.5-0.4-0.8c-0.1-0.3-0.3-0.5-0.5-0.7
	c-0.3-0.2-0.5-0.4-0.8-0.5c-0.3-0.1-0.6-0.3-0.9-0.4c-0.3-0.1-0.6-0.2-0.9-0.4s-0.6-0.3-0.9-0.5C91.4,15,91.2,15,91,15
	c-0.4,0-0.9,0.1-1.3,0.4c-0.4,0.3-0.8,0.6-1.1,1c-0.3,0.4-0.6,0.8-0.8,1.1c-0.2,0.4-0.4,0.7-0.4,0.9c-0.1,0.5-0.3,1.1-0.4,1.7
	c-0.2,0.6-0.2,1.1-0.2,1.6c0,0.9,0.2,1.7,0.5,2.3c0.4,0.6,0.9,1.1,1.5,1.5c0.3,0.2,0.6,0.4,0.9,0.6c0.3,0.2,0.6,0.3,0.9,0.3h0.2
	c0.1,0,0.2,0,0.3,0c0.1,0,0.2,0,0.3,0c0.4,0,0.7-0.1,1.1-0.3c0.3-0.2,0.7-0.5,1-0.8c0.3-0.3,0.6-0.6,0.9-1c0.3-0.3,0.5-0.6,0.6-0.9
	c0.3-0.5,0.6-1,0.8-1.5c0.2-0.5,0.4-1.1,0.4-1.7v-0.6c0-0.2,0-0.4,0-0.6C96.1,18.7,96.1,18.5,96,18.3z M93.5,19.3
	c0,0.4-0.1,0.8-0.2,1.3c-0.1,0.4-0.2,0.9-0.4,1.3c-0.2,0.4-0.3,0.8-0.6,1.1s-0.5,0.6-0.8,0.8c-0.2,0.1-0.4,0.2-0.6,0.3
	c-0.2,0.1-0.4,0.1-0.6,0.1c-0.2,0-0.4-0.1-0.6-0.3c-0.2-0.2-0.3-0.4-0.3-0.7c-0.1-0.3-0.1-0.5-0.2-0.8c0-0.2,0-0.4,0-0.5
	c0-0.4,0-0.8,0.1-1.3c0.1-0.5,0.2-1,0.4-1.4s0.4-0.8,0.7-1.1c0.3-0.3,0.6-0.5,1-0.5c0.5,0,1,0.1,1.4,0.4s0.6,0.7,0.6,1.3V19.3z
	 M69.5,151.2c-0.2-0.1-0.4-0.1-0.6-0.2s-0.5-0.2-0.6-0.3c-0.5-0.2-0.8-0.5-1-0.7c-0.2-0.2-0.4-0.4-0.7-0.6c-0.2-0.2-0.5-0.5-0.8-0.8
	s-0.6-0.7-1-1.1c-1.1-1.8-1.7-3.6-1.7-5.3c0-0.9,0.1-1.8,0.2-2.6c0.2-0.8,0.4-1.5,0.6-2.1c0.3-0.6,0.6-1.1,0.9-1.6
	c0.3-0.4,0.7-0.8,1-1.1c0.6-0.6,1.2-0.9,1.7-1s0.9-0.2,1.4-0.3c0.4-0.1,0.6-0.2,0.8-0.5c0.1-0.2,0.2-0.5,0.2-0.8
	c0-0.4-0.1-0.6-0.2-0.7c-0.5-0.3-1-0.5-1.5-0.5c-0.6,0-1.4,0.3-2.2,0.8c-0.8,0.5-1.8,1.3-2.7,2.4c-0.6,0.7-1.2,1.7-1.7,2.9
	c-0.5,1.2-0.8,2.6-0.8,4.3c0,0.7,0,1.5,0.1,2.4c0.1,1,0.3,1.9,0.6,2.9c0.2,0.5,0.5,1.1,1,1.8c0.5,0.7,1.1,1.3,1.7,2
	c0.7,0.6,1.4,1.2,2.2,1.7c0.8,0.5,1.7,0.9,2.5,1H69c0.2,0.1,0.5,0,0.7-0.3s0.3-0.5,0.3-0.9S69.8,151.4,69.5,151.2z M95.7,148.8
	c-0.2-0.7-0.4-1.6-0.5-2.5s-0.3-1.8-0.3-2.6c0-0.3,0-0.6,0-0.9c0-0.3,0-0.6,0-1c0-0.5,0-1,0-1.4c0-0.5,0-1,0-1.5c0-0.6,0-1.2,0-1.8
	s0-1.3,0-2.1c0-0.5,0-1,0.1-1.6c0.1-0.5,0.2-1.1,0.2-1.6c0-0.3-0.1-0.5-0.2-0.6c-0.1-0.1-0.3-0.2-0.5-0.3c-0.2-0.1-0.4-0.1-0.6-0.1
	s-0.4,0-0.6,0c-0.2,0.2-0.4,0.3-0.5,0.5s-0.2,0.4-0.2,0.6c0,1.1-0.1,2.2-0.2,3.3c-0.1,1-0.2,2.1-0.2,3.2c0,0.8,0,1.6,0,2.4
	c0,0.8,0,1.6,0,2.6c0,0.4,0,0.9,0.1,1.6s0.2,1.4,0.3,2.2c0.2,0.7,0.4,1.4,0.7,1.9s0.7,0.8,1.2,0.8c0.3,0,0.6-0.1,0.8-0.2
	c0.3-0.2,0.4-0.4,0.4-0.7c0,0,0-0.1,0-0.1C95.7,148.9,95.7,148.9,95.7,148.8z M79.2,141.3c-0.1-0.2-0.2-0.5-0.4-0.8
	c-0.1-0.3-0.3-0.5-0.5-0.7c-0.3-0.2-0.5-0.4-0.8-0.5c-0.3-0.1-0.6-0.3-0.9-0.4c-0.3-0.1-0.6-0.2-0.9-0.4s-0.6-0.3-0.9-0.5
	c-0.2-0.1-0.4-0.2-0.5-0.2c-0.4,0-0.9,0.1-1.3,0.4c-0.4,0.3-0.8,0.6-1.1,1c-0.3,0.4-0.6,0.8-0.8,1.1c-0.2,0.4-0.4,0.7-0.4,0.9
	c-0.1,0.5-0.3,1.1-0.4,1.7c-0.2,0.6-0.2,1.1-0.2,1.6c0,0.9,0.2,1.7,0.5,2.3c0.4,0.6,0.9,1.1,1.5,1.5c0.3,0.2,0.6,0.4,0.9,0.6
	c0.3,0.2,0.6,0.3,0.9,0.3H74c0.1,0,0.2,0,0.3,0c0.1,0,0.2,0,0.3,0c0.4,0,0.7-0.1,1.1-0.3s0.7-0.5,1-0.8c0.3-0.3,0.6-0.6,0.9-1
	s0.5-0.6,0.6-0.9c0.3-0.5,0.6-1,0.8-1.5c0.2-0.5,0.4-1.1,0.4-1.7v-0.6c0-0.2,0-0.4,0-0.6C79.4,141.7,79.3,141.5,79.2,141.3z
	 M76.8,142.3c0,0.4-0.1,0.8-0.2,1.3c-0.1,0.4-0.2,0.9-0.4,1.3c-0.2,0.4-0.3,0.8-0.6,1.1s-0.5,0.6-0.8,0.8c-0.2,0.1-0.4,0.2-0.6,0.3
	c-0.2,0.1-0.4,0.1-0.6,0.1c-0.2,0-0.4-0.1-0.6-0.3c-0.2-0.2-0.3-0.4-0.3-0.7c-0.1-0.3-0.1-0.5-0.2-0.8c0-0.2,0-0.4,0-0.5
	c0-0.4,0-0.8,0.1-1.3c0.1-0.5,0.2-1,0.4-1.4s0.4-0.8,0.7-1.1c0.3-0.3,0.6-0.5,1-0.5c0.5,0,1,0.1,1.4,0.4s0.6,0.7,0.6,1.3V142.3z
	 M90.1,141.3c-0.1-0.2-0.2-0.5-0.4-0.8c-0.1-0.3-0.3-0.5-0.5-0.7c-0.3-0.2-0.5-0.4-0.8-0.5c-0.3-0.1-0.6-0.3-0.9-0.4
	c-0.3-0.1-0.6-0.2-0.9-0.4s-0.6-0.3-0.9-0.5c-0.2-0.1-0.4-0.2-0.5-0.2c-0.4,0-0.9,0.1-1.3,0.4c-0.4,0.3-0.8,0.6-1.1,1
	c-0.3,0.4-0.6,0.8-0.8,1.1c-0.2,0.4-0.4,0.7-0.4,0.9c-0.1,0.5-0.3,1.1-0.4,1.7c-0.2,0.6-0.2,1.1-0.2,1.6c0,0.9,0.2,1.7,0.5,2.3
	c0.4,0.6,0.9,1.1,1.5,1.5c0.3,0.2,0.6,0.4,0.9,0.6c0.3,0.2,0.6,0.3,0.9,0.3h0.2c0.1,0,0.2,0,0.3,0c0.1,0,0.2,0,0.3,0
	c0.4,0,0.7-0.1,1.1-0.3s0.7-0.5,1-0.8c0.3-0.3,0.6-0.6,0.9-1s0.5-0.6,0.6-0.9c0.3-0.5,0.6-1,0.8-1.5c0.2-0.5,0.4-1.1,0.4-1.7v-0.6
	c0-0.2,0-0.4,0-0.6C90.2,141.7,90.2,141.5,90.1,141.3z M87.6,142.3c0,0.4-0.1,0.8-0.2,1.3c-0.1,0.4-0.2,0.9-0.4,1.3
	c-0.2,0.4-0.3,0.8-0.6,1.1s-0.5,0.6-0.8,0.8c-0.2,0.1-0.4,0.2-0.6,0.3c-0.2,0.1-0.4,0.1-0.6,0.1c-0.2,0-0.4-0.1-0.6-0.3
	c-0.2-0.2-0.3-0.4-0.3-0.7c-0.1-0.3-0.1-0.5-0.2-0.8c0-0.2,0-0.4,0-0.5c0-0.4,0-0.8,0.1-1.3c0.1-0.5,0.2-1,0.4-1.4s0.4-0.8,0.7-1.1
	c0.3-0.3,0.6-0.5,1-0.5c0.5,0,1,0.1,1.4,0.4s0.6,0.7,0.6,1.3V142.3z"/>
<path class="st2" d="M113.5,60.4c-0.1-0.1-0.2-0.2-0.3-0.2c0,0,0,0-0.1,0.1L113.5,60.4z M154,60c0.1,0,0.1,0,0.2-0.1L154,60z
	 M148.7,58.6l0.5,0.1c-0.1-0.1-0.2-0.3,0-0.3C148.6,58,149.4,58.6,148.7,58.6z M147.1,58.4c0.3,0,0-0.2,0-0.2
	C147,58.3,146.9,58.3,147.1,58.4z M135.7,58c-0.2,0,0,0.1,0,0.3L135.7,58z M115.3,60.4L115.3,60.4L115.3,60.4L115.3,60.4z
	 M129.9,59.4c0.1,0.1,0.2,0,0.3,0C130.1,59.4,130,59.3,129.9,59.4z M123.3,59.9C123.3,59.9,123.2,60,123.3,59.9
	C123.1,60,123.2,60,123.3,59.9z M48.5,60.5c0.2-0.2-0.2-0.4,0.2-0.5c0.2,0.2,0.1,0.4,0.4,0.2c0,0.1,0,0.2-0.1,0.2
	c0.2-0.1,0.6,0,0.7-0.3c0.2,0.3,0.8,0,0.7,0.4c0.1-0.1,0.4-0.3,0.6-0.3c-0.4,0.5,0.8,0.1,0.7,0.6c0.3-0.5,1-0.2,1.5-0.4
	c0,0-0.1,0.1-0.1,0.1c0.3,0,0.4,0.2,0.5,0.3c0-0.4,0.5-0.5,0.7-0.7c0.3,0.4-0.2,0.5-0.1,0.8c0-0.3,0.6-0.3,0.5-0.6
	c0.3,0.2,0.2,0.1,0.3,0.4c0.1-0.5,0.2-0.1,0.5-0.4c0.4,0.2,0.1,0.5,0.5,0.3c0.2,0.2-0.2,0.3-0.2,0.3c0.4,0,0.2-0.4,0.3-0.6
	c0.5-0.1,0.2,0.3,0.4,0.5c0.3-0.1,0.6-0.4,0.8-0.4c0,0.1,0.1,0.1,0,0.2c0.3-0.3,1,0,1.4-0.4c0,0,0,0.1,0,0.1
	c-0.1-0.2-0.1-0.4-0.1-0.5c0.2,0,0.4-0.2,0.4,0c-0.1,0-0.1,0.1-0.2,0.2l0.2-0.1c0.2,0.4-0.3,0.1-0.3,0.4c0.4-0.1,0.8-0.4,1.1-0.3
	c0.1,0.3-0.7,0.1-0.3,0.4l-0.5-0.1c0.3,0.5-0.3,0,0,0.5c0.6,0.1,0.7-0.2,1.3,0c0.1-0.2,0-0.3,0.1-0.5c0.9-0.3,0.7,0.9,1.3,0.4
	c0.2-0.2,0.2-0.7,0.7-0.4l-0.2,0.4c0.6,0,0.3-0.5,0.9-0.3c-0.1,0.1-0.5,0.1-0.4,0.2c0.4,0.3,0.3-0.2,0.6-0.2l0.1,0.3
	c0.6,0,1.3-0.3,2-0.3c0,0.1-0.2,0.2,0,0.3c0.9-0.2,1.8,0.1,2.7,0.3l0.3-0.3c0.1,0,0.1,0.1,0.1,0.2c0.3,0.1,0-0.2,0.2-0.3
	c0.2,0,0.2,0.2,0.1,0.3c0.6-0.2,1.6-0.5,2.2-0.2l-0.1,0.1c0.5,0.1,0.5-0.6,1-0.3L72,60.4c1,0.1,2.2-0.1,2.9,0.3
	c0.1-0.4,1,0.2,1.1-0.4c0.6,0.3,0.4,0.4,1.2,0.6c0.2,0,0.3-0.4,0.6-0.4l0,0.3l0.4-0.3l0.2,0.4l0.3-0.1c-0.1,0-0.2-0.1-0.2-0.2
	c0.4-0.1,1,0.2,1,0.4l0.9-0.3c0,0.1-0.2,0.2-0.3,0.2c0.5-0.3,0.1,0.3,0.6,0c-0.1-0.1,0-0.2,0-0.2c0.2,0.2,0.8,0.2,1.1,0.1l-0.1,0.2
	c0.7,0,1.5-0.1,2.3-0.1c-0.3-0.1-0.2-0.5,0-0.5l0.1,0.3c0.1-0.2-0.2-0.1,0.1-0.4c0.3,0,0.2,0.4,0,0.5l0.4-0.1c0,0.1-0.1,0.1-0.1,0.3
	c0.1-0.2,0.6,0.3,0.8,0l0,0.1c0.8,0,1.1-0.1,1.8-0.1c0-0.3,0.3-0.2,0.4-0.5c0.5,0.1,1,0.3,1.6,0.3c0.4-0.1,0.1-0.2,0.3-0.4
	c0,0.3,0.6,0.2,0.3,0.4c0.7-0.1,0.9-0.1,1.7-0.3c-0.1-0.1-0.2-0.1-0.1-0.2c0.2,0,0.4,0.1,0.3,0.2l0,0c1-0.4,2.2,0.7,3,0.2l0,0
	l0.8-0.3c0.4,0-0.2,0.2,0.1,0.3c0.8-0.4,1.4,0,2.1-0.3c0.6,0.7,1.9-0.1,2.7,0.4l0-0.2c0.2-0.2,0.2,0.1,0.4,0.1
	c0-0.1-0.2-0.2-0.1-0.3c1.6-0.2,3.3,0.2,5,0.3c0.6,0,0.3-0.9,1.1-0.5l-0.2,0.3c1.2-0.4,2.5,0,3.7-0.4c-0.1,0.1-0.1,0.2-0.2,0.2
	c0.3,0.2,0.9,0,0.9-0.2c0.2,0,0,0.2,0.2,0.3c0.3,0.1,0.6-0.3,0.8-0.1c0,0-0.1,0.1-0.1,0.1c0.2-0.1,0.8,0,0.6-0.3
	c0.5,0.1,0.9-0.1,1.2,0c0.2-0.3,0.8,0.1,0.8-0.3c0,0.5,0.8,0.4,1.1,0.1c-0.1,0.1,0.2,0.1,0.1,0.3c0.3,0,0.6-0.1,0.6-0.3
	c0.6,0.5,1.2-0.5,1.5,0.2c1-0.3,1.8-0.4,2.7-0.5c0,0.5-1,0.1-0.9,0.5c0.8-0.2,1.3-0.6,2.1-0.5c0.2,0.1-0.1,0.2-0.2,0.3
	c0.8-0.2,1.6,0,2.3-0.2c0,0-0.1,0.1-0.2,0.1c0.1,0,0.3,0.1,0.3-0.1l-0.1,0.1c-0.2-0.3,0.6-0.6,0.6-0.8c-0.2,0.6,0.7,0.1,0.3,0.9
	c0.1,0,0.2-0.1,0.2-0.3c0.1,0,0.2,0.1,0,0.3c0.5-0.1,0.3-0.3,0.8-0.3c0,0.1-0.1,0.1-0.1,0.3c0.2-0.2,0.5-0.4,0.9-0.3
	c0,0.1,0,0.1-0.1,0.1c0.7,0,1.2-0.5,1.9-0.3c-0.2,0.4,0.3,0.1,0.3,0.5l0.4-0.1l-0.2-0.2c0.3,0,0.7-0.3,1-0.1l-0.3,0.2l0.7-0.1
	l-0.4-0.1c0.4-0.2,0-0.5,0.4-0.4c-0.1,0,0.4,0,0.5,0.2l0,0c0.2-0.1,0.4-0.2,0.6-0.2c0.1,0.1-0.1,0.4,0,0.5c0.2-0.3,0.8-0.1,1-0.4
	c-0.1,0.1-0.1,0.3-0.1,0.3l0.1-0.3c0.2,0.1,0.2,0.1,0.2,0.3c0.5,0-0.2-0.5,0.4-0.3c0,0,0,0.1-0.1,0.1c0.6,0.1,1.1-0.2,1.7,0
	c0.2,0.4-0.5,0.1-0.3,0.4c0.8-0.1,1.6-0.4,2.3-0.3l-0.1,0c0.1-0.5,0.6,0.3,0.9,0c-0.1,0-0.1,0.3-0.1,0.2c0.5,0.1,1-0.1,1.8-0.3
	l-0.1,0.1c0.3,0.1,0.8,0.1,1.1,0.1c0.1-0.1,0.3-0.1,0.2-0.3c1,0.8,1.9-0.4,2.8,0.3c-0.1,0-0.3,0.1-0.2,0.1l0.8-0.1
	c-0.1-0.2-0.1-0.1-0.3-0.3c0.1-0.1,0.3-0.2,0.5-0.2c-0.3,0.1,0,0.4,0.1,0.5c0-0.1,0-0.1,0-0.2c0.4,0.4,0.1-0.5,0.6-0.2l0,0.1
	c0.2-0.1,0.4-0.2,0.6-0.2c0.1,0.3-0.2,0.1-0.2,0.3c0.3,0,0.6-0.5,0.9-0.2c-0.1,0.1-0.3,0.1-0.5,0.1c0.3,0.3,0.3,0.2,0.6,0.3l0,0
	l0.5,0.2l-0.1-0.1c0.4-0.7,0.8-0.1,1.3-0.6c-0.5,0.4-0.1,0.2-0.1,0.6c0.1,0.1,0.3,0.2,0.3,0.3c0.2-0.2,0.4,0.2,0.8-0.1
	c0,0.1,0.3,0,0.2,0.3c0.3-0.1-0.1-0.2,0-0.3c0.5-0.3,1.1,0.4,1.9,0c0.6-0.2,0.7-0.5,1.3-0.6c0.2,0.2-0.2,0.4-0.2,0.4
	c0.3,0.2,0.5,0.1,0.8,0c-0.1,0.1,0,0.2,0.1,0.3c0.2,0,0.2-0.3,0.5-0.2c-0.1,0.1-0.1,0.3-0.2,0.4c0.3-0.1,0.6-0.3,0.8-0.3
	c0.1,0.2-0.2,0.3-0.3,0.4c0.3-0.1,0.8-0.1,0.9-0.4l-0.2-0.1c0.1,0,0.1,0.2,0,0.3c-0.3,0.2-0.4-0.1-0.4-0.2l0.2-0.1
	c-0.2-0.6-0.8,0.1-1.2,0l0.2-0.4l-0.4,0.3c-0.1-0.1-0.1-0.3,0.1-0.4c-0.3-0.2-0.3,0.1-0.5-0.1c0,0,0-0.1,0-0.1l-0.3,0.1
	c0.1-0.1,0-0.3,0.1-0.2c-0.5-0.3-0.8,0.3-1,0l0,0c-0.7,0.1-0.1,0.3-0.6,0.6l-0.3-0.8l-0.1,0.3c-0.1,0-0.2,0-0.2-0.2
	c-0.3,0.2,0,0.1-0.1,0.3c-0.3-0.3-1,0.1-1-0.4c-0.1,0.2,0.3,0.2,0,0.3c-0.1-0.5-0.4,0.1-0.8-0.2c0.1-0.3,0.4-0.1,0.1-0.4
	c-0.2,0.5-0.6-0.1-0.9,0c0,0.1-0.1,0.2-0.2,0.2c0-0.1,0.1-0.2,0.2-0.2c0-0.1,0-0.1,0-0.2c-0.1,0-0.1,0.3-0.1,0.4
	c-0.2,0.1-0.6,0-0.9,0.1c0-0.1-0.9-0.2-1.3-0.4l0-0.1c-0.1,0.4-0.5,0.3-0.8,0.4c0-0.2,0.1-0.3,0.2-0.4l-0.3,0
	c-0.1,0.1-0.2,0.2-0.4,0.2l0.1-0.3c-0.4,0-0.8,0.3-1.3,0.1c0,0.3,0.4,0.7-0.1,0.9c0-0.1,0-0.4,0.1-0.4c0,0-0.2,0.1-0.3,0.1l0.2-0.2
	c-0.2-0.1-0.1,0.2-0.3,0.2c0-0.2-0.1-0.1-0.1-0.3c0,0,0.2,0.1,0.2,0c-0.2,0-0.5-0.2-0.5-0.3c0,0.1,0,0.3-0.2,0.3
	c-0.4,0-0.1-0.2-0.4-0.3c-0.1,0.1-0.3,0-0.4,0.3c-0.1,0-0.1-0.1-0.2-0.2c-0.2,0.1-1,0-0.7,0.3l0.1,0l0,0c-0.7,0.3-1.4-0.2-2.1-0.1
	l0-0.1c-0.4,0.1-0.9,0.1-1.2,0.3c-0.1,0-0.3-0.2-0.2-0.3c-0.3,0.1-0.3,0.2-0.8,0c0.3-0.2-0.1-0.2,0.3-0.1c-0.4-0.1-0.5-0.2-0.9,0
	c0.1-0.3-0.3-0.3-0.5-0.2l0.3,0.2c-0.2,0-0.4,0-0.6,0l0.1-0.3c-0.8-0.4-1.5,0.7-2.1,0c-0.2,0.2,0.4,0.2,0.2,0.4
	c-0.4,0-0.8-0.5-0.9-0.5c-0.5-0.2-0.5,0.5-1,0.4c0.1,0.1,0.1,0.4-0.3,0.5c-0.4,0-0.5-0.5-0.2-0.6c0.1,0,0.1,0,0.1,0.1
	c0.1,0,0.3-0.1,0.1-0.2l0,0.1c-0.2-0.1-0.7-0.1-0.6-0.3c-0.3,0.1-0.1,0.2,0.1,0.3c-0.5-0.2-0.7,0-1.2-0.1c0.1,0.1,0.2,0.2,0.1,0.2
	c-0.7-0.1-0.3,0.2-0.8,0.3c-0.3-0.2,0.1-0.4-0.4-0.3c-0.3-0.1-0.1-0.3,0.1-0.4c-0.4,0.2-0.8-0.1-1.1-0.2l0.2-0.1
	c-0.1,0.1-0.3,0.1-0.4,0.1l0.1,0.2c-0.1,0-0.3,0-0.3-0.1c-0.1,0.2,0.1,0.4-0.2,0.6c-0.2-0.1-0.6,0.1-0.6-0.2
	c0.6,0.1-0.1-0.3,0.4-0.4c-0.1,0-0.2,0-0.4,0c0,0,0-0.1,0.1-0.1c-0.6-0.3-0.3,0.4-0.8,0.4c0.1-0.2-0.1-0.3-0.2-0.3
	c0.2,0,0.1,0.3-0.1,0.4c-0.4-0.1-0.4,0.1-0.6,0.1l0.2,0.1c-0.1,0.2-0.3,0.2-0.5,0.2c0-0.1,0.2-0.1,0.1-0.2c-0.3,0.3-0.7-0.3-1-0.1
	c-0.2-0.1,0-0.3-0.2-0.4c-0.4,0.2-0.5-0.2-1,0c0.1,0.2,0.2,0.2-0.2,0.4l0.8-0.2l-0.5,0.4c0.2,0,0.5-0.2,0.6-0.1
	c-0.2,0.2-0.2,0.1-0.1,0.3c-0.3-0.4-0.6,0.2-1,0l0-0.6c-0.6-0.3-1,0.3-1.7,0.2l0.2,0.1c-0.1,0.2-0.4,0-0.7,0.1
	c0-0.2-0.1-0.3-0.2-0.4c0,0.1-0.5,0-0.6,0.4l-0.3-0.3c-0.6-0.1-0.7,0.6-1.2,0.5c0.2-0.2-0.1-0.4,0.3-0.5c-0.2,0-0.4,0-0.4,0.1
	c-0.1-0.1-0.5,0.3-0.7,0.1c-0.1,0.1-0.1,0.3-0.3,0.3c0,0,0-0.1,0-0.1c0,0.1-0.3,0.1-0.1,0.4c-0.6-0.6-1.6,0.1-2.1-0.5
	c-0.4,0.1-0.9,0.1-1.3,0.2c0-0.1,0-0.1,0.1-0.1c-0.5-0.2-0.3,0.6-0.9,0.4c-0.3-0.3,0.3-0.2,0.1-0.3c-0.1-0.6-0.7,0.1-1.1-0.3l0.1,0
	c-0.3-0.2-0.7,0.3-1.2,0.2c0,0,0-0.1,0-0.1c-0.3,0.3-1,0.5-1.4,0.6c0.1-0.3,0.2-0.1,0.1-0.4c-0.2,0,0.1,0.4-0.4,0.5
	c-0.1-0.1-0.4-0.3-0.5-0.5l0.4,0c-0.2-0.4-0.5,0-0.7,0l0-0.2c-0.6,0.1-0.6,0.5-1.3,0.4l0.1,0.1c-0.3,0.4-0.3-0.2-0.7,0.1l-0.1-0.4
	c-0.2,0.1-0.8,0.4-1.2,0.5c0.2-0.3,0.7-0.5,1-0.6c-0.2,0-0.8,0-0.9,0.2c0.1,0,0.2-0.1,0.3-0.1c-0.3,0.3-0.7,0.5-1.1,0.5
	c0.1-0.8-1.2-0.2-1.6-0.8c-0.8,0.3-1.6-0.1-2.6,0c0.4,0.6-0.3,0-0.2,0.6c-0.2,0-0.3,0-0.3,0c0,0,0,0,0,0l0,0l-0.7-0.4
	c-0.2-0.2,0.2-0.1,0.2-0.3c-0.5,0-0.2-0.3-0.5-0.4c0.1,0.2-0.2,0.3-0.4,0.2l0.4,0.3c-0.7,0.3-0.6-0.5-1.3-0.2l0.2-0.2
	c-0.4,0.1-1.3,0-1.6,0.5c-0.1-0.1-0.1-0.2,0-0.3c-0.8-0.1-1.9,0.6-2.5,0.3l0.1-0.2c-0.2,0-0.3,0.3-0.5,0.1c0-0.1,0.1-0.2,0-0.2
	c-0.1,0.1-0.4,0.3-0.6,0.2l0.2-0.2c-0.8-0.2-1.3,0.4-1.9,0.5c0-0.4-0.7-0.6-1-0.6l0-0.1c-1,0-1.6,0.4-2.5,0.6
	c-0.6-0.5-1.9-0.2-2.8-0.4c0.1,0.1,0,0.3-0.2,0.4c-0.2-0.1-0.6,0.3-0.5-0.1l0.1,0c-0.2-0.4-0.6-0.3-0.9-0.3l-0.1,0.5
	c-0.9-0.8-2.3,0.3-2.8-0.4c-0.2,0.1-0.5,0.1-0.7,0.3l0-0.3c-0.6-0.1-0.9-0.1-1.6,0l0.1-0.2c-0.4,0-0.5,0.8-0.9,0.8l-0.1-0.4
	c-0.7,0-1.4-0.4-2.1,0c0-0.1,0-0.2,0.1-0.2c-0.3,0-1.3-0.3-1.2,0.3c0-0.4-0.7,0-1.1,0.1l0.1-0.3C70,58.8,70,58.9,69.5,59
	c-0.1,0-0.1-0.1,0-0.2c-0.2,0-0.2,0.3-0.6,0.1l0.2-0.2c-0.4,0-0.3,0.1-0.5,0.3c-0.2,0.1-0.7-0.1-0.7-0.3c-0.1,0.2-0.3,0.4-0.5,0.3
	c0-0.1,0.1-0.2,0.1-0.2c-0.6-0.2-0.9,0.3-1.3,0c0-0.1,0-0.1-0.1-0.2c0.5,0,0.9,0,0.8,0.1c0-0.3-0.4-0.3-0.1-0.7
	c-0.3,0.2-0.9,0.6-1.2,0.5c0,0,0,0,0-0.1l0,0c-0.1,0-0.2,0-0.2,0c-0.1,0-0.2-0.1-0.3-0.1c0-0.2-0.4-0.1-0.6-0.1c0,0.3-0.2,0.2,0,0.5
	c0,0,0,0,0.2,0c0,0,0.1,0,0.1,0l0,0c0.1,0,0.3,0,0.5,0c-0.2,0.1-0.3,0.3-0.5,0.1c-0.1,0.2-0.2,0.4-0.3,0.5c-0.3-0.4-0.8-0.6-0.8-0.9
	c-0.6,0.2-1.4,0.1-1.8,0.6c-0.2,0.1-0.2-0.2-0.3-0.2c0.1-0.1,0.2,0,0.3-0.1c-0.3,0.1-1,0-1.1,0.4c-0.4-0.2,0.2-0.3-0.3-0.3l0.1-0.1
	c-1.1-0.6-1.9,0.9-3.2,0.1c0.1,0,0.1,0.1,0.1,0.1c-1.5-0.4-3,0.3-4.5-0.3c-0.4-0.1-0.5,0.1-0.7,0.3l-0.1-0.3l-0.4,0.3
	c-0.6,0.2-1-0.8-1.8-0.3l0.1,0.2c-0.3,0-0.9,0.1-0.8-0.1c0,0-0.1,0.2-0.2,0.1l0-0.2L48,58.8c-0.5-0.1,0.1-0.6-0.7-0.7
	c-0.3,0.1-0.8,0.4-0.7,0.5c0.1,0,0.3,0.1,0.3,0.3L46.7,59c-0.1,0.5-0.3,0.9,0.3,1.3l0.5-0.3l0.1,0.2l-0.4,0c0.2,0.2,0.3,0,0.5-0.1
	c0,0.1,0.1,0.2,0.2,0.3l0.5-0.4C48.4,60.2,48.2,60.3,48.5,60.5z M66.1,60.1c0,0.1,0.1,0.1,0.3,0.2c-0.1,0-0.2,0-0.4,0
	C66,60.2,66.1,60.1,66.1,60.1z M65.6,60.3L65.6,60.3c-0.1,0-0.2,0-0.2,0C65.4,60.3,65.5,60.3,65.6,60.3z M64.6,58.4L64.6,58.4
	c0,0,0-0.1,0-0.1c0.1,0,0.2,0,0.2,0.1C64.8,58.4,64.7,58.4,64.6,58.4z M155.6,97l0.5,0.1c-0.1-0.1-0.2-0.3,0-0.3
	C155.5,96.4,156.3,97,155.6,97z M153.8,60.1L153.8,60.1C153.9,60.1,153.9,60.1,153.8,60.1L153.8,60.1z M155.5,59.7l-0.1,0.3l0.2-0.1
	C155.7,59.9,155.7,59.7,155.5,59.7z M151.2,59.9c0.1,0,0.4,0.2,0.6,0.2l0-0.1C151.7,60.2,151.3,59.7,151.2,59.9z M130.4,59.3
	c-0.1,0.1-0.2,0.1-0.2,0.1C130.3,59.4,130.4,59.4,130.4,59.3z M154,96.8c0.3-0.1,0-0.2,0-0.2C153.8,96.7,153.8,96.7,154,96.8z
	 M154.7,59.5c0.2,0,0.3,0.1,0.2,0.2c0.1-0.1,0.2,0.1,0.3-0.1c-0.2-0.3-0.5-0.3-0.7-0.1c-0.1-0.1,0-0.2,0-0.2
	c-0.2,0.2-0.4,0.4-0.3,0.7C154.5,59.7,154.5,59.9,154.7,59.5z M64.4,58.7C64.4,58.7,64.4,58.7,64.4,58.7
	C64.4,58.7,64.4,58.7,64.4,58.7L64.4,58.7L64.4,58.7z M77.8,60.8L77.8,60.8L77.8,60.8L77.8,60.8z M46.6,59L46.6,59
	c0.1-0.1,0.1-0.1,0.1-0.2L46.6,59z M112.6,58.2C112.6,58.2,112.6,58.2,112.6,58.2l0.1,0L112.6,58.2z M139.1,58.4l-0.3-0.1
	C138.9,58.4,139,58.4,139.1,58.4z M97.4,58.1c0.3,0.2-0.5,0.3,0,0.6C97.3,58.6,97.8,58.3,97.4,58.1z M80.2,58.2l-0.3,0.1l0.1,0
	L80.2,58.2z M132.3,57.7l-0.4,0.1L132.3,57.7L132.3,57.7z M113.1,57.9l0.1,0.3C113.3,58.2,113.3,57.8,113.1,57.9z M104.8,58.4
	c-0.1-0.2-0.3-0.3-0.5-0.1C104.5,58.3,104.7,58.4,104.8,58.4z M124.9,57.5C124.9,57.5,124.9,57.5,124.9,57.5
	C125,57.5,125,57.5,124.9,57.5z M143.4,58.2L143.4,58.2c0.1,0,0.1-0.1,0.1-0.1L143.4,58.2z M152.4,60c0.1,0,0.1,0,0.1-0.1
	C152.5,60,152.5,60,152.4,60L152.4,60z M152.4,60L152.4,60c0.1-0.1,0.1-0.1,0.1-0.1C152.4,59.9,152.4,60,152.4,60z M139.2,58.5
	C139.3,58.5,139.3,58.5,139.2,58.5C139.3,58.5,139.3,58.5,139.2,58.5L139.2,58.5z M115.3,58.1c-0.1,0-0.1-0.1-0.2,0c0,0,0,0,0,0
	C115.2,58.1,115.3,58.1,115.3,58.1z M147.3,59.8c0,0,0-0.1,0-0.1l0,0L147.3,59.8z M127.9,57.8C128,57.8,128,57.8,127.9,57.8
	C128,57.8,127.9,57.8,127.9,57.8z M129.6,58.2c0.1,0,0.1,0,0.1-0.1C129.6,58.1,129.5,58.2,129.6,58.2z M150,96.7L150,96.7
	c0.1,0,0.1-0.1,0.1-0.1L150,96.7z M135.8,98c0.1,0.1,0.2,0,0.3,0C136.1,98,135.9,98,135.8,98z M120.5,98.9L120.5,98.9L120.5,98.9
	L120.5,98.9z M128.9,98.6C128.9,98.6,128.9,98.6,128.9,98.6C128.7,98.6,128.8,98.6,128.9,98.6z M120.5,98.9l-0.5,0
	C120.1,98.9,120.3,98.9,120.5,98.9z M136.4,97.9c-0.1,0.1-0.2,0.1-0.2,0.1C136.3,98.1,136.4,98.1,136.4,97.9z M159.6,98.3
	c0.1,0,0.1,0,0.1-0.1C159.7,98.2,159.7,98.2,159.6,98.3L159.6,98.3z M118.6,98.9c-0.1-0.1-0.2-0.2-0.3-0.2c0,0,0,0-0.1,0.1
	L118.6,98.9z M161.1,98.3C161.1,98.3,161.1,98.3,161.1,98.3L161.1,98.3L161.1,98.3z M154.2,98.2c0,0,0-0.1,0-0.1l0,0L154.2,98.2z
	 M159.5,98.2L159.5,98.2c0.1-0.1,0.1-0.1,0.1-0.1C159.6,98.2,159.6,98.2,159.5,98.2z M101.7,96.3c0.3,0.3-0.5,0.3,0,0.6
	C101.6,96.7,102.1,96.4,101.7,96.3z M48.2,97.4L48.2,97.4c0.1-0.1,0.1-0.1,0.1-0.2L48.2,97.4z M123.5,96.4c0,0,0-0.1-0.1-0.1
	C123.4,96.3,123.4,96.4,123.5,96.4z M117.7,96.7C117.7,96.7,117.7,96.7,117.7,96.7c0.1,0.1,0.1,0,0.1,0L117.7,96.7z M130.6,96.1
	C130.6,96.1,130.7,96.1,130.6,96.1C130.7,96.1,130.7,96.1,130.6,96.1z M133.8,96.5c0,0,0.1,0,0.1,0
	C133.9,96.5,133.8,96.5,133.8,96.5z M81.1,98.7L81.1,98.7L81.1,98.7L81.1,98.7z M135.5,96.8c0.1,0,0.1,0,0.1-0.1
	C135.6,96.8,135.5,96.8,135.5,96.8z M145.6,97l-0.3-0.1C145.3,97,145.5,97,145.6,97z M161.4,98.1l-0.2,0.1
	C161.3,98.2,161.4,98.2,161.4,98.1z M109,96.6c0.2,0,0.4,0.1,0.5,0.1C109.4,96.6,109.1,96.5,109,96.6z M161.9,97.7
	c-0.1-0.1,0-0.2,0-0.2c-0.2,0.2-0.4,0.4-0.3,0.7c0.2-0.3,0.2-0.2,0.4-0.6c0.2,0,0.3,0.1,0.3,0.2c0.1-0.1,0.3,0.1,0.3-0.1
	C162.4,97.5,162.1,97.4,161.9,97.7z M118.2,96.4l0.1,0.3C118.4,96.7,118.4,96.3,118.2,96.4z M162.8,97.8l-0.1,0.3L163,98
	C163.1,98,163,97.8,162.8,97.8z M133.8,59.4l-0.3,0.1l0.2,0.2L133.8,59.4z M142,96.6c-0.2,0,0,0.1,0,0.3L142,96.6z M138.4,96.3
	l-0.4,0.1L138.4,96.3L138.4,96.3z M61.1,98.6C61,98.5,61,98.4,61,98.3C61,98.5,60.6,98.6,61.1,98.6z M158.3,98.2
	c0.2,0,0.4,0.2,0.6,0.1l0-0.1C158.8,98.4,158.4,98,158.3,98.2z M58.7,60.4c0,0.2-0.4,0.3,0.1,0.3C58.7,60.5,58.7,60.4,58.7,60.4z
	 M145.7,97.1C145.7,97.1,145.7,97.1,145.7,97.1C145.7,97.1,145.7,97.1,145.7,97.1L145.7,97.1z M120.6,96.7c-0.1,0-0.1-0.1-0.2,0
	c0,0,0,0,0,0C120.4,96.6,120.5,96.6,120.6,96.7z M139.9,98.3l0.1-0.2l-0.3,0.1L139.9,98.3z M161.1,97.7c0.1,0,0.1,0.2,0,0.3
	c-0.3,0.2-0.4-0.1-0.4-0.2l0.2-0.1c-0.2-0.6-0.8,0.1-1.3,0.1l0.2-0.4l-0.4,0.3c-0.1-0.1-0.2-0.3,0.1-0.4c-0.3-0.2-0.3,0.2-0.5-0.1
	c0,0,0-0.1,0-0.1l-0.3,0.1c0.1-0.1-0.1-0.3,0.1-0.2c-0.5-0.2-0.9,0.3-1.1,0l0,0c-0.7,0.1-0.1,0.3-0.6,0.7l-0.4-0.8l-0.1,0.3
	c-0.1,0-0.2,0-0.2-0.2c-0.3,0.2,0,0.1-0.1,0.3c-0.4-0.3-1,0.1-1.1-0.4c-0.1,0.2,0.4,0.2,0,0.3c-0.1-0.5-0.5,0.1-0.8-0.1
	c0.1-0.3,0.4-0.1,0.1-0.4c-0.2,0.5-0.7-0.1-0.9,0c0,0.1-0.1,0.2-0.2,0.2c0-0.1,0.1-0.2,0.2-0.2c0-0.1,0-0.1,0-0.2
	c-0.1,0-0.1,0.3-0.1,0.4c-0.2,0.1-0.6,0-0.9,0.1c0-0.1-0.9-0.2-1.3-0.3l0-0.1c-0.1,0.4-0.5,0.3-0.9,0.4c0-0.2,0.1-0.3,0.3-0.4
	l-0.3,0c-0.1,0.1-0.2,0.2-0.4,0.2l0.1-0.3c-0.4,0-0.8,0.3-1.4,0.1c0,0.3,0.4,0.7-0.1,0.9c0-0.1,0-0.4,0.1-0.4c0,0-0.2,0.1-0.3,0.1
	l0.2-0.2c-0.2-0.1-0.1,0.2-0.3,0.2c0-0.2-0.1-0.1-0.1-0.3c0,0,0.2,0.1,0.2,0c-0.2,0-0.5-0.2-0.6-0.3c0,0.1,0,0.3-0.2,0.3
	c-0.4,0-0.1-0.2-0.4-0.3c-0.1,0.1-0.4,0-0.4,0.3c-0.1,0-0.1-0.1-0.2-0.2c-0.2,0.1-1,0-0.8,0.4l0.1,0l0,0c-0.7,0.3-1.5-0.2-2.2,0
	l0-0.1c-0.4,0.1-0.9,0.1-1.2,0.3c-0.1,0-0.3-0.2-0.2-0.3c-0.3,0.1-0.4,0.2-0.8,0c0.3-0.2-0.1-0.2,0.3-0.1c-0.4-0.1-0.5-0.2-1,0
	c0.2-0.3-0.3-0.3-0.5-0.2l0.3,0.2c-0.2,0-0.4,0-0.6,0l0.1-0.3c-0.9-0.4-1.5,0.7-2.2,0c-0.2,0.2,0.5,0.2,0.3,0.4
	c-0.4,0-0.8-0.5-0.9-0.5c-0.5-0.2-0.5,0.5-1.1,0.4c0.1,0.1,0.1,0.4-0.3,0.5c-0.4,0-0.5-0.5-0.2-0.6c0.1,0,0.1,0,0.1,0.1
	c0.1,0,0.3-0.1,0.1-0.2l-0.1,0.1c-0.2-0.1-0.7-0.1-0.6-0.3c-0.3,0.1-0.1,0.2,0.1,0.3c-0.5-0.2-0.8,0-1.3-0.1
	c0.1,0.1,0.2,0.2,0.1,0.2c-0.8-0.1-0.3,0.2-0.8,0.3c-0.3-0.2,0.1-0.4-0.4-0.3c-0.3-0.1-0.1-0.3,0.1-0.4c-0.5,0.2-0.9-0.2-1.2-0.2
	l0.2-0.1c-0.1,0.1-0.3,0.1-0.4,0.1l0.1,0.2c-0.1,0-0.3,0-0.3-0.1c-0.2,0.2,0.1,0.4-0.2,0.6c-0.2-0.1-0.6,0.1-0.7-0.2
	c0.6,0.1-0.1-0.3,0.5-0.4c-0.1,0-0.2,0-0.4,0c0,0,0-0.1,0.1-0.1c-0.6-0.3-0.3,0.4-0.9,0.3c0.1-0.2-0.1-0.3-0.2-0.3
	c0.2,0,0.1,0.3-0.1,0.4c-0.4-0.1-0.4,0.1-0.6,0.1l0.2,0.1c-0.1,0.2-0.3,0.2-0.5,0.2c0-0.1,0.2-0.1,0.1-0.2c-0.3,0.3-0.7-0.3-1.1-0.1
	c-0.2-0.1,0-0.3-0.2-0.4c-0.5,0.2-0.5-0.2-1-0.1c0.1,0.2,0.2,0.2-0.2,0.4l0.8-0.2l-0.5,0.3c0.2,0,0.5-0.1,0.7-0.1
	c-0.2,0.2-0.2,0.1-0.1,0.3c-0.3-0.4-0.7,0.2-1.1,0l0-0.6c-0.6-0.3-1,0.3-1.8,0.2l0.2,0.1c-0.1,0.2-0.5,0-0.7,0.1
	c0-0.2-0.1-0.3-0.2-0.4c0,0.1-0.6,0-0.6,0.4l-0.3-0.3c-0.6-0.1-0.7,0.6-1.3,0.5c0.2-0.2-0.1-0.4,0.3-0.5c-0.2,0-0.4,0-0.4,0.1
	c-0.1-0.1-0.5,0.3-0.7,0.1c-0.1,0.1-0.1,0.3-0.3,0.3c0,0,0-0.1,0-0.1c0,0.1-0.3,0.1-0.2,0.4c-0.6-0.6-1.7,0-2.2-0.5
	c-0.4,0.1-0.9,0.1-1.3,0.1c0-0.1,0-0.1,0.1-0.1c-0.5-0.2-0.3,0.6-0.9,0.4c-0.3-0.3,0.3-0.2,0.1-0.3c-0.1-0.6-0.7,0.1-1.1-0.3l0.1,0
	c-0.3-0.2-0.8,0.2-1.3,0.2c0,0,0-0.1,0-0.1c-0.4,0.3-1,0.4-1.5,0.5c0.2-0.3,0.2-0.1,0.1-0.4c-0.2,0,0.1,0.4-0.4,0.5
	c-0.1-0.1-0.5-0.3-0.5-0.5l0.4,0c-0.2-0.4-0.5,0-0.8-0.1l0-0.2c-0.6,0-0.6,0.4-1.3,0.4l0.1,0.1c-0.4,0.4-0.3-0.2-0.7,0.1l-0.1-0.4
	c-0.2,0.1-0.9,0.4-1.3,0.5c0.3-0.3,0.8-0.4,1.1-0.6c-0.2,0-0.8,0-1,0.2c0.1,0,0.2-0.1,0.3-0.1c-0.3,0.3-0.7,0.5-1.2,0.5
	c0.1-0.8-1.3-0.2-1.6-0.8c-0.9,0.3-1.7-0.1-2.7-0.1c0.4,0.6-0.3,0-0.2,0.6c-0.2,0-0.3,0-0.3,0c0,0,0,0,0,0v0l-0.7-0.4
	c-0.2-0.2,0.2-0.1,0.2-0.3c-0.5,0-0.2-0.3-0.6-0.4c0.1,0.2-0.2,0.3-0.5,0.2l0.4,0.3c-0.7,0.3-0.6-0.5-1.3-0.2l0.2-0.2
	c-0.4,0.1-1.4,0-1.7,0.5c-0.1-0.1-0.2-0.2,0-0.3c-0.9-0.1-2,0.5-2.7,0.2l0.1-0.1c-0.2,0-0.3,0.3-0.5,0.1c0-0.1,0.1-0.1,0-0.2
	c-0.1,0.1-0.4,0.3-0.7,0.2l0.2-0.2c-0.9-0.2-1.3,0.4-2.1,0.5c0-0.4-0.7-0.6-1-0.7l0-0.1c-1-0.1-1.7,0.4-2.7,0.5
	c-0.6-0.5-2-0.2-2.9-0.5c0.1,0.1,0,0.3-0.2,0.4c-0.2-0.1-0.6,0.3-0.6-0.1l0.1,0c-0.2-0.4-0.6-0.3-1-0.3l-0.1,0.5
	c-0.9-0.8-2.4,0.3-2.9-0.4c-0.2,0.1-0.5,0.1-0.7,0.3l0-0.3c-0.6-0.1-0.9-0.1-1.7,0l0.2-0.2c-0.4,0-0.5,0.8-0.9,0.8l-0.1-0.4
	c-0.7,0-1.5-0.4-2.2,0c0-0.1,0-0.2,0.2-0.2c-0.4,0-1.4-0.3-1.2,0.3c0-0.4-0.8,0-1.2,0.1l0.1-0.3c-0.3,0.4-0.4,0.5-0.8,0.6
	c-0.1,0-0.1-0.1,0-0.2c-0.3,0-0.3,0.3-0.7,0.1l0.2-0.2c-0.4,0-0.4,0.1-0.6,0.3c-0.2,0.1-0.7-0.1-0.8-0.3c-0.1,0.2-0.3,0.4-0.5,0.3
	c0-0.1,0.1-0.2,0.1-0.2c-0.6-0.2-1,0.3-1.4,0.1c0-0.1,0-0.1-0.1-0.2c0.5,0,0.9,0,0.9,0c0-0.3-0.4-0.3-0.1-0.7
	c-0.3,0.2-0.9,0.6-1.3,0.5c0,0,0,0-0.1-0.1l0,0c-0.1,0-0.2,0-0.3,0c-0.1,0-0.2-0.1-0.3-0.1c0-0.2-0.5-0.1-0.7-0.1
	c0,0.3-0.3,0.2,0,0.5c0,0,0,0,0.2,0c0,0,0.1,0,0.1,0l0,0c0.1,0,0.3,0,0.5,0c-0.2,0.1-0.3,0.3-0.6,0.1c-0.1,0.2-0.2,0.4-0.3,0.5
	c-0.3-0.4-0.8-0.6-0.9-0.8c-0.6,0.2-1.5,0.1-1.9,0.6c-0.2,0.1-0.2-0.2-0.3-0.2c0.1-0.1,0.2,0,0.3-0.1c-0.4,0.1-1.1,0.1-1.1,0.4
	c-0.5-0.2,0.3-0.3-0.4-0.3l0.1-0.1c-1.2-0.6-2,1-3.3,0.2c0.1,0,0.1,0.1,0.2,0.1c-1.5-0.3-3.2,0.3-4.7-0.2c-0.4-0.1-0.5,0.1-0.7,0.3
	l-0.1-0.3l-0.4,0.4c-0.6,0.3-1.1-0.7-1.9-0.2l0.1,0.2c-0.3,0-0.9,0.1-0.9-0.1c0,0-0.1,0.2-0.2,0.1l0-0.2l-0.7,0.3
	c-0.6-0.1,0.1-0.6-0.7-0.7c-0.3,0.1-0.9,0.5-0.7,0.6c0.1,0,0.3,0.1,0.3,0.3l-0.3,0.1c0,0.5-0.3,0.9,0.4,1.3l0.5-0.3l0.2,0.2l-0.4,0
	c0.2,0.2,0.4,0,0.5-0.1c0,0.1,0.1,0.2,0.2,0.2l0.5-0.4c0.1,0.2-0.2,0.4,0.1,0.5c0.2-0.2-0.2-0.4,0.1-0.5c0.2,0.2,0.2,0.4,0.4,0.2
	c0,0.1,0,0.2-0.1,0.2c0.2-0.1,0.6-0.1,0.7-0.3c0.2,0.3,0.8-0.1,0.8,0.4c0.1-0.1,0.4-0.3,0.6-0.4c-0.4,0.5,0.8,0,0.7,0.6
	c0.3-0.5,1.1-0.2,1.6-0.5c0,0-0.1,0.1-0.1,0.1c0.3,0,0.4,0.2,0.6,0.3c0-0.4,0.5-0.5,0.7-0.7c0.4,0.4-0.2,0.5-0.1,0.8
	c0-0.3,0.6-0.3,0.5-0.6c0.3,0.2,0.2,0.1,0.4,0.4c0-0.5,0.3-0.1,0.5-0.4c0.4,0.2,0.1,0.5,0.5,0.3c0.2,0.1-0.2,0.3-0.2,0.3
	c0.4,0,0.2-0.4,0.3-0.6c0.5-0.1,0.2,0.3,0.4,0.5c0.3-0.1,0.6-0.4,0.8-0.4c0,0.1,0.1,0.1,0,0.2c0.3-0.3,1,0,1.4-0.4
	c0,0,0,0.1,0.1,0.1c-0.1-0.2-0.1-0.4-0.1-0.5c0.2,0,0.4-0.2,0.4,0c-0.1,0-0.1,0.1-0.2,0.2l0.2-0.1c0.2,0.3-0.3,0.1-0.3,0.4
	c0.4-0.1,0.9-0.4,1.2-0.3c0.1,0.3-0.7,0.1-0.3,0.4l-0.5-0.1c0.4,0.5-0.3,0,0,0.5c0.6,0.1,0.7-0.2,1.3-0.1c0.1-0.2,0-0.3,0.1-0.5
	c0.9-0.3,0.7,0.9,1.4,0.4c0.2-0.2,0.2-0.7,0.7-0.4l-0.2,0.4c0.6,0,0.3-0.6,1-0.3c-0.1,0.2-0.5,0.1-0.4,0.2c0.4,0.3,0.3-0.2,0.6-0.2
	l0.1,0.3c0.7-0.1,1.4-0.3,2.1-0.4c0,0.1-0.2,0.2,0,0.3c0.9-0.2,1.9,0,2.8,0.2l0.3-0.3c0.1,0,0.1,0.1,0.1,0.2c0.3,0.1,0-0.2,0.2-0.3
	c0.2,0,0.3,0.2,0.1,0.3c0.6-0.2,1.7-0.5,2.4-0.2L74,98.5c0.5,0.1,0.6-0.6,1-0.3l-0.1,0.1c1.1,0.1,2.3-0.1,3.1,0.3
	c0.2-0.4,1.1,0.2,1.1-0.4c0.6,0.3,0.4,0.4,1.3,0.6c0.2,0,0.3-0.4,0.6-0.4l0,0.3l0.4-0.3l0.2,0.4l0.3-0.1c-0.1,0-0.2-0.1-0.2-0.2
	c0.4-0.1,1,0.2,1,0.4l1-0.3c0,0.1-0.2,0.2-0.3,0.2c0.5-0.3,0.1,0.3,0.6,0c-0.1-0.1,0-0.2,0-0.2c0.2,0.2,0.8,0.2,1.2,0.1l-0.1,0.2
	c0.7,0.1,1.5-0.1,2.4-0.1c-0.3-0.1-0.2-0.5,0-0.5l0.1,0.3c0.2-0.2-0.3-0.1,0.1-0.4c0.3,0,0.2,0.4,0,0.5l0.4-0.1
	c0,0.1-0.1,0.1-0.1,0.3c0.2-0.2,0.6,0.3,0.9,0l0,0.1c0.8,0,1.2-0.1,1.9-0.1c0-0.3,0.3-0.2,0.5-0.4c0.5,0.1,1,0.3,1.6,0.3
	c0.4-0.1,0.1-0.2,0.3-0.4c0,0.3,0.6,0.2,0.3,0.4c0.7,0,0.9,0,1.8-0.3c-0.1-0.1-0.2-0.2-0.2-0.2c0.2,0,0.4,0.1,0.3,0.2l0,0
	c1-0.4,2.3,0.8,3.1,0.2l0,0l0.8-0.3c0.4,0-0.2,0.2,0.1,0.4c0.9-0.4,1.4,0.1,2.2-0.2c0.6,0.8,2,0,2.8,0.4l0-0.2
	c0.2-0.2,0.2,0.1,0.4,0.1c0-0.1-0.2-0.2-0.1-0.3c1.7-0.2,3.5,0.3,5.2,0.4c0.6,0,0.4-0.9,1.2-0.5l-0.2,0.3c1.3-0.4,2.6,0,3.9-0.3
	c-0.1,0.1-0.1,0.2-0.2,0.2c0.3,0.2,1,0,1-0.2c0.2,0,0,0.2,0.2,0.3c0.3,0.1,0.7-0.3,0.8-0.1c0,0-0.1,0.1-0.1,0.1
	c0.2-0.1,0.8,0,0.6-0.2c0.5,0.1,0.9-0.1,1.3,0c0.2-0.3,0.8,0.2,0.9-0.3c0,0.5,0.8,0.4,1.1,0.2c-0.1,0.1,0.3,0.1,0.1,0.3
	c0.3,0,0.7-0.1,0.6-0.3c0.6,0.5,1.3-0.4,1.6,0.3c1-0.2,1.9-0.4,2.9-0.5c0,0.5-1,0-1,0.5c0.9-0.2,1.4-0.6,2.2-0.5
	c0.2,0.1-0.1,0.2-0.2,0.3c0.9-0.2,1.7,0,2.4-0.2c0,0-0.1,0.1-0.2,0.1c0.2,0,0.4,0.1,0.3-0.1l-0.1,0.1c-0.2-0.3,0.6-0.6,0.6-0.8
	c-0.3,0.6,0.8,0.1,0.3,0.9c0.1,0,0.2-0.1,0.2-0.3c0.1,0,0.2,0.1,0,0.3c0.5-0.1,0.3-0.3,0.8-0.3c0,0.1-0.1,0.1-0.2,0.3
	c0.2-0.2,0.5-0.4,0.9-0.3c0,0.1,0,0.1-0.1,0.1c0.7,0,1.2-0.5,2-0.3c-0.2,0.4,0.3,0.1,0.3,0.5l0.4-0.1l-0.2-0.2c0.4,0,0.7-0.3,1-0.1
	l-0.3,0.2l0.7-0.1l-0.4-0.1c0.4-0.2,0-0.5,0.5-0.4c-0.1,0,0.4,0,0.6,0.2l0,0c0.2-0.1,0.4-0.2,0.6-0.2c0.1,0.1-0.1,0.4,0,0.5
	c0.2-0.3,0.9-0.1,1.1-0.4c-0.1,0.1-0.1,0.3-0.1,0.3l0.2-0.3c0.2,0.1,0.2,0.1,0.2,0.3c0.5,0-0.2-0.5,0.4-0.3c0,0,0,0.1-0.1,0.1
	c0.6,0.1,1.2-0.2,1.7,0c0.2,0.4-0.5,0.1-0.3,0.4c0.8-0.1,1.7-0.5,2.5-0.4l-0.1,0c0.1-0.5,0.6,0.3,1,0c-0.1,0-0.1,0.3-0.1,0.2
	c0.5,0.1,1.1-0.1,1.9-0.3l-0.1,0.1c0.3,0.1,0.8,0.1,1.2,0.1c0.1-0.1,0.3-0.1,0.2-0.3c1.1,0.8,2-0.4,2.9,0.2c-0.1,0-0.3,0.1-0.2,0.1
	l0.8-0.1c-0.1-0.2-0.1-0.1-0.3-0.3c0.1-0.1,0.3-0.2,0.5-0.2c-0.4,0.2,0,0.4,0.2,0.5c0-0.1,0-0.1,0-0.2c0.4,0.4,0.1-0.5,0.6-0.2
	l0,0.1c0.2-0.1,0.4-0.2,0.6-0.2c0.1,0.3-0.2,0.1-0.2,0.3c0.3,0,0.6-0.5,0.9-0.2c-0.1,0.1-0.3,0.1-0.5,0.2c0.3,0.3,0.4,0.2,0.6,0.3
	l0,0l0.5,0.1l-0.1-0.1c0.4-0.7,0.8-0.1,1.4-0.6c-0.5,0.4-0.1,0.3-0.1,0.6c0.1,0.1,0.4,0.2,0.3,0.3c0.3-0.2,0.4,0.2,0.8-0.2
	c0,0.1,0.3,0,0.2,0.3c0.3-0.1-0.1-0.2-0.1-0.3c0.5-0.3,1.2,0.4,1.9-0.1c0.6-0.2,0.8-0.5,1.3-0.7c0.2,0.2-0.2,0.4-0.2,0.4
	c0.3,0.1,0.6,0.1,0.9,0c-0.1,0.1,0,0.2,0.1,0.3c0.2,0,0.2-0.4,0.5-0.2c-0.1,0.1-0.1,0.3-0.2,0.4c0.3-0.1,0.6-0.3,0.9-0.4
	c0.1,0.2-0.2,0.3-0.3,0.4c0.3-0.1,0.9-0.2,1-0.4L161.1,97.7z M67.2,96.3L67.2,96.3c0,0,0-0.1,0-0.1c0.1,0,0.2,0,0.2,0.1
	C67.4,96.3,67.3,96.3,67.2,96.3z M68.2,98.1c-0.1,0-0.2,0-0.2,0C68.1,98.1,68.1,98.1,68.2,98.1L68.2,98.1z M68.7,98.1
	c0-0.1,0-0.2,0.1-0.2c0,0.1,0.2,0.1,0.3,0.2C69,98.1,68.9,98.1,68.7,98.1z M67,96.5C67,96.5,67,96.6,67,96.5
	C67,96.6,67,96.6,67,96.5L67,96.5L67,96.5z M83.6,96l-0.3,0.1l0.2,0L83.6,96z M95.6,69.9c0-0.5,0-1,0.1-1.6c0.1-0.5,0.2-1.1,0.2-1.6
	c0-0.3-0.1-0.5-0.2-0.6c-0.1-0.1-0.3-0.2-0.5-0.3c-0.2-0.1-0.4-0.1-0.6-0.2c-0.2,0-0.4,0-0.6,0c-0.2,0.2-0.4,0.3-0.5,0.5
	s-0.2,0.4-0.2,0.6c0,1.1-0.1,2.2-0.2,3.3C93,71,93,72.1,93,73.2c0,0.8,0,1.6,0,2.4c0,0.8,0,1.6,0,2.6c0,0.4,0,0.9,0.1,1.6
	s0.2,1.4,0.3,2.2c0.2,0.7,0.4,1.4,0.7,1.9s0.7,0.8,1.2,0.8c0.3,0,0.6-0.1,0.8-0.2c0.3-0.2,0.4-0.4,0.4-0.7c0,0,0-0.1,0-0.1
	c0,0,0-0.1,0-0.1c-0.2-0.7-0.4-1.6-0.5-2.5s-0.3-1.8-0.3-2.6c0-0.3,0-0.6,0-0.9c0-0.3,0-0.6,0-1c0-0.5,0-1,0-1.4c0-0.5,0-1,0-1.5
	c0-0.6,0-1.2,0-1.8S95.6,70.6,95.6,69.9z M72.7,78.9c0.3,0.1,0.5,0.1,0.7,0.2s0.4,0,0.7,0c0.6,0,1.1-0.1,1.6-0.3
	c0.5-0.2,0.9-0.5,1.2-0.8c0.3-0.3,0.6-0.7,0.7-1.2c0.2-0.4,0.3-0.9,0.3-1.3c0-0.4-0.1-0.7-0.2-1c-0.1-0.3-0.3-0.6-0.6-0.9
	c-0.3-0.3-0.6-0.5-1-0.6c-0.4-0.2-0.8-0.2-1.4-0.2c-0.7,0-1.4,0.2-1.9,0.6c-0.6,0.4-1,0.9-1.4,1.5c-0.4,0.6-0.7,1.3-0.9,2
	s-0.3,1.5-0.3,2.2c0,0.5,0.1,0.9,0.1,1.4c0,0.4,0.2,0.8,0.3,1.2c0.2,0.4,0.4,0.8,0.6,1.1c0.3,0.4,0.6,0.7,1.1,1.1
	c0.3,0.2,0.7,0.3,1.2,0.5c0.5,0.1,0.9,0.2,1.2,0.2c0.7,0,1.3-0.1,1.8-0.2c0.5-0.1,0.9-0.4,1.5-0.9c0.2-0.1,0.3-0.3,0.4-0.5
	c0.1-0.2,0.2-0.4,0.2-0.7c0-0.1,0-0.2,0-0.3c0-0.1,0-0.2-0.1-0.3c-0.1-0.1-0.2-0.2-0.3-0.3s-0.2-0.1-0.3-0.1c-0.5,0.3-1,0.7-1.4,0.9
	c-0.4,0.3-0.9,0.4-1.5,0.4c-0.1,0-0.2,0-0.5-0.1c-0.2-0.1-0.5-0.2-0.8-0.4c-0.3-0.2-0.5-0.5-0.7-0.9c-0.2-0.4-0.3-1-0.4-1.7
	c0,0,0-0.1,0-0.2S72.7,79,72.7,78.9z M73,76.3c0.1-0.3,0.2-0.5,0.3-0.7c0.1-0.2,0.2-0.3,0.3-0.4c0.1-0.1,0.2-0.2,0.3-0.3
	c0.1-0.2,0.2-0.3,0.4-0.3c0.2,0,0.4-0.1,0.6-0.1c0.3,0,0.5,0.1,0.7,0.4c0.2,0.2,0.2,0.5,0.2,0.8c0,0.5-0.2,0.9-0.6,1.2
	c-0.4,0.3-0.9,0.5-1.6,0.5c-0.1,0-0.2,0-0.4,0s-0.3,0-0.4,0C72.9,76.9,73,76.6,73,76.3z M104.1,73.8c0.2-0.1,0.5-0.2,0.7-0.3
	c0.2-0.1,0.5-0.1,0.6-0.2c0.2-0.1,0.4-0.1,0.6-0.2s0.4-0.1,0.6-0.2c0.2-0.1,0.3-0.2,0.5-0.3s0.2-0.4,0.2-0.6c0-0.2-0.1-0.4-0.2-0.7
	c-0.1-0.2-0.3-0.3-0.6-0.3c-0.5,0-1,0.1-1.4,0.3c-0.4,0.2-0.8,0.3-1.4,0.3c-0.2,0-0.3,0-0.3-0.2c0-0.1,0-0.2,0-0.3
	c0-0.3,0-0.5,0-0.8c0-0.2,0-0.5,0-0.7c0-0.3,0-0.6,0-0.9c0-0.3,0-0.6,0-0.9c0-0.3,0-0.6,0-0.9c0-0.3,0-0.7,0-1.1
	c0-0.2,0-0.4-0.1-0.7s-0.1-0.4-0.2-0.6c-0.1-0.2-0.3-0.3-0.5-0.5s-0.5-0.2-0.8-0.2c-0.2,0-0.3,0-0.4,0.1c-0.1,0-0.2,0.1-0.4,0.2
	c-0.1,0.3-0.1,0.5-0.1,0.8V68c0,0.3,0,0.6,0,0.9c0,0.3,0,0.6,0,0.9c0,0.5,0,0.8,0,1.1c0,0.2,0,0.6,0,0.9c0,0.2,0,0.4-0.1,0.6
	s-0.2,0.4-0.6,0.4c-0.3,0.1-0.5,0.2-0.7,0.3c-0.2,0.1-0.4,0.1-0.6,0.2s-0.4,0.1-0.6,0.1c-0.2,0-0.5,0.1-0.7,0.2
	c-0.1,0.3-0.1,0.6-0.1,0.8c0.1,0.2,0.3,0.4,0.6,0.6c0.3,0.3,0.6,0.4,1,0.4c0.3,0,0.6-0.1,0.8-0.2c0.2-0.1,0.5-0.2,0.9-0.3
	c0,0.1,0.1,0.2,0.1,0.2c0,0.1,0,0.1,0,0.2c0,1,0,2,0.1,2.9c0,1,0.1,1.9,0.1,2.9c0,0.4,0.1,0.8,0.1,1.3c0.1,0.5,0.2,0.9,0.3,1.1
	c0.2,0.3,0.4,0.5,0.6,0.7c0.2,0.2,0.5,0.3,0.8,0.3c0,0,0.2,0,0.4-0.1c0.2-0.1,0.4-0.2,0.6-0.3c0.2-0.2,0.3-0.4,0.3-0.8
	c0-0.2,0-0.5-0.1-0.8S104,82.3,104,82c-0.2-0.9-0.3-1.8-0.4-2.8c-0.1-1-0.2-1.9-0.2-2.8c0-0.1,0-0.3,0-0.4c0-0.1,0-0.3,0-0.4
	s0-0.2,0-0.4c0-0.1,0-0.2,0-0.4c0-0.2,0.1-0.4,0.2-0.6C103.7,74.1,103.9,73.9,104.1,73.8z M85.5,82.1c0.5-0.6,0.9-1.2,1.2-1.8
	c0.3-0.6,0.5-1.2,0.6-1.6c0.1,0.6,0.2,1.3,0.3,2c0.1,0.8,0.2,1.5,0.4,2.1c0.2,0.7,0.4,1.2,0.6,1.7s0.6,0.7,1,0.7c0.1,0,0.2,0,0.4,0
	s0.3-0.1,0.4-0.1c0.1-0.1,0.2-0.1,0.3-0.2c0.1-0.1,0.1-0.2,0.1-0.4c0-0.2,0-0.3-0.1-0.5c-0.1-0.2-0.1-0.3-0.2-0.5l-0.2-0.6l-0.2-1.1
	c-0.2-0.9-0.4-1.8-0.4-2.6c-0.1-0.8-0.2-1.7-0.3-2.7c-0.1-0.5-0.2-1-0.3-1.5c-0.1-0.5-0.3-0.9-0.7-1.1c-0.2-0.1-0.4-0.2-0.6-0.4
	c-0.2-0.1-0.5-0.2-0.7-0.3c-0.2-0.1-0.5-0.2-0.7-0.2c-0.2-0.1-0.4-0.1-0.6-0.1c-0.8,0-1.6,0.3-2.4,1c-0.8,0.7-1.4,1.4-2,2.4
	c-0.6,0.9-1,1.9-1.3,2.8c-0.3,1-0.5,1.8-0.5,2.4c0,0.3,0,0.6,0.1,1c0.1,0.4,0.2,0.7,0.3,0.9c0.2,0.3,0.4,0.5,0.7,0.7
	c0.3,0.2,0.7,0.3,1.2,0.3c0.6,0,1.2-0.2,1.8-0.6C84.5,83.2,85,82.7,85.5,82.1z M82.3,81.9C82.3,81.9,82.3,81.9,82.3,81.9
	C82.2,81.9,82.2,81.9,82.3,81.9l0-0.2c0-0.5,0.1-1.1,0.3-1.7c0.2-0.6,0.4-1.1,0.7-1.6c0.1-0.1,0.2-0.3,0.3-0.7
	c0.2-0.4,0.4-0.8,0.6-1.2s0.5-0.8,0.9-1.1s0.7-0.5,1.2-0.5c0.1,0,0.2,0,0.3,0.1s0.2,0.1,0.3,0.1c0,0.1,0,0.3-0.1,0.5
	c-0.1,0.2-0.2,0.4-0.3,0.6c-0.1,0.2-0.2,0.5-0.3,0.7c-0.1,0.2-0.2,0.4-0.3,0.6c-0.1,0.4-0.4,0.9-0.6,1.4s-0.6,1-0.9,1.5
	c-0.3,0.5-0.7,0.9-1,1.2S82.5,81.9,82.3,81.9z M128.8,73.6c-0.1-0.3-0.2-0.6-0.5-0.8c-0.3-0.2-0.6-0.3-1-0.3s-0.6,0.2-0.8,0.5
	c-0.2,0.3-0.3,0.7-0.3,1.2s-0.1,1-0.1,1.5c0,0.5-0.1,1-0.1,1.4c-0.1,0.3-0.2,0.8-0.4,1.3c-0.1,0.5-0.3,1-0.5,1.5s-0.4,1-0.7,1.4
	c-0.3,0.4-0.6,0.7-1,0.8c-0.2-0.1-0.4-0.4-0.5-0.7s-0.2-0.7-0.3-1.1c-0.1-0.4-0.1-0.8-0.1-1.2c0-0.4,0-0.7,0-1v-0.5c0-0.3,0-0.6,0-1
	c0-0.4,0-0.8,0-1.1c-0.1-0.3-0.1-0.5-0.1-0.9c0-0.3,0-0.6-0.1-0.9c-0.1-0.3-0.2-0.5-0.4-0.7c-0.2-0.2-0.5-0.3-1-0.3
	c-0.2,0-0.4,0.1-0.5,0.3c-0.1,0.2-0.2,0.4-0.3,0.7s-0.1,0.6-0.1,0.9c0,0.3,0,0.6,0,0.8c0,0.3,0,0.7,0,1c0,0.3,0,0.6,0,1
	c0,0.1,0,0.2,0,0.4c0,0.1,0,0.2,0,0.4c0,0.5,0,1.2,0.1,1.9c0.1,0.7,0.2,1.5,0.5,2.1c0.2,0.7,0.6,1.3,1,1.7c0.4,0.5,1,0.7,1.8,0.7
	c0.2,0,0.5-0.1,0.8-0.2c0.3-0.1,0.6-0.3,0.8-0.5c0.3-0.2,0.5-0.5,0.7-0.7c0.2-0.3,0.4-0.5,0.5-0.8c0.1,0,0.1,0,0.1,0
	c0,0.1,0,0.3,0,0.4s0,0.3,0,0.4c0,1.4-0.2,2.8-0.5,4c-0.4,1.2-1,2.5-1.9,3.7c-0.2,0.3-0.5,0.5-0.9,0.7c-0.4,0.2-0.7,0.4-1.1,0.5
	c-0.4,0.2-0.7,0.3-0.9,0.4c-0.3,0.1-0.4,0.3-0.4,0.4c0,0.2,0,0.3,0.2,0.5c0.1,0.1,0.2,0.3,0.4,0.4c0.2,0.1,0.3,0.2,0.5,0.2
	c0.2,0,0.3,0.1,0.4,0.1c0.5,0,0.9,0,1.2-0.2c0.3-0.1,0.7-0.2,0.9-0.4c0.3-0.1,0.5-0.3,0.7-0.5c0.2-0.2,0.4-0.3,0.6-0.5
	c1.2-1.4,2.1-2.9,2.6-4.6c0.5-1.7,0.8-3.6,0.8-5.7c0-0.3,0-0.7,0-1c0-0.4,0-0.7,0-1.1c0-0.3,0-0.7,0-1c0-0.3,0-0.5,0-0.7
	c0-0.5,0-1.2,0-2.1C128.6,75.7,128.7,74.7,128.8,73.6z M110.9,84.2c0.1,0,0.3-0.1,0.4-0.2c0.1-0.1,0.2-0.3,0.2-0.5
	c0.1-0.2,0.1-0.4,0.1-0.6c0-0.2,0.1-0.4,0.1-0.7v-0.1c0,0,0-0.1,0-0.1c0,0,0,0,0-0.1v-0.1c0-0.1,0.1-0.3,0.1-0.7
	c0.1-0.3,0.2-0.7,0.3-1.2c0.1-0.4,0.2-0.9,0.4-1.4c0.2-0.5,0.3-0.9,0.5-1.4c0.2-0.4,0.4-0.8,0.6-1.1c0.2-0.3,0.5-0.5,0.7-0.6
	c0.1,0,0.2,0.1,0.2,0.3c0.1,0.2,0.2,0.5,0.2,0.8c0.1,0.3,0.1,0.7,0.2,1c0,0.4,0.1,0.7,0.1,0.9c0,0.3,0,0.8,0.1,1.4
	c0,0.6,0.2,1.3,0.3,1.9c0.2,0.6,0.4,1.2,0.7,1.7c0.3,0.5,0.7,0.7,1.2,0.7c0.2,0,0.3-0.1,0.5-0.2c0.2-0.2,0.3-0.3,0.4-0.5
	c0-0.6-0.2-1.2-0.4-1.9c-0.2-0.7-0.3-1.4-0.4-2c0-0.3-0.1-0.7-0.1-1.1c0-0.4-0.1-0.8-0.2-1.1c0-0.3,0-0.7-0.1-1.2
	c-0.1-0.5-0.2-1-0.4-1.5c-0.2-0.5-0.5-0.9-0.8-1.2c-0.4-0.3-0.8-0.5-1.3-0.6c-0.3,0-0.7,0.1-1,0.3c-0.3,0.2-0.7,0.5-1,0.9
	c-0.3,0.4-0.6,0.8-0.9,1.3c-0.3,0.5-0.5,1-0.8,1.6c0-0.7,0-1.4,0-2.1c0-0.7,0-1.4,0-2.1c0-0.7,0-1.4,0.1-2.2c0-0.8,0.1-1.6,0.1-2.4
	c0-0.4,0.1-0.9,0.2-1.2c0.1-0.4,0.1-0.8,0.1-1.3c0-0.4-0.1-0.8-0.3-1.1c-0.2-0.3-0.5-0.5-0.9-0.5c-0.2,0-0.5,0-0.9,0.1
	c-0.1,0.5-0.3,1.1-0.3,1.7s-0.2,1.4-0.2,2.1c0,0.7-0.1,1.5-0.1,2.3c0,0.8,0,1.5,0,2.3c0,1.2,0,2.4,0.1,3.6s0.1,2.4,0.1,3.5v0.5
	c0,0.4,0,0.9,0,1.3c0,0.4,0.1,0.8,0.2,1.2c0.1,0.4,0.4,0.6,0.6,0.9S110.3,84.2,110.9,84.2z M10.7,73.8c-0.4-0.8-0.6-1.2-0.6-1.3
	c-0.2-0.5-0.3-1-0.3-1.6c0-1.6,0.5-2.9,1.6-4c0.1-0.1,0.2-0.2,0.4-0.2c0.1,0,0.2,0,0.5,0.1c0,0,0.1,0,0.2,0c0.1,0,0.2,0,0.3-0.1
	c0.6-0.3,0.9-0.7,0.9-1.1c0-0.2-0.1-0.5-0.3-0.7c-0.4-0.5-1-0.7-1.9-0.7c-0.4,0-0.9,0.1-1.4,0.3c-1,0.5-1.8,1.3-2.3,2.4
	c-0.5,1-0.7,2-0.7,3.3c0,1.5,0.6,3.5,1.9,5.9c1.3,2.5,1.9,4.4,1.9,5.6c0,0.9-0.2,1.8-0.6,2.7c-0.1,0.2-0.3,0.3-0.6,0.4
	c-0.3,0-0.5,0.1-0.6,0.2c-0.3,0.3-0.5,0.6-0.5,0.9c0,0.4,0.3,0.7,0.9,1c0.1,0.1,0.3,0.1,0.5,0.1c0.5,0,1-0.2,1.6-0.6
	c0.7-0.5,1.2-1,1.3-1.3c0.5-1,0.8-2.1,0.8-3.2c0-1.3-0.5-3-1.4-4.9C11.6,75.7,11.1,74.6,10.7,73.8z M67.2,78.7
	c0.1-1.1,0.2-2.2,0.4-3.4c0.1-1.2,0.3-2.3,0.4-3.3s0.2-2,0.3-2.9c0.1-0.8,0.1-1.5,0.2-2c-0.1-0.2-0.2-0.4-0.5-0.5
	c-0.2-0.1-0.6-0.2-0.9-0.2h-0.3c-0.3,0-0.5,0.4-0.6,1c-0.2,1.7-0.4,3.2-0.6,4.5s-0.4,2.5-0.7,3.6h-0.1c-0.1,0-0.2,0-0.4,0
	c-0.2,0-0.4,0-0.7,0h-0.4c-0.5,0-1,0-1.2-0.1c-0.3-0.1-0.4-0.3-0.4-0.7c0-0.3,0-0.6,0.1-0.9s0.1-0.7,0.1-1.1c0-0.4,0.1-0.7,0.1-1
	c0-0.3,0.1-0.6,0.1-0.7c0-0.2,0-0.5,0-0.7c0-0.2-0.1-0.5-0.1-0.7c-0.1-0.2-0.1-0.4-0.3-0.5c-0.1-0.2-0.3-0.3-0.4-0.3l-0.9-0.2
	c-0.1,0-0.3,0-0.5,0.1s-0.3,0.2-0.3,0.4v0.4c0,0.5,0,1.2-0.1,1.9c-0.1,0.8-0.1,1.6-0.2,2.4s-0.2,1.7-0.3,2.6s-0.2,1.7-0.3,2.4
	c-0.1,0.7-0.1,1.4-0.2,1.9c-0.1,0.6-0.1,0.9-0.1,1.2c0,0.1,0,0.3,0,0.5c0,0.2,0,0.5,0,0.6c0,0.4,0.1,0.6,0.2,0.9
	c0.1,0.2,0.2,0.4,0.4,0.5c0.2,0.1,0.3,0.2,0.5,0.3s0.4,0.1,0.6,0.1c0.2,0,0.4-0.1,0.8-0.2c0-1.6,0.1-2.9,0.3-4.1
	c0.2-1.2,0.3-2.1,0.6-2.9c0.3-0.1,0.6-0.1,0.9-0.1c0.1,0,0.2,0,0.4,0c0.2,0,0.4,0.1,0.6,0.1c0.2,0,0.4,0.1,0.6,0.1
	c0.2,0,0.3,0,0.5,0h0.3c0,0.2,0,0.4,0,0.8c0,0.4-0.1,0.7-0.1,1.1c0,0.4-0.1,0.7-0.1,1.1c0,0.3,0,0.6,0,0.8c0,0.1,0,0.3,0,0.5
	c0,0.2,0,0.4,0,0.6c0,0.2,0,0.4,0,0.6c0,0.2,0,0.4,0,0.5c0,0.9,0.2,1.5,0.5,2c0.3,0.4,0.9,0.7,1.7,0.7c0.1,0,0.3-0.1,0.3-0.2
	c0.1-0.1,0.1-0.3,0.1-0.4c0-0.3,0-0.6,0-0.9c0-0.3,0-0.6,0-0.9c0-0.6,0-1.4,0.1-2.3C67,80.8,67.1,79.8,67.2,78.7z M34.7,83.4
	l-0.2-0.6l-0.2-1.1c-0.2-0.9-0.4-1.8-0.4-2.6c-0.1-0.8-0.2-1.7-0.3-2.7c-0.1-0.5-0.2-1-0.3-1.5c-0.1-0.5-0.3-0.9-0.7-1.1
	c-0.2-0.1-0.4-0.2-0.6-0.4c-0.2-0.1-0.5-0.2-0.7-0.3c-0.2-0.1-0.5-0.2-0.7-0.2c-0.2-0.1-0.4-0.1-0.6-0.1c-0.8,0-1.6,0.3-2.4,1
	c-0.8,0.7-1.4,1.4-2,2.4c-0.6,0.9-1,1.9-1.3,2.8c-0.3,1-0.5,1.8-0.5,2.4c0,0.3,0,0.6,0.1,1c0.1,0.4,0.2,0.7,0.3,0.9
	c0.2,0.3,0.4,0.5,0.7,0.7c0.3,0.2,0.7,0.3,1.2,0.3c0.6,0,1.2-0.2,1.8-0.6c0.6-0.4,1.2-0.9,1.7-1.5c0.5-0.6,0.9-1.2,1.2-1.8
	c0.3-0.6,0.5-1.2,0.6-1.6c0.1,0.6,0.2,1.3,0.3,2c0.1,0.8,0.2,1.5,0.4,2.1s0.4,1.2,0.6,1.7s0.6,0.7,1,0.7c0.1,0,0.2,0,0.4,0
	s0.3-0.1,0.4-0.1c0.1-0.1,0.2-0.1,0.3-0.2c0.1-0.1,0.1-0.2,0.1-0.4c0-0.2,0-0.3-0.1-0.5C34.8,83.7,34.8,83.6,34.7,83.4z M30.7,75.5
	c-0.1,0.2-0.2,0.4-0.3,0.6c-0.1,0.2-0.2,0.5-0.3,0.7c-0.1,0.2-0.2,0.4-0.3,0.6c-0.1,0.4-0.4,0.9-0.6,1.4s-0.6,1-0.9,1.5
	c-0.3,0.5-0.7,0.9-1,1.2s-0.6,0.5-0.9,0.5c0,0,0,0,0,0s0,0,0,0v-0.2c0-0.5,0.1-1.1,0.3-1.7c0.2-0.6,0.4-1.1,0.7-1.6
	c0.1-0.1,0.2-0.3,0.3-0.7c0.2-0.4,0.4-0.8,0.6-1.2s0.5-0.8,0.9-1.1s0.7-0.5,1.2-0.5c0.1,0,0.2,0,0.3,0.1s0.2,0.1,0.3,0.1
	C30.8,75.1,30.7,75.3,30.7,75.5z M24.4,72.7c0.1-0.2,0.2-0.4,0.2-0.6c0-0.2-0.1-0.4-0.2-0.7c-0.1-0.2-0.3-0.3-0.6-0.3
	c-0.5,0-1,0.1-1.4,0.3c-0.4,0.2-0.8,0.3-1.4,0.3c-0.2,0-0.3,0-0.3-0.2c0-0.1,0-0.2,0-0.3c0-0.3,0-0.5,0-0.8c0-0.2,0-0.5,0-0.7
	c0-0.3,0-0.6,0-0.9c0-0.3,0-0.6,0-0.9c0-0.3,0-0.6,0-0.9c0-0.3,0-0.7,0-1.1c0-0.2,0-0.4-0.1-0.7s-0.1-0.4-0.2-0.6
	c-0.1-0.2-0.3-0.3-0.5-0.5s-0.5-0.2-0.8-0.2c-0.2,0-0.3,0-0.4,0.1c-0.1,0-0.2,0.1-0.4,0.2c-0.1,0.3-0.1,0.5-0.1,0.8V68
	c0,0.3,0,0.6,0,0.9c0,0.3,0,0.6,0,0.9c0,0.5,0,0.8,0,1.1c0,0.2,0,0.6,0,0.9c0,0.2,0,0.4-0.1,0.6s-0.2,0.4-0.6,0.4
	c-0.3,0.1-0.5,0.2-0.7,0.3c-0.2,0.1-0.4,0.1-0.6,0.2s-0.4,0.1-0.6,0.1c-0.2,0-0.5,0.1-0.7,0.2c-0.1,0.3-0.1,0.6-0.1,0.8
	c0.1,0.2,0.3,0.4,0.6,0.6c0.3,0.3,0.6,0.4,1,0.4c0.3,0,0.6-0.1,0.8-0.2c0.2-0.1,0.5-0.2,0.9-0.3c0,0.1,0.1,0.2,0.1,0.2
	c0,0.1,0,0.1,0,0.2c0,1,0,2,0.1,2.9c0,1,0.1,1.9,0.1,2.9c0,0.4,0.1,0.8,0.1,1.3c0.1,0.5,0.2,0.9,0.3,1.1c0.2,0.3,0.4,0.5,0.6,0.7
	c0.2,0.2,0.5,0.3,0.8,0.3c0,0,0.2,0,0.4-0.1c0.2-0.1,0.4-0.2,0.6-0.3c0.2-0.2,0.3-0.4,0.3-0.8c0-0.2,0-0.5-0.1-0.8s-0.2-0.6-0.2-0.8
	c-0.2-0.9-0.3-1.8-0.4-2.8c-0.1-1-0.2-1.9-0.2-2.8c0-0.1,0-0.3,0-0.4c0-0.1,0-0.3,0-0.4s0-0.2,0-0.4c0-0.1,0-0.2,0-0.4
	c0-0.2,0.1-0.4,0.2-0.6c0.2-0.2,0.3-0.3,0.6-0.4c0.2-0.1,0.5-0.2,0.7-0.3c0.2-0.1,0.5-0.1,0.6-0.2c0.2-0.1,0.4-0.1,0.6-0.2
	s0.4-0.1,0.6-0.2C24.1,72.9,24.3,72.8,24.4,72.7z M45.6,73.6c-0.1-0.3-0.2-0.6-0.5-0.8c-0.3-0.2-0.6-0.3-1-0.3s-0.6,0.2-0.8,0.5
	c-0.2,0.3-0.3,0.7-0.3,1.2s-0.1,1-0.1,1.5c0,0.5-0.1,1-0.1,1.4c-0.1,0.3-0.2,0.8-0.4,1.3c-0.1,0.5-0.3,1-0.5,1.5s-0.4,1-0.7,1.4
	c-0.3,0.4-0.6,0.7-1,0.8c-0.2-0.1-0.4-0.4-0.5-0.7s-0.2-0.7-0.3-1.1c-0.1-0.4-0.1-0.8-0.1-1.2c0-0.4,0-0.7,0-1v-0.5c0-0.3,0-0.6,0-1
	c0-0.4,0-0.8,0-1.1c-0.1-0.3-0.1-0.5-0.1-0.9c0-0.3,0-0.6-0.1-0.9c-0.1-0.3-0.2-0.5-0.4-0.7c-0.2-0.2-0.5-0.3-1-0.3
	c-0.2,0-0.4,0.1-0.5,0.3c-0.1,0.2-0.2,0.4-0.3,0.7s-0.1,0.6-0.1,0.9c0,0.3,0,0.6,0,0.8c0,0.3,0,0.7,0,1c0,0.3,0,0.6,0,1
	c0,0.1,0,0.2,0,0.4c0,0.1,0,0.2,0,0.4c0,0.5,0,1.2,0.1,1.9c0.1,0.7,0.2,1.5,0.5,2.1c0.2,0.7,0.6,1.3,1,1.7c0.4,0.5,1,0.7,1.8,0.7
	c0.2,0,0.5-0.1,0.8-0.2c0.3-0.1,0.6-0.3,0.8-0.5c0.3-0.2,0.5-0.5,0.7-0.7c0.2-0.3,0.4-0.5,0.5-0.8c0.1,0,0.1,0,0.1,0
	c0,0.1,0,0.3,0,0.4s0,0.3,0,0.4c0,1.4-0.2,2.8-0.5,4c-0.4,1.2-1,2.5-1.9,3.7c-0.2,0.3-0.5,0.5-0.9,0.7c-0.4,0.2-0.7,0.4-1.1,0.5
	c-0.4,0.2-0.7,0.3-0.9,0.4c-0.3,0.1-0.4,0.3-0.4,0.4c0,0.2,0,0.3,0.2,0.5c0.1,0.1,0.2,0.3,0.4,0.4c0.2,0.1,0.3,0.2,0.5,0.2
	c0.2,0,0.3,0.1,0.4,0.1c0.5,0,0.9,0,1.2-0.2c0.3-0.1,0.7-0.2,0.9-0.4c0.3-0.1,0.5-0.3,0.7-0.5c0.2-0.2,0.4-0.3,0.6-0.5
	c1.2-1.4,2.1-2.9,2.6-4.6c0.5-1.7,0.8-3.6,0.8-5.7c0-0.3,0-0.7,0-1c0-0.4,0-0.7,0-1.1c0-0.3,0-0.7,0-1c0-0.3,0-0.5,0-0.7
	c0-0.5,0-1.2,0-2.1C45.5,75.7,45.5,74.7,45.6,73.6z"/>
</svg>
