<svg xmlns="http://www.w3.org/2000/svg" width="60" height="60" viewBox="0 0 60 60">
  <g id="Core_Values" data-name="Core Values" transform="translate(0 0.004)">
    <path id="Trazado_8453" data-name="Trazado 8453" d="M57.642,18.319A30.1,30.1,0,1,0,60,30a29.9,29.9,0,0,0-2.358-11.678M30,58.126A28.129,28.129,0,1,1,58.129,30,28.161,28.161,0,0,1,30,58.126M50.943,41.761l-6.108-6.108c-.26-.26-.564-.57-.853-.9a5.029,5.029,0,0,0-3.022-1.669,9.347,9.347,0,0,0-3.719.214c-2.995.584-7.087,1.382-8.8,1.113a17.187,17.187,0,0,0-1.783-.2,8.288,8.288,0,0,0-3.141.32,3.6,3.6,0,0,0-1.16.65l-8.149-5.9c-.1-.073-.2-.149-.307-.23l-.1-.079a3.214,3.214,0,0,0-2.482-.684,4.64,4.64,0,0,0-2.344,1.22.936.936,0,0,0-.136,1.249c2.406,3.319,8.74,9.307,10.821,11.274.257.243.442.418.508.482a10.6,10.6,0,0,0,5.289,2.806,17.5,17.5,0,0,0,6.675-.029q.043-.007.084-.019c4.088-1.114,7.527.436,10.515,4.738a.936.936,0,0,0,.694.4q.037,0,.075,0a.936.936,0,0,0,.674-.287l6.791-7.054a.936.936,0,0,0-.012-1.311m-7.357,6.267a13.357,13.357,0,0,0-4.97-4.135,9.541,9.541,0,0,0-3.938-.839,11.236,11.236,0,0,0-2.921.4c-4.558.793-7.924.048-10.288-2.276-.079-.077-.25-.239-.534-.508a120.8,120.8,0,0,1-10.03-10.279,1.418,1.418,0,0,1,1.756.073l.1.076c.11.084.224.17.343.256l8.287,6q0,.023,0,.047a3.1,3.1,0,0,0,.9,2.277,4.475,4.475,0,0,0,2.2,1.109l.014,0a19.686,19.686,0,0,0,7.987.108,6.806,6.806,0,0,1,1.372-.139,7.849,7.849,0,0,1,2.72.517.936.936,0,0,0,.665-1.749,9.714,9.714,0,0,0-3.367-.639,8.621,8.621,0,0,0-1.749.173,17.826,17.826,0,0,1-7.225-.1c-1.323-.309-1.6-.872-1.634-1.411.16-.371.7-1.049,3.289-.915a15.182,15.182,0,0,1,1.59.179,7.29,7.29,0,0,0,1.115.075,51.338,51.338,0,0,0,8.354-1.2l.033-.007c2.34-.544,3.95-.265,4.92.854.329.38.677.734.944,1l5.459,5.459Z" transform="translate(0 -0.001)" fill="#525359"/>
    <path id="Trazado_8454" data-name="Trazado 8454" d="M399.537,218.842a1.068,1.068,0,0,1-.63-.206,71.456,71.456,0,0,1-5.625-4.65,38.081,38.081,0,0,1-4.071-4.285,10.194,10.194,0,0,1-2.336-4.53,7.91,7.91,0,0,1,.81-5.071,6.991,6.991,0,0,1,3.355-3.013,7.789,7.789,0,0,1,4.849-.43,7.874,7.874,0,0,1,3.649,1.975,7.875,7.875,0,0,1,3.646-1.974,7.788,7.788,0,0,1,4.85.428,6.991,6.991,0,0,1,3.356,3.013,7.909,7.909,0,0,1,.81,5.072,10.2,10.2,0,0,1-2.336,4.53,38.086,38.086,0,0,1-4.071,4.285,71.451,71.451,0,0,1-5.625,4.65,1.067,1.067,0,0,1-.63.206M394.13,198.59a5.63,5.63,0,0,0-2.236.458,5.1,5.1,0,0,0-2.9,5.807c.255,1.7,2.289,4.379,5.726,7.546,1.942,1.789,3.862,3.3,4.821,4.035.959-.733,2.879-2.245,4.821-4.035,3.438-3.167,5.471-5.847,5.726-7.546a5.1,5.1,0,0,0-2.905-5.807,5.7,5.7,0,0,0-6.775,1.8l-.03.037a1.069,1.069,0,0,1-.838.4h0a1.069,1.069,0,0,1-.838-.409l-.026-.033a5.728,5.728,0,0,0-4.541-2.255" transform="translate(-369.537 -187.705)" fill="#68e242"/>
  </g>
</svg>
