<svg xmlns="http://www.w3.org/2000/svg" width="60" height="60" viewBox="0 0 60 60">
  <g id="Mission" transform="translate(0 0.002)">
    <path id="Trazado_8457" data-name="Trazado 8457" d="M39.706,30a9.695,9.695,0,1,1-7.377-9.425.937.937,0,1,0,.448-1.819A11.626,11.626,0,0,0,30,18.418a11.568,11.568,0,1,0,11.207,8.656.937.937,0,1,0-1.813.472A9.743,9.743,0,0,1,39.706,30M30,48.773a18.775,18.775,0,1,1,4.543-37A.937.937,0,1,0,35,9.958a20.733,20.733,0,0,0-5-.608A20.659,20.659,0,1,0,50.648,30a20.727,20.727,0,0,0-.632-5.09.937.937,0,0,0-1.816.46A18.792,18.792,0,0,1,30,48.773m29.022-26.4a.937.937,0,1,0-1.812.475A28.094,28.094,0,1,1,36.828,2.706.937.937,0,1,0,37.282.888,30.123,30.123,0,0,0,30,0,30.008,30.008,0,0,0,18.322,57.64a30.022,30.022,0,0,0,40.7-35.269" transform="translate(0 0)" fill="#525359"/>
    <path id="Trazado_8458" data-name="Trazado 8458" d="M671.477,53.6a1.07,1.07,0,0,0-.82-.738L665.176,51.8l-1.064-5.481a1.071,1.071,0,0,0-1.808-.553l-10.64,10.64a1.07,1.07,0,0,0-.3.9l.816,5.978-9.6,9.6a1.07,1.07,0,1,0,1.514,1.514l9.6-9.6,5.978.816a1.071,1.071,0,0,0,.9-.3l10.64-10.64a1.071,1.071,0,0,0,.267-1.07m-12.045,9.82-5.172-.706-.706-5.173,8.841-8.841.818,4.213a1.07,1.07,0,0,0,.847.847l4.213.818Z" transform="translate(-613.614 -43.428)" fill="#68e242"/>
  </g>
</svg>
