<svg xmlns="http://www.w3.org/2000/svg" width="66.51" height="60" viewBox="0 0 66.51 60">
  <g id="Vision" transform="translate(-606.745 -440)">
    <path id="Trazado_8455" data-name="Trazado 8455" d="M482.178,421.609a12.249,12.249,0,1,1,8.661-3.588,12.169,12.169,0,0,1-8.661,3.588m0-22.352a10.1,10.1,0,1,0,10.1,10.1,10.114,10.114,0,0,0-10.1-10.1" transform="translate(157.822 60.639)" fill="#68e242"/>
    <path id="Trazado_8456" data-name="Trazado 8456" d="M17.293,44.962l-7.275,6.613a.939.939,0,0,0,1.263,1.389l7.275-6.613a.939.939,0,0,0-1.263-1.389m0-30.1a.939.939,0,0,0,1.263-1.389L11.281,6.862a.939.939,0,1,0-1.263,1.389Zm15.962-3.635a.939.939,0,0,0,.939-.939V.938a.939.939,0,1,0-1.877,0V10.29a.939.939,0,0,0,.939.939m15.331,3.879a.936.936,0,0,0,.631-.244l7.275-6.613a.939.939,0,0,0-1.263-1.389l-7.275,6.613a.939.939,0,0,0,.632,1.633m17.575,14.16a57.441,57.441,0,0,0-9.635-5.948A60.176,60.176,0,0,0,46.09,19.244a47.211,47.211,0,0,0-12.835-1.86,47.211,47.211,0,0,0-12.835,1.86A60.175,60.175,0,0,0,9.985,23.321,57.441,57.441,0,0,0,.349,29.268a.939.939,0,0,0,0,1.461,57.437,57.437,0,0,0,9.635,5.948A60.175,60.175,0,0,0,20.42,40.754a47.213,47.213,0,0,0,12.835,1.86,47.213,47.213,0,0,0,12.835-1.86,60.176,60.176,0,0,0,10.436-4.077,57.438,57.438,0,0,0,9.635-5.948.939.939,0,0,0,0-1.461M55.643,35.019c-5.236,2.608-13.369,5.718-22.388,5.718S16.1,37.628,10.867,35.019A60.986,60.986,0,0,1,2.5,30a60.987,60.987,0,0,1,8.366-5.02c5.236-2.608,13.369-5.718,22.388-5.718s17.152,3.109,22.388,5.718A60.977,60.977,0,0,1,64.009,30a60.976,60.976,0,0,1-8.366,5.02M33.255,25.133A4.865,4.865,0,1,0,38.12,30a4.871,4.871,0,0,0-4.865-4.865m0,7.854A2.988,2.988,0,1,1,36.243,30a2.991,2.991,0,0,1-2.988,2.988m0,15.782a.939.939,0,0,0-.939.939V59.06a.939.939,0,1,0,1.877,0V49.708a.939.939,0,0,0-.939-.939m15.962-3.807a.939.939,0,0,0-1.263,1.389l7.275,6.613a.939.939,0,0,0,1.263-1.389Z" transform="translate(606.745 440.001)" fill="#525359"/>
  </g>
</svg>
