<?xml version="1.0" encoding="utf-8"?>
<!-- Generator: Adobe Illustrator 26.5.0, SVG Export Plug-In . SVG Version: 6.00 Build 0)  -->
<svg version="1.1" id="Capa_1" xmlns="http://www.w3.org/2000/svg" xmlns:xlink="http://www.w3.org/1999/xlink" x="0px" y="0px"
	 viewBox="0 0 283.5 141.7" style="enable-background:new 0 0 283.5 141.7;" xml:space="preserve">
<style type="text/css">
	.st0{fill:#68E242;}
</style>
<g>
	<g>
		<path class="st0" d="M110.3,93.8c-23.9,0-27.8-15.2-27.8-23.6V48.6h14v20.8c0,5.8,2.6,12.9,14.7,12.9c12,0,14.6-7.1,14.6-12.9
			V48.6h14v21.6c0,8.4-4.6,23.6-27.4,23.6H110.3z"/>
		<path class="st0" d="M172.2,93.8c-23.9,0-27.8-15.2-27.8-23.6V48.6h14v20.8c0,5.8,2.6,12.9,14.7,12.9c12,0,14.6-7.1,14.6-12.9
			V48.6h14v21.6c0,8.4-4.6,23.6-27.4,23.6H172.2z"/>
		<path class="st0" d="M206.9,48.6h29.5c25.8,0,31.5,11.1,31.5,21.1v1.8c0,9.6-5.3,21.7-31.4,21.7h-29.6V48.6z M220.8,82.4h14.5
			c15.8,0,17.9-7,17.9-11.5v-0.4c0-4.6-1.9-11.4-17.9-11.4h-14.5V82.4z"/>
		<g>
			<path class="st0" d="M263.2,91.6c0-1.4,1-2.4,2.3-2.4s2.3,1,2.3,2.4c0,1.4-1,2.4-2.3,2.4S263.2,92.9,263.2,91.6 M267.5,91.6
				c0-1.1-0.9-2-2-2c-1.1,0-2,0.8-2,2c0,1.2,0.9,2,2,2C266.6,93.5,267.5,92.7,267.5,91.6 M264.6,90.3h1c0.5,0,0.8,0.3,0.8,0.7
				c0,0.4-0.2,0.6-0.5,0.6v0c0.6,0.1,0.4,1.1,0.5,1.1v0h-0.4c-0.1-0.1,0.1-1-0.6-1h-0.4v1h-0.4V90.3z M265.1,91.4h0.4
				c0.3,0,0.6,0,0.6-0.4c0-0.4-0.3-0.4-0.6-0.4h-0.4V91.4z"/>
		</g>
		<path class="st0" d="M45.3,93.9c-24.1,0-29.7-13.5-29.7-22.4v-1.7c0-8.7,4.6-22.1,30.2-22.1h2.6c24.9,0,29.3,10.8,29.5,16.9v0.1
			H63.1c-0.4-1-2-6.4-15.9-6.4c-13.6,0-17,5.9-17,12v0.7c0,5.8,4.6,12,16.8,12c13.2,0,17.3-5.1,17.3-6.4v-0.1H46.8v-8.4h31.4v25
			h-8.4c-0.2-1.6-0.1-6.4-0.1-8.4c-3.7,3.8-9.4,9.1-23.2,9.1H45.3z"/>
	</g>
</g>
</svg>
