<svg xmlns="http://www.w3.org/2000/svg" width="30" height="30" viewBox="0 0 30 30">
  <g id="Clip" transform="translate(-316 -653)">
    <rect id="icon-contenedor" width="30" height="30" transform="translate(316 653)" fill="none"/>
    <path id="Trazado_5933" data-name="Trazado 5933" d="M16.752,1.655A5.6,5.6,0,0,0,12.788,0h-.021A5.6,5.6,0,0,0,8.8,1.655L.961,9.544a.5.5,0,0,0,.355.853h0a.506.506,0,0,0,.354-.148L9.513,2.362l.024-.025A4.57,4.57,0,0,1,12.777,1H12.8a4.566,4.566,0,0,1,3.247,1.359,4.69,4.69,0,0,1,0,6.576L6.7,18.341a3.351,3.351,0,1,1-4.723-4.755l9.349-9.411a2.066,2.066,0,1,1,2.91,2.933l-8.445,8.5a.5.5,0,0,0-.145.355.493.493,0,0,0,.147.352.5.5,0,0,0,.708,0l8.445-8.492a3.1,3.1,0,0,0,0-4.348,3.117,3.117,0,0,0-4.327,0l-9.35,9.407a4.393,4.393,0,0,0,0,6.165,4.323,4.323,0,0,0,3.059,1.278h.011V20.32h.01A4.326,4.326,0,0,0,7.4,19.042l9.351-9.4a5.7,5.7,0,0,0,0-7.987" transform="translate(322 657.837)" fill="#264444"/>
  </g>
</svg>
